<?xml version="1.0" encoding="UTF-8"?>
<!DOCTYPE svg PUBLIC "-//W3C//DTD SVG 1.1//EN" "http://www.w3.org/Graphics/SVG/1.1/DTD/svg11.dtd">
<svg xmlns="http://www.w3.org/2000/svg" version="1.1" width="475px" height="477px" style="shape-rendering:geometricPrecision; text-rendering:geometricPrecision; image-rendering:optimizeQuality; fill-rule:evenodd; clip-rule:evenodd" xmlns:xlink="http://www.w3.org/1999/xlink">
<g><path style="opacity:0.981" fill="#2d2939" d="M 188.5,-0.5 C 195.5,-0.5 202.5,-0.5 209.5,-0.5C 219.121,2.11078 226.454,7.77745 231.5,16.5C 231.167,16.8333 230.833,17.1667 230.5,17.5C 222.485,12.717 213.819,10.3836 204.5,10.5C 204.828,15.8746 204.495,21.2079 203.5,26.5C 196.638,16.5655 187.638,9.23215 176.5,4.5C 180.27,2.02829 184.27,0.361622 188.5,-0.5 Z"/></g>
<g><path style="opacity:0.983" fill="#2749a2" d="M 423.5,38.5 C 418.801,36.577 413.801,35.4103 408.5,35C 341.73,30.6875 278.064,42.6875 217.5,71C 199.003,80.0221 182.336,91.5221 167.5,105.5C 164.168,108 161.334,111 159,114.5C 155.31,120.386 156.144,125.553 161.5,130C 165.439,130.56 168.772,129.394 171.5,126.5C 195.961,115.468 221.628,108.968 248.5,107C 300.945,103.518 352.945,106.852 404.5,117C 412.519,119.171 420.519,121.338 428.5,123.5C 435.264,125.092 440.098,129.092 443,135.5C 446.576,141.688 445.076,143.022 438.5,139.5C 413.775,129.735 388.108,123.235 361.5,120C 317.57,113.756 273.57,113.089 229.5,118C 219.437,119.682 209.437,121.682 199.5,124C 194.177,125.667 189.177,127.834 184.5,130.5C 172.635,134.721 172.635,138.721 184.5,142.5C 214.008,144.326 243.675,146.159 273.5,148C 322.359,152.383 369.026,163.883 413.5,182.5C 419.222,185.445 424.722,188.779 430,192.5C 431.483,195.702 431.817,199.036 431,202.5C 428.948,200.942 426.781,199.608 424.5,198.5C 412.553,191.364 399.886,185.53 386.5,181C 329.624,160.491 270.957,150.158 210.5,150C 205.094,150.615 199.761,151.615 194.5,153C 192.934,153.608 191.6,154.442 190.5,155.5C 186.908,157.472 186.574,159.972 189.5,163C 196.861,167.62 204.861,169.453 213.5,168.5C 234.613,172.911 255.947,176.911 277.5,180.5C 279.5,181.167 281.5,181.833 283.5,182.5C 311.554,189.462 338.554,199.295 364.5,212C 368.862,214.844 373.195,217.677 377.5,220.5C 386.323,226.321 392.989,233.987 397.5,243.5C 396.753,243.736 395.92,244.07 395,244.5C 383.537,237.228 372.37,230.228 361.5,223.5C 342.708,213.407 323.041,206.907 302.5,204C 279.781,200.124 257.114,197.624 234.5,196.5C 230.916,196.518 227.416,196.852 224,197.5C 214.265,195.984 204.432,194.818 194.5,194C 191.554,193.194 188.888,191.861 186.5,190C 182.682,184.52 178.516,179.353 174,174.5C 173.219,173.271 172.719,171.938 172.5,170.5C 175.742,162.318 173.408,156.318 165.5,152.5C 164.182,148.668 161.848,145.501 158.5,143C 151.375,141.458 144.375,139.458 137.5,137C 126.328,130.915 115.328,124.582 104.5,118C 98.0559,114.814 93.8892,116.647 92,123.5C 85.9139,116.596 82.4139,108.596 81.5,99.5C 105.067,97.5493 120.067,85.5493 126.5,63.5C 127.667,63.1667 128.833,62.8333 130,62.5C 149.383,66.2731 167.883,63.7731 185.5,55C 190.512,49.2368 190.512,43.2368 185.5,37C 188.043,34.3968 191.21,33.2301 195,33.5C 209.664,39.7847 223.664,38.4513 237,29.5C 237.495,26.3105 236.661,23.4772 234.5,21C 234.645,20.228 234.978,19.5613 235.5,19C 279.259,1.92248 323.926,-0.74419 369.5,11C 387.183,14.6721 404.183,20.3388 420.5,28C 423.909,30.0339 426.909,32.5339 429.5,35.5C 428.061,37.5531 426.061,38.5531 423.5,38.5 Z"/></g>
<g><path style="opacity:0.991" fill="#2d2837" d="M 134.5,9.5 C 150.545,7.20894 164.045,11.8756 175,23.5C 177.499,26.9984 179.332,30.8318 180.5,35C 180.167,35.5 179.833,36 179.5,36.5C 167.866,31.1112 155.866,28.4446 143.5,28.5C 144.358,32.6241 145.024,36.7907 145.5,41C 145.506,43.2998 145.006,45.4664 144,47.5C 138.478,39.1521 130.978,33.3187 121.5,30C 115.468,28.1604 109.468,26.3271 103.5,24.5C 106.915,20.622 110.915,17.4553 115.5,15C 121.756,12.4592 128.09,10.6258 134.5,9.5 Z"/></g>
<g><path style="opacity:0.989" fill="#1a2a58" d="M 207.5,12.5 C 216.303,12.4895 224.136,15.1561 231,20.5C 232.187,22.0444 232.52,23.7111 232,25.5C 225.733,30.6983 218.567,33.5316 210.5,34C 208.892,29.0926 207.559,24.0926 206.5,19C 207.423,16.9592 207.756,14.7925 207.5,12.5 Z"/></g>
<g><path style="opacity:1" fill="#162d68" d="M 321.5,16.5 C 326.066,17.5774 330.4,19.2441 334.5,21.5C 331.086,23.9574 327.586,26.2907 324,28.5C 322.423,24.7174 321.589,20.7174 321.5,16.5 Z"/></g>
<g><path style="opacity:1" fill="#1d202d" d="M 212.5,19.5 C 224.452,22.364 224.452,24.6974 212.5,26.5C 212.5,24.1667 212.5,21.8333 212.5,19.5 Z"/></g>
<g><path style="opacity:1" fill="#172a5f" d="M 293.5,22.5 C 298.545,24.0118 303.545,25.6784 308.5,27.5C 304.783,29.4602 300.95,31.1269 297,32.5C 295.526,29.2444 294.36,25.911 293.5,22.5 Z"/></g>
<g><path style="opacity:0.993" fill="#2d2837" d="M 80.5,95.5 C 74.4091,89.5828 68.0758,83.7495 61.5,78C 52.8249,71.2476 42.9915,67.4143 32,66.5C 29.6477,66.3049 27.6477,66.9716 26,68.5C 25.1074,67.9186 24.1074,67.5852 23,67.5C 14.8326,69.2778 6.99928,71.9445 -0.5,75.5C -0.5,74.1667 -0.5,72.8333 -0.5,71.5C 14.2906,38.0964 39.9573,23.9298 76.5,29C 93.7711,34.6166 107.771,44.6166 118.5,59C 118.167,59.5 117.833,60 117.5,60.5C 102.885,56.6731 88.2188,54.8398 73.5,55C 76.8553,68.2972 79.1886,81.7972 80.5,95.5 Z"/></g>
<g><path style="opacity:0.931" fill="#2749a1" d="M 431.5,27.5 C 436.901,26.9664 441.901,28.133 446.5,31C 459.948,40.4024 467.281,53.2357 468.5,69.5C 463.46,66.6443 458.793,63.1443 454.5,59C 448.471,57.0387 442.138,54.872 435.5,52.5C 434.197,53.7178 433.197,53.3845 432.5,51.5C 431.914,51.7093 431.414,52.0426 431,52.5C 428.2,50.6699 425.367,48.8366 422.5,47C 427.506,44.4987 432.173,41.4987 436.5,38C 435.042,35.54 433.209,33.3734 431,31.5C 430.421,30.0715 430.588,28.7382 431.5,27.5 Z"/></g>
<g><path style="opacity:1" fill="#152d67" d="M 260.5,30.5 C 260.917,29.8761 261.584,29.5427 262.5,29.5C 268.106,30.734 273.772,31.5674 279.5,32C 274.97,35.3623 270.303,38.5289 265.5,41.5C 263.625,37.85 261.958,34.1834 260.5,30.5 Z"/></g>
<g><path style="opacity:0.989" fill="#192a58" d="M 147.5,31.5 C 158.943,34.0367 169.943,37.87 180.5,43C 181.687,44.0195 182.687,45.1861 183.5,46.5C 180.87,48.8208 177.87,50.6541 174.5,52C 166.798,55.2268 159.298,58.0601 152,60.5C 149.504,57.6864 148.17,54.3531 148,50.5C 147.807,45.2497 147.307,40.083 146.5,35C 146.619,33.8552 146.952,32.6885 147.5,31.5 Z"/></g>
<g><path style="opacity:1" fill="#8e9873" d="M 423.5,38.5 C 419.462,41.5116 415.462,44.5116 411.5,47.5C 406.46,51.539 402.127,56.2056 398.5,61.5C 390.047,74.8187 390.547,87.8187 400,100.5C 408.564,109.505 418.064,117.172 428.5,123.5C 420.519,121.338 412.519,119.171 404.5,117C 352.945,106.852 300.945,103.518 248.5,107C 221.628,108.968 195.961,115.468 171.5,126.5C 177.083,121.363 183.416,117.196 190.5,114C 205.656,106.922 221.323,101.255 237.5,97C 243.776,95.6623 249.443,96.9957 254.5,101C 268.075,104.79 281.408,104.123 294.5,99C 299.02,95.4638 302.186,90.9638 304,85.5C 304.725,84.9415 305.558,84.6082 306.5,84.5C 310.582,87.0749 314.249,90.2415 317.5,94C 333.59,106.402 350.59,107.735 368.5,98C 371.683,94.9845 374.683,91.8178 377.5,88.5C 377.167,88.1667 376.833,87.8333 376.5,87.5C 356.068,100.483 338.235,97.8163 323,79.5C 319.013,68.6584 321.513,59.8251 330.5,53C 350.216,46.9097 367.383,51.0764 382,65.5C 379.888,56.3687 374.388,49.8687 365.5,46C 349.985,39.6924 334.652,40.0258 319.5,47C 310.301,53.0405 304.968,61.5405 303.5,72.5C 299.293,65.7992 293.293,61.6325 285.5,60C 267.166,57.2173 252.333,63.0507 241,77.5C 240.667,79.8333 240.333,82.1667 240,84.5C 239.097,85.7014 237.931,86.5348 236.5,87C 212.665,90.2254 189.665,96.3921 167.5,105.5C 182.336,91.5221 199.003,80.0221 217.5,71C 278.064,42.6875 341.73,30.6875 408.5,35C 413.801,35.4103 418.801,36.577 423.5,38.5 Z"/></g>
<g><path style="opacity:1" fill="#1e1e2a" d="M 155.5,40.5 C 160.847,41.7475 165.847,43.7475 170.5,46.5C 168.098,47.5754 165.764,48.7421 163.5,50C 160.854,50.4974 158.187,50.6641 155.5,50.5C 155.5,47.1667 155.5,43.8333 155.5,40.5 Z"/></g>
<g><path style="opacity:1" fill="#17295c" d="M 233.5,40.5 C 239.206,40.1712 244.872,40.5046 250.5,41.5C 246.515,44.9844 242.682,48.651 239,52.5C 236.881,48.5977 235.048,44.5977 233.5,40.5 Z"/></g>
<g><path style="opacity:1" fill="#40442e" d="M 171.5,126.5 C 168.772,129.394 165.439,130.56 161.5,130C 156.144,125.553 155.31,120.386 159,114.5C 161.334,111 164.168,108 167.5,105.5C 189.665,96.3921 212.665,90.2254 236.5,87C 237.931,86.5348 239.097,85.7014 240,84.5C 240.333,82.1667 240.667,79.8333 241,77.5C 252.333,63.0507 267.166,57.2173 285.5,60C 293.293,61.6325 299.293,65.7992 303.5,72.5C 304.968,61.5405 310.301,53.0405 319.5,47C 334.652,40.0258 349.985,39.6924 365.5,46C 374.388,49.8687 379.888,56.3687 382,65.5C 367.383,51.0764 350.216,46.9097 330.5,53C 321.513,59.8251 319.013,68.6584 323,79.5C 338.235,97.8163 356.068,100.483 376.5,87.5C 376.833,87.8333 377.167,88.1667 377.5,88.5C 374.683,91.8178 371.683,94.9845 368.5,98C 350.59,107.735 333.59,106.402 317.5,94C 314.249,90.2415 310.582,87.0749 306.5,84.5C 305.558,84.6082 304.725,84.9415 304,85.5C 302.186,90.9638 299.02,95.4638 294.5,99C 281.408,104.123 268.075,104.79 254.5,101C 249.443,96.9957 243.776,95.6623 237.5,97C 221.323,101.255 205.656,106.922 190.5,114C 183.416,117.196 177.083,121.363 171.5,126.5 Z"/></g>
<g><path style="opacity:0.012" fill="#3c4c73" d="M 411.5,47.5 C 412.833,48.1667 412.833,48.1667 411.5,47.5 Z"/></g>
<g><path style="opacity:1" fill="#152d67" d="M 202.5,50.5 C 209.831,50.9522 217.165,51.4522 224.5,52C 221.299,56.1965 217.799,60.0298 214,63.5C 209.587,59.593 205.754,55.2597 202.5,50.5 Z"/></g>
<g><path style="opacity:0.99" fill="#192a59" d="M 78.5,57.5 C 91.7836,60.7066 104.784,64.7066 117.5,69.5C 115.025,73.1421 112.358,76.6421 109.5,80C 102.104,86.1153 94.271,91.6153 86,96.5C 84.6835,91.8789 83.1835,87.3789 81.5,83C 82.0814,82.1074 82.4148,81.1074 82.5,80C 81.2175,72.4704 79.8842,64.9704 78.5,57.5 Z"/></g>
<g><path style="opacity:0.012" fill="#3c4c73" d="M 398.5,61.5 C 399.833,62.1667 399.833,62.1667 398.5,61.5 Z"/></g>
<g><path style="opacity:1" fill="#17295d" d="M 173.5,66.5 C 181.507,66.3336 189.507,66.5003 197.5,67C 193,72.1667 188.5,77.3333 184,82.5C 179.858,77.5369 176.358,72.2036 173.5,66.5 Z"/></g>
<g><path style="opacity:1" fill="#8e9872" d="M 271.5,68.5 C 276.267,68.1908 280.934,68.6908 285.5,70C 292.796,74.717 294.296,80.8837 290,88.5C 280.386,97.2276 270.219,97.7276 259.5,90C 255.733,85.6333 255.567,81.1333 259,76.5C 262.671,72.9227 266.838,70.2561 271.5,68.5 Z"/></g>
<g><path style="opacity:1" fill="#1d1f2c" d="M 89.5,70.5 C 94.9783,70.5442 100.312,71.3776 105.5,73C 101.899,78.4455 96.8985,81.6122 90.5,82.5C 90.3542,78.4809 90.0209,74.4809 89.5,70.5 Z"/></g>
<g><path style="opacity:1" fill="#152d67" d="M 161.5,79.5 C 164.187,79.3359 166.854,79.5026 169.5,80C 164.039,89.0905 158.206,97.9239 152,106.5C 146.918,99.338 142.085,92.0047 137.5,84.5C 138.025,83.8076 138.692,83.3076 139.5,83C 147.026,82.1474 154.359,80.9807 161.5,79.5 Z"/></g>
<g><path style="opacity:0.994" fill="#192b40" d="M 82.5,120.5 C 82.1583,121.338 81.4916,121.672 80.5,121.5C 79.1667,120.167 77.8333,120.167 76.5,121.5C 74.6203,121.229 73.287,121.896 72.5,123.5C 71.8826,123.611 71.3826,123.944 71,124.5C 70.1863,131.234 70.3529,136.568 71.5,140.5C 72.404,141.209 72.7373,142.209 72.5,143.5C 71.8485,144.091 71.1818,144.757 70.5,145.5C 60.8965,141.312 55.3965,133.978 54,123.5C 53.3333,112.833 53.3333,102.167 54,91.5C 58.2249,93.7159 61.8915,96.7159 65,100.5C 70.6828,107.97 76.5162,114.636 82.5,120.5 Z"/></g>
<g><path style="opacity:0.012" fill="#3c4c73" d="M 80.5,95.5 C 81.8333,96.1667 81.8333,96.1667 80.5,95.5 Z"/></g>
<g><path style="opacity:1" fill="#8d9773" d="M 438.5,139.5 C 432.573,141.167 427.24,144.501 422.5,149.5C 414.277,156.615 410.443,165.615 411,176.5C 411.573,178.641 412.406,180.641 413.5,182.5C 369.026,163.883 322.359,152.383 273.5,148C 243.675,146.159 214.008,144.326 184.5,142.5C 210.381,138.688 236.381,137.022 262.5,137.5C 268.711,143.913 276.377,147.246 285.5,147.5C 289.196,147.217 292.863,146.717 296.5,146C 301.289,144.031 305.956,141.864 310.5,139.5C 319.32,149.079 330.32,154.745 343.5,156.5C 350.668,156.611 357.001,154.444 362.5,150C 357.172,151.328 351.672,152.161 346,152.5C 335.997,152.311 329.164,147.644 325.5,138.5C 326.596,132.903 329.93,129.403 335.5,128C 347.377,127.184 357.544,131.018 366,139.5C 365.255,135.035 363.088,131.201 359.5,128C 348.659,121.315 336.992,119.649 324.5,123C 319.698,125.64 315.032,128.473 310.5,131.5C 308.617,131.124 307.117,130.124 306,128.5C 302.401,119.784 295.901,115.784 286.5,116.5C 276.935,116.45 268.935,119.95 262.5,127C 244.189,126.046 225.856,125.713 207.5,126C 199.726,127.028 192.059,128.528 184.5,130.5C 189.177,127.834 194.177,125.667 199.5,124C 209.437,121.682 219.437,119.682 229.5,118C 273.57,113.089 317.57,113.756 361.5,120C 388.108,123.235 413.775,129.735 438.5,139.5 Z"/></g>
<g><path style="opacity:1" fill="#41452e" d="M 184.5,142.5 C 172.635,138.721 172.635,134.721 184.5,130.5C 192.059,128.528 199.726,127.028 207.5,126C 225.856,125.713 244.189,126.046 262.5,127C 268.935,119.95 276.935,116.45 286.5,116.5C 295.901,115.784 302.401,119.784 306,128.5C 307.117,130.124 308.617,131.124 310.5,131.5C 315.032,128.473 319.698,125.64 324.5,123C 336.992,119.649 348.659,121.315 359.5,128C 363.088,131.201 365.255,135.035 366,139.5C 357.544,131.018 347.377,127.184 335.5,128C 329.93,129.403 326.596,132.903 325.5,138.5C 329.164,147.644 335.997,152.311 346,152.5C 351.672,152.161 357.172,151.328 362.5,150C 357.001,154.444 350.668,156.611 343.5,156.5C 330.32,154.745 319.32,149.079 310.5,139.5C 305.956,141.864 301.289,144.031 296.5,146C 292.863,146.717 289.196,147.217 285.5,147.5C 276.377,147.246 268.711,143.913 262.5,137.5C 236.381,137.022 210.381,138.688 184.5,142.5 Z"/></g>
<g><path style="opacity:0.982" fill="#192a59" d="M 82.5,120.5 C 84.1667,120.5 85.8333,120.5 87.5,120.5C 85.7044,130.103 82.2044,139.103 77,147.5C 76.2801,149.255 75.1134,150.089 73.5,150C 72.5769,147.959 72.2436,145.792 72.5,143.5C 72.7373,142.209 72.404,141.209 71.5,140.5C 71.2598,134.773 71.5931,129.106 72.5,123.5C 74.153,123.34 75.4863,122.674 76.5,121.5C 77.8333,121.5 79.1667,121.5 80.5,121.5C 81.4916,121.672 82.1583,121.338 82.5,120.5 Z"/></g>
<g><path style="opacity:0.957" fill="#2649a1" d="M 97.5,122.5 C 112.469,130.949 127.802,138.783 143.5,146C 139.204,147.815 135.204,150.148 131.5,153C 128.112,157.622 124.612,162.122 121,166.5C 109.358,161.231 97.8584,156.565 86.5,152.5C 84.622,153.661 83.622,152.994 83.5,150.5C 86.1012,139.963 90.7679,130.629 97.5,122.5 Z"/></g>
<g><path style="opacity:1" fill="#8d9771" d="M 283.5,122.5 C 289.614,122.144 294.781,124.144 299,128.5C 300.274,135.257 297.441,139.424 290.5,141C 283.265,142.633 277.431,140.467 273,134.5C 272.07,131.15 272.903,128.317 275.5,126C 278.158,124.522 280.825,123.355 283.5,122.5 Z"/></g>
<g><path style="opacity:0.934" fill="#2749a1" d="M 474.5,159.5 C 474.5,164.833 474.5,170.167 474.5,175.5C 473.262,176.412 471.928,176.579 470.5,176C 467.536,168.488 462.869,162.155 456.5,157C 451.167,153.667 445.833,150.333 440.5,147C 443.064,144.895 445.731,143.062 448.5,141.5C 445.821,136.797 444.154,131.797 443.5,126.5C 451.763,128.048 458.596,132.048 464,138.5C 468.606,145.045 472.106,152.045 474.5,159.5 Z"/></g>
<g><path style="opacity:1" fill="#363a3a" d="M 77.5,127.5 C 79.7224,127.559 80.7224,128.725 80.5,131C 80.5765,133.756 79.2431,134.923 76.5,134.5C 76.298,132.05 76.6314,129.717 77.5,127.5 Z"/></g>
<g><path style="opacity:0.995" fill="#192b40" d="M 106.5,199.5 C 102.122,204.545 98.1223,209.878 94.5,215.5C 94.1667,215.5 93.8333,215.5 93.5,215.5C 90.0532,205.94 85.0532,197.273 78.5,189.5C 77.2798,188.289 76.1131,188.289 75,189.5C 74.2057,192.471 73.539,195.471 73,198.5C 72.3109,199.357 71.4776,200.023 70.5,200.5C 65.7903,196.779 61.1236,193.112 56.5,189.5C 56.5,188.833 56.1667,188.5 55.5,188.5C 51.8737,173.316 48.207,158.15 44.5,143C 44.799,141.68 44.9657,140.18 45,138.5C 57.8081,145.969 69.4748,154.969 80,165.5C 83.2516,170.334 86.2516,175.334 89,180.5C 91.2844,174.936 94.7844,170.269 99.5,166.5C 101.698,177.488 104.031,188.488 106.5,199.5 Z"/></g>
<g><path style="opacity:0.985" fill="#2a2739" d="M 165.5,152.5 C 168.212,156.567 170.545,160.901 172.5,165.5C 172.291,166.086 171.957,166.586 171.5,167C 155.882,167.922 141.049,171.755 127,178.5C 126.123,173.456 127.123,168.789 130,164.5C 135.488,155.508 142.988,148.842 152.5,144.5C 157.359,146.369 161.693,149.036 165.5,152.5 Z"/></g>
<g><path style="opacity:0.012" fill="#3c4c73" d="M 422.5,149.5 C 423.833,150.167 423.833,150.167 422.5,149.5 Z"/></g>
<g><path style="opacity:1" fill="#41452f" d="M 283.5,182.5 C 281.5,181.833 279.5,181.167 277.5,180.5C 272.505,177.979 268.172,174.479 264.5,170C 247.554,167.384 230.554,166.884 213.5,168.5C 204.861,169.453 196.861,167.62 189.5,163C 186.574,159.972 186.908,157.472 190.5,155.5C 216.229,151.786 241.063,154.786 265,164.5C 269.548,162.476 274.048,160.309 278.5,158C 285.263,156.753 291.596,157.753 297.5,161C 300.743,164.821 303.743,168.821 306.5,173C 308.5,173.667 310.5,173.667 312.5,173C 318.845,168.704 325.845,167.37 333.5,169C 337.884,171.036 340.718,174.203 342,178.5C 335.38,173.376 328.213,172.376 320.5,175.5C 319.348,178.106 319.182,180.773 320,183.5C 326.144,190.131 333.644,192.297 342.5,190C 333.356,196.316 324.69,195.649 316.5,188C 314.167,185 311.833,182 309.5,179C 307.863,178.399 306.197,177.899 304.5,177.5C 297.631,180.302 290.631,181.969 283.5,182.5 Z"/></g>
<g><path style="opacity:0.877" fill="#2749a0" d="M 82.5,156.5 C 99.126,157.985 101.126,163.652 88.5,173.5C 86.3923,171.694 84.7256,169.527 83.5,167C 83.8333,166.667 84.1667,166.333 84.5,166C 83.3899,162.951 82.7233,159.784 82.5,156.5 Z"/></g>
<g><path style="opacity:1" fill="#8d9773" d="M 424.5,198.5 C 422.609,197.464 420.776,197.464 419,198.5C 418.196,197.196 417.029,196.529 415.5,196.5C 409.927,196.556 404.26,196.723 398.5,197C 391.691,198.588 385.691,202.088 380.5,207.5C 376.62,211.089 375.62,215.422 377.5,220.5C 373.195,217.677 368.862,214.844 364.5,212C 338.554,199.295 311.554,189.462 283.5,182.5C 290.631,181.969 297.631,180.302 304.5,177.5C 306.197,177.899 307.863,178.399 309.5,179C 311.833,182 314.167,185 316.5,188C 324.69,195.649 333.356,196.316 342.5,190C 333.644,192.297 326.144,190.131 320,183.5C 319.182,180.773 319.348,178.106 320.5,175.5C 328.213,172.376 335.38,173.376 342,178.5C 340.718,174.203 337.884,171.036 333.5,169C 325.845,167.37 318.845,168.704 312.5,173C 310.5,173.667 308.5,173.667 306.5,173C 303.743,168.821 300.743,164.821 297.5,161C 291.596,157.753 285.263,156.753 278.5,158C 274.048,160.309 269.548,162.476 265,164.5C 241.063,154.786 216.229,151.786 190.5,155.5C 191.6,154.442 192.934,153.608 194.5,153C 199.761,151.615 205.094,150.615 210.5,150C 270.957,150.158 329.624,160.491 386.5,181C 399.886,185.53 412.553,191.364 424.5,198.5 Z"/></g>
<g><path style="opacity:1" fill="#8e9872" d="M 280.5,162.5 C 286.652,161.408 291.818,163.075 296,167.5C 296.733,172.463 294.567,175.63 289.5,177C 280.288,179.107 276.121,175.607 277,166.5C 278.376,165.295 279.542,163.962 280.5,162.5 Z"/></g>
<g><path style="opacity:0.987" fill="#1b2c41" d="M 41.5,199.5 C 41.3284,200.492 41.6618,201.158 42.5,201.5C 42.2627,202.791 42.596,203.791 43.5,204.5C 43.3284,205.492 43.6618,206.158 44.5,206.5C 44.2627,207.791 44.596,208.791 45.5,209.5C 45.5,209.833 45.5,210.167 45.5,210.5C 42.6277,209.474 40.1277,207.808 38,205.5C 31.4147,195.747 28.5814,184.914 29.5,173C 29.8333,169.833 30.1667,166.667 30.5,163.5C 37.9847,170.824 44.1514,179.157 49,188.5C 49.866,190.896 49.366,191.563 47.5,190.5C 44.4593,190.879 41.9593,192.212 40,194.5C 39.7973,196.391 40.2973,198.057 41.5,199.5 Z"/></g>
<g><path style="opacity:0.93" fill="#2849a1" d="M 121.5,184.5 C 118.465,192.693 116.465,201.026 115.5,209.5C 114.883,207.771 113.883,206.271 112.5,205C 112.833,204.667 113.167,204.333 113.5,204C 112.762,200.673 111.428,197.673 109.5,195C 110.022,194.439 110.355,193.772 110.5,193C 108.558,184.241 107.225,175.408 106.5,166.5C 112.44,166.037 117.607,168.037 122,172.5C 122.497,176.524 122.331,180.524 121.5,184.5 Z"/></g>
<g><path style="opacity:1" fill="#8a9474" d="M 277.5,180.5 C 255.947,176.911 234.613,172.911 213.5,168.5C 230.554,166.884 247.554,167.384 264.5,170C 268.172,174.479 272.505,177.979 277.5,180.5 Z"/></g>
<g><path style="opacity:0.992" fill="#9f9373" d="M 164.5,172.5 C 168.861,173.17 172.195,175.503 174.5,179.5C 167.218,183.614 161.385,189.281 157,196.5C 150.59,190.586 143.757,185.253 136.5,180.5C 139.505,178.329 142.839,176.829 146.5,176C 152.581,174.503 158.581,173.336 164.5,172.5 Z"/></g>
<g><path style="opacity:0.997" fill="#a19473" d="M 156.5,200.5 C 149.13,208.026 141.13,214.86 132.5,221C 131.552,221.483 130.552,221.649 129.5,221.5C 127.431,218.427 124.764,216.094 121.5,214.5C 119.259,213.379 116.925,212.213 114.5,211C 115.056,210.617 115.389,210.117 115.5,209.5C 116.465,201.026 118.465,192.693 121.5,184.5C 125.187,182.156 129.187,181.323 133.5,182C 142.222,186.892 149.889,193.059 156.5,200.5 Z"/></g>
<g><path style="opacity:0.972" fill="#2648a1" d="M 198.5,226.5 C 191.411,229.976 184.411,233.642 177.5,237.5C 172.508,235.698 167.841,236.198 163.5,239C 154.028,248.959 145.028,259.293 136.5,270C 133.084,270.893 129.917,270.393 127,268.5C 126.517,267.552 126.351,266.552 126.5,265.5C 128.535,262.6 130.201,259.434 131.5,256C 126.265,246.097 118.932,238.097 109.5,232C 113.431,230.972 117.098,229.472 120.5,227.5C 120.435,227.938 120.601,228.272 121,228.5C 123.352,226.97 125.519,225.303 127.5,223.5C 128.5,223.167 129.167,222.5 129.5,221.5C 130.552,221.649 131.552,221.483 132.5,221C 141.13,214.86 149.13,208.026 156.5,200.5C 162.262,196.243 167.595,191.41 172.5,186C 175.776,187.237 178.609,189.403 181,192.5C 189.216,202.598 195.049,213.931 198.5,226.5 Z"/></g>
<g><path style="opacity:0.984" fill="#2648a1" d="M 55.5,188.5 C 56.1667,188.5 56.5,188.833 56.5,189.5C 61.1236,193.112 65.7903,196.779 70.5,200.5C 71.4776,200.023 72.3109,199.357 73,198.5C 73.539,195.471 74.2057,192.471 75,189.5C 76.1131,188.289 77.2798,188.289 78.5,189.5C 85.0532,197.273 90.0532,205.94 93.5,215.5C 91.7483,215.418 90.7483,216.251 90.5,218C 92.2282,228.948 93.5615,239.948 94.5,251C 94.5149,256.63 93.8482,262.13 92.5,267.5C 102.805,268.782 113.138,269.782 123.5,270.5C 123.443,271.609 123.11,272.609 122.5,273.5C 122.5,273.833 122.5,274.167 122.5,274.5C 118.709,278.922 116.376,284.088 115.5,290C 117.454,293.335 118.454,297.001 118.5,301C 118.813,304.874 117.813,308.374 115.5,311.5C 119.705,316.535 123.705,321.701 127.5,327C 125.624,329.936 123.29,332.436 120.5,334.5C 123.172,338.344 125.172,342.511 126.5,347C 126.333,347.833 126.167,348.667 126,349.5C 124.045,350.453 122.378,351.787 121,353.5C 120.427,358.588 120.927,363.588 122.5,368.5C 122.167,369.167 121.833,369.833 121.5,370.5C 115.257,369.312 109.09,368.312 103,367.5C 100.739,367.439 98.7395,368.106 97,369.5C 96.586,369.043 96.086,368.709 95.5,368.5C 91.4637,370.518 87.4637,372.518 83.5,374.5C 68.7228,370.549 61.2228,360.882 61,345.5C 54.8961,333.973 46.8961,323.306 37,313.5C 32.7036,303.747 28.2036,294.58 23.5,286C 16.7146,279.907 18.048,278.074 27.5,280.5C 27.5,281.167 27.8333,281.5 28.5,281.5C 33.3739,285.293 38.7072,287.293 44.5,287.5C 40.8324,271.491 37.1657,255.491 33.5,239.5C 43.5774,240.727 53.0774,243.727 62,248.5C 62.4935,246.866 62.6602,245.199 62.5,243.5C 62.3798,224.899 59.0464,206.899 52.5,189.5C 53.325,188.614 54.325,188.281 55.5,188.5 Z"/></g>
<g><path style="opacity:0.996" fill="#192b40" d="M 62.5,243.5 C 62.6602,245.199 62.4935,246.866 62,248.5C 53.0774,243.727 43.5774,240.727 33.5,239.5C 37.1657,255.491 40.8324,271.491 44.5,287.5C 38.7072,287.293 33.3739,285.293 28.5,281.5C 27.8333,281.5 27.5,281.167 27.5,280.5C 24.4975,276.657 21.6641,272.657 19,268.5C 16.6398,241.446 11.4731,215.279 3.5,190C 3.83333,189.5 4.16667,189 4.5,188.5C 21.1683,196.664 35.335,207.998 47,222.5C 52.1877,229.568 57.3544,236.568 62.5,243.5 Z"/></g>
<g><path style="opacity:0.969" fill="#1b2a56" d="M 45.5,210.5 C 46.8333,210.167 46.8333,209.833 45.5,209.5C 45.7373,208.209 45.404,207.209 44.5,206.5C 44.6716,205.508 44.3382,204.842 43.5,204.5C 43.7373,203.209 43.404,202.209 42.5,201.5C 42.6716,200.508 42.3382,199.842 41.5,199.5C 42.1351,193.596 45.3018,191.596 51,193.5C 50.7869,199.909 49.7869,206.242 48,212.5C 47.0053,211.934 46.172,211.267 45.5,210.5 Z"/></g>
<g><path style="opacity:0.919" fill="#2749a1" d="M 435.5,192.5 C 439.147,192.622 441.981,194.288 444,197.5C 451.343,207.19 456.177,218.023 458.5,230C 458.591,233.586 457.257,236.42 454.5,238.5C 450.356,231.967 445.689,225.3 440.5,218.5C 436.37,214.27 431.703,210.77 426.5,208C 429.649,206.504 432.816,205.004 436,203.5C 435.762,199.891 435.595,196.225 435.5,192.5 Z"/></g>
<g><path style="opacity:1" fill="#373a39" d="M 46.5,195.5 C 48.2517,195.418 49.2517,196.251 49.5,198C 47.8333,201.333 46.1667,201.333 44.5,198C 45.0556,196.989 45.7222,196.156 46.5,195.5 Z"/></g>
<g><path style="opacity:0.962" fill="#2648a1" d="M 106.5,199.5 C 109.539,207.116 111.872,214.95 113.5,223C 113.456,224.764 113.122,226.431 112.5,228C 109.854,228.497 107.187,228.664 104.5,228.5C 99.9582,225.077 96.6249,220.743 94.5,215.5C 98.1223,209.878 102.122,204.545 106.5,199.5 Z"/></g>
<g><path style="opacity:1" fill="#152d67" d="M 175.5,201.5 C 176.376,201.369 177.043,201.702 177.5,202.5C 180.721,209.173 182.221,216.173 182,223.5C 176.305,218.15 169.805,213.984 162.5,211C 167.015,207.97 171.349,204.803 175.5,201.5 Z"/></g>
<g><path style="opacity:0.968" fill="#1a2a57" d="M 53.5,204.5 C 55.045,205.23 55.8784,206.563 56,208.5C 57.6885,215.724 58.8552,222.724 59.5,229.5C 48.5256,223.436 46.5256,215.103 53.5,204.5 Z"/></g>
<g><path style="opacity:0.012" fill="#3c4c73" d="M 380.5,207.5 C 381.833,208.167 381.833,208.167 380.5,207.5 Z"/></g>
<g><path style="opacity:0.97" fill="#2648a1" d="M 338.5,376.5 C 340.914,372.165 341.747,367.499 341,362.5C 327.742,352.12 314.575,341.62 301.5,331C 298.618,329.392 295.618,328.059 292.5,327C 280.587,324.762 268.587,324.095 256.5,325C 251.288,326.017 247.455,328.851 245,333.5C 244.327,342.189 244.493,350.856 245.5,359.5C 237.185,352.485 227.852,345.985 217.5,340C 216.13,338.559 215.13,336.892 214.5,335C 220.39,325.11 227.724,316.443 236.5,309C 251.073,307.367 265.74,307.034 280.5,308C 285.116,310.282 288.783,313.616 291.5,318C 300.827,318.5 310.161,318.666 319.5,318.5C 321.065,314.347 320.232,310.68 317,307.5C 292.257,296.046 272.757,279.213 258.5,257C 257.81,246.133 260.31,235.966 266,226.5C 280.458,210.09 298.292,205.256 319.5,212C 338.207,218.352 356.207,226.352 373.5,236C 378.877,239.043 382.377,243.543 384,249.5C 386.034,267.532 385.7,285.532 383,303.5C 379.273,322.395 370.606,325.395 357,312.5C 356.667,312.833 356.333,313.167 356,313.5C 337.488,296.802 318.988,279.969 300.5,263C 300.833,262.667 301.167,262.333 301.5,262C 299.085,256.982 298.918,251.815 301,246.5C 305.598,241.355 311.098,240.188 317.5,243C 318.833,246.667 318.833,250.333 317.5,254C 316.128,254.402 314.795,254.902 313.5,255.5C 311.049,254.52 308.716,253.687 306.5,253C 305.521,254.779 305.854,256.445 307.5,258C 309.56,259.696 311.893,260.863 314.5,261.5C 318.207,259.896 321.707,257.896 325,255.5C 328.623,246.319 325.79,240.486 316.5,238C 309.946,236.919 303.612,237.586 297.5,240C 291.705,247.208 291.205,254.708 296,262.5C 310.71,278.211 326.377,292.877 343,306.5C 343.973,308.392 344.64,310.392 345,312.5C 344.233,321.562 346.233,329.895 351,337.5C 355.887,342.941 362.053,345.441 369.5,345C 373.922,349.267 375.755,354.434 375,360.5C 371.45,364.383 368.283,368.549 365.5,373C 362.188,373.538 359.021,373.038 356,371.5C 350.302,373.678 344.468,375.344 338.5,376.5 Z"/></g>
<g><path style="opacity:1" fill="#152d67" d="M 72.5,210.5 C 77.8472,217.338 82.8472,224.505 87.5,232C 81.8333,234.5 76.1667,237 70.5,239.5C 70.1667,238 69.8333,236.5 69.5,235C 70.7801,226.846 71.7801,218.679 72.5,210.5 Z"/></g>
<g><path style="opacity:0.994" fill="#2d2837" d="M 239.5,211.5 C 248.173,211.334 256.84,211.5 265.5,212C 266.938,212.219 268.271,212.719 269.5,213.5C 260.817,223.201 255.651,234.534 254,247.5C 253,248.167 252,248.833 251,249.5C 241.945,247.707 232.779,246.874 223.5,247C 213.917,249.54 205.417,254.04 198,260.5C 199.111,233.856 212.945,217.522 239.5,211.5 Z"/></g>
<g><path style="opacity:0.012" fill="#3c4c73" d="M 121.5,214.5 C 120.833,215.167 120.833,215.167 121.5,214.5 Z"/></g>
<g><path style="opacity:0.998" fill="#9f9373" d="M 93.5,215.5 C 93.8333,215.5 94.1667,215.5 94.5,215.5C 96.6249,220.743 99.9582,225.077 104.5,228.5C 110.761,236.265 117.594,243.598 125,250.5C 126.325,255.401 126.825,260.401 126.5,265.5C 125.935,267.42 124.935,269.087 123.5,270.5C 113.138,269.782 102.805,268.782 92.5,267.5C 93.8482,262.13 94.5149,256.63 94.5,251C 93.5615,239.948 92.2282,228.948 90.5,218C 90.7483,216.251 91.7483,215.418 93.5,215.5 Z"/></g>
<g><path style="opacity:0.983" fill="#998e74" d="M 127.5,223.5 C 125.519,225.303 123.352,226.97 121,228.5C 120.601,228.272 120.435,227.938 120.5,227.5C 120.253,223.585 118.92,219.752 116.5,216C 117.908,215.685 119.241,216.018 120.5,217C 122.729,219.4 125.063,221.567 127.5,223.5 Z"/></g>
<g><path style="opacity:1" fill="#172a5d" d="M 312.5,217.5 C 313.552,217.351 314.552,217.517 315.5,218C 312.459,223.25 309.292,228.417 306,233.5C 302.31,229.311 298.81,224.978 295.5,220.5C 301.317,219.566 306.984,218.566 312.5,217.5 Z"/></g>
<g><path style="opacity:1" fill="#383b38" d="M 303.5,220.5 C 309.037,220.491 310.37,222.658 307.5,227C 302.791,227.082 301.458,224.915 303.5,220.5 Z"/></g>
<g><path style="opacity:1" fill="#152d67" d="M 145.5,223.5 C 150.544,223.173 155.544,223.506 160.5,224.5C 158.25,228.668 155.75,232.668 153,236.5C 150.477,232.112 147.977,227.778 145.5,223.5 Z"/></g>
<g><path style="opacity:1" fill="#172b61" d="M 279.5,225.5 C 283.123,227.123 285.79,229.79 287.5,233.5C 284.661,235.42 281.661,237.087 278.5,238.5C 278.167,237.667 277.833,236.833 277.5,236C 278.409,232.534 279.076,229.034 279.5,225.5 Z"/></g>
<g><path style="opacity:1" fill="#17295c" d="M 329.5,226.5 C 339.709,227.915 349.375,231.581 358.5,237.5C 352.817,244.017 346.65,250.017 340,255.5C 337.761,245.276 334.261,235.609 329.5,226.5 Z"/></g>
<g><path style="opacity:1" fill="#172c63" d="M 198.5,226.5 C 200.198,233.749 199.198,240.749 195.5,247.5C 192.424,253.295 188.591,258.629 184,263.5C 182.793,261.56 182.626,259.727 183.5,258C 181.479,255.957 181.146,253.957 182.5,252C 180.933,247.133 179.267,242.3 177.5,237.5C 184.411,233.642 191.411,229.976 198.5,226.5 Z"/></g>
<g><path style="opacity:0.921" fill="#2849a0" d="M 400.5,231.5 C 403.794,231.259 406.794,232.092 409.5,234C 416.545,240.377 422.045,247.877 426,256.5C 427.237,260.06 427.737,263.727 427.5,267.5C 426.448,267.649 425.448,267.483 424.5,267C 418.508,258.829 411.342,253.663 403,251.5C 402.028,249.695 400.861,248.028 399.5,246.5C 400.751,245.369 401.751,244.036 402.5,242.5C 401.444,239.387 400.111,236.387 398.5,233.5C 399.243,232.818 399.909,232.151 400.5,231.5 Z"/></g>
<g><path style="opacity:1" fill="#393b37" d="M 341.5,234.5 C 347.488,234.664 348.821,237.164 345.5,242C 339.403,242.147 338.07,239.647 341.5,234.5 Z"/></g>
<g><path style="opacity:1" fill="#152d67" d="M 128.5,236.5 C 132.833,236.5 137.167,236.5 141.5,236.5C 140.657,240.522 138.99,244.188 136.5,247.5C 133.042,244.38 130.375,240.714 128.5,236.5 Z"/></g>
<g><path style="opacity:1" fill="#424430" d="M 101.5,236.5 C 105.137,240.983 108.637,245.65 112,250.5C 113.707,252.909 114.54,255.575 114.5,258.5C 111.482,258.665 108.482,258.498 105.5,258C 104.667,257.167 103.833,256.333 103,255.5C 101.683,249.243 101.183,242.909 101.5,236.5 Z"/></g>
<g><path style="opacity:1" fill="#172f6b" d="M 269.5,243.5 C 273.167,243.5 276.833,243.5 280.5,243.5C 280.035,247.062 278.868,250.395 277,253.5C 274.239,250.286 271.739,246.953 269.5,243.5 Z"/></g>
<g><path style="opacity:0.012" fill="#3c4c73" d="M 195.5,247.5 C 196.833,248.167 196.833,248.167 195.5,247.5 Z"/></g>
<g><path style="opacity:1" fill="#152d67" d="M 79.5,248.5 C 80.4959,248.414 81.3292,248.748 82,249.5C 84.6979,253.367 87.1979,257.367 89.5,261.5C 85.2829,262.912 80.9495,263.579 76.5,263.5C 77.6567,258.538 78.6567,253.538 79.5,248.5 Z"/></g>
<g><path style="opacity:1" fill="#17295c" d="M 351.5,248.5 C 361.804,250.098 371.137,253.931 379.5,260C 373.479,267.682 365.979,273.515 357,277.5C 353.458,268.171 351.625,258.504 351.5,248.5 Z"/></g>
<g><path style="opacity:1" fill="#152c66" d="M 45.5,252.5 C 51.1497,255.325 56.483,258.658 61.5,262.5C 57.9206,266.623 53.9206,270.29 49.5,273.5C 47.6287,266.606 46.2954,259.606 45.5,252.5 Z"/></g>
<g><path style="opacity:0.996" fill="#a19473" d="M 408.5,259.5 C 405.411,263.587 403.578,268.254 403,273.5C 401.596,292.495 400.429,311.495 399.5,330.5C 397.167,330.5 394.833,330.5 392.5,330.5C 390.551,329.816 388.885,328.649 387.5,327C 388.972,320.297 389.639,313.464 389.5,306.5C 389.922,289.603 389.922,272.436 389.5,255C 390.071,253.795 390.738,252.628 391.5,251.5C 397.072,254.454 402.739,257.12 408.5,259.5 Z"/></g>
<g><path style="opacity:1" fill="#393c36" d="M 360.5,256.5 C 366.177,256.385 368.344,259.052 367,264.5C 362.097,268.925 358.597,267.925 356.5,261.5C 357.16,259.185 358.493,257.519 360.5,256.5 Z"/></g>
<g><path style="opacity:0.991" fill="#2d2837" d="M 235.5,257.5 C 241.842,257.334 248.175,257.5 254.5,258C 258.863,265.719 264.196,272.719 270.5,279C 261.92,280.232 253.253,281.565 244.5,283C 236.754,284.54 229.42,287.207 222.5,291C 213.15,296.86 208.317,305.36 208,316.5C 207.586,316.957 207.086,317.291 206.5,317.5C 203.927,311.961 201.427,305.961 199,299.5C 199.607,275.396 211.774,261.396 235.5,257.5 Z"/></g>
<g><path style="opacity:1" fill="#162d68" d="M 283.5,258.5 C 285.39,267.759 282.723,269.425 275.5,263.5C 278.231,261.808 280.898,260.142 283.5,258.5 Z"/></g>
<g><path style="opacity:0.974" fill="#2749a1" d="M 408.5,259.5 C 418.371,263.868 425.871,270.868 431,280.5C 431.832,293.867 431.499,307.201 430,320.5C 428.542,322.96 426.709,325.127 424.5,327C 419.314,329.06 414.147,330.893 409,332.5C 405.943,331.549 402.777,331.216 399.5,331.5C 399.5,331.167 399.5,330.833 399.5,330.5C 400.429,311.495 401.596,292.495 403,273.5C 403.578,268.254 405.411,263.587 408.5,259.5 Z"/></g>
<g><path style="opacity:1" fill="#172f6b" d="M 290.5,269.5 C 292.293,269.884 293.293,271.05 293.5,273C 294.606,274.882 294.606,276.716 293.5,278.5C 290.675,277.617 288.008,276.45 285.5,275C 287.373,273.296 289.04,271.463 290.5,269.5 Z"/></g>
<g><path style="opacity:1" fill="#17295c" d="M 338.5,271.5 C 346.7,276.768 355.366,281.268 364.5,285C 357.081,289.125 349.914,293.625 343,298.5C 341.281,289.522 339.781,280.522 338.5,271.5 Z"/></g>
<g><path style="opacity:1" fill="#152d67" d="M 83.5,272.5 C 87.2172,276.244 90.2172,280.577 92.5,285.5C 87.533,286.662 82.533,286.829 77.5,286C 80.1813,281.785 82.1813,277.285 83.5,272.5 Z"/></g>
<g><path style="opacity:1" fill="#424431" d="M 127.5,274.5 C 129.167,274.5 130.833,274.5 132.5,274.5C 130.229,276.266 128.063,278.266 126,280.5C 125.5,287.826 125.334,295.159 125.5,302.5C 131.382,304.176 137.382,305.01 143.5,305C 144.629,300.921 144.796,296.755 144,292.5C 143.275,291.941 142.442,291.608 141.5,291.5C 133.049,294.29 132.716,292.79 140.5,287C 143.956,285.877 146.79,286.71 149,289.5C 149.79,295.552 149.624,301.552 148.5,307.5C 147.975,308.192 147.308,308.692 146.5,309C 141.285,309.29 136.285,309.457 131.5,309.5C 129.362,307.791 127.029,306.457 124.5,305.5C 123.525,295.249 123.192,284.915 123.5,274.5C 124.833,274.5 126.167,274.5 127.5,274.5 Z"/></g>
<g><path style="opacity:1" fill="#162d68" d="M 57.5,274.5 C 62.7271,277.387 67.3938,281.054 71.5,285.5C 67.3339,288.417 63.0006,291.084 58.5,293.5C 57.5037,287.202 57.1703,280.868 57.5,274.5 Z"/></g>
<g><path style="opacity:0.997" fill="#a19472" d="M 132.5,274.5 C 140.885,276.144 149.219,277.977 157.5,280C 162.58,283.398 165.58,288.064 166.5,294C 165.341,298.146 164.175,302.312 163,306.5C 162.105,331.863 162.605,357.197 164.5,382.5C 165.041,387.046 163.708,390.88 160.5,394C 154.584,394.19 148.751,394.69 143,395.5C 140.721,393.711 138.721,391.711 137,389.5C 136.501,385.848 136.335,382.182 136.5,378.5C 139.272,378.405 141.272,377.071 142.5,374.5C 142.037,369.869 141.87,364.536 142,358.5C 140.142,356.263 137.976,354.43 135.5,353C 138.858,349.805 141.191,345.972 142.5,341.5C 139.382,334.09 135.715,326.59 131.5,319C 131.781,315.983 131.781,312.817 131.5,309.5C 136.285,309.457 141.285,309.29 146.5,309C 147.308,308.692 147.975,308.192 148.5,307.5C 149.624,301.552 149.79,295.552 149,289.5C 146.79,286.71 143.956,285.877 140.5,287C 132.716,292.79 133.049,294.29 141.5,291.5C 142.442,291.608 143.275,291.941 144,292.5C 144.796,296.755 144.629,300.921 143.5,305C 137.382,305.01 131.382,304.176 125.5,302.5C 125.334,295.159 125.5,287.826 126,280.5C 128.063,278.266 130.229,276.266 132.5,274.5 Z"/></g>
<g><path style="opacity:1" fill="#162e69" d="M 302.5,279.5 C 304.753,281.817 306.42,284.65 307.5,288C 303.775,287.989 300.108,287.323 296.5,286C 298.706,283.963 300.706,281.797 302.5,279.5 Z"/></g>
<g><path style="opacity:0.986" fill="#2d2837" d="M 272.5,282.5 C 282.548,286.534 290.548,293.201 296.5,302.5C 285.748,303.475 275.081,304.642 264.5,306C 263.446,304.612 263.28,303.112 264,301.5C 267.394,295.381 270.228,289.048 272.5,282.5 Z"/></g>
<g><path style="opacity:1" fill="#383b38" d="M 344.5,282.5 C 348.509,282.014 350.342,283.68 350,287.5C 346.505,290.509 344.339,289.676 343.5,285C 343.743,284.098 344.077,283.265 344.5,282.5 Z"/></g>
<g><path style="opacity:1" fill="#162e6a" d="M 314.5,289.5 C 317.196,291.851 319.196,294.851 320.5,298.5C 317.013,298.79 313.68,297.79 310.5,295.5C 312.278,293.736 313.611,291.736 314.5,289.5 Z"/></g>
<g><path style="opacity:1" fill="#172b43" d="M 91.5,325.5 C 92.6194,333.341 94.9528,340.674 98.5,347.5C 96.2747,351.898 93.4413,355.898 90,359.5C 88.503,355.835 86.503,352.502 84,349.5C 76.7145,341.093 69.5478,332.593 62.5,324C 69.3534,325.065 76.02,326.732 82.5,329C 80.3333,326.167 78.1667,323.333 76,320.5C 72.9395,313.379 69.6062,306.379 66,299.5C 65.3333,298.5 65.3333,297.5 66,296.5C 73.6193,299.475 80.6193,303.475 87,308.5C 87.6226,314.513 89.1226,320.18 91.5,325.5 Z"/></g>
<g><path style="opacity:0.69" fill="#28293a" d="M 122.5,273.5 C 124.415,273.216 126.081,273.549 127.5,274.5C 126.167,274.5 124.833,274.5 123.5,274.5C 123.192,284.915 123.525,295.249 124.5,305.5C 122.525,295.554 121.858,285.221 122.5,274.5C 122.5,274.167 122.5,273.833 122.5,273.5 Z"/></g>
<g><path style="opacity:1" fill="#152c66" d="M 416.5,297.5 C 419.572,297.183 422.572,297.516 425.5,298.5C 421.466,305.373 417.633,312.373 414,319.5C 411.672,312.675 409.839,305.675 408.5,298.5C 411.385,298.806 414.052,298.473 416.5,297.5 Z"/></g>
<g><path style="opacity:1" fill="#162d68" d="M 98.5,297.5 C 99.3764,297.369 100.043,297.702 100.5,298.5C 99.01,304.759 97.8434,311.092 97,317.5C 94.8333,313.833 92.6667,310.167 90.5,306.5C 93.189,303.48 95.8556,300.48 98.5,297.5 Z"/></g>
<g><path style="opacity:0.989" fill="#1a2b40" d="M 444.5,299.5 C 455.928,304.284 463.762,312.617 468,324.5C 472.975,336.391 472.642,348.058 467,359.5C 462.518,344.684 452.685,335.85 437.5,333C 442.746,329.125 448.246,325.625 454,322.5C 454.863,320.251 454.363,318.418 452.5,317C 452.833,316.667 453.167,316.333 453.5,316C 450.274,311.082 447.274,305.582 444.5,299.5 Z"/></g>
<g><path style="opacity:0.965" fill="#1b2b59" d="M 436.5,299.5 C 441.44,305.863 445.773,312.696 449.5,320C 448.631,321.869 447.465,322.369 446,321.5C 442.276,322.612 439.109,324.612 436.5,327.5C 436.277,317.941 436.277,308.607 436.5,299.5 Z"/></g>
<g><path style="opacity:1" fill="#162d68" d="M 327.5,303.5 C 329.411,303.574 330.578,304.574 331,306.5C 332.039,308.901 332.206,311.234 331.5,313.5C 328.5,311.667 325.5,309.833 322.5,308C 324.24,306.483 325.906,304.983 327.5,303.5 Z"/></g>
<g><path style="opacity:0.996" fill="#999a86" d="M 121.5,309.5 C 131.339,309.425 133.172,313.425 127,321.5C 121.586,319.013 119.753,315.013 121.5,309.5 Z"/></g>
<g><path style="opacity:1" fill="#373a38" d="M 439.5,313.5 C 440.5,313.5 441.5,313.5 442.5,313.5C 442.799,318.943 441.465,319.61 438.5,315.5C 438.863,314.817 439.196,314.15 439.5,313.5 Z"/></g>
<g><path style="opacity:1" fill="#162e69" d="M 109.5,316.5 C 110.376,316.369 111.043,316.702 111.5,317.5C 110.025,321.261 108.358,324.927 106.5,328.5C 104.273,326.393 102.273,324.06 100.5,321.5C 103.366,319.568 106.366,317.901 109.5,316.5 Z"/></g>
<g><path style="opacity:0.997" fill="#a09373" d="M 338.5,376.5 C 338.607,378.379 338.107,378.712 337,377.5C 334.562,378.817 332.062,379.651 329.5,380C 330.042,377.451 330.376,374.951 330.5,372.5C 330.281,371.062 329.781,369.729 329,368.5C 320.532,359.854 311.365,352.187 301.5,345.5C 301.158,344.662 300.492,344.328 299.5,344.5C 292.366,337.842 283.2,334.842 272,335.5C 267.444,335.532 262.944,336.032 258.5,337C 256.376,338.122 254.543,339.622 253,341.5C 250.808,347.985 249.474,354.652 249,361.5C 248.667,361.833 248.333,362.167 248,362.5C 247.148,361.429 246.315,360.429 245.5,359.5C 244.493,350.856 244.327,342.189 245,333.5C 247.455,328.851 251.288,326.017 256.5,325C 268.587,324.095 280.587,324.762 292.5,327C 295.618,328.059 298.618,329.392 301.5,331C 314.575,341.62 327.742,352.12 341,362.5C 341.747,367.499 340.914,372.165 338.5,376.5 Z"/></g>
<g><path style="opacity:1" fill="#0daecf" d="M 91.5,325.5 C 95.5849,325.459 98.7515,327.125 101,330.5C 103.154,335.922 102.987,341.256 100.5,346.5C 100.043,347.298 99.3764,347.631 98.5,347.5C 94.9528,340.674 92.6194,333.341 91.5,325.5 Z"/></g>
<g><path style="opacity:1" fill="#26243b" d="M 166.5,328.5 C 171.476,328.238 175.309,330.238 178,334.5C 182.44,341.548 185.94,349.048 188.5,357C 188.167,357.5 187.833,358 187.5,358.5C 181.406,354.579 174.739,352.246 167.5,351.5C 167.32,343.825 166.986,336.158 166.5,328.5 Z"/></g>
<g><path style="opacity:0.051" fill="#414f72" d="M 392.5,330.5 C 394.833,330.5 397.167,330.5 399.5,330.5C 399.5,330.833 399.5,331.167 399.5,331.5C 398.134,331.954 396.634,332.287 395,332.5C 394.005,331.934 393.172,331.267 392.5,330.5 Z"/></g>
<g><path style="opacity:0.996" fill="#999a87" d="M 128.5,331.5 C 130.527,331.338 132.527,331.505 134.5,332C 139.989,337.724 139.822,343.224 134,348.5C 129.685,345.187 126.518,341.021 124.5,336C 125.357,333.981 126.691,332.481 128.5,331.5 Z"/></g>
<g><path style="opacity:1" fill="#162e6a" d="M 107.5,333.5 C 110.956,335.783 114.29,338.283 117.5,341C 114.107,343.076 110.44,344.242 106.5,344.5C 106.552,340.802 106.886,337.135 107.5,333.5 Z"/></g>
<g><path style="opacity:0.956" fill="#2648a1" d="M 395.5,365.5 C 397.225,355.714 398.225,345.714 398.5,335.5C 408.183,335.314 417.85,335.148 427.5,335C 429.074,336.826 429.907,338.993 430,341.5C 431.44,350.941 430.106,359.941 426,368.5C 420.731,373.245 414.564,374.745 407.5,373C 402.626,371.738 398.626,369.238 395.5,365.5 Z"/></g>
<g><path style="opacity:0.998" fill="#a09373" d="M 398.5,335.5 C 398.225,345.714 397.225,355.714 395.5,365.5C 390.216,363.644 386.716,359.978 385,354.5C 384.211,348.763 384.544,343.097 386,337.5C 389.922,335.688 394.089,335.021 398.5,335.5 Z"/></g>
<g><path style="opacity:0.993" fill="#2d2837" d="M 210.5,340.5 C 211.873,340.343 213.207,340.51 214.5,341C 223.004,349.852 232.837,356.685 244,361.5C 245.223,370.141 246.556,378.808 248,387.5C 248.69,390.196 250.19,392.363 252.5,394C 266.831,403.531 281.997,405.364 298,399.5C 298.667,400.167 298.667,400.833 298,401.5C 281.857,416.878 263.023,423.378 241.5,421C 220.867,416.695 208.367,403.862 204,382.5C 203.61,373.213 203.443,364.047 203.5,355C 204.981,349.707 207.314,344.874 210.5,340.5 Z"/></g>
<g><path style="opacity:1" fill="#152c66" d="M 404.5,343.5 C 409.844,343.334 415.177,343.501 420.5,344C 420.957,344.414 421.291,344.914 421.5,345.5C 417.864,351.634 414.031,357.634 410,363.5C 407.451,357.022 405.618,350.356 404.5,343.5 Z"/></g>
<g><path style="opacity:0.012" fill="#3d4c72" d="M 299.5,344.5 C 300.492,344.328 301.158,344.662 301.5,345.5C 301.565,345.938 301.399,346.272 301,346.5C 300.25,345.874 299.416,345.374 298.5,345C 298.728,344.601 299.062,344.435 299.5,344.5 Z"/></g>
<g><path style="opacity:0.993" fill="#2d2837" d="M 258.5,346.5 C 263.221,351.724 268.221,356.891 273.5,362C 286.242,369.429 299.742,371.263 314,367.5C 316.319,368.409 316.986,370.075 316,372.5C 301.73,394.931 283.23,399.431 260.5,386C 256.066,382.901 252.733,378.901 250.5,374C 252.955,365.097 255.622,355.93 258.5,346.5 Z"/></g>
<g><path style="opacity:0.988" fill="#1a2b40" d="M 442.5,348.5 C 452.202,354.059 458.369,362.393 461,373.5C 464.152,384.944 462.819,395.944 457,406.5C 454.637,400.126 451.304,393.793 447,387.5C 443.286,384.278 439.452,381.278 435.5,378.5C 439.228,375.36 443.562,373.36 448.5,372.5C 448.833,371.333 449.167,370.167 449.5,369C 447.843,361.871 445.51,355.038 442.5,348.5 Z"/></g>
<g><path style="opacity:1" fill="#152c67" d="M 100.5,351.5 C 103.637,355.485 106.637,359.652 109.5,364C 104.167,364.667 98.8333,364.667 93.5,364C 95.7187,359.725 98.052,355.559 100.5,351.5 Z"/></g>
<g><path style="opacity:0.972" fill="#1b2a56" d="M 435.5,351.5 C 439.309,356.433 442.642,361.766 445.5,367.5C 443.572,369.05 441.739,370.717 440,372.5C 439.667,372.167 439.333,371.833 439,371.5C 436.118,373.702 432.951,374.869 429.5,375C 432.193,367.378 434.193,359.544 435.5,351.5 Z"/></g>
<g><path style="opacity:0.996" fill="#999a87" d="M 124.5,353.5 C 132.781,353.628 137.281,357.628 138,365.5C 134.472,368.171 130.639,368.838 126.5,367.5C 124.622,362.826 123.955,358.159 124.5,353.5 Z"/></g>
<g><path style="opacity:1" fill="#373a38" d="M 436.5,362.5 C 437.5,362.5 438.5,362.5 439.5,362.5C 439.5,364.5 439.5,366.5 439.5,368.5C 435.846,367.859 434.846,365.859 436.5,362.5 Z"/></g>
<g><path style="opacity:0.996" fill="#a19473" d="M 399.5,373.5 C 390.833,383.5 382.167,393.5 373.5,403.5C 368.129,400.804 363.462,397.138 359.5,392.5C 364.723,382.55 371.056,373.383 378.5,365C 383.497,361.43 388.163,361.764 392.5,366C 395.039,368.37 397.372,370.87 399.5,373.5 Z"/></g>
<g><path style="opacity:1" fill="#26243b" d="M 168.5,369.5 C 173.422,369.899 177.255,372.233 180,376.5C 185.595,384.19 189.428,392.69 191.5,402C 191.167,402.833 190.833,403.667 190.5,404.5C 183.937,399.867 176.937,397.533 169.5,397.5C 169.65,388.143 169.317,378.809 168.5,369.5 Z"/></g>
<g><path style="opacity:0.991" fill="#2d2837" d="M 95.5,372.5 C 104.874,372.269 114.208,372.769 123.5,374C 122.785,382.647 123.952,391.147 127,399.5C 132.051,404.274 137.551,408.44 143.5,412C 134.918,414.755 126.251,415.421 117.5,414C 115.167,412.333 112.833,410.667 110.5,409C 103.552,406.679 96.5522,404.513 89.5,402.5C 85.97,393.932 81.3033,386.098 75.5,379C 79.1661,379.403 82.6661,380.57 86,382.5C 90.0462,379.955 93.2129,376.622 95.5,372.5 Z"/></g>
<g><path style="opacity:0.967" fill="#2749a1" d="M 399.5,373.5 C 406.936,377.655 414.936,379.655 423.5,379.5C 423.695,395.283 417.029,407.116 403.5,415C 397.833,417 392.167,417 386.5,415C 380.405,412.368 376.072,408.535 373.5,403.5C 382.167,393.5 390.833,383.5 399.5,373.5 Z"/></g>
<g><path style="opacity:0.992" fill="#2d2837" d="M 345.5,379.5 C 349.881,379.372 354.215,379.705 358.5,380.5C 357.467,393.044 351.134,401.877 339.5,407C 332.032,409.21 324.699,408.877 317.5,406C 314.202,403.536 311.868,400.37 310.5,396.5C 311,396.167 311.5,395.833 312,395.5C 318.883,399.043 324.883,398.043 330,392.5C 332.772,385.212 337.939,380.878 345.5,379.5 Z"/></g>
<g><path style="opacity:1" fill="#152d67" d="M 399.5,385.5 C 404.667,387.007 408.667,390.007 411.5,394.5C 405.287,398.862 398.787,402.862 392,406.5C 394.174,399.485 396.674,392.485 399.5,385.5 Z"/></g>
<g><path style="opacity:0.98" fill="#1b2a58" d="M 428.5,387.5 C 430.557,394.89 432.557,402.39 434.5,410C 430.806,410.801 427.306,411.968 424,413.5C 421.226,412.477 418.393,412.477 415.5,413.5C 419.272,404.623 423.605,395.957 428.5,387.5 Z"/></g>
<g><path style="opacity:0.988" fill="#1a2b41" d="M 435.5,396.5 C 435.56,395.957 435.893,395.624 436.5,395.5C 445.035,408.344 447.869,422.344 445,437.5C 443.094,441.899 440.594,445.899 437.5,449.5C 434.213,436.91 427.879,426.244 418.5,417.5C 424.255,416.883 429.922,415.883 435.5,414.5C 437.991,408.354 437.991,402.354 435.5,396.5 Z"/></g>
<g><path style="opacity:1" fill="#393b37" d="M 424.5,401.5 C 430.292,401.753 430.958,403.753 426.5,407.5C 423.531,406.235 422.865,404.235 424.5,401.5 Z"/></g>
<g><path style="opacity:0.997" fill="#a19473" d="M 374.5,411.5 C 365.437,421.229 355.437,429.895 344.5,437.5C 341.325,431.971 338.325,426.804 335.5,422C 334.449,420.615 333.116,419.615 331.5,419C 332.071,417.795 332.738,416.628 333.5,415.5C 342.904,410.866 352.737,407.532 363,405.5C 367.918,405.541 371.751,407.541 374.5,411.5 Z"/></g>
<g><path style="opacity:0.965" fill="#2649a1" d="M 374.5,411.5 C 378.09,412.628 381.423,414.295 384.5,416.5C 387.698,430.871 384.364,443.704 374.5,455C 366.934,461.468 358.267,463.968 348.5,462.5C 347.11,460.831 346.777,459.164 347.5,457.5C 345.851,450.936 344.851,444.27 344.5,437.5C 355.437,429.895 365.437,421.229 374.5,411.5 Z"/></g>
<g><path style="opacity:0.994" fill="#192b40" d="M 86.5,420.5 C 92.3454,430.085 94.012,440.418 91.5,451.5C 89.396,451.799 87.396,451.466 85.5,450.5C 78.8038,444.501 71.8038,439.001 64.5,434C 53.7315,430.718 43.0648,428.385 32.5,427C 47.7848,414.256 64.7848,410.923 83.5,417C 84.7101,418.039 85.7101,419.206 86.5,420.5 Z"/></g>
<g><path style="opacity:0.976" fill="#2648a1" d="M 170.5,436.5 C 165.157,437.891 159.824,439.391 154.5,441C 150.309,445.558 147.309,450.724 145.5,456.5C 143.83,456.751 142.33,457.418 141,458.5C 136.625,458.242 132.125,458.242 127.5,458.5C 129.991,455.921 130.991,452.754 130.5,449C 130.357,442.95 129.19,437.116 127,431.5C 118.949,440.413 110.449,448.746 101.5,456.5C 100.833,456.5 100.5,456.833 100.5,457.5C 97.7089,455.265 94.7089,453.265 91.5,451.5C 94.012,440.418 92.3454,430.085 86.5,420.5C 90.3994,420.965 94.2328,421.632 98,422.5C 115.648,418.438 133.481,417.605 151.5,420C 159.736,420.692 165.903,424.525 170,431.5C 170.494,433.134 170.66,434.801 170.5,436.5 Z"/></g>
<g><path style="opacity:0.997" fill="#a19473" d="M 336.5,437.5 C 322.831,438.634 309.164,439.967 295.5,441.5C 295.335,437.818 295.501,434.152 296,430.5C 296.273,428.671 297.107,427.171 298.5,426C 303.638,424.084 308.971,423.084 314.5,423C 321.637,420.996 327.47,422.829 332,428.5C 333.513,431.527 335.013,434.527 336.5,437.5 Z"/></g>
<g><path style="opacity:0.963" fill="#2649a2" d="M 181.5,425.5 C 191.171,431.5 201.504,436.167 212.5,439.5C 214.16,445.472 215.827,451.472 217.5,457.5C 217.693,459.688 216.859,461.355 215,462.5C 209.309,462.532 203.476,462.365 197.5,462C 186.704,460.537 180.537,454.37 179,443.5C 178.204,438.948 177.371,434.448 176.5,430C 176.793,426.906 178.459,425.406 181.5,425.5 Z"/></g>
<g><path style="opacity:0.992" fill="#9f9374" d="M 212.5,439.5 C 201.504,436.167 191.171,431.5 181.5,425.5C 190.154,424.63 198.82,424.464 207.5,425C 208.931,425.465 210.097,426.299 211,427.5C 212.266,431.395 212.766,435.395 212.5,439.5 Z"/></g>
<g><path style="opacity:0.995" fill="#a19473" d="M 245.5,441.5 C 238.198,440.799 230.865,440.132 223.5,439.5C 218.049,427.429 222.049,422.929 235.5,426C 238.938,425.865 241.772,427.032 244,429.5C 245.266,433.395 245.766,437.395 245.5,441.5 Z"/></g>
<g><path style="opacity:0.997" fill="#a19473" d="M 284.5,441.5 C 275.228,443.199 266.228,442.199 257.5,438.5C 257.335,434.818 257.501,431.152 258,427.5C 258.5,427 259,426.5 259.5,426C 266.5,425.333 273.5,425.333 280.5,426C 282.487,427.319 283.654,429.152 284,431.5C 284.498,434.817 284.665,438.15 284.5,441.5 Z"/></g>
<g><path style="opacity:1" fill="#162d68" d="M 370.5,425.5 C 372.446,430.396 373.113,435.729 372.5,441.5C 367.126,441.477 361.793,440.977 356.5,440C 361.37,435.298 366.037,430.465 370.5,425.5 Z"/></g>
<g><path style="opacity:0.985" fill="#1c2b57" d="M 394.5,428.5 C 395.302,429.952 395.802,431.618 396,433.5C 396.5,440.158 396.666,446.825 396.5,453.5C 390.829,453.829 385.162,453.829 379.5,453.5C 384.776,445.272 389.776,436.939 394.5,428.5 Z"/></g>
<g><path style="opacity:0.996" fill="#192b40" d="M 127.5,458.5 C 124.977,459.384 122.31,460.218 119.5,461C 112.527,466.637 105.027,471.47 97,475.5C 95.1147,475.138 94.2814,473.971 94.5,472C 95.8176,466.867 97.8176,462.034 100.5,457.5C 101.167,457.5 101.5,457.167 101.5,456.5C 110.449,448.746 118.949,440.413 127,431.5C 129.19,437.116 130.357,442.95 130.5,449C 130.991,452.754 129.991,455.921 127.5,458.5 Z"/></g>
<g><path style="opacity:0.993" fill="#192b40" d="M 170.5,436.5 C 172.335,437.122 173.502,438.456 174,440.5C 177.481,449.444 175.648,456.944 168.5,463C 164.522,464.899 161.022,467.399 158,470.5C 157.667,470.167 157.333,469.833 157,469.5C 154,471.167 151,472.833 148,474.5C 144.367,474.517 140.533,474.35 136.5,474C 135.833,473.333 135.167,472.667 134.5,472C 139.188,467.491 142.855,462.325 145.5,456.5C 147.309,450.724 150.309,445.558 154.5,441C 159.824,439.391 165.157,437.891 170.5,436.5 Z"/></g>
<g><path style="opacity:0.987" fill="#1b2b41" d="M 403.5,476.5 C 402.833,476.5 402.167,476.5 401.5,476.5C 400.246,467.373 394.913,461.206 385.5,458C 390.348,456.72 395.348,455.887 400.5,455.5C 400.334,448.492 400.5,441.492 401,434.5C 406.056,442.446 409.889,450.946 412.5,460C 410.652,466.2 407.652,471.7 403.5,476.5 Z"/></g>
<g><path style="opacity:0.958" fill="#2749a1" d="M 336.5,437.5 C 336.987,438.473 337.487,439.473 338,440.5C 338.667,447.5 338.667,454.5 338,461.5C 336.69,464.473 334.69,466.807 332,468.5C 315.209,468.521 302.709,460.688 294.5,445C 295.337,443.989 295.67,442.822 295.5,441.5C 309.164,439.967 322.831,438.634 336.5,437.5 Z"/></g>
<g><path style="opacity:0.951" fill="#2648a1" d="M 257.5,438.5 C 266.228,442.199 275.228,443.199 284.5,441.5C 287.777,450.231 293.11,457.397 300.5,463C 297.723,464.24 294.89,465.406 292,466.5C 291.586,466.043 291.086,465.709 290.5,465.5C 288.291,466.106 286.124,466.773 284,467.5C 279.667,466.167 275.333,466.167 271,467.5C 264.962,466.707 259.796,464.207 255.5,460C 253.806,452.491 254.473,445.325 257.5,438.5 Z"/></g>
<g><path style="opacity:0.946" fill="#2849a1" d="M 223.5,439.5 C 230.865,440.132 238.198,440.799 245.5,441.5C 246.891,446.844 248.391,452.177 250,457.5C 250.896,460.025 250.396,462.192 248.5,464C 241.857,464.381 235.357,464.548 229,464.5C 228,463.5 227,462.5 226,461.5C 225.416,457.905 224.582,454.405 223.5,451C 224.517,447.227 224.517,443.394 223.5,439.5 Z"/></g>
<g><path style="opacity:1" fill="#162e6a" d="M 200.5,441.5 C 201.5,441.5 202.5,441.5 203.5,441.5C 203.5,443.833 203.5,446.167 203.5,448.5C 199.687,447.84 196.021,446.674 192.5,445C 195.309,443.907 197.976,442.74 200.5,441.5 Z"/></g>
<g><path style="opacity:1" fill="#393b36" d="M 388.5,442.5 C 392.534,442.67 393.868,444.504 392.5,448C 390.866,448.494 389.199,448.66 387.5,448.5C 387.325,446.379 387.659,444.379 388.5,442.5 Z"/></g>
<g><path style="opacity:1" fill="#162e6a" d="M 238.5,445.5 C 239.75,445.577 240.583,446.244 241,447.5C 241.667,450.167 241.667,452.833 241,455.5C 237.833,453.667 234.667,451.833 231.5,450C 233.898,448.476 236.231,446.976 238.5,445.5 Z"/></g>
<g><path style="opacity:1" fill="#162e69" d="M 324.5,445.5 C 326.5,445.5 328.5,445.5 330.5,445.5C 330.638,450.153 329.638,454.487 327.5,458.5C 322.5,455.667 317.5,452.833 312.5,450C 316.571,448.37 320.571,446.87 324.5,445.5 Z"/></g>
<g><path style="opacity:1" fill="#162d67" d="M 278.5,447.5 C 279.239,447.369 279.906,447.536 280.5,448C 279.875,450.8 279.208,453.634 278.5,456.5C 275.961,454.8 273.295,453.3 270.5,452C 273.099,450.205 275.766,448.705 278.5,447.5 Z"/></g>
</svg>
