<?xml version="1.0" standalone="no"?>
<!DOCTYPE svg PUBLIC "-//W3C//DTD SVG 20010904//EN"
 "http://www.w3.org/TR/2001/REC-SVG-20010904/DTD/svg10.dtd">
<svg version="1.0" xmlns="http://www.w3.org/2000/svg"
 width="475.000000pt" height="477.000000pt" viewBox="0 0 475.000000 477.000000"
 preserveAspectRatio="xMidYMid meet">

<g transform="translate(0.000000,477.000000) scale(0.100000,-0.100000)"
fill="#000000" stroke="none">
<path d="M1915 4764 c-51 -8 -135 -34 -134 -42 0 -4 26 -20 59 -35 64 -30 153
-104 182 -152 l18 -30 0 83 c0 80 1 82 24 82 43 0 127 -20 186 -44 54 -21 58
-22 49 -5 -20 38 -84 92 -137 116 -54 25 -173 38 -247 27z"/>
<path d="M2965 4714 c-16 -2 -66 -9 -110 -15 -143 -18 -399 -86 -478 -126
l-28 -14 21 -30 c28 -38 23 -58 -19 -86 -87 -59 -273 -78 -341 -36 -29 18 -42
20 -78 13 -23 -4 -45 -10 -49 -13 -3 -3 2 -27 11 -53 23 -68 20 -96 -11 -127
-77 -73 -242 -112 -443 -104 -74 2 -141 6 -148 8 -8 3 -19 -15 -30 -46 -58
-169 -214 -299 -375 -312 l-64 -6 8 -36 c10 -46 35 -106 62 -150 20 -33 21
-34 37 -14 23 29 59 46 85 39 12 -3 81 -40 151 -82 164 -98 252 -140 323 -155
85 -17 108 -28 142 -68 17 -20 48 -55 69 -77 57 -60 66 -85 50 -134 -12 -38
-12 -43 8 -68 12 -15 42 -54 67 -86 49 -65 82 -91 135 -106 19 -6 148 -15 285
-20 365 -14 655 -47 924 -106 232 -52 387 -119 623 -272 125 -81 178 -109 178
-93 0 35 -160 203 -255 268 -132 89 -407 200 -765 307 -104 32 -111 35 -70 35
25 1 70 8 100 17 75 22 111 20 132 -8 51 -68 66 -83 107 -109 60 -38 126 -40
188 -4 23 14 43 28 43 30 0 2 -34 1 -75 -2 -84 -7 -124 5 -155 45 -24 30 -26
75 -5 92 9 7 42 14 74 14 49 1 66 -4 110 -32 29 -17 49 -26 45 -19 -65 114
-164 143 -286 81 -70 -35 -82 -32 -125 33 -54 82 -90 103 -173 103 -65 0 -106
-14 -176 -59 -17 -12 -32 -9 -115 22 -153 57 -231 70 -420 70 -91 0 -184 -3
-205 -6 -31 -5 -26 -2 21 14 122 40 444 42 734 4 537 -70 1126 -237 1500 -424
55 -28 106 -51 112 -51 12 0 3 58 -13 77 -17 21 -228 129 -333 171 -355 140
-759 235 -1160 271 -60 6 -209 17 -330 26 -121 8 -251 17 -290 20 -38 3 -123
6 -187 7 -65 1 -116 3 -114 5 9 9 604 63 695 63 19 0 43 -11 65 -30 63 -56
120 -74 226 -75 92 0 98 2 172 40 l77 39 36 -41 c42 -49 98 -84 185 -113 109
-37 236 -16 294 49 l19 21 -47 -21 c-109 -48 -219 -34 -293 36 -34 33 -43 48
-43 76 1 66 48 99 142 99 72 0 138 -26 220 -87 l49 -36 -15 39 c-22 54 -95
119 -159 140 -60 20 -181 23 -244 5 -22 -6 -63 -29 -89 -51 -27 -22 -55 -40
-62 -40 -13 0 -34 21 -87 86 -37 47 -79 64 -153 64 -84 0 -151 -23 -206 -71
l-46 -41 -146 12 c-192 17 -432 8 -539 -19 -44 -10 -81 -18 -83 -16 -5 4 137
53 203 69 207 51 474 76 815 77 278 0 408 -8 680 -42 328 -41 448 -66 723
-155 94 -30 172 -53 174 -51 2 2 -15 32 -37 65 -33 52 -49 66 -96 87 -373 165
-1393 247 -1994 159 -203 -29 -429 -94 -571 -164 -43 -21 -44 -21 -19 0 110
91 452 238 654 280 55 11 61 10 116 -14 71 -32 141 -46 230 -46 158 0 244 38
294 132 17 32 36 58 42 58 6 0 44 -29 84 -65 86 -77 172 -122 255 -133 134
-17 250 20 335 108 28 28 50 55 50 60 0 4 -37 -8 -82 -27 -66 -29 -97 -37
-168 -41 -78 -4 -93 -2 -143 21 -61 28 -141 95 -163 138 -33 65 -11 171 45
222 48 43 93 57 186 57 126 0 239 -42 331 -123 41 -36 43 -37 34 -13 -28 74
-91 145 -158 180 -84 43 -267 59 -368 32 -75 -20 -151 -64 -186 -108 -34 -44
-68 -125 -68 -164 0 -26 -2 -25 -43 19 -73 79 -167 107 -292 87 -147 -22 -284
-118 -308 -216 l-12 -49 -70 -13 c-197 -35 -446 -102 -595 -161 l-55 -21 40
36 c330 300 929 539 1614 644 290 45 595 48 858 8 151 -22 133 23 -42 107
-154 75 -415 144 -690 185 -132 19 -424 34 -490 24z m-107 -654 c38 -24 72
-75 72 -111 0 -36 -38 -88 -80 -110 -100 -54 -280 8 -280 95 0 37 78 116 130
133 57 18 121 15 158 -7z m90 -544 c97 -50 43 -158 -78 -158 -85 0 -157 62
-130 112 29 54 144 79 208 46z m-27 -391 c58 -31 58 -89 -1 -120 -82 -42 -175
17 -141 91 19 43 88 57 142 29z m-314 -54 c29 -6 58 -23 94 -55 28 -25 58 -46
67 -46 8 0 13 -2 11 -5 -3 -2 -84 11 -180 29 -95 19 -237 45 -314 58 -138 23
-139 23 -85 30 67 8 349 0 407 -11z"/>
<path d="M1270 4644 c-74 -20 -148 -55 -187 -88 -37 -31 -42 -46 -15 -46 38 0
140 -32 209 -65 50 -25 87 -52 124 -93 l52 -57 -5 75 c-3 41 -9 82 -12 91 -5
11 -1 18 13 22 37 9 183 -13 268 -41 46 -16 83 -24 83 -20 0 18 -41 89 -72
124 -39 45 -88 76 -152 97 -63 21 -229 22 -306 1z"/>
<path d="M2091 4563 c1 -38 4 -81 8 -98 6 -27 10 -30 44 -29 53 2 171 63 175
91 6 39 -119 103 -200 103 l-28 0 1 -67z"/>
<path d="M565 4483 c-76 -12 -157 -38 -234 -75 -143 -68 -284 -230 -316 -360
l-7 -28 57 25 c81 36 168 55 258 55 138 0 242 -51 391 -192 l93 -87 -13 87
c-7 48 -22 134 -34 192 -11 58 -20 109 -20 114 0 19 291 -9 413 -39 45 -12 33
12 -42 84 -86 81 -216 164 -311 197 -70 25 -175 37 -235 27z"/>
<path d="M4320 4473 c0 -3 11 -21 25 -39 39 -51 33 -67 -35 -103 -33 -18 -60
-36 -60 -41 0 -5 60 -28 133 -51 157 -49 176 -58 245 -116 29 -25 55 -44 57
-42 2 2 -1 27 -6 54 -30 163 -197 345 -316 345 -24 0 -43 -3 -43 -7z"/>
<path d="M1486 4416 c-6 -26 8 -189 19 -218 10 -25 30 -23 131 13 119 42 194
76 194 88 0 25 -112 78 -256 120 -39 12 -74 21 -76 21 -3 0 -9 -11 -12 -24z"/>
<path d="M800 4178 c3 -35 59 -351 63 -354 13 -14 158 81 229 149 46 45 84 95
77 101 -5 4 -354 106 -363 106 -3 0 -6 -1 -6 -2z"/>
<path d="M552 3663 c3 -164 5 -182 27 -226 20 -42 98 -116 122 -117 4 0 4 40
1 90 -6 109 6 134 73 152 l43 12 -66 65 c-37 37 -89 92 -115 123 -27 32 -57
63 -68 69 -20 10 -21 9 -17 -168z"/>
<path d="M820 3551 c-47 -10 -77 -27 -91 -53 -12 -23 -5 -170 10 -211 7 -20
10 -18 35 22 32 50 93 189 98 222 4 26 -5 29 -52 20z"/>
<path d="M957 3498 c-31 -41 -63 -104 -92 -183 l-24 -62 72 -22 c40 -13 121
-45 182 -72 60 -27 115 -49 120 -49 6 0 19 16 30 37 27 49 94 117 140 140 l37
20 -56 22 c-31 13 -126 63 -212 112 -87 49 -161 89 -165 89 -4 0 -19 -15 -32
-32z"/>
<path d="M4450 3471 c0 -12 7 -35 15 -51 38 -74 38 -78 -7 -101 -48 -24 -50
-20 51 -78 75 -42 146 -112 181 -176 35 -64 47 -67 56 -10 12 86 -38 231 -111
321 -37 45 -114 99 -157 109 -24 6 -28 4 -28 -14z"/>
<path d="M460 3366 c0 -3 9 -42 20 -88 11 -46 25 -121 31 -167 6 -46 22 -116
35 -154 28 -82 30 -99 9 -91 -19 8 -19 9 6 -62 36 -104 60 -236 66 -364 3 -79
2 -121 -4 -115 -5 6 -45 59 -88 120 -92 127 -234 275 -320 332 -61 41 -165 97
-165 89 0 -2 15 -58 34 -123 39 -138 80 -352 96 -508 15 -151 14 -146 71 -221
27 -36 48 -68 46 -70 -2 -2 -18 1 -35 7 -49 17 -54 8 -21 -41 16 -24 58 -100
92 -169 46 -92 78 -142 125 -194 104 -113 182 -245 182 -309 0 -37 25 -96 53
-126 31 -34 154 -95 163 -81 3 6 30 22 58 35 55 26 150 31 251 14 28 -4 52 -6
54 -5 1 2 -3 36 -10 76 l-13 72 32 28 c38 34 40 52 7 104 -33 54 -32 79 5 105
17 12 30 27 30 35 0 7 -21 37 -48 67 -78 87 -75 79 -51 133 23 52 20 96 -7
127 -27 29 -5 107 59 209 6 10 8 21 4 25 -3 4 -48 10 -99 15 -199 18 -204 20
-189 75 15 53 13 145 -4 289 -18 148 -18 165 -2 164 6 0 31 -27 55 -60 40 -54
47 -59 82 -59 51 0 73 22 65 64 -4 17 -22 78 -41 134 -40 119 -70 247 -80 345
-4 37 -10 67 -15 67 -15 0 -78 -83 -84 -112 -9 -41 -25 -31 -59 38 -40 79
-154 190 -288 282 -60 40 -108 71 -108 68z m499 -1867 c40 -14 61 -54 61 -118
0 -105 -25 -108 -63 -8 -27 72 -44 137 -35 137 3 0 19 -5 37 -11z"/>
<path d="M1483 3294 c-77 -39 -189 -186 -208 -273 -7 -31 -5 -33 11 -26 118
50 261 89 372 101 39 4 62 11 62 19 0 7 -18 40 -41 74 -69 103 -133 137 -196
105z"/>
<path d="M845 3149 c9 -54 31 -109 43 -109 15 0 84 80 80 93 -5 14 -60 43
-102 53 l-28 7 7 -44z"/>
<path d="M307 3094 c-7 -36 7 -205 22 -260 13 -48 55 -114 92 -143 l27 -21
-29 73 c-27 70 -27 72 -9 91 10 10 35 22 55 25 l36 6 -62 92 c-33 51 -76 109
-93 129 l-33 38 -6 -30z"/>
<path d="M1085 3033 c10 -96 31 -206 57 -293 l22 -75 19 90 c10 50 23 131 29
182 11 84 10 94 -6 112 -16 17 -94 51 -119 51 -5 0 -6 -29 -2 -67z"/>
<path d="M1709 2874 c-60 -65 -388 -327 -484 -387 -24 -16 -60 -31 -79 -34
l-36 -6 38 -27 c75 -55 172 -175 172 -211 0 -9 -9 -36 -20 -60 -11 -24 -20
-50 -20 -57 0 -17 50 -35 71 -25 10 4 59 58 109 118 175 209 196 226 275 216
l50 -6 27 -80 c15 -44 28 -102 28 -130 l1 -50 30 35 c44 51 95 146 114 213 20
71 10 125 -43 232 -60 122 -176 285 -201 285 -4 0 -18 -12 -32 -26z"/>
<path d="M462 2830 c-12 -5 -25 -16 -28 -25 -7 -18 36 -146 47 -140 11 7 33
141 26 159 -7 18 -12 19 -45 6z"/>
<path d="M4360 2818 c0 -7 4 -30 9 -50 10 -43 5 -49 -51 -67 l-38 -13 58 -38
c67 -45 132 -121 173 -202 31 -62 42 -69 59 -39 33 63 -36 254 -137 379 -33
40 -73 57 -73 30z"/>
<path d="M520 2658 c-29 -64 -26 -83 26 -134 25 -25 47 -44 49 -42 6 7 -39
218 -48 218 -4 0 -17 -19 -27 -42z"/>
<path d="M2946 2659 c-162 -24 -295 -147 -337 -312 -19 -78 -8 -143 36 -212
84 -132 277 -304 410 -365 44 -20 97 -53 118 -73 34 -32 38 -40 35 -79 l-3
-43 -142 -3 -142 -3 -26 36 c-55 72 -68 75 -296 75 l-203 0 -39 -27 c-48 -33
-135 -137 -172 -204 -32 -60 -32 -61 77 -125 44 -26 106 -66 138 -89 l57 -43
-4 112 c-4 98 -2 115 15 142 36 56 80 69 227 68 145 -1 228 -15 295 -49 25
-13 121 -86 214 -164 94 -78 176 -141 183 -141 25 0 36 -39 23 -88 -6 -26 -16
-52 -22 -59 -17 -20 4 -16 93 18 67 26 85 29 106 20 46 -21 71 -14 92 26 10
21 31 49 45 62 33 31 34 72 3 126 -21 38 -26 40 -90 51 -55 9 -74 17 -102 44
-52 50 -76 112 -82 205 -2 44 -9 93 -15 108 -6 16 -58 68 -122 121 -136 114
-312 285 -354 345 -28 38 -32 53 -32 105 0 66 22 116 60 136 32 17 141 23 189
10 66 -17 91 -48 91 -110 0 -66 -9 -82 -66 -115 l-46 -27 -40 18 c-78 35 -90
103 -13 75 44 -15 73 -7 81 24 16 65 -36 106 -104 84 -46 -15 -72 -61 -72
-128 l0 -53 133 -128 c297 -287 512 -460 569 -460 66 0 109 84 128 251 13 114
13 376 -1 440 -17 81 -64 119 -264 218 -318 157 -476 202 -629 180z"/>
<path d="M2393 2636 c-144 -28 -251 -97 -324 -209 -53 -81 -112 -272 -77 -250
7 4 40 26 73 47 110 73 138 79 316 71 l156 -7 8 49 c10 69 47 154 100 229 25
37 45 68 43 69 -12 12 -233 13 -295 1z"/>
<path d="M4007 2434 c-3 -4 0 -18 7 -33 25 -49 27 -68 11 -85 -9 -9 -14 -20
-10 -25 3 -6 43 -33 90 -61 46 -28 100 -70 120 -93 29 -34 38 -39 45 -27 38
61 -154 330 -236 330 -11 0 -23 -3 -27 -6z"/>
<path d="M1020 2321 c0 -44 4 -91 10 -105 19 -50 141 -58 123 -8 -8 22 -113
181 -124 188 -5 3 -9 -31 -9 -75z"/>
<path d="M2375 2180 c-159 -18 -265 -87 -330 -214 -36 -70 -40 -86 -40 -150 0
-60 6 -83 35 -145 l34 -74 13 57 c17 77 44 126 94 170 75 69 218 116 410 138
l108 12 -48 57 c-27 31 -61 78 -77 103 -20 31 -36 46 -50 46 -12 0 -34 2 -50
4 -16 2 -60 0 -99 -4z"/>
<path d="M4075 2144 c-38 -38 -54 -166 -69 -548 l-6 -139 83 5 c95 5 167 34
201 81 19 25 22 47 26 210 6 215 4 220 -96 321 -73 72 -115 94 -139 70z"/>
<path d="M1237 1873 c-4 -81 -3 -150 1 -154 4 -4 44 -19 89 -34 87 -29 139
-29 163 1 8 8 13 47 14 93 1 64 -2 83 -18 100 -28 31 -71 27 -108 -9 -37 -37
-32 -45 18 -31 20 6 41 8 46 5 10 -7 10 -105 0 -122 -7 -10 -25 -9 -93 5 l-84
18 3 110 c3 109 4 110 35 138 l31 27 -45 0 -46 0 -6 -147z"/>
<path d="M2697 1844 c-70 -141 -67 -148 60 -118 48 11 88 14 135 9 56 -6 68
-4 68 7 0 18 -108 123 -171 165 l-45 31 -47 -94z"/>
<path d="M4461 1753 c2 -4 24 -41 47 -80 25 -41 45 -87 45 -105 2 -30 -3 -34
-72 -73 -76 -42 -86 -56 -48 -66 87 -23 174 -100 217 -190 l28 -60 12 33 c19
53 24 170 10 229 -18 80 -74 190 -119 237 -36 37 -128 95 -120 75z"/>
<path d="M4376 1735 c-3 -9 -6 -66 -6 -126 l0 -108 36 24 c20 14 42 25 48 25
6 0 17 4 25 9 12 8 6 23 -29 83 -66 111 -66 112 -74 93z"/>
<path d="M1682 1368 l3 -112 43 -8 c24 -4 68 -18 98 -32 34 -16 54 -21 54 -13
-1 23 -57 144 -89 191 -29 42 -82 86 -104 86 -4 0 -6 -51 -5 -112z"/>
<path d="M4054 1403 l-61 -4 -6 -52 c-4 -29 -9 -95 -13 -148 l-7 -97 39 -25
c119 -79 253 -42 283 77 14 55 14 195 1 230 -9 25 -12 26 -92 24 -46 -1 -111
-3 -144 -5z"/>
<path d="M2107 1342 c-49 -54 -79 -248 -59 -379 29 -186 144 -328 310 -385
178 -60 418 0 587 146 l40 34 -55 -14 c-107 -28 -217 -15 -336 40 -106 48
-118 71 -136 241 l-12 117 -45 20 c-52 22 -151 91 -223 154 -27 24 -50 44 -52
44 -1 0 -10 -8 -19 -18z"/>
<path d="M2577 1238 c-58 -205 -59 -210 -46 -236 21 -39 105 -108 167 -139 47
-23 70 -28 132 -28 65 0 85 5 142 33 80 39 188 147 188 189 0 23 -3 25 -27 18
-85 -22 -209 -13 -318 22 -40 12 -67 33 -137 105 l-86 89 -15 -53z"/>
<path d="M4469 1198 c31 -68 46 -136 34 -154 -5 -6 -31 -19 -59 -28 -58 -19
-100 -45 -73 -46 52 -1 154 -119 186 -215 l16 -50 23 60 c48 127 41 219 -27
355 -35 70 -94 140 -119 140 -5 0 4 -28 19 -62z"/>
<path d="M4342 1133 c-12 -58 -20 -108 -18 -110 4 -5 126 55 126 61 0 6 -81
156 -84 156 -1 0 -12 -48 -24 -107z"/>
<path d="M1700 936 c0 -130 1 -134 23 -140 12 -3 31 -6 42 -6 11 0 49 -14 84
-30 l64 -30 -6 36 c-9 52 -71 180 -113 231 -20 24 -49 50 -65 58 l-29 16 0
-135z"/>
<path d="M932 990 c-47 -54 -80 -64 -118 -35 -35 26 -34 16 2 -41 20 -31 47
-81 61 -110 28 -62 33 -65 130 -89 40 -9 98 -32 129 -51 54 -33 60 -34 153
-33 53 1 107 4 121 8 l25 8 -34 19 c-129 72 -154 113 -159 251 l-4 102 -37 5
c-20 3 -79 8 -131 11 l-95 5 -43 -50z"/>
<path d="M3867 880 c-130 -165 -130 -164 -64 -213 55 -42 96 -58 147 -59 129
-1 257 136 276 293 l6 56 -53 7 c-30 4 -81 18 -114 32 -33 14 -64 27 -70 29
-5 2 -63 -63 -128 -145z"/>
<path d="M3422 947 c-38 -12 -75 -46 -115 -106 -34 -53 -62 -63 -129 -51 -28
6 -53 9 -55 7 -2 -2 7 -19 20 -38 33 -49 79 -69 161 -69 88 0 139 24 200 91
52 58 95 157 74 170 -18 12 -116 9 -156 -4z"/>
<path d="M4227 758 c-32 -61 -56 -112 -54 -115 3 -2 42 1 86 8 68 9 81 14 77
28 -3 9 -12 52 -22 96 -9 44 -19 83 -23 87 -3 4 -32 -43 -64 -104z"/>
<path d="M4381 718 c-1 -37 -5 -78 -11 -92 -9 -25 -13 -26 -90 -26 -44 0 -80
-3 -80 -6 0 -3 21 -27 46 -52 48 -50 108 -161 119 -225 7 -35 9 -37 25 -22 9
8 30 41 46 73 23 46 28 69 27 122 -1 74 -23 167 -58 243 l-23 52 -1 -67z"/>
<path d="M3679 583 c-35 -36 -101 -94 -146 -130 -67 -52 -82 -69 -78 -86 2
-12 11 -64 20 -116 8 -51 18 -98 22 -104 10 -16 108 -1 166 26 97 44 162 136
187 262 6 33 10 80 8 105 -3 39 -8 47 -43 71 -63 43 -67 43 -136 -28z"/>
<path d="M595 614 c-67 -15 -187 -65 -230 -98 -24 -18 -25 -17 102 -40 163
-29 213 -49 284 -114 77 -70 125 -104 148 -106 21 -1 121 -49 121 -57 0 -4
-13 -33 -30 -64 -32 -61 -40 -115 -16 -115 7 0 65 33 127 74 l114 75 110 16
c61 8 118 18 128 21 9 3 17 3 17 -1 0 -15 -36 -74 -72 -117 l-39 -48 25 -11
c14 -7 40 -9 60 -5 62 12 216 96 269 147 l49 48 -7 58 c-8 72 -64 192 -105
227 -51 42 -120 58 -281 63 -112 4 -172 1 -253 -12 -145 -24 -221 -17 -273 23
-66 53 -127 61 -248 36z"/>
<path d="M1794 493 c-27 -28 0 -172 48 -257 35 -60 83 -80 203 -84 140 -5 142
-3 108 113 -14 50 -27 95 -29 101 -1 7 -31 21 -66 33 -35 12 -94 37 -133 57
-106 54 -112 56 -131 37z"/>
<path d="M3882 353 c-81 -133 -82 -131 25 -118 l53 6 0 115 c0 63 -1 114 -3
114 -1 0 -35 -53 -75 -117z"/>
<path d="M4015 302 l0 -97 -70 -11 c-38 -7 -62 -12 -52 -13 28 -2 105 -79 118
-119 6 -20 15 -41 19 -46 5 -4 26 18 47 49 53 81 52 122 -6 238 -25 49 -47 90
-50 92 -4 2 -6 -40 -6 -93z"/>
<path d="M3143 371 c-95 -9 -174 -19 -177 -22 -3 -3 -1 -21 4 -41 14 -48 78
-118 153 -167 59 -39 66 -41 138 -41 68 0 78 2 100 26 22 24 24 33 23 129 0
111 -9 136 -48 134 -11 -1 -98 -9 -193 -18z"/>
<path d="M2571 343 c-6 -21 -11 -68 -11 -105 0 -61 2 -68 30 -91 16 -14 49
-29 72 -33 61 -11 216 -8 280 5 l54 12 -46 47 c-25 26 -60 75 -78 110 -32 60
-35 62 -65 57 -28 -6 -108 7 -199 30 -24 6 -27 4 -37 -32z"/>
<path d="M2255 279 c4 -52 11 -104 16 -116 10 -27 48 -35 149 -31 92 4 93 5
54 134 l-28 94 -37 0 c-20 0 -64 3 -99 7 l-62 6 7 -94z"/>
</g>
</svg>
