<svg xmlns="http://www.w3.org/2000/svg" width="476" height="480"><path d="M256 0c4.509.863 7.026 3.47 10.25 6.563l1.733 1.631A442.078 442.078 0 0 1 281 21c3-3.582 4.777-7.53 6.688-11.75l.97-2.113c.785-1.71 1.564-3.424 2.342-5.137 3.924 1.56 6.052 4.046 8.813 7.188C306.567 16.764 313.776 23.873 321 31c1.945-2.918 2.453-4.625 3-8h2l.332-1.758c.982-4.84 2.216-8.896 4.668-13.242 3.617 1.522 5.87 3.664 8.59 6.465l2.627 2.674 5.43 5.586 2.63 2.677 2.383 2.453c2.313 2.12 4.598 3.637 7.34 5.145l1.063-3.563C363.4 22.358 366.774 15.707 370 9c2.32.18 2.32.18 5 1 1.577 2.225 1.577 2.225 2.895 5.129l1.455 3.135 1.462 3.299 1.522 3.31c1.239 2.702 2.46 5.41 3.666 8.127 2.792 0 3.472-1.16 5.477-3.063l2.03-1.914c.7-.667 1.398-1.335 2.118-2.023l2.14-2.023c1.75-1.655 3.494-3.314 5.235-4.977 2.364 2.88 3.68 5.446 4.824 8.984l.928 2.832.935 2.934.971 2.98c.788 2.422 1.568 4.845 2.342 7.27 4.227-4.152 8.128-8.517 12.012-12.988L427 29h2l10 24 11-6 3-1c1.475 15.038-2.84 27.206-8 41.188-1.15 3.173-2.292 6.35-3.424 9.53-.7 1.961-1.412 3.92-2.137 5.872-2.376 6.524-2.376 6.524-2.439 13.41 2.55 3.591 4.743 5.193 8.996 6.004 1.478.207 2.959.392 4.442.558 6.774.8 11.305 2.188 16.32 7.192 5.645 7.467 9.36 16.68 9.373 26.113l.012 2.982-.003 3.268.01 3.478c.007 3.187.01 6.374.01 9.56.002 3.438.01 6.875.016 10.312.014 7.52.02 15.038.024 22.558.003 4.7.007 9.4.012 14.099.012 13.024.022 26.048.026 39.071v5.059a1387237.86 1387237.86 0 0 0 .003 7.625c.004 13.584.021 27.17.045 40.754.023 13.963.036 27.925.037 41.888 0 7.833.007 15.666.025 23.5.015 6.675.02 13.351.012 20.027-.004 3.4-.001 6.8.011 10.201.144 41.647.144 41.647-12.996 56.126-11.473 10.491-27.757 13.749-42.865 13.75l-2.197.005c-2.423.004-4.846 0-7.27-.003l-5.27.005c-4.824.004-9.648.002-14.472-.001-5.204-.003-10.408.001-15.612.004-10.191.004-20.383.003-30.574 0a61463.754 61463.754 0 0 0-35.586 0c-22.436.003-44.873 0-67.309-.006-19.266-.004-38.532-.003-57.799.001a178155.838 178155.838 0 0 1-74.232.004h-3.552c-8.275-.002-16.55 0-24.825.002-10.077.003-20.154.002-30.23-.003a13391.1 13391.1 0 0 0-15.434 0c-4.704.003-9.407.001-14.111-.004-1.707-.001-3.414 0-5.121.002-2.31.003-4.62 0-6.929-.005H6.09C3 480 3 480 0 479v-4c11.523-5.065 23.192-9.651 35-14l2.034-.754c1.924-.713 3.85-1.418 5.779-2.121l3.394-1.242C49 456 49 456 52 456c-3.308-4.238-6.822-7.732-10.938-11.191-2.468-2.165-4.745-4.482-7.062-6.809-1.827-1.806-3.655-3.61-5.484-5.414-1.556-1.541-3.11-3.083-4.665-4.625a1377.24 1377.24 0 0 0-3.224-3.183 1329.02 1329.02 0 0 1-4.674-4.63l-2.807-2.775C11 415 11 415 10 412c5.007.65 9.19 2.774 13.688 4.938l2.537 1.208C31.933 420.904 37.487 423.873 43 427a309.797 309.797 0 0 0 19 9.938l2.281 1.107c5.43 2.557 10.935 4.368 16.719 5.955l-1.079-1.367c-6.863-8.712-13.641-17.48-20.171-26.445l-1.66-2.26c-2.548-3.527-4.74-6.74-6.09-10.928 6.374.372 11.135 3.659 16.5 6.813a4827.08 4827.08 0 0 0 6.223 3.585l3.18 1.835c4.637 2.645 9.334 5.174 14.034 7.704 10.033 5.425 19.88 11.148 29.708 16.934A545.558 545.558 0 0 0 136 448l-1.744-2.539c-2.13-3.101-4.252-6.207-6.374-9.314-.92-1.346-1.841-2.69-2.764-4.033-1.325-1.928-2.644-3.86-3.962-5.794l-1.26-1.824C117 420.228 117 420.228 117 418h-2l-1.242-2.336-1.633-3.039-1.617-3.023c-1.39-2.655-1.39-2.655-3.508-4.602a78.127 78.127 0 0 1-2.125-4l-1.07-2.125C103 397 103 397 103 395c6.742 1.891 12.226 4.669 18.063 8.5l2.5 1.612c7.923 5.137 15.704 10.47 23.437 15.888l5.09 3.555c3.376 2.359 6.75 4.72 10.12 7.086l2.403 1.651C167 435 167 435 169.324 436.93c7.014 5.6 13.11 6.213 21.926 6.445 2.464.11 4.927.222 7.39.336l3.267.103c3.091.186 6.05.623 9.093 1.186l-1.367-3.367c-1.81-4.828-2.81-9.702-3.758-14.758l-.512-2.629c-.324-1.68-.643-3.361-.954-5.044a268.79 268.79 0 0 0-1.026-5.194c-.552-4.337-.46-8.643-.383-13.008 4.374-.289 8.748-.574 13.123-.854 1.483-.096 2.967-.193 4.45-.292 8.151-.538 16.253-.983 24.427-.854-.595 5.67-2.064 10.61-4.063 15.938l-.926 2.492c-3.662 9.605-7.823 19.32-14.011 27.57l20 1-1.563-5.375c-2.7-11.127.021-19.698 4.76-29.84.73-1.622 1.346-3.295 1.948-4.969 1.624-3.46 2.529-4.85 5.855-6.816 7.59-1.207 15.374-.605 23 0-.569 5.959-2.304 10.976-4.563 16.5l-1.069 2.643c-3.87 9.37-8.178 18.776-14.368 26.857 13.11.172 26.036-.228 39.106-1.225 22.622-1.695 45.22-2.196 67.894-2.462l2.416-.029A7780.34 7780.34 0 0 1 399 441l-14-8c1.87-3.74 2.482-4.671 5.64-6.953l2.227-1.617 2.383-1.68 2.427-1.733C416.163 408 416.163 408 420 408c-.287 9.054-3.138 16.69-6.289 25.072-.967 2.622-1.846 5.27-2.711 7.928 8.498-3.48 13.87-6.585 18-15v-3h2c.023-7.512.041-15.024.052-22.536.005-3.49.012-6.981.023-10.471.095-18.88.095-18.88-.391-37.75l-.068-2.164c-.152-2.78-.327-4.676-1.971-6.97-2.842-1.916-5.391-2.238-8.718-2.283l-2.467-.04-2.651-.032-5.55-.1c-2.918-.047-5.837-.092-8.756-.13-2.815-.04-5.63-.092-8.444-.145l-2.658-.026c-6.174-.126-6.174-.126-8.401-2.353-.3-3.152-.3-3.152-.313-6.938l-.05-3.777C381 324 381 324 382.09 322.11c2.846-1.653 5.524-1.663 8.785-1.921 5.565-.728 5.565-.728 10.375-3.5 3.475-5.556 4.21-13.606 3.264-19.94-.513-3.74-.612-7.25-.577-11.021.01-1.456.018-2.912.026-4.368l.019-2.33c.125-16.702-.083-33.393-.42-50.091l-.06-3.182c-.191-10.067-.432-20.07-1.325-30.101-.215-3.226-.09-6.367.091-9.59.496-6.408.496-6.408-1.717-12.221-4.076-2.94-8.339-3.969-13.252-3.973l-2.903-.01-3.15.006-3.275-.004c-3.511-.003-7.022.004-10.534.012l-3.592.007c-7.948.017-15.897.057-23.845.118l-2.55.019c-4.34.036-8.675.113-13.012.231l-2.864.042c-8.98.334-18.922 3.085-25.453 9.575l-1.683 2.008-1.79 2.117c-1.904 2.32-3.8 4.643-5.648 7.008-4.44-.495-6.375-1.887-9.48-5.042l-2.59-2.6-2.762-2.835-2.88-2.904c-2.53-2.55-5.047-5.112-7.562-7.676-4.01-4.086-8.039-8.153-12.066-12.222a1720.104 1720.104 0 0 1-4.173-4.245c-4.33-4.396-8.716-8.602-13.4-12.617-3.96-3.526-7.659-7.323-11.39-11.088a2376.025 2376.025 0 0 0-4.516-4.539c-3.188-3.2-6.372-6.403-9.556-9.607a10097.48 10097.48 0 0 0-11.146-11.202c-1.484-1.49-2.964-2.983-4.444-4.476l-2.712-2.722-2.39-2.406c-1.809-1.877-1.809-1.877-3.933-2.819v-2h-2v-2l-2.375-.75C175 86 175 86 174.128 84.228c-1.484-2.932-3.476-4.815-5.805-7.133l-1.435-1.435c-1.56-1.56-3.129-3.112-4.697-4.664a4776.402 4776.402 0 0 0-11.868-11.81c-2.917-2.897-5.828-5.798-8.739-8.7a13087.16 13087.16 0 0 0-15.376-15.292L124 33l-1.863-1.548L121 30c.313-2.188.313-2.188 1-4 6.23 1.26 12.46 2.523 18.689 3.79 2.12.431 4.24.86 6.361 1.29 3.044.615 6.087 1.234 9.13 1.854l2.885.58 2.669.546 2.355.478C166 35 166 35 168 36l-.438-2.352C166.138 25.358 165.774 17.402 166 9c3.334.583 6.239 1.397 9.331 2.766l2.487 1.092 2.639 1.177 2.736 1.207c2.875 1.269 5.747 2.544 8.62 3.82 1.952.864 3.904 1.726 5.857 2.588A7417.05 7417.05 0 0 1 212 28l-.45-3.073a9187.55 9187.55 0 0 1-.573-4.056l-.299-2.017c-.759-5.456-.62-10.446.322-15.854 9.675 4.777 19.273 9.677 28.79 14.761l2.323 1.235 2.056 1.1c1.98 1.03 1.98 1.03 4.831 1.904l.688-3.688C251.077 11.957 253.564 6.017 256 0Z" fill="#585353"/><path d="m87.563 39.625 2.42-.074C95.78 39.522 100.164 40.736 105 44c4.473 4.817 5.12 7.478 5 14l-2.032.044c-3.052.075-6.104.171-9.156.269l-3.197.068-3.095.107-2.841.08c-3.45.556-6.19 1.942-8.679 4.432a99.984 99.984 0 0 0 0 5c5.679 1.003 11.048 1.042 16.8.844l2.781-.079c2.91-.083 5.821-.173 8.731-.265 2.929-.092 5.857-.182 8.785-.265 1.818-.052 3.635-.108 5.452-.17 6.226-.178 6.226-.178 8.451.935v27c-2.835 1.417-5.497 1.425-8.652 1.719l-1.988.19c-2.099.2-4.198.396-6.297.591-2.096.195-4.192.39-6.287.59-1.904.183-3.809.36-5.713.537-3.098.274-3.098.274-6.063 1.373a99.768 99.768 0 0 1-6-1c.141 1.625.288 3.25.438 4.875.08.905.162 1.81.246 2.742.186 2.394.186 2.394 1.316 4.383l1.712.06c2.555.095 5.109.205 7.663.315.89.03 1.779.062 2.695.094l2.578.117 2.38.095C112 113 112 113 114 115c.226 2.856.324 5.583.313 8.438l.048 2.353c.005 5.705.005 5.705-1.606 7.923-2.19 1.605-3.506 1.707-6.204 1.798l-2.569.107-2.67.069-2.705.103c-2.202.082-4.404.152-6.607.209-1.163 2.327-1.113 3.642-1.094 6.231l.008 2.651.016 2.876c-.009 2.008-.02 4.015-.032 6.023-.016 3.167-.023 6.332.002 9.5.021 3.055-.002 6.108-.033 9.164l.053 2.839c-.116 6.353-1.649 9.533-6.126 14.04L83 191l-2.438 2.5L79 195c4.553.274 9.1.472 13.66.604 1.546.055 3.093.13 4.637.226 9.345.763 9.345.763 17.432-3.183 2.025-2.797 3.651-5.603 5.271-8.647 4.987-6.493 4.987-6.493 8-8 5.919-.333 11.838-.4 17.766-.46 1.982-.027 3.965-.067 5.947-.123 2.862-.08 5.721-.112 8.584-.136l2.671-.1c3.553.012 6.025.025 8.879 2.275A44.561 44.561 0 0 1 176 183l1.491 2.308 1.029 1.989 1.158 2.215 1.135 2.238 1.193 2.285c1.542 2.979 2.93 5.776 3.994 8.965 2.104.081 4.208.14 6.313.188l3.55.105c3.111.001 3.111.001 4.93-1.742L202 200l2-1-1.438-1.375C201 196 201 196 200 194c-2.221-.502-2.221-.502-4.813-.813-3.738-.672-4.917-.93-7.75-3.625-4.89-8.716-3.586-20.393-3.57-30.078l-.003-3.803c0-3.305.003-6.61.009-9.915.003-2.691-.002-5.383-.007-8.074-.004-3.236-.001-6.472.001-9.708l-.006-3.63c.016-5.556.138-10.883 1.139-16.354 4 0 4 0 5.663 1.166.55.55 1.1 1.1 1.665 1.668l1.93 1.903 2.08 2.116 2.22 2.207c2.422 2.416 4.83 4.845 7.239 7.276a8232.7 8232.7 0 0 0 5.027 5.03c3.513 3.516 7.02 7.04 10.521 10.568 4.498 4.532 9.01 9.05 13.526 13.565 3.461 3.462 6.917 6.929 10.371 10.398 1.662 1.668 3.326 3.336 4.99 5.002 2.321 2.325 4.635 4.656 6.947 6.99l2.106 2.103 1.895 1.92 1.66 1.67C264 183 264 183 264 185l3 1v2h2c1.48 1.504 1.48 1.504 3.188 3.563 2.55 3.09 2.55 3.09 5.521 5.754 3.077 2.522 5.008 4.493 5.945 8.432.25 3.384.286 6.71.248 10.103l.067 5.846c.019 2.053.022 4.105.02 6.158.003 4.708.103 9.414.203 14.122.163 7.798.268 15.597.37 23.397l.03 2.287a9194.725 9194.725 0 0 1 .432 38.868c.098 10.808.17 21.616.207 32.424.011 3.145.03 6.29.053 9.436.027 3.69.04 7.378.04 11.068.004 1.996.022 3.993.041 5.99l-.009 3.61.011 3.13c-.427 3.271-1.456 5.147-3.367 7.812-3.498 2.635-7.656 2.404-11.875 2.563-5.494.223-5.494.223-10.938.96-3.459.518-6.624.495-10.117.356l-3.906-.147-4.039-.17-4.11-.158c-3.338-.129-6.677-.264-10.015-.404 2.716 2.874 2.716 2.874 6 5v2c-3.188.813-3.188.813-7 1-4.989-3.402-6.897-8.233-8-14 .313-3.563.313-3.563 1-6-5.317.974-5.317.974-8.938 4.75-1.121 3.43-1.605 5.68-1.062 9.25 2.307 3.049 4.202 4.457 8 5v3c-3.456 1.728-7.214 1.357-11 1-4.225-1.565-6.772-3.074-9-7-.213-2.673-.285-5.093-.188-7.75l.042-2.113c.035-1.713.089-3.425.146-5.137-5.065.448-5.065.448-9.375 2.875-2.359 3.084-2.75 5.546-2.688 9.313L185 388l6 3-1 5c-4.426.641-8.35 1.15-12.152-1.5-6.95-7.523-7.267-15.36-7.098-25.207.323-4.256.902-6.73 3.25-10.293 4.067-2.153 7.836-2.339 12.387-2.527l2.19-.102c1.559-.072 3.117-.14 4.676-.206 4.143-.175 8.285-.38 12.427-.59l2.573-.132c9.038-.48 18.047-1.242 27.06-2.068l2.266-.207c4.141-.38 8.282-.77 12.421-1.168l-1-3a130.18 130.18 0 0 1-.063-6.031l.024-3.649.078-7.547c.047-7.324-.2-14.494-1.039-21.773-7.12-.089-13.95-.064-21 1-2.885-.004-5.761-.06-8.645-.16-2.547-.086-2.547-.086-4.355 2.16-.306 2.782-.306 2.782-.273 6.04l-.063 3.698c-.026 2.568-.044 5.136-.055 7.703-.262 13.914-.262 13.914-4.609 18.559-4.69 2.848-8.616 3.426-13.99 3.369l-2.358.011c-1.68.007-3.362.006-5.043 0-2.666-.009-5.331.001-7.997.017-7.577.04-15.154.041-22.731.039-4.643 0-9.286.019-13.929.05-2.617.01-5.233-.002-7.85-.015l-4.853.03-2.18-.029c-5.364.075-9.59 1.539-14.069 4.528-3.14 4.66-2.419 11.126-2.566 16.582l-.09 2.363-.057 2.141C111 380 111 380 109 383c-5.108 1.935-9.88 2.26-15.277 2.16l-2.334-.016c-2.443-.017-4.884-.048-7.326-.082-2.439-.027-4.877-.052-7.316-.07-1.51-.013-3.021-.03-4.531-.054-4.834-.045-9.426.414-14.216 1.062-6.565-.229-11.477-2.132-16.116-6.825-6.565-7.58-7.581-15.055-7.197-24.8l.069-3.332c.058-2.682.14-5.362.244-8.043 1.646-.027 3.292-.046 4.938-.063l2.777-.035C45 343 45 343 46 344c.073 2.186.084 4.375.063 6.563l-.028 3.628L46 357h6l-.035-2.809-.028-3.628-.035-3.622C52 344 52 344 53 343c3.336-.143 6.66-.042 10 0v13h11v-13c8.496-.098 8.496-.098 11 0 1 1 1 1 1.098 3.723l-.035 3.34-.028 3.347L86 356l10-2c.914-2.743 1.145-4.507 1.21-7.344.03-.834.058-1.668.087-2.527.052-1.752.096-3.505.133-5.258l.093-2.527.06-2.307c.52-2.543 1.392-3.457 3.417-5.037 2.725-.39 5.231-.136 8 0l-.035-3.246-.028-4.192-.025-2.142c-.009-1.807.036-3.614.088-5.42 1.589-1.589 3.247-1.208 5.438-1.25l2.433-.078L119 313c2.421 3.632 2.21 5.383 2.125 9.688l-.055 3.574L121 329c3.25-1.088 3.25-1.088 6-3 .089-2.594.115-5.16.098-7.754l-.005-2.35c-.005-2.486-.018-4.972-.03-7.459-.006-1.681-.01-3.363-.014-5.044-.011-4.131-.028-8.262-.049-12.393h2l1-4h58c2.8 5.6 2.556 11.129 2.743 17.272.07 2.156.165 4.31.263 6.464.048 1.379.094 2.757.139 4.135l.136 3.78c-.31 3.698-.977 5.465-3.281 8.349-3.374 2.482-6.724 2.258-10.813 2.266l-1.971.005c-1.372.002-2.744-.002-4.115-.01-2.094-.011-4.187 0-6.28.012a7532546287.956 7532546287.956 0 0 1-7.676-.015c-2.995-.246-4.68-.589-7.145-2.258-1.83-3.658-1.228-7.973-1.25-12l-.063-2.813-.015-2.687-.028-2.469L149 305c3.112-2.075 3.84-2.255 7.379-2.266l2.54-.007 2.643.023 2.655-.023 2.537.007 2.322.007C171 303 171 303 173 305c.377 2.336.505 4.643.656 7.004L174 314l2 1c.108-1.915.186-3.833.25-5.75l.14-3.234c-.49-3.785-1.428-4.682-4.39-7.016-2.745-.58-2.745-.58-5.754-.46l-3.338.01-3.47.075-3.483.004c-6.342-.142-6.342-.142-11.955 2.371-.676 4.42-.463 8.91-.438 13.375l-.06 3.773.002 3.625-.006 3.326c.62 3.585 1.625 4.731 4.502 6.901 5.298 2.172 11.924 1.186 17.59 1.185 2.205.002 4.41.02 6.615.04 1.417.003 2.835.005 4.252.005l3.874.013c3.844-.255 7.046-.948 10.669-2.243 6.448-7.678 5.187-21.364 5.25-30.938l.028-2.652c-.026-5.453-.597-10.206-2.278-15.41-2.36-1.18-3.791-1.133-6.424-1.145l-2.786-.02-3.036-.003-3.15-.01c-2.216-.005-4.431-.007-6.646-.007-3.323-.002-6.645-.02-9.968-.04-9.945-.027-19.813.09-29.713 1.112l-2.295.235c-4.221.497-7.994 1.431-11.982 2.878l-3.563.813c-3.989 1.378-5.797 2.926-8.437 6.187-1.082 3.16-1.124 6.143-1.14 9.465l-.06 3.174c-.033 2.195-.051 4.39-.054 6.586l-.074 3.177-.028 2.89c-.94 3.952-2.351 5.345-5.644 7.708-3.185.715-6.28.701-9.535.664l-2.775.015c-1.93.003-3.861-.006-5.792-.027-2.955-.027-5.906 0-8.86.032-1.88-.004-3.757-.01-5.636-.02l-2.673.03c-6.086-.116-6.086-.116-9.279-2.986-1.336-2.495-1.969-3.917-2.06-6.696l-.092-1.931-.048-2.394L52 304H36l-1.625 6c-2.15 7.039-5.222 11.847-10.375 17-3.125.125-3.125.125-6 0-.947-26.694-.947-26.694 5.5-34.875 4.213-3.581 8.253-3.312 13.527-3.363l2.38-.025c1.66-.014 3.32-.024 4.98-.032 2.538-.017 5.074-.061 7.611-.105 1.614-.01 3.228-.019 4.842-.026l2.295-.053c3.51.015 5.486.197 8.34 2.32 2.008 2.842 2.09 4.892 2.213 8.346-.174 3.722-.174 3.722 1.312 6.813 2.186.073 4.375.084 6.563.063l3.628-.028L84 306c1.988-4.107 2.108-7.164 1.875-11.688-.087-6.406.564-11.863 4.125-17.312 3.753-3.55 6.418-4.58 11.523-5.125l3.826-.446 1.997-.212c17.97-.706 17.97-.706 33.654-7.217.156-1.413.25-2.834.316-4.254l.127-2.588.12-2.72.13-2.733c.107-2.235.207-4.47.307-6.705h-11l.07 2.992.055 3.883.07 3.867C131 259 131 259 129 261c-6.577-.577-6.577-.577-8-2a110.238 110.238 0 0 1-.063-5.563l.028-3.066L121 248c-2.122.952-2.122.952-4 3-.431 2.822-.65 5.3-.688 8.125-.223 7.786-.223 7.786-1.312 8.875a95.634 95.634 0 0 1-5.938.25l-3.277.078L103 268l-2-3-1.703.992C95.545 267.64 92.06 267.12 88 267v12c-2.353 1.177-3.88 1.166-6.5 1.188l-2.406.042C77 280 77 280 75 278c-.195-2.602-.195-2.602-.125-5.625l.055-3.04L75 267H65l.035 2.773.028 3.602.035 3.586C65 280 65 280 64 282c-2.312.027-4.625.046-6.938.063l-3.902.035C50 282 50 282 49 281a153.02 153.02 0 0 1-.063-6.563l.028-3.628L49 268l-3.063.563c-3.916.435-7.08.146-10.937-.563l.035 2.809.028 3.628.035 3.622C35 281 35 281 34 282c-2.31.126-4.624.176-6.938.188l-3.84.042C20 282 20 282 18 280c-.396-2.894-.396-2.894-.594-6.59l-.112-2.016c-.404-7.647-.602-15.302-.794-22.957-.08-3.02-.162-6.039-.246-9.058l-.062-2.224c-.167-5.766-.442-11.52-.755-17.28-.56-10.576-.498-21.152-.4-31.739l.025-3.933.036-3.48a87.45 87.45 0 0 0-.603-8.172c-.761-7.174-.569-14.364-.48-21.567l.05-4.632c.037-3.224.078-6.448.122-9.672.055-4.092.092-8.184.124-12.277.028-3.186.069-6.373.113-9.56.02-1.506.034-3.013.043-4.52.102-14.826 1.082-29.809 11.877-41.007 4.91-4.82 10.462-8.578 16.19-12.335a547.442 547.442 0 0 0 5.292-3.534c12.692-8.468 24.34-13.797 39.736-13.822Z" fill="#585353"/><path d="M256 0c4.509.863 7.026 3.47 10.25 6.563l1.733 1.631A442.078 442.078 0 0 1 281 21c3-3.582 4.777-7.53 6.688-11.75l.97-2.113c.785-1.71 1.564-3.424 2.342-5.137 3.924 1.56 6.052 4.046 8.813 7.188C306.567 16.764 313.776 23.873 321 31c1.945-2.918 2.453-4.625 3-8h2l.332-1.758c.982-4.84 2.216-8.896 4.668-13.242 3.617 1.522 5.87 3.664 8.59 6.465l2.627 2.674 5.43 5.586 2.63 2.677 2.383 2.453c2.313 2.12 4.598 3.637 7.34 5.145l1.063-3.563C363.4 22.358 366.774 15.707 370 9c2.32.18 2.32.18 5 1 1.577 2.225 1.577 2.225 2.895 5.129l1.455 3.135 1.462 3.299 1.522 3.31c1.239 2.702 2.46 5.41 3.666 8.127 2.792 0 3.472-1.16 5.477-3.063l2.03-1.914c.7-.667 1.398-1.335 2.118-2.023l2.14-2.023c1.75-1.655 3.494-3.314 5.235-4.977 2.364 2.88 3.68 5.446 4.824 8.984l.928 2.832.935 2.934.971 2.98c.788 2.422 1.568 4.845 2.342 7.27 4.227-4.152 8.128-8.517 12.012-12.988L427 29h2c1.784 3.747 3.491 7.525 5.188 11.313l1.521 3.189c2.946 6.695 3.835 10.868 1.357 17.819L436 64a905.312 905.312 0 0 0-1.734 5.285c-.668 1.927-1.34 3.853-2.016 5.778-.373 1.07-.745 2.14-1.13 3.241-4.588 13.121-9.284 26.205-13.978 39.288l-.961 2.68c-.594 1.657-1.188 3.313-1.784 4.969-2.235 6.238-4.42 12.492-6.319 18.841-2.33 7.68-5.834 14.134-10.078 20.918l-.892 2.64C395 170 395 170 392.782 170.43c-3.076.136-6.114.104-9.192.023l-3.5-.029c-3.718-.034-7.435-.103-11.152-.174-14.354-.2-28.707-.398-43.06-.016l-3.139.046c-9.45.321-19.686 2.698-26.618 9.587l-1.683 2.008-1.79 2.117c-1.904 2.32-3.8 4.643-5.648 7.008-4.44-.495-6.375-1.887-9.48-5.042l-2.59-2.6-2.762-2.835-2.88-2.904c-2.53-2.55-5.047-5.112-7.562-7.676-4.01-4.086-8.039-8.153-12.066-12.222a1720.104 1720.104 0 0 1-4.173-4.245c-4.33-4.396-8.716-8.602-13.4-12.617-3.96-3.526-7.659-7.323-11.39-11.088a2376.025 2376.025 0 0 0-4.516-4.539c-3.188-3.2-6.372-6.403-9.556-9.607a10097.48 10097.48 0 0 0-11.146-11.202c-1.484-1.49-2.964-2.983-4.444-4.476l-2.712-2.722-2.39-2.406c-1.809-1.877-1.809-1.877-3.933-2.819v-2h-2v-2l-2.375-.75C175 86 175 86 174.128 84.228c-1.484-2.932-3.476-4.815-5.805-7.133l-1.435-1.435c-1.56-1.56-3.129-3.112-4.697-4.664a4776.402 4776.402 0 0 0-11.868-11.81c-2.917-2.897-5.828-5.798-8.739-8.7a13087.16 13087.16 0 0 0-15.376-15.292L124 33l-1.863-1.548L121 30c.313-2.188.313-2.188 1-4 6.23 1.26 12.46 2.523 18.689 3.79 2.12.431 4.24.86 6.361 1.29 3.044.615 6.087 1.234 9.13 1.854l2.885.58 2.669.546 2.355.478C166 35 166 35 168 36l-.438-2.352C166.138 25.358 165.774 17.402 166 9c3.334.583 6.239 1.397 9.331 2.766l2.487 1.092 2.639 1.177 2.736 1.207c2.875 1.269 5.747 2.544 8.62 3.82 1.952.864 3.904 1.726 5.857 2.588A7417.05 7417.05 0 0 1 212 28l-.45-3.073a9187.55 9187.55 0 0 1-.573-4.056l-.299-2.017c-.759-5.456-.62-10.446.322-15.854 9.675 4.777 19.273 9.677 28.79 14.761l2.323 1.235 2.056 1.1c1.98 1.03 1.98 1.03 4.831 1.904l.688-3.688C251.077 11.957 253.564 6.017 256 0Z" fill="#595453"/><path d="m87.563 39.625 2.42-.074C95.78 39.522 100.164 40.736 105 44c4.473 4.817 5.12 7.478 5 14l-2.032.044c-3.052.075-6.104.171-9.156.269l-3.197.068-3.095.107-2.841.08c-3.45.556-6.19 1.942-8.679 4.432a99.984 99.984 0 0 0 0 5c5.679 1.003 11.048 1.042 16.8.844l2.781-.079c2.91-.083 5.821-.173 8.731-.265 2.929-.092 5.857-.182 8.785-.265 1.818-.052 3.635-.108 5.452-.17 6.226-.178 6.226-.178 8.451.935v27c-2.835 1.417-5.497 1.425-8.652 1.719l-1.988.19c-2.099.2-4.198.396-6.297.591-2.096.195-4.192.39-6.287.59-1.904.183-3.809.36-5.713.537-3.098.274-3.098.274-6.063 1.373a99.768 99.768 0 0 1-6-1c.141 1.625.288 3.25.438 4.875.08.905.162 1.81.246 2.742.186 2.394.186 2.394 1.316 4.383l1.712.06c2.555.095 5.109.205 7.663.315.89.03 1.779.062 2.695.094l2.578.117 2.38.095C112 113 112 113 114 115c.226 2.856.324 5.583.313 8.438l.048 2.353c.005 5.705.005 5.705-1.606 7.923-2.19 1.605-3.506 1.707-6.204 1.798l-2.569.107-2.67.069-2.705.103c-2.202.082-4.404.152-6.607.209-1.163 2.327-1.113 3.642-1.094 6.231l.008 2.651.016 2.876c-.009 2.008-.02 4.015-.032 6.023-.016 3.167-.023 6.332.002 9.5.021 3.055-.002 6.108-.033 9.164l.053 2.839c-.116 6.353-1.649 9.533-6.126 14.04L83 191l-2.438 2.5L79 195c4.553.274 9.1.472 13.66.604 1.546.055 3.093.13 4.637.226 9.345.763 9.345.763 17.432-3.183 2.025-2.797 3.651-5.603 5.271-8.647 4.987-6.493 4.987-6.493 8-8 5.919-.333 11.838-.4 17.766-.46 1.982-.027 3.965-.067 5.947-.123 2.862-.08 5.721-.112 8.584-.136l2.671-.1c3.553.012 6.025.025 8.879 2.275A44.561 44.561 0 0 1 176 183l1.491 2.308 1.029 1.989 1.158 2.215 1.135 2.238 1.193 2.285c1.542 2.979 2.93 5.776 3.994 8.965 2.104.081 4.208.14 6.313.188l3.55.105c3.095.001 3.095.001 4.867-1.68L202 200l3-2c.101 7.456.171 14.913.22 22.37.02 2.536.047 5.072.082 7.609.048 3.646.071 7.292.089 10.939l.062 3.435c.002 7.855.002 7.855-2.29 11.84-5.22 4.362-12.59 3.111-19.038 3.182l-3.879.113c-9.254.087-9.254.087-13.629-2.449-2.186-4.108-2.064-7.482-1.617-12.039l-1.937.184c-2.958.277-5.917.547-8.875.816l-3.045.29c-6.735.605-13.382.83-20.143.71l.07 2.992.055 3.883.07 3.867C131 259 131 259 129 261c-6.577-.577-6.577-.577-8-2a110.238 110.238 0 0 1-.063-5.563l.028-3.066L121 248c-2.122.952-2.122.952-4 3-.431 2.822-.65 5.3-.688 8.125-.223 7.786-.223 7.786-1.312 8.875a95.634 95.634 0 0 1-5.938.25l-3.277.078L103 268l-2-3-1.703.992C95.545 267.64 92.06 267.12 88 267v12c-2.353 1.177-3.88 1.166-6.5 1.188l-2.406.042C77 280 77 280 75 278c-.195-2.602-.195-2.602-.125-5.625l.055-3.04L75 267H65l.035 2.773.028 3.602.035 3.586C65 280 65 280 64 282c-2.312.027-4.625.046-6.938.063l-3.902.035C50 282 50 282 49 281a153.02 153.02 0 0 1-.063-6.563l.028-3.628L49 268l-3.063.563c-3.916.435-7.08.146-10.937-.563l.035 2.809.028 3.628.035 3.622C35 281 35 281 34 282c-2.31.126-4.624.176-6.938.188l-3.84.042C20 282 20 282 18 280c-.396-2.894-.396-2.894-.594-6.59l-.112-2.016c-.404-7.647-.602-15.302-.794-22.957-.08-3.02-.162-6.039-.246-9.058l-.062-2.224c-.167-5.766-.442-11.52-.755-17.28-.56-10.576-.498-21.152-.4-31.739l.025-3.933.036-3.48a87.45 87.45 0 0 0-.603-8.172c-.761-7.174-.569-14.364-.48-21.567l.05-4.632c.037-3.224.078-6.448.122-9.672.055-4.092.092-8.184.124-12.277.028-3.186.069-6.373.113-9.56.02-1.506.034-3.013.043-4.52.102-14.826 1.082-29.809 11.877-41.007 4.91-4.82 10.462-8.578 16.19-12.335a547.442 547.442 0 0 0 5.292-3.534c12.692-8.468 24.34-13.797 39.736-13.822Z" fill="#5B5553"/><path d="m319.854 175.71 2.313-.02c2.508-.02 5.016-.024 7.524-.026l5.252-.02c3.663-.012 7.325-.016 10.987-.015 4.69 0 9.38-.027 14.07-.061 3.612-.022 7.224-.026 10.837-.025 1.729-.003 3.458-.012 5.187-.027 2.418-.02 4.834-.014 7.252-.002l2.155-.034c4.787.06 7.207 1.134 10.569 4.52 1.699 3.398 1.33 7.279 1.465 11.023l.114 2.863c.124 3.163.241 6.326.358 9.489l.256 6.64c.693 18.181 1.319 36.364 1.932 54.547l.134 3.965c.127 3.742.25 7.484.374 11.227l.113 3.356c.696 21.532.696 21.532-3.746 27.64-8.613 6.46-20.229 6.407-30.57 6.453l-3.028.017c-2.103.01-4.206.016-6.309.02-3.215.01-6.429.041-9.644.072-2.048.007-4.096.012-6.144.016l-2.905.038c-8.724-.03-8.724-.03-12.4-3.366-3.182-5.076-3.44-9.173-3.42-14.971l-.026-2.673c-.023-2.903-.024-5.805-.023-8.708l-.023-6.066c-.013-4.231-.015-8.463-.009-12.694.006-5.426-.025-10.85-.065-16.276-.026-4.172-.029-8.345-.025-12.518-.002-2-.012-4.001-.03-6.002-.021-2.794-.012-5.586.006-8.38l-.04-2.506c.058-3.98.244-5.78 3.056-8.699 7.19-4.17 15.875-3.717 23.974-3.82l2.631-.053c8.344.01 8.344.01 11.994 3.366 3.027 5.678 3.443 10.362 3.398 16.73l.01 2.767c.001 1.918-.004 3.837-.017 5.756-.016 2.936 0 5.871.02 8.808-.003 1.869-.007 3.738-.013 5.607l.019 2.655c-.07 6.023-.07 6.023-1.754 9.198-3.066 2.727-6.237 2.666-10.163 2.729l-2.906.078C350 268 350 268 348.219 266.61c-2.521-3.328-2.383-5.858-2.407-9.984l-.042-3.46c.218-3.004.66-4.644 2.23-7.165-2.496.781-2.496.781-5 2-1.216 3.65-1.3 7.07-1.375 10.875l-.113 2.145c-.064 3.772.37 5.804 2.48 8.957 3.991 2.684 6.81 2.701 11.508 2.523l2.262.008c4.487-.08 7.694-.493 11.238-3.508 1.682-3.452 2.238-6.15 2.151-9.97l-.051-2.913-.088-3.113-.069-3.231c-.05-2.252-.105-4.504-.164-6.756-.091-3.438-.166-6.877-.238-10.316-.05-2.19-.102-4.381-.154-6.572l-.07-3.107c-.13-4.764-.35-9.337-1.317-14.022-5.5-1.848-10.295-2.282-16.074-2.23h-2.565c-1.777.004-3.555.012-5.332.024-2.719.019-5.437.02-8.156.02-1.732.005-3.465.011-5.197.018l-2.456.003c-3.572.03-6.783.203-10.22 1.165-1.289 3.937-1.148 7.909-1.145 12.003l-.01 2.436c-.01 2.661-.012 5.322-.013 7.983l-.01 5.585c-.006 3.91-.008 7.821-.007 11.732 0 4.969-.014 9.937-.031 14.906a3788.83 3788.83 0 0 0-.013 11.557c0 1.83-.005 3.658-.013 5.487-.748 21.086-.748 21.086 6.242 40.311 5.37 3.237 10.345 3.465 16.434 3.512l2.66.054c2.781.054 5.562.088 8.343.121 1.896.034 3.79.068 5.686.104 4.626.085 9.251.152 13.877.209l.332 3.762.48 4.925.213 2.475c.464 4.585.88 8.22 3.975 11.838 4.82 3.252 8.971 3.416 14.574 3.371l4.96.053c2.587.01 5.174.013 7.761.012 2.51.003 5.02.03 7.53.06l2.348-.025c5.383.075 5.383.075 7.523 2.263 1.472 2.559 1.72 4.083 1.803 7.015l.097 2.843.049 3.053.059 3.16c.032 2.207.056 4.413.072 6.62.036 3.367.142 6.727.25 10.093.274 15.527.274 15.527-2.877 20.266-2.628 1.856-5.176 2.993-8.149 4.216a198.707 198.707 0 0 0-6.05 4.043c-3.154 2.09-6.31 4.176-9.468 6.26l-3.095 2.052-2.775 1.833c-2.67 1.802-2.67 1.802-5.261 3.977-4.257 3.323-8.657 3.167-13.855 3.554-2.492.136-2.492.136-4.496 1.281-3.348.07-6.684-.003-10.031-.063-2.899-.15-2.899-.15-4.969 1.063-3.348.07-6.684-.003-10.031-.063-2.899-.15-2.899-.15-4.969 1.063-3.575.07-7.14-.003-10.715-.063-3.292-.1-3.292-.1-6.285 1.063-2.062.046-4.125.038-6.188 0-5.949-.049-11.805.218-17.742.642-7.027.474-14.03.449-21.07.358.471-6.688 2.36-11.83 5.187-17.875l1.135-2.527c.755-1.648 1.545-3.28 2.372-4.893 1.354-2.644 1.354-2.644 2.152-5.346 1.316-3.277 2.448-5.052 5.154-7.359 6.44-1.975 13.621-1.3 20.273-1.195 2.01-.004 4.019-.012 6.028-.025 5.278-.02 10.554.018 15.832.07 5.389.042 10.778.027 16.168.017 10.567-.01 21.132.041 31.699.133 1.01-4.156 1.102-8.044 1.062-12.313l-.027-3.8L382 379l-2.71-.018c-8.46-.058-16.919-.13-25.378-.218a3195.71 3195.71 0 0 0-13.044-.11c-4.202-.027-8.403-.067-12.605-.117a741.625 741.625 0 0 0-4.792-.035c-19.351-.083-19.351-.083-26.409-5.94-5.607-6.966-5.215-14.533-5.251-23.128l-.026-3.19c-.017-2.286-.032-4.571-.045-6.856-.022-3.641-.049-7.282-.077-10.923-.06-7.759-.112-15.518-.163-23.278-.06-8.934-.123-17.87-.192-26.804-.026-3.543-.047-7.086-.068-10.628-.085-12.137-.335-24.246-.92-36.37-.758-16.306-1.535-35.314 9.68-48.385 5.71-6.005 11.794-7.3 19.854-7.29Z" fill="#585352"/><path d="M410 165c6.524.305 9.852 2.67 14.813 6.75 1.496 1.188 2.995 2.375 4.496 3.559l2.331 1.85c3.835 2.991 7.78 5.824 11.735 8.654l2.274 1.632a5733.69 5733.69 0 0 0 4.337 3.11c4.355 3.125 8.683 6.287 13.014 9.445-.117 2.21-.117 2.21-1 5a53.605 53.605 0 0 1-6.125 4.625c-1.267.863-2.532 1.728-3.797 2.594l-2.01 1.36c-3.54 2.433-6.988 4.993-10.443 7.546l-3.836 2.82L433 226c2.718 3.613 5.51 6.4 9.063 9.188 5.008 4.01 9.761 8.227 14.476 12.578a126.336 126.336 0 0 0 6.149 5.234l2.312 2v2a154.574 154.574 0 0 1-7 5.375c-1.458 1.075-2.917 2.15-4.375 3.227l-2.297 1.684c-3.796 2.795-7.56 5.63-11.328 8.464l-4.063 3.047L433 281c2.612 2.709 5.264 5.058 8.3 7.277l2.464 1.807 2.548 1.853 2.514 1.842 2.475 1.81 2.408 1.763c1.46 1.05 2.934 2.082 4.426 3.087 4.778 3.23 4.778 3.23 5.74 6.873-1.256 5.292-4.123 7.878-7.875 11.688a584.262 584.262 0 0 0-4.329 4.644 366.33 366.33 0 0 1-2.938 3.144c-2.405 2.58-4.383 4.934-5.733 8.212 4.593 5.33 9.302 10.544 14.091 15.698A455.238 455.238 0 0 1 461 355c.79.842 1.58 1.684 2.395 2.55C465 360 465 360 464.965 362.563c-1.097 2.773-2.329 4.302-4.402 6.438-3.523 3.824-6.923 7.705-10.188 11.75l-1.4 1.645c-1.457 1.747-1.457 1.747-2.975 4.605 1.109 3.882 3.155 6.891 5.477 10.16l2.03 2.904c1.417 2.005 2.836 4.008 4.259 6.008l2.023 2.9 1.866 2.634C463 414 463 414 463 418c-1.398 1.605-1.398 1.605-3.375 3.188l-2.207 1.824L455 425c-10.258 8.856-10.258 8.856-19.25 18.938-7.272 8.864-17.777 13.642-28.75 16.062-1.373.087-2.75.126-4.125.127l-2.477.009-2.702-.007-2.88.006c-3.183.004-6.367 0-9.55-.002l-6.802.005c-20.348.013-40.696-.04-61.044-.098a5193.787 5193.787 0 0 0-41.472.037c-8.913.046-17.825.06-26.738.047-5.19-.006-10.379.005-15.569.058-4.852.05-9.702.052-14.554.02-1.756-.005-3.512.008-5.268.04-12.007.208-19.106-2-28.225-9.915-1.765-1.47-3.604-2.779-5.487-4.092L177 444v-1c4.542.14 9.083.288 13.625.438l3.895.119 3.77.127 3.459.11c3.144.2 6.155.63 9.251 1.206l-1.367-3.367c-1.81-4.828-2.81-9.702-3.758-14.758l-.512-2.629c-.324-1.68-.643-3.361-.954-5.044a268.79 268.79 0 0 0-1.026-5.194c-.552-4.337-.46-8.643-.383-13.008 4.374-.289 8.748-.574 13.123-.854 1.483-.096 2.967-.193 4.45-.292 8.151-.538 16.253-.983 24.427-.854-.595 5.67-2.064 10.61-4.063 15.938l-.926 2.492c-3.662 9.605-7.823 19.32-14.011 27.57l20 1-1.563-5.375c-2.7-11.127.021-19.698 4.76-29.84.73-1.622 1.346-3.295 1.948-4.969 1.624-3.46 2.529-4.85 5.855-6.816 7.59-1.207 15.374-.605 23 0-.569 5.959-2.304 10.976-4.563 16.5l-1.069 2.643c-3.87 9.37-8.178 18.776-14.368 26.857 13.11.172 26.036-.228 39.106-1.225 22.622-1.695 45.22-2.196 67.894-2.462l2.416-.029A7780.34 7780.34 0 0 1 399 441l-14-8c1.87-3.74 2.482-4.671 5.64-6.953l2.227-1.617 2.383-1.68 2.427-1.733C416.163 408 416.163 408 420 408c-.287 9.054-3.138 16.69-6.289 25.072-.967 2.622-1.846 5.27-2.711 7.928 8.498-3.48 13.87-6.585 18-15v-3h2c.023-7.512.041-15.024.052-22.536.005-3.49.012-6.981.023-10.471.095-18.88.095-18.88-.391-37.75l-.068-2.164c-.152-2.78-.327-4.676-1.971-6.97-2.842-1.916-5.391-2.238-8.718-2.283l-2.467-.04-2.651-.032-5.55-.1c-2.918-.047-5.837-.092-8.756-.13-2.815-.04-5.63-.092-8.444-.145l-2.658-.026c-6.174-.126-6.174-.126-8.401-2.353-.3-3.152-.3-3.152-.313-6.938l-.05-3.777C381 324 381 324 382.09 322.11c2.846-1.653 5.524-1.663 8.785-1.921 5.565-.728 5.565-.728 10.375-3.5 3.475-5.556 4.21-13.606 3.264-19.94-.513-3.74-.612-7.25-.577-11.021.01-1.456.018-2.912.026-4.368l.019-2.33c.125-16.702-.083-33.393-.42-50.091l-.06-3.182c-.191-10.071-.425-20.09-1.295-30.128-.938-11.917-.104-21.081 7.793-30.628Z" fill="#C07B7C"/><path d="M291 2c3.872 1.785 5.983 3.967 8.813 7.188C306.567 16.764 313.776 23.873 321 31c1.945-2.918 2.453-4.625 3-8h2l.332-1.758c.982-4.84 2.216-8.896 4.668-13.242 3.617 1.522 5.87 3.664 8.59 6.465l2.627 2.674 5.43 5.586 2.63 2.677 2.383 2.453c2.313 2.12 4.598 3.637 7.34 5.145l1.063-3.563C363.4 22.358 366.774 15.707 370 9c2.32.18 2.32.18 5 1 1.577 2.225 1.577 2.225 2.895 5.129l1.455 3.135 1.462 3.299 1.522 3.31c1.239 2.702 2.46 5.41 3.666 8.127 2.792 0 3.472-1.16 5.477-3.063l2.03-1.914c.7-.667 1.398-1.335 2.118-2.023l2.14-2.023c1.75-1.655 3.494-3.314 5.235-4.977 2.364 2.88 3.68 5.446 4.824 8.984l.928 2.832.935 2.934.971 2.98c.788 2.422 1.568 4.845 2.342 7.27 4.227-4.152 8.128-8.517 12.012-12.988L427 29h2c1.784 3.747 3.491 7.525 5.188 11.313l1.521 3.189c2.946 6.695 3.835 10.868 1.357 17.819L436 64a905.312 905.312 0 0 0-1.734 5.285c-.668 1.927-1.34 3.853-2.016 5.778-.373 1.07-.745 2.14-1.13 3.241-4.588 13.121-9.284 26.205-13.978 39.288l-.961 2.68c-.594 1.657-1.188 3.313-1.784 4.969-2.235 6.238-4.42 12.492-6.319 18.841-2.33 7.68-5.834 14.134-10.078 20.918l-1.228 2.633C395 170 395 170 392.285 170.6l-3.317-.033-3.76-.002c-1.355-.025-2.71-.051-4.063-.078-1.386-.009-2.772-.016-4.158-.021-3.645-.02-7.29-.068-10.934-.124-3.72-.05-7.44-.074-11.16-.099-7.298-.053-14.596-.139-21.893-.244l-.68-2.065a8751.074 8751.074 0 0 0-3.11-9.392c-.352-1.072-.706-2.144-1.07-3.248-2.012-6.065-4.126-12.056-6.515-17.982-3.135-7.852-5.9-15.81-8.625-23.813-2.688-7.894-5.395-15.759-8.5-23.5-3.544-8.843-6.584-17.85-9.646-26.87a555.484 555.484 0 0 0-10.162-27.455c-2.29-5.88-4.14-10.77-1.833-16.992 1.137-2.585 2.365-5.101 3.641-7.62l1.3-2.65A634.53 634.53 0 0 1 291 2Z" fill="#595353"/><path d="M224 212c5.45.865 7.889 3.297 11.82 7.077 2.65 2.53 5.291 4.724 8.305 6.798 2.104 1.82 2.811 2.8 3.355 5.565l.165 2.884.198 3.255L248 241l.165 3.288c.16 3.55.284 7.098.398 10.65l.128 3.959c.504 16.696.4 33.4.309 50.103-3.437.342-6.874.672-10.313 1-.957.095-1.914.19-2.9.29-5.907.556-11.665.764-17.596.55-2.402-.064-2.402-.064-4.191 2.16-.306 2.782-.306 2.782-.273 6.04l-.063 3.698c-.026 2.568-.044 5.136-.055 7.703-.262 13.914-.262 13.914-4.609 18.559-4.69 2.848-8.616 3.426-13.99 3.369l-2.358.011c-1.68.007-3.362.006-5.043 0-2.666-.009-5.331.001-7.997.017-7.577.04-15.154.041-22.731.039-4.643 0-9.286.019-13.929.05-2.617.01-5.233-.002-7.85-.015l-4.853.03-2.18-.029c-5.364.075-9.59 1.539-14.069 4.528-3.14 4.66-2.419 11.126-2.566 16.582l-.09 2.363-.057 2.141C111 380 111 380 109 383c-5.108 1.935-9.88 2.26-15.277 2.16l-2.334-.016c-2.443-.017-4.884-.048-7.326-.082-2.439-.027-4.877-.052-7.316-.07-1.51-.013-3.021-.03-4.531-.054-4.834-.045-9.426.414-14.216 1.062-6.565-.229-11.477-2.132-16.116-6.825-6.565-7.58-7.581-15.055-7.197-24.8l.069-3.332c.058-2.682.14-5.362.244-8.043 1.646-.027 3.292-.046 4.938-.063l2.777-.035C45 343 45 343 46 344c.073 2.186.084 4.375.063 6.563l-.028 3.628L46 357h6l-.035-2.809-.028-3.628-.035-3.622C52 344 52 344 53 343c3.336-.143 6.66-.042 10 0v13h11v-13c8.496-.098 8.496-.098 11 0 1 1 1 1 1.098 3.723l-.035 3.34-.028 3.347L86 356l10-2c.914-2.743 1.145-4.507 1.21-7.344l.087-2.527c.052-1.752.096-3.505.133-5.258l.093-2.527.06-2.307c.52-2.543 1.392-3.457 3.417-5.037 2.725-.39 5.231-.136 8 0l-.035-3.246-.028-4.192-.025-2.142c-.009-1.807.036-3.614.088-5.42 1.589-1.589 3.247-1.208 5.438-1.25l2.433-.078L119 313c2.421 3.632 2.21 5.383 2.125 9.688l-.055 3.574L121 329c3.25-1.088 3.25-1.088 6-3 .089-2.594.115-5.16.098-7.754l-.005-2.35c-.005-2.486-.018-4.972-.03-7.459-.006-1.681-.01-3.363-.014-5.044-.011-4.131-.028-8.262-.049-12.393h2l1-4h58c2.8 5.6 2.556 11.129 2.743 17.272.07 2.156.165 4.31.263 6.464.048 1.379.094 2.757.139 4.135l.136 3.78c-.31 3.698-.977 5.465-3.281 8.349-3.374 2.482-6.724 2.258-10.813 2.266l-1.971.005c-1.372.002-2.744-.002-4.115-.01-2.094-.011-4.187 0-6.28.012a7303901853.98 7303901853.98 0 0 1-7.676-.015c-2.995-.246-4.68-.589-7.145-2.258-1.83-3.658-1.228-7.973-1.25-12l-.063-2.813-.015-2.687-.028-2.469L149 305c3.112-2.075 3.84-2.255 7.379-2.266l2.54-.007 2.643.023 2.655-.023 2.537.007 2.322.007C171 303 171 303 173 305c.377 2.336.505 4.643.656 7.004L174 314l2 1c.108-1.915.186-3.833.25-5.75l.14-3.234c-.49-3.785-1.428-4.682-4.39-7.016-2.745-.58-2.745-.58-5.754-.46l-3.338.01-3.47.075-3.483.004c-6.342-.142-6.342-.142-11.955 2.371-.676 4.42-.463 8.91-.438 13.375l-.06 3.773.002 3.625-.006 3.326c.62 3.585 1.625 4.731 4.502 6.901 5.298 2.172 11.924 1.186 17.59 1.185 2.205.002 4.41.02 6.615.04 1.417.003 2.835.005 4.252.005l3.874.013c3.844-.255 7.046-.948 10.669-2.243 6.448-7.678 5.187-21.364 5.25-30.938l.028-2.652c-.026-5.45-.515-10.231-2.278-15.41-2.994-1.611-2.994-1.611-6-2v-1l3.105-.076c3.79-.094 7.578-.194 11.366-.296 1.643-.044 3.285-.085 4.927-.125 2.356-.058 4.711-.122 7.067-.187l2.238-.05c3.44.199 3.44.199 6.297-1.266.124-2.024.178-4.053.205-6.08l.06-3.944c.018-1.43.035-2.861.051-4.292l.063-4.368c.056-3.839.105-7.677.153-11.516.05-3.915.106-7.829.161-11.743.108-7.686.21-15.371.307-23.057Z" fill="#C07B7C"/><path d="m87.563 39.625 2.42-.074C95.78 39.522 100.164 40.736 105 44c4.473 4.817 5.12 7.478 5 14l-2.032.044c-3.052.075-6.104.171-9.156.269l-3.197.068-3.095.107-2.841.08c-3.45.556-6.19 1.942-8.679 4.432a99.984 99.984 0 0 0 0 5c5.679 1.003 11.048 1.042 16.8.844l2.781-.079c2.91-.083 5.821-.173 8.731-.265 2.929-.092 5.857-.182 8.785-.265 1.818-.052 3.635-.108 5.452-.17 6.226-.178 6.226-.178 8.451.935v19l-5.254.297c-12.796.773-25.54 1.746-38.262 3.331-1.928.24-3.857.47-5.787.7-12.733 1.658-28.88 4.546-37.76 14.797-2.688 3.99-4.191 6.616-4.162 11.476l.002 2.785.031 3.035.009 3.215c.006 2.305.017 4.61.03 6.916.02 3.659.023 7.317.019 10.976-.01 10.404-.01 20.807.055 31.211.039 6.366.038 12.73.012 19.096-.002 2.417.01 4.834.037 7.25.151 14.128-.106 24.467-8.97 35.915a1753.566 1753.566 0 0 0-3.3 4.797 386.3 386.3 0 0 1-3.012 3.953l-1.55 2.07c-2.288 3.012-3.944 5.05-7.138 7.18-2.29-48.635-2.29-48.635-2.014-70.176l.041-3.535.055-2.978c-.065-2.631-.276-5.098-.585-7.703-.759-7.194-.571-14.402-.481-21.624l.05-4.632c.036-3.224.077-6.448.121-9.672.055-4.092.092-8.184.124-12.277.028-3.186.069-6.373.113-9.56.02-1.506.034-3.013.043-4.52.102-14.826 1.082-29.809 11.877-41.007 4.91-4.82 10.462-8.578 16.19-12.335a547.442 547.442 0 0 0 5.292-3.534c12.692-8.468 24.34-13.797 39.736-13.822Z" fill="#DFBF65"/><path d="M40 188h1v34h5c1.813 1.063 1.813 1.063 3 3 .563 5.993-.925 9.838-3.5 15.063-2.349 4.793-4.102 8.442-3.5 13.937 1.705 1.705 3.845 1.128 6.119 1.139l2.162-.006 2.208.003c1.544 0 3.087-.001 4.63-.006 2.371-.005 4.741 0 7.111.007 1.497 0 2.993-.002 4.489-.004l2.162.006c3.344.277 3.344.277 6.119-1.139-.37-5.698-2.09-9.846-4.813-14.813l-1.04-2.021c-1.883-3.5-3.244-5.93-7.147-7.166-3.335 4.9-5.672 9.206-7 15 3.29-.751 3.29-.751 5-4.063L64 238h3c.87 1.408 1.72 2.826 2.563 4.25l1.44 2.39C72 247 72 247 71 251H47c0-6.756 0-6.756 1.828-10.566l1.176-2.471 1.246-2.525 1.2-2.538c2.114-4.379 4.092-8.41 7.55-11.9 2.84-.568 2.84-.568 6.078-.488l3.516.049 3.656.126 3.703.069c3.017.059 6.031.141 9.047.244l.184 3.246.254 4.191.119 2.143c-.08 3.507-.08 3.507 1.443 6.42 1.814.115 3.633.16 5.45.177l3.53.039a772517214.13 772517214.13 0 0 0 7.776.047c2.751.015 5.502.025 8.252.032 3.519.011 7.037.046 10.555.085 3.36.033 6.718.037 10.078.046l3.823.053 3.568-.009 3.134.018c3.57-.615 5.24-2.013 7.834-4.488 1.042-1.826 1.042-1.826 1.477-3.785l.593-2.108.555-2.17c2.406-9.078 2.406-9.078 5.375-10.937 6.796-1.499 14.176-1.109 21.125-1.188l2.262-.04c1.873-.002 3.745.105 5.613.228 2 2 2 2 2.243 4.873l-.013 3.63-.005 3.933-.02 2.05c-.017 2.072-.02 4.143-.02 6.215C191.14 243.86 191.14 243.86 190 245c-1.497.098-3 .13-4.5.125l-2.469.008C181 245 181 245 180 244a210.174 210.174 0 0 1-.063-8.063l.014-2.298c.012-1.88.03-3.76.049-5.639h6v-5l-11 1c-.027 3.98-.047 7.958-.063 11.938l-.025 3.443-.01 3.271-.016 3.031c-.148 2.28-.148 2.28 1.114 3.317 2.824.127 5.613.185 8.438.188l2.392.037c2.058.005 4.116-.103 6.17-.225 2.499-2.499 2.256-4.023 2.304-7.435l-.003-2.24.013-2.31c.006-1.615.006-3.23.002-4.845-.003-2.463.02-4.924.045-7.387.003-1.57.003-3.14.002-4.709l.028-2.223c-.05-5.516-1.363-8.672-5.078-12.663L189 204l2.082-.113 2.73-.2 2.708-.175c2.857-.59 3.614-1.347 5.48-3.512l3-2c.101 7.456.171 14.913.22 22.37.02 2.536.047 5.072.082 7.609.048 3.646.071 7.292.089 10.939l.062 3.435c.002 7.855.002 7.855-2.29 11.84-5.22 4.362-12.59 3.111-19.038 3.182l-3.879.113c-9.254.087-9.254.087-13.629-2.449-2.186-4.108-2.064-7.482-1.617-12.039l-1.937.184c-2.958.277-5.917.547-8.875.816-1.005.095-2.01.19-3.045.29-6.735.605-13.382.83-20.143.71l.07 2.992.055 3.883.07 3.867C131 259 131 259 129 261c-6.577-.577-6.577-.577-8-2a110.238 110.238 0 0 1-.063-5.563l.028-3.066L121 248c-2.122.952-2.122.952-4 3-.431 2.822-.65 5.3-.688 8.125-.223 7.786-.223 7.786-1.312 8.875a95.634 95.634 0 0 1-5.938.25l-3.277.078L103 268l-2-3-1.703.992C95.545 267.64 92.06 267.12 88 267v12c-2.353 1.177-3.88 1.166-6.5 1.188l-2.406.042C77 280 77 280 75 278c-.195-2.602-.195-2.602-.125-5.625l.055-3.04L75 267H65l.035 2.773.028 3.602.035 3.586C65 280 65 280 64 282c-2.312.027-4.625.046-6.938.063l-3.902.035C50 282 50 282 49 281a153.02 153.02 0 0 1-.063-6.563l.028-3.628L49 268l-3.063.563c-3.916.435-7.08.146-10.937-.563l.035 2.809.028 3.628.035 3.622C35 281 35 281 34 282c-2.31.126-4.624.176-6.938.188l-3.84.042C20 282 20 282 18 280c-.714-3.67-.84-7.397-1.063-11.125l-.294-3.094c-.438-7.482-.438-7.482 1.744-11.046 1.792-2.007 3.685-3.858 5.613-5.735 1.835-2.398 3.478-4.908 5.125-7.438l1.223-1.83c.824-1.25 1.63-2.513 2.418-3.786C34 234 34 234 35.388 232.193c5.391-7.795 4.396-17.165 4.425-26.256.023-1.741.048-3.483.076-5.224.062-4.238.095-8.475.111-12.713Z" fill="#BF7C7C"/><path d="M121 26a2365.344 2365.344 0 0 1 18.951 3.57c2.148.41 4.296.812 6.446 1.208 3.094.57 6.182 1.165 9.271 1.765l2.905.518c5.62 1.122 8.712 2.299 12.427 6.939l2.691 2.875c.958 1.04 1.915 2.082 2.871 3.125l3.2 3.477 1.634 1.778c2.49 2.71 4.984 5.415 7.479 8.12l1.476 1.6c3.927 4.255 7.88 8.485 11.837 12.712 3.788 4.05 7.556 8.113 11.25 12.25 4.55 5.094 9.232 10.062 13.911 15.037 4.655 4.953 9.259 9.948 13.842 14.967 3.245 3.544 6.527 7.05 9.809 10.559a2023.84 2023.84 0 0 1 15.3 16.55c7.4 8.085 14.85 16.123 22.325 24.137l1.831 1.965 1.708 1.828 1.514 1.622A170.249 170.249 0 0 0 297 176c-.231 4.374-1.855 6.284-5 9.188-2.899 2.608-2.899 2.608-5 5.812-4.44-.495-6.375-1.887-9.48-5.042l-2.59-2.6-2.762-2.835-2.88-2.904c-2.53-2.55-5.047-5.112-7.562-7.676-4.01-4.086-8.039-8.153-12.066-12.222a1720.104 1720.104 0 0 1-4.173-4.245c-4.33-4.396-8.716-8.602-13.4-12.617-3.96-3.526-7.659-7.323-11.39-11.088a2376.025 2376.025 0 0 0-4.516-4.539c-3.188-3.2-6.372-6.403-9.556-9.607a10097.48 10097.48 0 0 0-11.146-11.202c-1.484-1.49-2.964-2.983-4.444-4.476l-2.712-2.722-2.39-2.406c-1.809-1.877-1.809-1.877-3.933-2.819v-2h-2v-2l-2.375-.75C175 86 175 86 174.128 84.228c-1.484-2.932-3.476-4.815-5.805-7.133l-1.435-1.435c-1.56-1.56-3.129-3.112-4.697-4.664a4776.402 4776.402 0 0 0-11.868-11.81c-2.917-2.897-5.828-5.798-8.739-8.7a13087.16 13087.16 0 0 0-15.376-15.292L124 33l-1.8-1.548C121 30 121 30 121 26Z" fill="#585353"/><path d="M282 253h2a3728.904 3728.904 0 0 1 1.232 84.568c.01 3.205.028 6.41.051 9.614.028 3.816.04 7.63.041 11.446.003 1.416.01 2.832.024 4.247.017 1.95.013 3.9.008 5.85l.011 3.321c-.417 3.359-1.395 5.23-3.367 7.954-3.498 2.635-7.656 2.404-11.875 2.563-5.494.223-5.494.223-10.938.96-3.459.518-6.624.495-10.117.356l-3.906-.147-4.039-.17-4.11-.158c-3.338-.129-6.677-.264-10.015-.404 2.716 2.874 2.716 2.874 6 5v2c-3.188.813-3.188.813-7 1-4.989-3.402-6.897-8.233-8-14 .313-3.563.313-3.563 1-6-5.317.974-5.317.974-8.938 4.75-1.121 3.43-1.605 5.68-1.062 9.25 2.307 3.049 4.202 4.457 8 5v3c-3.456 1.728-7.214 1.357-11 1-4.225-1.565-6.772-3.074-9-7-.213-2.673-.285-5.093-.188-7.75l.042-2.113c.035-1.713.089-3.425.146-5.137-5.065.448-5.065.448-9.375 2.875-2.359 3.084-2.75 5.546-2.688 9.313L185 388l6 3-1 5c-4.426.641-8.35 1.15-12.152-1.5-6.95-7.523-7.267-15.36-7.098-25.207.323-4.256.902-6.73 3.25-10.293 4.039-2.144 8.01-2.371 12.492-2.527l4.533-.207 2.397-.1c12.65-.536 25.293-1.226 37.903-2.364 1.94-.173 3.883-.33 5.825-.485 10.223-.97 16.429-3.723 24.1-10.38C270.465 335 270.465 335 273 335l-1.652-2.02L255 313c1.32-2.984 2.662-4.848 5.152-6.945l1.854-1.575 1.932-1.605 1.92-1.629c2.656-2.24 5.245-4.315 8.142-6.246-1.863-5.391-5.15-9.513-8.516-14.063C264 278 264 278 264.434 275.524c2.006-3.232 4.362-6.06 6.878-8.898 3.088-3.547 6.105-7.04 8.75-10.938L282 253Z" fill="#BF7B7C"/><path d="m91 100 .184 2.117.254 2.758c.08.905.162 1.81.246 2.742.186 2.394.186 2.394 1.316 4.383l1.712.06c2.555.095 5.109.205 7.663.315.89.03 1.779.062 2.695.094l2.578.117 2.38.095C112 113 112 113 114 115c.226 2.856.324 5.583.313 8.438l.048 2.353c.005 5.705.005 5.705-1.606 7.923-2.19 1.605-3.506 1.707-6.204 1.798l-2.569.107-2.67.069-2.705.103c-2.202.082-4.404.152-6.607.209-1.163 2.327-1.113 3.642-1.094 6.231l.008 2.651.016 2.876c-.009 2.008-.02 4.015-.032 6.023-.016 3.167-.023 6.332.002 9.5.021 3.055-.002 6.108-.033 9.164l.053 2.839c-.115 6.301-1.613 9.492-6.047 13.977L83 191l-2.01 1.945a1003.176 1003.176 0 0 1-3.842 3.692c-1.725 1.898-3.037 3.627-4.421 5.758-6.062 9.17-6.062 9.17-11.184 10.507-3.357.034-6.281-.11-9.543-.902-2.801-2.801-2.353-5.473-2.414-9.23l-.06-2.299c-.062-2.553-.107-5.105-.151-7.659l-.052-2.662c-.114-5.93-.2-11.861-.277-17.792-.048-3.536-.106-7.072-.165-10.608-.1-6.264-.17-12.526-.221-18.79-.023-2.47-.055-4.941-.095-7.412a906.58 906.58 0 0 1-.088-10.47l-.069-3.173c.014-4.726.04-7.13 2.841-11.058 2.773-1.862 4.012-2.48 7.29-2.476l2.508-.006 2.578.073 2.602-.034c6.254.074 6.254.074 8.508 2.341 1.408 2.51 1.683 4.038 1.777 6.896l.108 2.723.067 2.886.097 2.958c.09 2.93.156 5.86.216 8.792l.066 2.546c.32 12.874.32 12.874-2.066 16.454-2.531.363-2.531.363-5.5.313l-2.969-.012C64 154 64 154 62 152c-.227-3.073-.227-3.073-.195-6.977l.008-2.076c.011-2.19.037-4.381.062-6.572.01-1.484.02-2.969.027-4.453.022-3.64.057-7.281.098-10.922h4c1 1 1 1 1.114 3.5l-.016 3.285-.01 3.545-.025 3.732-.014 3.745c-.012 3.064-.028 6.129-.049 9.193h5l-1-31H56c-.102 10.03-.056 20.04.375 30.063.03.862.062 1.724.094 2.612.034 4.642.034 4.642 2.531 8.325 2.23.277 2.23.277 4.79.195l2.85-.02 2.985-.05 3.008-.027c2.456-.024 4.911-.057 7.367-.098.937-2.81 1.12-4.473 1.101-7.376l-.012-2.671c-.048-4.025-.098-8.05-.166-12.076a631.48 631.48 0 0 1-.064-6.363 717.384 717.384 0 0 0-.117-9.19l.003-2.86c-.16-6.23-1.22-9.12-5.745-13.464 5.225-4.4 9.307-4.476 16-4Z" fill="#DDBD65"/><path d="M211 3c6.09 3.006 6.09 3.006 8.823 4.407 4.137 2.116 8.286 4.087 12.564 5.905 13.178 5.85 19.31 11.841 24.638 25.243.974 2.442 2.028 4.832 3.116 7.226A401.807 401.807 0 0 1 265 57c-6.01-.594-11.228-2.347-16.875-4.438C235.897 48.035 235.897 48.035 223 47c-4.275 9.442-7.215 19.041-10 29-.664 2.334-1.332 4.667-2 7-5.107-4.231-9.697-8.688-14.188-13.563l-1.965-2.115c-1.953-2.104-3.9-4.213-5.847-6.322-1.625-1.752-3.25-3.503-4.877-5.254a838.297 838.297 0 0 1-4.385-4.793 135.513 135.513 0 0 0-5.445-5.594C168.286 39.343 167 35.39 167 27l-.496-1.867c-.741-3.136-.596-6.168-.566-9.383l.027-3.828L166 9c3.334.583 6.239 1.397 9.331 2.766l2.487 1.092 2.639 1.177 2.736 1.207c2.875 1.269 5.747 2.544 8.62 3.82 1.952.864 3.904 1.726 5.857 2.588A7417.05 7417.05 0 0 1 212 28l-.45-3.073a9187.55 9187.55 0 0 1-.573-4.056l-.299-2.017c-.759-5.456-.62-10.446.322-15.854Z" fill="#DEBE65"/><path d="M145.766 175.54c1.982-.027 3.965-.067 5.947-.123 2.862-.08 5.721-.112 8.584-.136l2.671-.1c3.554.012 6.026.024 8.877 2.278A45.424 45.424 0 0 1 176 183l1.507 2.276a525.553 525.553 0 0 1 3.368 6.349l1.219 2.234 1.148 2.18 1.027 1.944c.88 2.43.856 4.452.731 7.017l-2.675.028c-3.29.044-6.578.106-9.868.18-1.42.028-2.841.049-4.262.063a421.15 421.15 0 0 0-6.144.12l-3.73.063c-3.904.642-5.545 1.774-8.321 4.546-2.426 4.582-3.553 8.995-4.473 14.082C145 226 145 226 143 228c-2.838.253-5.536.37-8.375.375l-2.328.074c-3.457.018-5.685-.094-8.711-1.847C122 224 122 224 120 214l-67-1v-1l2.379.098c6.389.02 6.389.02 11.8-2.957 1.747-2.313 3.27-4.694 4.821-7.141 2.833-4.207 2.833-4.207 5-6 2.916-.478 4.986-.594 7.863-.418 1.543.025 3.085.05 4.627.072 2.41.07 4.819.158 7.228.273 9.665.686 9.665.686 18.052-3.284 2.024-2.796 3.63-5.59 5.23-8.643 7.366-9.605 14.428-8.344 25.766-8.46Z" fill="#AE544F"/><path d="M291 2c3.872 1.785 5.983 3.967 8.813 7.188C306.567 16.764 313.776 23.873 321 31c1.945-2.918 2.453-4.625 3-8h2l.332-1.758c.982-4.84 2.216-8.896 4.668-13.242 3.604 1.523 5.89 3.658 8.625 6.43l2.64 2.66L345 19.875l2.734 2.762c1.682 1.7 3.362 3.4 5.04 5.105 2.14 2.275 2.14 2.275 4.49 3.994 2.694 3.514 2.233 6.882 2.127 11.186l-.018 2.606a788.81 788.81 0 0 1-.123 8.222c-.02 1.86-.038 3.721-.055 5.582-.044 4.557-.113 9.112-.195 13.668a210.972 210.972 0 0 1-14.875-11.938c-8.836-8.466-8.836-8.466-19.516-13.539-3.767.688-6.034 2.864-8.796 5.352l-1.709 1.488c-4.614 4.066-8.942 8.378-13.178 12.836C299 69 299 69 297 69a3634.758 3634.758 0 0 1-6.409-17.133c-.723-1.942-1.45-3.883-2.182-5.822a1429.23 1429.23 0 0 1-3.128-8.393l-.994-2.608c-2.082-5.688-3.407-10.602-1.46-16.583.376-.76.753-1.518 1.142-2.3l1.23-2.53 1.301-2.569c.43-.874.859-1.749 1.3-2.65A634.53 634.53 0 0 1 291 2Z" fill="#DEBE65"/><path d="M235 62c8.025 2.135 15.665 5.106 23.297 8.341 1.348.566 2.7 1.122 4.058 1.666 1.993.8 3.97 1.633 5.946 2.473l3.536 1.466c4.169 2.707 5.884 5.722 8.163 10.054l1.158 2.163a367.409 367.409 0 0 1 3.487 6.86l1.256 2.508c.867 1.731 1.731 3.464 2.594 5.198 1.326 2.662 2.66 5.32 3.995 7.978l2.53 5.066 1.211 2.412C299 123.77 299 123.77 299 126c-6.227-1.934-12.128-4.569-18.1-7.166l-2.466-1.057-2.217-.96c-2.386-.88-4.716-1.38-7.217-1.817l-.516 1.766c-2.009 6.797-4.211 13.52-6.484 20.234-3.69-1.544-6.024-3.788-8.813-6.625l-2.457-2.477a202.661 202.661 0 0 1-6.027-6.703 155.545 155.545 0 0 0-7.887-8.414l-2.119-2.136a324.147 324.147 0 0 0-4.351-4.29c-3.402-3.474-5.19-5.365-5.96-10.265.21-1.987.21-1.987.614-4.09l.434-2.357c.533-2.55 1.16-5.06 1.816-7.58l.621-2.553C231.406 65.594 231.406 65.594 235 62ZM326 64c8.906 4.124 16.533 11.742 24 18l2.103 1.174c3.168 2.045 5.469 3.872 6.31 7.705.598 5.679.314 11.365.087 17.058-.04 1.751-.077 3.502-.11 5.252A708.91 708.91 0 0 1 358 126h-2c-1.48-1.504-1.48-1.504-3.188-3.563-7.428-8.881-7.428-8.881-16.812-15.437-4.194 1.12-6.542 3.214-9.5 6.313l-2.34 2.421L322 118a559.276 559.276 0 0 1-3.063 3.063L317 123a744.276 744.276 0 0 1-8.813-22.813l-1.271-3.35-1.186-3.232-1.08-2.901c-.725-3.014-.575-4.765.35-7.704 1.785-2.21 1.785-2.21 4.063-4.375l2.453-2.344C316.2 71.98 320.877 67.777 326 64Z" fill="#DFBE65"/><path d="M403 19c2.364 2.88 3.68 5.446 4.824 8.984l.928 2.832.935 2.934.971 2.98c.788 2.422 1.568 4.845 2.342 7.27 4.227-4.152 8.128-8.517 12.012-12.988L427 29h2c1.784 3.747 3.491 7.525 5.188 11.313l1.521 3.189c2.91 6.614 3.872 10.794 1.423 17.665L436 64c-.756 2.18-1.51 4.361-2.262 6.543-.804 2.216-1.613 4.431-2.425 6.644l-1.26 3.463A3181.247 3181.247 0 0 1 427 89c-1.666-2.5-2.788-4.651-3.953-7.387l-1.129-2.595a844.543 844.543 0 0 1-2.29-5.352C417.072 67.821 414.064 62.921 410 58c-6.401.41-10.781 2.773-16.25 6-1.587.919-3.176 1.835-4.766 2.75l-2.102 1.234C385 69 385 69 382 70l.367-3.594.239-2.348c.181-1.725.373-3.45.575-5.173.471-4.073.873-8.043.8-12.147.182-8.751 2.04-12.487 8.236-18.544A209.954 209.954 0 0 1 403 19Z" fill="#DEBE65"/><path d="M404 75c3.528 3.826 5.746 8.054 8 12.688l1.048 2.15a748.37 748.37 0 0 1 2.033 4.238c.78 1.634 1.586 3.257 2.396 4.877l1.148 2.484.977 2.06c1.15 7.23-2.734 15.285-5.102 22.003l-.934 2.742-.91 2.602-.818 2.35C411 135 411 135 409 136l-.946-1.896a1447.488 1447.488 0 0 0-4.304-8.479l-1.488-2.984-1.465-2.852-1.333-2.634c-1.643-2.419-2.678-3.303-5.464-4.155a52.376 52.376 0 0 0-7 3.25l-1.867.988c-1.717.91-3.425 1.836-5.133 2.762-1.331.67-2.664 1.339-4 2-.151-6.73.388-13.096 1.375-19.75l.383-2.785c1.59-10.995 1.59-10.995 5.597-14.563 2.869-1.99 5.735-3.974 8.645-5.902l2.105-1.402c3.33-2.066 5.985-3.55 9.895-2.598Z" fill="#DEBE65"/><path d="M245 399c-.595 5.67-2.063 10.61-4.063 15.938l-.94 2.507C234.328 432.235 227.91 446.143 215 456c-.7-1.853-1.396-3.708-2.082-5.566a148.152 148.152 0 0 0-1.867-4.711c-3.426-8.572-5.017-17.52-6.658-26.57a233.348 233.348 0 0 0-1.006-5.133c-.556-4.341-.465-8.65-.387-13.02 4.374-.289 8.748-.574 13.123-.854 1.483-.096 2.967-.193 4.45-.292 8.151-.538 16.253-.983 24.427-.854Z" fill="#24201E"/><path d="M224.828 45.98c7.435.636 14.12 2.649 21.172 5.02 2.004.673 4.008 1.347 6.013 2.019 1.894.637 3.784 1.283 5.674 1.93 3.146 1.112 3.146 1.112 5.866 1.355C266 57 266 57 267.393 58.826l1.064 2.358 1.182 2.56 1.173 2.694 1.233 2.681C275 75.64 275 75.64 275 78c-7.616-2.368-14.817-5.443-22.096-8.684A129.716 129.716 0 0 0 235 63c-3.023 6.246-5.091 12.38-6.688 19.125l-.642 2.59C226.514 89.463 225.598 94.15 225 99l-15-15c10.162-37.97 10.162-37.97 14.828-38.02Z" fill="#B0554F"/><path d="M278 131c6.623.507 12.098 2.87 18.125 5.563l2.957 1.228c6.587 2.934 9.879 5.685 12.918 12.209l1.104 2.184a234.91 234.91 0 0 1 3.146 6.629l1.063 2.271c1.374 2.958 2.654 5.817 3.687 8.916l-2.71.48c-7.846 1.514-14.347 3.594-21.29 7.52l-1.257-1.46c-5.025-5.796-10.26-11.364-15.577-16.892l-1.936-2.039-1.737-1.813c-2.268-2.728-3.551-4.723-3.356-8.312 1.16-5.76 2.609-11.054 4.863-16.484Z" fill="#DEBE65"/><path d="M215 356c.136 2.398.234 4.788.313 7.188l.126 2.04c.098 3.98-.179 5.485-2.892 8.475L210 376c-1.103 3.014-1.31 5.808-1 9 1.873 2.774 3.101 3.7 6.25 4.75l1.75.25v3c-3.456 1.728-7.214 1.357-11 1-4.225-1.565-6.772-3.074-9-7-.213-2.673-.285-5.093-.188-7.75l.042-2.113c.035-1.713.089-3.425.146-5.137-5.065.448-5.065.448-9.375 2.875-2.359 3.084-2.75 5.546-2.688 9.313L185 388l6 3-1 5c-4.426.641-8.35 1.15-12.152-1.5-6.95-7.523-7.267-15.36-7.098-25.207.323-4.256.902-6.73 3.25-10.293 4.739-2.737 10.114-2.452 15.438-2.625l2.953-.115A436.578 436.578 0 0 1 215 356Z" fill="#5A5353"/><path d="M335.418 123.063c3.198 1.16 5.281 2.758 7.894 4.937l2.676 2.188c1.009.932 2.012 1.87 3.012 2.812l2.12 1.826c4.606 4.405 6.4 7.52 6.661 13.96a217.055 217.055 0 0 1-.281 7.276l-.11 3.78A466.977 466.977 0 0 1 357 169l-24 1-1.645-4.969-2.168-6.531-1.08-3.266-1.064-3.203-1.042-3.136c-.87-2.514-1.822-4.964-2.825-7.426-1.184-3.494-1.295-4.195-.176-7.469 1.27-2.035 1.27-2.035 2.813-4.063l1.519-2.035c4.329-4.937 4.329-4.937 8.086-4.84Z" fill="#DFBF65"/><path d="M280 399c-.569 5.959-2.304 10.977-4.563 16.5l-1.07 2.645C269.248 430.523 263.548 441.45 254 451l-2 3h-2c-5.393-9.674-8.596-18.93-6-30a112.221 112.221 0 0 1 5.197-13.215c.73-1.622 1.346-3.295 1.948-4.969 5.08-10.819 18.742-7.618 28.855-6.816Z" fill="#25211E"/><path d="M327 47c2.656 1.582 2.656 1.582 5.5 3.813l1.551 1.206c5.091 3.998 10.032 8.185 14.941 12.403 2.716 2.435 2.716 2.435 4.71 3.708 2.352 1.628 4.093 3.006 4.77 5.856.118 2.305.054 4.523-.097 6.826l-.082 2.39c-.07 1.933-.178 3.866-.293 5.798-5.226-3.763-10.134-7.79-15-12a3684.118 3684.118 0 0 0-5.398-4.626 738.145 738.145 0 0 1-4.106-3.554c-3.577-3.113-3.577-3.113-8.058-3.632-2.79 2.074-5.138 4.358-7.536 6.87-2.565 2.62-5.322 4.981-8.105 7.364-2.727 2.395-4.77 4.536-6.797 7.578l-6-18 1.469-1.25c3.632-3.13 7.128-6.309 10.469-9.75C320.858 45.984 320.858 45.984 327 47Z" fill="#B0554F"/><path d="M390 126c4.782 4.16 7.207 8.738 9.875 14.438l1.258 2.525c2.238 4.718 3.63 7.869 1.867 13.037-1.488 3.395-1.488 3.395-3.313 6.813l-1.8 3.457C396 169 396 169 394.207 169.678c-2.534.37-4.852.335-7.41.2-.98-.047-1.96-.096-2.969-.146l-3.078-.17-3.125-.158c-2.542-.13-5.084-.264-7.625-.404.2-2.987.428-5.967.695-8.95.246-2.863.334-5.695.36-8.57.374-12.397.374-12.397 4.828-16.78 4.305-3.564 9.069-6.313 14.117-8.7Z" fill="#DEBE65"/><path d="M411 58c5.061 5.507 7.917 12.363 11.063 19.064.794 1.64 1.666 3.24 2.554 4.83 2.766 5.593 2.405 9.157.5 14.925-1.262 3.447-2.65 6.815-4.117 10.181-3.035-2.53-3.925-5.117-5.188-8.813C413.147 90.939 409.55 81.55 404 76c-5.325-.952-8.891 2.076-13.125 4.875l-2.168 1.395A683.422 683.422 0 0 0 380 88c.142-2.063.289-4.125.438-6.188.08-1.148.162-2.297.246-3.48L381 75l.233-2.516c1.027-3.325 2.339-3.906 5.353-5.562l2.82-1.578 2.969-1.594 2.945-1.64c10.586-5.85 10.586-5.85 15.68-4.11Z" fill="#B0564F"/><path d="M269 115c10.67.776 25.16 4.926 32.741 12.811 2.87 4.143 5.259 9.07 5.259 14.189-6.55-1.954-12.562-4.567-18.682-7.574-3.424-1.657-6.542-2.893-10.318-3.426-2.17 8.016-2.17 8.016-3.563 16.188L274 150l-2 1c-4.065-4.615-8.086-9.256-12-14h2l.75-3.813c1.375-6.233 3.39-12.467 6.25-18.187Z" fill="#B0554F"/><path d="M334 106c6.269 2.108 10.289 6.523 15 11l2.203 2.078c3.564 3.448 3.564 3.448 4.797 4.922v2h2v31h-1l.098-2.93c-.063-7.057-.146-12.007-5.036-17.507A133.332 133.332 0 0 0 347 132l-2.61-2.422c-4.57-4.374-4.57-4.374-10.495-5.492-3.106.98-4.103 1.669-6.02 4.227-2.13 2.774-4.364 5.246-6.875 7.687-2.347-4.32-3.85-8.052-4-13 3.492-7.03 10.951-12.285 17-17Z" fill="#AE564F"/><path d="M420 408c-.212 6.687-1.593 12.366-3.813 18.625l-.752 2.133c-3.794 10.358-3.794 10.358-6.435 14.242-3 1-3 1-6.617-.547a343.039 343.039 0 0 1-4.258-2.203l-2.145-1.094c-3.744-1.924-7.4-3.937-10.98-6.156 1.376-3.234 2.802-4.903 5.64-6.953l2.227-1.617 2.383-1.68 2.427-1.733C416.163 408 416.163 408 420 408Z" fill="#262220"/><path d="M396.047 112.629c2.389 1.677 3.391 3.272 4.828 5.808l1.535 2.684L404 124l1.684 3.035c3.713 6.76 3.713 6.76 5.316 9.965a147.185 147.185 0 0 1-2.938 8.125l-.88 2.285c-.72 1.866-1.45 3.728-2.182 5.59-1.636-2.453-2.82-4.644-4.023-7.309l-1.157-2.513a994.898 994.898 0 0 1-2.367-5.219c-1.999-4.324-3.686-7.872-7.453-10.959l-2.23 1.426-2.957 1.887-2.918 1.863A352.315 352.315 0 0 1 374 137c-.432-10.791-.432-10.791 2-15 3.151-2.364 6.516-4.176 10-6l2.297-1.336c5.091-2.852 5.091-2.852 7.75-2.035Z" fill="#AF564F"/><path d="M188 357c.533 1.913 1.05 3.83 1.563 5.75l.878 3.234c.536 2.892.661 4.335-.441 7.016a181.008 181.008 0 0 1-4 4c-.917 2.75-1.109 4.36-1.063 7.188L185 388l6 3-1 5c-4.426.641-8.35 1.15-12.152-1.5-6.95-7.523-7.267-15.36-7.098-25.207.323-4.256.902-6.73 3.25-10.293 4.16-2.814 9.156-2.19 14-2Z" fill="#585353"/><path d="m18 266 17 1c.098 10.84.098 10.84 0 14-1.933 1.933-5.375 1.174-7.938 1.188l-3.84.042C20 282 20 282 18 280c-.28-4.676-.085-9.312 0-14Z" fill="#DEBD66"/><path d="M49 267h16c.125 12.75.125 12.75-1 15-2.312.027-4.625.046-6.938.063l-3.902.035C50 282 50 282 49 281c-.144-4.668-.042-9.329 0-14Z" fill="#DFBE66"/><path d="m223.531 367.734 2.969.016 2.969-.016C232 368 232 368 234 370c.25 2.5.25 2.5 0 5-2.36 2.36-3.779 2.491-7 3 .104 3.4.104 3.4 1 7 2.461 1.844 2.461 1.844 5 3v2c-3.188.813-3.188.813-7 1-5-3.41-6.903-8.221-8-14 .416-8.729.416-8.729 5.531-9.266Z" fill="#5A5453"/><path d="m114.438 312.75 2.433-.078L119 313c2.421 3.632 2.21 5.383 2.125 9.688l-.055 3.574L121 329h-12c-.027-2.48-.047-4.958-.063-7.438l-.025-2.142c-.009-1.807.036-3.614.088-5.42 1.589-1.589 3.247-1.208 5.438-1.25Z" fill="#DFBF66"/><path d="M35 343c7.715-.098 7.715-.098 10 0 1 1 1 1 1.098 3.941l-.035 3.622-.028 3.628L46 357l-1.898.621-2.477.817-2.46.808c-2.175.706-2.175.706-4.165 1.754v-18Z" fill="#DFBF65"/><path d="M88 267v12c-2.353 1.177-3.88 1.166-6.5 1.188l-2.406.042C77 280 77 280 75 278c-.195-2.602-.195-2.602-.125-5.625l.055-3.04L75 267c1.79-.195 3.583-.38 5.375-.563l3.023-.316C86 266 86 266 88 267Z" fill="#DDBD65"/><path d="M104.563 217c3.437 1 3.437 1 5.374 2.75 1.297 2.745 1.588 4.25 1.063 7.25-1.625 2.313-1.625 2.313-4 4-3.672.612-5.288.487-8.375-1.625-2.112-3.087-2.237-4.703-1.625-8.375 2.286-3.566 3.29-4 7.563-4Z" fill="#DABB65"/><path d="M74 343c8.496-.098 8.496-.098 11 0 1 1 1 1 1.098 3.723-.05 4.638-.05 4.638-.098 9.277H74v-13ZM131 244c.054 2.459.094 4.916.125 7.375.017.699.034 1.397.05 2.117.018 1.837-.072 3.674-.175 5.508l-2 2c-6.577-.577-6.577-.577-8-2-.152-2.142-.222-4.29-.25-6.438l-.078-3.558L121 246c3.644-2.43 5.712-2.162 10-2Z" fill="#DEBE65"/><path d="M55.285 342.902 63 343v14H52c-.027-2.146-.046-4.292-.063-6.438l-.035-3.62c.13-3.9.13-3.9 3.383-4.04Z" fill="#DFBF65"/><path d="M116 251c.027 2.646.047 5.292.063 7.938l.025 2.287A182.68 182.68 0 0 1 116 267c-1 1-1 1-3.723 1.098l-3.34-.036-3.347-.027L103 268c-.691-2.281-.691-2.281-1-5 1.223-1.844 1.223-1.844 3.063-3.5l1.949-1.785L109 256l1.77-1.559C114.776 251 114.776 251 116 251Z" fill="#DEBE66"/><path d="M188 357h12l-.938 2.438c-1.248 4.184-1.696 8.225-2.062 12.562l-6 1c-.506-1.915-1.004-3.832-1.5-5.75l-.844-3.234C188 361 188 361 188 357Z" fill="#BC7A7B"/></svg>