<svg xmlns="http://www.w3.org/2000/svg" width="470" height="478"><path d="M204.355 122.648c3.083 1.576 4.734 3.338 6.958 5.977l2.113 2.477L215 133l2.246-.875c14.853-5.236 30.471-4.555 45.066 1.563L265 135l2.012-2.117 2.675-2.758 2.637-2.742c3.524-3.138 6.019-4.417 10.738-4.32 3.857 1.23 4.796 2.51 6.938 5.937 4 7.986 4 7.986 4 11l2.96-.117c19.567.049 40.805 11.679 56.04 23.117l2.695 1.992c16.09 12.343 25.727 29.924 28.406 50.018 1.323 11.728 2.252 24.178-3.101 34.99-3.598 4.279-7.363 7.349-12.984 8.355-3.892.271-5.743-.143-8.829-2.543-4.442-5.71-5.735-9.657-6.187-16.812l-4 2 .488 3.191c.463 3.667.588 7.266.617 10.961l.045 3.354c.025 2.284.03 4.568.016 6.851.155 8.059 1.926 12.375 6.834 18.643 12.836 21.831 13.137 48.326 7.438 72.375-5.335 18.524-15.274 34.368-28.352 48.387-1.95 2.093-3.802 4.241-5.649 6.425-2.792 3.199-5.769 5.957-9.003 8.7-3.855 3.347-7.558 6.855-11.282 10.345-3.146 2.94-6.327 5.78-9.652 8.518-4.997 4.35-9.03 9.222-10.063 15.875.869 5.209 1.848 9.139 6.25 12.313.764.35 1.527.7 2.313 1.062l-1 4c-7.227 1.388-12.316 1.303-18.773-2.418-5.185-3.684-8.985-8.386-10.942-14.492-1.398-10.25 8.801-20.87 14.395-28.52 16.745-22.91 34.139-50.814 30.049-80.54-1.26-9.369-1.26-9.369-4.729-18.03-7.437 3.194-13.928 10.6-17 18 .322 5.25 2.391 9.038 4.938 13.5 6.892 12.207 6.892 12.207 5.8 19.023-2.457 8.242-6.8 16.262-12.738 22.477-2.313.875-2.313.875-4 1l-.262 1.836c-1.923 11.47-7.279 19.44-14.738 28.164l-1.684 2.09C263.546 439.868 257.89 444.4 252 449l-1-2a481.958 481.958 0 0 1 2.676-5.906c1.702-3.976 3.161-8.008 4.574-12.094l.819-2.264c1.845-5.434 2.181-10.001 1.931-15.736l-3 1.813c-12.616 6.186-27.681 6.585-40.93 2.222A62.935 62.935 0 0 1 211 412a564.579 564.579 0 0 0-4-2c1.975 12.06 5.155 23.39 10.688 34.34C219 447 219 447 219 449c-3.879-1.616-6.717-4.234-9.75-7.063l-1.608-1.498c-9.774-9.206-18.9-19.583-22.204-32.939-1.141-4.504-2.95-6.153-6.598-8.883-6.069-5.334-10.393-14.913-11.149-22.863.381-4.634 1.909-7.615 4.121-11.629.732-1.415 1.46-2.832 2.184-4.25 1.131-2.191 2.268-4.379 3.414-6.563 1.496-3.392 1.973-5.24.703-8.792-3.518-6.372-8.997-14.148-16.113-16.52a564.54 564.54 0 0 0-1.938 4.625l-1.09 2.602c-6.757 19.27-.402 42.294 8.071 59.946 5.717 11.348 12.834 21.483 20.377 31.67a354.588 354.588 0 0 1 7.268 10.344l1.242 1.78c3.016 4.482 5.155 8.945 5.004 14.44-1.502 6.335-3.633 11.161-8.98 15.1-6.048 3.65-11.34 5.347-18.392 3.68C171 471 171 471 170 469c1-2 1-2 3.438-2.875 2.59-.893 2.59-.893 3.812-2.75 1.615-5.113 2.213-8.824.688-13.938-3.546-6.29-8.208-10.846-13.676-15.492-2.601-2.237-5.115-4.557-7.637-6.882a170.804 170.804 0 0 0-10.875-9.188c-6.212-4.88-10.84-10.739-15.75-16.875l-1.75-1.688C127 398 127 398 127 396h-2c-1.994-2.477-3.547-5.28-5.188-8l-1.488-2.448c-4.505-7.57-8.062-15.383-11.324-23.552l-1.082-2.434c-7.707-21.547-6.276-48.188 3.103-68.811 5.242-10.874 5.242-10.874 8.713-14.634 1.993-3.34 1.488-6.798 1.329-10.558-.205-9.479.113-18.742 3.937-27.563l-3-1c-1.713 6.162-2.56 12.136-3.125 18.5l-.262 2.781c-.21 2.24-.414 4.479-.613 6.719-3.86-.49-6.63-1.013-9.75-3.375l-1.734-1.273c-2.13-1.9-3.408-3.6-3.817-6.454-.045-9.792 1.729-19.47 4.051-28.964 1.455-5.956.937-8.452-1.75-13.934.402-2.7.402-2.7 1-5l2.527.02c5.548-.337 9.192-.644 13.094-4.836 1.564-2.258 2.964-4.602 4.367-6.961 2.525-4.045 5.22-6.4 9.012-9.223l-.5-1.875c-.45-2.818-.668-5.464-.75-8.313l-.078-2.605L132 170c4.39-2.927 7.95-1.81 13-1 2.704.577 5.334 1.26 8 2l.766-1.762c3.764-6.825 10.52-10.52 17.422-13.55 6.122-2.766 8.722-5.74 11.468-11.852 2.827-5.965 14.128-23.272 21.7-21.188ZM225 152l1 3 3.656-.07c1.615-.02 3.23-.037 4.844-.055l2.398-.05c5.382-.045 9.932.67 15.102 2.175l1-3c-9.057-3.636-18.672-5.604-28-2Zm72 14-1 10 2.3.402 3.012.536 2.989.527C307 178 307 178 310 179l2-5a1610.701 1610.701 0 0 0-6.375-4l-1.828-1.156c-3.158-2.14-3.158-2.14-6.797-2.844Zm-126 8-1 2h2l-1-2Zm-31.922 29.215-1.828 1.722-1.86 1.715L134 208l1 4c2.308.226 2.308.226 4.438-2.25 2.032-2.181 3.85-4.317 5.562-6.75-2.598-1.006-3.504-1.313-5.922.215ZM333 203a210.028 210.028 0 0 0-4 5l1.938 1.813C333 212 333 212 334 215c2-.791 2-.791 4-2l1-3c-.935-1.895-.935-1.895-2.375-3.688l-1.398-1.886L334 203h-1Z" fill="#1F2D2B"/><path d="M459 165c13.469 23.089 11.297 54.855 11.438 80.625l.036 3.486c.385 43.034-10.672 84.04-30.197 122.264l-.974 1.914a700.99 700.99 0 0 1-4.87 9.383l-1.785 3.453-1.62 3.07c-1.158 3.16-1.163 4.664-.028 7.805 2.19 1.47 2.19 1.47 4.875 2.438 3.301 1.532 4.929 2.32 7.25 5.187 1.248 4.813 1.112 9.433.875 14.375l-3.25-.5c-10.409-1.634-10.409-1.634-19.75 1.75l-2 2.75c-2 2.375-2 2.375-4 4-2.313.188-2.313.188-5-1-1.896-1.683-3.632-3.445-5.352-5.309-2.438-2.502-4.111-3.63-7.609-4.027l-3.414-.039-3.398-.086c-5.093.728-7.933 3.806-11.04 7.711L377 427c-3.241-.312-4.657-.643-6.95-3.031-.573-.815-1.146-1.63-1.738-2.469-2.19-3.29-2.19-3.29-5.312-5.5a234.668 234.668 0 0 0-7.5-.5c-7.23-.365-7.23-.365-9.5-1.5 1.952-6.31 4.38-12.215 7.188-18.188 16.387-35.766 20.755-66.025 11.845-104.512-4.05-18.04-4.05-18.04-.718-25.077 2.5-3.298 4.92-3.214 8.935-3.786 9.063-1.487 9.063-1.487 16.164-7.05 4.336-6.124 6.094-13.64 6.86-21.028.946-8.134 5.47-12.383 11.726-17.359 5.164-3.463 10.456-6.357 16.188-8.75 10.627-5.181 17.552-19.876 22.812-29.938C454.115 165 454.115 165 459 165ZM11 165c8.21 3.23 12.554 13.842 16.434 21.23 5.366 9.488 12.548 20.865 23.253 24.52 5.624 2.175 9.8 5.306 14.313 9.25l2.047 1.656c5.228 4.58 6.036 8.64 6.953 15.344 1.588 8.445 3.514 17.18 10.969 22.371 5.255 2.599 10.633 3.312 16.43 3.844 2.601.785 2.601.785 4.453 2.664 3.393 9.222.315 19.262-1.727 28.496-8.621 40.706-1.03 71.615 16.014 108.966.5 1.1 1.001 2.198 1.517 3.33l1.37 2.973C124 412 124 412 124 414c-2.977 1.489-6.103 1.333-9.375 1.5-5.922.144-5.922.144-11.625 1.5a77.576 77.576 0 0 0-2 5 104.024 104.024 0 0 1-4 5c-3.078-.34-4.65-.674-6.95-2.813L88.314 422c-3.205-4.042-3.205-4.042-8.07-5.344-8.111-.376-8.111-.376-14.868 3.656A101.13 101.13 0 0 0 62 424c-2.714 2.985-2.714 2.985-5.313 3.125-3.483-1.458-5.07-3.589-7.355-6.531-1.261-1.725-1.261-1.725-3.332-2.594a97.217 97.217 0 0 0-20 1c-.603-12.55-.603-12.55 3-17a71.614 71.614 0 0 1 7.82-3.629c2.363-1.176 2.363-1.176 2.988-3.575.254-3.704-.838-5.624-2.554-8.901l-1.787-3.479c-.634-1.202-1.27-2.403-1.904-3.603a2052.09 2052.09 0 0 1-3.684-7.106l-1.67-3.173C27 366 27 366 27 364l-2-1c-1.05-2.123-1.05-2.123-2.172-4.934l-1.255-3.127-1.323-3.377c-.45-1.141-.9-2.282-1.362-3.458-5.19-13.295-9.632-26.497-13.076-40.354l-.721-2.844c-4.702-19.732-5.6-39.32-5.466-59.531l.013-3.734C-.114 181.511-.114 181.511 11 165Z" fill="#1F2E2B"/><path d="M157.5 13.098C167.704 20.863 176.634 33.363 182 45c-5.954 7.608-5.954 7.608-11.883 8.371-7.966.163-13.368-1.105-20.117-5.371-3.392 6.535-6.38 13.119-9 20l1.828.918c8.92 4.676 8.92 4.676 11.172 9.082.544 4.913.198 9.208-1 14l16 11c5.791-4.075 10.69-8.535 15.605-13.633C191.046 83 191.046 83 194 83c.955 23.99-4.025 46.245-20.238 64.523-14.825 14.601-35.155 18.75-55.27 18.724-6.268-.084-11.76-.517-17.492-3.247l-2.39-1.113c-9.897-5.275-17.429-14.012-24.297-22.7C68.853 132.358 61.975 125.501 53 124c-7.487-.242-13.922 1.35-20.82 4.16C30 129 30 129 28 129c5.259-14.354 19.135-29.445 33-36 6.489-1.909 12.927-.796 19 2 6.915 3.934 13.475 8.457 20 13 2.648-2.578 4.944-4.916 7-8l-1.46-1.172c-.633-.52-1.264-1.041-1.915-1.578l-1.898-1.547C99.826 93.828 98.877 92.523 98 90c.023-2.797.023-2.797.375-5.75l.336-2.984L99 79a340.542 340.542 0 0 0-5.188-3.563l-2.917-2.003c-2.743-1.658-2.743-1.658-5.473-1.274A69.01 69.01 0 0 0 78.438 75c-7.39 3.483-15.148 4.326-23.165 2.316-6.093-2.273-13.217-5.626-16.492-11.504L38 64h-2c-5.03-10.52-8.2-19.35-9-31 4.223 1.783 6.3 4.525 9.121 8.027 3.952 4.15 7.508 5.467 13.191 5.66 14.723-.442 25.644-9.903 36.746-18.602 20.911-16.323 45.977-31.26 71.442-14.987ZM124 49c.458 6.55 1.21 12.675 3 19h2c.651-2.353 1.296-4.707 1.938-7.063l.552-1.99c1.167-4.306 1.963-8.519 2.51-12.947-3.867 0-6.509 1.42-10 3Zm-22 13 7 9 5-1-.621-1.863L110 58c-3.908 0-5.116 1.506-8 4Zm36 40c1.439 8.638 1.439 8.638 4 17 5.414-.467 9.205-1.243 14-4-4.655-5.136-10.195-9.233-16-13h-2Zm-20 1-2 13 8 1 3-14h-9Z" fill="#1D2A36"/><path d="M217.75 256.25c7.158 5.906 12.704 13.468 14.25 22.75 1.706 24.132 1.706 24.132-4 34l-1.18 2.21c-3.876 6.17-9.735 10.145-16.82 11.79-11.568 1.474-22.862.523-33.906-3.125-3.23-.913-5.757-1.168-9.094-.875-5.837 4.17-8.127 10.95-9.594 17.754-4.147 33.134 10.985 60.388 30.014 86.09a354.588 354.588 0 0 1 7.268 10.344l1.242 1.78c3.016 4.48 5.155 8.944 5.004 14.438-1.502 6.336-3.633 11.162-8.98 15.102-6.048 3.649-11.34 5.346-18.392 3.68C171 471 171 471 170 469c1-2 1-2 3.438-2.875 2.59-.893 2.59-.893 3.812-2.75 1.615-5.113 2.213-8.824.688-13.938-3.546-6.29-8.208-10.846-13.676-15.492-2.601-2.237-5.115-4.557-7.637-6.882a170.804 170.804 0 0 0-10.875-9.188c-6.212-4.88-10.84-10.739-15.75-16.875l-1.75-1.688C127 398 127 398 127 396h-2c-1.994-2.477-3.547-5.28-5.188-8l-1.488-2.448c-4.505-7.57-8.062-15.383-11.324-23.552l-1.082-2.434c-8.07-22.561-5.941-49.57 4.086-70.96 3-6.023 6.087-10.943 10.996-15.606a150.733 150.733 0 0 0 2.563-3.25c21.34-24.915 67.05-33.367 94.187-13.5ZM337.273 261.64C353.334 275.539 364.18 291.497 367 313l.332 2.512c3.219 28.026-4.748 56.032-21.852 78.406a195.942 195.942 0 0 1-9.394 10.844c-1.95 2.093-3.802 4.241-5.649 6.425-2.792 3.199-5.769 5.957-9.003 8.7-3.855 3.347-7.558 6.855-11.282 10.345-3.146 2.94-6.327 5.78-9.652 8.518-4.997 4.35-9.03 9.222-10.063 15.875.869 5.209 1.848 9.139 6.25 12.313.764.35 1.527.7 2.313 1.062l-1 4c-7.227 1.388-12.316 1.303-18.773-2.418-5.185-3.684-8.985-8.386-10.942-14.492-1.398-10.25 8.801-20.87 14.395-28.52 17.424-23.839 34.186-51.76 29.785-82.566-.231-1.42-.47-2.837-.715-4.254-.11-.662-.218-1.323-.33-2.005-.956-5-2.646-8.552-5.42-12.745-3.74-2.493-5.563-2.298-10-2a125.92 125.92 0 0 0-6.563 2c-10.912 3.225-25.76 4.788-36.375 0-7.895-5.097-12.455-12.06-15.062-21-2.427-11.68-2.354-25.176 3-36 8.07-11.622 19.867-18.57 33.625-21.25 22.186-3.15 44.714.911 62.648 14.89Z" fill="#0A0C26"/><path d="M204.355 122.648c3.083 1.576 4.734 3.338 6.958 5.977l2.113 2.477L215 133l2.246-.875c14.853-5.236 30.471-4.555 45.066 1.563L265 135l2.012-2.117 2.675-2.758 2.637-2.742c3.524-3.138 6.019-4.417 10.738-4.32 3.857 1.23 4.796 2.51 6.938 5.937 4 7.986 4 7.986 4 11l2.96-.117c19.567.049 40.805 11.679 56.04 23.117l2.695 1.992c16.09 12.343 25.727 29.924 28.406 50.018 1.323 11.728 2.252 24.178-3.101 34.99-3.598 4.279-7.363 7.349-12.984 8.355-3.892.271-5.743-.143-8.829-2.543-4.442-5.71-5.735-9.657-6.187-16.812l-6 2-1.102-2.492c-2.906-6.454-5.94-12.51-9.894-18.387C335 218 335 218 335.274 215.863A53.433 53.433 0 0 1 338 210l-5-6-5 4c-7.55-5.033-10.324-12.052-14.033-20.019-1.506-3.085-3.227-6.022-4.967-8.981l3-5-2.168-.805c-2.901-1.224-5.462-2.675-8.144-4.32l-2.676-1.633L297 166l.063 3.313C297 173 297 173 296 176c-2.123-.48-4.246-.96-6.367-1.45-2.601-.577-2.601-.577-5.14-.882-6.057-.864-9.246-2.763-13.845-6.715-5.328-3.93-11.598-6.33-17.648-8.953v-4c-9.75-2.387-17.947-3.407-28-2l-.172 1.887C224 156 224 156 221.734 157.02l-2.984.792c-8.71 2.645-16.838 6.595-23.813 12.5-4.732 3.77-10.08 4.071-15.937 4.688-1.418.203-2.834.41-4.25.625L172 176c2.02-21.033 12.3-39.11 28-53 2-1 2-1 4.355-.352Z" fill="#1C2935"/><path d="M395.55 91.76c3.069-.01 6.137-.041 9.206-.072 1.958-.007 3.915-.012 5.873-.016l2.77-.038 2.545.01 2.235-.011C420 92 420 92 422 95a112.954 112.954 0 0 1 1.437 6.355l.774 3.827.789 4.006c.518 2.598 1.04 5.195 1.562 7.792l.735 3.709c.571 2.69 1.243 5.287 2.015 7.924.742 3.654.493 5.178-1.312 8.387l2.344 1.504C450.042 151.35 450.042 151.35 453 160c-.534 10.096-9.36 18.944-16 26l-5-1c-1.759-5.85-3.145-11.562-3.938-17.625-.703-5.043-1.954-9.137-4.257-13.668C423 152 423 152 423 150l-2-1-2-2-2.082 2.844-2.73 3.656-1.37 1.879c-1.201 1.596-2.505 3.115-3.818 4.621h-3c-2.086-2.23-2.086-2.23-4.375-5.187-3.016-3.871-6.111-7.388-9.625-10.813l-2.105-2.21c-12.874-13.382-28.351-19.913-45.645-25.665-1.487-.502-2.974-1.004-4.46-1.508-3.594-1.215-7.191-2.419-10.79-3.617a1254.7 1254.7 0 0 1 2.812-4.29l1.583-2.412c4.08-5.84 7.881-8.416 14.855-10.11 5.428-.932 10.764-1.478 16.262-1.747l2.461-.123c9.522-.44 19.046-.54 28.577-.558Z" fill="#1E2B35"/><path d="M204.355 122.648c3.083 1.576 4.734 3.338 6.958 5.977l2.113 2.477L215 133l2.246-.875c14.853-5.236 30.471-4.555 45.066 1.563L265 135l2.012-2.117 2.675-2.758 2.637-2.742c3.524-3.138 6.019-4.417 10.738-4.32 4.422 1.41 5.772 3.88 8 7.812 4.95 9.898 5.088 20.91 5.625 31.75l.148 2.948.114 2.779.104 2.494C297 173 297 173 296 176c-2.123-.48-4.246-.96-6.367-1.45-2.601-.577-2.601-.577-5.14-.882-6.057-.864-9.246-2.763-13.845-6.715-5.328-3.93-11.598-6.33-17.648-8.953v-4c-9.75-2.387-17.947-3.407-28-2l-.172 1.887C224 156 224 156 221.734 157.02l-2.984.792c-8.71 2.645-16.838 6.595-23.813 12.5-4.732 3.77-10.08 4.071-15.937 4.688-1.418.203-2.834.41-4.25.625L172 176c2.02-21.033 12.3-39.11 28-53 2-1 2-1 4.355-.352Z" fill="#07101F"/><path d="m335 117 2.56.894c19.184 6.782 34.155 14.342 47.44 30.106 1.009 1.149 2.02 2.296 3.031 3.441l3.281 3.746 1.601 1.802c2.77 3.188 4.81 5.903 6.087 10.011l-6 7c2.044 4.088 4.441 6.55 7.688 9.625C411.305 193.997 411.305 193.997 414 200c-.006 3.644-.846 4.833-3.328 7.535l-2.922 2.528-2.89 2.535L402 215l-2.61 2.309C397 219 397 219 393 219c-.615-3.153-1.001-5.968-.875-9.188-.205-6.248-2.141-12.08-4.25-17.937-1.19-3.91-1.532-7.813-1.875-11.875l-1.813 1C382 182 382 182 379 182c-1.648-1.574-1.648-1.574-3.375-3.688-4.64-5.625-9.719-10.382-15.438-14.875l-1.87-1.474c-4.248-3.288-8.437-5.704-13.317-7.963l-1.598-1.758c-3.618-3.377-7.84-5.413-12.214-7.68l-2.833-1.471c-9.694-4.93-19.266-9.498-30.355-9.091l-1-2c4.16-5.62 8.998-8.565 15-12l3.258-1.887 3.305-1.738 3.003-1.602c5.06-1.14 8.67.454 13.434 2.227Z" fill="#31434E"/><path d="M144 44c3 1 3 1 5 2-.702 4.933-2.635 9.26-4.563 13.813l-.998 2.388c-.809 1.935-1.623 3.867-2.439 5.799l1.828.918c8.92 4.676 8.92 4.676 11.172 9.082.538 4.857.236 9.287-1 14l1.469.962a1052.26 1052.26 0 0 1 6.531 4.35l2.313 1.514 2.187 1.475 2.031 1.349c.485.445.97.89 1.469 1.35v3a77.39 77.39 0 0 1-6 4.688l-1.734 1.26A523.45 523.45 0 0 1 157 115c-4.301-2.475-8.294-5.287-12.313-8.188l-1.955-1.404A3247.58 3247.58 0 0 1 138 102l.875 3.176 1.125 4.136.578 2.092c.8 2.954 1.422 5.522 1.422 8.596-6.404.236-11.846-.177-18-2 .445-5.273 1.084-10.018 3-15h-9c-.09 1.156-.09 1.156-.184 2.336l-.254 3.039c-.08.998-.162 1.995-.246 3.023C117 114 117 114 116 116c-3.85-.604-6.861-1.768-10.313-3.563l-2.675-1.378L101 110c1.714-3.552 3.777-6.74 6-10l-1.46-1.172c-.633-.52-1.264-1.041-1.915-1.578l-1.898-1.547C99.826 93.828 98.877 92.523 98 90c.023-2.797.023-2.797.375-5.75l.336-2.984L99 79l-2.625-1.68L93 75.125l-1.734-1.105C89.808 73.065 88.4 72.037 87 71v-2c2.484-1.727 2.484-1.727 5.75-3.625l3.234-1.914C99 62 99 62 103 62c1.703 1.46 1.703 1.46 3.25 3.375l1.578 1.898C109 69 109 69 109 71l5-1-.875-1.793L112 65.813l-1.125-2.356c-1.007-2.829-1.473-4.493-.875-7.457 2.555-2.02 2.555-2.02 5.875-3.813l3.305-1.832C122 49 122 49 124 49l3 19h2l.351-1.68c.528-2.524 1.057-5.047 1.587-7.57l.552-2.645.537-2.558.492-2.349L133 49l.436-2.222L134 45c3.174-1.587 6.536-1.285 10-1Z" fill="#1C2936"/><path d="M380 38c2.297 1.681 4.137 3.208 6.125 5.188l1.512 1.423a82.7 82.7 0 0 1 6.992 7.553c1.974 2.362 3.784 4.14 6.183 6.023C406.803 63.3 412.97 69.96 414 78c-4.795 1.814-9.574 2.703-14.61 3.535-2.393.355-2.393.355-4.39 1.465-2.792.37-5.575.702-8.375 1-1.529.164-3.058.33-4.586.5l-2.056.219c-2.048.29-3.979.775-5.983 1.281-1.772.316-3.547.616-5.324.902l-3.12.51-6.429 1.04c-5.483.897-10.913 1.875-16.323 3.146-4 .89-5.937.926-9.491-1.223C330.699 87.69 329.9 85.6 329 82h-2c-3.82-8.118-3.82-8.118-3-12 2.21-2.399 4.796-4.227 7.438-6.125l2.32-1.716c7.192-5.258 14.6-10.159 22.168-14.858a362.797 362.797 0 0 0 6.23-4.02c1.322-.845 2.645-1.688 3.969-2.531l1.792-1.198c4.385-2.728 7.163-3.06 12.083-1.552Z" fill="#31434F"/><path d="M337.98 17.16c2.618 1.089 5.305 1.838 8.02 2.652 6.71 2.209 12.04 5.248 16 11.188l-2.246 1.625c-6.908 5.14-13.354 10.6-19.629 16.5l-2.123 1.988c-3.374 3.21-6.585 6.483-9.635 10.004l-1.732 1.982a120.326 120.326 0 0 0-3.077 3.72c-2.054 2.397-3.534 3.94-6.662 4.677-2.432.168-4.774.127-7.209.004l-2.435-.031C301.135 71.31 294.544 70.772 289 68c-.215-5.408.512-9.958 1.898-15.172l.591-2.312c.621-2.424 1.253-4.845 1.886-7.266.825-3.181 1.646-6.363 2.46-9.547l.591-2.3A189.864 189.864 0 0 0 300 14c11.497-3.074 27.11-1.6 37.98 3.16Z" fill="#1E2B35"/><path d="M142.035 168.387c7.457 1.542 14.542 4.552 20.965 8.613l-2.5 3c-4.082 5.395-6.84 11.422-9.766 17.488C149 201 149 201 147 204l-2.625-.813c-3.54-.5-3.54-.5-6.813 1.75L135 208c.296 1.91.604 3.818 1.012 5.707-.022 4.167-2.772 7.083-5.086 10.395-2.903 4.368-4.902 9.075-6.926 13.898l-4-1c-1.713 6.162-2.56 12.136-3.125 18.5l-.262 2.781c-.21 2.24-.414 4.479-.613 6.719-3.86-.49-6.63-1.013-9.75-3.375l-1.734-1.273c-2.13-1.9-3.408-3.6-3.817-6.454-.045-9.792 1.729-19.47 4.051-28.964 1.455-5.956.937-8.452-1.75-13.934.402-2.7.402-2.7 1-5l2.527.02c5.548-.337 9.192-.644 13.094-4.836 1.564-2.258 2.964-4.602 4.367-6.961 2.525-4.045 5.22-6.4 9.012-9.223l-.5-1.875c-.45-2.818-.668-5.464-.75-8.313l-.078-2.605L132 170c3.83-2.553 5.608-2.153 10.035-1.613Z" fill="#07101F"/><path d="M295 13c-.455 7.685-2.085 14.692-4.25 22.063l-.95 3.293c-.632 2.186-1.267 4.371-1.905 6.555a574.925 574.925 0 0 0-2.364 8.425l-1.281 4.602-.563 2.111C282.64 63.72 282.298 64.801 279 67c-4.815 1.105-9.584 1.215-14.5 1.25l-2.223.063c-4.845.034-8.038-.722-12.277-3.313-1.714-1.714-1.13-3.961-1.133-6.3l-.006-3.377.014-3.636.006-3.673c.049-10.36.459-20.676 1.119-31.014a25204.835 25204.835 0 0 1 16.85-1.643C290.966 13 290.966 13 295 13Z" fill="#31434E"/><path d="M286 124c10.27 9.666 10.04 25.577 10.688 38.625l.147 2.948.114 2.779.104 2.494C297 173 297 173 296 176c-2.123-.48-4.246-.96-6.367-1.45-2.601-.577-2.601-.577-5.14-.882-6.057-.864-9.246-2.763-13.845-6.715-5.328-3.93-11.598-6.33-17.648-8.953.527-4.728 2.717-8.08 5.313-11.938l1.185-1.802c.782-1.186 1.568-2.37 2.36-3.55a357.809 357.809 0 0 0 3.189-4.886 50.283 50.283 0 0 1 5.89-7.074l1.965-2.016c4.234-3.5 7.83-4.415 13.098-2.734Z" fill="#07101F"/><path d="M24 184h2c1.089 1.559 2.094 3.176 3.063 4.813 6.755 11.156 6.755 11.156 16.5 19.5L48 210c.496 4.483-.259 7.206-2.5 11.063l-1.648 2.875a482.487 482.487 0 0 1-7.922 12.628c-4.466 7.947-6.733 16.037-8.492 24.934-1.473 7.299-3.168 14.405-5.438 21.5l-2-1c-1.113-6.924-1.16-13.812-1.168-20.813l-.01-3.413c-.005-2.384-.007-4.767-.007-7.151-.002-3.557-.02-7.113-.04-10.67-.03-11.555.194-23.051 1.05-34.578l.21-3.031c.538-6.428 1.867-12.246 3.965-18.344Z" fill="#35454F"/><path d="m238.188 22.75 3.167-.078L244 23c2.506 3.759 2.185 5.602 2.047 10.082l-.062 2.096a639.035 639.035 0 0 1-.152 4.39c-.082 2.226-.144 4.45-.204 6.676a7753546929.41 7753546929.41 0 0 0-.278 8.185c-.344 3.502-1.011 6.324-2.351 9.571-1.7 1.207-1.7 1.207-3.688 1.813l-2.18.664c-4.948 1.214-9.802 1.635-14.882 1.835l-2.797.114C217 68 217 68 215.243 66.367c-1.514-2.884-1.944-5.327-2.368-8.555l-.469-3.496L212 51l-.344-2.535C209.742 33.392 209.742 33.392 213 29c3.082-1.45 3.082-1.45 6.813-2.688l3.707-1.261c4.995-1.508 9.444-2.223 14.667-2.301Z" fill="#1E2B35"/><path d="M444 184h2c2.36 6.941 3.666 13.507 4.188 20.813l.241 3.25c.74 11.657.755 23.323.759 35l.003 2.904c-.002 12.047-.326 24.017-1.191 36.033h-3l-.38-1.95c-3.702-18.83-7.39-35.626-17.62-52.05a2601.883 2601.883 0 0 1-3.438-5.75l-1.433-2.36c-2.144-3.59-2.928-5.657-2.129-9.89 1.656-1.457 1.656-1.457 3.875-3 7.383-5.21 12.37-13.15 16.79-20.93L444 184Z" fill="#35454F"/><path d="M197.273 375.02c6.391 3.89 11.974 9.502 15.727 15.98-.175 3.502-1.423 6.013-3.063 9.063-4.992 11.178-.987 23.056 3.063 33.937 1.484 3.587 3.136 7.082 4.863 10.559C219 447 219 447 219 449c-3.879-1.616-6.717-4.234-9.75-7.063l-1.608-1.498c-15.08-14.205-23.969-29.653-24.728-50.838-.08-5.202-.02-10.4.086-15.601 4.943-1.648 9.515-1.114 14.273 1.02ZM281.25 373.875l3.266.055L287 374c.498 14.57.614 31.055-7 44l-1.46 2.59c-6.882 11.516-15.994 20.29-26.54 28.41l-1-2c.88-1.97 1.766-3.936 2.68-5.89 1.72-4.053 3.12-8.184 4.507-12.36l.794-2.365c3.366-10.216 4.073-17.663-.008-27.772-.978-2.626-1.763-4.813-1.973-7.613 4.853-9.18 13.652-17.355 24.25-17.125Z" fill="#0A0D26"/><path d="m34.938 437.813 2.748-.038 2.654-.005 2.418-.013c2.543.276 4.11.833 6.242 2.243 1.938 4.92 2.324 9.64 2.25 14.875l-.023 2.12c-.258 12.445-.258 12.445-4.102 17.442-5.535 2.768-11.62 4.356-17.766 2.965-4.586-1.875-7.82-4.036-10.359-8.402-1.694-4.997-2.271-9.358-2.25-14.625l-.016-3.852c.31-4.117 1.072-7.07 3.703-10.273 4.109-3.287 9.531-2.434 14.5-2.438ZM434.938 437.688l2.708-.05c8.618-.006 8.618-.006 12.354 3.362 4.268 6.537 3.7 13.471 3 21-1.18 4.964-2.832 8.702-6.25 12.5-7.389 4.03-12.142 3.591-20.113 1.52-3.59-1.388-4.937-2.783-6.809-6.09-1.208-4.276-1.117-8.384-1.078-12.805l-.023-2.645c.015-5.177.286-9.664 2.273-14.48 4.348-2.838 8.924-2.33 13.938-2.313Z" fill="#101C10"/><path d="M366.938 438.563C372.474 442.97 373.2 448.27 374 455c.136 2.54.219 5.082.25 7.625l.078 3.852c-.545 5.85-.545 5.85-3.328 8.523-3.614.732-7.138.65-10.813.563l-2.986.033c-6.023-.061-9.634-.575-14.201-4.596-3.66-5.125-3.364-9.97-3-16 .03-.803.062-1.606.094-2.434.35-5.204 1.486-8.442 4.906-12.566 6.05-4.033 15.326-4.722 21.938-1.438ZM124 439c5.964 6.278 5.828 12.616 6 21-.38 5.056-1.225 8.07-4.5 12-3.428 2.742-5.195 3.143-9.508 3.316l-2.988.127-3.129.12-3.152.13c-2.574.107-5.149.209-7.723.307-4.99-8.584-3.94-19.458-1.691-28.91 1.364-4.125 3.151-7.094 6.816-9.465 6.645-1.445 13.568-1.274 19.875 1.375Z" fill="#101C0F"/><path d="m396.5 439.563 3.906-.06c4.171.577 5.802 1.367 8.594 4.497 1.553 5.092 1.184 10.703 1.188 16l.037 2.656c.01 4.778-.06 8.973-2.225 13.344-3.326 2.708-7.3 2.334-11.438 2.375l-3.933.086c-4.18-.531-5.772-1.408-8.629-4.461-3.822-8.756-3.42-22.206 0-31 4.036-3.216 7.43-3.432 12.5-3.438ZM73.5 439.563l3.906.003c3.74.452 5.667 1.102 8.594 3.434 3.42 8.794 3.822 22.244 0 31-2.857 3.053-4.449 3.93-8.629 4.46l-3.933-.085-3.942-.04c-3.142-.301-4.943-.545-7.496-2.335-4.506-9.249-3.828-22.331-1-32 3.756-4.282 6.96-4.52 12.5-4.438Z" fill="#101C10"/><path d="M53 135c-.453 6.183-1.884 10.372-4.875 15.75-3.496 6.64-5.699 12.854-7.125 20.25a5941.1 5941.1 0 0 1-1.688 7.75c-.44 2.083-.877 4.166-1.312 6.25-2.227.762-2.227.762-5 1-6.81-5.138-12.91-14.092-16-22 .308-6.577 3.577-10.403 8-15 17.767-15.346 17.767-15.346 28-14ZM418 135c11.838 1.048 21.963 8.537 30 17 5.093 6.25 5.093 6.25 4.848 10.879-2.4 8.838-9.669 16.556-15.848 23.121l-5-1c-1.759-5.85-3.145-11.562-3.938-17.625-.703-5.043-1.954-9.137-4.257-13.668C423 152 423 152 423 150l-2-1c-1.105-2.145-1.105-2.145-2.188-4.813l-1.105-2.644c-.748-2.691-.653-3.958.293-6.543Z" fill="#34444F"/><path d="M264 135c0 4.006-.084 4.621-2.188 7.672l-1.367 2.012L259 146.75l-1.445 2.113A796.407 796.407 0 0 1 254 154l-1.953-.435c-9.557-2.091-18.595-3.655-28.047-.565l-.953-2.379c-2.36-5.791-4.775-11.29-8.047-16.621a377.572 377.572 0 0 1 3.688-1.938l2.074-1.09c12.355-5.368 31.977-2.729 43.238 4.028Z" fill="#1C2A36"/><path d="M332 165c5.642 5.642 5.297 11.657 5.32 19.21-.115 6.904-1.114 13.59-4.32 19.79-2.645 2.355-2.645 2.355-5 4-7.55-5.033-10.324-12.052-14.033-20.019-1.506-3.085-3.227-6.022-4.967-8.981 2.09-3.968 4.17-6.181 7.875-8.688l2.555-1.761c4.01-2.42 7.824-4.403 12.57-3.551Z" fill="#07101F"/><path d="M217 395c2.681 2.382 4.114 4.855 5.688 8.063l1.324 2.66C225 408 225 408 225 410h2l.688-2.063c1.624-3.636 3.64-6.965 6.312-9.937h2a94.622 94.622 0 0 1 3.5 5.438c2.122 3.94 2.122 3.94 5.5 6.562.182-.58.364-1.16.55-1.758 1.492-4.633 3.133-8.94 5.45-13.242l4 2 3.125 1.188c2.875 1.812 2.875 1.812 4.25 5 .668 4.077.77 7.691.625 11.812l-2-4-3 1.813c-12.616 6.186-27.681 6.585-40.93 2.222A62.935 62.935 0 0 1 211 412a564.579 564.579 0 0 0-4-2c.75-7.625.75-7.625 3-11 1.727-1.168 1.727-1.168 3.625-2.188L217 395Z" fill="#17232D"/><path d="M204.75 39.313 207 40c.51 3.332 1.006 6.666 1.5 10l.434 2.832C209.733 58.275 210.388 63.5 210 69c-4.56 5.145-11.111 8.324-17.875 9.5C190 78 190 78 188.473 76.39c-1.848-2.998-2.45-5.694-3.16-9.14l-.762-3.547L184 60l-.318-2.05c-.258-2.87-.318-5.178 1.571-7.471 1.764-1.419 3.565-2.613 5.497-3.791l1.922-1.26c1.226-.804 2.46-1.593 3.705-2.368 1.774-1.107 1.774-1.107 3.764-2.915C202 39 202 39 204.75 39.312Z" fill="#31424E"/><path d="m355.625 205.688 3.477-.051L362 206c2.526 3.789 2.331 6.861 2.313 11.25l.048 2.238c.005 5.236-.815 8.907-3.361 13.512-1.973 1.777-1.973 1.777-4.063 2.938l-2.097 1.214C353 238 353 238 351 238v2l-4 1-1.102-2.492c-2.906-6.454-5.94-12.51-9.894-18.387C335 218 335 218 335.07 215.918c1.262-2.603 2.803-3.518 5.243-5.043l2.363-1.508L345 208l1.879-1.16c2.959-1.172 5.574-1.142 8.746-1.153Z" fill="#07101F"/><path d="m79 176 3 1c.505 8.19-.325 15.192-2.498 23.02C77.8 206.302 77.222 212.496 77 219c-2.34.148-2.34.148-5 0-2.563-2.375-2.563-2.375-5-5l-1.914-.898c-4.107-2.17-6.793-6.145-9.086-10.102.063-3.563.063-3.563 1-6h2l.938-1.875L62 191h2l.656-1.676c1.806-3.123 4.155-5.117 6.844-7.512l2.969-2.667C77 177 77 177 79 176Z" fill="#33434E"/><path d="M264 327h28c-3.353 6.036-5.922 10.566-10.5 15.375l-1.395 1.535c-2.775 2.979-5.513 5.177-9.105 7.09-10.47-5.751-16.649-11.931-23-22l16-1v-1ZM178 327h27v1l16 1c-4.26 8.522-11.043 17.126-20 21-2.43.445-2.43.445-5 0-7.613-5.805-13.473-13.626-18-22v-1Z" fill="#192225"/><path d="M107 219c2.34 2.926 4.096 6 5.879 9.29 1.19 2.001 1.19 2.001 3.933 4.023C119 235 119 235 119.032 237.076l-.329 2.428-.337 2.695c-.18 1.386-.18 1.386-.366 2.801a757.428 757.428 0 0 0-.535 5.352L116 265c-3.86-.49-6.63-1.013-9.75-3.375l-1.734-1.273c-2.13-1.9-3.408-3.6-3.817-6.454-.055-11.832 2.08-23.842 6.301-34.898Z" fill="#1C2A35"/><path d="m187.223 172.953 2.715.02c.68.01 1.36.018 2.062.027l.06 1.75c.38 10.588.898 21.07 2.275 31.58.674 5.277.834 10.357.665 15.67-3.711-1.237-4.077-2.31-6-5.625l-1.5-2.54c-3.626-6.855-5.664-13.698-7.605-21.163-.976-3.653-2.017-7.128-3.547-10.59C175 179 175 179 174.938 176.688 176 175 176 175 178.438 173.75c3.125-.658 5.621-.828 8.785-.797ZM278 173c6.516-.19 10.997.38 17 3a985.903 985.903 0 0 1-7.313 23.625l-1.107 3.563c-2.608 8.018-5.37 15.006-12.58 19.812.448-7.436 1.062-14.8 2-22.188 1.164-9.246 1.612-18.506 2-27.812Z" fill="#35454F"/><path d="M173 57c1.898.031 1.898.031 4 1 1.414 2.844 1.414 2.844 2.625 6.5l.641 1.924c2.381 7.29 4.06 13.897 3.734 21.576-3.057.94-4.505 1.222-7.473-.11l-2.59-1.64c-5.77-3.38-11.414-4.952-17.937-6.25l-1-4 1.434-1.145C162.444 69.853 167.163 64.118 172 58l1-1ZM96 166c7.973-.625 15.843 1.422 23 5-.36 5.485-2.533 8.33-6.25 12.125-.478.512-.956 1.024-1.45 1.55-2.885 3.043-5.759 6.058-9.3 8.325-2.813-.25-2.813-.25-5-1-2.253-8.957-1.909-16.9-1-26Z" fill="#1D2A36"/><path d="M68 139c7.722 2.648 12.68 8.24 17 15v3a4816.322 4816.322 0 0 1-7.688 3.875l-2.185 1.105c-10.62 5.335-10.62 5.335-16.127 5.02a57.312 57.312 0 0 1 9-28Z" fill="#1C2A36"/><path d="M236.996 164.082c4.767 2.184 8.338 6.267 12.004 9.918l3.086 3.043A855.77 855.77 0 0 1 260 185l-2 1c-2.242-1.145-2.242-1.145-4.875-2.813-5.47-3.882-5.47-3.882-11.75-4.937-2.531.598-2.531.598-4.375 2.75-3.297-.33-4.623-.623-7-3-4.909.266-8.144 2.036-12.25 4.625A95.64 95.64 0 0 1 212 186l-2-1c4.799-5.521 9.6-10.837 15.23-15.523 1.505-1.256 2.93-2.608 4.333-3.977 2.658-1.636 4.35-2.09 7.433-1.418Z" fill="#4E596A"/><path d="M146.488 203.879c3.816 1.703 4.835 4.861 6.45 8.496.684 1.46 1.37 2.918 2.058 4.375l1.015 2.184c1.806 3.774 3.892 7.39 5.958 11.027C163 232 163 232 163 234c-9.714-3.721-21.085-9.127-27-18-.072-3.26.356-5.223 2.457-7.758 4.473-4.19 4.473-4.19 8.031-4.363Z" fill="#34444F"/><path d="M151 92c4.728 1.573 8.343 4.206 12.313 7.125l1.955 1.418c1.58 1.148 3.157 2.302 4.732 3.457-2.955 3.038-5.887 5.816-9.313 8.313l-2.113 1.55L157 115c-3.99-2.288-7.659-4.904-11.313-7.688A1874.438 1874.438 0 0 1 140 103c1.252-3.753 2.566-4.24 6.001-5.999h2l.938-1.938C150 93 150 93 151 92Z" fill="#0D161E"/><path d="M78 421c5.576 2.152 5.576 2.152 7 5 .273 2.059.273 2.059.375 4.438l.148 2.37C85 435 85 435 82.914 436.763c-3.494 1.485-6.124 1.638-9.914 1.613l-3.625.023c-3.57-.421-5.481-1.326-8.375-3.398.385-5.673.823-8.823 5-13 3.688-1.844 7.966-1.358 12-1ZM403.875 422.125c3.392 2.993 4.805 6.153 5.625 10.563-.5 2.312-.5 2.312-2.594 3.933-3.511 1.666-6.031 1.78-9.906 1.754l-3.625.023c-3.644-.43-5.565-1.048-8.375-3.398-.903-3.045-.616-5.902 0-9 4.407-6.08 12.237-6.472 18.875-3.875Z" fill="#1E2D2B"/><path d="M321 204c4.172.519 6.254 1.712 9.313 4.563l2.113 1.94L334 212c-.877 5.927-3.327 8.407-8 12-13.303 8.54-13.303 8.54-20 10l15-30Z" fill="#35454F"/><path d="M403 131c8.56-.367 15.862.26 24 3v3l-9-1c.61 3.558 1.578 6.683 3 10l-2.125 2.063c-2.714 2.682-5.084 5.588-7.445 8.582C410 158 410 158 407 158c-.676-3.373-1.34-6.749-2-10.125l-.578-2.883c-.92-4.728-1.683-9.148-1.422-13.992Z" fill="#16222B"/><path d="M439 446c2.691 2.176 4.455 3.91 6 7 .148 1.788.221 3.582.25 5.375l.078 2.898c-.382 3.18-1.06 4.49-3.328 6.727-4.957 1.12-8.443 1.624-13-1-1.51-3.019-1.144-6.13-1.125-9.438l-.012-2.064c.006-3.104.148-5.531 1.137-8.498 3.217-1.608 6.521-1.613 10-1ZM39 446c2.714 2.42 2.992 3.921 3.363 7.566l-.05 3.997.01 2.037c-.04 3.67-.238 5.272-2.323 8.4-4.238 1.316-7.937 1.465-12-.313-2.41-2.032-2.927-2.954-3.238-6.078-.162-6.237.015-9.89 4.238-14.609 3.11-1.555 6.63-1.727 10-1Z" fill="#111C27"/><path d="M178 152c1 2 1 2 .074 4.793l-1.387 3.394c-2.163 5.385-2.163 5.385-3.812 10.938-1.335 4.386-1.335 4.386-3.875 5.875-6.8 1.133-12.032-1.978-18-5l2-1 .89-1.824C158.47 160.196 169.3 155.96 178 152Z" fill="#1C2A36"/><path d="M144 44c3 1 3 1 5 2-.706 4.904-2.596 9.216-4.5 13.75l-.973 2.363c-2.39 5.75-2.39 5.75-3.527 6.887a91.472 91.472 0 0 1-5.063.063l-2.785-.028L130 69c-.222-5.584.558-10.458 1.875-15.875l.527-2.336c.463-1.948 1.023-3.871 1.598-5.789 3.174-1.587 6.536-1.285 10-1Z" fill="#0D161E"/><path d="m135 185 .734 2.195c1.898 5.474 3.764 10.177 7.266 14.805l-2.75 1.688c-3.095 2.201-5.043 4.256-7.25 7.312l-2.375-1.875c-4.15-2.813-8.748-3.392-13.625-4.125 3.095-6.44 9.852-20 18-20Z" fill="#1C2A35"/><path d="M295 13c-1.411 3.123-3.11 5.497-5.375 8.063l-1.773 2.035c-1.828 1.877-3.716 3.391-5.852 4.902-3.668-1.503-5.69-3.637-8.25-6.625l-2.14-2.477L270 17c-3.596 3.494-6.835 7.111-10 11-4.334-3.349-6.97-6.368-10-11a25204.835 25204.835 0 0 1 16.85-1.643C290.966 13 290.966 13 295 13Z" fill="#17232C"/><path d="m430.313 421.688 3.925-.114c4.58.519 7.5 2.164 10.762 5.426.04 2.333.042 4.667 0 7-3.747 1.874-8.251 1.228-12.375 1.25-1.439.03-1.439.03-2.906.063l-2.805.015-2.564.028c-2.896-.439-4.26-1.326-6.35-3.356-.51-4.082-.314-5.53 2-9 3.564-1.188 6.555-1.242 10.313-1.313ZM39.375 421.813l2.04-.038c3.675-.01 6.524.076 9.585 2.225 1.414 2.829 1.319 4.874 1 8-2.883 2.814-4.946 3.372-8.914 3.328l-2.805-.015-2.906-.063-2.93-.016c-7.136-.08-7.136-.08-9.445-1.234-.313-3.25-.313-3.25 0-7 4.609-4.609 8.102-5.182 14.375-5.188ZM365.938 420.375C368 422 368 422 370 425c.25 3.063.25 3.063 0 6-2 2-2 2-4.139 2.243l-2.615-.013-2.838-.005-2.97-.038-2.983-.001c-7.315-.046-7.315-.046-8.455-1.186-.71-7.098-.71-7.098 2.313-10.938 5.48-4.206 11.563-3.524 17.625-.687ZM119 419c3.063 2.063 3.063 2.063 5 5 .457 2.856.293 5.072 0 8-2.36 2.36-8.268 1.185-11.438 1.188l-2.97.037-2.838.005-2.615.013C102 433 102 433 100 431c-.438-2.813-.438-2.813 0-6 5.292-6.653 10.946-8.214 19-6Z" fill="#1E2D2B"/><path d="M238 189c6.442 2.814 13.429 6.508 18 12 .68 2.18.68 2.18 1 4-4.135-.806-7.157-2.819-10.684-5.04-2.9-1.203-4.366-.935-7.316.04l-2 2c-3.442-.353-5.069-1.046-8-3-3.766.338-6.47 1.645-9.688 3.563C215.204 205 215.204 205 213 205c1.032-5.938 5.765-8.427 10.441-11.719 4.912-3.18 8.579-5.54 14.559-4.281Z" fill="#4F596A"/><path d="M89 34c4.556 1.307 7.93 3.08 11.75 5.875l2.86 2.055c2.274 1.97 3.322 3.3 4.39 6.07-12.533 10-12.533 10-18 10-3.272-7.77-2.205-15.864-1-24Z" fill="#3F3D5C"/><path d="M392 360c.436 8.29-1.22 15.96-3 24-3.794-1.738-7.19-4.028-10.625-6.375l-1.773-1.172c-3.135-2.142-5.321-3.81-6.602-7.453 2.228-1.128 4.457-2.252 6.688-3.375l1.896-.96C387.864 360 387.864 360 392 360Z" fill="#4D5768"/><path d="m420 97 1 3h2c.698 3.456 1.382 6.915 2.063 10.375l.603 2.984.557 2.852.523 2.634C427 121 427 121 426 123c-4.457-1.343-8.286-3.106-12.313-5.438l-3.175-1.808C408 114 408 114 407 111c2.925-6.299 7.188-10.396 13-14Z" fill="#16222B"/><path d="M166 337c2.78.356 3.802.771 5.668 2.926l1.52 2.387 1.542 2.363c1.208 2.21 1.98 3.83 2.27 6.324-1.673 5.595-5.543 11.252-10 15-2.813.5-2.813.5-5 0l-1-1c.057-9.039.903-19.806 5-28ZM301 337c3 1 3 1 3.879 2.723 1.62 5.547 2.63 11.056 3.371 16.777l.28 2.14c.597 5.105.597 5.105-.53 7.36-3.043.303-4.481.417-6.914-1.54-7.964-9.708-7.964-9.708-8.211-15.272 1.696-4.805 4.85-8.34 8.125-12.188Z" fill="#121D28"/><path d="M78 360c7.895 1.991 14.822 5.19 22 9-4.845 6.285-10.474 10.53-17 15l-2-1c-2.274-7.594-3.409-15.095-3-23Z" fill="#4D5769"/><path d="M122 130c6.717-.32 11.757.52 18 3-3.047 7.985-7.003 15.836-13 22h-2c-.703-3.226-1.385-6.456-2.063-9.688l-.603-2.763-.557-2.686-.523-2.46c-.284-2.683.095-4.797.746-7.403Z" fill="#3F3D5C"/><path d="M61 14c6.88 1.935 13.181 8.113 17 14v4c-5.624 3.17-10.463 5.072-17 5-1.584-1.584-1.13-3.21-1.133-5.402l-.004-2.698.012-2.837-.012-2.827.004-2.7.004-2.489C60 16 60 16 61 14Z" fill="#1C2A35"/><path d="M220 363c3.961.248 6.024 1.69 9 4.125 2.929 2.337 2.929 2.337 6.5 3.125 3.202-1.601 5.768-3.793 8.563-6.016C246 363 246 363 249 363.125l2 .875c-.507 4.281-3.02 6.554-5.875 9.625l-2.68 2.914C240 379 240 379 237 381c-3.895-.096-5.65-.718-8.703-3.18l-2.547-2.695-2.578-2.68C221 370 221 370 219 367c.375-2.188.375-2.188 1-4ZM221 346c3.776.216 5.024 1.022 7.875 3.625 2.936 2.705 2.936 2.705 6.625 2.5 3.216-1.034 4.267-1.597 6.625-3.75C245 346 245 346 247.875 346.187L250 347l1 5c-1.58 1.296-3.164 2.587-4.75 3.875l-2.672 2.18c-3.889 2.934-6.602 4.64-11.578 3.945-2.79-1.645-2.79-1.645-5.625-3.813l-2.852-2.144c-1.98-1.603-3.782-3.191-5.523-5.043 1.875-3.875 1.875-3.875 3-5Z" fill="#4F596A"/><path d="m94 333-2 24c-7.119-3.56-13.438-9.461-18-16 1-3 1-3 2.672-4.133C82.84 333.922 87.025 333 94 333Z" fill="#4E5869"/><path d="M83 0c4.692.52 7.792 1.76 11.75 4.313l2.86 1.8c2.369 1.87 3.333 3.103 4.39 5.887-4.076 4.47-8.673 8.097-14 11h-3c-1.71-7.756-2.25-15.066-2-23Z" fill="#1D2A36"/><path d="M376 333c11.25 1.125 11.25 1.125 15.625 3.563l2.54 1.378c.605.35 1.21.7 1.835 1.059-3.848 7.054-9.412 13.364-16 18h-2l-2-24Z" fill="#4E5869"/><path d="M68 309c4.627 1.392 8.647 3.295 12.875 5.625l3.492 1.914L87 318c0 4 0 4-2.047 6.07l-2.703 2.055-2.672 2.07C74.143 332 74.143 332 70 332c-1.954-7.729-2.224-15.05-2-23Z" fill="#4D5869"/><path d="M402 309c.224 7.95-.046 15.271-2 23-4.44-.542-7.109-2.181-10.688-4.813l-2.886-2.082c-2.29-1.988-3.353-3.313-4.426-6.105 2.25-1.293 4.5-2.584 6.75-3.875l1.922-1.105C399.433 309 399.433 309 402 309Z" fill="#4D5768"/><path d="M68 268c6.88.543 13.779 3.425 18.305 8.672L88 279a2643.29 2643.29 0 0 1-6.188 4.813l-1.751 1.369c-3.244 2.51-6.484 4.79-10.061 6.818-1.438-8.076-2.296-15.794-2-24ZM87 288c2.81 7.68 3.146 14.918 3 23l-1.95-.836c-3.895-1.487-7.858-2.634-11.862-3.789l-2.39-.695c-1.931-.562-3.865-1.122-5.798-1.68 13.061-16 13.061-16 19-16Z" fill="#4E5869"/><path d="M396 55c3.947 2.134 6.658 4.52 9.625 7.875l2.29 2.555C413 71.697 413 71.697 413 75c-7.819-.466-15.364-1.225-23-3-1-3-1-3 .434-6.355a280.3 280.3 0 0 1 2.003-3.832l1.026-1.983A606.037 606.037 0 0 1 396 55Z" fill="#17232C"/><path d="M402 268c.296 8.206-.562 15.924-2 24-6.253-4.036-12.186-8.354-18-13 2.888-4.075 5.516-6.143 10-8.313l3.125-1.55C398 268 398 268 402 268Z" fill="#4E5869"/><path d="M89 115c4.242.548 6.766 1.974 10.188 4.5 3.285 2.45 3.285 2.45 6.812 4.5-.363 2.796-.86 3.866-2.926 5.852l-2.386 1.773-2.364 1.79c-5.433 3.706-5.433 3.706-9.074 3.21L87 136c-.202-7.353-.212-13.949 2-21Z" fill="#403D5C"/><path d="M376 37c4.198 1.397 6.836 3.373 10.063 6.375l2.535 2.336L391 48l2.309 2.164C395 52 395 52 395 54c-2.895.337-5.791.67-8.688 1-.816.095-1.633.19-2.474.29-3.967.449-7.838.84-11.838.71-.286-7-.015-12.978 4-19Z" fill="#16222B"/><path d="M383 288c4.17 1.395 6.837 3.346 10.063 6.313l2.535 2.3c2.349 2.334 4.39 4.76 6.402 7.387l-3.105.77c-1.361.347-2.722.694-4.082 1.043l-2.042.501c-4.055 1.049-7.253 2.441-10.771 4.686h-2c-.307-8.006.459-15.377 3-23ZM238 211c2.781 1.355 2.781 1.355 5.5 3.188l2.863 1.921A103.051 103.051 0 0 1 255 223c-1.563.688-1.563.688-4 1l-3.438-1.5c-3.654-1.539-4.925-1.85-8.562-.5l-2 2c-3.442-.353-5.069-1.046-8-3-3.187.277-5.736.89-8.688 2.125C218 224 218 224 215 223c13.738-12.99 13.738-12.99 23-12Z" fill="#4E5869"/><path d="M138 102c.671 2.436 1.337 4.874 2 7.313l.578 2.091c.8 2.954 1.422 5.522 1.422 8.596-6.404.236-11.846-.177-18-2 .445-5.273 1.084-10.018 3-15 7.625-1 7.625-1 11-1ZM124 49c.53 3.144 1.047 6.29 1.563 9.438l.458 2.72c.14.854.278 1.708.42 2.588l.397 2.396L127 68c-1.811 1.811-4.613 1.382-7.063 1.563l-3.347.253L114 70a313.523 313.523 0 0 1-2-4.188l-1.125-2.355c-1.007-2.829-1.473-4.493-.875-7.457 2.555-2.02 2.555-2.02 5.875-3.813l3.305-1.832C122 49 122 49 124 49Z" fill="#0D161E"/><path d="m168 115 2 1c.027 2.958.047 5.917.063 8.875l.025 2.55.01 2.442.016 2.254C170 134 170 134 169 136c-6.635-.355-10.632-2.131-16-6 .219-3.74.83-4.845 3.652-7.422 1.085-.79 2.18-1.566 3.286-2.328l1.67-1.207c2.075-1.488 4.104-2.9 6.392-4.043Z" fill="#403D5D"/><path d="M103 62c1.922 1.898 1.922 1.898 3.75 4.375l1.86 2.46C110 71 110 71 110 73a249.325 249.325 0 0 1-6 4 89.466 89.466 0 0 0-3 3c-2.339-1.45-4.671-2.91-7-4.375l-2.023-1.25C90.283 73.303 88.637 72.157 87 71v-2c2.484-1.727 2.484-1.727 5.75-3.625l3.234-1.914C99 62 99 62 103 62Z" fill="#0D161E"/><path d="M380 163c5.25 0 9.068.014 14 1l2.875.563L399 165a46.734 46.734 0 0 1-4.625 7.75l-1.352 1.86L392 176l-5-2 .313 2.313C387 179 387 179 384.688 180.875 382 182 382 182 379 181l1-18Z" fill="#16222B"/><path d="M120 21c4.136 1.527 6.237 4.496 8.75 7.938l1.246 1.63C133 34.615 133 34.615 133 38a886.164 886.164 0 0 1-5.75 2l-3.234 1.125C121 42 121 42 117 42c-.232-6.893-.11-13.377 2-20l1-1Z" fill="#3F3D5C"/><path d="M326 14v2l3 1c-2.08 1.32-4.163 2.63-6.25 3.938l-1.777 1.13c-6.179 3.853-6.179 3.853-8.973 3.932-4.29-2.97-7.628-7.395-10-12 6.467-3.234 16.998-.95 24 0Z" fill="#16222B"/><path d="M234 232c4.076 1.658 7.019 4.542 10.188 7.5l1.654 1.512c4.024 3.72 4.024 3.72 5.158 5.988-1.417-.312-2.833-.624-4.25-.938l-2.39-.527a121.742 121.742 0 0 1-4.426-1.086c-6.204-1.44-11.185-.305-16.954 1.992C221 247 221 247 218 246a3621.49 3621.49 0 0 1 5.75-5.313l1.633-1.513c2.773-2.554 5.539-4.985 8.617-7.174Z" fill="#4E586A"/><path d="m117 101 1 1a107.472 107.472 0 0 1-.375 5.938l-.273 3.277C117 114 117 114 116 116c-3.85-.604-6.861-1.768-10.313-3.563l-2.675-1.378L101 110c4.087-8.557 6.935-10.439 16-9Z" fill="#0D161E"/><path d="M410 344c3.712.605 5.828 2.26 8.75 4.563 4.895 3.514 7.315 4.215 13.25 3.437l2.05-.25c1.656-.212 3.304-.476 4.95-.75-1.485 3.995-3.62 5.271-7.313 7.25l-2.863 1.578c-2.971 1.233-4.66 1.736-7.824 1.172-5.052-4.537-8.226-10.897-11-17Z" fill="#4E596A"/><path d="M400 393c3.735.612 5.935 2.327 8.938 4.563 6.313 4.18 11.693 4.175 19.062 3.437-1.244 3.732-2.434 4.201-5.75 6.188l-2.61 1.605c-2.916 1.333-4.483 1.761-7.64 1.207-5.59-4.497-9.17-10.513-12-17ZM58 344l1 3c-1.328 2.594-1.328 2.594-3.25 5.5l-1.89 2.906c-2.881 4.018-2.881 4.018-4.86 5.594-6.53.133-11.907-3.078-17-7l-1-3 3 .5c1.333.168 2.667.334 4 .5l3.688.563c6.31.012 11.49-4.962 16.312-8.563ZM67 393l3 1c-8.038 13.226-8.038 13.226-12 16-6.288.363-11.347-3.022-16-7v-2l2.422.281c8.729.574 13.259-1.25 20.117-6.629L67 393Z" fill="#4F596A"/><path d="M338 18c1.898.427 3.794.867 5.688 1.313l3.199.738c3.134.956 5.47 2.02 8.113 3.949l1 3a977.892 977.892 0 0 1-5.813 3l-3.269 1.688C344 33 344 33 341 33c-.7-1.745-1.385-3.496-2.063-5.25l-1.16-2.953c-.788-2.837-.801-4.091.223-6.797Z" fill="#16222B"/><path d="M406 368c3.322 1.107 5.22 2.196 7.875 4.563 5.317 4.044 12.715 3.346 19.125 3.437-2.618 2.773-5.129 4.914-8.438 6.813l-2.246 1.332c-3.057 1.129-4.299 1.139-7.316-.145-1.836-2.309-3.318-4.428-4.813-6.938l-1.232-1.958C406 370.32 406 370.32 406 368ZM64 368c-1.422 3.84-3.182 7.254-5.313 10.75l-1.738 2.922C55 384 55 384 52.664 385.035c-3.716-.049-5.823-1.426-8.977-3.348l-3.238-1.925L38 378v-2l2.71.027c8.161-.2 13.054-1.31 19.4-6.53C62 368 62 368 64 368Z" fill="#4D5768"/><path d="M189 333c7.097-.108 13.96.061 21 1-1.448 3.444-3.277 5.361-6.125 7.75l-2.195 1.86L200 345c-3.387-1.439-5.36-3.221-7.75-6l-1.86-2.125C189 335 189 335 189 333Z" fill="#B8130C"/><path d="M281 333c-1.453 5.327-5.081 8.364-9 12-4.005-1.373-6.917-3.084-10-6a86.584 86.584 0 0 1-2-5c2.375-.17 4.75-.335 7.125-.5l2.016-.145A146.02 146.02 0 0 1 281 333Z" fill="#BA130B"/><path d="M239 24c-6.15 8.446-6.15 8.446-10 12a393.378 393.378 0 0 1-3.813-1.813l-2.144-1.019c-2.081-1.19-3.512-2.328-5.043-4.168v-2c7.519-2.605 12.978-4.416 21-3Z" fill="#16222B"/><path d="M150 20h2c2.579 6.055 3.61 11.44 4 18-4.548.178-7.88-.002-12-2 .403-6.316 2.712-10.65 6-16Z" fill="#3F3D5C"/><path d="M198 42c1.123 3.816.699 5.904-.625 9.688l-.977 2.949C195 57 195 57 192.558 57.945c-3.79.081-5.688-1.609-8.558-3.945v-2a149.038 149.038 0 0 1 7-5.125l2.023-1.418c1.655-1.158 3.316-2.308 4.977-3.457Z" fill="#17232C"/><path d="m421 440 3 1c.513 8.3-.293 14.52-4 22h-1a815.663 815.663 0 0 1-.125-7.563c-.017-.704-.034-1.408-.05-2.134-.045-4.822.647-8.726 2.175-13.303ZM47 440h2c1.774 5.315 2.258 9.856 2.125 15.438l-.027 2.216A626.5 626.5 0 0 1 51 463l-.898-1.844c-1.108-2.26-1.108-2.26-2.727-4.656-2-5.09-1.813-10.087-1.375-15.5l1-1Z" fill="#121D27"/><path d="M383.5 338.75c2.5.25 2.5.25 4.5 2.25.25 2.5.25 2.5 0 5-2 2-2 2-4.5 2.25C381 348 381 348 379 346c-.25-2.5-.25-2.5 0-5 2-2 2-2 4.5-2.25Z" fill="#29203C"/><path d="M86.5 338.75C89 339 89 339 91 341c-.568 5.568-.568 5.568-2 7-2.438.188-2.438.188-5 0-2-2-2-2-2.25-4.5.35-3.494 1.256-4.4 4.75-4.75Z" fill="#291F3B"/><path d="M392 274c3.297.33 4.623.623 7 3-.556 4.556-.556 4.556-2 6-2.438.188-2.438.188-5 0-2-2-2-2-2.25-4.5.25-2.5.25-2.5 2.25-4.5Z" fill="#29213C"/><path d="M74 274c4.556.556 4.556.556 6 2 .188 2.438.188 2.438 0 5-2 2-2 2-4.5 2.25C73 283 73 283 71 281c.33-3.297.623-4.623 3-7Z" fill="#29203B"/><path d="M384.5 366.75c2.5.25 2.5.25 4.5 2.25-.556 4.556-.556 4.556-2 6-3 .125-3 .125-6 0-1-1-1-1-1.188-3.438.26-3.545 1.15-4.458 4.688-4.812ZM85.438 366.813C88 367 88 367 90 369c.188 2.563.188 2.563 0 5-1 1-1 1-3.938 1.188C83 375 83 375 81 373c.72-5.902.72-5.902 4.438-6.188Z" fill="#291F3B"/><path d="M82.438 295.813C85 296 85 296 87 298c-.556 4.556-.556 4.556-2 6-2.438.25-2.438.25-5 0-2-3-2-3-1.688-5.125 1.004-2.738 1.132-2.832 4.126-3.063Z" fill="#2A213D"/><path d="M387.5 295.875C390 296 390 296 391 297c.125 3 .125 3 0 6-1 1-1 1-3.438 1.188C385 304 385 304 383 302c.724-5.936.724-5.936 4.5-6.125ZM72 317c2-.043 4-.04 6 0 1 1 1 1 1.188 3.438C79 323 79 323 77 325c-2.625-.375-2.625-.375-5-1-1.125-4.75-1.125-4.75 0-7Z" fill="#2A213C"/><path d="M394.438 316.813C397 317 397 317 399 319c-.375 2.625-.375 2.625-1 5-2.375.625-2.375.625-5 1-2-2-2-2-2.188-4.563.253-3.277.348-3.372 3.625-3.625Z" fill="#29203C"/></svg>