<?xml version="1.0" encoding="UTF-8"?>
<svg version="1.1" xmlns="http://www.w3.org/2000/svg" width="512" height="502">
<path d="M0 0 C1.95011356 0.00187033 3.9002276 0.00329132 5.8503418 0.00428772 C10.92677154 0.00806454 16.00317163 0.01785216 21.07958984 0.0289917 C26.28222249 0.03931114 31.48486002 0.04380767 36.6875 0.04882812 C46.85417953 0.0594799 57.02083728 0.07649649 67.1875 0.09765625 C66.82962402 1.19819336 66.47174805 2.29873047 66.10302734 3.43261719 C64.78081631 7.01685781 64.78081631 7.01685781 66.5390625 9.73828125 C67.66441406 11.02992187 67.66441406 11.02992187 68.8125 12.34765625 C69.66445039 13.38107022 70.50905905 14.42056475 71.34765625 15.46484375 C71.80672363 16.03557617 72.26579102 16.60630859 72.73876953 17.19433594 C77.21607777 23.0765562 80.94444366 29.54515868 84.80224609 35.84228516 C86.02713741 37.83656538 87.27134134 39.81715724 88.51953125 41.796875 C92.34362832 48.09237706 95.20099156 54.26138447 97.5625 61.22265625 C97.80145996 61.92656494 98.04041992 62.63047363 98.28662109 63.35571289 C102.01498244 75.1036958 102.45552184 86.65483219 102.40076447 98.86354828 C102.39041154 101.63926217 102.39600492 104.41453584 102.40618896 107.19024658 C102.43395971 115.0727147 102.44658135 122.95492265 102.41748047 130.83740234 C102.40072587 135.6820378 102.41309272 140.52587408 102.44393158 145.37042999 C102.45001446 147.20593178 102.44522326 149.04150485 102.42905426 150.8769455 C101.92252792 163.24371632 101.92252792 163.24371632 107.61128235 173.71986389 C108.13143417 174.17453537 108.651586 174.62920685 109.1875 175.09765625 C109.6801384 175.60135239 110.17277679 176.10504852 110.68034363 176.62400818 C112.10892162 178.06555857 113.61657717 179.42737749 115.125 180.78515625 C115.64352539 181.25284424 116.16205078 181.72053223 116.69628906 182.20239258 C120.3565107 185.46473921 124.09708471 188.40170072 128.1875 191.09765625 C128.8475 190.43765625 129.5075 189.77765625 130.1875 189.09765625 C128.2075 187.44765625 126.2275 185.79765625 124.1875 184.09765625 C126.80946456 181.45145912 129.44953521 178.84001705 132.16796875 176.29296875 C148.71050952 160.58948658 161.79694887 139.81367382 162.4296875 116.41015625 C162.47495761 111.3023215 162.38106414 106.20179379 162.1875 101.09765625 C161.07632812 100.55238281 159.96515625 100.00710937 158.8203125 99.4453125 C138.05594401 89.02577387 138.05594401 89.02577387 133.95703125 80.5546875 C133.14970009 78.0493077 132.59681801 75.69662692 132.1875 73.09765625 C132.01766602 72.07293213 131.84783203 71.04820801 131.67285156 69.99243164 C131.13839602 65.70361407 131.02562097 61.54218884 131.01953125 57.2265625 C131.01620285 56.38657211 131.01287445 55.54658173 131.00944519 54.68113708 C131.00440307 52.90697777 131.00203602 51.13280905 131.00219727 49.35864258 C131.0000318 46.69921343 130.98190542 44.04021418 130.96289062 41.38085938 C130.92918225 30.78420687 131.56147117 20.57702051 133.1875 10.09765625 C142.84630539 19.43688696 145.08567012 34.33683871 148.29589844 46.96655273 C148.7720459 48.79488647 148.7720459 48.79488647 149.2578125 50.66015625 C149.53383301 51.75457031 149.80985352 52.84898438 150.09423828 53.9765625 C152.11693951 59.75106284 154.93163354 63.4341171 160.25 66.41015625 C161.53583984 67.14685547 161.53583984 67.14685547 162.84765625 67.8984375 C165.24080994 69.19947092 165.24080994 69.19947092 168.1875 70.09765625 C171.23635684 63.99994257 169.46962809 55.03056475 167.75 48.72265625 C165.54438485 42.23830357 162.19768002 36.71481515 158.57421875 30.953125 C156.13461458 27.06547204 153.91284666 23.08219444 151.75 19.03515625 C151.42032227 18.42816895 151.09064453 17.82118164 150.75097656 17.19580078 C145.881657 8.03466193 145.881657 8.03466193 146.5625 3.72265625 C146.871875 2.91828125 146.871875 2.91828125 147.1875 2.09765625 C192.46875928 39.39266603 192.46875928 39.39266603 198.1875 57.09765625 C198.65908202 62.94527333 197.87670824 67.86735889 196.625 73.59765625 C195.15529509 80.38103829 195.17100397 85.65996836 196.7109375 92.3828125 C203.74420677 125.35763292 190.97963981 158.00392753 173.98828125 185.7578125 C172.13583587 188.60975174 170.20381186 191.35955182 168.1875 194.09765625 C167.77725586 194.67290039 167.36701172 195.24814453 166.94433594 195.84082031 C165.62471175 197.68868258 164.28507885 199.52010428 162.9375 201.34765625 C162.52483887 201.92209473 162.11217773 202.4965332 161.68701172 203.08837891 C160.484375 204.67578125 160.484375 204.67578125 158.1875 207.09765625 C153.59598794 207.09765625 152.85567876 206.41262699 149.4375 203.59765625 C148.63828125 202.94796875 147.8390625 202.29828125 147.015625 201.62890625 C146.41234375 201.12359375 145.8090625 200.61828125 145.1875 200.09765625 C144.81000058 202.46880806 144.81000058 202.46880806 145.1875 205.09765625 C147.17925443 206.78523018 147.17925443 206.78523018 149.70458984 208.15112305 C154.00241383 211.28382731 154.00241383 211.28382731 154.78497314 214.72476196 C154.71520057 217.95643383 154.37391613 221.04242187 153.9140625 224.2421875 C153.78456207 225.42319534 153.65506165 226.60420319 153.52163696 227.82099915 C153.24680792 230.32041167 152.95338984 232.81784073 152.6427002 235.31304932 C152.05630957 240.18839438 151.6296964 245.07095124 151.20819092 249.96286011 C150.69447252 255.90686033 150.12320997 261.84543889 149.5625 267.78515625 C149.33049157 270.26364965 149.09871989 272.74216521 148.8671875 275.22070312 C148.31000191 281.17994413 147.74996619 287.13891145 147.1875 293.09765625 C145.37866211 293.72875977 145.37866211 293.72875977 143.1875 294.09765625 C140.8413489 292.48861009 138.85137104 290.92038627 136.75 289.03515625 C136.18990234 288.55626953 135.62980469 288.07738281 135.05273438 287.58398438 C133.38521185 286.13049625 131.77952254 284.63326269 130.1875 283.09765625 C129.67300293 282.61441895 129.15850586 282.13118164 128.62841797 281.63330078 C126.07472581 278.97904872 125.19210784 277.52823358 125.15234375 273.8125 C126.41115528 269.29502917 127.98366197 265.0008008 129.75 260.66015625 C130.07935547 259.83322266 130.40871094 259.00628906 130.74804688 258.15429688 C131.55435836 256.13267532 132.36998123 254.11477176 133.1875 252.09765625 C133.5175 252.09765625 133.8475 252.09765625 134.1875 252.09765625 C134.5175 258.69765625 134.8475 265.29765625 135.1875 272.09765625 C136.1775 272.42765625 137.1675 272.75765625 138.1875 273.09765625 C138.52947019 269.97354033 138.85942253 266.84825917 139.1875 263.72265625 C139.28289062 262.85253906 139.37828125 261.98242188 139.4765625 261.0859375 C139.94147556 256.60284728 140.29991705 252.12693538 140.4375 247.62109375 C140.46328125 246.82364746 140.4890625 246.02620117 140.515625 245.20458984 C140.10966964 242.5978973 139.19211269 241.74157054 137.1875 240.09765625 C133.98487944 243.00033867 132.20157991 245.66918436 130.42578125 249.59765625 C129.70745117 251.17546875 129.70745117 251.17546875 128.97460938 252.78515625 C128.24467773 254.42484375 128.24467773 254.42484375 127.5 256.09765625 C127.00177734 257.19078125 126.50355469 258.28390625 125.99023438 259.41015625 C122.92408194 266.19979096 120.53393171 271.51626407 121.1875 279.09765625 C125.95147742 288.62561109 136.79165005 295.62344199 146.1875 300.09765625 C148.47490435 300.40712897 148.47490435 300.40712897 150.1875 299.09765625 C151.73980951 295.14674478 152.5260871 291.4549113 152.93359375 287.2421875 C153.04727295 286.08211182 153.16095215 284.92203613 153.27807617 283.72680664 C153.39256104 282.46731201 153.5070459 281.20781738 153.625 279.91015625 C153.68620026 279.26045868 153.74740051 278.61076111 153.81045532 277.94137573 C155.65468156 258.35882629 156.89377313 238.72264707 158.1875 219.09765625 C161.74828411 222.63816543 165.02177649 226.2083388 168.1875 230.09765625 C172.27857699 227.49752199 172.27857699 227.49752199 175.9375 224.34765625 C176.35 223.93515625 176.7625 223.52265625 177.1875 223.09765625 C177.8475 223.09765625 178.5075 223.09765625 179.1875 223.09765625 C185.91100594 207.38823241 188.77244256 190.09961587 191.71020508 173.37817383 C192.1875 171.09765625 192.1875 171.09765625 193.1875 169.09765625 C195.06761852 168.63287416 196.96882848 168.25276126 198.875 167.91015625 C209.84783344 165.50119172 222.25304552 160.32621597 229.1875 151.09765625 C240.77116615 131.34679791 246.53798412 107.32569136 251.1875 85.09765625 C251.57421875 83.30134766 251.57421875 83.30134766 251.96875 81.46875 C254.82110617 66.17486661 251.50002381 50.43893538 249.0625 35.28515625 C248.48924778 31.71737378 247.92539166 28.14828895 247.3671875 24.578125 C247.23392059 23.76885056 247.10065369 22.95957611 246.96334839 22.1257782 C246.07472029 16.43599538 246.07472029 16.43599538 247.1875 13.09765625 C263.79318817 42.4769507 269.02354047 79.43205331 272.4375 112.59765625 C272.52217529 113.39179932 272.60685059 114.18594238 272.6940918 115.00415039 C273.11212148 119.64988704 273.18783211 124.18933518 273.0058136 128.85264587 C271.69588312 143.34497425 271.69588312 143.34497425 275.89453125 156.45507812 C280.43175498 160.3743436 285.49292797 162.40075833 291.1875 164.09765625 C290.57589908 167.83079075 288.92806333 170.05345419 286.625 173.01171875 C285.91085937 173.93726563 285.19671875 174.8628125 284.4609375 175.81640625 C283.71070313 176.77546875 282.96046875 177.73453125 282.1875 178.72265625 C280.70701966 180.63049173 279.22778836 182.53929733 277.75 184.44921875 C277.09128906 185.29307129 276.43257813 186.13692383 275.75390625 187.00634766 C272.86950456 190.85731163 273.08142998 193.42995365 273.125 198.22265625 C273.1559375 201.62578125 273.1559375 201.62578125 273.1875 205.09765625 C278.1375 207.07765625 283.0875 209.05765625 288.1875 211.09765625 C287.25346617 214.83379159 286.51853994 216.33461403 284.31640625 219.3203125 C283.74212891 220.10599609 283.16785156 220.89167969 282.57617188 221.70117188 C281.97353516 222.51263672 281.37089844 223.32410156 280.75 224.16015625 C279.56348511 225.77580893 278.37727454 227.39168516 277.19140625 229.0078125 C276.66361572 229.72074463 276.1358252 230.43367676 275.59204102 231.16821289 C272.71043724 235.12672403 271.8769485 237.41120452 271.5625 242.28515625 C271.48773438 243.37183594 271.41296875 244.45851562 271.3359375 245.578125 C271.28695313 246.40957031 271.23796875 247.24101562 271.1875 248.09765625 C271.86167969 248.32195312 272.53585937 248.54625 273.23046875 248.77734375 C277.02938632 250.47355794 280.15909576 252.76600782 283.5 255.22265625 C284.14517578 255.69058594 284.79035156 256.15851563 285.45507812 256.640625 C287.03598894 257.78824915 288.61222301 258.94231102 290.1875 260.09765625 C288.85117003 263.02730272 287.35381673 265.22303984 285.1875 267.59765625 C284.27097656 268.64179687 284.27097656 268.64179687 283.3359375 269.70703125 C281.76680232 271.45305076 280.16268801 273.1678139 278.5390625 274.86328125 C272.98333035 280.84942893 270.07647442 285.39763174 270.0546875 293.89453125 C270.09851563 294.6215625 270.14234375 295.34859375 270.1875 296.09765625 C271.425 296.46890625 272.6625 296.84015625 273.9375 297.22265625 C279.99041599 299.22098736 285.55104009 302.15067467 291.1875 305.09765625 C288.409467 309.72771125 285.15096656 313.24648314 281.28515625 317.00390625 C278.58911375 319.69492819 276.10979099 322.54186537 273.6328125 325.43359375 C272.53347202 326.69932089 271.3729566 327.91219965 270.1875 329.09765625 C268.59471583 334.18923409 267.7769355 339.20202097 270.1875 344.09765625 C275.6510403 349.40653158 282.58359711 353.02908726 289.25976562 356.59643555 C289.89591797 357.09183838 290.53207031 357.58724121 291.1875 358.09765625 C291.1875 362.09765625 291.1875 362.09765625 289.89453125 363.5625 C289.26933594 364.04847656 288.64414062 364.53445313 288 365.03515625 C283.20405244 368.97007193 278.91444617 373.313468 274.58129883 377.74194336 C270.38880235 381.99700508 270.38880235 381.99700508 268.1875 383.09765625 C267.87508629 385.64706998 267.67446579 388.10127138 267.5625 390.66015625 C267.52382813 391.37107422 267.48515625 392.08199219 267.4453125 392.81445312 C267.35078217 394.5750805 267.26804183 396.33633353 267.1875 398.09765625 C268.06615723 398.37399902 268.94481445 398.6503418 269.85009766 398.93505859 C272.91727696 400.00352296 275.69166369 401.23505671 278.5859375 402.69921875 C279.55917969 403.1890625 280.53242188 403.67890625 281.53515625 404.18359375 C282.53417969 404.69148438 283.53320312 405.199375 284.5625 405.72265625 C285.58472656 406.23828125 286.60695313 406.75390625 287.66015625 407.28515625 C290.17112669 408.55237498 292.68014561 409.82330181 295.1875 411.09765625 C291.61160301 418.66799046 284.3653648 424.03570848 278.09765625 429.40625 C275.58553094 431.63068815 273.25098834 434.004352 270.92578125 436.421875 C269.1875 438.09765625 269.1875 438.09765625 266.58203125 439.546875 C262.67488571 443.70897294 262.99715045 448.70003871 262.5625 454.22265625 C260.87243387 473.54422306 260.87243387 473.54422306 256.20703125 479.71875 C248.14311734 486.35542251 240.69136607 489.29965367 230.1875 489.09765625 C230.1875 490.41765625 230.1875 491.73765625 230.1875 493.09765625 C222.10222452 493.99895565 214.13075897 494.22207767 206 494.16015625 C204.85724609 494.15564453 203.71449219 494.15113281 202.53710938 494.14648438 C199.7538489 494.13483893 196.97070428 494.11848622 194.1875 494.09765625 C194.5175 493.10765625 194.8475 492.11765625 195.1875 491.09765625 C191.2275 490.76765625 187.2675 490.43765625 183.1875 490.09765625 C183.1875 491.41765625 183.1875 492.73765625 183.1875 494.09765625 C171.9675 494.09765625 160.7475 494.09765625 149.1875 494.09765625 C149.8475 492.77765625 150.5075 491.45765625 151.1875 490.09765625 C147.5575 490.09765625 143.9275 490.09765625 140.1875 490.09765625 C139.8575 491.41765625 139.5275 492.73765625 139.1875 494.09765625 C135.20812229 493.95726073 131.22905706 493.80934306 127.25 493.66015625 C125.57454102 493.60118164 125.57454102 493.60118164 123.86523438 493.54101562 C117.59166292 493.30184721 111.41670611 492.88373846 105.1875 492.09765625 C108.47320836 487.50608944 112.32873803 484.48017423 116.8125 481.16015625 C118.33260499 480.01638712 119.85211555 478.87182764 121.37109375 477.7265625 C122.1585498 477.13504395 122.94600586 476.54352539 123.75732422 475.93408203 C127.8258126 472.85962256 131.85086257 469.7298113 135.875 466.59765625 C136.61637207 466.02281494 137.35774414 465.44797363 138.12158203 464.85571289 C141.33174902 462.35928255 144.50038347 459.84533213 147.58203125 457.19140625 C150.1875 455.09765625 150.1875 455.09765625 152.1875 455.09765625 C152.35185547 453.50630859 152.35185547 453.50630859 152.51953125 451.8828125 C153.10458214 447.21159469 154.09819713 442.66152835 155.10449219 438.06542969 C160.37287356 413.92702834 164.4483403 389.38601296 166.8125 364.78515625 C166.97153809 363.3480127 166.97153809 363.3480127 167.13378906 361.88183594 C167.82835151 353.23873821 165.25804752 345.86551574 159.625 339.22265625 C158.93277344 338.40410156 158.24054688 337.58554687 157.52734375 336.7421875 C156.36912109 335.43314453 156.36912109 335.43314453 155.1875 334.09765625 C154.75453613 333.60442871 154.32157227 333.11120117 153.87548828 332.60302734 C145.80416265 323.44556391 137.1503351 315.67760712 127.4375 308.28515625 C126.69628906 307.71345703 125.95507812 307.14175781 125.19140625 306.55273438 C124.47339844 306.00423828 123.75539063 305.45574219 123.015625 304.890625 C122.3752832 304.40102295 121.73494141 303.9114209 121.07519531 303.40698242 C118.33190576 301.5042067 116.18907791 300.12401356 112.8125 300.03515625 C107.84800756 302.04459366 105.32975314 305.85969947 102.94140625 310.5390625 C99.80489817 318.09753279 97.87143146 325.94443568 95.8125 333.84765625 C90.32165376 354.7713895 83.05822961 375.67825268 63.61328125 387.6875 C51.33846109 394.17266532 35.89474488 395.58543102 22.5625 391.47265625 C6.44562825 385.05284382 -2.31278859 372.88082173 -9.40234375 357.69140625 C-13.62301042 347.39163613 -15.90838545 336.62644065 -18.10180664 325.74414062 C-20.06930168 316.52945672 -22.95264241 309.5059559 -29.875 302.97265625 C-32.56718514 300.84248443 -32.56718514 300.84248443 -35.18359375 301.26953125 C-48.26441908 305.39008841 -61.88447354 320.88608531 -71.8125 330.09765625 C-72.87597656 331.07992187 -72.87597656 331.07992187 -73.9609375 332.08203125 C-79.77975389 337.65561017 -87.91139177 345.73979357 -89.09350586 354.08032227 C-89.07953059 362.50927077 -87.70086725 370.73566392 -86.375 379.03515625 C-86.24644623 379.85304626 -86.11789246 380.67093628 -85.98544312 381.51361084 C-83.68813998 396.12320611 -81.23810124 410.70896484 -78.71871948 425.2817688 C-78.32391246 427.56986371 -77.93223306 429.85850056 -77.54373169 432.14767456 C-76.99412404 435.37512462 -76.43069371 438.59985749 -75.86328125 441.82421875 C-75.61973907 443.27328865 -75.61973907 443.27328865 -75.37127686 444.75163269 C-73.90912614 452.90092961 -71.37915781 457.06316847 -64.6875 462.03515625 C-63.42815845 462.9966986 -62.17041909 463.960342 -60.9140625 464.92578125 C-60.24922852 465.43560547 -59.58439453 465.94542969 -58.89941406 466.47070312 C-55.22610837 469.33440331 -51.64763645 472.31235935 -48.0625 475.28515625 C-42.02447854 480.28169529 -35.95907277 485.23476575 -29.8125 490.09765625 C-32.64129286 492.92644911 -34.61174198 492.41192285 -38.5703125 492.51171875 C-39.56488968 492.54076797 -39.56488968 492.54076797 -40.57955933 492.57040405 C-42.69874177 492.63021579 -44.8179785 492.67659013 -46.9375 492.72265625 C-48.37372169 492.7608347 -49.80992045 492.79988636 -51.24609375 492.83984375 C-54.76801936 492.9359175 -58.29011608 493.01994267 -61.8125 493.09765625 C-62.1425 492.43765625 -62.4725 491.77765625 -62.8125 491.09765625 C-65.4525 491.09765625 -68.0925 491.09765625 -70.8125 491.09765625 C-70.8125 492.08765625 -70.8125 493.07765625 -70.8125 494.09765625 C-82.3625 494.09765625 -93.9125 494.09765625 -105.8125 494.09765625 C-105.8125 493.43765625 -105.8125 492.77765625 -105.8125 492.09765625 C-108.7825 492.42765625 -111.7525 492.75765625 -114.8125 493.09765625 C-114.8125 493.42765625 -114.8125 493.75765625 -114.8125 494.09765625 C-119.1175091 494.12249431 -123.42247951 494.14058137 -127.72753906 494.15258789 C-129.19011157 494.1575967 -130.65267911 494.16440563 -132.11523438 494.1730957 C-134.22527291 494.18531323 -136.33524487 494.1909192 -138.4453125 494.1953125 C-139.71262207 494.20054932 -140.97993164 494.20578613 -142.28564453 494.21118164 C-145.559696 494.10579372 -148.60139152 493.72215851 -151.8125 493.09765625 C-151.8125 492.10765625 -151.8125 491.11765625 -151.8125 490.09765625 C-152.41835937 490.06027344 -153.02421875 490.02289063 -153.6484375 489.984375 C-162.16192062 489.31639402 -171.26712389 488.00445908 -177.8125 482.09765625 C-183.02351189 472.06163335 -183.87721891 458.78063361 -185.08984375 447.671875 C-185.97246104 444.52784907 -187.14758829 443.84734576 -189.8125 442.09765625 C-189.8125 441.43765625 -189.8125 440.77765625 -189.8125 440.09765625 C-190.4725 440.09765625 -191.1325 440.09765625 -191.8125 440.09765625 C-193.29296875 438.55859375 -193.29296875 438.55859375 -195 436.47265625 C-197.9225663 433.00978358 -200.97080902 430.12254717 -204.52734375 427.32421875 C-204.95144531 426.91945313 -205.37554687 426.5146875 -205.8125 426.09765625 C-205.8125 425.43765625 -205.8125 424.77765625 -205.8125 424.09765625 C-206.4725 424.09765625 -207.1325 424.09765625 -207.8125 424.09765625 C-209.46875 422.48828125 -209.46875 422.48828125 -211.3125 420.34765625 C-211.9209375 419.6515625 -212.529375 418.95546875 -213.15625 418.23828125 C-214.69801036 416.24562872 -215.72704589 414.35724536 -216.8125 412.09765625 C-216.28406494 411.82091064 -215.75562988 411.54416504 -215.21118164 411.2590332 C-212.7651884 409.9772143 -210.32009216 408.69369309 -207.875 407.41015625 C-207.04419922 406.97509766 -206.21339844 406.54003906 -205.35742188 406.09179688 C-199.79780213 403.17137405 -194.28807346 400.17275155 -188.8125 397.09765625 C-188.29171239 387.61374622 -188.29171239 387.61374622 -191.859375 379.15625 C-194.42084359 376.67628269 -197.0792674 374.38547316 -199.8125 372.09765625 C-201.11521604 370.71025122 -202.38982109 369.29551497 -203.625 367.84765625 C-204.37716797 366.97367187 -204.37716797 366.97367187 -205.14453125 366.08203125 C-207.37570381 363.42761518 -209.59483632 360.76337083 -211.8125 358.09765625 C-204.8125 354.09765625 -197.8125 350.09765625 -190.8125 346.09765625 C-189.21418535 335.6881288 -189.21418535 335.6881288 -192.10595703 325.86962891 C-195.36332656 321.72625487 -199.16537486 318.20466794 -203.08740234 314.70117188 C-205.62294289 312.34433203 -207.7248799 309.85986105 -209.8125 307.09765625 C-209.8125 306.43765625 -209.8125 305.77765625 -209.8125 305.09765625 C-207.02378823 303.75807704 -204.23106938 302.4270719 -201.4375 301.09765625 C-200.6434375 300.71609375 -199.849375 300.33453125 -199.03125 299.94140625 C-198.27070313 299.58046875 -197.51015625 299.21953125 -196.7265625 298.84765625 C-196.0248291 298.5125 -195.3230957 298.17734375 -194.60009766 297.83203125 C-192.8125 297.09765625 -192.8125 297.09765625 -190.8125 297.09765625 C-190.30629248 287.06868537 -190.30629248 287.06868537 -193.82421875 277.9375 C-196.39150026 275.20509472 -199.07304403 272.65631599 -201.8125 270.09765625 C-203.3894684 268.2734192 -204.93408736 266.42047335 -206.4375 264.53515625 C-207.08976563 263.72949219 -207.74203125 262.92382812 -208.4140625 262.09375 C-209.8125 260.09765625 -209.8125 260.09765625 -209.8125 258.09765625 C-200.9025 256.11765625 -200.9025 256.11765625 -191.8125 254.09765625 C-191.46718935 240.63054092 -193.13592017 233.11833862 -201.3046875 222.4921875 C-203.82462518 219.19383468 -205.82336026 215.73824457 -207.8125 212.09765625 C-203.1925 209.78765625 -198.5725 207.47765625 -193.8125 205.09765625 C-193.791875 203.26203125 -193.77125 201.42640625 -193.75 199.53515625 C-193.73839844 198.50261719 -193.72679687 197.47007812 -193.71484375 196.40625 C-193.76318359 194.76849609 -193.76318359 194.76849609 -193.8125 193.09765625 C-193.8434375 191.98132813 -193.874375 190.865 -193.90625 189.71484375 C-195.17429764 184.65358462 -197.97764976 181.64789694 -201.375 177.78515625 C-202.58862732 176.37582358 -203.79847453 174.9632239 -205.00390625 173.546875 C-205.54217041 172.93158936 -206.08043457 172.31630371 -206.63500977 171.68237305 C-207.8125 170.09765625 -207.8125 170.09765625 -207.8125 168.09765625 C-208.4725 168.09765625 -209.1325 168.09765625 -209.8125 168.09765625 C-210.1425 166.44765625 -210.4725 164.79765625 -210.8125 163.09765625 C-208.35629149 161.92632567 -205.89775083 160.76043903 -203.4375 159.59765625 C-202.73882812 159.26378906 -202.04015625 158.92992187 -201.3203125 158.5859375 C-196.0390625 156.09765625 -196.0390625 156.09765625 -193.8125 156.09765625 C-193.97476074 155.5469043 -194.13702148 154.99615234 -194.30419922 154.42871094 C-194.87275738 151.82131743 -194.94205689 149.46945003 -194.9453125 146.80078125 C-194.94764893 145.76824219 -194.94998535 144.73570312 -194.95239258 143.671875 C-194.92763953 138.14666946 -194.88799919 132.62242066 -194.8125 127.09765625 C-194.80524902 126.32744141 -194.79799805 125.55722656 -194.79052734 124.76367188 C-194.6147162 112.59396508 -192.0058006 100.89264945 -189.44580078 89.04052734 C-188.89377658 86.47533857 -188.36187669 83.90735108 -187.83984375 81.3359375 C-185.48322938 69.94882797 -182.25326485 58.84593548 -178.89990234 47.71728516 C-177.88583903 44.3417794 -176.88328048 40.96311426 -175.8840332 37.58320618 C-174.98472489 34.54611503 -174.07918638 31.51090486 -173.17218018 28.47610474 C-172.72537335 26.9782085 -172.28049624 25.47973524 -171.83758545 23.98068237 C-171.2143293 21.87453169 -170.58283519 19.77102218 -169.94921875 17.66796875 C-169.58530029 16.44867676 -169.22138184 15.22938477 -168.84643555 13.97314453 C-167.8125 11.09765625 -167.8125 11.09765625 -165.8125 9.09765625 C-166.80088395 18.93899289 -168.02452527 28.70594587 -169.56640625 38.4765625 C-174.56925764 67.95173822 -174.56925764 67.95173822 -168.24169922 96.56689453 C-166.43474979 101.03086833 -164.8914768 105.56455191 -163.34765625 110.125 C-154.64957824 140.95564691 -154.64957824 140.95564691 -132.20214844 161.20751953 C-126.27639153 164.1055712 -120.09251077 166.10882186 -113.8125 168.09765625 C-113.6673999 168.92676514 -113.5222998 169.75587402 -113.37280273 170.61010742 C-108.92965883 203.05683596 -108.92965883 203.05683596 -93.8125 231.09765625 C-90.59710783 231.44835163 -90.59710783 231.44835163 -88.3671875 228.69140625 C-87.46558819 227.66746603 -86.57264554 226.6358529 -85.6875 225.59765625 C-84.08083692 223.74521469 -82.4590539 221.91535733 -80.8125 220.09765625 C-80.4825 220.09765625 -80.1525 220.09765625 -79.8125 220.09765625 C-79.74177277 221.02837952 -79.67104553 221.95910278 -79.59817505 222.91802979 C-78.93060735 231.68829576 -78.25422947 240.45784359 -77.56921577 249.22676468 C-77.21732519 253.73499647 -76.86854511 258.24342406 -76.52685547 262.75244141 C-76.19700449 267.10371733 -75.85900678 271.45429048 -75.51534653 275.80449677 C-75.38565481 277.46445024 -75.25890234 279.12463605 -75.13513565 280.78504181 C-74.9613058 283.11030738 -74.77705177 285.43452803 -74.59033203 287.75878906 C-74.54141815 288.44571335 -74.49250427 289.13263763 -74.44210815 289.84037781 C-74.14901228 293.34513578 -73.67335332 296.08292465 -71.8125 299.09765625 C-63.35268266 299.65260054 -57.6595657 294.62324677 -51.50390625 289.2890625 C-45.66640946 284.13916416 -45.66640946 284.13916416 -40.8125 278.09765625 C-41.02496819 271.56071823 -43.06608188 266.59331887 -45.9375 260.78515625 C-46.33767334 259.95717529 -46.73784668 259.12919434 -47.15014648 258.27612305 C-50.27913606 251.91307748 -53.74651777 245.91554079 -57.8125 240.09765625 C-59.95930435 241.81368269 -60.74829423 242.67600903 -61.16894531 245.43847656 C-61.15959961 246.34178711 -61.15025391 247.24509766 -61.140625 248.17578125 C-61.13289063 249.67044922 -61.13289063 249.67044922 -61.125 251.1953125 C-61.0940625 252.75572266 -61.0940625 252.75572266 -61.0625 254.34765625 C-61.05476563 255.88486328 -61.05476563 255.88486328 -61.046875 257.453125 C-60.99221942 262.76154775 -60.72854136 267.86735556 -59.8125 273.09765625 C-58.8225 273.09765625 -57.8325 273.09765625 -56.8125 273.09765625 C-56.04209149 267.03068926 -55.71543888 261.21250652 -55.8125 255.09765625 C-52.24634783 258.2142294 -50.71574851 261.12139095 -49.0625 265.53515625 C-48.42054688 267.20384766 -48.42054688 267.20384766 -47.765625 268.90625 C-46.84773603 271.9796733 -46.29474795 273.94500761 -46.8125 277.09765625 C-50.97457888 283.13786143 -56.49576215 288.3819281 -62.8125 292.09765625 C-64.1325 292.09765625 -65.4525 292.09765625 -66.8125 292.09765625 C-69.50298479 281.87696478 -70.81842222 271.77487013 -71.875 261.28515625 C-72.04551838 259.64701443 -72.21642055 258.00891252 -72.38769531 256.37084961 C-73.70727095 243.63205131 -74.98553937 230.87901942 -75.8125 218.09765625 C-75.95558594 216.40576172 -75.95558594 216.40576172 -76.1015625 214.6796875 C-75.8125 212.09765625 -75.8125 212.09765625 -74.1328125 210.19921875 C-73.40835938 209.71195313 -72.68390625 209.2246875 -71.9375 208.72265625 C-71.21820313 208.21992188 -70.49890625 207.7171875 -69.7578125 207.19921875 C-67.8125 206.09765625 -67.8125 206.09765625 -65.8125 206.09765625 C-67.7925 193.72265625 -67.7925 193.72265625 -69.8125 181.09765625 C-64.22357733 182.96063047 -60.29967935 185.16614934 -55.4921875 188.43945312 C-52.38824793 190.4872491 -52.38824793 190.4872491 -48.8046875 191.1328125 C-45.77614213 189.55915657 -43.1967121 187.49277407 -40.5625 185.34765625 C-39.9540625 184.86031006 -39.345625 184.37296387 -38.71875 183.87084961 C-36.7447031 182.28624565 -34.77870906 180.69197036 -32.8125 179.09765625 C-31.48472681 178.03081199 -30.15660116 176.96440625 -28.828125 175.8984375 C-20.00922391 168.8007693 -11.32941068 161.55502268 -2.8125 154.09765625 C-2.28140625 153.63649414 -1.7503125 153.17533203 -1.203125 152.70019531 C12.85788982 141.18523201 12.85788982 141.18523201 20.5625 125.72265625 C20.41543097 115.5748929 13.61392154 103.58201635 6.61352539 96.48999023 C2.79716012 93.37931078 -0.58271051 93.44424216 -5.3515625 93.56640625 C-6.15483978 93.56314331 -6.95811707 93.55988037 -7.78573608 93.55651855 C-10.33701019 93.54672087 -12.8863951 93.56825009 -15.4375 93.59765625 C-18.80538436 93.63631657 -22.1710293 93.64261998 -25.5390625 93.62890625 C-26.30892487 93.64852417 -27.07878723 93.66814209 -27.87197876 93.68835449 C-31.78506984 93.66933635 -33.42722178 93.47381569 -36.27783203 90.69067383 C-38.2031637 87.43758002 -38.95138989 84.7573742 -39.8125 81.09765625 C-38.87148437 81.071875 -37.93046875 81.04609375 -36.9609375 81.01953125 C-27.54258969 80.86085719 -27.54258969 80.86085719 -19.8125 76.09765625 C-14.53966058 69.39892223 -12.26501763 62.15186205 -12.5 53.6484375 C-13.58321488 44.80669607 -16.6408959 35.68070062 -22.8125 29.09765625 C-27.50566255 25.58017393 -31.93743081 24.34992017 -37.8125 25.09765625 C-43.57023414 27.02289392 -43.57023414 27.02289392 -47.8125 31.09765625 C-48.86936704 35.96831408 -48.98757641 40.71050106 -49.015625 45.66796875 C-49.02263931 46.49354782 -49.02965363 47.31912689 -49.03688049 48.16972351 C-49.05443624 50.85408968 -49.06074324 53.53823459 -49.0625 56.22265625 C-49.06317474 57.14259369 -49.06384949 58.06253113 -49.06454468 59.01034546 C-49.0313503 87.56278719 -45.73694469 115.99117896 -38.38085938 143.63671875 C-37.8125 146.09765625 -37.8125 146.09765625 -37.8125 149.09765625 C-50.60593736 143.323627 -56.80480301 128.49950563 -61.5 116.09765625 C-69.26094171 94.55206295 -71.84480892 71.95428723 -74 49.28515625 C-74.08403076 48.40859375 -74.16806152 47.53203125 -74.25463867 46.62890625 C-74.70752355 41.51351037 -74.87785969 36.47123809 -74.79223633 31.3359375 C-74.81205601 29.14669801 -75.02159518 27.07849087 -75.3125 24.91015625 C-75.85145191 20.70265668 -75.87002886 16.53156155 -75.84375 12.296875 C-75.84149414 11.60315796 -75.83923828 10.90944092 -75.83691406 10.19470215 C-75.83106292 8.49567743 -75.82209665 6.79666394 -75.8125 5.09765625 C-70.55171256 4.54199909 -65.29047433 3.99088142 -60.02880859 3.44360352 C-58.24645789 3.25761491 -56.46422646 3.07047892 -54.68212891 2.88208008 C-52.09049089 2.6083155 -49.49842236 2.33896533 -46.90625 2.0703125 C-46.13575317 1.98797867 -45.36525635 1.90564484 -44.57141113 1.82081604 C-29.69611149 0.29422045 -14.93856621 -0.0427157 0 0 Z " fill="#CDD3CF" transform="translate(216.8125,7.90234375)"/>
<path d="M0 0 C20.82588735 18.99024879 23.18003938 71.63047097 26 98 C26.15662109 99.37599365 26.15662109 99.37599365 26.31640625 100.77978516 C26.88739566 106.44685505 26.97906741 111.90943069 26.71875 117.6015625 C25.62989208 131.11347358 25.62989208 131.11347358 29.71142578 143.39697266 C34.23645857 147.29729235 39.32653938 149.30939296 45 151 C44.38839908 154.7331345 42.74056333 156.95579794 40.4375 159.9140625 C39.72335937 160.83960938 39.00921875 161.76515625 38.2734375 162.71875 C37.52320313 163.6778125 36.77296875 164.636875 36 165.625 C34.51951966 167.53283548 33.04028836 169.44164108 31.5625 171.3515625 C30.90378906 172.19541504 30.24507813 173.03926758 29.56640625 173.90869141 C26.68200456 177.75965538 26.89392998 180.3322974 26.9375 185.125 C26.958125 187.39375 26.97875 189.6625 27 192 C31.95 193.98 36.9 195.96 42 198 C41.06596617 201.73613534 40.33103994 203.23695778 38.12890625 206.22265625 C37.55462891 207.00833984 36.98035156 207.79402344 36.38867188 208.60351562 C35.78603516 209.41498047 35.18339844 210.22644531 34.5625 211.0625 C33.37598511 212.67815268 32.18977454 214.29402891 31.00390625 215.91015625 C30.47611572 216.62308838 29.9483252 217.33602051 29.40454102 218.07055664 C27.06897191 221.2789701 25.84872738 223.05846115 25.8125 227 C25.31416458 232.27053054 23.00374438 235.51789272 20.08203125 239.83203125 C0.79225725 269.18288813 -9.24184508 303.89711972 -12.20898438 338.56689453 C-15.46498284 375.83911551 -15.46498284 375.83911551 -26 385 C-25.69255859 383.44152344 -25.69255859 383.44152344 -25.37890625 381.8515625 C-25.10653653 380.44275361 -24.83441455 379.03389681 -24.5625 377.625 C-24.36043945 376.60599609 -24.36043945 376.60599609 -24.15429688 375.56640625 C-20.27911829 355.33986436 -20.06464829 333.03896441 -25 313 C-25.40605469 311.27910156 -25.40605469 311.27910156 -25.8203125 309.5234375 C-33.79223664 281.71585958 -52.80136909 254.58360581 -69.484375 231.40258789 C-72.61311548 227.0549736 -75.43326238 222.70360899 -78 218 C-76.54712339 216.66072279 -75.08752741 215.32873153 -73.625 214 C-72.81289063 213.2575 -72.00078125 212.515 -71.1640625 211.75 C-69 210 -69 210 -67 210 C-60.27649406 194.29057616 -57.41505744 177.00195962 -54.47729492 160.28051758 C-54 158 -54 158 -53 156 C-51.11988148 155.53521791 -49.21867152 155.15510501 -47.3125 154.8125 C-36.33966656 152.40353547 -23.93445448 147.22855972 -17 138 C-5.41633385 118.24914166 0.35048412 94.22803511 5 72 C5.38671875 70.20369141 5.38671875 70.20369141 5.78125 68.37109375 C8.62952073 53.0991158 5.33066484 37.33133675 2.9375 22.1875 C2.51412058 19.47300417 2.09278781 16.75821002 1.67372131 14.04304504 C1.41508353 12.37095479 1.15368535 10.6992885 0.8891449 9.02812195 C0.41436631 5.9862054 0 3.08409111 0 0 Z " fill="#7A7A94" transform="translate(463,21)"/>
<path d="M0 0 C1.14737905 3.47587408 0.87501985 6.14422067 0.33154297 9.73974609 C0.16161835 10.8955014 -0.00830627 12.05125671 -0.18338013 13.24203491 C-0.37294281 14.48989777 -0.56250549 15.73776062 -0.7578125 17.0234375 C-1.0422915 18.99982681 -1.32673986 20.97622104 -1.6094799 22.95285988 C-2.30627429 27.8142107 -3.01664108 32.6733516 -3.75341797 37.52880859 C-4.16578659 40.25127151 -4.56468171 42.97509998 -4.94967651 45.7015686 C-5.31148321 48.26009133 -5.69196283 50.81607032 -6.09451294 53.36849976 C-7.31107899 62.19626001 -6.40427298 69.44399968 -4 78 C-3.77852295 78.79444519 -3.5570459 79.58889038 -3.32885742 80.40740967 C-2.74000586 82.38674215 -2.10164507 84.33908897 -1.43359375 86.29296875 C-1.08110565 87.35314461 -1.08110565 87.35314461 -0.72149658 88.43473816 C0.03109864 90.6887124 0.7955024 92.93838942 1.5625 95.1875 C1.82533783 95.96337463 2.08817566 96.73924927 2.35897827 97.53863525 C3.96642251 102.28220205 5.5916987 107.0193844 7.22680664 111.753479 C7.96530913 113.89920533 8.69593601 116.04743192 9.42382812 118.19677734 C10.69134269 121.93310654 11.99796663 125.65493008 13.3125 129.375 C13.86949585 131.02085083 13.86949585 131.02085083 14.43774414 132.69995117 C18.00740783 142.55704618 23.47580311 146.68804788 32.6875 151.125 C33.31849609 151.44597656 33.94949219 151.76695312 34.59960938 152.09765625 C40.52142802 155.01463517 46.71628795 157.00999344 53 159 C53.1451001 159.82910889 53.2902002 160.65821777 53.43969727 161.51245117 C58.70848935 193.41740321 58.70848935 193.41740321 73 222 C73.69457351 223.31901094 74.37161397 224.64820371 75 226 C74.33355469 226.87398437 73.66710937 227.74796875 72.98046875 228.6484375 C66.20042271 237.65079744 60.17198837 246.93978751 54.41796875 256.62451172 C52.98129692 259.03133281 51.52464618 261.42498708 50.0625 263.81640625 C34.73759352 287.66583818 34.73759352 287.66583818 25 314 C24.83780975 314.63143417 24.67561951 315.26286835 24.5085144 315.91343689 C23.10674716 321.60153311 22.70654422 326.92157668 22.734375 332.765625 C22.73246155 333.6797113 22.7305481 334.59379761 22.72857666 335.5355835 C22.72722282 337.46513139 22.73086294 339.39468864 22.73925781 341.32421875 C22.74981915 344.20074325 22.73941286 347.07662158 22.7265625 349.953125 C22.71833917 362.74041054 23.56448098 375.29614715 25 388 C15.16480079 378.16480079 14.54954454 351.92441747 12.58325195 338.80175781 C7.466611 304.72716438 -1.52860826 269.88504169 -21 241 C-23.53985125 237.2100039 -25.07126631 233.98549937 -25.625 229.4375 C-26.69396824 222.96430345 -30.59681979 218.4684711 -34.4921875 213.39453125 C-37.01212518 210.09617843 -39.01086026 206.64058832 -41 203 C-36.38 200.69 -31.76 198.38 -27 196 C-26.979375 194.164375 -26.95875 192.32875 -26.9375 190.4375 C-26.92589844 189.40496094 -26.91429688 188.37242187 -26.90234375 187.30859375 C-26.95068359 185.67083984 -26.95068359 185.67083984 -27 184 C-27.0309375 182.88367188 -27.061875 181.76734375 -27.09375 180.6171875 C-28.36179764 175.55592837 -31.16514976 172.55024069 -34.5625 168.6875 C-35.77612732 167.27816733 -36.98597453 165.86556765 -38.19140625 164.44921875 C-38.72967041 163.83393311 -39.26793457 163.21864746 -39.82250977 162.5847168 C-41 161 -41 161 -41 159 C-41.66 159 -42.32 159 -43 159 C-43.33 157.35 -43.66 155.7 -44 154 C-41.54379149 152.82866942 -39.08525083 151.66278278 -36.625 150.5 C-35.92632812 150.16613281 -35.22765625 149.83226562 -34.5078125 149.48828125 C-29.2265625 147 -29.2265625 147 -27 147 C-27.16226074 146.44924805 -27.32452148 145.89849609 -27.49169922 145.33105469 C-28.06025738 142.72366118 -28.12955689 140.37179378 -28.1328125 137.703125 C-28.13514893 136.67058594 -28.13748535 135.63804687 -28.13989258 134.57421875 C-28.11513953 129.04901321 -28.07549919 123.52476441 -28 118 C-27.99274902 117.22978516 -27.98549805 116.45957031 -27.97802734 115.66601562 C-27.8022162 103.49630883 -25.1933006 91.7949932 -22.63330078 79.94287109 C-22.08127658 77.37768232 -21.54937669 74.80969483 -21.02734375 72.23828125 C-18.41536688 59.61726563 -14.71955676 47.33142857 -11 35 C-10.57334865 33.57867902 -10.1469278 32.15728883 -9.72070312 30.73583984 C-8.35951395 26.19767069 -6.99328617 21.66103388 -5.625 17.125 C-5.40213318 16.38514862 -5.17926636 15.64529724 -4.949646 14.88302612 C-4.3148152 12.77816727 -3.67738309 10.67411531 -3.0390625 8.5703125 C-2.66990723 7.35102051 -2.30075195 6.13172852 -1.92041016 4.87548828 C-1 2 -1 2 0 0 Z " fill="#7A7A93" transform="translate(50,17)"/>
<path d="M0 0 C5.59864276 4.064972 10.86856423 8.36180511 16 13 C16.98097656 13.8765625 17.96195312 14.753125 18.97265625 15.65625 C51.16774663 44.68005821 51.16774663 44.68005821 52.3125 58.875 C52.23981883 63.22133369 51.36357577 67.26044211 50.4375 71.5 C48.96779509 78.28338204 48.98350397 83.56231211 50.5234375 90.28515625 C57.55670677 123.25997667 44.79213981 155.90627128 27.80078125 183.66015625 C25.94833587 186.51209549 24.01631186 189.26189557 22 192 C21.58975586 192.57524414 21.17951172 193.15048828 20.75683594 193.74316406 C19.43721175 195.59102633 18.09757885 197.42244803 16.75 199.25 C16.1310083 200.11165771 16.1310083 200.11165771 15.49951172 200.99072266 C14.296875 202.578125 14.296875 202.578125 12 205 C7.40848794 205 6.66817876 204.31497074 3.25 201.5 C2.45078125 200.8503125 1.6515625 200.200625 0.828125 199.53125 C0.22484375 199.0259375 -0.3784375 198.520625 -1 198 C-1.33 199.32 -1.66 200.64 -2 202 C-6.11313542 201.43334476 -8.54427949 199.21847166 -11.6875 196.625 C-12.66074219 195.83351562 -13.63398438 195.04203125 -14.63671875 194.2265625 C-17 192 -17 192 -18 189 C-17.01 188.01 -17.01 188.01 -16 187 C-18.97 184.525 -18.97 184.525 -22 182 C-19.37803544 179.35380287 -16.73796479 176.7423608 -14.01953125 174.1953125 C2.52300952 158.49183033 15.60944887 137.71601757 16.2421875 114.3125 C16.28745761 109.20466525 16.19356414 104.10413754 16 99 C14.88882813 98.45472656 13.77765625 97.90945312 12.6328125 97.34765625 C-8.13155599 86.92811762 -8.13155599 86.92811762 -12.23046875 78.45703125 C-13.03779991 75.95165145 -13.59068199 73.59897067 -14 71 C-14.16983398 69.97527588 -14.33966797 68.95055176 -14.51464844 67.89477539 C-15.04910398 63.60595782 -15.16187903 59.44453259 -15.16796875 55.12890625 C-15.17129715 54.28891586 -15.17462555 53.44892548 -15.17805481 52.58348083 C-15.18309693 50.80932152 -15.18546398 49.0351528 -15.18530273 47.26098633 C-15.1874682 44.60155718 -15.20559458 41.94255793 -15.22460938 39.28320312 C-15.25831775 28.68655062 -14.62602883 18.47936426 -13 8 C-3.34119461 17.33923071 -1.10182988 32.23918246 2.10839844 44.86889648 C2.5845459 46.69723022 2.5845459 46.69723022 3.0703125 48.5625 C3.34633301 49.65691406 3.62235352 50.75132813 3.90673828 51.87890625 C5.92943951 57.65340659 8.74413354 61.33646085 14.0625 64.3125 C14.91972656 64.80363281 15.77695312 65.29476562 16.66015625 65.80078125 C19.05330994 67.10181467 19.05330994 67.10181467 22 68 C25.04885684 61.90228632 23.28212809 52.9329085 21.5625 46.625 C19.35688485 40.14064732 16.01018002 34.6171589 12.38671875 28.85546875 C9.94711458 24.96781579 7.72534666 20.98453819 5.5625 16.9375 C5.23282227 16.3305127 4.90314453 15.72352539 4.56347656 15.09814453 C1.87522247 10.04046272 0 5.76743083 0 0 Z " fill="#CCD2CE" transform="translate(363,10)"/>
<path d="M0 0 C5.72101495 1.2044242 9.05925306 3.24965033 13.125 7.5 C13.67921631 8.06968506 14.23343262 8.63937012 14.80444336 9.22631836 C27.82474748 23.01068603 47.6202232 46.31490266 48 66 C47.59980782 72.55870524 45.25249815 76.59492344 40.94921875 81.46875 C38.51168175 83.38360873 37.11050974 83.96235389 34 84 C25.53900355 78.79824717 17.56361712 65.18653758 14 56 C13.82828047 53.26679743 14.17613454 51.64813899 15 49 C16.98 48.505 16.98 48.505 19 48 C20.01320313 49.39025391 20.01320313 49.39025391 21.046875 50.80859375 C21.94737109 52.01863537 22.84844297 53.22824864 23.75 54.4375 C24.1934375 55.04916016 24.636875 55.66082031 25.09375 56.29101562 C27.54647631 59.55530579 28.95928623 61.30526761 33 62 C32.80771432 55.45160429 28.94184572 51.29116003 25.125 46.3125 C24.48691406 45.45849609 23.84882813 44.60449219 23.19140625 43.72460938 C19.35979084 38.63302889 19.35979084 38.63302889 15 34 C13.67997444 36.55886504 12.36886218 39.12167068 11.0625 41.6875 C10.68931641 42.40873047 10.31613281 43.12996094 9.93164062 43.87304688 C6.46600203 50.26210668 6.46600203 50.26210668 6.64453125 57.26171875 C8.05803145 60.19744994 9.49898464 63.10755668 11 66 C11.50950195 66.98589111 11.50950195 66.98589111 12.02929688 67.99169922 C18.32452212 80.05385971 25.30034081 93.30034081 35 103 C37.66242821 103.46290221 37.66242821 103.46290221 40.625 103.625 C42.12933594 103.73714844 42.12933594 103.73714844 43.6640625 103.8515625 C44.82035156 103.92503906 44.82035156 103.92503906 46 104 C46.55353075 115.52164009 46.55353075 115.52164009 43 121 C39.125 117.25 39.125 117.25 38 115 C36.515 114.505 36.515 114.505 35 114 C35.44472656 115.09699219 35.88945312 116.19398438 36.34765625 117.32421875 C36.9199401 118.77838262 37.49151774 120.23282456 38.0625 121.6875 C38.35705078 122.40873047 38.65160156 123.12996094 38.95507812 123.87304688 C40.53631551 127.94705848 41.49159182 130.67864542 40 135 C35.4839271 136.50535763 30.51073725 136.69413819 26 135 C24.90332031 133.44946289 24.90332031 133.44946289 24.078125 131.47265625 C23.77519531 130.76302734 23.47226562 130.05339844 23.16015625 129.32226562 C22.85980469 128.57654297 22.55945313 127.83082031 22.25 127.0625 C21.93417969 126.32064453 21.61835938 125.57878906 21.29296875 124.81445312 C19 119.34011431 19 119.34011431 19 117 C18.34 117.66 17.68 118.32 17 119 C17.37253906 119.89203125 17.74507813 120.7840625 18.12890625 121.703125 C18.60199219 122.87359375 19.07507813 124.0440625 19.5625 125.25 C20.03816406 126.41015625 20.51382813 127.5703125 21.00390625 128.765625 C21.95770524 131.86266644 22.20983356 133.07321701 21 136 C19.10545628 136.10877763 17.20908246 136.18594173 15.3125 136.25 C14.25675781 136.29640625 13.20101562 136.3428125 12.11328125 136.390625 C8.11065191 135.88841304 6.80904643 134.89020668 4 132 C2.07947615 129.32473494 0.40988329 126.53002773 -1.25 123.6875 C-1.72743652 122.88715332 -2.20487305 122.08680664 -2.69677734 121.26220703 C-3.67304697 119.62447818 -4.64556052 117.9845043 -5.61425781 116.34228516 C-6.86176458 114.23365585 -8.12464195 112.13578591 -9.3984375 110.04296875 C-13.32450005 103.58596462 -17.14558855 97.07261103 -20.875 90.5 C-21.24447754 89.85337402 -21.61395508 89.20674805 -21.99462891 88.54052734 C-25.91904686 81.56478857 -29.3960229 75.21349394 -28 67 C-26.08062531 61.52931852 -22.91757186 56.8469948 -19.68261719 52.07373047 C-11.29596353 39.58378012 -8.31665064 25.93541053 -5.1418457 11.39135742 C-4.9068335 10.34955322 -4.67182129 9.30774902 -4.4296875 8.234375 C-4.22585449 7.29819336 -4.02202148 6.36201172 -3.81201172 5.39746094 C-2.94893045 2.8492174 -2.04641389 1.701449 0 0 Z " fill="#979C98" transform="translate(324,325)"/>
<path d="M0 0 C2.95379918 1.39916803 3.42760171 2.89705911 4.61181641 5.84667969 C6.19427858 10.57077982 7.16766027 15.45493335 8.25 20.3125 C10.78022249 31.10260988 13.48396964 40.46555909 19.3203125 49.9609375 C19.86026855 50.84096436 20.40022461 51.72099121 20.95654297 52.62768555 C22.0428766 54.37577026 23.14786861 56.11244097 24.27392578 57.83520508 C27.62965513 63.14185406 29.91089375 67.7252473 29.375 74.125 C28.62586803 77.11471109 27.40787517 79.70352482 26 82.4375 C25.41726318 83.61892578 25.41726318 83.61892578 24.82275391 84.82421875 C0.37128888 132.90509731 0.37128888 132.90509731 -7.4609375 135.8046875 C-9.7545255 136.14417164 -11.93156221 136.25775397 -14.25 136.25 C-15.02601563 136.25257813 -15.80203125 136.25515625 -16.6015625 136.2578125 C-18.625 136.125 -18.625 136.125 -20.625 135.125 C-20.13530705 128.51414524 -18.29057258 123.17522986 -15.625 117.125 C-16.615 117.125 -17.605 117.125 -18.625 117.125 C-18.7384375 117.82109375 -18.851875 118.5171875 -18.96875 119.234375 C-19.70334562 122.47009381 -20.83119388 125.32101579 -22.125 128.375 C-22.5684375 129.43203125 -23.011875 130.4890625 -23.46875 131.578125 C-24.625 134.125 -24.625 134.125 -25.625 135.125 C-27.78980797 135.2239294 -29.95793785 135.254711 -32.125 135.25 C-33.3109375 135.25257813 -34.496875 135.25515625 -35.71875 135.2578125 C-38.625 135.125 -38.625 135.125 -39.625 134.125 C-39.58382627 129.42090164 -38.76081792 125.10358191 -37 120.75 C-35.23374414 117.24522303 -35.23374414 117.24522303 -36.625 114.125 C-38.275 116.435 -39.925 118.745 -41.625 121.125 C-45.07017108 116.93087869 -45.76640424 113.74048836 -45.6875 108.375 C-45.67396484 107.17617188 -45.67396484 107.17617188 -45.66015625 105.953125 C-45.64855469 105.34984375 -45.63695312 104.7465625 -45.625 104.125 C-44.91214844 104.145625 -44.19929687 104.16625 -43.46484375 104.1875 C-42.50707031 104.166875 -41.54929688 104.14625 -40.5625 104.125 C-39.62277344 104.125 -38.68304688 104.125 -37.71484375 104.125 C-30.17698675 101.68544072 -25.73405792 92.62592026 -21.75 86.1875 C-21.24041748 85.36991211 -20.73083496 84.55232422 -20.20581055 83.70996094 C-16.79933947 78.18077098 -13.53272073 72.58431577 -10.4375 66.875 C-10.06318848 66.19703369 -9.68887695 65.51906738 -9.30322266 64.82055664 C-6.55167668 59.60015777 -4.81649214 54.93704709 -6.515625 49.02734375 C-6.96421875 48.04894531 -7.4128125 47.07054687 -7.875 46.0625 C-8.34035156 45.03382813 -8.80570313 44.00515625 -9.28515625 42.9453125 C-9.72730469 42.01460938 -10.16945312 41.08390625 -10.625 40.125 C-10.93308594 39.44179688 -11.24117187 38.75859375 -11.55859375 38.0546875 C-12.93488194 34.99459028 -12.93488194 34.99459028 -15.625 33.125 C-15.89376953 33.70008301 -16.16253906 34.27516602 -16.43945312 34.86767578 C-17.65404067 37.1802945 -19.02694975 39.15392746 -20.59375 41.2421875 C-21.16480469 42.01433594 -21.73585937 42.78648437 -22.32421875 43.58203125 C-23.52100028 45.18898953 -24.72150427 46.79318247 -25.92578125 48.39453125 C-28.96786885 52.5216072 -31.38647712 56.05683399 -32.625 61.125 C-28.83397378 60.91625788 -27.76460711 60.27969977 -25.16796875 57.40234375 C-24.3686667 56.29917481 -23.58379282 55.18543048 -22.8125 54.0625 C-22.40580078 53.49466797 -21.99910156 52.92683594 -21.58007812 52.34179688 C-20.58244838 50.94511523 -19.60198467 49.53620009 -18.625 48.125 C-14.75 49 -14.75 49 -13.625 50.125 C-13.13771132 55.73578107 -14.15077999 58.94123738 -17 63.75 C-17.5249707 64.63872803 -17.5249707 64.63872803 -18.06054688 65.54541016 C-22.05382265 72.12943684 -26.7827691 78.15159221 -31.625 84.125 C-37.0983843 82.70526065 -40.03282195 81.61522256 -43.625 77.125 C-46.99874363 71.30820064 -47.85103253 65.76668616 -46.625 59.125 C-40.80782846 43.7119814 -18.36631757 0.87458655 0 0 Z " fill="#979B98" transform="translate(187.625,324.875)"/>
<path d="M0 0 C20.82588735 18.99024879 23.18003938 71.63047097 26 98 C26.15662109 99.37599365 26.15662109 99.37599365 26.31640625 100.77978516 C26.88739566 106.44685505 26.97906741 111.90943069 26.71875 117.6015625 C25.62989208 131.11347358 25.62989208 131.11347358 29.71142578 143.39697266 C34.23645857 147.29729235 39.32653938 149.30939296 45 151 C44.38839908 154.7331345 42.74056333 156.95579794 40.4375 159.9140625 C39.72335937 160.83960938 39.00921875 161.76515625 38.2734375 162.71875 C37.52320313 163.6778125 36.77296875 164.636875 36 165.625 C34.51951966 167.53283548 33.04028836 169.44164108 31.5625 171.3515625 C30.90378906 172.19541504 30.24507813 173.03926758 29.56640625 173.90869141 C26.68200456 177.75965538 26.89392998 180.3322974 26.9375 185.125 C26.958125 187.39375 26.97875 189.6625 27 192 C31.95 193.98 36.9 195.96 42 198 C41.06596617 201.73613534 40.33103994 203.23695778 38.12890625 206.22265625 C37.55462891 207.00833984 36.98035156 207.79402344 36.38867188 208.60351562 C35.78603516 209.41498047 35.18339844 210.22644531 34.5625 211.0625 C33.37598511 212.67815268 32.18977454 214.29402891 31.00390625 215.91015625 C30.47611572 216.62308838 29.9483252 217.33602051 29.40454102 218.07055664 C27.06897191 221.2789701 25.84872738 223.05846115 25.8125 227 C25.31416458 232.27053054 23.00374438 235.51789272 20.08203125 239.83203125 C7.50774619 258.96476142 -0.65533686 281.12896607 -7 303 C-7.33 303 -7.66 303 -8 303 C-8.2110068 292.00978364 -7.56774798 281.19648956 -6.6875 270.25 C-6.62030762 269.39384094 -6.55311523 268.53768188 -6.48388672 267.65557861 C-5.49759178 255.11675042 -4.27005645 242.62948102 -2.73828125 230.14453125 C-1.95982447 223.79268739 -1.32188926 217.43007407 -0.6875 211.0625 C0.70632297 197.27432996 2.31583346 183.51296778 3.9375 169.75 C4.06752411 168.64203064 4.19754822 167.53406128 4.33151245 166.39251709 C5.59405644 155.63877681 6.86412197 144.88745721 8.27734375 134.15234375 C12.48213331 102.08778716 11.06591308 70.7156447 5.48291016 38.86669922 C4.46963398 32.85158856 3.5730158 26.81735909 2.65960693 20.78640747 C2.31759115 18.53353563 1.97178241 16.28127039 1.62548828 14.02905273 C1.412918 12.6339774 1.20050852 11.23887756 0.98828125 9.84375 C0.79790283 8.59787109 0.60752441 7.35199219 0.41137695 6.06835938 C0 3 0 3 0 0 Z " fill="#332B1E" transform="translate(463,21)"/>
<path d="M0 0 C1.15686608 3.50699853 0.88534114 6.27840403 0.39501953 9.91430664 C0.15949875 11.70119652 0.15949875 11.70119652 -0.08078003 13.52418518 C-0.25779449 14.80655563 -0.43480896 16.08892609 -0.6171875 17.41015625 C-0.79615654 18.74239033 -0.97454367 20.07470271 -1.15237427 21.40708923 C-1.52617129 24.19594882 -1.90492837 26.9840727 -2.28759766 29.77172852 C-2.77788515 33.34412853 -3.25901349 36.91768368 -3.73684502 40.49176884 C-4.10494625 43.24159004 -4.47626611 45.99096831 -4.84872818 48.74020195 C-5.11388371 50.6982592 -5.37761432 52.65650924 -5.6413269 54.61476135 C-5.80464508 55.80286911 -5.96796326 56.99097687 -6.13623047 58.21508789 C-6.35060257 59.78583824 -6.35060257 59.78583824 -6.56930542 61.38832092 C-7 64 -7 64 -8 67 C-11.37729757 91.60784233 -12.98643649 117.05599519 -9.32519531 141.69091797 C-8.50871651 147.48840788 -7.90181727 153.31596208 -7.22924805 159.1315918 C-6.44524974 165.7253727 -5.5372818 172.29596296 -4.5859375 178.8671875 C-2.95047845 190.18747151 -1.47957295 201.52549512 -0.0625 212.875 C0.06595306 213.90149658 0.19440613 214.92799316 0.32675171 215.9855957 C2.1338201 230.47567693 3.82003643 244.97407424 5.3125 259.5 C5.39353973 260.28131287 5.47457947 261.06262573 5.55807495 261.86761475 C6.91479221 275.03300446 8.18987951 288.25253077 8.0625 301.5 C8.05347656 302.7478125 8.04445312 303.995625 8.03515625 305.28125 C8.02355469 306.1784375 8.01195312 307.075625 8 308 C5.54415537 305.54415537 5.38348965 304.00424327 4.63671875 300.63671875 C3.10261912 294.19196331 1.076708 288.03393718 -1.1875 281.8125 C-1.58114746 280.7282373 -1.97479492 279.64397461 -2.38037109 278.52685547 C-7.31463186 265.16496441 -13.02493183 252.83069909 -21 241 C-23.53985125 237.2100039 -25.07126631 233.98549937 -25.625 229.4375 C-26.69396824 222.96430345 -30.59681979 218.4684711 -34.4921875 213.39453125 C-37.01212518 210.09617843 -39.01086026 206.64058832 -41 203 C-36.38 200.69 -31.76 198.38 -27 196 C-26.979375 194.164375 -26.95875 192.32875 -26.9375 190.4375 C-26.92589844 189.40496094 -26.91429688 188.37242187 -26.90234375 187.30859375 C-26.95068359 185.67083984 -26.95068359 185.67083984 -27 184 C-27.0309375 182.88367188 -27.061875 181.76734375 -27.09375 180.6171875 C-28.36179764 175.55592837 -31.16514976 172.55024069 -34.5625 168.6875 C-35.77612732 167.27816733 -36.98597453 165.86556765 -38.19140625 164.44921875 C-38.72967041 163.83393311 -39.26793457 163.21864746 -39.82250977 162.5847168 C-41 161 -41 161 -41 159 C-41.66 159 -42.32 159 -43 159 C-43.33 157.35 -43.66 155.7 -44 154 C-41.54379149 152.82866942 -39.08525083 151.66278278 -36.625 150.5 C-35.92632812 150.16613281 -35.22765625 149.83226562 -34.5078125 149.48828125 C-29.2265625 147 -29.2265625 147 -27 147 C-27.16226074 146.44924805 -27.32452148 145.89849609 -27.49169922 145.33105469 C-28.06025738 142.72366118 -28.12955689 140.37179378 -28.1328125 137.703125 C-28.13514893 136.67058594 -28.13748535 135.63804687 -28.13989258 134.57421875 C-28.11513953 129.04901321 -28.07549919 123.52476441 -28 118 C-27.99274902 117.22978516 -27.98549805 116.45957031 -27.97802734 115.66601562 C-27.8022162 103.49630883 -25.1933006 91.7949932 -22.63330078 79.94287109 C-22.08127658 77.37768232 -21.54937669 74.80969483 -21.02734375 72.23828125 C-18.41536688 59.61726563 -14.71955676 47.33142857 -11 35 C-10.57334865 33.57867902 -10.1469278 32.15728883 -9.72070312 30.73583984 C-8.35951395 26.19767069 -6.99328617 21.66103388 -5.625 17.125 C-5.40213318 16.38514862 -5.17926636 15.64529724 -4.949646 14.88302612 C-4.3148152 12.77816727 -3.67738309 10.67411531 -3.0390625 8.5703125 C-2.66990723 7.35102051 -2.30075195 6.13172852 -1.92041016 4.87548828 C-1 2 -1 2 0 0 Z " fill="#332B1E" transform="translate(50,17)"/>
<path d="M0 0 C5.59864276 4.064972 10.86856423 8.36180511 16 13 C16.98097656 13.8765625 17.96195312 14.753125 18.97265625 15.65625 C51.16774663 44.68005821 51.16774663 44.68005821 52.3125 58.875 C51.86053299 73.40930745 47.12718836 91.80921747 39 104 C33.3749287 104.62500792 28.74204542 103.30679631 23.5 101.5 C22.71753906 101.23227783 21.93507813 100.96455566 21.12890625 100.6887207 C9.35578248 96.50396672 -6.48740327 90.28142924 -12.23828125 78.453125 C-13.03850375 75.95005935 -13.5913424 73.59477739 -14 71 C-14.16983398 69.97527588 -14.33966797 68.95055176 -14.51464844 67.89477539 C-15.04910398 63.60595782 -15.16187903 59.44453259 -15.16796875 55.12890625 C-15.17129715 54.28891586 -15.17462555 53.44892548 -15.17805481 52.58348083 C-15.18309693 50.80932152 -15.18546398 49.0351528 -15.18530273 47.26098633 C-15.1874682 44.60155718 -15.20559458 41.94255793 -15.22460938 39.28320312 C-15.25831775 28.68655062 -14.62602883 18.47936426 -13 8 C-3.34119461 17.33923071 -1.10182988 32.23918246 2.10839844 44.86889648 C2.5845459 46.69723022 2.5845459 46.69723022 3.0703125 48.5625 C3.34633301 49.65691406 3.62235352 50.75132813 3.90673828 51.87890625 C5.92943951 57.65340659 8.74413354 61.33646085 14.0625 64.3125 C14.91972656 64.80363281 15.77695312 65.29476562 16.66015625 65.80078125 C19.05330994 67.10181467 19.05330994 67.10181467 22 68 C25.04885684 61.90228632 23.28212809 52.9329085 21.5625 46.625 C19.35688485 40.14064732 16.01018002 34.6171589 12.38671875 28.85546875 C9.94711458 24.96781579 7.72534666 20.98453819 5.5625 16.9375 C5.23282227 16.3305127 4.90314453 15.72352539 4.56347656 15.09814453 C1.87522247 10.04046272 0 5.76743083 0 0 Z " fill="#7B7B94" transform="translate(363,10)"/>
<path d="M0 0 C0.33 0 0.66 0 1 0 C1.13873535 0.54785156 1.2774707 1.09570312 1.42041016 1.66015625 C6.18482633 20.16128297 12.40272891 38.06521442 18.79296875 56.0546875 C19.07392395 56.85227478 19.35487915 57.64986206 19.64434814 58.47161865 C20.80882243 61.75890007 21.99960203 64.99905208 23.35009766 68.21582031 C25.29854879 72.88842513 26.20570077 76.29975076 25.60498047 81.3684082 C24.88260583 88.63671606 24.83594968 95.8619216 24.83203125 103.16015625 C24.82880428 104.59964529 24.82543923 106.03913402 24.82194519 107.47862244 C24.81600035 110.48144284 24.81410034 113.48423468 24.81469727 116.48706055 C24.8147783 119.52488182 24.80786508 122.56255158 24.79418945 125.6003418 C24.48577764 155.33329915 24.48577764 155.33329915 29.51171875 184.53125 C30 187 30 187 29 190 C18.01639461 163.03632558 11.35936879 134.47838733 4.54351807 106.24505615 C4.03604162 104.14887353 3.52382517 102.05392908 3.00927734 99.95947266 C-3.98784376 71.39262005 -5.34515095 44.65648131 -2.5625 15.3125 C-2.49519684 14.59947723 -2.42789368 13.88645447 -2.35855103 13.15182495 C-1.20767672 1.20767672 -1.20767672 1.20767672 0 0 Z " fill="#9A9FB1" transform="translate(42,83)"/>
<path d="M0 0 C0.33 0 0.66 0 1 0 C4.15242192 31.73102699 3.8451225 60.67820742 -0.38037109 92.32373047 C-0.91049465 96.29749811 -1.40966611 100.27433101 -1.89453125 104.25390625 C-2.13733947 106.19018973 -2.3807527 108.12639752 -2.625 110.0625 C-2.72337158 110.88621094 -2.82174316 111.70992188 -2.9230957 112.55859375 C-3.50797245 116.97034301 -4.55321291 120.78033636 -6.20996094 124.90551758 C-7.73222153 128.94120165 -8.70701798 133.14757105 -9.8125 137.3125 C-15.100347 156.77147176 -21.67125299 175.86110048 -28 195 C-29.10726991 191.11960012 -28.80376536 188.17505499 -28.2578125 184.15625 C-28.07654741 182.7668426 -27.89591056 181.37735313 -27.71582031 179.98779297 C-27.57061951 178.8926236 -27.57061951 178.8926236 -27.42248535 177.77532959 C-25.94876275 166.50349845 -24.64818759 155.24264168 -24.25 143.875 C-24.21213379 142.8017749 -24.17426758 141.7285498 -24.13525391 140.62280273 C-23.96403661 133.88431425 -24.02203297 127.17549463 -24.19061279 120.43817139 C-24.29252732 116.20743312 -24.36121754 111.97630789 -24.43103027 107.74493408 C-24.49793959 104.6575726 -24.61760998 101.57535394 -24.73925781 98.48974609 C-25.09144527 84.59173394 -22.20344011 74.55001042 -16.03857422 62.15402222 C-13.99753327 57.9208654 -12.60413021 53.48955383 -11.25 49 C-10.9725293 48.10321533 -10.69505859 47.20643066 -10.40917969 46.2824707 C-5.80740561 31.09582009 -2.52378389 15.65566756 0 0 Z " fill="#9A9EB1" transform="translate(471,76)"/>
<path d="M0 0 C-0.01571045 1.27713867 -0.0314209 2.55427734 -0.04760742 3.87011719 C-0.46107015 40.79120375 0.87067401 76.60716782 10.43164062 112.5390625 C11 115 11 115 11 118 C-1.79343736 112.22597075 -7.99230301 97.40184938 -12.6875 85 C-19.09495899 67.21188734 -21.98834393 48.72942811 -24 30 C-24.10973145 28.99710938 -24.21946289 27.99421875 -24.33251953 26.9609375 C-24.65275929 23.97521478 -24.95583286 20.98839648 -25.25 18 C-25.34240967 17.09830078 -25.43481934 16.19660156 -25.5300293 15.26757812 C-25.9848257 10.28696839 -25.93549506 5.91803118 -25 1 C-21.02084729 0.83299906 -17.04167558 0.66645506 -13.0625 0.5 C-11.35803711 0.42845703 -11.35803711 0.42845703 -9.61914062 0.35546875 C-7.99975586 0.28779297 -7.99975586 0.28779297 -6.34765625 0.21875 C-5.34742432 0.17685547 -4.34719238 0.13496094 -3.31665039 0.09179688 C-1 0 -1 0 0 0 Z " fill="#DA945A" transform="translate(168,39)"/>
<path d="M0 0 C4.745282 4.3187398 8.11053361 9.2808923 11.625 14.625 C12.23601562 15.5528833 12.84703125 16.4807666 13.4765625 17.43676758 C27.59944517 39.06794842 38.77249183 59.43519438 38 86 C34.79174438 86.05849554 31.58362767 86.09376162 28.375 86.125 C27.47136719 86.14175781 26.56773437 86.15851563 25.63671875 86.17578125 C20.67249848 86.21201643 16.65588093 85.96444146 12 84 C13.33381103 79.69605306 15.00077167 75.63938505 16.81835938 71.52661133 C20.93321456 62.17406271 23.90504473 52.99238533 26 43 C25.37996094 43.49628906 24.75992187 43.99257813 24.12109375 44.50390625 C18.64042803 48.70814327 13.25302575 52.09205793 7 55 C6.35345459 55.30236572 5.70690918 55.60473145 5.04077148 55.91625977 C2.18135102 57.20264112 0.17095949 58 -3 58 C-3.11508205 50.7191423 -2.6516077 43.56725219 -2.0625 36.3125 C-1.1185267 24.21482451 -0.465863 12.12469761 0 0 Z " fill="#8792A2" transform="translate(281,15)"/>
<path d="M0 0 C3.34548616 3.24057544 6.28794984 6.56075607 9.125 10.25 C17.55726959 20.58543423 30.2112281 31.21606452 44 33 C53.44618953 33.61892327 61.49525105 33.63101056 70 29 C70.7940625 28.61070312 71.588125 28.22140625 72.40625 27.8203125 C83.6499255 21.80708098 92.29900215 11.66496842 99 1 C99.495 1.99 99.495 1.99 100 3 C99.10801775 5.53383433 98.15286487 7.92696592 97.0625 10.375 C96.7425708 11.09381348 96.4226416 11.81262695 96.09301758 12.55322266 C88.46321178 29.19637236 77.95957043 41.01539102 61 48 C52.63902979 50.70781421 42.9233302 49.47883716 35 46 C18.00855895 37.09397479 8.48626919 22.129599 1 5 C0.3046875 2.0859375 0.3046875 2.0859375 0 0 Z " fill="#7C7C96" transform="translate(206,333)"/>
<path d="M0 0 C0.33 0 0.66 0 1 0 C1.1451001 0.82387207 1.2902002 1.64774414 1.43969727 2.49658203 C2.00506842 5.66415817 2.58100881 8.82953833 3.16741943 11.99328613 C3.43049775 13.41276295 3.69161128 14.83260533 3.95074463 16.25280762 C5.67801596 25.63263846 8.00869731 34.30195112 11.375 43.25 C14.36380579 51.74277733 14.36380579 51.74277733 13.1171875 56.05078125 C11.39728638 58.36437209 9.5390047 60.31248768 7.48730469 62.32861328 C4.23943744 65.97846541 1.88964426 70.33000507 -0.625 74.5 C-1.46889282 75.87333496 -1.46889282 75.87333496 -2.32983398 77.27441406 C-6.09101387 83.41145482 -9.71398939 89.59302955 -13 96 C-13.33 96 -13.66 96 -14 96 C-13.39772521 84.25044949 -11.92389723 72.63421475 -10.41601562 60.97314453 C-9.99559504 57.71587188 -9.58338146 54.45762831 -9.171875 51.19921875 C-8.90673367 49.12754221 -8.64112617 47.05592526 -8.375 44.984375 C-8.25205566 44.01054871 -8.12911133 43.03672241 -8.00244141 42.03338623 C-7.88562012 41.13774963 -7.76879883 40.24211304 -7.6484375 39.31933594 C-7.49640869 38.13691315 -7.49640869 38.13691315 -7.34130859 36.93060303 C-7 35 -7 35 -6 33 C-5.69993945 30.83718729 -5.43549754 28.66939908 -5.1875 26.5 C-4.09364828 17.52529196 -2.07439101 8.79098713 0 0 Z " fill="#9A9EB1" transform="translate(102,176)"/>
<path d="M0 0 C3.24801162 4.87201742 4.27645338 10.51326666 5.8125 16.125 C5.99018921 16.77181732 6.16787842 17.41863464 6.35095215 18.08505249 C10.46343796 33.12245633 13.61525236 48.28816794 16.0859375 63.6796875 C16.26157227 64.77047607 16.43720703 65.86126465 16.61816406 66.98510742 C16.94640294 69.0590522 17.26414742 71.13469637 17.56933594 73.2121582 C18.36864427 78.37250347 19.32058254 82.49645936 22 87 C28.07328688 87.50610724 31.77228537 86.04157942 37 83 C37.37352531 76.24887592 36.79694421 71.15327727 34 65 C33.608125 64.01 33.21625 63.02 32.8125 62 C32.544375 61.34 32.27625 60.68 32 60 C30.68 60 29.36 60 28 60 C28.66 65.28 29.32 70.56 30 76 C29.01 76 28.02 76 27 76 C24.48877082 67.59186659 22.24785374 59.8795045 23 51 C24.485 50.505 24.485 50.505 26 50 C32.72526309 53.85524636 41.42786845 59.85573691 45 67 C45.12488834 69.61684643 45.18516963 72.19548918 45.1875 74.8125 C45.19974609 75.52470703 45.21199219 76.23691406 45.22460938 76.97070312 C45.23602574 81.08440162 45.05238785 84.39375384 43 88 C38.0415403 92.71658362 29.75836491 94.93882694 23.0625 95.75 C19.56877439 94.89439373 19.34823761 94.54981052 17.53515625 91.6484375 C14.58332627 86.65805703 12.96699663 81.42249242 11.375 75.875 C11.07360107 74.84729492 10.77220215 73.81958984 10.46166992 72.76074219 C4.31450084 51.49794082 -0.29877593 28.08493779 -0.0625 5.875 C-0.05347656 4.75867188 -0.04445313 3.64234375 -0.03515625 2.4921875 C-0.02355469 1.66976563 -0.01195313 0.84734375 0 0 Z " fill="#999E9A" transform="translate(85,357)"/>
<path d="M0 0 C0.33 0 0.66 0 1 0 C1.21790533 9.45691198 0.68252561 18.5194802 -0.6875 27.875 C-0.86756592 29.12732422 -1.04763184 30.37964844 -1.2331543 31.66992188 C-3.59915948 47.62251727 -6.53710987 63.27824204 -11.5625 78.625 C-11.84327393 79.48416016 -12.12404785 80.34332031 -12.41333008 81.22851562 C-14.06035638 86.00073009 -15.81859469 90.05153649 -19 94 C-26.13404168 95.45592687 -33.33712686 91.7047666 -39.7109375 88.73828125 C-42.76554672 86.41865479 -43.19337063 84.7229048 -44 81 C-44.3359375 77.34375 -44.3359375 77.34375 -44.375 73.5 C-44.41753906 71.59734375 -44.41753906 71.59734375 -44.4609375 69.65625 C-43.63274546 63.08686229 -39.83103629 59.50375333 -34.8671875 55.5625 C-34.25101562 55.088125 -33.63484375 54.61375 -33 54.125 C-32.38382812 53.62742187 -31.76765625 53.12984375 -31.1328125 52.6171875 C-27.74960783 49.97451261 -26.4157516 49 -22 49 C-21.58457797 56.81608854 -21.1636452 67.59425921 -26.60546875 73.84375 C-27.29576172 74.41609375 -27.29576172 74.41609375 -28 75 C-28.10477512 69.21408489 -27.99250545 63.70690634 -27 58 C-30.86176419 59.46053902 -32.0317673 61.24117841 -33.75 64.9375 C-36.25677326 70.7329758 -36.54234779 75.76902653 -36 82 C-31.00703705 84.9445679 -26.66442374 85.63495936 -21 86 C-18.43396863 81.42854526 -17.25580257 77.1362333 -16.45703125 72.0078125 C-16.18949757 70.41416311 -15.92157755 68.82057854 -15.65332031 67.22705078 C-15.51655884 66.39465881 -15.37979736 65.56226685 -15.2388916 64.70465088 C-12.92581255 50.71062193 -10.24916059 36.8723916 -6.75 23.125 C-6.58360016 22.46663147 -6.41720032 21.80826294 -6.24575806 21.12994385 C-4.42946152 13.98381114 -2.43523873 6.95997241 0 0 Z " fill="#999E9A" transform="translate(427,359)"/>
<path d="M0 0 C0.42667969 0.3403125 0.85335937 0.680625 1.29296875 1.03125 C15.19024896 11.80522394 29.88416136 21.85803473 48 20 C57.75090507 17.2197012 66.44094319 12.37283858 75 7 C75.83144531 6.48695313 76.66289062 5.97390625 77.51953125 5.4453125 C79.35349773 4.30831752 81.1780884 3.15621313 83 2 C80.59785991 12.40927371 70.96410424 21.66862824 62.1875 27.25 C51.74469919 33.11427553 40.53659222 35.10616757 28.72265625 32.19140625 C15.74162745 27.36319863 7.82940728 17.49736678 1.625 5.5625 C0 2 0 2 0 0 Z " fill="#7B7C95" transform="translate(214,300)"/>
<path d="M0 0 C0.66 0 1.32 0 2 0 C2.16604736 1.12474731 2.16604736 1.12474731 2.33544922 2.2722168 C2.84823173 5.74403724 3.36161343 9.21576883 3.875 12.6875 C4.04902344 13.86634766 4.22304688 15.04519531 4.40234375 16.25976562 C5.24426321 21.95051753 6.09529445 27.63941919 6.9765625 33.32421875 C7.74857104 38.31950112 8.49097664 43.31844598 9.21875 48.3203125 C9.32341583 49.03864761 9.42808167 49.75698273 9.53591919 50.49708557 C9.96601641 53.45052799 10.39578569 56.40401356 10.82275391 59.35791016 C11.95395184 67.17673653 13.09961919 74.97736846 14.63818359 82.72924805 C15.18941204 86.18874585 15.1318995 89.50466333 15 93 C13.41835668 90.62753502 12.29397091 88.58249548 11.15234375 86.0078125 C4.10461217 69.55920326 4.10461217 69.55920326 -7.33203125 56.1328125 C-9.82193097 54.12795818 -10.97024128 53.05199984 -12 50 C-11.43740193 45.06361472 -9.55137793 40.40150891 -7.91015625 35.7421875 C-5.78109581 29.63937794 -4.44722067 23.45649926 -3.1875 17.125 C-2.98157227 16.10921875 -2.77564453 15.0934375 -2.56347656 14.046875 C-1.62910522 9.37658342 -0.74170427 4.70543569 0 0 Z " fill="#9A9FB1" transform="translate(409,179)"/>
<path d="M0 0 C2.87284585 3.41693658 5.12403098 6.80918624 7.20703125 10.75390625 C7.79419922 11.85669922 8.38136719 12.95949219 8.98632812 14.09570312 C9.58896484 15.23974609 10.19160156 16.38378906 10.8125 17.5625 C15.36179739 26.16002712 20.03270932 34.63708193 25 43 C20.6949909 43.02483806 16.39002049 43.04292512 12.08496094 43.05493164 C10.62238843 43.05994045 9.15982089 43.06674938 7.69726562 43.07543945 C5.58722709 43.08765698 3.47725513 43.09326295 1.3671875 43.09765625 C0.09987793 43.10289307 -1.16743164 43.10812988 -2.47314453 43.11352539 C-5.747196 43.00813747 -8.78889152 42.62450226 -12 42 C-11.25721053 36.07775961 -9.40540324 30.54757526 -7.625 24.875 C-5.36665527 17.59301387 -3.20079292 10.35031827 -1.5078125 2.9140625 C-1 1 -1 1 0 0 Z " fill="#342C1F" transform="translate(77,459)"/>
<path d="M0 0 C2.45852206 2.45852206 2.73007847 4.140987 3.5859375 7.49609375 C4.02292969 9.17155273 4.02292969 9.17155273 4.46875 10.88085938 C4.7678125 12.05455078 5.066875 13.22824219 5.375 14.4375 C7.31503813 22.0216756 9.35918102 29.39720554 12.25244141 36.67993164 C13 39 13 39 13 43 C4.91472452 43.9012994 -3.05674103 44.12442142 -11.1875 44.0625 C-12.90163086 44.05573242 -12.90163086 44.05573242 -14.65039062 44.04882812 C-17.4336511 44.03718268 -20.21679572 44.02082997 -23 44 C-15.68496287 29.15192795 -8.00814061 14.48627061 0 0 Z " fill="#342C20" transform="translate(434,458)"/>
<path d="M0 0 C0.93280363 2.79841089 1.1737047 4.73118139 1.28125 7.640625 C1.31863281 8.54683594 1.35601563 9.45304687 1.39453125 10.38671875 C1.44673828 11.80404297 1.44673828 11.80404297 1.5 13.25 C1.75749631 20.46858595 1.75749631 20.46858595 2.52734375 27.64453125 C3.08593788 31.61008796 3.11003399 35.44098871 3.0625 39.4375 C3.05798828 40.16904297 3.05347656 40.90058594 3.04882812 41.65429688 C3.03718148 43.43623419 3.01925191 45.21812863 3 47 C0.5 45.625 0.5 45.625 -2 44 C-2 43.34 -2 42.68 -2 42 C-2.66 42 -3.32 42 -4 42 C-5.48046875 40.4609375 -5.48046875 40.4609375 -7.1875 38.375 C-10.1100663 34.91212733 -13.15830902 32.02489092 -16.71484375 29.2265625 C-17.13894531 28.82179688 -17.56304687 28.41703125 -18 28 C-18 27.34 -18 26.68 -18 26 C-18.66 26 -19.32 26 -20 26 C-21.65625 24.390625 -21.65625 24.390625 -23.5 22.25 C-24.1084375 21.55390625 -24.716875 20.8578125 -25.34375 20.140625 C-26.88551036 18.14797247 -27.91454589 16.25958911 -29 14 C-26.00074658 12.41524955 -23.00045992 10.83246479 -20 9.25 C-19.16082031 8.8065625 -18.32164063 8.363125 -17.45703125 7.90625 C-14.97466303 6.59771482 -12.48876901 5.29631708 -10 4 C-9.22785156 3.59716797 -8.45570312 3.19433594 -7.66015625 2.77929688 C-2.23881173 0 -2.23881173 0 0 0 Z " fill="#332C1F" transform="translate(29,406)"/>
<path d="M0 0 C15.18 0 30.36 0 46 0 C44.10108444 5.69674667 42.41667626 8.06808283 38.25 11.9375 C34.77279652 15.25027598 31.51804867 18.46025872 28.625 22.3125 C26 25 26 25 23.0625 25.0625 C21.5465625 24.5365625 21.5465625 24.5365625 20 24 C18.89011719 23.79890625 17.78023437 23.5978125 16.63671875 23.390625 C11.79578767 21.53952783 10.33824678 19.01086125 7.75 14.6875 C7.32976562 14.02298828 6.90953125 13.35847656 6.4765625 12.67382812 C5.29493032 10.79547885 4.14559696 8.90045979 3 7 C2.40703125 6.05769531 1.8140625 5.11539062 1.203125 4.14453125 C0 2 0 2 0 0 Z " fill="#928169" transform="translate(238,8)"/>
<path d="M0 0 C-2.12275582 7.33627641 -4.52519201 14.54762295 -7.0625 21.75 C-7.76204855 23.74467604 -8.46127697 25.73946438 -9.16015625 27.734375 C-9.64186279 29.10819336 -9.64186279 29.10819336 -10.13330078 30.50976562 C-11.11529376 33.33126659 -12.06831391 36.16149524 -13 39 C-16.97937771 38.85960448 -20.95844294 38.71168681 -24.9375 38.5625 C-26.05447266 38.52318359 -27.17144531 38.48386719 -28.32226562 38.44335938 C-34.59583708 38.20419096 -40.77079389 37.78608221 -47 37 C-43.71429164 32.40843319 -39.85876197 29.38251798 -35.375 26.0625 C-33.85489501 24.91873087 -32.33538445 23.77417139 -30.81640625 22.62890625 C-30.0289502 22.0373877 -29.24149414 21.44586914 -28.43017578 20.83642578 C-24.3616874 17.76196631 -20.33663743 14.63215505 -16.3125 11.5 C-15.57112793 10.92515869 -14.82975586 10.35031738 -14.06591797 9.75805664 C-10.85575098 7.2616263 -7.68711653 4.74767588 -4.60546875 2.09375 C-2 0 -2 0 0 0 Z " fill="#332B1E" transform="translate(369,463)"/>
<path d="M0 0 C0.66 0 1.32 0 2 0 C3.37212301 1.53195272 4.6715446 3.12921081 5.9375 4.75 C9.32073011 8.98582581 12.80077881 13.03877226 16.5 17 C20.89023233 21.71259205 25.01372778 26.58359826 29.02734375 31.625 C30.97497465 34.04477751 30.97497465 34.04477751 33.25390625 36.25 C35 38 35 38 35 39 C23.45 39 11.9 39 0 39 C0 26.13 0 13.26 0 0 Z " fill="#332C1F" transform="translate(111,463)"/>
<path d="M0 0 C0.33 0 0.66 0 1 0 C1.23242627 8.59008754 0.34180636 17.02362161 -0.5 25.5625 C-0.995 30.656875 -1.49 35.75125 -2 41 C-13.22 41 -24.44 41 -36 41 C-32.59188886 37.02387034 -29.21621831 33.10434392 -25.6875 29.25 C-22.5742015 25.80980516 -19.59347469 22.30417502 -16.6875 18.6875 C-13.10039763 14.25600008 -9.35902445 10.00624453 -5.5 5.8125 C-4.97108154 5.2352417 -4.44216309 4.6579834 -3.8972168 4.06323242 C-2.62044416 2.68778013 -1.31310191 1.34081347 0 0 Z " fill="#342C1F" transform="translate(402,461)"/>
<path d="M0 0 C4.00225317 0.61646837 7.13536305 1.89229674 10.73828125 3.72265625 C11.80498047 4.26083984 12.87167969 4.79902344 13.97070312 5.35351562 C15.07349609 5.91748047 16.17628906 6.48144531 17.3125 7.0625 C18.43462891 7.63033203 19.55675781 8.19816406 20.71289062 8.78320312 C23.47804408 10.18342977 26.24023716 11.58918665 29 13 C25.42481235 20.56883252 18.17841392 25.94489801 11.90625 31.30859375 C9.41305759 33.52079112 7.1183895 35.89694111 4.8359375 38.32421875 C2.41743913 40.53174173 -0.25009756 42.23220557 -3 44 C-2.42302482 29.28713292 -1.38275569 14.6588205 0 0 Z " fill="#332C1F" transform="translate(483,406)"/>
<path d="M0 0 C9.6084656 7.0855724 18.82190568 14.65979462 28.08007812 22.19238281 C33.36433541 26.48994258 38.67008398 30.75912932 44 35 C41.17120714 37.82879286 39.20075802 37.3142666 35.2421875 37.4140625 C34.57913605 37.43342865 33.91608459 37.4527948 33.23294067 37.4727478 C31.11375823 37.53255954 28.9945215 37.57893388 26.875 37.625 C25.43877831 37.66317845 24.00257955 37.70223011 22.56640625 37.7421875 C19.04448064 37.83826125 15.52238392 37.92228642 12 38 C10.28719758 32.9109421 8.57830017 27.82059637 6.87304688 22.72900391 C6.29209472 20.99621987 5.71006726 19.26379597 5.12695312 17.53173828 C4.29015287 15.04553071 3.45719771 12.55806385 2.625 10.0703125 C2.36251465 9.29317902 2.1000293 8.51604553 1.82958984 7.71536255 C0 2.22774341 0 2.22774341 0 0 Z " fill="#332B1E" transform="translate(143,463)"/>
<path d="M0 0 C1.40723943 3.79862671 0.57695287 6.37591843 -0.5625 10.1875 C-0.92988281 11.42628906 -1.29726563 12.66507812 -1.67578125 13.94140625 C-2.56609721 16.75695303 -3.55301518 19.51847881 -4.60546875 22.27734375 C-9.31514936 34.28218838 -9.31514936 34.28218838 -9 47 C-6.78436838 49.97361086 -5.26080415 51.36959793 -2 53 C0.3329866 53.04022391 2.66706666 53.04320247 5 53 C5.020625 51.72125 5.04125 50.4425 5.0625 49.125 C5.07410156 48.40570313 5.08570312 47.68640625 5.09765625 46.9453125 C5.12649242 44.91814596 5.12649242 44.91814596 4 43 C1.97536745 42.34786708 1.97536745 42.34786708 0 42 C0 43.65 0 45.3 0 47 C-1.9375 46.3125 -1.9375 46.3125 -4 45 C-4.75 42.375 -4.75 42.375 -5 40 C-2.12835434 37.29727467 -0.69008159 36.05208163 3.3125 35.75 C4.199375 35.8325 5.08625 35.915 6 36 C9.66272883 42.71500286 12.95219683 50.14437618 12 58 C10 60 10 60 7 60.3125 C0.67479446 60.10121965 -5.04588901 58.23036618 -10.375 54.875 C-14.45096498 50.41084787 -16.59559049 45.93196894 -17.421875 39.94140625 C-16.80304309 34.15991183 -14.38295104 29.51166455 -11.875 24.3125 C-11.37379639 23.24773437 -10.87259277 22.18296875 -10.35620117 21.0859375 C-7.00996027 14.0067886 -3.61131087 6.94834496 0 0 Z " fill="#9A9F9B" transform="translate(61,376)"/>
<path d="M0 0 C5.25842012 1.96894835 9.64157353 4.80037279 14.3125 7.875 C15.14845703 8.40480469 15.98441406 8.93460937 16.84570312 9.48046875 C17.63525391 9.99996094 18.42480469 10.51945312 19.23828125 11.0546875 C19.96055908 11.52374512 20.68283691 11.99280273 21.42700195 12.47607422 C21.94609131 12.97896973 22.46518066 13.48186523 23 14 C23 18 23 18 21.70703125 19.46484375 C20.76923828 20.19380859 20.76923828 20.19380859 19.8125 20.9375 C15.0275228 24.85637918 10.76901693 29.19741975 6.48168945 33.64428711 C2.3201644 37.89327853 2.3201644 37.89327853 -1 39 C-1.14323814 25.96532922 -0.71875936 13.0146785 0 0 Z " fill="#352D20" transform="translate(485,352)"/>
<path d="M0 0 C3.95987118 1.74469572 7.28687298 4.32451316 10.75 6.875 C21.7760084 14.99109029 21.7760084 14.99109029 35 17 C46.5735965 14.41054594 55.72179647 7.00339611 65 0 C65.99 0.495 65.99 0.495 67 1 C66.50371094 1.556875 66.00742187 2.11375 65.49609375 2.6875 C64.81675781 3.450625 64.13742187 4.21375 63.4375 5 C62.7053125 5.82113281 61.973125 6.64226562 61.21875 7.48828125 C59.85117432 9.03643471 58.49449718 10.5943942 57.15625 12.16796875 C50.27694433 20.25115291 43.40867343 26.78767162 32.5625 28.5625 C18.9770769 26.4174332 10.60668594 15.29570491 2.49609375 5.12890625 C1 3 1 3 0 0 Z " fill="#B6AF9E" transform="translate(224,159)"/>
<path d="M0 0 C2.7472898 1.3736449 3.11505153 2.94503737 4.42578125 5.70703125 C4.89072998 6.68091797 5.35567871 7.65480469 5.8347168 8.65820312 C6.32238525 9.69912109 6.81005371 10.74003906 7.3125 11.8125 C7.8072583 12.86244141 8.3020166 13.91238281 8.81176758 14.99414062 C10.21742035 17.9917515 11.61110294 20.99459576 13 24 C13.3309668 24.70946777 13.66193359 25.41893555 14.00292969 26.14990234 C19.08681304 37.13120958 19.08681304 37.13120958 18 43 C15.1240771 50.81129905 11.92098784 54.71116845 4.3125 58.25 C-0.46145567 59.33089562 -5.12692141 59.15607725 -10 59 C-10.47617268 50.71106811 -9.69604683 43.04407025 -5 36 C-0.36091821 35.38145576 2.21981549 36.33163446 6 39 C5.67 40.98 5.34 42.96 5 45 C3.515 45.495 3.515 45.495 2 46 C1.67 44.68 1.34 43.36 1 42 C-0.97536745 42.34786708 -0.97536745 42.34786708 -3 43 C-4.4783226 45.95664519 -4.06032783 48.74229737 -4 52 C-1.41812669 52.96820249 0.39877589 53.1908283 3.04296875 52.3515625 C6.20993478 50.90941039 8.48274137 49.70347173 10.5625 46.875 C11.95815713 37.70353888 8.64907918 29.34729041 5.5 20.875 C0.50223034 7.3361503 0.50223034 7.3361503 0 0 Z " fill="#999E9A" transform="translate(451,377)"/>
<path d="M0 0 C0.66 0.33 1.32 0.66 2 1 C-6.89835353 13.28820249 -15.37455784 24.27106328 -31 27.6484375 C-38.22652759 28.07956557 -43.47130164 25.50520378 -49 21 C-51.85921691 18.14078309 -54.44551609 15.13049499 -57 12 C-57.66 11.34 -58.32 10.68 -59 10 C-58.01 9.01 -57.02 8.02 -56 7 C-53.24215033 8.32083266 -50.72822354 9.80273458 -48.1875 11.5 C-41.87843168 15.44607779 -35.37848932 17.0636669 -28 16 C-17.73842381 13.16785766 -7.31151941 7.90036661 0 0 Z " fill="#B6AF9D" transform="translate(290,135)"/>
<path d="M0 0 C0.969375 0.86625 1.93875 1.7325 2.9375 2.625 C12.15701954 10.4717943 20.82709348 15.69758707 33.23046875 15.28125 C41.4905965 14.44242179 47.19489609 11.91289099 53 6 C53.55816406 5.443125 54.11632812 4.88625 54.69140625 4.3125 C55.12324219 3.879375 55.55507813 3.44625 56 3 C53.88004515 11.26782391 49.08379475 18.04067855 42.06640625 22.84765625 C35.56721407 26.47196947 27.8546979 27.02881015 20.640625 25.5 C11.83887224 22.90082469 7.78979581 18.22975623 3.296875 10.5 C1.4341678 6.90923913 0 4.08311731 0 0 Z " fill="#7C7D96" transform="translate(228,264)"/>
<path d="M0 0 C7.42686315 -0.10331031 14.63512596 0.00137301 22 1 C20 3 18 5 16 7 C14.55733204 28.80247114 16.38045579 51.31510006 20.12231445 72.81030273 C20.75402276 76.54629298 21.09571879 79.37096726 20 83 C15.43406888 69.11110078 11.65941257 55.54550842 10 41 C9.91081299 40.25202148 9.82162598 39.50404297 9.72973633 38.73339844 C8.92498279 31.46168995 8.67617657 24.1839809 8.4375 16.875 C8.39431641 15.63234375 8.35113281 14.3896875 8.30664062 13.109375 C8.20153545 10.07300329 8.09938657 7.03656335 8 4 C5.36 4 2.72 4 0 4 C0 2.68 0 1.36 0 0 Z " fill="#974E17" transform="translate(143,40)"/>
<path d="M0 0 C0 11.88 0 23.76 0 36 C-7.88245666 29.24360858 -7.88245666 29.24360858 -10.67578125 26.23828125 C-11.27583984 25.59439453 -11.87589844 24.95050781 -12.49414062 24.28710938 C-13.09419922 23.63548828 -13.69425781 22.98386719 -14.3125 22.3125 C-14.93189453 21.64927734 -15.55128906 20.98605469 -16.18945312 20.30273438 C-18.69476791 17.60156437 -20.94989325 15.07516012 -23 12 C-12.74609375 6.140625 -12.74609375 6.140625 -10.88232422 5.08007812 C-9.59755727 4.34287852 -8.31811155 3.59634655 -7.04345703 2.84179688 C-2.21064815 0 -2.21064815 0 0 0 Z " fill="#352D20" transform="translate(28,354)"/>
<path d="M0 0 C0.94875 0.825 1.8975 1.65 2.875 2.5 C4.24863007 3.66827931 5.62379054 4.83476026 7 6 C7.79535156 6.68449219 8.59070313 7.36898437 9.41015625 8.07421875 C15.54271146 13.20205858 20.34798547 16.31081266 28.375 17.5 C37.24689989 16.27628967 43.39877624 11.16581343 49.67578125 5.0859375 C51.98553357 3.01298332 54.29352112 1.50413163 57 0 C52.46575411 9.8601855 45.1445608 19.85910033 36.125 25.9375 C29.88745397 28.05826565 24.89126473 27.7064048 18.875 25 C9.71438327 19.91706119 4.6314834 11.15034713 0 2 C0 1.34 0 0.68 0 0 Z " fill="#B6B09E" transform="translate(229,184)"/>
<path d="M0 0 C3.51769078 0.70353816 5.85903386 1.22964929 8.98828125 2.62890625 C9.69404297 2.94150391 10.39980469 3.25410156 11.12695312 3.57617188 C11.84818359 3.90166016 12.56941406 4.22714844 13.3125 4.5625 C14.42334961 5.0565332 14.42334961 5.0565332 15.55664062 5.56054688 C17.37311562 6.36917123 19.18683931 7.18397116 21 8 C21 11.51934166 20.59775544 11.81697893 18.3125 14.3125 C17.37470703 15.34310547 17.37470703 15.34310547 16.41796875 16.39453125 C15.62003906 17.25433594 14.82210938 18.11414063 14 19 C12.89152589 20.21187274 11.7834859 21.42414265 10.67578125 22.63671875 C9.49286905 23.92510525 8.3092707 25.21286211 7.125 26.5 C6.54145752 27.13591064 5.95791504 27.77182129 5.35668945 28.42700195 C3.92519732 29.97082573 2.46517669 31.48810753 1 33 C0.67 33 0.34 33 0 33 C0 22.11 0 11.22 0 0 Z " fill="#362F22" transform="translate(486,304)"/>
<path d="M0 0 C3.53959729 0.88489932 5.03878462 1.50301824 7.890625 3.50390625 C8.59960938 3.99697266 9.30859375 4.49003906 10.0390625 4.99804688 C10.76867187 5.51431641 11.49828125 6.03058594 12.25 6.5625 C12.99507813 7.08263672 13.74015625 7.60277344 14.5078125 8.13867188 C16.3423467 9.42049385 18.17283032 10.70771234 20 12 C18.59698746 14.90495545 17.17812696 17.11243776 15 19.5 C11.30584732 23.61500552 7.7826433 27.85341706 4.2890625 32.13867188 C3.21412132 33.44371765 2.10975138 34.72442371 1 36 C0.67 36 0.34 36 0 36 C0 24.12 0 12.24 0 0 Z " fill="#352D21" transform="translate(487,256)"/>
<path d="M0 0 C0.495 0.99 0.495 0.99 1 2 C-3.07911312 12.21551809 -10.64354586 22.3296832 -20.68359375 27.21875 C-25.85833882 28.96402658 -30.49413176 29.03901854 -35.5625 26.9375 C-38.75004507 25.22112958 -41.43475804 23.56524196 -44 21 C-44.56520003 18.34462628 -44.73788198 15.70855287 -45 13 C-40 15 -40 15 -37.6796875 16.04296875 C-31.29920755 18.32171159 -24.16958348 17.93839667 -18 15.1875 C-11.13355415 11.33559135 -5.53044411 5.53044411 0 0 Z " fill="#B6B09E" transform="translate(282,113)"/>
<path d="M0 0 C0 10.23 0 20.46 0 31 C-6.73846154 25.38461538 -6.73846154 25.38461538 -9.4375 22.1875 C-12.46889268 18.6215537 -15.57168758 15.13189634 -18.71484375 11.6640625 C-20 10 -20 10 -20 8 C-17.2336466 6.65722268 -14.46123789 5.32744772 -11.6875 4 C-10.90181641 3.6184375 -10.11613281 3.236875 -9.30664062 2.84375 C-8.54931641 2.4828125 -7.79199219 2.121875 -7.01171875 1.75 C-6.31522217 1.41484375 -5.61872559 1.0796875 -4.90112305 0.734375 C-3 0 -3 0 0 0 Z " fill="#362F22" transform="translate(27,305)"/>
<path d="M0 0 C15.18 0 30.36 0 46 0 C45.67 0.66 45.34 1.32 45 2 C42.36 1.67 39.72 1.34 37 1 C37 1.66 37 2.32 37 3 C36.34 3 35.68 3 35 3 C34.92523438 3.54269531 34.85046875 4.08539063 34.7734375 4.64453125 C33.69892097 7.91692249 31.81048017 10.03875461 29.625 12.6875 C28.83351563 13.66074219 28.04203125 14.63398438 27.2265625 15.63671875 C25 18 25 18 22 19 C19.99124558 18.72428861 17.98821313 18.39764263 16 18 C19.66666667 14.33333333 23.33333333 10.66666667 27 7 C25.9330188 7.03927612 25.9330188 7.03927612 24.84448242 7.0793457 C21.62571241 7.18319396 18.4072942 7.24828758 15.1875 7.3125 C14.06794922 7.35439453 12.94839844 7.39628906 11.79492188 7.43945312 C10.72177734 7.45556641 9.64863281 7.47167969 8.54296875 7.48828125 C7.55321045 7.51446533 6.56345215 7.54064941 5.54370117 7.56762695 C3 7 3 7 1.15356445 4.59448242 C0 2 0 2 0 0 Z " fill="#A19881" transform="translate(238,8)"/>
<path d="M0 0 C3.41120981 1.5134793 5.97055442 3.53415389 8.8125 5.9375 C14.85844949 10.8078482 19.77453939 13.6766453 27.75 13.33984375 C35.83714286 12.11834821 41.96566361 6.09456269 48 1 C48 6.84022707 42.68604253 11.70636804 39 16 C34.77574244 20.09778279 30.90874884 21.32488457 25.0625 21.6875 C17.53589947 21.32728486 12.99009763 18.26987285 7.99609375 12.80859375 C4.73790607 8.78857514 2.06690215 4.74171669 0 0 Z " fill="#B6B09E" transform="translate(231,212)"/>
<path d="M0 0 C0 8.58 0 17.16 0 26 C-4.28188655 22.43176121 -7.26952391 19.72102293 -10.625 15.5 C-11.35976562 14.5821875 -12.09453125 13.664375 -12.8515625 12.71875 C-13.56054688 11.8215625 -14.26953125 10.924375 -15 10 C-15.75023437 9.1028125 -16.50046875 8.205625 -17.2734375 7.28125 C-19 5 -19 5 -19 3 C-16.96040523 2.49161436 -14.91820862 1.99366114 -12.875 1.5 C-11.73804688 1.2215625 -10.60109375 0.943125 -9.4296875 0.65625 C-6 0 -6 0 0 0 Z " fill="#332B1E" transform="translate(26,263)"/>
<path d="M0 0 C1 3 1 3 -0.4375 6.625 C-5.12675935 15.31533389 -11.51272444 21.86124566 -21 25 C-24.34074003 25.60699238 -27.6072081 25.92059423 -31 26 C-31.66 24.35 -32.32 22.7 -33 21 C-31.98421875 20.52691406 -30.9684375 20.05382812 -29.921875 19.56640625 C-20.76671001 15.20478431 -12.88949763 10.42758459 -5 4 C-2.5 2 -2.5 2 0 0 Z " fill="#B6AF9E" transform="translate(266,97)"/>
<path d="M0 0 C-1.5280389 5.09882455 -3.71036856 9.65665659 -6.125 14.375 C-6.49753906 15.11105469 -6.87007813 15.84710938 -7.25390625 16.60546875 C-8.1656122 18.40550358 -9.08229932 20.20301402 -10 22 C-10.66 22 -11.32 22 -12 22 C-13.53851766 20.28048026 -15.00731759 18.49812503 -16.4375 16.6875 C-20.01098168 12.15615016 -20.01098168 12.15615016 -24 8 C-23.67 7.01 -23.34 6.02 -23 5 C-21.09814453 4.20043945 -21.09814453 4.20043945 -18.6328125 3.61328125 C-17.74722656 3.39736328 -16.86164063 3.18144531 -15.94921875 2.95898438 C-14.55123047 2.63897461 -14.55123047 2.63897461 -13.125 2.3125 C-12.20074219 2.08755859 -11.27648437 1.86261719 -10.32421875 1.63085938 C-3.49344605 0 -3.49344605 0 0 0 Z " fill="#E29C60" transform="translate(429,36)"/>
<path d="M0 0 C6.75 2.25 6.75 2.25 9.8671875 4.1640625 C10.52460938 4.56367188 11.18203125 4.96328125 11.859375 5.375 C12.52453125 5.7875 13.1896875 6.2 13.875 6.625 C14.90753906 7.25535156 14.90753906 7.25535156 15.9609375 7.8984375 C17.64391658 8.92692472 19.32242532 9.962721 21 11 C17.75386944 14.32772091 14.43656178 17.40118864 10.8125 20.3125 C9.95269531 21.00988281 9.09289062 21.70726562 8.20703125 22.42578125 C6 24 6 24 4 24 C2.68 16.08 1.36 8.16 0 0 Z " fill="#332C1F" transform="translate(147,189)"/>
<path d="M0 0 C0.10152799 6.7685324 0.03026944 13.30324864 -1 20 C-3.97 19.34 -6.94 18.68 -10 18 C-10 17.34 -10 16.68 -10 16 C-10.69867188 15.79503906 -11.39734375 15.59007813 -12.1171875 15.37890625 C-13.02726562 15.10949219 -13.93734375 14.84007813 -14.875 14.5625 C-15.77992188 14.29566406 -16.68484375 14.02882813 -17.6171875 13.75390625 C-20 13 -20 13 -22 12 C-22 11.34 -22 10.68 -22 10 C-18.71158124 8.32686677 -15.41875318 6.66260393 -12.125 5 C-11.18785156 4.52304688 -10.25070312 4.04609375 -9.28515625 3.5546875 C-8.38925781 3.10351562 -7.49335938 2.65234375 -6.5703125 2.1875 C-5.74289551 1.76855469 -4.91547852 1.34960938 -4.06298828 0.91796875 C-2 0 -2 0 0 0 Z " fill="#E19C61" transform="translate(345,68)"/>
<path d="M0 0 C6.47713607 3.46479154 12.81642857 7.03318059 19 11 C17.65214473 15.04356581 14.9550299 16.41250936 11.5625 18.6875 C10.96373047 19.10322266 10.36496094 19.51894531 9.74804688 19.94726562 C5.27170567 23 5.27170567 23 3 23 C1.22458462 15.36399015 0.46569122 7.8187104 0 0 Z " fill="#383124" transform="translate(183,249)"/>
<path d="M0 0 C0.31918373 7.85546636 -0.64290496 15.26940505 -2 23 C-5.88609811 21.24933204 -9.27812258 18.81675994 -12.75 16.375 C-13.35199219 15.95476562 -13.95398438 15.53453125 -14.57421875 15.1015625 C-16.05113043 14.07006863 -17.52579194 13.03535421 -19 12 C-15.28059551 8.89583535 -11.38460345 6.2586358 -7.25 3.75 C-6.66089844 3.38648438 -6.07179688 3.02296875 -5.46484375 2.6484375 C-1.13375235 0 -1.13375235 0 0 0 Z " fill="#383124" transform="translate(328,249)"/>
<path d="M0 0 C1.0562208 3.16866239 0.954206 4.44758635 0.44140625 7.66796875 C0.30283203 8.56064453 0.16425781 9.45332031 0.02148438 10.37304688 C-0.12998047 11.30181641 -0.28144531 12.23058594 -0.4375 13.1875 C-0.58509766 14.12787109 -0.73269531 15.06824219 -0.88476562 16.03710938 C-1.25016389 18.35915639 -1.62214125 20.67995362 -2 23 C-6.12037747 22.14895076 -8.43270991 20.31052774 -11.6875 17.625 C-12.66074219 16.83351562 -13.63398438 16.04203125 -14.63671875 15.2265625 C-17 13 -17 13 -18 10 C-16.95199219 9.44570312 -15.90398437 8.89140625 -14.82421875 8.3203125 C-13.44526849 7.58862461 -12.06636466 6.8568492 -10.6875 6.125 C-9.99720703 5.76019531 -9.30691406 5.39539063 -8.59570312 5.01953125 C-7.92861328 4.66503906 -7.26152344 4.31054688 -6.57421875 3.9453125 C-5.65515747 3.45828857 -5.65515747 3.45828857 -4.7175293 2.96142578 C-3.09741352 2.05452942 -1.54484566 1.0298971 0 0 Z " fill="#362E22" transform="translate(363,189)"/>
<path d="M0 0 C0.14715692 7.3905476 -0.29223008 14.64424835 -1 22 C-5.21654356 20.51364884 -8.62478605 18.38750841 -12.3125 15.875 C-13.38113281 15.15054688 -14.44976562 14.42609375 -15.55078125 13.6796875 C-16.35902344 13.12539062 -17.16726563 12.57109375 -18 12 C-14.922555 8.69955174 -11.63121175 6.24183581 -7.875 3.75 C-6.82054687 3.04359375 -5.76609375 2.3371875 -4.6796875 1.609375 C-2 0 -2 0 0 0 Z " fill="#393226" transform="translate(345,217)"/>
<path d="M0 0 C12.85421412 7.11389522 12.85421412 7.11389522 17 12 C11.86601899 16.14443819 6.83096952 19.89842047 1 23 C0.32546899 15.31516461 -0.1567564 7.71589817 0 0 Z " fill="#372F23" transform="translate(167,217)"/>
<path d="M0 0 C0 4.15271386 -2.21681754 6.06788292 -4.8125 9.0625 C-5.30081299 9.63379639 -5.78912598 10.20509277 -6.29223633 10.79370117 C-11.12232209 16.33529661 -16.42172244 21.22016062 -22 26 C-24.96404505 23.19195732 -27.44499019 20.81684226 -29 17 C-27.98421875 16.5153125 -26.9684375 16.030625 -25.921875 15.53125 C-12.06502165 9.12716505 -12.06502165 9.12716505 0 0 Z " fill="#B5AF9E" transform="translate(253,86)"/>
<path d="M0 0 C0.12036664 5.77759884 -0.1679418 11.27959989 -1 17 C-7.95776959 15.63125844 -14.38603107 13.5466871 -21 11 C-17.91065423 7.69611633 -14.46494156 5.90070256 -10.5 3.8125 C-9.82324219 3.44447266 -9.14648438 3.07644531 -8.44921875 2.69726562 C-3.37495652 0 -3.37495652 0 0 0 Z " fill="#E19D63" transform="translate(345,36)"/>
<path d="M0 0 C0 8.25 0 16.5 0 25 C-7.875 18.25 -7.875 18.25 -10.4375 15.125 C-10.93121094 14.52945313 -11.42492187 13.93390625 -11.93359375 13.3203125 C-12.28550781 12.88460937 -12.63742187 12.44890625 -13 12 C-11.48081731 8.14561649 -9.17304038 6.26394504 -5.9375 3.75 C-5.03902344 3.04359375 -4.14054687 2.3371875 -3.21484375 1.609375 C-1 0 -1 0 0 0 Z " fill="#8792A3" transform="translate(319,147)"/>
<path d="M0 0 C-2.05764921 6.45353615 -4.42383482 12.7361263 -7 19 C-10.93472548 17.68842484 -12.12683424 15.66616553 -14.6875 12.4375 C-15.49574219 11.42558594 -16.30398438 10.41367187 -17.13671875 9.37109375 C-17.75160156 8.58863281 -18.36648438 7.80617188 -19 7 C-16.39350532 4.39350532 -13.46865679 3.55975019 -10.0625 2.375 C-9.42892578 2.14554688 -8.79535156 1.91609375 -8.14257812 1.6796875 C-5.29041404 0.67198284 -3.04816693 0 0 0 Z " fill="#E09C62" transform="translate(403,15)"/>
<path d="M0 0 C0 7.59 0 15.18 0 23 C-3.83616676 21.4655333 -6.49393561 20.15341734 -9.8125 17.875 C-10.60269531 17.33617188 -11.39289063 16.79734375 -12.20703125 16.2421875 C-12.79871094 15.83226563 -13.39039063 15.42234375 -14 15 C-12.38873705 10.94772191 -9.49978002 8.23778153 -6.4375 5.25 C-5.93025391 4.74339844 -5.42300781 4.23679687 -4.90039062 3.71484375 C-1.14048812 0 -1.14048812 0 0 0 Z " fill="#8893A3" transform="translate(319,109)"/>
<path d="M0 0 C1.23608129 2.47216257 0.91510446 3.44220669 0.44140625 6.1328125 C0.30283203 6.93847656 0.16425781 7.74414062 0.02148438 8.57421875 C-0.20571289 9.83685547 -0.20571289 9.83685547 -0.4375 11.125 C-0.58509766 11.97449219 -0.73269531 12.82398438 -0.88476562 13.69921875 C-1.25071842 15.80049611 -1.62461468 17.90038721 -2 20 C-5.99012371 19.44010697 -8.5255052 18.24330232 -11.8125 15.9375 C-12.60269531 15.38964844 -13.39289063 14.84179688 -14.20703125 14.27734375 C-14.79871094 13.85582031 -15.39039063 13.43429688 -16 13 C-11.3126338 7.82773385 -5.68271819 4.01074507 0 0 Z " fill="#7C7C95" transform="translate(383,165)"/>
<path d="M0 0 C0.66 1.32 1.32 2.64 2 4 C1.01 4.33 0.02 4.66 -1 5 C-1 4.34 -1 3.68 -1 3 C-2.32 3 -3.64 3 -5 3 C-4.34 4.65 -3.68 6.3 -3 8 C-0.27076612 8.0270817 2.45819637 8.04687847 5.1875 8.0625 C5.95642578 8.07087891 6.72535156 8.07925781 7.51757812 8.08789062 C11.50893793 8.10502092 15.08971576 7.88119081 19 7 C20.43628457 6.93733488 21.8750555 6.91313653 23.3125 6.9375 C25.1378125 6.9684375 25.1378125 6.9684375 27 7 C27 7.66 27 8.32 27 9 C19.48162023 11.30154483 12.22428766 12.194528 4.375 12.25 C3.26898438 12.2809375 3.26898438 12.2809375 2.140625 12.3125 C-2.45461282 12.34544077 -5.3220072 11.79020143 -9 9 C-10 8 -10 8 -10.25 5.625 C-10 3 -10 3 -8.9375 1.1875 C-6.00731249 -0.60842137 -3.3527047 -0.18977574 0 0 Z " fill="#443E34" transform="translate(172,13)"/>
<path d="M0 0 C0.33 0 0.66 0 1 0 C2.0712828 6.02596573 2.09945415 11.88909517 2 18 C0.20759337 17.88610125 -1.58394835 17.75852313 -3.375 17.625 C-4.87160156 17.52058594 -4.87160156 17.52058594 -6.3984375 17.4140625 C-9 17 -9 17 -11 15 C-9.19272453 12.49618432 -7.37833327 9.99761453 -5.5625 7.5 C-5.04623047 6.78457031 -4.52996094 6.06914062 -3.99804688 5.33203125 C-3.50498047 4.65527344 -3.01191406 3.97851562 -2.50390625 3.28125 C-2.04830322 2.65283203 -1.5927002 2.02441406 -1.12329102 1.37695312 C-0.56726196 0.69536133 -0.56726196 0.69536133 0 0 Z " fill="#7E7F97" transform="translate(395,140)"/>
<path d="M0 0 C-1.98 3.63 -3.96 7.26 -6 11 C-9.80850575 8.71489655 -12.09140717 7.12404415 -15 4 C-13.06767179 3.13419713 -11.12892806 2.28270059 -9.1875 1.4375 C-8.10855469 0.96183594 -7.02960938 0.48617187 -5.91796875 -0.00390625 C-3 -1 -3 -1 0 0 Z " fill="#DE9D65" transform="translate(380,1)"/>
<path d="M0 0 C-0.33 3.3 -0.66 6.6 -1 10 C-4.96 8.35 -8.92 6.7 -13 5 C-13 4.34 -13 3.68 -13 3 C-11.58603098 2.49242138 -10.16868271 1.99425075 -8.75 1.5 C-7.96109375 1.2215625 -7.1721875 0.943125 -6.359375 0.65625 C-4 0 -4 0 0 0 Z " fill="#DF9D64" transform="translate(345,15)"/>
<path d="M0 0 C1.8253125 0.0309375 1.8253125 0.0309375 3.6875 0.0625 C3.6875 0.7225 3.6875 1.3825 3.6875 2.0625 C-2.86526707 4.34834898 -9.41651439 4.66844368 -16.3125 5.0625 C-16.3125 4.4025 -16.3125 3.7425 -16.3125 3.0625 C-18.9525 3.0625 -21.5925 3.0625 -24.3125 3.0625 C-24.3125 2.7325 -24.3125 2.4025 -24.3125 2.0625 C-22.77529297 1.97162109 -22.77529297 1.97162109 -21.20703125 1.87890625 C-19.84634305 1.79444974 -18.48566657 1.70980433 -17.125 1.625 C-16.45146484 1.58568359 -15.77792969 1.54636719 -15.08398438 1.50585938 C-9.99841971 1.18336015 -5.08764256 -0.08623123 0 0 Z " fill="#4C473D" transform="translate(195.3125,19.9375)"/>
<path d="M0 0 C2.7115029 4.06725434 2.57867488 7.1547611 3 12 C0.03 11.67 -2.94 11.34 -6 11 C-4.54955729 6.89041233 -2.48889248 3.56741255 0 0 Z " fill="#7F8098" transform="translate(399,122)"/>
<path d="M0 0 C1.60080151 4.00200378 0.29279692 7.04556236 -1 11 C-2.32 11.33 -3.64 11.66 -5 12 C-3.68938409 7.76570244 -2.05643741 3.92592596 0 0 Z " fill="#A3A8A5" transform="translate(61,376)"/>
<path d="M0 0 C1.9451 2.91765 2.45276317 4.62537285 3 8 C2.34 8 1.68 8 1 8 C1 9.65 1 11.3 1 13 C0.67 13 0.34 13 0 13 C0 8.71 0 4.42 0 0 Z " fill="#A6ABA7" transform="translate(85,357)"/>
</svg>
