<svg width="360" height="344" fill="none" xmlns="http://www.w3.org/2000/svg"><g clip-path="url(#a)"><path d="M84.457 220.548v.81c-.51 1.08-.36 2.431-1.32 3.331-2.67 1.44-4.56 3.72-6.601 5.91-3.63 3.84-7.14 7.831-11.791 10.561-.75-.06-1.35-.36-1.83-.93.21-2.19 1.65-4.62-1.08-6.301-.84-7.14-4.29-12.121-11.401-14.101-1.47-.6-2.94-.6-4.44-.06-5.821 1.32-9.631 4.831-11.312 10.651-.57 1.47-.51 2.97 0 4.471 1.23 6.27 4.92 10.17 11.101 11.64 1.83.15 3.66.18 5.43-.33.78-.09 1.561-.03 2.251.42.57.601.69 1.351.66 2.131-.21 1.44-1.02 2.61-2.13 3.39-4.86 3.45-8.19 8.491-12.901 12.061-1.92 1.44.42 3.72-1.32 5.04-3.06.63-4.74 3.121-6.57 5.281-.96 1.14-1.83 2.28-3.031 3.12-4.14-.63-4.92-1.74-3.96-5.61.27-1.08.69-2.131 1.23-3.121 1.65-3.12 3.93-6.06 1.23-9.81-.6-.841-.12-2.191.09-3.301.6-3.27.78-6.18-2.31-8.73-2.22-1.831-2.13-4.951-1.65-7.711.6-3.6.57-7.171-.06-10.771-1.17-6.901-.96-13.891-.9-20.852.03-4.5-.24-8.941-1.56-13.291.15-5.04-.3-10.051.24-15.091.03-3.39.09-6.751.09-10.141 0-2.37-.06-4.74-.12-7.081-.75-.87-1.11-1.86-.75-3.03l.24.06c2.61-2.61 4.05-.63 4.98 1.56 1.83 4.291 1.44 9.061 2.34 13.561.12.601-.03 1.231.48 1.861.51-3.751.54-7.531.27-11.311-.09-1.23-.39-2.461-.33-3.721.09-1.47-.09-3.27 1.65-3.81 1.95-.6 2.82 1.11 3.72 2.43 1.62 2.37 1.89 5.041 2.01 7.861.42 12.331-.03 24.662 0 36.993 0 2.13.09 4.23.51 6.331.12.63.36 1.32 1.05 1.38.9.09 1.35-.63 1.5-1.38.45-2.281-.39-4.441-.63-6.661-1.2-10.891-2.61-21.782-.36-32.733.27-1.35.48-2.7 1.14-3.93.48-.9 1.02-1.83 2.191-1.65 1.14.18 1.59 1.14 1.74 2.16.42 2.61.36 5.25.15 7.831-.48 5.7-.54 11.401-.63 17.131-.06 3.9.3 7.711 1.32 11.461.24.6.3 1.23 0 1.83-.36 1.77 0 3.36 1.35 4.621 2.25.45 4.5.45 6.75 0 1.141-.241 2.221-.631 3.031-1.591.09-.93.93-1.08 1.5-1.5.99-1.68 3.39-2.16 3.69-4.41.54-.96.81-2.19 2.22-2.28.24-.27.48-.51.75-.78.33-.48.84-.66 1.41-.66 2.431.24 3.391 2.43 4.951 3.81 4.11 4.5 8.851 8.431 12.571 13.291.42.63.87 1.26 1.59 1.62.27.15.48.36.69.57.42.45.6 1.02.93 1.53l-.06-.03Z" fill="#819599"/><path d="M25.772 290.184c3-3.12 6.06-6.21 9-9.391 1.14-1.26 1.951-.99 3.001.12 2.85 2.971 5.85 5.761 8.64 8.791 1.56 1.71 2.641 1.56 4.261 0 4.32-4.14 4.41-4.08.27-8.221-4.14-4.14-8.28-8.22-12.42-12.331-.57-2.94 1.38-3.96 3.6-4.77 3.15.69 5.49-.57 7.47-2.97 3.78-4.651 8.49-8.341 12.961-12.271.84-.75 1.83-1.44 2.25-2.46 1.83-4.621 6.12-6.691 9.541-9.661.75-.63 1.56-1.38 2.64-.81 1.02.57 1.11 1.65.96 2.64-.36 2.43-.45 5.01-3.06 6.42-1.05.571-2.28 1.381-.39 2.731 1.35.96.24 1.89-.36 2.82-1.92 2.85-1.71 3.57 1.41 5.16 2.01 1.02 3.06 5.401 1.65 8.011-1.17 2.13-1.92 4.29-2.19 6.691-.12.99-.27 2.34-1.08 2.73-4.68 2.31-3.21 8.25-6.75 11.251-.96.81-.87 2.52.18 3.66.81-.03 1.14-.6 1.53-1.05.99-1.2 2.07-2.37 3.75-1.65 1.83.78 1.86 2.55 1.53 4.17-.51 2.58-1.05 5.131-1.47 7.711-.24 1.47-1.26 2.4-2.7 2.79-1.35.36-2.16-.21-2.4-1.62.45 3-.54 5.94.24 8.851.45 1.68.69 3.48 2.28 4.53 1.23.84 2.79 1.5 2.43 3.36-.6 3.001.42 6.421-1.95 8.941-1.53 1.65-3.48 1.65-4.8-.18-3-4.14-8.161-6.21-10.352-11.101-.15-.33-.45-.66-.78-.78-7.83-2.85-10.62-11.011-16.53-15.841-.391-.3-.661-.75-1.441-.66 1.65 3.03 4.14 5.25 6.51 7.5 2.25 2.16 2.46 4.171.27 6.391-.45.36-.96.39-1.5.21-.33-.15-.63-.33-.9-.54-.87-.78-1.65-1.68-2.52-2.46-.24-.21-.48-.45-.69-.69a34.712 34.712 0 0 0-2.34-2.371c-.24-.21-.45-.45-.66-.66-.75-.81-1.53-1.59-2.31-2.34-.24-.21-.45-.45-.69-.66-.75-.84-1.56-1.62-2.37-2.37-.24-.21-.48-.45-.72-.69-.72-.75-1.47-1.47-2.16-2.25-.991-1.411-1.831-2.851-.751-4.621l-.09-.06Z" fill="#BCC8CA"/><path d="M34.713 341.158c-.72 0-1.47 0-2.19-.03-.72-.45-1.59-.09-2.34-.42-.81-.36-1.38-.93-1.65-1.8-.15-1.38.93-2.13 1.53-3.12 1.59-2.31 3.72-4.11 5.73-6.03.78-.601 1.5-1.231 1.86-2.161 1.23-.51 2.01-1.62 3.03-2.4 1.08-1.02 2.04-2.16 3.15-3.18-.99.9-1.89 1.89-2.82 2.82-1.02.78-1.8 1.89-2.94 2.52-.93.66-1.26 1.89-2.31 2.401-1.98 2.01-4.23 3.78-5.85 6.15-.81.99-1.62 2.01-2.07 3.24-.42.9-1.05 1.62-1.98 2.01-1.77.09-2.91-.96-4.05-2.1-6.721-6.78-13.412-13.621-20.253-20.251-2.19-2.131-1.92-3.391.18-5.371 6.781-6.48 13.111-13.471 20.252-19.591.81-.691 1.68-1.351 2.52-2.011 1.71.15 1.35 1.981 2.28 2.791.66 1.14 1.83 1.71 2.85 2.43h-.03c.72 1.26 1.74 2.25 3.001 3 .72 1.26 1.71 2.25 3 3a8.01 8.01 0 0 0 3 3.001 8 8 0 0 0 3 3h-.03c.63 1.44 2.28 1.74 3.271 2.79 1.53 2.1 3.48 3.81 5.25 5.7.72 1.021 1.62 1.861 2.88 2.221.42.21.78.54 1.05.96.57 1.35 1.59 2.28 2.941 2.85 2.34 1.53 4.05 3.72 5.82 5.82.51.961 1.05 1.891 2.16 2.251.3.15.54.36.78.57.21.27.36.54.51.84 1.08 2.28 3.001 3.84 4.591 5.7.27.48.33.96.21 1.5-.21.54-.69.72-1.14.93h-5.22c-6.21-.48-12.421-.42-18.602 0h-2.19c-3-.42-6-.45-9.03.03l-.15-.06ZM80.917 217.488c-4.23-4.47-8.46-8.941-12.66-13.411-.931-1.8-3.001-2.97-3.001-5.31 3.24-3.841 7.56-6.481 11.19-9.901 3.331-3.151 7.321-5.611 10.682-8.731 4.92-4.56 10.08-8.821 15.271-13.051.66-.54 1.11-1.29 1.68-1.95.45-.3.9-.57 1.38-.87 1.77-.48 3.541-1.29 5.311.06 3.66 2.61 5.88 6.57 9.06 9.601.75.72.39 1.65.66 2.43.27.75-.39 1.05-.75 1.5-6.6 5.85-11.431 13.261-17.071 19.951-4.86 5.791-9.36 11.881-14.191 17.702-.99 1.2-1.44 2.88-3 3.63-.78.48-1.56.6-2.31-.03h-.03c-.63-.66-1.68-.72-2.16-1.59l-.06-.03Z" fill="#B0B893"/><path d="M90.638 276.083c1.23-.99.33-2.7 1.29-3.78-.69-1.05-.03-1.68.72-2.25.27-1.831.72-3.631 1.74-5.221 3.45.6 4.68 3.69 6.601 5.851.21-2.251.24-2.311-1.38-4.141-1.02-1.17-2.16-2.52-1.68-3.96 1.32-3.96 1.8-8.251 4.05-11.881.66-1.05 1.5-2.22 2.94-1.83 1.53.42 2.01 1.86 1.98 3.27-.03 2.43.39 5.1-2.22 6.721-2.16 1.35-1.08 3.33-.33 4.65 1.47 2.55 1.56 5.13 1.32 7.921-.21 2.61.15 5.25.63 7.83.3 1.62.81 3.181 2.31 4.111 2.581 1.59 3.031 3.84 1.951 6.45-1.321 3.21-.781 5.491 2.58 6.961 1.44.63 2.61 1.89 3.75 3.06.24.27.45.57.63.87 0 2.55-2.28 3.48-3.51 5.16-9.481 9.121-17.132 19.952-26.642 29.073-1.17 1.11-2.13 2.43-3.66 3.12-1.71.48-2.37-.51-2.7-1.98-.661-5.7.81-11.281 1.53-16.801 1.26-9.481 2.58-19.022 5.04-28.323.45-1.65.99-3.3.78-5.04.33-1.23-.63-2.76.78-3.75 1.32-.721.36-2.041.75-3.001-.27-1.14-.27-2.19.75-3v-.09Z" fill="#ACB585"/><path d="M70.506 340.498v-1.38c-.99-2.13-3.57-3.03-4.14-5.49.15-.72.81-1.11 1.35-1.83-1.08.09-1.71.6-2.46.48-.24 0-.48 0-.69-.03-.51-.51-1.02-.99-1.05-1.771.06-.72.69-1.62.24-2.13-4.08-4.5-6.57-11.041-14.041-11.221-2.22-1.38-3.9-3.3-5.37-5.46-.811-.33-1.651-.63-1.411-1.8 1.68-4.231 1.74-4.291-2.52-8.041a25.984 25.984 0 0 1-5.55-6.84c2.58-1.141 3.57-.571 4.89 2.1 1.41 2.85 4.68 4.74 6.96 7.23 1.38 1.5 4.02 2.281 3.3 5.281-.21.93.99 1.02 1.68.81 2.61-.78 4.261.87 5.101 2.7 1.56 3.39 4.41 5.28 7.11 7.441.87.69 1.95 1.08 2.19 2.37.27 1.32 1.171 1.86 2.461 1.77 1.32-.09 1.86-1.11 2.31-2.16.99-2.49-.15-5.251.99-7.741.09-.24-.36-1.02-.72-1.11-4.14-1.29-3.96-4.86-4.44-8.191-.48-3.3.81-6.39-.24-9.69l.99.06c.21.12.45.21.57.39.81.99-.69 3.3 1.32 3.33 2.01 0 2.58-1.68 2.73-3.72.12-2.191.9-4.351 1.29-6.541.21-1.23.39-2.73-1.11-3.21-1.14-.36-2.16.39-2.52 1.65-.27.93-.84 1.53-1.71 1.83-1.17.42-2.34 1.74-2.37-1.26-.03-3.18.45-5.58 3-7.561 1.02-.81 1.05-2.16 1.11-3.45.12-1.8-1.11-4.44 2.79-3.87 1.2.18 1.47-2.1 1.59-3.391.21-2.43.57-4.68 2.34-6.51 1.47-1.53-.21-3.06-.06-4.62.27-2.491-1.26-2.461-3.09-2.191-1.14.15-1.47-.99-1.29-1.83.36-1.62-1.26-3.84 1.17-4.8.66-.27 1.05-.48 1.26-1.2-.54-1.53-2.64.72-2.91-1.05-.24-1.771 1.35-2.881 2.49-3.361 3.15-1.32 2.58-4.17 3.03-6.54.27-1.32-.51-1.8-1.77-.81-2.46 1.95-4.44 4.5-7.38 5.85-.21.09-.42.33-.51.54-2.43 6.601-8.7 9.541-13.291 14.101-1.92 1.891-3.72 3.961-5.43 6.031-1.92 2.31-4.08 2.37-6.511.99-.3-2.1 1.29-3.03 2.49-4.2 3.57-3.541 7.41-6.871 10.441-10.951 3.15-2.91 5.25-6.991 9.45-8.701 5.011-4.62 10.052-9.241 14.552-14.401 1.05-1.2 2.16-2.4 3.99-2.19 1.77 1.08.87 2.85 1.11 4.32-.18 4.86.39 9.721-.3 14.551 0 1.71.06 3.45.06 5.161.75.93.9 2.04.69 3.15-.84 4.71-.45 9.631-1.98 14.251-2.46 2.1-2.85 4.53-1.2 7.321-.42 1.98-.93 3.96-.48 6 .51 1.41.12 2.61-.75 3.721v3.75c-1.71 2.79-.03 6.24-1.74 9.001-1.17 2.43-.63 4.98-.54 7.5-.33 3.991-.63 7.981-.96 11.971-.39.96-1.2 1.8-.75 2.97v3.781c-.96 2.4-1.89 4.83-.75 7.47-.24 2.491-.51 5.011-.75 7.501-.78.63-.18 1.62-.57 2.34-.06.45-.09.93-.15 1.38-1.2.6-2.37.6-3.57 0l.03.15Z" fill="#BDC8CA"/><path d="M12.391 24.152 31.563 4.53c1.11-1.14 2.16-2.37 3.21-3.57.57-.75 1.23-1.2 2.19-.84 9.541 9.51 19.112 19.022 28.623 28.532.78.78 1.89 1.8-.33 2.19-2.16-.69-4.41-.18-6.6-.33-16.772-.03-33.514.09-50.285-.06-.9-.42-.78-1.08-.42-1.8.51-.51.99-1.05 1.5-1.56.75-1.23 1.38-2.55 2.94-2.97v.03Z" fill="#182932"/><path d="M303.326 30.813c-.63 0-1.23.09-1.86.09-.721 0-1.591.12-2.011-.66-.6-1.11.54-1.53 1.05-2.04A5838.045 5838.045 0 0 1 319.647 8.82c1.92-1.95 3.96-3.78 5.76-5.85 2.191-2.521 4.141-2.791 6.151.09.3.3.57.6.87.9 1.29.72 2.28 1.68 2.82 3.09 6.271 7.14 13.831 12.93 20.342 19.831 1.17 1.23 2.46 2.25 2.7 4.05-.48 0-.96-.06-1.41-.06-2.07-.6-4.17-.27-6.24-.27-14.432-.03-28.863 0-43.294 0-1.35 0-2.7-.24-4.02.27v-.06Z" fill="#577376"/><path d="M36.933 75.966c6.45 6.48 12.9 13.021 19.381 19.472 3.21 3.18 6.841 5.97 9.631 9.601-1.23.87-2.64.42-3.96.42-14.461.03-28.953.06-43.414 0-3.54 0-7.05 1.56-10.62.3-1.44-.84-1.38-2.13-.39-3.09 6.84-6.661 12.9-14.132 20.551-19.952l7.38-6.93c.54-.36 1.05-.36 1.47.18h-.03Z" fill="#515C3B"/><path d="M42.814 204.827c-1.71-2.46-2.01-5.25-2.1-8.131-.33-8.67.63-17.311.75-25.982v-2.25c-.03-.87 0-1.95-1.11-2.04-.9-.06-1.02.9-1.2 1.62-1.59 6.421-2.73 12.931-1.98 19.532.87 7.5.42 15.121 2.58 22.501.57 1.951-.99 3.751-3 4.081-2.401.39-1.981-1.5-2.161-3.18-.87-8.071-.18-16.112-.09-24.182.06-7.561-.12-15.182-.63-22.742-.18-2.461-1.71-6.391-3.93-5.911-2.4.51-.78 4.171-.66 6.541.24 4.92.63 9.841-.72 14.851-1.71-.45-2.7-2.07-2.46-3.21.93-4.201-1.38-7.981-1.11-12.121.27-3.841-2.041-5.731-4.951-5.071-.36-3.15-1.02-6.21-2.46-9.031-1.14-1.29-2.19-2.64-2.04-4.53-.24-1.8-1.38-3.09-2.43-4.47-1.56-.81-2.371-2.19-2.821-3.841 0-.21-.06-.39-.06-.6-.78-1.41-.6-2.55.9-3.33 3.42-.36 6.9.27 10.32-.36 1.891.69 3.631 1.65 5.161 2.97 2.16-.18 2.88 1.47 3.72 3.001 3.75 3.69 6.781 7.89 9.091 12.631 1.5.84 2.01 2.07 1.5 3.75.9 1.38.18 3.27 1.47 4.53.9 1.26.9 2.491 0 3.751.24 1.26.48 2.52.72 3.75.24 3.78 1.2 7.471.96 11.281v19.291c-.36 2.311-.48 4.651-1.2 6.901h-.06Z" fill="#819599"/><path d="M86.047 23.342c7.53-7.86 14.941-15.841 23.132-23.042 2.58 4.86 6.75 8.31 10.441 12.211 1.98 2.07 1.08 4.11-1.11 6.21 2.16-1.29 4.08-3.39 4.71.78.27 1.74 2.52 2.1 3.57 3.48.75 1.021 1.83 1.771 1.23 3.211-.54 1.29-1.71 1.71-3 1.86-1.47.18-2.97.12-4.44.12-9.631.12-19.292-.24-28.923.21-3.51.15-5.52-1.77-5.61-5.07v.03Z" fill="#577376"/><path d="M19.741 253.551c-.24-.75-.48-1.5-.75-2.25.24-2.52.51-5.011.75-7.531-.39-2.73-.39-5.46 0-8.19.09-.51.15-1.021.24-1.531.54-1.47.15-3 .27-4.47-.12-1.5.24-3.03-.24-4.5 0-.72 0-1.47-.03-2.19.63-4.681.09-9.391.3-14.072.06-1.35-.24-2.73.27-4.05-1.11-1.86-.54-3.87-.6-5.85.87-1.141-.3-2.731.81-3.841 1.56 2.07 2.1 4.441 2.13 6.991.12 9.781-.42 19.621 1.38 29.342.45 2.49.15 5.161-.39 7.771-.69 3.45-.72 7.02 3.42 8.851 1.17.51 1.65 1.65 1.26 3.15-.51 2.04-.81 4.11-1.08 6.21-.12.84-.18 2.251.21 2.491 4.111 2.22 1.23 4.47.15 6.69-.42.9-.84 1.8-1.38 2.61-2.07 3.331-2.82 6.361 1.65 8.371-2.64 2.61-4.56 6.031-8.25 7.471-.72-1.41-.21-2.911-.36-4.351-.15-2.07.33-4.17-.27-6.21-.09-.48-.15-.96-.24-1.44-.72-1.2-.81-2.491-.63-3.811.84-2.97.33-6.03.45-9.06.12-2.221.15-4.471.93-6.601Z" fill="#819599"/><path d="M86.047 23.342c1.32 3.27 3.42 4.17 7.11 3.99 9.271-.48 18.572-.15 27.843-.15h3.72c1.14 0 2.371 0 2.761-1.35.45-1.5-.871-1.41-1.741-1.8-1.23-.54-.96-3.6-3.6-2.1-.3.18-.24-1.44 0-2.25.21-.69.66-1.5-.33-1.89-.69-.27-1.14.39-1.53.84-1.08 1.26-1.92 2.97-4.17 2.13.24-1.95 1.8-2.76 2.91-3.81 1.41-1.38 1.23-2.52 0-3.81-.93-.961-1.68-2.251-2.82-2.881-3.901-2.25-6.181-5.52-7.021-9.901.24-.09.48-.15.72-.24 1.53-.39 2.16.81 2.94 1.71.6 2.52 2.821 3.63 4.471 5.22 1.41.09 1.65 1.35 2.22 2.25 5.37 5.581 10.561 11.312 16.321 16.442 1.59.6 2.82 1.56 3.481 3.21.06.63-.09 1.2-.571 1.65-.36.24-.75.42-1.2.51-6.3.33-12.631.06-18.931.18-9.031-.39-18.032.54-27.092-.51-2.52-.3-5.37.39-8.041.78-1.11-.57-2.94.72-3.48-1.35.72-3.45 4.05-4.53 6.03-6.84v-.03Z" fill="#567376"/><path d="M172.364 341.878c-.75.09-1.47.18-2.22.24-20.972-.03-41.943-.09-62.915-.12-3.57 0-7.141-.06-10.74-.12-.481-.24-.991-.42-1.501-.57-1.32-.18-2.73-.21-3.93-.63-1.8-.63-2.07-1.68 0-2.55 1.95-.48 3.96-.33 5.94-.36 22.922 0 45.874-.03 68.796 0 3.75 0 7.41-.51 11.131-.81 1.65-.15 2.82-.81 3.45-2.37.21-.39.51-.69.84-.99 2.94.09 4.741 1.74 5.731 4.44-1.621 3.12-4.651 1.89-7.111 2.13-2.28.21-4.62-.15-6.751 1.02l-.66.66-.06.03Z" fill="#577575"/><path d="M55.595 249.891c-2.4 4.71-6.81 7.62-10.35 11.281-1.11 1.14-2.191 2.25-3.091 3.57-1.44 1.29-3.27 2.25-3.66 4.44h-.78c-.15-.96-.06-2.04-.45-2.91-.78-1.71-.9-2.88 1.44-3 .93-.06 1.74-.57 2.16-1.29 2.64-4.831 7.44-7.441 11.13-11.161.51-.51.93-1.17 1.38-1.74.69-.63 1.351-1.38 2.401-.72.27.54.24 1.08-.18 1.56v-.03Z" fill="#819599"/><path d="M359.19 295.465c.18.06.36.09.57.09.091.99.15 1.98.241 2.94v17.251c-.091.75-.15 1.5-.241 2.251-.6 1.41-1.68 1.62-3 1.29-2.1-1.41-3.69-3.091-3.06-5.911 4.08-4.17 5.58-8.911 3-14.491-.63-1.35-.63-2.67.84-3.57.57-.21 1.11-.24 1.65.12v.03Z" fill="#7F9495"/><path d="M7.951 30.183h51.334c.27.15.33.3.27.48-.09.18-.15.24-.24.24H7.981c-.21-.15-.3-.33-.21-.51.06-.18.15-.24.21-.24l-.03.03Z" fill="#0D1114"/><path d="M45.904 341.128c6.21-1.02 12.421-.99 18.602 0H45.904Z" fill="#8C9272"/><path d="M77.977 303.055c-1.53-2.64-1.74-5.16.54-7.5-.12 2.52.87 5.1-.54 7.5Z" fill="#BCC8CA"/><path d="M95.768 341.248c.24.21.51.42.75.63h-12.66c0-.87.6-1.17 1.26-1.44 3.63-.69 7.14.24 10.65.78v.03Z" fill="#546158"/><path d="M81.007 336.028c.72.87 1.44 1.77 2.79 1.47.24.24.33.54.3.9-.18.48-.45.9-.81 1.26-.9.66-1.62 1.89-3 .87-.6-1.62.39-3 .72-4.47v-.03Z" fill="#95A583"/><path d="M75.546 329.247c-2.4-2.76-.72-5.1.75-7.47-.24 2.49-.51 4.98-.75 7.47Z" fill="#BCC8CA"/><path d="M21.392 133.001c-3.42 1.29-6.96.36-10.411.57-.18-.12-.24-.24-.18-.39.03-.15.09-.21.15-.21h10.47l-.03.03Z" fill="#606C6C"/><path d="M65.225 198.767c.9 1.83 2.67 3.18 3 5.31-1.86-.84-2.4-3.3-4.53-3.78-.3-.87.3-1.14.9-1.44.21 0 .42-.06.63-.12v.03Z" fill="#A8B08E"/><path d="m7.831 133.601.87-.87c.72.09 1.47.15 2.19.24 0 .21.03.39.06.6-.54.96-.84 1.98-.78 3.12-1.2-.33-1.2-1.74-2.13-2.34-.06-.24-.15-.48-.21-.72v-.03Z" fill="#7A8B8E"/><path d="M34.713 341.158c3-1.02 6-1.05 9.03 0h-9.03Z" fill="#676D56"/><path d="m28.802 338.998 1.5 1.5c-.6.72-1.59.09-2.22.66h-2.25c.51-.72.99-1.44 1.5-2.13.51-.45.99-.48 1.5 0l-.03-.03Z" fill="#A6AC88"/><path d="M80.287 340.468c1.23.06 1.83-1.05 2.82-1.5.96.96.72 1.92 0 2.91-1.29.211-2.46.211-2.82-1.41Z" fill="#7E9586"/><path d="M26.582 294.775c-.72-.991-1.41-1.981-2.13-2.971 0-.93.69-1.23 1.32-1.62-.12 1.71.78 3.09 1.56 4.501-.24.3-.48.33-.78.09h.03Z" fill="#B1BCA8"/><path d="M51.154 210.918c-2.25 1.05-4.5.99-6.75 0h6.75Z" fill="#566465"/><path d="M59.315 30.902v-.72c1.98.27 4.11-.72 5.97.69-1.98 0-3.96 0-5.94.03h-.03Z" fill="#121C23"/><path d="M19.802 280.493c0 1.5.03 3.031.06 4.531-.21.24-.42.45-.63.69v-5.161c.15-.36.33-.39.57-.06Z" fill="#5D7074"/><path d="M83.106 341.878v-2.91c.24-.24.48-.51.75-.75.3.15.54.39.75.66.39.78.78 1.56 0 2.31-.24.24-.51.45-.75.69h-.75Z" fill="#6C867E"/><path d="M76.296 317.996c-2.31-1.65 0-2.1.75-2.97.39 1.14-.06 2.1-.75 2.97Z" fill="#BCC8CA"/><path d="M20.011 225.049c1.14 1.38.39 3 .57 4.5-.18.36-.39.36-.6.03v-4.53h.03Z" fill="#657579"/><path d="M70.506 340.498h3.57c-1.26 1.59-2.88.51-4.35.63.27-.21.51-.42.78-.63Z" fill="#A0A896"/><path d="M28.053 341.128c.6-.75 1.44-.6 2.22-.66.78.06 1.62-.12 2.22.63h-4.44v.03Z" fill="#979B7E"/><path d="M20.012 229.579c.21 0 .39 0 .6-.03-.15 1.5.51 3.12-.6 4.5v-4.47Z" fill="#728387"/><path d="M74.226 339.088c-.27-.9-1.38-2.01.57-2.34.06.84.57 1.8-.57 2.34Z" fill="#BCC8CA"/><path d="M7.95 30.183v.75c-.57-.36-1.14-.75-1.71-1.11.57-.39 1.11-.75 1.68-1.14v1.5h.03Z" fill="#080304"/><path d="M271.402 90.877c.48.48.96.93 1.41 1.41 2.04.3 3.361 1.44 3.991 3.42-2.521 4.291-6.931 6.001-10.921 4.201-1.71-.78-3.271-1.71-1.65-3.9.9-1.2.48-2.01-.48-2.85-2.161-1.86-4.111-3.96-6.121-6-1.74-1.77-3.45-2.041-5.01 0-2.671 3.54-6.571 6-8.311 10.38-1.05 2.67-9.031 5.791-11.821 5.01-1.32-.36-2.31-1.08-1.41-2.7 5.7-5.88 11.431-11.76 17.131-17.641 1.02-1.08 1.98-2.22 2.971-3.33.66-1.98 2.13-3.21 3.87-4.17 1.47-.24 2.37.54 3.06 1.71 0 1.86.75 3.06 2.7 3.24.54.96 1.23 1.77 2.281 2.16l-.06.09c.48 2.31 1.56 4.17 3.93 5.01 1.98.72 2.97 2.58 4.38 3.93l.06.03Z" fill="#182931"/><path d="M257.932 76.716c.75.48 1.5.96 2.25 1.47.24.48.48.99.72 1.47-.99.45-1.98 1.17-3.03.12-1.05-1.05-.42-2.04.09-3.06h-.03Z" fill="#182832"/><path d="M258.771 3.15c8.431 8.011 16.562 16.292 24.572 24.722 0 1.14 1.02 2.46-.51 3.39-1.11.03-2.25 0-3.36 0-.75-.03-1.5.09-2.22-.18-.81-2.04-1.29-4.32-3.781-5.13-.45-.15-.87-.63-.96-1.08-1.44-7.68-9.751-9.09-13.351-14.791-.72-1.11-1.92-1.08-2.67.3-.63 1.2 0 1.92 1.11 2.25 3.06.9 5.581 2.25 6.811 5.61 1.02 2.76.51 4.68-2.431 5.161-3.54.6-7.17.51-10.74.06-2.161-.27-3.301-1.62-2.431-4.02-.78 1.92-2.1 3.33-4.08 4.05-.93.33-1.8.84-2.55 1.53-.54.51-1.32.96-1.14 1.8.18.93 1.14.75 1.83.84.87.09 1.74.03 2.61.03h24.152c1.23 0 2.55-.18 3.66.39 1.891.93 2.431 2.1.09 3.24H242.51c-4.921.21-9.871-.42-14.791.39-1.771-.24-2.791-.93-1.711-2.88 1.111 0 1.801-.57 2.221-1.56 1.23-3.09 4.11-4.74 6.12-7.17 1.29-1.23 2.55-2.49 3.78-3.78.811-.78 1.621-1.59 2.401-2.43 1.23-1.08 2.16-2.581 3.99-2.851 2.82-.09 3.96-1.74 4.05-4.38.42-1.29 1.2-2.19 2.671-2.22 1.35.54 2.61.54 3.45-.87 1.23-2.1 2.64-1.47 4.14-.39l-.06-.03Z" fill="#C3CACF"/><path d="M299.725 103.689c8.551-8.371 17.131-16.712 25.232-25.532 1.02-2.16 1.98-4.47 5.101-2.94 8.22 9.45 16.951 18.42 26.072 27.001.87.841 1.5 1.921 2.22 2.911-1.29.72-2.67.36-4.02.36h-53.135c-.45 0-.93 0-1.38-.06-.66-.54-.72-1.11-.15-1.74h.06Z" fill="#515C3B"/><path d="M159.763 97.718c6.511-6.48 13.081-12.9 19.502-19.472 2.25-2.31 3.57-3.21 6.33-.09 8.311 9.391 17.882 17.522 26.853 26.253.18.96-.48 1.08-1.141 1.17-2.01-.15-4.02-.03-6.03-.06h-46.474c-1.47 0-2.97-.09-4.44.21-.78-.12-1.41-.36-1.47-1.29.57-.75 1.11-1.47 1.68-2.22.93-2.43 2.64-3.96 5.19-4.5Z" fill="#577376"/><path d="M231.139 99.848c1.08 1.95 4.74 2.611 7.35.69 2.101-1.59 4.681-2.22 6.031-5.58 1.53-3.81 5.49-6.66 8.551-9.75 1.41-1.411 2.94-1.201 4.5.36 2.7 2.7 5.1 5.73 8.311 7.92 1.02.69 1.53 1.77-.06 2.58-3.301 1.65-1.17 2.28.54 3.03 4.56 2.04 7.23-1.14 10.171-3.66 2.58-.12 3.54 1.74 4.47 3.66 1.11 1.23 2.25 2.46 3.33 3.721.57.66 1.65 1.29.42 2.31-1.74.84-3.51.36-5.25 0h-11.911c-4.62.75-9.301.12-13.951.33-3.541 0-6.991-1.89-10.591-.42h-2.25c-1.68-1.23-3.631-.3-5.401-.66-2.25-.45-4.71-.45-6.51-2.28.48-.991 1.23-1.741 2.22-2.28l.03.03Z" fill="#182832"/><path d="M153.732 105.249h52.145c.24.15.33.27.24.39-.09.12-.18.18-.27.18-16.862.06-33.723.09-50.584.15-.781.39-1.441.51-1.531-.69v-.03Z" fill="#2C3737"/><path d="M228.199 105.219c-.48-.03-.96-.06-1.47-.09.03-1.53 1.05-2.31 2.19-3 3.48.18 6.63 2.34 10.291 1.62.72-.15 1.26.63 1.59 1.32-4.201.03-8.431.09-12.631.12l.03.03Z" fill="#182931"/><path d="M271.403 90.877c-2.191-1.17-4.051-2.82-6.361-3.9-1.68-.78-3.63-2.46-1.95-5.04 3.12 2.64 6.361 5.19 8.281 8.94h.03Z" fill="#182832"/><path d="M252.711 105.099c4.95 0 9.931.03 14.881.06-2.13 1.44-4.53.75-6.75.63-4.951-.21-9.961.96-14.821-.63 2.22-1.41 4.47-.21 6.69-.06Z" fill="#0A080A"/><path d="M252.711 105.099c-2.22 0-4.47.06-6.691.06-.99 0-1.98-.06-2.94-.09 3.21-2.911 6.421-.84 9.631 0v.03Z" fill="#182931"/><path d="M153.733 105.249c.51.24 1.02.48 1.53.69-.63 1.74-1.92.66-2.97.69v-.75c.21-.48.39-.96.6-1.47.27.27.57.54.84.84Z" fill="#080304"/><path d="M211.848 105.249c-.27.21-.54.45-.78.66-1.74-.03-3.48-.06-5.22-.12v-.6h6v.06Z" fill="#263130"/><path d="M279.504 105.159h5.25c-.27.24-.51.48-.78.72-.48.42-.99.42-1.5 0-1.02-.12-2.19.3-3-.75l.03.03Z" fill="#10151A"/><path d="M303.325 30.813c.93-.9 2.1-.63 3.18-.63h47.224c1.08 0 2.251-.27 3.151.66h-53.555v-.03Z" fill="#415A59"/><path d="M118.81 30.813c-8.941.09-17.851.15-26.792.24h-1.5c-2.49-.09-4.95-.15-7.44-.24 1.05-.96 2.34-.6 3.54-.6h32.162c.24.15.33.27.24.42-.09.12-.18.21-.24.21l.03-.03Z" fill="#425B5A"/><path d="M258.772 3.15c-1.53-.39-2.7-.66-3.63 1.44-.69 1.56-2.611 3.09-3.901 0-.24-.75.12-1.14.81-1.32.3-.21.66-.36.87-.66 2.281-3.18 4.171-2.49 5.881.54h-.03ZM283.224 30.783c-.51-.99-1.32-1.98.09-2.91 1.41.57 3.57.63 2.13 3.18-.78.24-1.56.51-2.22-.27Z" fill="#C3CBCF"/><path d="m112.089 147.912-2.85-2.34c-.18-.69-.21-1.32.63-1.62.78-.3 1.59-.27 2.4 0 1.65 1.38 1.77 2.73-.15 3.99l-.03-.03Z" fill="#B8BC96"/><path d="M110.709 164.324c-1.77-.54-3.54 1.2-5.311-.06.841-1.41 2.101-2.071 3.721-2.071.54.721 1.05 1.411 1.59 2.131Z" fill="#AEB391"/><path d="M132.911 182.415a756.332 756.332 0 0 0 26.792 26.973c1.23.27 1.89.99 1.71 2.31-.27.48-.66.84-1.23.93-4.65-1.14-5.581-.69-6.331 2.76-.45 2.07.24 2.82 2.311 2.43 1.41-.27 2.79-1.2 4.32-.45.84 1.47-.12 2.73-.39 4.081-.12.51-.27 1.02-.45 1.5-.48 1.29-.66 2.7-1.17 3.99-.18.51-.48.96-.9 1.26-1.46-.6-2.821-1.96-4.081-4.08-.18 2.97-3.09 3.63-4.08 6.51 2.82-1.41 5.1-4.17 7.771-1.02.33.72.36 1.44.24 2.22-.66 2.791-1.44 5.551-1.92 8.371-.541 2.46-.901 4.98-1.681 7.411-.9 2.82-1.41 5.73-1.92 8.64-.21 3.991-1.59 7.771-2.52 11.581-2.43 9.991-4.92 19.982-6.481 30.153-.12.87-.33 1.71-1.02 2.34-1.62 1.05-3.48.57-5.19.78-3.48 0-6.991.21-10.441-.24-6.75-1.65-6.991-1.68-6.811-8.401.121-4.08-3.33-1.26-4.35-2.79-.39-.48-.48-1.05-.42-1.68 4.74-6.27 4.8-13.561 4.68-20.942-.03-2.34-.51-4.41-1.86-6.3-.96-5.131-.24-10.351-.93-15.481-.15-1.111.48-2.131 1.08-3.091.3-1.41 3.091-1.89 1.44-3.99-.84.12-.75.87-.93 1.41-.39 1.08-.84 2.16-2.16 2.19-1.35.03-1.83-1.05-2.19-2.13-.12-2.31.15-4.5 1.5-6.48 1.26-1.051 2.49-2.071 3.33-3.511 1.681-1.83 1.561-4.02 1.321-6.27-.15-1.32-.631-2.641-.06-3.991 2.04-1.74 2.88.39 4.14 1.29.09-1.59-.93-2.91-.93-4.47.39-.9 1.32-1.17 1.95-1.77.12-1.11-.96 0-1.14-.6-1.74-3.81 1.59-7.651 6.3-7.291 1.771.81 2.791 2.43 4.051 3.781 1.71 1.8 1.98 3.78.57 5.76-1.59 2.19-1.89 4.53-1.59 7.081.24 2.01.15 4.05-.63 5.91-3.601 8.671-2.221 17.702-1.891 26.642.12 3.361.54 6.691-.12 10.051-.87 4.441 1.201 8.941-.24 13.411.42-1.11.12-2.88 1.291-3.18 3.57-.93 2.58-3.63 2.61-5.94 0-2.011.03-3.991 1.44-5.671.87-1.02.81-2.28.75-3.54-.15-4.771.39-9.421 2.34-13.801.48-1.05.63-2.161.63-3.271.09-3.63.57-7.23 1.86-10.651 1.68-4.47 1.8-9.24 2.701-13.861.48-2.4-.931-5.28-2.221-7.68-.84-1.56-1.8-3.121-1.62-4.891.27-2.85-.99-4.47-3.42-5.49-2.1-.9-3.57-2.64-5.13-4.261-1.681-1.8-2.011-3.9-.541-5.79 1.951-2.49 1.741-4.38-.69-6.301-.75-.57-1.47-1.41-1.08-2.58.21-.84.99-.6 1.53-.81 1.141-.66 1.711.06 2.191.96l-.09-.03Z" fill="#BAC7C8"/><path d="M159.103 221.328c.45-1.26.87-2.52 1.32-3.78-.36-.45-.48-.96-.42-1.53.36-1.44.75-2.88 2.43-3.36.87-.15 1.32.45 1.77 1.02 8.131 8.131 16.262 16.231 24.362 24.392.75.75 1.201 1.83 1.801 2.73v1.53c.36 2.49.36 4.951 0 7.441v70.506c.54 4.56.09 9.15.24 13.711.12 1.83-1.02 1.59-2.161 1.32-2.13-.54-4.17-1.41-6.36-1.59h-.75c-3.18-.84-5.071-3.48-7.471-5.401-3.3-2.64-6.42-5.46-9.631-8.22-.99-.84-2.34-1.68-1.44-3.391 2.731-2.04 5.071-1.59 7.651.63 2.7 2.341 4.62 5.611 8.131 6.991 3.96 1.56 5.01.9 4.89-3.27-.48-19.352-.18-38.703-.15-58.085 0-7.051-.84-14.191 1.23-21.182.51-1.68-.75-2.94-2.4-3.66-1.05 1.74.3 2.7.75 3.9.33.87 1.32 1.8.27 2.67-1.05.84-2.22.24-3-.6-2.971-3.18-6.421-5.88-9.331-9.12-2.37-2.641-5.04-4.861-3.81-9.391.84-3.12-2.221-4.951-5.461-3.78-.96.36-1.86.87-2.52-.451l.06-.03Z" fill="#819599"/><path d="M129.221 182.265c.51.54.96 1.11 1.5 1.59 2.49 2.191 5.16 3.991 1.23 7.651-2.22 2.07.6 6.871 4.77 8.701 2.791 1.23 5.851 2.04 4.291 6.36-.33.96.21 2.88.99 3.421 2.73 1.92 1.23 5.61 3.48 7.62.27.24.3 1.05.09 1.44-2.55 5.071-1.29 11.071-4.05 16.112-.51.9-.39 2.19-.45 3.3-.45 6.48-2.58 12.601-3.99 18.871-.18.811.24 1.471.21 2.161-.06 2.16 1.32 4.2-1.411 6.42-1.86 1.5-.9 5.431-.36 8.221.42 2.07.33 3-2.01 2.19-1.56-.54-1.98.36-2.01 1.71 0 .99 0 2.01-.03 3-.03.781-.18 1.561-1.2 1.471-.75-.06-1.05-.75-.93-1.381 1.02-5.28-.75-10.62.21-15.871.57-3.12.12-6.12.09-9.211-.12-8.85-1.98-17.851 1.77-26.432.75-1.71 1.11-3.57.87-5.46-.39-3.331-.72-6.541 2.13-9.211.96-.9.9-2.4-.45-3.6-1.44-1.26-2.61-2.851-3.9-4.291-1.98-2.19-5.22-2.97-6.571-5.91-.21-.87-.21-1.83.39-2.46 2.371-2.401 1.891-4.741 0-7.111-.27-.84.27-1.32.84-1.77 1.801-2.34 2.101-5.611 4.561-7.561l-.06.03Z" fill="#BAC7C8"/><path d="M115.179 287.964c0 .51 0 1.05-.03 1.56 2.58 2.97 3.241 7.951 1.5 11.221-2.1-1.68-3.9-3.69-6.6-4.59-2.16-.72-1.62-3.061-1.11-4.381 1.29-3.45 2.52-6.27-2.04-8.55-1.801-.9-1.771-3.931-1.921-6.151-.24-3.06-.3-6.15-.06-9.241.18-2.25-2.16-4.11-2.34-6.6-.12-1.5-.93-2.73 1.47-3.301 2.071-.48 2.911-6.42 1.41-8.04-.69-.78-1.38-.63-1.8.06-1.02 1.68-2.46 3.09-2.64 5.25-.42 4.381-4.74 9.121 1.38 12.841.36.21.18 1.44.12 2.16-.12 1.051.6 2.701-.6 3.031-1.71.48-1.5-1.5-2.01-2.49-1.29-2.461-3.57-4.021-5.43-5.941 1.26-6.571 3.6-12.811 5.88-19.052 4.83-13.351 9.841-26.642 16.291-39.333.27-.54.6-1.05.9-1.59 1.381.03 2.791 0 3.301 1.74 0 .36-.09.69-.21 1.02-.9 1.38-.78 2.941-.75 4.471 0 .96-.09 1.89-.3 2.82-1.35 5.1-1.831 10.321-2.581 15.511 0 1.11-.3 2.07-1.05 2.91-.87 2.161-1.2 4.471-1.41 6.781.54 1.59 1.14 3.21.72 4.95-.51 1.561-.57 3.181-.45 4.831 0 1.41 0 2.85-.3 4.23-.72 2.46-.63 4.951-.21 7.441.18 1.68-.39 3.36.18 5.01.24 1.14.27 2.28.27 3.45 0 1.141 0 2.281-.39 3.361-.99 1.95-2.52 3.57-3.42 5.82 1.38.6 2.52-1.32 3.72-.24.24.27.42.6.54.93.27 1.08.24 2.13-.09 3.211-1.26 1.5-.69 2.97.09 4.44.03.15.06.33.12.48l-.15-.03Z" fill="#ADB585"/><path d="M185.835 150.193c-.3 1.05.15 1.95.6 2.88-.66 6.72-.12 13.441-.3 20.161v38.074c.12.39.21.78.33 1.2-.12 1.56-.09 3.09.21 4.65-.03.99-.18 1.98-.99 2.67-2.79.18-4.41-1.65-5.88-3.63-.84-.15.42-2.43-1.5-1.5-.51-.51-.99-1.02-1.5-1.5-.781-3.091 1.86-5.161 2.31-7.891.12-.78.66-1.56.66-2.46-.12-9.541 1.05-19.082-.06-28.653-.48-3.96 1.02-7.92.57-11.91-.15-1.291.45-2.731-.75-3.811-.18.03-.39 0-.42.09-3.091 7.651-10.651 11.161-15.722 16.952-1.83 2.1-3.54 4.5-6.06 6-1.56.93-.96 1.89.18 2.91 3.54 3.301 7.11 6.571 10.171 10.411 2.64 3.33 5.88 6.001 9.931 7.501 1.5.57 2.25 1.26 1.32 3.06-1.14 2.13-1.23 4.861-3.601 6.271-9.12-8.791-18.091-17.762-26.792-27.003-.9-1.47-1.02-2.94-.09-4.44 6.391-6.361 12.331-13.141 18.752-19.472 1.89-1.32 3.57-2.85 4.59-4.98 1.23-1.65 2.88-2.82 4.47-4.08 1.591-1.02 2.791-2.521 4.141-3.841 1.17-1.08 2.49-1.74 4.14-1.53.6.12 1.14.36 1.47.9.09.99.3 2.01-.18 2.971Z" fill="#819599"/><path d="M175.335 211.668c.96-2.161 1.83-4.411 2.97-6.481.57-1.02.3-2.22-.39-1.89-3.03 1.47-4.05-1.62-5.49-2.64-2.671-1.89-5.881-3.781-6.811-7.441-.33-1.29-1.83-.78-2.34-1.5-1.2-1.68-4.141-1.98-3.75-4.98.12-.81-.841-.9-1.681-.931-2.01-.06-2.64-1.77-3.06-3.27-.57-2.04 1.59-1.32 2.34-2.01 3.241-3.09 6.451-6.24 9.571-9.451 2.16-2.19 4.05-4.68 6.901-6.03 2.88-1.35 2.67-4.501 4.08-6.721.51-.78.51-2.16 1.86-1.89 1.23.24 1.86 1.14 1.77 2.49-.24 3.721.51 7.471-.54 11.161-.69 2.49.54 4.951.42 7.351-.36 6.51-.33 13.081-.27 19.561.03 6.031-2.28 10.891-4.11 16.142l-1.47-1.5v.03Z" fill="#819599"/><path d="M139.782 174.855c-3.72-3.511-7.471-7.021-11.191-10.531-1.23-.6-2.4-1.26-3.3-2.341l-1.08-1.08c-.78-.72-1.29-1.59-1.62-2.61-2.251-2.28-4.501-4.53-6.721-6.81.45-2.851 4.861-6.391 8.701-6.751 2.07-.21 4.11-.45 6.12-.96h12.031c4.381 2.88 4.321 8.611-.39 11.431-2.52 1.53-2.88 3.06-1.65 5.43 2.52 4.291.87 8.851.93 13.321 0 .931-.69 1.561-1.77.931l-.06-.03Z" fill="#AFBA91"/><path d="M139.782 174.855c.33-.15.93-.36.93-.45-.9-4.561 1.83-9.421-1.05-13.802 2.52-.21 3 1.771 3.6 3.481.57 1.65.66 3.42 1.261 5.07.33.93.24 2.58 1.95 2.01 1.08-.39 2.46-.78 2.25-2.49-.24-1.98.6-3.66 1.68-5.22.9-1.29 2.1-2.311 3.75-1.861 2.521.691 3.601-.81 4.651-2.64 1.5-2.64 3-5.13 6.63-5.22 1.56-.03 2.82-1.2 2.85-2.94.031-3.841 2.911-2.821 4.801-2.641 2.16.21 4.5.93 3.78 4.111-1.47 1.26-2.97 2.55-4.44 3.81-1.59 1.62-3.15 3.3-4.471 5.19-5.1 5.281-10.2 10.591-15.361 15.842-1.02 1.05-2.16 1.98-3.27 2.97-1.26.48-1.86 2.22-3.54 1.86-.36 0-.66-.18-.9-.45-.601-3.09-4.051-3.93-5.101-6.66v.03Z" fill="#B0B993"/><path d="M129.97 144.222c-1.05.99-2.28 1.5-3.72 1.38-4.8-.45-7.411 3.06-10.411 5.851-1.65-.751-2.67-2.161-3.75-3.541.75-1.23.96-2.46.03-3.69.99-.39 2.28.45 3.03-.78 2.64 1.26 5.401.48 8.101.54 2.25-.24 4.5-.69 6.69.24h.03Z" fill="#B0B892"/><path d="M120.43 199.547c.36-1.861 2.16-3.151 1.98-5.221.39-.69 1.05-1.29.96-2.22.06-.48.3-.75.78-.78 3.18 2.4 3.72 4.89.33 7.651-.42.36-.33 1.38-.45 2.1-.54.6-1.23.66-1.95.45-.93-.36-1.23-1.23-1.65-1.98Z" fill="#BAC7C8"/><path d="M117.94 203.327c.57-.75 1.14-1.5 1.71-2.22 2.22.75 1.8 2.79 2.13 4.47-.18.78-.33 1.65-1.47 1.53-.18-1.77-2.64-.54-2.85-2.25.18-.51.33-1.02.51-1.53h-.03Z" fill="#B2BB8F"/><path d="M81.517 266.302c.09.24.15.48.24.75v1.5c.69.991.69 2.011 0 3.001-.09.51-.15.99-.24 1.5-2.85-2.34-2.85-3.45 0-6.721v-.03Z" fill="#BCC8CA"/><path d="M83.917 243.14v-15.061c.18-.36.36-.36.57 0-.18 5.04.96 10.111-.57 15.091v-.03Z" fill="#939FA2"/><path d="M145.512 181.635c1.44-.06 2.13-2.01 3.81-1.53-.9 1.41-.75 3-.78 4.59-.96-.78-1.89-1.56-2.85-2.37-.18-.12-.27-.24-.27-.42s.03-.27.09-.27Z" fill="#97A89A"/><path d="M84.487 228.049h-.57c0-1.32-.09-2.64-.78-3.81.09-1.14.54-2.131 1.35-2.911v6.721Z" fill="#9DA9AB"/><path d="M178.305 214.668c.06-1.11.51-2.01 1.86-3.36-.15 2.04-.27 3.45-.36 4.83l-1.5-1.5v.03Z" fill="#819599"/><path d="M83.106 219.078c.78 0 1.53 0 2.31.03-.33.48-.63.96-.96 1.44-.93-.06-1.35-.6-1.35-1.5v.03Z" fill="#95A498"/><path d="M145.512 181.635c.06.24.12.45.18.69l-.81-.81c.21.06.42.09.63.12Z" fill="#080304"/><path d="M282.623 237.05v6c1.74 3.751 1.47 7.501 0 11.221l-.21.75c.3 6.121.84 12.271-1.98 18.062l-.24-.09c-1.86 1.86-.27 3.39.51 5.01 0 1.68.06 3.33-.99 4.801-.06 5.73-.15 11.49-.21 17.221-.87 4.68-1.38 9.391-1.41 14.161 0 1.59.3 3.24-.87 4.621-.81 1.23-.48 2.46 0 3.69-1.11 6.45-.42 12.961-.66 19.441-2.671 1.831-5.731.991-8.611 1.171-7.741.48-15.511.15-23.252.15-1.38 0-2.7-.15-3.81-1.111h-5.221c-.24-.09-.51-.15-.75-.24-.84-.9-1.11-2.07-1.44-3.18-.3-1.2-.24-2.4-.33-3.6 0-1.65-.03-3.27.12-4.921.18-1.62.66-3.21.99-4.83 1.62-9.691 2.94-19.412 5.581-28.892.09-.6.18-1.17.36-1.74 1.65-5.011 2.16-10.441 5.16-15.002 3.93.09 2.01-1.74 1.02-3.24-.39-1.98.12-3.66 1.62-5.01 1.8-.69 2.4 1.38 3.991 1.86-.421-2.55-1.141-4.831-1.891-7.111-.12-1.35.24-2.43 1.5-3.09.421-.66.691 1.77 1.141.06.15-.57.24-1.17.57-1.68 2.31-1.5 3.45-3.271 1.44-5.851 1.95-6.36 5.52-11.881 9.12-17.341 4.291-6.511 8.731-12.961 14.282-18.482.54-.69 1.14-1.32 1.8-1.89.54-.45 1.14-.81 1.86-.84 1.2.09 1.86.81 2.13 1.95h.3c.48.75.48 1.5-.06 2.25l-.99 6.781c-.48 1.8-.27 3.6-.12 5.4.54 1.261.48 2.461-.36 3.571l-.09-.03Z" fill="#567376"/><path d="m287.063 340.468 1.531-3.69c1.68-.48 1.77-2.01 2.22-3.33.87-1.95 2.58-3.18 3.93-4.741 9.661-9.63 19.142-19.471 28.622-29.282 1.351-.3 2.281-3.12 4.111-.78.21 10.201-.3 20.402.27 30.573-1.05 2.49.45 4.92.09 7.38-.27 1.71.24 3.9-2.22 4.53-3.751-.6-7.531-.12-11.281-.27-6.151.15-12.271-.33-18.422.27h-4.5c-1.38-.69-3 .301-4.351-.66ZM353.879 313.526c.33 2.13 1.681 3.69 3.001 5.251.81.93 2.1 1.23 2.88 2.22.09 1.53-1.11 2.91-.51 4.5.51 2.25.12 4.53.24 6.811-.12 2.73.27 5.49-.24 8.22-2.79 1.5-5.761.57-8.671.69-3.33.15-6.69-.03-10.021-.09-.87-3.21-.18-6.48-.39-9.72v-22.502c.24-4.141-.54-8.341.42-12.481 1.53.06 2.821-1.32 4.441-.78.72.63 1.5 1.23 1.98 2.1.36.57.69 1.17.99 1.77 1.89 4.71 4.98 8.911 5.91 14.011h-.03Z" fill="#577476"/><path d="M323.457 300.085c-2.04 4.14-5.911 6.631-8.941 9.841-5.76 6.12-11.761 12.031-17.642 18.001-.51.51-1.14.96-1.71 1.41-1.62-1.08-1.71-2.88-2.13-4.56 3.51-8.941 7.021-17.911 10.591-26.852.87-2.19 2.79-2.49 4.83-2.46 1.501-.57 3.061-.15 4.591-.3h10.381c3.36 1.62 1.26 3.27.03 4.92Z" fill="#849897"/><path d="M293.035 324.777c1.68 1.05 1.62 2.94 2.13 4.56-1.26 1.471-2.52 2.941-3.75 4.411-.54.72-.99 1.65-2.101.72.661-3.45 2.071-6.631 3.721-9.691Z" fill="#849B9F"/><path d="M327.748 329.247c-.6-.57-.63-1.32-.63-2.07v-29.372c-.27-.63.06-.81.6-.78v32.222h.03Z" fill="#4D6A6E"/><path d="M295.915 341.158c4.56-1.38 9.211-.33 13.801-.63 1.59-.12 3.18 0 4.77 0 .24.12.33.27.24.42-.09.15-.15.21-.24.21h-18.601.03Z" fill="#4A6768"/><path d="M340.468 313.526v17.942c-.15.36-.36.36-.6.06v-18.032c.21-.33.39-.33.6 0v.03Z" fill="#324546"/><path d="M327.747 296.995c-.21.27-.39.54-.6.78-1.38.51-2.01 2.25-3.69 2.28 0-1.53 1.71-2.82.69-4.53.96-.57 1.92-.6 2.85 0 .24.48.48.96.75 1.44v.03Z" fill="#728D8D"/><path d="M326.997 295.555h-2.85l-11.161-.09c-.24-.15-.3-.27-.21-.39s.18-.15.27-.15c3.93-.06 7.861-.12 11.791-.15.81 0 1.77-.3 2.19.81l-.03-.03Z" fill="#5D6E70"/><path d="m340.588 296.425-.09 12.601c-.21.33-.42.33-.6 0-.12-3.991-.24-7.951-.33-11.941 0-.75.57-.63 1.05-.63l-.03-.03Z" fill="#3E5858"/><path d="M314.486 341.128v-.63c3.691.36 7.501-.75 11.131.63h-11.131Z" fill="#506E6F"/><path d="M339.898 331.558c.21 0 .39-.06.6-.06 0 3.21.06 6.45.09 9.66-1.68-3.09-.42-6.39-.69-9.6Z" fill="#425C5F"/><path d="M359.76 320.997c-1.62.15-2.73-.39-2.88-2.22 1.05.09 1.98-.18 2.88-.751v2.971Z" fill="#738D8F"/><path d="M359.25 340.498v-8.25c.18-.36.39-.36.6-.03-.24 2.76.72 5.58-.57 8.28h-.03Z" fill="#1B2424"/><path d="M289.314 334.468c.69-.24 1.41-.48 2.1-.72-.09 1.8-.18 3.63-2.82 3.03.24-.75.48-1.53.72-2.28v-.03Z" fill="#648286"/><path d="M347.219 299.275c-.6-.33-.72-.87-.75-1.5-.51-.72-.63-1.44 0-2.13.48-.06.96-.15 1.44-.21l.45.45c.39 1.41.99 2.88-1.14 3.39Z" fill="#758D8E"/><path d="M359.82 332.248c-.21 0-.39 0-.6.03v-6.781c1.26 2.16.36 4.5.57 6.751h.03Z" fill="#242D2F"/><path d="M347.939 295.435c1.891-1.261 3.961-.48 5.971-.51.21.45.09.81-.33 1.08-1.89.78-3.75.9-5.551-.24l-.06-.3-.03-.03Z" fill="#627577"/><path d="M353.939 295.495c0-.18 0-.39-.03-.57 1.77.06 3.66-.78 5.281.57-.54.03-1.05.09-1.591.12-1.26.66-2.49 1.14-3.66-.12Z" fill="#546568"/><path d="M277.163 322.467c-1.02-1.23-2.07-2.46 0-3.69v3.69Z" fill="#567376"/><path d="M287.063 340.468c1.441.27 3.031-.48 4.351.66-1.47-.06-3.09.841-4.351-.66Z" fill="#40575F"/><path d="M313.016 294.895c0 .18 0 .36-.03.54h-4.53c1.41-1.2 3.03-.54 4.56-.54Z" fill="#536261"/><path d="M339.868 308.996h.6v4.5h-.6v-4.5Z" fill="#374F4F"/><path d="M346.498 295.645v2.13c-.93-.42-1.47-1.08-1.47-2.13h1.47Z" fill="#678486"/><path d="M50.374 218.988c7.71 1.65 11.731 6.721 12.001 15.092 1.59 4.83-3.27 11.641-9.06 12.631l-2.16.12c-1.92.9-4.051-.18-5.971.63-6.21-2.011-10.591-5.671-11.251-12.691-.42-1.501-.45-2.971 0-4.471 1.2-6.21 5.31-10.111 11.97-11.311 1.5-.48 3.001-.45 4.501 0h-.03Z" fill="#405F5E"/><path d="M53.315 246.711c2.76-1.741 5.31-3.631 7.17-6.511 1.26-1.95 1.95-3.87 1.89-6.121 4.92 1.471 1.71 3.871.66 6.001-1.47 3.69-3.99 6.361-7.44 8.221-.75.24-1.5.48-2.25.75 0-.78 0-1.56-.03-2.34Z" fill="#879C9E"/><path d="M55.595 248.301c2.67-2.551 5.28-5.191 7.44-8.221.66 0 1.2.18 1.53.78-3 3-5.97 6.001-8.97 9.001v-1.56Z" fill="#788586"/><path d="M32.763 271.373c-1.56.09-3.15.81-4.11-.72-.51-.871.57-1.621 1.32-1.831 1.98-.54 2.49.78 2.76 2.551h.03Z" fill="#819599"/><path d="M45.184 247.461c1.89-1.32 3.99-.39 5.97-.63-1.86 1.41-3.99.48-5.97.63Z" fill="#4F6A6A"/><path d="M50.374 218.988h-4.5c1.5-1.02 3-1.05 4.5 0Z" fill="#6B8084"/><path d="M33.933 230.329v4.471c-.99-1.501-1.02-2.971 0-4.471Z" fill="#768B8F"/><path d="M80.917 217.488c1.02.12 1.8.6 2.16 1.59-1.11 0-2.19-.06-2.16-1.59Z" fill="#889284"/><path d="M70.506 252.291c-.18 2.85-3.15 3.36-4.62 5.13-2.04 2.461-4.561 4.291-4.441 8.011.09 2.22-1.41 2.79-3.27 1.71-1.47-.84-4.35-1.26-4.14-2.37.27-1.62 1.44-3.51 3.24-4.68 3.39-2.19 6.63-4.591 9.93-6.901.54-.36.93-.84.81-1.53-.18-1.05.12-1.83 1.32-1.56.99.24 1.14 1.2 1.2 2.16l-.03.03Z" fill="#BDC8CA"/><path d="M26.582 294.775c.24 0 .51-.06.75-.09.75.78 1.5 1.56 2.22 2.34-1.38-.24-2.79-.42-3-2.25h.03Z" fill="#8D977A"/><path d="M32.553 300.025c-1.83-.18-2.79-1.23-3-3.03 1.26.75 2.28 1.74 3 3.03Z" fill="#939A7B"/><path d="M35.523 303.025c-1.83-.18-2.79-1.23-3-3.03 1.26.75 2.28 1.74 3 3.03Z" fill="#989E80"/><path d="M38.493 306.025c-1.83-.15-2.79-1.23-3-3.03 1.26.75 2.28 1.74 3 3.03Z" fill="#959B7D"/><path d="M41.493 309.026c-1.83-.18-2.79-1.23-3-3.031 1.26.751 2.28 1.741 3 3.031Z" fill="#91967A"/><path d="m42.903 309.866 1.53 1.53c.21.15.27.3.21.45-.06.15-.15.21-.21.21-1.77-.27-2.76-1.26-2.94-3.06.48.3.96.57 1.47.87h-.06Z" fill="#92977B"/><path d="M49.564 316.526c4.38-1.17 6.99 1.86 9.6 4.411 1.83 1.8 2.911 4.26 5.191 5.82 1.83 1.26.75 2.76-.6 3.931-.87.54-1.11-.271-1.47-.751l-5.85-5.94c-1.32-.75-2.37-1.77-3.09-3.12-.21-.21-.45-.42-.66-.63-.99-.51-1.83-1.2-2.491-2.101-.3-.51-.99-.87-.6-1.62h-.03Z" fill="#BCC8CA"/><path d="M29.463 335.998c1.44-2.76 3.66-4.83 6-6.781.45.09.69.36.78.78-1.98 2.011-3.96 3.991-5.94 6.001-.3.3-.57.3-.84 0Z" fill="#8B9471"/><path d="M65.226 332.278c.99-.66 1.41-2.61 3.06-1.65.96.57 2.25 1.65-.09 2.37-.54.15-.99.54-1.5.84-.84.3-1.05-.45-1.47-.87v-.69Z" fill="#BCC8CA"/><path d="M49.564 316.526c.3.48.57.99.87 1.47-.27.331-.54.331-.81 0-2.01-1.74-4.41-3.15-5.22-5.97v-.69c1.71 1.71 3.42 3.42 5.13 5.16l.03.03Z" fill="#939777"/><path d="M65.256 332.998c.48.3.96.57 1.47.87.84 2.07 3.81 2.55 3.81 5.25-2.46-1.44-4.29-3.39-5.28-6.12Z" fill="#8A906C"/><path d="m40.683 324.687 4.47-4.98c-.54 2.79-2.52 4.26-4.41 5.85-.24-.18-.33-.36-.24-.57.06-.21.15-.3.21-.3h-.03Z" fill="#939975"/><path d="M29.463 335.998h.84c-.51.99-1.02 1.98-1.5 2.97h-1.5c.06-1.47.99-2.31 2.16-3v.03Z" fill="#969D76"/><path d="M40.684 324.687c0 .3 0 .57.03.87-.66 1.17-1.53 2.1-2.94 2.31-.24-.18-.33-.36-.24-.54.06-.18.12-.3.21-.3l2.97-2.34h-.03Z" fill="#838967"/><path d="M49.624 318.026h.81c.99.511 1.68 1.291 2.22 2.251-1.77.33-2.49-.87-3.06-2.221l.03-.03Z" fill="#A1A585"/><path d="M37.713 327.027c0 .27.03.57.06.84-.09 1.02-.6 1.74-1.53 2.16-.27-.27-.51-.54-.78-.78.75-.75 1.5-1.47 2.25-2.19v-.03Z" fill="#808664"/><path d="M53.345 320.877c1.02 1.05 2.04 2.07 3.09 3.12-1.92-.15-2.91-1.23-3.09-3.12Z" fill="#929777"/><path d="M62.285 329.938c.48.24.99.51 1.47.75.27.51.51 1.05.78 1.56-1.47-.06-2.22-.84-2.25-2.31Z" fill="#999F82"/><path d="m240.83 294.805-.06 1.47c-2.82 2.34-4.95 1.8-6.33-1.62-.39-.991-.78-1.771-2.16-1.321-2.821.961-3.541-1.14-3.841-3.15-.3-1.98.21-3.72 2.731-4.02 1.74-.21 3.39-.81 4.53-2.37-1.2 1.2-2.37 2.25-4.14 1.05-1.44-.96-1.5-2.1-.87-3.541.18-.45.3 0 .09-.33-5.071-7.47 3.06-14.311.96-21.661-1.32-4.651 1.26-9.241.45-14.072-1.14 2.431-2.28 4.501-5.281 5.041-1.92.36-.99 1.95-.24 2.94 1.77 2.28 2.37 4.921 2.37 7.711 0 3.12-.78 5.73-4.41 6.33-2.22.36-2.25 1.92-1.2 3.271 2.07 2.7 1.95 5.85 2.22 8.91.24 2.581-.39 4.771-3.15 5.671-2.19.69-2.16 2.1-1.35 3.81 1.14 2.4 1.56 4.951 1.77 7.591.27 3.18-.18 5.7-3.69 6.75-2.071.63-1.71 2.13-.96 3.601 1.5 2.97 2.25 6.09 1.68 9.42-.3 1.771-1.05 3.511-3.121 3.721-2.07.21-2.64-1.47-3.12-3.091-1.8 2.761-1.56 5.221.78 7.561.81.81.99 1.98 1.29 3.06.3 1.08.54 2.371 2.161 1.89 1.2-.36 2.37-.93 2.52-2.4.78-7.35 3.39-13.621 9.931-17.671.3-.18.48-.54.39-.96-.15-.18-.36-.18-.6 0-1.051.75-1.411 2.88-3.031 2.25-1.62-.63-1.23-2.58-1.38-3.99-.48-4.261 2.58-9.271 6.481-10.681 1.92-.69 3.42.48 3.78 2.07 1.17 5.07 3.54 10.351-1.02 15.091-1.35 1.41-1.14 3.18-.9 4.951.3 2.46.36 4.98.72 7.44.27 1.59-.48 3-.81 4.501-.24.27-.45.6-.72.81-2.58 1.92-2.46 3.66.3 5.28.12.51.12 1.05-.09 1.53-3.03 1.35-6.331 1.38-9.031-.15-2.25-1.29-3.69-1.47-5.85 0-1.771 1.23-3.721 2.34-5.671 3.33-.39 0-.78.03-1.17.03-2.25-.18-4.53.36-6.751-.3-.9-2.76.781-5.55-.06-8.31.33-.51.661-.99.991-1.5 2.67-1.921 3.57.57 5.22 2.4-.09-2.22.3-3.961-2.34-4.441-1.56-.27-1.74-1.89-2.1-3.18-.03-.75-.09-1.47-.12-2.22-.24-3.51 0-6.931 1.44-10.201 1.77-1.2 2.61-2.7 1.62-4.86-.09-.75-.18-1.53-.27-2.28-.06-3.691-.33-7.411 2.22-10.531l.24.09c2.46-1.44 2.01-3.301.75-5.281-.03-.75-.06-1.47-.12-2.22 0-3.66-.63-7.441 2.07-10.561.09-.24.18-.51.24-.75 1.65-1.26 1.89-2.73.75-4.47-.03-.75-.06-1.47-.12-2.22-.03-4.381.06-8.761 2.071-12.812 1.5-3.51 1.62-7.32 2.31-10.98 1.32-6.811 2.28-13.682 3.36-20.522.51-3.24.84-6.511 1.92-9.631h.75c2.64 1.47 4.231 3.9 5.851 6.301 4.11 5.64 7.74 11.611 11.731 17.341.81 1.56 2.19 2.85 2.19 4.8-1.08 2.461-3.21 4.411-3.24 7.621 4.41-1.47 4.86 2.25 6.06 5.01.57 1.291.33 2.791-.9 3.241-3.12 1.17-2.16 2.7-.75 4.47.39.48.72.99.78 1.65-2.01 2.76-3.57-.93-5.46-.42-.571 1.41.54 1.77 1.35 2.19 3.03 1.53 3.3 4.111 1.83 6.571-2.19 3.63-1.89 8.101-4.621 11.611-1.77 2.25.66 5.46.03 8.251l.12.09Z" fill="#849897"/><path d="M213.317 340.408c1.38-3.54 5.821-2.88 7.741-5.73.15-.21 1.44-.09 1.68.24 2.82 4.05 7.051 2.01 10.681 2.58.42.33.36.78.33 1.23-.06.3-.18.57-.33.81-.45.57-.9 1.14-1.5 1.59-.99 0-1.95 0-2.94.03-2.1-.6-4.261-.12-6.391-.27-3.09-.21-6.21.48-9.271-.45v-.03Z" fill="#849897"/><path d="M182.085 333.718c1.47-2.55 2.91.24 4.38.09 1.35-.15 2.491.84 3.661 1.47.6.39.51.93.24 1.47-.06 2.31.36 4.891-3.061 5.161-1.35-1.021-.39-2.491-.72-3.691-.93-2.07-3.42-2.58-4.5-4.47v-.03Z" fill="#819599"/><path d="M186.586 338.188c1.14 1.05.51 2.46.72 3.691h-6.031c-2.91-.781-5.97.36-8.88-.631 1.59-3.18 4.56-1.74 6.93-2.01 2.43-.27 4.951.15 7.261-1.05Z" fill="#5B7976"/><path d="m213.318 340.408 9.661.18c.24.12.33.21.27.36-.09.12-.15.18-.24.18h-10.441c-.24-.15-.3-.27-.21-.39s.18-.15.27-.15c.24-.03.48-.09.72-.15l-.03-.03Z" fill="#495756"/><path d="M172.394 341.248c2.971.33 6.001-.66 8.881.63h-8.911v-.63h.03Z" fill="#5A7268"/><path d="M212.597 340.588c0 .18 0 .36-.03.54-2.49-.09-5.07.84-7.47-.57h7.53l-.03.03Z" fill="#556466"/><path d="M234.14 338.998c1.05.75.66 1.86.72 2.88-.6.09-1.2.211-1.5-.54-.57-.78-.6-1.59 0-2.37.24-.36.51-.36.75 0l.03.03Z" fill="#688587"/><path d="M222.979 341.128v-.54c2.01.09 4.11-.69 6 .54h-6Z" fill="#505F61"/><path d="M233.389 338.998v2.37c-.48-.09-.99-.15-1.47-.24 0-1.08.09-2.07 1.5-2.13h-.03Z" fill="#768F8E"/><path d="M162.643 317.307c5.431 4.71 10.861 9.45 16.322 14.131.84.72 1.8 1.29 2.34 2.28.54 3.69-1.17 4.47-4.651 4.65-28.952 1.53-57.934.21-86.887.66-1.98 1.71-3.96 1.14-5.94 0 0-.27 0-.51-.03-.78 0-.24 0-.51-.03-.75 6.45-7.11 12.96-14.161 19.351-21.332 3.36-3.78 6.511-7.74 10.441-10.921 2.85.601 4.02 2.251 3.09 5.161-.51 1.56-.6 3.18-.57 4.8.06 2.671-.21 4.861-3.66 5.401-2.31.36-2.25 2.73-2.25 4.59 0 3.18-.57 5.851-4.651 6.451 5.731-2.431 10.711-.63 16.202.66 6.87 1.59 14.281.48 21.482.36 1.62-.03 3.06-.3 1.92-2.67-.96-1.981.54-2.131 1.86-1.801 2.49.63 5.04.93 7.35 2.431 2.671 1.74 5.701 1.89 8.911.75-1.14-1.56-2.4-1.02-3.54-.75-3.18.75-5.281-.45-5.611-3.691-.45-4.59-2.28-8.07-6.33-10.291-.15-.09-.24-.18-.27-.24-2.73-6-7.981-10.29-10.801-16.231 1.68-.09 3.39-.18 5.07-.24 3.391.15 4.741 3.21 6.811 5.1 4.62 4.201 10.261 7.201 14.071 12.301v-.029Z" fill="#577476"/><path d="M136.721 300.145c1.17.66 2.25 1.29 2.61 2.82.21.9.9 1.98 1.65 2.37 3.061 1.621 4.081 4.591 5.191 7.441.78 1.98 2.07 3.39 3.84 4.32 2.88 1.501 4.441 3.661 4.531 6.991 0 1.23.51 2.43.69 3.63.3 2.251 1.83 2.431 3.57 2.16.84-.15 1.62-.84 2.43-.87 1.65-.03 3.72.63 3.93 2.101.271 1.89-1.86 1.8-3.27 1.86-3.48.09-6.93.27-9.691-2.58-1.74-1.801-4.92 1.2-6.03-2.371-.48.78-.69.96-.69 1.14.21 1.381 2.91 1.441 2.01 3.061-.78 1.44-2.73 1.47-4.32 1.47-7.051 0-14.102.03-21.152 0-2.28 0-4.38-.66-6.001-2.43-.87-.96-2.31-2.041-3.12-.69-1.89 3.15-4.98 1.17-7.32 2.19-1.021.45-2.041-.15-2.161-1.35-.18-1.53 1.11-1.5 2.041-1.38 3.42.36 3.96-1.651 3.72-4.411-.15-1.89.03-3.72 1.11-5.37.39-.6.72-1.47 1.65-1.14 3.66 1.32 3.18-1.26 3.18-3.391 0-2.22-.12-4.41.96-6.57 1.23-2.43-2.22-2.22-2.49-3.931 1.26-1.47 2.52-2.94 3.781-4.44 2.4-2.88 5.4-.66 8.1-.9 3.75.09 7.501.15 11.251.24v.03Z" fill="#567476"/><path d="M125.47 299.905c-2.7.36-5.49-.33-8.1.9-.24-.03-.48-.06-.72-.06.42-3.87-.42-7.561-1.501-11.221 2.011.63 4.201-2.04 5.341-.72.9 1.02.15 3.72-.24 5.58-.93 4.501 2.22 4.891 5.22 5.521Z" fill="#BBC7C7"/><path d="m210.438 27.902 1.26 1.62c-.18 1.62-1.44.96-2.22.99-4.201.06-8.401.03-12.601.03h-34.173c-1.23 0-2.49-.24-3.66.27-1.351 0-2.671.09-4.021.06-1.53-.06-1.83-.9-1.29-2.22.54-.75 1.11-1.47 1.65-2.22.12-.87.75-1.2 1.47-1.5 8.161-7.98 16.352-15.961 24.512-23.942.72-.69 1.44-.72 2.131.06 8.7 9.24 17.431 18.452 26.972 26.852h-.03Z" fill="#515D3B"/><path d="M118.81 30.813v-.6c6.66 0 13.321-.06 19.981-.09-.84 1.44-2.22.78-3.33.78-5.55.03-11.101-.03-16.651-.09Z" fill="#415A59"/><path d="M83.857 338.998h5.94c1.5 2.07 4.471.12 5.941 2.25-3.72 0-7.44-.03-11.19-.06-.24-.72-.48-1.47-.72-2.19h.03Z" fill="#5F7E7A"/><path d="M353.939 295.495c1.23.03 2.461.06 3.661.12-.51 1.02-.87 1.89-.18 3.09 2.31 4.02 1.62 10.411-1.261 13.981-.66.81-1.44.81-2.28.87-2.73-4.53-4.86-9.301-6.66-14.251 1.17-.96.54-2.34.78-3.54l5.94-.27Z" fill="#839897"/><path d="M176.835 152.293c-.81-4.351-4.41-2.911-7.021-3.361-1.08-.18-.54.811-.45 1.321.63 3.3-2.07 4.83-3.99 4.62-3.51-.39-4.11 2.1-5.43 3.93-1.591 2.22-2.041 5.881-6.361 3.511-1.53-.841-4.83 3.78-3.9 6.09 1.59 3.96-2.61 3.99-3.571 4.44-2.19 1.021-2.04-2.04-2.61-3.45-1.2-2.97-.3-6.87-3.84-8.821-2.01-3.03-1.77-4.98 2.16-6.18 2.82-.84 3.93-4.89 2.67-7.891-.33-.78-.72-1.53-1.11-2.28.21-.15.39-.42.6-.42 11.461 0 22.922-.33 34.353.15h2.25c.36-.18.69-.15 1.02.06 2.311 2.13-.51 3.12-.99 4.59-.99 1.471-2.19 2.761-3.75 3.661l-.03.03Z" fill="#B0B892"/><path d="M185.685 147.072h-1.41c-.81-.99-.45-2.04-.12-3.09.3-.18.57-.18.87 0l.84.81c.33.81.51 1.59-.18 2.31v-.03Z" fill="#9EAB9A"/><path d="m185.686 147.072.18-2.31c1.08 1.8 1.05 3.6 0 5.401l-.18-3.091Z" fill="#60685F"/><path d="M227.449 215.958c.21.12.42.15.66.06 1.32-.63 2.73-.18 4.08-.33h2.25c6.811 1.62 13.711.51 20.552.63 6.12.12 12.241 0 18.361.3.871.03 1.711 0 2.431-.6l-.06-.06c.99-.48 2.04-.21 3.03-.27 1.65.21 1.11 1.71 1.56 2.64-.51.51-1.02 1.02-1.5 1.53-12.781 2.521-25.772.84-38.643 1.711-.87.06-1.8.06-2.551-.301-2.64-1.26-4.71-.57-6.48 1.591a972.712 972.712 0 0 0-5.16-6.661c.48-.09.96-.15 1.44-.24h.03Z" fill="#C3CACF"/><path d="M275.783 216.048c-1.26 1.95-3.36 1.38-5.041 1.35-10.23-.18-20.461-.18-30.692.15-1.89.06-3.66-.27-5.191-1.47 3.511-.9 7.051-.15 10.561-.39 9.391.21 18.812-.42 28.203.33h2.13l.03.03Z" fill="#C3CACF"/><path d="M273.653 216.018H245.27c-.24-.15-.33-.27-.24-.42.09-.12.18-.21.24-.21 8.821-.03 17.642-.09 26.463-.12.69 0 1.5-.18 1.89.69l.03.06Z" fill="#AFB7BD"/><path d="M245.301 215.448v.6c-3.481 0-6.931.03-10.411.06-.75 0-1.5-.03-2.251-.06-.24-.15-.33-.27-.24-.39.09-.12.18-.18.271-.18.48-.09.99-.18 1.47-.24 3.72.09 7.44.15 11.161.24v-.03Z" fill="#ABB1B7"/><path d="M280.403 276.803c-.09.24-.15.48-.24.72-.9-1.5-4.41-3 0-4.53l.27 3.78-.03.03Z" fill="#567376"/><path d="M280.313 218.328c-1.83-.15-1.35-1.14-.81-2.19.72-.66 1.5-.54 2.31-.12.21.03.42.09.63.15.36.78-.18 1.05-.72 1.32l-1.41.84Z" fill="#C3CACF"/><path d="M281.724 217.488c.24-.45.48-.87.72-1.32 2.55-.09 2.55 1.11 1.41 2.88-.72-.51-1.41-1.05-2.13-1.56Z" fill="#97A5A9"/><path d="M281.813 216.018c-.78.03-1.53.09-2.31.12-1.26-.06-2.52-.12-3.78-.15 2.04-1.11 4.08-1.02 6.09.03Z" fill="#8D9299"/><path d="M283.134 233.269c-.21 0-.42.06-.6.12.21-1.77-.6-3.63.6-5.28v5.16Z" fill="#567376"/><path d="M206.747 325.557c1.2 1.62 2.13 3.87 4.74 1.95.36 1.77.66 3.301.96 4.861.21 1.11-.06 2.01-1.2 2.34-1.17.33-1.56-.51-1.62-1.44-.15-2.46-1.83-2.58-3.63-2.49-.69-1.891.78-3.451.78-5.221h-.03ZM212.688 290.304c.21.15.45.24.6.42.84.96 2.49 1.62 2.01 3.21-.45 1.471-2.01 1.561-3.361 1.651-.42-1.861.061-3.571.751-5.281ZM215.688 272.303s.21.12.3.18c.87.78 2.37 1.53 2.16 2.64-.27 1.41-2.04 1.2-3.21 1.65-.6-1.65.45-3 .75-4.47ZM208.968 312.776c-.09-.51-.15-.99-.24-1.5l.99-2.97c.69 1.65 4.53 3.84-.75 4.47Z" fill="#849897"/><path d="M277.283 30.813h-2.97c.09-2.67-1.89-2.1-3.39-2.1H241.22c-.9 0-1.83-.12-2.22-1.02-.45-1.02.33-1.68 1.02-2.16 1.56-1.11 2.551-2.881 4.831-3.121 1.98-.21 2.76-2.31 3.66-3.93.72-1.32 1.5-2.22 3.24-1.2-.3.42-.45.75-.69.96-1.02.87-2.46 1.65-1.74 3.3.6 1.41 2.04 1.17 3.27 1.17h8.911c1.38 0 2.43-.75 2.88-1.98.54-1.41-.57-1.62-1.59-1.86-.3-.06-.78-.51-.75-.63 1.32-4.83-3.12-3.36-5.01-4.38-1.11-.6-2.73-.87-2.43-2.131.33-1.56 1.35-3.21 2.52-4.29.75-.69 1.62.78 2.28 1.44 2.64 2.55 4.65 6.03 8.041 7.5 3.54 1.56 5.16 3.93 5.46 7.591.09.99.78 1.59 1.71 1.74 3.21.54 3.45 2.58 2.67 5.16v-.06ZM246.081 9.27c.96-.81 1.95-1.62 2.91-2.43.69 3.3-1.44 5.431-4.47 4.501.51-.69 1.05-1.38 1.56-2.07Z" fill="#C3CBCF"/><path d="M159.013 30.813c1.02-1.02 2.341-.63 3.511-.63h34.413c.24.15.33.3.24.45-.09.15-.18.21-.27.21h-37.924l.03-.03Z" fill="#414C2F"/><path d="M196.936 30.813v-.66c3.751 0 7.531 0 11.281-.03 1.17 0 2.46.42 3.45-.63 1.051 2.19-.96 1.32-1.5 1.32-4.41.06-8.85 0-13.261 0h.03Z" fill="#39442A"/><path d="M255.351 98.108c-3.63-.63-6.96.96-10.531 1.32 1.26-4.77 5.611-5.37 10.531-1.32Z" fill="#182931"/><path d="M162.643 317.306c-6.3-4.47-12.211-9.42-17.881-14.671-.99-.93-2.01-1.8-3-2.7.78-10.411 3.72-20.342 6.09-30.423 1.08-4.53 2.04-9.09 3.06-13.651 2.581-2.28 3.421-5.01 2.101-8.28.54-2.491 1.05-4.981 1.59-7.471 2.28-.78 3.87-1.86 2.43-4.65-.57-1.08.15-2.401-.3-3.601 0-.75.06-1.5.06-2.22-.09-.66.18-1.14.69-1.53.06-.48.09-.96.15-1.44 2.04-.69 1.17-2.43 1.35-3.81.03-.48.09-.96.12-1.471 1.14.751 1.89 0 2.49-.78 1.501-1.95 2.941-1.2 4.411 0 2.25 1.831 2.64 4.051 1.38 7.441-.3.81.12 1.44.6 2.04 1.53 1.77 2.97 3.631 4.59 5.311 2.791 2.94 6.151 5.31 8.641 8.58.36.48.99.75 1.74.27-.87-1.56-1.77-3.12-2.64-4.68-.66-1.2-.48-2.1.84-2.73 1.17-.57 2.16-.54 2.88.66 1.29 2.16 3.121 3.66.81 6.93-1.53 2.161-.54 6.181-.54 9.391v64.056c0 2.19.66 4.38.03 6.63-.6 2.1-1.47 2.49-3.72 2.01-4.8-1.02-7.711-4.77-10.561-7.92-2.67-3.001-4.74-2.071-7.381-1.231l-.03-.06Z" fill="#819599"/><path d="M120.31 207.077c.57-.33.72-.87.75-1.5.9-1.38-.87-3.24.72-4.5H124c.78 1.53 2.401 2.01 3.661 2.91 1.11.81 2.22 1.5 2.31 3.06-3.78-.66-4.561 2.761-6.301 4.801-.72.84.33 1.53 1.11 1.95.42.09.66.33.75.75-.09 1.5-1.14 1.5-2.22 1.5-.6 1.41-1.89 2.1-2.97 3-.09 2.581.96 4.981.81 7.591-.12 1.83-.57 3.06-2.31 3.63-.96.78-1.95.81-2.91 0 .75-5.28.81-10.711 2.85-15.751 1.68-1.17 1.41-2.55.48-4.02-.24-1.351.33-2.431 1.05-3.451v.03Z" fill="#BAC7C7"/><path d="M114.4 279.773c0-.24-.03-.51-.09-.75-.75-.87-1.02-1.92-.99-3.06.45-1.86.87-3.69.66-5.641v-3.57c1.32-1.92 1.83-4.44 4.08-5.73 1.83.6 2.31 1.89 2.28 3.75-.15 5.911.33 11.851-.93 17.672-.51 2.4-3.06 3.48-4.23 5.52l-.12.06c-.69-1.32-1.08-2.67-.54-4.17.27-1.38.48-2.761-.12-4.081Z" fill="#BBC7C7"/><path d="M150.193 234.379c.21 2.401 5.1 4.381-.39 7.051-.991.48-1.921 2.61-1.351 4.35.69 2.191-2.58 4.801.75 6.691 0 0-.09.54-.27.63-4.08 2.34-3.36 6.781-4.5 10.771-2.1-1.86-4.02-3.42-2.22-6.451.45-.78.63-1.68.27-2.52-.9-2.19-.33-3.27 1.74-4.77 2.55-1.86 1.77-5.251.87-7.951-.81-2.43-1.23-4.2 2.07-4.41 2.16-.12.84-2.76 3.061-3.421l-.03.03Z" fill="#BAC7C8"/><path d="M118.09 261.052c-1.53 1.56-.63 4.83-3.721 5.25-.24.39-.51.39-.75 0-1.71-1.5.09-3.03-.03-4.53-.51-2.49-.51-4.951 0-7.441 0-1.5.06-3 .09-4.53.87-1.41-.18-3.12.69-4.531l.09-5.19c1.711 1.92 2.611 1.38 2.881-.96.15-1.41-.33-3.39 2.25-2.07 1.05 1.71-.03 3.06-.75 4.5-2.25 3-.84 6.301-.75 9.511.06 3.33 0 6.66 0 9.991Z" fill="#BAC7C7"/><path d="M160.514 216.108c-.03.48-.06.99-.12 1.47-.81.24-1.65.54-2.46.72-1.831.42-3.781 1.83-5.401-.15-.84-1.02 1.53-7.17 2.91-7.62 2.011-.6 3.331 1.26 5.041 1.77.84 1.26.42 2.52.03 3.78v.03ZM157.483 228.049c0 .63-.09 1.17-.69 1.53-2.131-.84-3.961-.81-5.521 1.29-.48.66-1.32 2.43-2.49.9-.96-1.26-.9-3.24.66-3.87 2.19-.9 3.12-2.13 2.91-4.44-.06-.54.33-1.11.81-.99.51.15 1.02.66 1.32 1.14.901 1.56.961 3.66 3.001 4.47v-.03Z" fill="#BAC7C8"/><path d="M156.733 231.799c1.8 2.13 1.92 4.921 1.92 7.321 0 1.68-2.49 1.2-4.05.93.3-2.85.93-5.64 2.13-8.251ZM153.012 247.551c2.07 1.08 2.31 2.94 1.29 4.62-.81 1.38-.33 4.32-3.39 3.66.72-2.76.6-5.73 2.1-8.28Z" fill="#819599"/><path d="M120.31 219.078c0-1.98 1.71-2.28 2.97-3 1.59 1.47 1.35 3.63 1.92 5.46.21.631.09 1.321-.63 1.501-.78.18-1.11-.45-1.2-1.051-.27-1.8-1.77-2.22-3.06-2.88v-.03Z" fill="#BAC7C8"/><path d="M158.983 222.799c1.38 3.24 1.11 4.05-1.35 3.81.78-1.14.18-2.79 1.35-3.81Z" fill="#819599"/><path d="M115.9 230.299h2.91c-.21 1.77-1.2 2.79-2.97 3 0-.99.03-2.01.06-3ZM118.81 241.55c-.27-1.59.51-3 .75-4.5 2.85 2.01.99 3.24-.75 4.5Z" fill="#BAC7C8"/><path d="M160.513 216.108c0-1.26 0-2.52-.03-3.78.27-.27.54-.51.84-.78l1.501 1.5c-1.621.36-1.291 2.22-2.281 3.06h-.03Z" fill="#A7B4B1"/><path d="m125.53 214.578-.75-.75c.33-.63.66-1.29 1.5-1.17.24.03.54.45.57.72.09.96-.6 1.11-1.35 1.23l.03-.03ZM144.192 206.027c.24.66 0 .9-.39.93-.54.03-.99-.18-1.02-.78 0-.27.24-.54.39-.81.39.24.78.51 1.02.66Z" fill="#BAC7C8"/><path d="M114.309 276.053v3c-.93 0-1.62.48-2.1 1.26-.42.69-1.02 1.17-1.77.69-.75-.51-1.26-1.38-.69-2.22 1.2-1.74 1.89-3.87 3.87-4.98.72.6.06 1.65.72 2.25h-.03Z" fill="#ACB585"/><path d="M119.62 210.828c1.35.18 2.071 1.14 1.83 2.28-.27 1.17-1.56 1.35-2.67 1.47 0-.99.06-1.98.06-2.94.27-.27.3-.75.78-.78v-.03Z" fill="#BAC7C8"/><path d="M115.09 283.554v4.47c-1.08-1.38-3.991-2.46-.69-4.5.24-.36.48-.33.69.03ZM113.559 254.331v7.441c-1.11-2.49-1.11-4.951 0-7.441Z" fill="#ACB585"/><path d="M114.31 276.053c-.81-.57-.69-1.44-.72-2.25v-3.751c.24-.33.48-.36.75 0 0 2.011 0 3.991-.03 6.001Z" fill="#B1BB9F"/><path d="M119.62 210.828c-.27.27-.54.51-.78.78.12-1.62-.571-3.541 1.47-4.531-.24 1.26-.45 2.49-.69 3.751Z" fill="#AAB386"/><path d="M114.34 245.27c-.15 1.531.57 3.181-.691 4.531.15-1.53-.57-3.181.691-4.531Z" fill="#B5C0AC"/><path d="M115.089 283.554c-.24 0-.45-.03-.69-.03v-3.751c1.171 1.08.57 2.491.69 3.781Z" fill="#B5C1B0"/><path d="M114.34 270.053h-.75v-3.751h.75v3.751Z" fill="#B5C1B2"/><path d="M181.335 144.252h2.97c.75.96 0 1.89 0 2.85-1.56-.24-2.55.84-3.69 1.56-.24-1.56 2.31-2.61.75-4.38l-.03-.03Z" fill="#AAB196"/><path d="M167.924 161.293c.96-2.19 1.53-4.71 4.47-5.19-.6 2.49-2.64 3.75-4.47 5.19Z" fill="#B0B892"/><path d="M121.81 201.077c-.24 1.5.57 3.18-.72 4.5-.48-1.5-.93-3-1.41-4.5.24-.51.51-1.02.75-1.53.93.06 1.35.63 1.38 1.53Z" fill="#B9C2A7"/><path d="M276.533 255.051c.84 3 1.801 5.911-2.7 6.961-1.62.36-1.05 2.04-.75 3.21.84 3.39-1.26 6.661.15 10.141-1.56-.51-1.47-2.55-3.09-1.92-1.08.42-1.11 1.56-1.05 2.58.09 2.04-.3 4.05-1.56 5.64-1.59 2.071.36 3.271.99 4.681.51 1.14 1.41 0 2.04-.51 1.92-1.5 3-.51 3.51 1.35.63 2.28 1.32 4.59.93 6.991-.9 5.22.72 10.95-2.85 15.661-.06.09-.03.27-.09.36-2.61 3-5.13 6-.39 10.381-2.67-.15-3.72-3.301-5.34-.87-.901 1.35 0 7.47 1.08 8.19.42.3.93.57 1.35.21 1.08-.99 2.19-1.47 3 .09.66 1.26.54 2.671-.48 3.811-.99 1.11-2.64 1.92-.51 3.78.84.75-.87 1.29-1.8 1.38-7.291.66-14.581.69-21.842 0-1.83-.18-3.96 1.05-5.61-.81 1.35-1.5 3.15-.96 4.8-1.05.87-.06 1.95 0 2.16-.99.18-.9-.78-1.11-1.5-1.29-1.14-.27-1.8-1.14-1.71-2.16.42-5.791-2.79-12.121 2.46-17.252.78-.75.81-1.95.42-2.85-.84-1.89-.39-3.63.15-5.431 1.32-.33 2.58-.51 2.76-2.37.6-6.3 4.081-11.941 3.991-18.421 0-.63.12-1.32.63-1.68 3.63-2.491 2.31-5.791 1.53-9.031 0-.63.15-1.17.75-1.5 2.76-1.38 3.51-4.291 4.89-6.691.45-.78-.42-2.16.69-2.73 4.621-2.4 4.021-9.571 9.871-10.831 1.14-.24 2.22-1.56 3.33-.42.991 1.02.57 2.31-.18 3.42l-.03-.03Z" fill="#567376"/><path d="M234.89 325.497c-2.94-4.59-2.49-11.191 1.08-14.761.54-.54 1.32-.99 1.08-1.8-1.05-3.361-.27-6.961-1.47-10.291-.36-.99-.96-1.8-1.92-2.16-1.41-.51-1.59.72-1.98 1.59-.09.21-.24.51-.451.57-6 2.22-4.77 6.87-3.78 11.491 1.23-.45 1.32-1.71 1.86-2.64.63-1.08 1.35-2.041 2.581-.99 1.11.93 1.08 2.19.15 3.33-.21.27-.6.42-.931.57-4.44 1.71-6.54 5.28-7.68 9.691-.3 1.2-.63 2.4-1.62 3.3-.57.48-1.08 1.14-.6 1.95.57.96 1.68 2.04.6 2.97-1.26 1.11-2.881 1.92-4.471 2.551-1.59.66-2.04-.991-2.13-1.891-.27-2.34-1.29-4.11-2.85-5.85-1.14-1.26-2.01-2.94-.27-4.65 1.2-1.171-.24-3.301 1.41-4.441 1.35.72 1.26 1.98 1.35 3.18.09 1.111.48 1.981 1.68 2.101 1.2.12 1.77-.75 2.16-1.711 1.321-3.39.6-6.66-.9-9.72-2.16-4.351-2.25-4.321 2.071-5.761 1.59-.54 2.61-1.65 2.37-3.33-.48-3.36-.27-6.841-2.1-10.021-1.681-2.94-1.201-3.81 2.16-4.5 2.37-.48 2.82-2.431 2.58-3.901-.6-3.3.15-6.81-2.52-9.84-2.04-2.311-.99-4.141 2.07-4.231 2.61-.09 3.57-1.62 3.72-3.75.21-3.24.09-6.511-2.49-9.001-.99-.96-1.38-2.1-1.05-3.39.39-1.53 1.77-1.17 2.79-1.14 3.15.12 2.73-2.67 3.63-4.381.36-.69-.15-2.04 1.141-1.95 1.02.06 1.17 1.11 1.23 2.01.12 2.521.63 4.861-.63 7.531-1.32 2.82.36 6.211 0 9.421-.42 3.51 1.02 7.17-2.551 10.231-1.5 1.29-.72 4.59.99 6.27 1.351 1.32 1.891 2.28.481 3.66-1.051 1.021-.631 1.501.33 2.251 1.26.99 1.92.72 2.55-.63.24-.57.57-1.141.99-1.561.87-.87 1.56-.27 2.19.391.69.72.54 1.53-.33 1.77-2.43.69-3.63 4.05-6.931 3.06-1.11-.33-1.05 1.26-1.17 1.92-.24 1.35.18 2.76 1.23 3.69.69.63 1.381.09 1.861-.54 1.35-1.68 1.95-1.38 2.55.66 1.26 4.171 1.38 4.141 5.82 3.421-2.31 9.21-4.11 18.541-5.25 27.962-.06.45-.45.84-.66 1.26l.03.03Z" fill="#849897"/><path d="M231.14 222.859c.42-3.661 2.1-4.591 5.52-2.971 3.72 1.74 7.711.12 11.581.36 5.881.36 11.761-.48 17.702.18 2.58.3 5.31-.75 7.98-1.11 1.68-.24 3.39-.87 4.891.54-1.741 3.751-5.281 6.001-7.591 9.331-5.971 8.521-11.731 17.131-16.141 26.612.18.9-.24 1.44-.99 1.83-.961.21-1.711-.21-2.191-.93-2.43-3.75-5.49-7.17-6.21-11.791.6-2.46-1.11-3.6-2.7-4.8-4.471-5.37-7.771-11.581-11.821-17.251h-.03Z" fill="#C3CACF"/><path d="M276.533 255.051a412.1 412.1 0 0 1-.21-3.99c-2.76 3.21-8.191 2.49-7.65 8.191.09 1.08-1.681 1.98-2.521 2.4-3.66 1.95-1.95 6.66-5.04 9.061-1.08.84-1.86 1.5-3.18 1.56 1.83-2.041 2.13-5.011 4.11-7.021.3-.3.36-.96.33-1.41-.3-2.43-1.74-5.371 2.64-5.671.18 0 .3-1.35.36-2.07.09-.96-.21-2.1 1.05-2.52 2.491-.84 2.941-2.34 1.62-4.56-.48-.84.06-1.47.841-1.71 3.45-1.141 2.79-4.141 3-6.721.06-.66-.72-1.68.33-1.89 3.12-.57 3.6-2.91 4.05-5.431.06-.39.54-.93.93-1.02.78-.18.96.6 1.23 1.14.72 1.471.09 2.881-.15 4.351-.15.9-1.83 3.21 1.35 2.67.15 0 .571.75.631 1.17.45 4.92-1.651 9.181-3.661 13.441l-.06.03Z" fill="#567376"/><path d="M240.83 294.805c-.51-2.281-1.89-4.291-1.53-6.811.21-1.5 0-3 1.681-3.81 1.17-.57 1.23-1.681 1.35-2.851.27-2.31.63-4.53 2.19-6.54 1.8-2.34.96-4.351-1.98-5.521-1.35-.54-1.921-1.53-2.191-2.76-.21-.99.6-1.62 1.351-2.01 1.38-.72 1.92.69 2.73 1.32.96.78 1.8 1.92 3.09.48 1.05-6.12 1.89-7.23 5.52-7.23 1.441 1.11.001 1.92-.27 2.88-.12.54-.33 1.02-.81 1.35-.93.78-1.35 1.83-1.47 3.03 0 2.07-.57 3.87-2.19 5.251-.78 1.65-1.5 3.36-1.5 5.22.48 1.2.12 2.16-.81 2.97-2.61 4.711-3.12 10.141-5.191 15.032h.03Z" fill="#849897"/><path d="M257.211 273.803c2.82 3.27 2.88 6.9-.24 9.09-2.52 1.741-.9 4.141-1.32 6.121-1.14 5.19-3.57 10.051-3.87 15.481-.12 2.22-1.951 2.13-3.481.78-.12-5.76 3-10.651 4.141-16.051 1.14-5.31 3.36-10.231 4.77-15.421ZM248.331 271.553c.3-1.92 1.23-3.601 2.19-5.251 2.19 1.83 1.02 5.071 2.85 7.081.18.21 0 1.02-.27 1.35-.51.6-1.11.06-1.65-.12-1.59-.48-1.62-2.49-3.09-3.06h-.03Z" fill="#567376"/><path d="M233.39 335.998c-.721-.21-1.411-.48-2.131-.63-2.28-.45-2.4-1.44-.72-2.88 1.11-.96 1.83-2.43 3.541-2.52v5.25c-.18.33-.42.57-.72.75l.03.03Z" fill="#849897"/><path d="m252.081 261.802 1.44-2.25c-.18-.9.06-1.651.72-2.251.3-.48.57-.96.87-1.47 3.271 3.091 3.151 3.541-1.59 5.971-.48.45-.93.45-1.41 0h-.03ZM246.021 279.773c-.09-1.08.18-2.07.81-2.97 2.22.24 2.7 2.01 1.98 3.48-.84 1.741-1.92.24-2.79-.48v-.03Z" fill="#567376"/><path d="M252.081 261.802h1.41c-.06.9.21 1.98-.84 2.43-.51.21-.6-.48-.66-.93 0-.51.06-.99.09-1.5Z" fill="#567376"/><path d="M233.39 335.998c.24-.24.48-.51.72-.75 0 1.26 0 2.49.03 3.75h-.75v-3Z" fill="#768F8E"/><path d="M41.403 230.239c1.02-3.39 3.87-4.2 6.78-4.35 3.391-.15 5.521 1.98 6.691 5.07a7.26 7.26 0 0 1 0 4.651c-.42 2.31-1.62 4.05-3.78 5.07-1.71-.45-3.42-.39-5.16-.03-2.97-.42-4.05-2.76-5.07-5.1.63-1.711-.24-3.601.54-5.311Z" fill="#DDD980"/><path d="M41.403 230.239c-.18 1.77.6 3.63-.54 5.311 0-1.801-.81-3.661.54-5.311Z" fill="#C3C580"/><path d="M45.934 240.65c1.71-.9 3.45-.93 5.16.03-1.71 0-3.45 0-5.16-.03Z" fill="#CFCF88"/><path d="M54.875 235.64v-4.651c1.14 1.56 1.14 3.091 0 4.651Z" fill="#D2CB83"/><path d="M254.211 257.271c.06.84.09 1.681-.72 2.251-2.22-.21-3.66.36-3.93 3-.15 1.35-.87 2.76-2.04 3.75-2.341-.45-2.281-3.03-3.721-4.35-.93-.87.18-1.26 1.17-1.44 3.721-.72 3.841-1.08 1.861-4.321-.24-.42-.69-.9-.63-1.29.3-3.12-1.411-1.98-2.881-1.44-.66.24-1.35.96-2.04.33-.75-.69-.45-1.62 0-2.4 1.29-2.31 1.65-5.191 4.02-6.841.27-.3.51-.24.69.12 2.431 4.411 3.931 9.451 8.221 12.631ZM235.52 277.253c-1.651-.99-1.681-2.25-1.891-3.24-.54-2.31.69-3.09 2.911-2.49 1.38.36 3.06-.42 3.84 1.53.3.75.57 1.41-.09 2.01-.54.48-1.29.93-1.98.24-2.67-2.7-2.73-.36-2.79 1.95ZM215.988 295.645c1.2.39 1.56 1.44 1.65 2.55.06.78-.42 1.53-1.26 1.53-1.44 0-1.77-1.23-1.89-2.31-.09-.84.39-1.68 1.5-1.8v.03ZM228.049 323.517c1.14.57 1.53 1.47 1.5 2.46 0 .96-.63 1.74-1.65 1.47-1.11-.33-1.26-1.38-1.11-2.43.12-.81.63-1.26 1.26-1.5Z" fill="#849897"/><path d="M245.99 244.64c-.24-.03-.45-.09-.69-.12-.78-1.47-1.56-2.97-2.34-4.44 2.49.51 4.86 1.11 3.03 4.56Z" fill="#C3CACF"/><path d="M239.57 261.292c-1.02-.57-1.381-1.62-1.561-2.7-.12-.691.33-1.201 1.111-.931.99.3 1.8.871 1.68 2.071-.06.75-.21 1.47-1.23 1.56ZM218.958 278.423c.84.06 1.5.54 1.62 1.53.12.96-.3 1.74-1.29 1.8-1.05.061-1.41-.81-1.47-1.71-.06-.75.09-1.47 1.14-1.62ZM223.339 262.102c-.12.6-.21 1.35-.93 1.38-.27 0-.69-.63-.81-1.05-.18-.63 0-1.38.69-1.53.78-.18.84.66 1.05 1.2ZM238.55 264.502c-.18.21-.39.6-.63.66-.42.09-.66-.33-.51-.66.12-.27.48-.45.75-.66.12.21.21.39.39.69v-.03Z" fill="#849897"/><path d="M232.669 215.448v.6h-4.53c1.38-1.35 3.03-.51 4.56-.57l-.03-.03Z" fill="#9FA4AA"/><path d="M172.005 247.191c1.44 1.08 1.71 2.37 1.89 3.72.27 1.83.45 3.72 2.19 4.92.75.51.9 1.23.45 1.95-.66 1.081-1.53.45-2.25.06-3.45-1.86-4.35-5.85-2.25-10.65h-.03Z" fill="#819599"/><path d="M247.191 224.269c2.22-.24 4.92.96 7.8.39 1.261-.27 2.851.75 1.171 2.55-.93.99-1.801 1.98-2.191 3.36-.33 1.08-1.38 1.53-2.4.96-.72-.39-1.8-.03-2.07-1.59-.51-2.94-2.31-3.63-4.47-1.65-1.68 1.53-2.161 1.02-2.761-.69-.15-.45-.51-.81-.72-1.26-.39-.9-2.52.69-1.95-1.23.39-1.35 1.74.15 2.61-.33 1.381-.75 2.911-.36 4.951-.48l.03-.03ZM248.21 232.879c-.15.931-.57 1.681-1.59 1.741-1.26.09-1.29-.901-1.29-1.771 0-.99.33-1.71 1.47-1.71s1.44.72 1.41 1.71v.03Z" fill="#C3CACF"/><path d="M99.489 105.969h-8.221c-1.23.48-2.43.48-3.66 0-1.98-.6-3.99 1.05-5.97 0-.51.39-.991.33-1.471-.09.54-2.25 1.83-4.051 3.6-5.341 3.6-2.64 6.66-5.73 9.061-9.51 2.97-4.92 7.711-8.191 11.521-12.362 1.14-1.26 2.25-2.67 4.08-3.09.96-.12 1.771.24 2.491.81 6.06 5.55 12.181 11.041 17.851 17.012.93 1.17 2.37 1.95 2.64 3.6 2.22 2.76 4.741 5.22 7.471 7.471.42.51.42 1.08.09 1.62-.3.24-.66.42-1.05.54-1.89.48-3.811-1.17-5.701 0-.99-.21-1.98-.45-3-.66-1.47.48-2.94.48-4.41 0h-5.971c-6.45.54-12.871.54-19.321 0h-.03Z" fill="#182832"/></g><defs><clipPath id="a"><path fill="#fff" d="M0 0h360v343.319H0z"/></clipPath></defs></svg>