<svg xmlns="http://www.w3.org/2000/svg" width="470" height="478"><path d="M202 122c4.285 1.366 6.431 3.207 9.313 6.625l2.113 2.477L215 133l2.246-.875c14.853-5.236 30.471-4.555 45.066 1.563L265 135l2.188-2.188L270 130l2.5-2.688c3.231-2.988 5.56-4.36 10-4.25 5.207 1.953 7.586 5.757 9.813 10.626C294 137.655 294 137.655 294 140l2.96-.117c21.462.054 43.595 13.45 60.04 26.117l2.89 2.203C372.912 178.987 382.258 197.168 384 214c2.6 28.493 2.6 28.493-5 39-4.324 4.045-9.227 5.544-15.074 5.379-3.429-.675-4.877-2.686-6.926-5.379-1.91-3.294-3-5.184-3-9l-2-1 1-4-4 2 .488 3.719c.424 3.784.586 7.505.617 11.312l.045 3.207c.025 2.175.03 4.35.016 6.524.158 7.883 2.064 12.084 6.834 18.238 6.612 11.886 10.443 25.393 11 39l.121 2.008c.98 30.332-11.66 57.913-32.035 79.754-1.95 2.093-3.802 4.241-5.649 6.425-2.81 3.221-5.813 6.004-9.07 8.766-3.608 3.12-7.081 6.385-10.573 9.635-3.017 2.8-6.074 5.52-9.231 8.162-4.91 4.233-10.29 9.765-10.813 16.438.283 4.308 1.15 7.046 3.25 10.812 2.53 1.955 2.53 1.955 5 3l-1 4c-6.557 1.395-12.245 1.083-18.21-2.227-4.653-3.234-7.634-6.541-9.79-11.773l-.996-1.918c-1.267-3.23-1.636-5.592-.246-8.87 2.11-4.015 4.568-7.795 7.126-11.538 1-1.499 1.903-3.06 2.792-4.627L280 429h2l.813-1.625L287 419h2l.85-1.747c1.103-2.161 2.291-4.228 3.54-6.308C307.565 387.117 317.089 363.078 311 335c-.839-2.491-1.8-4.654-3-7-7.41 3.183-13.985 10.599-17 18 .284 5.53 2.052 9.451 4.938 14.063 3.614 5.877 6.945 11.317 5.8 18.46-2.457 8.242-6.8 16.262-12.738 22.477-2.313.875-2.313.875-4 1l-.262 1.836c-1.926 11.489-7.3 19.401-14.738 28.164l-1.344 1.715C263.782 439.923 257.661 444.837 251 449c2.107-6.554 4.468-12.987 6.93-19.414 1.902-5 3.211-8.992 3.132-14.336l-.027-2.422L261 411l-1.504.805C245.61 419.025 231.88 418.948 217 415c-3.547-1.382-6.79-2.959-10-5 1.975 12.06 5.155 23.39 10.688 34.34C219 447 219 447 219 449c-4.132-1.669-7.113-4.622-10.313-7.625l-1.758-1.647C197.29 430.617 186.981 419.62 185 406v-4l-2.125-.5c-7.792-4.066-12.204-14.487-14.875-22.5-.575-6.111.956-9.693 3.813-14.875.73-1.415 1.458-2.832 2.183-4.25 1.131-2.191 2.268-4.379 3.414-6.563 1.482-3.36 1.966-5.232.738-8.757C174.65 338.165 169.6 332.636 164 328h-2a564.54 564.54 0 0 0-1.938 4.625l-1.09 2.602c-6.49 18.508-.74 40.622 7.028 57.773 5.69 11.761 12.817 22.455 20.519 32.976 1.942 2.653 3.865 5.32 5.782 7.992a695.255 695.255 0 0 0 2.578 3.568c4.838 6.708 6.006 11.18 5.121 19.464-1.57 6.163-5.143 9.577-10.496 12.805-5.394 2.575-10.28 3.732-16.129 2.32L171 471v-4l2.375-.75c2.638-1.013 2.638-1.013 3.875-2.875 1.633-5.171 2.225-8.846.625-14-3.508-6.315-7.42-10.034-13.3-14.078L163 434v-2h-2a116.75 116.75 0 0 1-3.501-3.462c-1.616-1.658-3.29-3.234-4.987-4.808l-1.88-1.742-1.945-1.8c-4.787-4.45-9.535-8.92-14.113-13.586a195.823 195.823 0 0 0-4.387-4.29C128 400 128 400 126.59 397.646c-1.571-2.614-3.324-4.881-5.215-7.27C104.93 367.733 99.254 340.573 102 313c1.98-12.403 7.146-27.436 15.734-36.914 1.932-3.183 1.491-6.366 1.329-9.961-.22-9.555.023-19.245 3.937-28.125l-3-1c-1.882 9.325-3.477 18.479-4 28-5.469-.4-8.989-2.423-13-6-5.077-7.615-1.533-21.292 0-30 .836-2.59.836-2.59 1.688-4.625 1.82-4.683 1.121-7.486-.813-12-.999-2.71-.68-3.687.125-6.375l2.492.09c6.573-.232 6.573-.232 12.008-3.592 1.907-2.53 3.533-5.148 5.076-7.912 2.583-4.627 4.774-6.976 9.424-9.586l-.5-1.938a58.31 58.31 0 0 1-.75-7.687l-.078-2.29c.328-2.085.328-2.085 1.55-3.874 2.39-1.628 3.632-1.37 6.465-.961l2.684.328c2.629.422 2.629.422 4.852.969 2.29.59 2.29.59 5.777.453 1.75-1.481 2.958-3.112 4.316-4.957 4.21-5.109 10.07-8.601 16.309-10.606 5.087-2.072 6.822-6.167 9.209-10.796 4.574-8.696 11.391-15.673 19.166-21.641Zm23 30 1 3 3.402-.07c7.828-.112 15.013-.136 22.598 2.07l1-3c-9.057-3.636-18.672-5.604-28-2Zm72 14-1 10 2.3.402 3.012.536 2.989.527C307 178 307 178 310 179l2-5a1610.701 1610.701 0 0 0-6.375-4l-1.828-1.156c-3.158-2.14-3.158-2.14-6.797-2.844Zm-126 8-1 2h2l-1-2Zm-32.703 29.129c-2.4 2.229-2.4 2.229-4.297 4.871.255 2.173.255 2.173 1 4 2.308.226 2.308.226 4.438-2.25 2.032-2.181 3.85-4.317 5.562-6.75-2.67-1.1-4.223-1.515-6.703.129ZM333 203a210.028 210.028 0 0 0-4 5l1.938 1.813C333 212 333 212 334 215c2-.791 2-.791 4-2l1-3c-.935-1.895-.935-1.895-2.375-3.688l-1.398-1.886L334 203h-1Z" fill="#D6A343"/><path d="M11 165c8.111 3.259 12.407 13.594 16.375 20.938 5.39 9.933 12.159 21.004 23.313 24.812 5.623 2.175 9.8 5.306 14.312 9.25l2.047 1.656c5.228 4.58 6.036 8.64 6.953 15.344 1.588 8.445 3.514 17.18 10.969 22.371 5.255 2.599 10.633 3.312 16.43 3.844 2.601.785 2.601.785 4.453 2.664 3.398 9.235.312 19.31-1.727 28.558-8.635 40.895-1.138 71.315 16.014 108.904.5 1.1 1.001 2.198 1.517 3.33l1.37 2.973C124 412 124 412 124 414c-2.977 1.489-6.103 1.333-9.375 1.5-5.922.144-5.922.144-11.625 1.5a77.576 77.576 0 0 0-2 5 104.024 104.024 0 0 1-4 5c-3.078-.34-4.65-.674-6.95-2.813L88.314 422c-3.205-4.042-3.205-4.042-8.07-5.344-8.111-.376-8.111-.376-14.868 3.656A101.13 101.13 0 0 0 62 424c-2.714 2.985-2.714 2.985-5.313 3.125-3.483-1.458-5.07-3.589-7.355-6.531-1.261-1.725-1.261-1.725-3.332-2.594a97.217 97.217 0 0 0-20 1c-.603-12.55-.603-12.55 3-17a71.614 71.614 0 0 1 7.82-3.629c2.384-1.178 2.384-1.178 2.947-3.657.279-3.246-.34-4.65-1.857-7.507l-1.377-2.658-1.47-2.736c-.95-1.805-1.897-3.61-2.84-5.418l-1.29-2.411C30 372 30 372 30 370l-2-1c-.88-2.29-1.533-4.613-2.219-6.969-.59-2.217-.59-2.217-2.781-3.031a107.041 107.041 0 0 1-2.688-6.813l-.785-2.157c-.558-1.542-1.113-3.085-1.665-4.63a771.926 771.926 0 0 0-2.6-7.103c-11.143-30.469-16.036-60.81-15.7-93.235l.021-3.695C-.07 181.444-.07 181.444 11 165ZM457 165h2c10.967 18.408 11.093 44.608 11.238 65.352l.025 3.45c.013 2.397.024 4.796.032 7.194.012 2.394.032 4.789.062 7.183.546 44.164-10.762 85.509-30.853 124.673l-1.818 3.559a629.817 629.817 0 0 1-3.609 6.922l-1.647 3.194-1.493 2.836c-1.086 3.057-1.005 4.597.063 7.637 2.19 1.47 2.19 1.47 4.875 2.438 3.301 1.532 4.929 2.32 7.25 5.187 1.248 4.813 1.112 9.433.875 14.375l-3.25-.5c-10.194-1.457-10.194-1.457-19.75 1.188-2.07 2.393-4.101 4.78-6 7.312-4.38-.49-6.225-1.791-9.188-5-3.593-3.987-3.593-3.987-8.64-5.273-7.332-.493-7.332-.493-13.735 2.46-3.317 3.827-3.317 3.827-6.437 7.813-2.188-.063-2.188-.063-5-1-2.386-2.567-5-5.39-5-9-4.452-1.37-9.071-1.37-13.688-1.605-5.109-.293-5.109-.293-7.312-1.395 1.952-6.31 4.38-12.215 7.188-18.188 16.53-36.08 20.409-66.526 11.845-105.244-3.612-16.76-3.612-16.76-1.017-24.662 2.875-2.762 5.93-2.966 9.734-3.406 6.333-.963 10.64-1.89 15.25-6.5 1.81-3.117 1.81-3.117 3-6l2-1c.624-2.471.624-2.471 1-5.438l.531-3.3c.283-1.97.525-3.947.688-5.93.925-8.087 5.583-12.405 11.781-17.332 4.587-3.075 9.252-6.03 14.48-7.875 5.97-2.665 9.749-7.296 13.395-12.563l1.296-1.836c2.909-4.195 5.49-8.51 7.954-12.976 3.355-6.041 7.012-11.795 11.875-16.75Z" fill="#D6A342"/><path d="M157.5 13.098C167.704 20.863 176.634 33.363 182 45c-5.954 7.608-5.954 7.608-11.883 8.371-7.966.163-13.368-1.105-20.117-5.371-3.392 6.535-6.38 13.119-9 20l2.082 1.172 2.73 1.578 2.708 1.547c2.539 1.743 3.97 3.03 5.48 5.703.328 2.438.328 2.438.25 5-.015.846-.03 1.691-.047 2.563C154 88 154 88 153 92l16 11c4.52-3.014 7.385-5.209 11-9 7.806-8.004 7.806-8.004 12-11h2c.968 24.639-4.87 47.368-21.73 65.902-8.454 8.23-20.616 13.28-32.012 15.625-2.279.377-2.279.377-4.258 1.473-14.9 2.36-29.045.906-42-7l-2.621-1.465c-2.379-1.535-3.893-2.991-5.692-5.16l-1.78-2.11L82 148c-1.432-1.63-2.87-3.255-4.313-4.875l-1.988-2.242A104.753 104.753 0 0 0 72 137l-2-2.75c-4.618-5.512-10.91-9.303-18.063-10.25-8.061-.353-15.433 2.34-22.937 5 0-8.63 9.397-17.21 15.172-23.195C50.85 99.18 57.294 93.078 67 92c12.407.334 23.189 9.254 33 16 2.648-2.578 4.944-4.916 7-8l-1.46-1.172c-.633-.52-1.264-1.041-1.915-1.578l-1.898-1.547C99.826 93.828 98.877 92.523 98 90c.023-2.797.023-2.797.375-5.75l.336-2.984L99 79a340.542 340.542 0 0 0-5.188-3.563l-2.917-2.003c-2.745-1.66-2.745-1.66-5.48-1.27a67.698 67.698 0 0 0-6.853 2.773c-6.822 3.21-11.522 4.355-18.937 3.188l-2.23-.316c-1.8-.258-3.598-.532-5.395-.809v-2l-2.5-.563c-9.572-3.93-14.85-12.103-18.723-21.359C28.37 46.416 27.278 40.068 27 33c4.223 1.783 6.3 4.525 9.121 8.027 3.1 3.256 5.623 4.805 10.113 5.407 7.603.008 13.22-.51 19.766-4.434l2.29-1.297C74.86 36.756 80.893 32.12 87 27.5c20.963-15.819 45.13-30.615 70.5-14.402ZM124 49c.458 6.55 1.21 12.675 3 19h2l.367-1.723c.802-3.695 1.648-7.33 2.696-10.965.877-3.1 1.47-6.126 1.937-9.312-3.867 0-6.509 1.42-10 3Zm-22 13 7 9 5-1-.621-1.863L110 58c-3.908 0-5.116 1.506-8 4Zm36 40c1.439 8.638 1.439 8.638 4 17 5.414-.467 9.205-1.243 14-4-3.406-3.606-6.841-6.314-11-9l-2.75-2.25c-2.038-1.955-2.038-1.955-4.25-1.75Zm-20 1-2 13 8 1c.528-2.144 1.047-4.29 1.563-6.438l.878-3.62L127 104c-.983-1.206-.983-1.206-2.848-1.098L118 103Z" fill="#9E751C"/><path d="M218.602 256.957c8.012 6.825 12.5 14.17 13.704 24.725.13 2.738.162 5.452.131 8.193l-.02 2.916c-.223 9.884-2.1 19.989-9.417 27.209-7.691 5.955-15.007 7.388-24.563 7.375l-2.963.004c-6.9-.1-12.416-1.108-18.908-3.469-3.576-1.268-5.828-1.611-9.566-.91-5.854 4.084-8.136 10.991-9.594 17.754-4.066 32.492 10.526 59.831 29.113 85.222 1.942 2.653 3.865 5.32 5.782 7.992a695.255 695.255 0 0 0 2.578 3.568c4.838 6.708 6.006 11.18 5.121 19.464-1.57 6.163-5.143 9.577-10.496 12.805-5.394 2.575-10.28 3.732-16.129 2.32L171 471v-4l2.375-.75c2.638-1.013 2.638-1.013 3.875-2.875 1.633-5.171 2.225-8.846.625-14-3.508-6.315-7.42-10.034-13.3-14.078L163 434v-2h-2a116.75 116.75 0 0 1-3.501-3.462c-1.616-1.658-3.29-3.234-4.987-4.808l-1.88-1.742-1.945-1.8c-4.787-4.45-9.535-8.92-14.113-13.586a195.823 195.823 0 0 0-4.387-4.29C128 400 128 400 126.59 397.646c-1.571-2.614-3.324-4.881-5.215-7.27C104.93 367.733 99.254 340.573 102 313c1.119-7.004 3.202-13.497 6-20l.892-2.094c8.142-18.39 23.494-32.34 42.108-39.906 21.951-7.388 48.197-8.64 67.602 5.957ZM337.285 261.668 340 264l1.582 1.35c18.108 15.782 24.724 36.444 26.606 59.998.93 30.154-11.871 57.728-32.102 79.414-1.95 2.093-3.802 4.241-5.649 6.425-2.81 3.221-5.813 6.004-9.07 8.766-3.608 3.12-7.081 6.385-10.573 9.635-3.017 2.8-6.074 5.52-9.231 8.162-4.91 4.233-10.29 9.765-10.813 16.438.283 4.308 1.15 7.046 3.25 10.812 2.53 1.955 2.53 1.955 5 3l-1 4c-6.557 1.395-12.245 1.083-18.21-2.227-4.653-3.234-7.634-6.541-9.79-11.773l-.996-1.918c-1.267-3.23-1.636-5.592-.246-8.87 2.11-4.015 4.568-7.795 7.126-11.538 1-1.499 1.903-3.06 2.792-4.627L280 429h2l.813-1.625L287 419h2l.85-1.747c1.103-2.161 2.291-4.228 3.54-6.308 13.937-23.43 24.276-48.257 17.61-75.945-2.292-6.488-2.292-6.488-6.95-11.246-5.665-2.083-10.307-.738-15.738 1.246-6.098 2.007-11.717 2.415-18.125 2.438l-2.676.029c-8.785-.113-15.273-2.456-21.757-8.522-2.744-3.043-4.314-6.134-5.754-9.945l-.902-2.203c-3.947-10.985-3.804-25.757 1.125-36.45 6.733-11.94 16.292-18.25 29.164-22.452 23.165-5.731 49.022-1.072 67.898 13.773Z" fill="#E7D9B3"/><path d="M194 83c.968 24.639-4.87 47.368-21.73 65.902-8.454 8.23-20.616 13.28-32.012 15.625-2.279.377-2.279.377-4.258 1.473-14.9 2.36-29.045.906-42-7l-2.621-1.465c-2.379-1.535-3.893-2.991-5.692-5.16l-1.78-2.11L82 148c-1.432-1.63-2.87-3.255-4.313-4.875l-1.988-2.242A104.753 104.753 0 0 0 72 137l-2-2.75c-4.618-5.512-10.91-9.303-18.063-10.25-8.061-.353-15.433 2.34-22.937 5 0-8.63 9.397-17.21 15.172-23.195C50.85 99.18 57.294 93.078 67 92c9.636.26 17.561 5.588 25.242 10.922 8.721 6.046 16.248 10.75 26.758 13.078l3.078.887c12.873 3.647 24.058 2.607 35.914-3.657 6.737-4.128 13.019-9.313 17.82-15.605 3.038-3.644 6.57-6.571 10.188-9.625l1.781-1.559C191.76 83 191.76 83 194 83ZM395.55 91.76c3.069-.01 6.137-.041 9.206-.072 1.958-.007 3.915-.012 5.873-.016l2.77-.038 2.545.01 2.235-.011C420 92 420 92 422 95a112.954 112.954 0 0 1 1.437 6.355l.774 3.827.789 4.006c.518 2.598 1.04 5.195 1.562 7.792l.735 3.709c.571 2.69 1.243 5.287 2.015 7.924.742 3.654.493 5.178-1.312 8.387l2.379 1.54C449.237 150.894 449.237 150.894 453 160c-.404 10.04-9.416 19.004-16 26l-5-1-.396-2.06c-.607-3.128-1.23-6.253-1.854-9.377l-.621-3.24c-1.194-5.915-2.666-11.185-5.35-16.6C423 152 423 152 423 150l-2-1v-3c-3.98 3.738-7.158 7.778-10.352 12.207L409 160h-3c-1.734-1.879-1.734-1.879-3.75-4.562-14.29-17.95-28.96-29.27-50.664-36.564a638.766 638.766 0 0 1-8.246-2.862A2701.155 2701.155 0 0 0 329 111c5.486-8.653 9.687-14.593 20-17 5.158-.828 10.255-1.284 15.465-1.547l2.472-.126c9.534-.447 19.069-.548 28.613-.567Z" fill="#9E751C"/><path d="M204.355 122.648c3.083 1.576 4.734 3.338 6.958 5.977l2.113 2.477L215 133l2.246-.875c14.853-5.236 30.471-4.555 45.066 1.563L265 135l2.188-2.188L270 130l2.5-2.688c3.231-2.988 5.56-4.36 10-4.25 4.882 1.831 7.436 5.403 9.688 9.938 3.811 9.422 4.002 19.6 4.5 29.625l.147 2.948.114 2.779.104 2.494C297 173 297 173 296 176l-1.906-.402-2.594-.536-2.77-.574c-2.341-.418-4.549-.612-6.918-.738-4.105-.808-5.54-2.088-8.484-4.922-3.274-2.57-6.851-4.31-10.578-6.14l-2.152-1.06c-2.836-1.37-5.607-2.631-8.598-3.628l1-4c-9.75-2.387-17.947-3.407-28-2l-.172 1.887C224 156 224 156 221.734 157.02l-2.984.792c-8.689 2.638-16.832 6.557-23.75 12.5-4.218 3.39-8.679 3.736-13.95 4.266-2.982.413-5.318 1.185-8.05 2.422-2.955-7.674 3.308-20.862 6.469-28.031 3.547-6.878 15.755-28.834 24.886-26.32Z" fill="#E7D8B2"/><path d="M294 140c22.638-.896 45.657 12.642 63 26l2.89 2.203C372.912 178.987 382.258 197.168 384 214c2.6 28.493 2.6 28.493-5 39-4.324 4.045-9.227 5.544-15.074 5.379-3.429-.675-4.877-2.686-6.926-5.379-1.91-3.294-3-5.184-3-9l-2-1c-.438-2.188-.438-2.188 0-5 2.517-2.444 5.39-5 9-5 1.896-5.591 2.278-10.494 2.188-16.375l-.002-2.48c.344-3.885.344-3.885-1.186-7.145-7.499-.77-13.408-.799-19.512 3.906C341 212 341 212 339 212c-2-2.688-2-2.688-4-6l-1.438-2.313c-.722-3.453.473-5.476 1.688-8.69 1.017-4.063 1.102-7.949 1.125-12.122l.04-2.315c-.038-5.093-.598-10.743-4.415-14.56-5.638-1.012-9.203 1.556-13.828 4.395-2.406 1.588-2.406 1.588-4.172 4.605l-2.082-.84a105.247 105.247 0 0 0-6.18-2.226c-4.069-1.778-7.23-3.17-9.738-6.934-2.253-8.053-2.087-16.692-2-25Z" fill="#9E751D"/><path d="M336.067 117.142c2.24.994 4.511 1.858 6.804 2.721 17.277 6.56 30.12 13.888 42.129 28.137 1.009 1.149 2.02 2.296 3.031 3.441l3.282 3.747 1.6 1.8c2.77 3.19 4.81 5.904 6.087 10.012l-6 7c2.044 4.088 4.441 6.55 7.688 9.625C411.305 193.997 411.305 193.997 414 200c-.074 3.395-.687 4.66-2.996 7.168l-2.441 2.02-2.434 2.042L404 213l-2 2c-5.53 4-5.53 4-9 4l-.332-3.586c-1.096-11.215-1.096-11.215-3.938-22.09-1.363-4.338-2.006-8.842-2.73-13.324l-1.812 1C382 182 382 182 379 182c-1.578-1.504-1.578-1.504-3.25-3.562-8.066-9.972-8.066-9.972-18.75-16.438l-1.625-1.687C351.29 156.335 346.43 152.81 341 151v-2l-5-1v-2l-2.645-.816c-3.22-1.136-6.037-2.51-9.042-4.121-8.707-4.424-17.767-6.303-27.313-8.063 3.18-5.897 7.364-8.575 13-12l1.723-1.061c8.614-5.15 14.76-7.182 24.344-2.797Z" fill="#D5A343"/><path d="M143 44c3.438 1 3.438 1 6 2-.702 4.933-2.635 9.26-4.563 13.813l-.998 2.388c-.809 1.935-1.623 3.867-2.439 5.799l2.082 1.172 2.73 1.578 2.708 1.547c2.539 1.743 3.97 3.03 5.48 5.703.328 2.438.328 2.438.25 5-.015.846-.03 1.691-.047 2.563-.188 2.26-.626 4.25-1.203 6.437l1.469.962a1052.26 1052.26 0 0 1 6.531 4.35l2.313 1.514 2.187 1.475 2.031 1.349c.485.445.97.89 1.469 1.35 0 3 0 3-1.941 5.078-6.972 5.777-6.972 5.777-10.282 6.219C154.875 114 154.875 114 152 113l-1-3-2.063-.813c-4.175-1.687-7.42-4.412-10.937-7.187l.875 3.176 1.125 4.136.578 2.092c.8 2.954 1.422 5.522 1.422 8.596-6.406.209-11.93.158-18-2 .964-9.41.964-9.41 2-14l-8-1c-.09 1.156-.09 1.156-.184 2.336l-.254 3.039c-.08.998-.162 1.995-.246 3.023C117 114 117 114 116 116c-10.558-2.89-10.558-2.89-15-6 1.37-3.995 3.257-6.8 6-10l-1.46-1.172c-.633-.52-1.264-1.041-1.915-1.578l-1.898-1.547C99.826 93.828 98.877 92.523 98 90c.023-2.797.023-2.797.375-5.75l.336-2.984L99 79l-2.371-1.426-3.067-1.886-3.058-1.864C88 72 88 72 87 69a684.88 684.88 0 0 1 5.75-3.5l3.234-1.969C99 62 99 62 103 62c1.703 1.46 1.703 1.46 3.25 3.375l1.578 1.898C109 69 109 69 109 71l4-1-.621-1.828-.817-2.422-.808-2.39A84.887 84.887 0 0 1 109 57a442.624 442.624 0 0 1 4.125-2.875l2.32-1.617C118 51 118 51 124 49l3 19h2l-.125-2.188C129 63 129 63 129.949 60.676c1.432-3.646 1.846-7.29 2.39-11.153C133.906 43.541 137.325 43.52 143 44Z" fill="#9D741C"/><path d="M380 38c2.28 1.662 4.095 3.162 6.063 5.125l1.583 1.513a106.629 106.629 0 0 1 8.936 9.764c1.643 1.851 3.443 3.34 5.356 4.91C407.723 64.243 412.918 70.305 414 78c-4.903 1.988-9.484 2.374-14.707 2.656L397 81l-1 2c-2.099.31-2.099.31-4.953.441-7.59.514-14.983 1.775-22.466 3.088-2.34.41-4.681.811-7.022 1.211l-4.543.787-2.081.357c-3.458.61-6.858 1.322-10.262 2.187-5.559 1.406-5.559 1.406-8.673.929-5.082-3.952-9.98-10.88-12-17-.067-3.11.156-5.086 2.316-7.426 1.835-1.524 3.726-2.9 5.684-4.261l2.164-1.56c7.088-5.055 14.362-9.826 21.746-14.436 2.1-1.323 4.175-2.679 6.25-4.04 1.321-.843 2.643-1.686 3.965-2.527l1.791-1.198C372.301 36.825 375.08 36.495 380 38Z" fill="#D6A343"/><path d="M337.98 17.16c2.618 1.089 5.305 1.838 8.02 2.652 6.71 2.209 12.04 5.248 16 11.188l-2.281 1.66c-12.346 9.15-23.788 19.54-33.824 31.192L324 66l-2.16 2.746c-4.013 3.185-7.119 2.89-12.09 2.692l-2.45-.018c-6.148-.123-12.724-.632-18.3-3.42.466-8.39 2.417-16.212 4.563-24.313.652-2.473 1.3-4.949 1.94-7.425l.87-3.283c.583-2.768.752-5.163.627-7.979h2l-.063-3.25c.049-2.898.195-5.036 1.063-7.75 11.24-3.353 27.338-1.5 37.98 3.16Z" fill="#9E751C"/><path d="M142.035 168.352c7.453 1.63 14.525 4.577 20.965 8.648l-1.141 1.398c-4.106 5.222-7.007 10.564-9.734 16.602l-1.219 2.637A885.692 885.692 0 0 0 148 204l-5.95-.97c-2.365-.221-2.365-.221-5.113 1.907-2.303 3.642-1.707 4.74-.89 8.77-.085 4.16-2.806 7.082-5.121 10.395-2.903 4.368-4.902 9.075-6.926 13.898l-4-1c-1.882 9.325-3.477 18.479-4 28-5.469-.4-8.989-2.423-13-6-5.077-7.615-1.533-21.292 0-30 .836-2.59.836-2.59 1.688-4.625 1.82-4.683 1.121-7.486-.813-12-.999-2.71-.68-3.687.125-6.375l2.492.09c6.573-.232 6.573-.232 12.008-3.592 1.907-2.53 3.533-5.148 5.076-7.912 2.583-4.627 4.774-6.976 9.424-9.586l-.5-1.938a58.31 58.31 0 0 1-.75-7.687l-.078-2.29c.328-2.085.328-2.085 1.57-3.858 2.933-2.047 5.376-1.327 8.793-.875Z" fill="#E7D8B2"/><path d="M295 13c-.455 7.685-2.085 14.692-4.25 22.063l-.95 3.293c-.632 2.186-1.267 4.371-1.905 6.555a574.925 574.925 0 0 0-2.364 8.425l-1.281 4.602-.563 2.111C282.64 63.72 282.298 64.801 279 67c-4.11.442-8.243.324-12.375.313l-3.445.048-3.328.002-3.037.01c-3.37-.447-5.208-1.182-7.815-3.373-.583-2.502-.583-2.502-.523-5.496l.033-3.356.115-3.586.06-3.645A701.014 701.014 0 0 1 250 17a25204.835 25204.835 0 0 1 16.85-1.643C290.966 13 290.966 13 295 13Z" fill="#D6A343"/><path d="M204.383 122.695c8.987 4.48 15.37 16.208 18.719 25.293A110.224 110.224 0 0 1 225 155l-3.508 1.266c-4.25 1.596-8.31 3.453-12.367 5.484l-2.118 1.047c-4.046 2.05-7.61 4.274-11.195 7.078-4.696 3.51-9.065 4.197-14.832 4.738-2.965.385-5.268 1.159-7.98 2.387-2.955-7.674 3.308-20.862 6.469-28.031 3.533-6.851 15.822-28.927 24.914-26.274Z" fill="#E7D9B2"/><path d="m238.188 22.75 3.167-.078L244 23c2.506 3.759 2.185 5.602 2.047 10.082l-.062 2.096a639.035 639.035 0 0 1-.152 4.39c-.082 2.226-.144 4.45-.204 6.676a7753546929.41 7753546929.41 0 0 0-.278 8.185c-.344 3.502-1.011 6.324-2.351 9.571-1.7 1.207-1.7 1.207-3.688 1.813l-2.18.664c-4.948 1.214-9.802 1.635-14.882 1.835l-2.797.114C217 68 217 68 215.243 66.367c-1.514-2.884-1.944-5.327-2.368-8.555l-.469-3.496L212 51l-.344-2.535C209.742 33.392 209.742 33.392 213 29c3.082-1.45 3.082-1.45 6.813-2.688l3.707-1.261c4.995-1.508 9.444-2.223 14.667-2.301Z" fill="#9E751C"/><path d="M444 184h2c2.241 8.027 3.642 15.75 4.188 24.063l.241 3.513c.693 11.614.755 23.23.759 34.862l.003 2.8c-.004 28.982-.004 28.982-3.191 33.762-.39-1.557-.778-3.114-1.167-4.672-.354-1.412-.71-2.823-1.068-4.234a388.774 388.774 0 0 1-2.863-12.047c-3.028-13.478-7.82-24.76-15.268-36.373C421.142 215.53 421.142 215.53 422 210c1.956-1.871 4.066-3.296 6.309-4.813 3.355-2.727 5.614-5.779 8.066-9.312l1.261-1.813c1.784-2.613 3.465-5.24 5.028-7.992L444 184ZM24 184h2c1.089 1.559 2.094 3.176 3.063 4.813C34.06 196.87 39.462 205.403 48 210c-.249 7.582-3.234 12.324-7.25 18.625-8.61 14.13-12.362 27.127-15.697 43.311l-.721 3.455-.634 3.126C23 281 23 281 21 283c-3.783-11.349-2.201-25.826-2.188-37.688l.001-2.703c.016-11.497.216-22.95 1-34.422l.212-3.258c.574-7.206 2.029-13.972 3.975-20.929Z" fill="#B09867"/><path d="m281.625 373.375 2.414.273C286 374 286 374 287 375c.958 13.977.28 30.658-7 43l-1.531 2.66C271.495 432.183 262.444 441.847 251 449a212.8 212.8 0 0 1 5.257-14.596c4.153-10.463 7.015-21.097 4.743-32.404-.95-2.127-2.059-4.015-3.258-6.008-1.033-2.773-.692-4.2.258-6.992 5.545-7.616 13.432-16.853 23.625-15.625ZM183 374c9.496-.456 15.095.85 22.25 7.254 2.935 2.929 5.88 6.021 7.75 9.746-.333 2.743-1.225 4.44-2.5 6.938-4.673 9.541-2.723 19.806.285 29.558 1.507 4.348 3.21 8.576 5.067 12.785 1.21 2.865 2.199 5.759 3.148 8.719-4.132-1.669-7.113-4.622-10.313-7.625l-1.758-1.647C193.888 427.4 186.381 415.791 184 398l-.563-2.355c-.685-4.141-.54-8.27-.5-12.457l.014-2.678c.012-2.17.03-4.34.049-6.51Z" fill="#E7D8B1"/><path d="m434.875 437.75 2.723-.063c8.685-.05 8.685-.05 12.402 3.313 4.268 6.537 3.7 13.471 3 21-1.173 4.937-2.843 8.678-6.188 12.5-7.119 3.797-12.598 3.78-20.332 1.715-3.232-1.583-4.573-3.166-6.48-6.215-2.51-9.256-2.498-18.73 0-28 3.579-5.368 8.977-4.216 14.875-4.25ZM35.063 437.688l2.72-.01c7.768.063 7.768.063 11.217 2.322 2.141 5.312 2.307 10.325 2.25 16l.023 2.328c-.02 5.813-.359 11.31-4.148 15.985-5.481 2.96-11.535 4.365-17.73 3.195-5.942-2.25-8.816-5.822-11.395-11.508-3.075-7.268-2.325-15.224.25-22.563 4.434-6.176 9.819-5.876 16.813-5.75Z" fill="#342615"/><path d="M370 441c3.834 6.773 4.157 13.974 4.25 21.625l.078 3.852c-.347 3.73-1.07 5.575-3.328 8.523-2.55 1.275-4.165 1.026-7.008.879l-2.988-.147-3.129-.17-3.152-.158c-2.575-.13-5.149-.265-7.723-.404v-2l-1.875-.75c-2.594-1.526-3.02-2.479-4.125-5.25-1.33-8.094-2.123-17.58 2-25 7.293-7.096 19.138-7.257 27-1ZM124 439c4.474 3.627 5.002 8.351 5.746 13.797.491 6.193.71 12.463-2.684 17.89L125 473h-2l-1 2c-3.581.284-7.165.521-10.75.75l-3.078.246c-7.385.437-7.385.437-10.852-1.473-1.85-3.534-1.833-6.76-1.695-10.648l.048-2.3c.25-8.268.649-16.086 6.327-22.575 6.052-3.916 15.69-2.65 22 0Z" fill="#342616"/><path d="m72.813 439.75 3.644-.078c3.898.36 6.26 1.217 9.543 3.328 3.65 8.958 2.487 19.529.926 28.879-1.375 3.15-2.996 4.35-5.926 6.121-3.629.46-3.629.46-7.563.375l-3.94-.04c-3.165-.303-4.958-.488-7.497-2.335-4.538-8.92-3.655-20.392-1.012-29.898C62 443 62 443 63 441c3.43-1.143 6.199-1.204 9.813-1.25Z" fill="#342615"/><path d="m397 439.625 3.625-.086c4.05.553 5.644 1.438 8.375 4.461 1.553 5.092 1.184 10.703 1.188 16l.037 2.656c.01 4.778-.06 8.973-2.225 13.344-3.326 2.708-7.3 2.334-11.438 2.375l-3.933.086c-4.25-.54-5.79-1.277-8.629-4.461-1.946-4.904-2.356-9.645-2.313-14.875l.015-2.116c.243-10.735.243-10.735 3.298-15.009 3.924-2.17 7.57-2.327 12-2.375Z" fill="#342515"/><path d="M142.035 168.352c7.453 1.63 14.525 4.577 20.965 8.648l-1.141 1.398c-4.106 5.222-7.007 10.564-9.734 16.602l-1.219 2.637A885.692 885.692 0 0 0 148 204l-3.781-.715c-3.375-.477-3.375-.477-6.313 1.149l-1.406 2.004-1.469 1.996L134 210l-2.105-.898c-3.042-1.158-6.046-1.963-9.208-2.727-1.068-.26-2.137-.52-3.238-.79L117 205c8.26-15.5 8.26-15.5 16-20l-.5-1.938a58.31 58.31 0 0 1-.75-7.687l-.078-2.29c.328-2.085.328-2.085 1.57-3.858 2.933-2.047 5.376-1.327 8.793-.875Z" fill="#E7D8B1"/><path d="M53 135c-.453 6.183-1.884 10.372-4.875 15.75-3.496 6.64-5.699 12.854-7.125 20.25a5941.1 5941.1 0 0 1-1.688 7.75c-.44 2.083-.877 4.166-1.312 6.25-4.68 1.188-4.68 1.188-7.563-.5-2.902-2.977-4.472-5.842-6.437-9.5l-2-2a94.492 94.492 0 0 1-2.688-4.813l-1.386-2.582c-1.102-3.101-.967-4.508.074-7.605 5.958-10.565 22.014-24.709 35-23Z" fill="#C3AB72"/><path d="M418 135c9.305 1.135 15.635 5.528 23 11l1.762 1.25c4.334 3.276 8.12 7.732 10.238 12.75-.39 10.034-9.422 19.01-16 26l-5-1-.396-2.06c-.607-3.128-1.23-6.253-1.854-9.377l-.621-3.24c-1.194-5.915-2.666-11.185-5.35-16.6C423 152 423 152 423 150l-2-1c-1.105-2.145-1.105-2.145-2.188-4.813l-1.105-2.644c-.748-2.691-.653-3.958.293-6.543Z" fill="#C2AB72"/><path d="m236.188 128.688 2.221.01c8.915.175 17.858 1.662 25.591 6.302 0 4.006-.084 4.621-2.188 7.672l-1.367 2.012L259 146.75l-1.445 2.113A796.407 796.407 0 0 1 254 154l-1.953-.435c-9.557-2.091-18.595-3.655-28.047-.565l-.953-2.379c-2.36-5.791-4.775-11.29-8.047-16.621 6.491-4.463 13.512-5.372 21.188-5.313Z" fill="#9E751D"/><path d="M332 165c4.729 4.601 5.139 8.741 5.292 15.144.077 8.82.132 18.52-5.808 25.684C330 207 330 207 328.063 206.812c-5.678-2.236-5.678-2.236-7.172-4.473l-.856-1.972-.978-2.184-.995-2.308c-2.66-5.931-5.393-11.486-9.062-16.875 1.375-2 1.375-2 3-4h2l.703-1.797c3.11-5.282 11.249-9.787 17.297-8.203Z" fill="#E6D8B1"/><path d="M219 395c1.005 2.123 2.004 4.248 3 6.375l1.688 3.586C225 408 225 408 225 410h2l.688-2.063c1.668-3.733 3.87-6.659 6.312-9.937 3.82 1.274 4.23 2.626 6.188 6.063l1.605 2.785L243 409c2.334-2.929 4.05-5.886 5.688-9.25l1.324-2.703L251 395c4.489 1.687 7.605 3.528 11 7 .875 3.813.875 3.813 1 7-12.572 8.667-24.582 9.987-39.415 7.477-6.079-1.168-11.334-3.14-16.585-6.477-.178-3.2-.031-5.95 1-9 2.952-2.854 6.741-6 11-6Z" fill="#826A20"/><path d="M206 39c2.741 9.595 4.542 20.01 4 30-4.058 4.6-11.533 8.484-17.625 9.39C190 78 190 78 188.293 76.423c-1.612-3.02-2.289-5.82-2.98-9.172l-.762-3.547L184 60l-.318-2.05c-.258-2.87-.318-5.178 1.571-7.471 1.764-1.419 3.565-2.613 5.497-3.791l1.922-1.26c1.225-.803 2.459-1.594 3.701-2.372 1.773-1.11 1.773-1.11 3.83-2.849C202 39 202 39 206 39Z" fill="#D5A342"/><path d="m355.625 205.75 3.477-.016C362 206 362 206 364 208c.227 2.937.324 5.75.313 8.688l.048 2.396c.005 5.392-.707 9.187-3.361 13.916-2.086 1.926-2.086 1.926-4.375 3.313l-2.273 1.425c-2.397 1.286-4.808 2.305-7.352 3.262l-.779-1.68a2893.261 2893.261 0 0 0-3.534-7.57l-1.224-2.645-1.201-2.558-1.095-2.349c-1.127-2.267-1.127-2.267-2.811-4.354C335 218 335 218 335.043 215.945c1.285-2.611 2.814-3.535 5.27-5.07l2.363-1.508L345 208l1.879-1.164c2.963-1.168 5.573-1.1 8.746-1.086Z" fill="#E7D8B2"/><path d="M387 174c5.855 1.355 8.902 4.311 12.938 8.5l1.853 1.898c9.953 10.369 9.953 10.369 12.209 15.602-.084 3.39-.69 4.664-2.996 7.168l-2.442 2.02-2.433 2.042L404 213l-2 2c-5.53 4-5.53 4-9 4l-.332-3.586c-.745-7.58-1.473-14.798-3.934-22.043-1.965-6.345-3.395-12.858-1.734-19.371Z" fill="#C3AB71"/><path d="m79 176 3 1c.505 8.19-.325 15.192-2.498 23.02C77.8 206.302 77.222 212.496 77 219c-5.217-.392-7.967-3.155-11.688-6.5-3.892-3.625-3.892-3.625-8.312-6.5-.988-3.098-.988-3.098-1-7 1.52-2.864 3.597-5.088 5.813-7.438l1.792-1.974C73.191 179.229 73.191 179.229 79 176Z" fill="#C2AB72"/><path d="M292 327c-3.353 7.964-9.377 14.404-15.188 20.688l-1.855 2.011C273 351 273 351 270.504 350.871 260.436 347.37 253.274 337.755 248 329l2.228-.076c3.382-.117 6.765-.24 10.147-.361l3.504-.12c6.018-.22 11.978-.545 17.96-1.238 3.397-.322 6.752-.268 10.161-.205Z" fill="#58393E"/><path d="m178 327 43 2c-3.641 9.102-10.936 15.762-18.992 21.172-2.008.828-2.008.828-3.899.812-3.24-1.512-5.522-3.956-7.984-6.484l-1.606-1.628C178 331.982 178 331.982 178 327Z" fill="#58383F"/><path d="M107 220c2.286 2.127 3.863 4.247 5.438 6.938 1.541 2.591 2.538 4.043 4.937 5.937 2.025 2.648 1.7 3.368 1.293 6.594l-.321 2.71L118 245c-.183 1.783-.362 3.567-.535 5.352L116 265c-3.86-.49-6.63-1.013-9.75-3.375l-1.734-1.273c-2.15-1.917-3.422-3.6-3.782-6.489.072-11.731.647-23.374 6.266-33.863Z" fill="#9E751D"/><path d="m187.223 172.953 2.715.02c.68.01 1.36.018 2.062.027l.113 3.863c.527 15.146 2.054 30.098 3.887 45.137-7.2-3.295-9.545-9.743-12.19-16.784a762.046 762.046 0 0 1-5.185-14.716l-1.122-3.222-1.026-3.06-.935-2.751c-.577-2.628-.59-4 .458-6.467 3.752-1.924 7.093-2.087 11.223-2.047Z" fill="#B19867"/><path d="M278 173c4.87-.125 8.836-.055 13.5 1.5l2.594.844L296 176l-1.102 2.867c-2.554 6.705-5.02 13.41-7.212 20.242-5.753 17.898-5.753 17.898-13.686 23.891l.367-3.574C275.915 203.97 276.99 188.498 278 173Z" fill="#B09867"/><path d="M173 57c1.898.031 1.898.031 4 1 1.414 2.844 1.414 2.844 2.625 6.5l.641 1.924c2.381 7.29 4.06 13.897 3.734 21.576-3.057.94-4.505 1.222-7.473-.11l-2.59-1.64c-5.77-3.38-11.414-4.952-17.937-6.25l-1-4 1.434-1.145C162.444 69.853 167.163 64.118 172 58l1-1Z" fill="#9E761D"/><path d="M96 166c7.973-.625 15.843 1.422 23 5-.36 5.485-2.533 8.33-6.25 12.125-.478.512-.956 1.024-1.45 1.55-2.886 3.044-5.783 6.015-9.3 8.325-2.313-.25-2.313-.25-4-1-3.33-9.05-3.056-16.575-2-26ZM68 139c4.562 1.423 7.462 3.976 10.75 7.313l1.496 1.435C83.184 150.69 84.665 152.82 85 157c-2.54 1.297-5.081 2.587-7.625 3.875l-2.16 1.105C69.842 164.691 65.132 167 59 167l-1-4h2l.188-3.188C61.07 152.575 63.968 145.05 68 139Z" fill="#9E751D"/><path d="m382 215 2 1c2.221 27.017 2.221 27.017-5 37-2.25 1.938-2.25 1.938-4 3-2.34-6.365-2.63-12.338-2.938-19.063-.08-1.17-.16-2.342-.244-3.548-.397-8.6-.397-8.6 2.502-12.553L377 219l2.813-2.313L382 215Z" fill="#7E5917"/><path d="M404 130c8.333.051 16.085 1.478 24 4l-1 3-9-1 .438 2.188L419 141l.867 2.25c.21 4.34-2.372 6.465-5.18 9.563l-1.552 1.81c-1.323 1.51-2.724 2.95-4.135 4.377h-2c-.678-3.352-1.34-6.707-2-10.063l-.578-2.857c-.998-5.112-1.761-9.869-1.422-15.08l1-1Z" fill="#7E5817"/><path d="M235.941 163.992c3.82 1.259 6.196 3.365 8.996 6.133l1.572 1.497A404.87 404.87 0 0 1 251 176l2.332 2.285A432.934 432.934 0 0 1 258 183l-1 2-2.668-1.566c-1.173-.667-2.346-1.332-3.52-1.996l-1.751-1.038c-2.785-1.557-4.642-2.424-7.862-2.24-2.362.73-2.362.73-4.199 2.84-3.442-.353-5.069-1.046-8-3-5.203.4-9.172 3.235-13.574 5.82L213 185l-2-1c2.72-2.78 5.453-5.547 8.188-8.313l2.33-2.38 2.275-2.295 2.079-2.11c3.198-2.858 5.702-4.898 10.07-4.91Z" fill="#B58021"/><path d="M151 92c4.728 1.573 8.343 4.206 12.313 7.125l1.955 1.418c1.58 1.148 3.157 2.302 4.732 3.457l-5 5-1.555 1.617c-1.32 1.258-1.32 1.258-4.445 3.383-3.875-.188-3.875-.188-7-1l-1-3-2.188-.875c-3.64-1.456-5.88-3.535-8.812-6.125 1.251-3.754 2.565-4.24 6-6h2l.938-1.938C150 93 150 93 151 92Z" fill="#513E17"/><path d="M403.875 422.125c3.392 2.993 4.805 6.153 5.625 10.563-.5 2.312-.5 2.312-2.594 3.933-3.511 1.666-6.031 1.78-9.906 1.754l-3.625.023c-3.644-.43-5.565-1.048-8.375-3.398-.903-3.045-.616-5.902 0-9 4.407-6.08 12.237-6.472 18.875-3.875ZM81.5 422.375C84 424 84 424 85 426c.273 2.059.273 2.059.375 4.438l.148 2.37C85 435 85 435 82.914 436.763c-3.494 1.485-6.124 1.638-9.914 1.613l-3.625.023c-3.57-.421-5.481-1.326-8.375-3.398.382-5.633.778-8.902 5-13 5.332-1.777 10.273-1.679 15.5.375Z" fill="#D5A343"/><path d="M146.45 204.141c2.55.859 2.55.859 4.08 2.913.415.884.83 1.769 1.26 2.68l1.413 2.93 1.422 3.086c.949 1.996 1.9 3.99 2.852 5.984l1.252 2.695c1.251 2.646 1.251 2.646 2.991 5.275L163 232l-1 2c-21.153-10.73-21.153-10.73-26-18-.072-3.26.356-5.223 2.457-7.758 4.587-4.297 4.587-4.297 7.993-4.1Z" fill="#B09866"/><path d="M321 204c4.172.704 6.195 1.657 9.313 4.563l2.113 1.94L334 212c-.635 5.755-3.523 7.977-7.746 11.64-5.789 4.454-12.642 7.35-19.254 10.36 1.298-4.151 2.86-7.956 4.82-11.836l1.621-3.223 1.684-3.316 1.707-3.387c1.386-2.748 2.775-5.494 4.168-8.238Z" fill="#B19867"/><path d="M146.438 45 149 46c-.706 4.904-2.596 9.216-4.5 13.75l-.973 2.363c-2.39 5.75-2.39 5.75-3.527 6.887a91.472 91.472 0 0 1-5.063.063l-2.785-.028L130 69c-1.115-4.087-.801-6.811.313-10.875l.859-3.168L132 52l.578-2.3c.407-1.586.904-3.147 1.422-4.7 4.022-2.011 8.257-1.216 12.438 0Z" fill="#523F17"/><path d="M178 153a263.15 263.15 0 0 1-2.75 12.563l-.438 1.998c-.831 3.336-1.74 5.36-4.078 7.904-3.302 1.854-4.995 2.032-8.734 1.535-2.992-1.094-2.992-1.094-5.875-2.5l-2.93-1.406L151 172c6.166-7.789 16.281-19 27-19ZM135 185l.734 2.195c1.898 5.474 3.764 10.177 7.266 14.805l-2.25 1.188c-2.948 1.942-4.681 3.977-6.75 6.812l-2.105-.898c-3.042-1.158-6.046-1.963-9.208-2.727-1.068-.26-2.137-.52-3.238-.79L117 205c10.658-20 10.658-20 18-20Z" fill="#9F771F"/><path d="m39.938 421.813 3.714-.043c3.12.214 4.802.482 7.348 2.23 1.414 2.829 1.319 4.874 1 8-2.883 2.814-4.946 3.372-8.914 3.328l-2.805-.015-2.906-.063-2.93-.016c-7.136-.08-7.136-.08-9.445-1.234-.313-3.25-.313-3.25 0-7 4.585-4.709 8.578-5.154 14.938-5.188ZM429.813 421.75l3.644-.078c4.798.444 8.134 1.919 11.543 5.328.25 3 .25 3 0 6-2.924 2.924-5.445 2.292-9.445 2.322l-2.93-.01-2.906.05-2.805.001-2.564.01c-2.887-.458-4.263-1.348-6.35-3.373-.51-4.082-.314-5.53 2-9 3.43-1.143 6.199-1.204 9.813-1.25Z" fill="#D6A343"/><path d="M119 419c3.063 2.063 3.063 2.063 5 5 .457 2.856.293 5.072 0 8-2.36 2.36-8.268 1.185-11.438 1.188l-2.97.037-2.838.005-2.615.013C102 433 102 433 100 431c-.438-2.813-.438-2.813 0-6 5.292-6.653 10.946-8.214 19-6ZM365.938 420.313c2.243 1.835 3.173 2.94 4.062 5.687.25 2.625.25 2.625 0 5-2 2-2 2-4.139 2.243l-2.615-.013-2.838-.005-2.97-.038-2.983-.001c-7.315-.046-7.315-.046-8.455-1.186-.71-7.098-.71-7.098 2.313-10.938 5.49-4.214 11.517-3.478 17.625-.75Z" fill="#D5A343"/><path d="M422 97c.842 3.56 1.672 7.124 2.5 10.688l.723 3.052.683 2.96c.21.895.42 1.79.635 2.713.459 2.587.542 4.966.459 7.587a2432.151 2432.151 0 0 1-7.75-3.813c-.73-.356-1.46-.712-2.21-1.08-3.6-1.782-6.936-3.518-10.04-6.107 1.332-5.918 4.654-9.93 9-14 2.204-1.295 3.442-2 6-2Z" fill="#7E5816"/><path d="M240.09 189.918c13.32 7.036 13.32 7.036 16.41 12.957L257 205c-3.517-1.03-6.484-2.236-9.563-4.188-3.205-2.06-3.205-2.06-6.25-1.687-2.347.772-2.347.772-4.187 2.875-3.442-.353-5.069-1.046-8-3-3.766.338-6.47 1.645-9.688 3.563C215.204 205 215.204 205 213 205c.5-4.08 2.404-5.531 5.563-8 13.737-10.504 13.737-10.504 21.527-7.082Z" fill="#B58021"/><path d="M301 337c3 1 3 1 3.879 2.758 5.51 19.078 5.51 19.078 3.121 26.242-3.043.303-4.481.417-6.914-1.54-8.028-9.786-8.028-9.786-8.149-15.335 1.591-4.679 4.567-8.63 8.063-12.125Z" fill="#805B18"/><path d="M166 337c2.78.356 3.802.771 5.668 2.926l1.52 2.387 1.542 2.363c1.22 2.231 2.026 3.799 2.27 6.324-2.117 5.544-5.767 10.873-10 15-2.75.438-2.75.438-5 0l-1-1c.057-9.039.903-19.806 5-28Z" fill="#805A18"/><path d="M89 34c6.853 1.29 12.78 6.622 18 11-.172 2.266-.172 2.266-1 5-2.328 1.984-2.328 1.984-5.25 3.75l-2.89 1.797c-2.698 1.37-4.882 2.04-7.86 2.453-3.286-7.6-2.418-16.023-1-24Z" fill="#BF5602"/><path d="M78 360c7.895 1.991 14.822 5.19 22 9-5.005 6.454-11.098 12.366-19 15-.51-2.498-1.008-4.998-1.5-7.5l-.434-2.11c-.949-4.88-1.2-9.417-1.066-14.39ZM392 360c-.779 16.893-.779 16.893-3 24-3.448-1.586-6.421-3.6-9.5-5.813l-2.844-2.019c-2.662-2.173-4.618-4.414-6.656-7.168 2.206-1.13 4.414-2.254 6.625-3.375l1.871-.96C387.727 360 387.727 360 392 360Z" fill="#B68022"/><path d="M61 14c6.88 1.935 13.181 8.113 17 14v4c-2.874 2.175-4.364 3-8 3l-1 2c-6.152.098-6.152.098-8 0-2.259-2.259-1.52-7.326-1.688-10.375l-.181-2.656-.143-2.555-.14-2.345C59 17 59 17 61 14Z" fill="#9E761E"/><path d="M376 333c7.9-.911 13.205 2.195 20 6-3.802 6.487-8.02 11.482-14 16h-2v2h-2c-.338-3.062-.67-6.125-1-9.188-.095-.864-.19-1.728-.29-2.619-.437-4.08-.846-8.08-.71-12.193Z" fill="#B68122"/><path d="M220 363c3.961.248 6.024 1.69 9 4.125 2.929 2.337 2.929 2.337 6.5 3.125 3.193-1.596 5.809-3.678 8.535-5.973C246 363 246 363 250 363l1 3c-3.077 5.314-8.348 12.286-14 15-3.912-.064-5.64-.71-8.703-3.18l-2.547-2.695-2.578-2.68C221 370 221 370 219 367c.375-2.188.375-2.188 1-4Z" fill="#B58021"/><path d="M94 333c-.497 8.024-1.02 16.018-2 24h-2v-2l-1.688-.75C81.983 350.829 78.209 345.675 74 340c5.387-5.931 12.257-7.563 20-7Z" fill="#B68122"/><path d="M83 0c4.692.52 7.792 1.76 11.75 4.313l2.86 1.8c2.369 1.87 3.333 3.103 4.39 5.887-4.076 4.47-8.673 8.097-14 11h-3c-1.71-7.756-2.25-15.066-2-23Z" fill="#9E751E"/><path d="M133.305 130.672c1.919.724 3.81 1.52 5.695 2.328-.59 4.279-2.111 7.304-4.313 11l-1.8 3.063c-1.815 2.825-3.652 5.43-5.887 7.937h-2c-.673-3.249-1.337-6.5-2-9.75l-.578-2.79-.547-2.694-.508-2.476C121 135 121 135 121 131c3.834-1.917 8.281-1.501 12.305-.328Z" fill="#BF5602"/><path d="M68 309c4.914 1.437 9.002 3.542 13.375 6.125l1.941 1.129c1.564.91 3.125 1.827 4.684 2.746-1.523 3.962-3.916 5.738-7.313 8.188l-2.863 2.105c-2.73 1.65-4.686 2.324-7.824 2.707-1.515-7.753-2.28-15.1-2-23Z" fill="#B68122"/><path d="M221 346c3.79.105 5.034 1.03 7.875 3.625 2.928 2.698 2.928 2.698 6.563 2.5 3.736-1.18 5.96-2.636 8.886-5.164C246 346 246 346 248.207 346.35c1.793.649 1.793.649 2.606 2.337.187 2.312.187 2.312-1.688 4.687-9.768 8.707-9.768 8.707-15.047 8.523-3.539-1.032-5.914-2.481-8.89-4.648l-2.895-2.047c-2.56-2.46-3.217-3.679-3.293-7.203l2-2Z" fill="#B58021"/><path d="M402 309c.28 7.9-.485 15.247-2 23-4.44-.542-7.109-2.181-10.688-4.813l-2.886-2.082c-2.29-1.988-3.353-3.313-4.426-6.105 2.25-1.293 4.5-2.584 6.75-3.875l1.922-1.105C399.433 309 399.433 309 402 309ZM68 268c6.88.543 13.779 3.425 18.305 8.672L88 279c-2.62 2.008-5.246 4.005-7.875 6l-2.262 1.734-2.168 1.641-2 1.523C72 291 72 291 70 291c-1.515-7.753-2.28-15.1-2-23ZM402 268c.28 7.9-.485 15.247-2 23-4.672-1.53-8.022-4.108-11.813-7.125l-1.81-1.418A946.629 946.629 0 0 1 382 279c3.845-3.99 7.148-6.442 12-9l2.188-1.25C398 268 398 268 402 268Z" fill="#B68022"/><path d="M396 55c7.297 4.196 13.012 10.604 17 18v2c-16.59-.82-16.59-.82-23-3-1-2-1-2-.328-4.207 1.846-4.462 3.637-8.756 6.328-12.793Z" fill="#805A18"/><path d="M376 37c4.198 1.397 6.836 3.373 10.063 6.375l2.535 2.336L391 48l2.309 2.164C395 52 395 52 395 54l-23 2c0-11.25 0-11.25 2-15.125l1.125-2.258L376 37Z" fill="#7F5917"/><path d="M383 288c4.647 1.452 7.721 4.151 11.188 7.438l1.615 1.486c2.412 2.248 4.36 4.32 6.197 7.076l-3.105.77c-1.361.347-2.722.694-4.082 1.043l-2.042.501c-4.055 1.049-7.253 2.441-10.771 4.686h-2c.115-2.71.241-5.417.375-8.125l.094-2.305c.233-4.516.858-8.312 2.531-12.57Z" fill="#B68122"/><path d="M89 115c4.48.512 6.615 2.098 10 5 2.312 1.699 4.656 3.346 7 5-1.441 3.58-3.143 5.074-6.375 7.125l-2.336 1.508C91.651 137 91.651 137 88 137c-3.16-6.321-.99-15.535 1-22Z" fill="#BF5602"/><path d="M87 288c2.05 7.783 3.492 14.935 3 23l-2.527-1.023C81.01 307.416 74.835 305.274 68 304c13.061-16 13.061-16 19-16Z" fill="#B68021"/><path d="M138 102c.671 2.436 1.337 4.874 2 7.313l.578 2.091c.8 2.954 1.422 5.522 1.422 8.596-6.406.209-11.93.158-18-2 .445-5.273 1.084-10.018 3-15 7.625-1 7.625-1 11-1Z" fill="#503D16"/><path d="M124 49c.503 2.77 1.003 5.541 1.5 8.313l.434 2.38.41 2.295.38 2.11C127 66 127 66 127 69l-13 1-5-12c3.097-3.097 4.957-4.763 8.625-6.75l2.352-1.297C122 49 122 49 124 49Z" fill="#513E16"/><path d="M240 212c5.65 3.258 10.617 7.179 15 12-3.07-.428-5.714-.874-8.563-2.125-2.945-1.057-4.487-.832-7.437.125l-2 2c-3.442-.353-5.069-1.046-8-3-3.187.277-5.736.89-8.688 2.125C218 224 218 224 215 223c15.608-14.757 15.608-14.757 25-11Z" fill="#B68122"/><path d="M168 115c2 2 2 2 2.23 5.844a357.502 357.502 0 0 1-.042 4.656l-.002 2.379c-.046 5.84-.046 5.84-1.186 8.121-6.635-.355-10.632-2.131-16-6 .53-3.95 2.286-5.515 5.25-8.063l2.328-2.035c2.377-1.867 4.797-3.408 7.422-4.902Z" fill="#BF5602"/><path d="M103 62c1.922 1.898 1.922 1.898 3.75 4.375l1.86 2.46C110 71 110 71 110 73a249.325 249.325 0 0 1-6 4 89.466 89.466 0 0 0-3 3 816.426 816.426 0 0 1-6.438-3.813l-1.853-1.08C88.113 72.34 88.113 72.34 87 69a684.88 684.88 0 0 1 5.75-3.5l3.234-1.969C99 62 99 62 103 62Z" fill="#523E17"/><path d="M380 163c10.125 0 10.125 0 14.563 1l2.566.563L399 165c-1.825 3.923-4.183 6.738-7 10l-5-1 .313 2.313L387 179c-2.383 1.819-3.958 3-7 3v-19Z" fill="#805A17"/><path d="M120 21c4.136 1.527 6.237 4.496 8.75 7.938l1.246 1.63C133 34.615 133 34.615 133 38a886.164 886.164 0 0 1-5.75 2l-3.234 1.125C121 42 121 42 117 42c-.232-6.893-.11-13.377 2-20l1-1Z" fill="#BF5602"/><path d="M326.832 14.563 329 15c-1.377 4.132-4.157 5.25-7.75 7.313l-1.883 1.166c-2.986 1.729-4.702 2.66-8.144 1.939-3.272-2.087-4.935-4.28-7.223-7.418v-2l-3-1c7.034-4.69 17.93-1.91 25.832-.438ZM295 13c-1.411 3.123-3.11 5.497-5.375 8.063l-1.773 2.035c-1.828 1.877-3.716 3.391-5.852 4.902-3.615-1.498-5.686-3.575-8.25-6.5l-2.14-2.406C270 17 270 17 270 15c3.792-.335 7.583-.668 11.375-1 1.08-.095 2.16-.19 3.273-.29 1.547-.134 1.547-.134 3.125-.273l2.889-.253C293 13 293 13 295 13Z" fill="#7F5917"/><path d="M234 232c3.813 2.136 6.954 4.565 10.188 7.5l2.605 2.344C249 244 249 244 251 247c-2.83-.515-5.452-1.15-8.188-2.063C234.65 242.93 228.67 243.905 221 247l-3-1c1.727-1.585 3.457-3.168 5.188-4.75l2.917-2.672A160.727 160.727 0 0 1 234 232Z" fill="#B58121"/><path d="m113.688 100.938 2.449.59L118 102c-.14 1.959-.288 3.917-.438 5.875-.08 1.09-.162 2.181-.246 3.305C117 114 117 114 116 116c-10.558-2.89-10.558-2.89-15-6 1.244-3.445 2.548-6.254 5-9 3.297-1.099 4.405-.871 7.688-.063Z" fill="#513E17"/><path d="M337 18c7.315 1.043 13.708 3.034 20 7l1 2a872.806 872.806 0 0 1-6.25 3l-3.516 1.688C345 33 345 33 341 33a696.285 696.285 0 0 1-2-5.25l-1.125-2.953C337 22 337 22 337 18Z" fill="#7E5816"/><path d="M410 344c3.571 1.288 6.294 2.84 9.313 5.125 6.498 4.43 12.253 3.114 19.687 1.875-1.485 3.995-3.62 5.271-7.313 7.25l-2.863 1.578c-2.971 1.233-4.66 1.736-7.824 1.172-5.052-4.537-8.226-10.897-11-17ZM58 344l1 2c-1.328 2.715-1.328 2.715-3.25 5.938l-1.89 3.214C51.1 359.38 51.1 359.38 49 361c-6.53.133-11.907-3.078-17-7l-1-3 3 .5c1.333.168 2.667.334 4 .5l3.688.563c6.31.012 11.49-4.962 16.312-8.563Z" fill="#B68122"/><path d="M400 393c3.735.612 5.935 2.327 8.938 4.563 6.313 4.18 11.693 4.175 19.062 3.437-3.678 4.853-7.156 8.447-13.469 9.355-4.292-.602-5.99-3.636-8.66-6.82-2.485-3.366-4.2-6.705-5.871-10.535ZM68 393l2 1c-8.038 13.226-8.038 13.226-12 16-6.288.363-11.347-3.022-16-7v-2l2.387.281c9.149.607 13.801-1.515 21.031-6.629L68 393Z" fill="#B68121"/><path d="M406 368c3.325 1.108 5.255 2.222 7.938 4.563 5.177 3.929 11.826 3.342 18.062 3.437v2c-1.977 1.473-1.977 1.473-4.625 3.063l-2.602 1.597c-2.96 1.43-5.523 1.954-8.773 2.34-1.106-1.561-2.21-3.124-3.313-4.688l-1.863-2.636C406 370.6 406 370.6 406 368Z" fill="#B78223"/><path d="M64 368c-1.423 3.86-3.21 7.252-5.375 10.75l-1.773 2.922C55 384 55 384 53.195 385.043c-3.446-.067-6.044-1.787-8.945-3.48l-1.824-1.026A423.302 423.302 0 0 1 38 378v-2l2.71.027c8.161-.2 13.054-1.31 19.4-6.53C62 368 62 368 64 368Z" fill="#B78222"/><path d="M240 23c-3.267 4.389-6.549 8.753-10 13-5.442-.34-8.937-3.703-13-7 5.083-6.194 15.533-6.43 23-6Z" fill="#7F5917"/><path d="M281 333c-1.367 5.013-4.728 9.098-9 12-4.339-.35-6.946-3.079-10-6-1.18-2.672-1.18-2.672-2-5 7.026-.748 13.934-1.138 21-1Z" fill="#AD35A8"/><path d="m189 333 21 1c-1.88 3.758-3.025 5.15-6.125 7.75l-2.195 1.86L200 345c-4.989-1.174-6.987-4.183-9.863-8.125C189 335 189 335 189 333Z" fill="#AE35AA"/><path d="m150 21 3 1c.95 2.582.95 2.582 1.688 5.813l.761 3.207C156 34 156 34 156 38c-4.548.178-7.88-.002-12-2 .59-5.9 1.712-10.712 6-15Z" fill="#BE5703"/><path d="M269 16a787.87 787.87 0 0 1-2.75 3.75l-1.547 2.11c-1.764 2.217-3.666 4.174-5.703 6.14-1.503-1.643-3.002-3.29-4.5-4.938l-2.531-2.777C250 18 250 18 250 17c6.342-1.153 12.567-1.095 19-1Z" fill="#805A17"/><path d="M199 43a892.9 892.9 0 0 1-1.375 5.813l-.773 3.269C196 55 196 55 194 58c-4.167-.473-6.929-1.047-10-4v-2a113.336 113.336 0 0 1 6.375-4.625l1.828-1.273C196.735 43 196.735 43 199 43Z" fill="#805B18"/><path d="M381 339c2.5-.313 2.5-.313 5 0 2 2 2 2 2.25 4.5C388 346 388 346 386 348c-3.125-.375-3.125-.375-6-1-.625-2.313-.625-2.313-1-5l2-3Z" fill="#AE5815"/><path d="M86.5 338.688 89 339c2 3 2 3 1.625 5.688L90 347c-2.875.625-2.875.625-6 1-2-2-2-2-2.25-4.5.35-3.495 1.274-4.378 4.75-4.813Z" fill="#AE5715"/><path d="M395.063 274.25C397 275 397 275 399 277c-.556 4.556-.556 4.556-2 6-2.438.188-2.438.188-5 0-2-2-2-2-2.313-4.5L390 276c3-2 3-2 5.063-1.75ZM74 274c4.556.556 4.556.556 6 2 .188 2.438.188 2.438 0 5-2 2-2 2-4.5 2.313L73 283c-2-3-2-3-1.75-5.063C72 276 72 276 74 274Z" fill="#AE5815"/><path d="M384.625 366.875 387 367l2 5c-1.75 2.063-1.75 2.063-4 4-2.25-.25-2.25-.25-4-1-.625-2.875-.625-2.875-1-6 2-2 2-2 4.625-2.125ZM83 367c2.375-.125 2.375-.125 5 0l2 2c-.375 3.125-.375 3.125-1 6-1.75.75-1.75.75-4 1-2.25-1.938-2.25-1.938-4-4l2-5Z" fill="#AE5715"/><path d="M385 296c2.625-.188 2.625-.188 5 0 1.125 2.313 1.125 2.313 2 5l-2 3c-2.625.188-2.625.188-5 0-1.125-2.313-1.125-2.313-2-5l2-3ZM80 296c2.625-.188 2.625-.188 5 0 1.125 2.313 1.125 2.313 2 5l-2 3c-2.625.188-2.625.188-5 0-1.125-2.313-1.125-2.313-2-5l2-3ZM394.438 316.813C397 317 397 317 399 319c-.375 2.625-.375 2.625-1 5-1.813.625-1.813.625-4 1l-3-2c-.25-2.563-.25-2.563 0-5 1-1 1-1 3.438-1.188ZM75.5 316.875C78 317 78 317 79 318c.04 1.666.043 3.334 0 5l-5 2c-1.563-1.25-1.563-1.25-3-3 .419-3.557.79-4.94 4.5-5.125Z" fill="#AE5815"/></svg>