<svg xmlns="http://www.w3.org/2000/svg" width="511" height="485"><path d="M316.678-.107c9.546-.073 19.092-.131 28.638-.168 4.68-.018 9.362-.042 14.042-.084 40.817-.354 93.093-.04 124.474 30.164L486 32l1.887 1.82c22.282 23.134 23.442 61.833 23.372 91.897l.01 5.996c.01 5.38.006 10.76 0 16.141-.005 5.703 0 11.406.002 17.109.004 9.606 0 19.212-.01 28.818-.011 10.96-.008 21.92.003 32.879.01 9.516.01 19.032.006 28.548-.004 5.635-.004 11.27.003 16.904.03 28.809-.645 57.518-1.925 86.298-.535 12.384-.764 24.774-.965 37.166-.49 25.225-4.763 50.246-23.586 68.569-10.45 9.048-25.79 16.285-39.797 15.855l-1 2-2.375-.062c-2.606-.125-2.606-.125-4.625 1.062-21.794 2.832-44.076 2.287-66 2.236-4.653-.01-9.306-.007-13.959-.007-7.774 0-15.549-.01-23.323-.023-8.987-.016-17.973-.021-26.96-.02-9.617 0-19.234-.007-28.852-.016-2.76-.002-5.522-.003-8.283-.003-4.315-.001-8.63-.007-12.945-.017-1.585-.003-3.17-.004-4.753-.004-2.155 0-4.31-.005-6.464-.012l-3.657-.005C239 485 239 485 237 484c-1.664-.22-3.335-.391-5.008-.535l-2.988-.264-3.129-.263-3.152-.276c-2.574-.224-5.148-.445-7.723-.662 1-2 1-2 3.125-2.803l2.875-.79c1.092-.304 2.185-.606 3.31-.918l3.69-.989 1.918-.52c42.823-11.58 86.037-21.168 129.978-27.37 18.912-2.45 18.912-2.45 37.291-7.297l2.243-.77c12.155-4.37 26.768-11.448 32.57-23.543l1.445-1.441c8.268-8.289 12.2-25.28 12.688-36.657L446 377h2l-.07-1.941-.055-2.621-.07-2.567C448 367 448 367 448.948 363.78c1.04-3.734 1.621-7.274 2.087-11.119l.253-2.074c.175-1.445.347-2.89.517-4.334.253-2.154.517-4.305.783-6.457l.51-4.26.453-3.8c1.404-13.823 1.599-27.587 1.582-41.465a8173.908 8173.908 0 0 0-.002-18.202c-.006-5.193-.003-10.385.003-15.577.004-4.058.002-8.116 0-12.173 0-1.911 0-3.823.002-5.734.01-10.068-.127-20.112-.582-30.171l-.117-2.684-.125-2.497-.109-2.19c-.208-2.092-.688-4.007-1.203-6.042.079-1.502.185-3.002.312-4.5.104-5.821-2.137-9.92-4.902-14.934C447 173 447 173 446 170h-2l-1.625-1.75c-7.674-7.27-16.176-6.848-26.125-6.875a802.485 802.485 0 0 1-6.349-.072c-1.91-.028-3.819-.038-5.728-.048-3.02-.243-4.708-.541-7.173-2.255-2.261-4.8-2.413-9.664-2.625-14.875l-.117-2.375A892.26 892.26 0 0 1 394 136c-2.944-1.671-5.174-2.277-8.547-2.414l-2.558-.117-2.645-.094-2.691-.117c-2.186-.094-4.372-.18-6.559-.258 1.469-3.057 3.03-5.355 5.312-7.875 2.154-2.403 4.276-4.81 6.313-7.312 2.331-2.761 4.785-5.295 7.375-7.813 1.676-1.676 1.604-3.503 1.875-5.812-.01-4.127-.744-6.395-3.492-9.375-5.176-4.993-10.914-9.352-16.758-13.528-2.612-2.066-4.526-4.713-6.625-7.285a150.123 150.123 0 0 0-3.625-3.125c-4.67-3.97-8.677-8.456-12.762-13.008-2.466-2.706-5.01-5.294-7.613-7.867l-1.844-1.914C335.953 44.777 333.002 42.317 329 40l-2.195-2.273c-3.135-3.048-6.406-5.349-10.055-7.727l-1.871-1.25a155.86 155.86 0 0 0-10.628-6.406l-2.422-1.338L300 20c.085 12.425.18 24.849.288 37.273.049 5.773.095 11.545.134 17.317-3.609 46.563-3.609 46.563 7.578 88.41 2.403.447 2.403.447 5.191.598l3.112.24 3.26.225c2.126.153 4.252.31 6.378.472l2.866.2C331 165 331 165 332 166c-.516 7.596-2.187 14.855-3.938 22.25l-.452 1.927A1037.949 1037.949 0 0 1 307 265l3 1 2-13h2l.37-2.668c.596-3.152 1.452-5.706 2.704-8.648l1.265-3.03 1.348-3.216c5.744-14.137 10.346-27.93 12.727-43.024l.37-2.295a421.59 421.59 0 0 0 1.686-11.394c1.286-8.852 3.313-14.039 10.53-19.725a110.34 110.34 0 0 0 3.312-3.75c3.133-3.634 6.332-7.203 9.563-10.75l1.482-1.64A200.54 200.54 0 0 1 363 139h1l-.002 2.303c-.008 14.395-.004 28.79.046 43.185.05 14.622.058 29.243.031 43.866-.014 8.357-.01 16.714.031 25.071.037 7.385.042 14.77.01 22.154-.016 3.882-.017 7.762.02 11.643.036 3.632.028 7.26-.012 10.892-.01 1.95.024 3.899.06 5.848-.12 6.811-.983 10.565-5.598 15.717A247.937 247.937 0 0 1 354 324a307.804 307.804 0 0 0-4.438 5.438c-3.909 4.83-8.017 9.433-12.222 14.007a342.898 342.898 0 0 0-5.903 6.618 515.634 515.634 0 0 1-23.312 25.062l-2.777 2.84c-5.939 5.972-12.065 11.72-19.348 16.035h-3v5l-14-2v-1l-5-1v2l-13 3-2 8h-2c-2.12-3.534-2.532-6.944-3-11-7.416.94-13.558 2.11-20 6-1.203 2.405-1.1 3.95-1.063 6.625l.028 2.477L223 414c-2.375-.875-2.375-.875-5-3-1.901-4.694-2.274-8.755-1.188-13.687 4.913-7.44 12.051-10.834 19.945-14.543 6.06-2.958 10.468-7.102 15.243-11.77a146.924 146.924 0 0 1 3.187-2.562c2.225-1.928 3.984-3.719 5.875-5.938 7.592-8.865 15.96-16.987 25.102-24.238 3.85-3.07 7.587-6.264 11.334-9.458 1.497-1.273 3-2.538 4.502-3.804l2.758-2.324C307 321 307 321 309 321l-.473-2.832c-1.201-7.858-1.618-15.3-1.086-23.242l.158-2.62c.127-2.103.263-4.205.401-6.306l-2.443 2.46a8844.872 8844.872 0 0 1-9.08 9.118c-1.305 1.31-2.608 2.62-3.91 3.931C278.79 315.375 278.79 315.375 272 321l-1.8 1.514A713.866 713.866 0 0 1 266 326l8 5c-6.426 18.642-28.471 32.447-43.938 43.438l-2.113 1.503C216.46 384 216.46 384 213 384l-.424 2.878c-4.29 29.08-8.885 58.105-13.576 87.122h-2c-1.573-6.622-2.648-13.188-3.5-19.937-.784-6.18-1.707-12.264-2.974-18.364-1.063-5.453-1.838-10.954-2.651-16.449l-.55-3.613-.52-3.496-.47-3.14c-.338-3.027-.394-5.958-.335-9.001l-3.324 1.75-4.364 2.25-2.185 1.156c-6.923 3.54-6.923 3.54-11.127 2.844-2.133-.84-2.133-.84-4.125-1.937-2.331-1.266-4.337-2.217-6.875-3.063v-2l-4-1-.28 2.485c-1.527 12.898-3.556 25.714-5.606 38.538-.62 3.89-1.228 7.783-1.837 11.676-.393 2.473-.788 4.946-1.183 7.418l-.547 3.529-.526 3.24-.452 2.855C139 472 139 472 137 474c-2.047-8.603-3.306-17.277-4.588-26.021l-.51-3.413-.453-3.095c-.328-2.463-.328-2.463-1.449-4.471a132.105 132.105 0 0 1-.438-5.062c-.286-3.464-.666-6.752-1.5-10.125-2.45-10.226-3.204-20.96-3.718-31.434L124 388l-2-1-1.664-1.773c-2.966-2.827-6.21-4.753-9.711-6.852C92.683 367.362 69.836 353.21 60 334v-3c3-2.187 3-2.187 6-4-4.01-4.063-8.137-7.984-12.313-11.875l-2.021-1.887a393.81 393.81 0 0 0-11.889-10.644c-2.83-2.538-5.468-5.263-8.113-7.992-1.588-1.688-1.588-1.688-3.664-2.602v-2h-2a110.92 110.92 0 0 1-4.375-5.25c-2.728-3.449-5.45-6.705-8.625-9.75 1-3 1-3 4.16-4.605a251.609 251.609 0 0 1 3.902-1.582l2.01-.827c1.639-.672 3.283-1.33 4.928-1.986-1.256-3.973-2.729-7.299-4.855-10.883-3.11-5.752-5.675-11.976-7.333-18.304L15 234l-2-1c-.748-1.942-.748-1.942-1.441-4.453l-.778-2.752L10 223c-.485-1.6-.973-3.199-1.465-4.797C3.178 200.365-.965 182.721 0 164c2.801-.777 5.407-1.172 8.309-1.316l2.497-.128 2.631-.118 2.69-.13A339.541 339.541 0 0 1 37 162l.445-3.941C40.46 132.616 45.015 108.055 54 84c17.34 8.574 17.34 8.574 25 13l-.254-2.59-.309-3.347-.316-3.34L78 85l1-1c.294-1.307.54-2.625.762-3.945 4.445-25.05 14.587-46.341 35.61-61.63C135.228 4.702 157.447.924 181.126.796l3.499-.03c3.813-.032 7.627-.057 11.44-.081 2.718-.02 5.437-.043 8.155-.064 8.027-.062 16.055-.116 24.082-.168l9.034-.06c16.614-.11 33.227-.211 49.84-.305 9.834-.055 19.668-.12 29.501-.194Z" fill="#1D221B"/><path d="M456 276c5.088.614 9.86 1.697 14.77 3.18l2.185.646c2.287.679 4.572 1.364 6.858 2.049l4.564 1.355c4.21 1.25 8.417 2.509 12.623 3.77l3.302.99c2.233.669 4.466 1.339 6.698 2.01-2.74 3.254-6.337 4.946-10.047 6.871l-2.089 1.102c-2.202 1.16-4.408 2.313-6.614 3.464-2.191 1.15-4.381 2.302-6.571 3.454-1.36.716-2.722 1.43-4.084 2.14a220.983 220.983 0 0 0-9.444 5.22C465 314 465 314 463 314v2l2.293.238c5.234 1.076 10.044 3.026 15.02 4.95 2.14.816 4.283 1.631 6.425 2.445l3.198 1.216c6.648 2.498 13.357 4.818 20.064 7.151l-.076 2.594-.294 10.137-.206 7.046c-.25 8.544-.47 17.087-.643 25.633-.055 2.572-.11 5.144-.167 7.716-.034 1.64-.065 3.279-.093 4.918-.463 27.045-3.303 54.222-23.724 74.1-10.45 9.049-25.79 16.286-39.797 15.856l-1 2-2.375-.063c-2.606-.124-2.606-.124-4.625 1.063-21.794 2.832-44.076 2.287-66 2.236-4.653-.01-9.306-.007-13.959-.007-7.774 0-15.549-.01-23.323-.023-8.987-.016-17.973-.021-26.96-.02-9.617 0-19.234-.007-28.852-.016-2.76-.002-5.522-.003-8.283-.003-4.315-.001-8.63-.007-12.945-.017-1.585-.003-3.17-.004-4.753-.004-2.155 0-4.31-.005-6.464-.012l-3.657-.005C239 485 239 485 237 484c-1.664-.22-3.335-.391-5.008-.535l-2.988-.264-3.129-.264-3.152-.275c-2.574-.224-5.148-.445-7.723-.662 1-2 1-2 3.125-2.803l2.875-.79 3.31-.918 3.69-.989 1.918-.52c42.823-11.58 86.037-21.168 129.978-27.37 18.912-2.45 18.912-2.45 37.291-7.298l2.243-.77c12.155-4.368 26.768-11.447 32.57-23.542l1.445-1.441c8.268-8.289 12.2-25.28 12.688-36.657L446 377h2l-.07-1.941-.055-2.622-.07-2.566C448 367 448 367 448.948 363.78c1.04-3.734 1.621-7.274 2.087-11.119l.253-2.074c.175-1.445.347-2.89.517-4.334.253-2.154.517-4.305.783-6.457 1.906-15.732 2.57-31.466 2.974-47.295l.131-4.84c.106-3.886.207-7.773.307-11.66Z" fill="#4B5053"/><path d="M440.25 176.25c5.24 8.235 6.907 15.598 6.864 25.304v2.574c0 2.797-.008 5.594-.016 8.392l-.005 5.83c-.003 5.108-.013 10.215-.024 15.323-.01 5.215-.015 10.43-.02 15.645-.01 10.228-.028 20.455-.049 30.682l-3.105.184-4.082.253-2.042.12c-3.673.233-7.177.659-10.771 1.443-4.164.289-8.327.323-12.5.375l-3.418.113-3.3.035-2.999.06c-3.923-.822-5.279-2.495-7.783-5.583-.601-3.335-.601-3.335-.568-7.177l-.002-2.13c.004-2.311.042-4.62.082-6.931.009-1.607.016-3.214.021-4.822.02-4.22.068-8.44.124-12.66.05-4.31.074-8.62.099-12.93.053-8.45.141-16.9.244-25.35l30-4v54h-13v-33l-5 1c-.074 5.357-.129 10.713-.165 16.07a917.549 917.549 0 0 1-.061 5.468 890.068 890.068 0 0 0-.067 7.857c-.015.815-.03 1.631-.047 2.471-.142 4.217-.142 4.217 1.736 7.81 4.215 3.478 9.402 2.737 14.604 2.324 3.39-1.314 4.534-2.033 6.103-5.285.932-2.82 1.162-5 1.188-7.96l.038-3.096.007-3.311.02-3.433c.01-2.393.015-4.786.015-7.18.004-3.656.04-7.311.078-10.967.006-2.328.01-4.655.012-6.983l.043-3.305c-.04-6.736-.635-10.611-5.504-15.48-4.381-.242-8.768-.229-13.155-.24-2.204-.01-4.407-.04-6.61-.072-1.4-.007-2.797-.012-4.196-.016l-3.869-.028c-3.118.091-3.118.091-5.047 1.689-2.527 3.751-2.271 7.589-2.268 11.92l-.01 2.229c-.01 2.432-.012 4.863-.013 7.295l-.01 5.07a5722.58 5722.58 0 0 0-.007 10.63c0 4.541-.014 9.082-.031 13.622-.011 3.491-.013 6.982-.013 10.472 0 1.675-.005 3.349-.013 5.023-.01 2.341-.007 4.682 0 7.023-.007.692-.012 1.383-.018 2.096.024 3.584.184 6.3 2.26 9.287 4.97 3.358 9.383 3.427 15.16 3.406l2.629.033c3.691.046 7.382.057 11.074.072 2.703.016 5.406.049 8.11.083l2.516-.01c4.554.06 7.977.203 11.511 3.416.6 2.34.6 2.34.559 5.078l-.022 3.02-.1 3.152-.017 3.105c-.178 11.031-3.752 18.493-9.045 28.02C428.221 348.31 421.066 362.751 416 379c-4.551 14.542-4.551 14.542-10 18-3.287.788-6.514 1.196-9.871 1.578-4.59.619-6.571 1.383-10.129 4.422-2.003 3.55-3.572 7.185-5 11-2.42-.968-3.76-1.647-5.242-3.828-.855-2.45-.96-4.335-.883-6.922l.055-2.422L375 399l-2.063.5c-2.937.5-2.937.5-6.125.313-5.599.275-11.07 2.086-15.566 5.53-1.61 2.141-1.741 3.691-1.933 6.344l-.2 2.45L349 416c-3.511-1.898-6.19-3.38-8-7-.24-3.017-.174-5.98 0-9l-2.371.035c-1.012.01-2.024.018-3.067.027l-3.058.036C330 400 330 400 329 399c-4.237-.534-7.868-.54-11.75 1.313-3.418 4.082-5.262 8.781-7.25 13.687-3.807-3.562-4.902-5.5-5.25-10.813.096-4.777 1.315-8.134 4.656-11.68 3.312-3.014 6.854-5.318 10.719-7.57 3.91-2.281 6.813-4.56 9.875-7.937 5.126-5.253 10.252-10.425 16-15h2v-2c1.984-1.41 1.984-1.41 4.75-3.063 12.518-7.743 27.47-17.35 34.25-30.937a282.832 282.832 0 0 1 5-5l2-3-23-1a17945.3 17945.3 0 0 1-.207-51.609 7589.07 7589.07 0 0 0-.095-23.964c-.04-6.964-.065-13.928-.074-20.893-.006-3.686-.018-7.371-.047-11.057-.032-4.12-.033-8.24-.031-12.36l-.044-3.681c.04-8.043.967-13.704 6.685-19.749 7.527-4.516 15.242-5.255 23.875-5.5l3.328-.105c26.083-.609 26.083-.609 35.86 9.168Z" fill="#1D221B"/><path d="M363 139h1l-.002 2.303c-.008 14.395-.004 28.79.046 43.185.05 14.622.058 29.243.031 43.866-.014 8.357-.01 16.714.031 25.071.037 7.385.042 14.77.01 22.154-.016 3.882-.017 7.762.02 11.643.036 3.632.028 7.26-.012 10.892-.01 1.95.024 3.899.06 5.848-.12 6.811-.983 10.565-5.598 15.717A247.937 247.937 0 0 1 354 324a307.804 307.804 0 0 0-4.438 5.438c-3.909 4.83-8.017 9.433-12.222 14.007a342.898 342.898 0 0 0-5.902 6.618 515.634 515.634 0 0 1-23.313 25.062l-2.777 2.84c-5.939 5.972-12.065 11.72-19.348 16.035h-3v5l-14-2v-1l-5-1v2l-13 3-2 8h-2c-2.12-3.534-2.532-6.944-3-11-7.416.94-13.558 2.11-20 6-1.203 2.405-1.1 3.95-1.063 6.625l.028 2.477L223 414c-2.375-.875-2.375-.875-5-3-1.901-4.694-2.274-8.755-1.188-13.688 4.913-7.438 12.051-10.833 19.945-14.542 6.06-2.958 10.468-7.102 15.243-11.77a146.924 146.924 0 0 1 3.188-2.563c2.224-1.927 3.983-3.718 5.875-5.937 7.591-8.865 15.96-16.987 25.101-24.238 3.85-3.07 7.587-6.264 11.334-9.458 1.497-1.273 3-2.538 4.502-3.804l2.758-2.324C307 321 307 321 309 321l-.473-2.762c-4.336-28.859-4.336-28.859 1.516-37.949 2.185-2.647 4.432-4.972 6.957-7.289l1-2-7-2c-1.03-3.941-.877-6.836-.063-10.813l.59-2.957L312 253h2l.37-2.668c.596-3.152 1.452-5.706 2.704-8.648l1.265-3.03 1.349-3.216c5.743-14.137 10.345-27.93 12.726-43.024l.37-2.295a421.59 421.59 0 0 0 1.686-11.394c1.286-8.852 3.313-14.039 10.53-19.725a110.34 110.34 0 0 0 3.313-3.75c3.132-3.634 6.331-7.203 9.562-10.75l1.482-1.64A200.54 200.54 0 0 1 363 139Z" fill="#4B5052"/><path d="M396 315h4l9 19c3.334 0 5.578-2.532 8.125-4.5l1.707-1.3c1.393-1.063 2.78-2.13 4.168-3.2 3.67 1.478 5.41 3.476 7.75 6.625l1.86 2.477L434 336l-1.688 3.453c-7.234 14.948-13.803 30.007-18.449 45.969-1.15 3.433-2.58 5.78-4.863 8.578l-1.23 1.59c-2.548 2.03-4.808 2.015-8.02 2.348-7.519 1.052-7.519 1.052-13.75 5.062-2.003 3.55-3.572 7.185-5 11-2.42-.968-3.76-1.647-5.242-3.828-.855-2.45-.96-4.335-.883-6.922l.055-2.422L375 399l-2.063.5c-2.937.5-2.937.5-6.125.313-5.599.275-11.07 2.086-15.566 5.53-1.61 2.141-1.741 3.691-1.933 6.344l-.2 2.45L349 416c-3.511-1.898-6.19-3.38-8-7-.24-3.017-.174-5.98 0-9l-2.371.035-3.067.027-3.058.036C330 400 330 400 329 399c-4.237-.534-7.868-.54-11.75 1.313-3.418 4.082-5.262 8.781-7.25 13.687-3.807-3.562-4.902-5.5-5.25-10.813.096-4.777 1.315-8.134 4.656-11.68 3.312-3.014 6.854-5.318 10.719-7.57 3.91-2.281 6.813-4.56 9.875-7.937 5.126-5.253 10.252-10.425 16-15h2v-2c1.984-1.41 1.984-1.41 4.75-3.063 12.5-7.732 27.499-17.35 34.25-30.937a282.478 282.478 0 0 1 5-5l2.063-2.813L396 315Z" fill="#4B5053"/><path d="M305 28c3.487 1.484 5.642 3.462 8.25 6.188 3.483 3.568 7.069 6.888 10.852 10.132 2.455 2.173 4.729 4.498 7.024 6.837 1.807 1.777 3.668 3.438 5.589 5.09 4.218 3.667 8.292 7.47 12.348 11.316l4.488 4.238 2.256 2.131c3.305 3.116 6.623 6.218 9.943 9.318l1.833 1.719a449.379 449.379 0 0 0 9.241 8.43l1.843 1.647a277.948 277.948 0 0 0 3.475 3.049c1.542 1.382 1.542 1.382 3.858 3.905 0 4 0 4-1.266 5.704l-1.77 1.687-1.94 1.886-2.087 1.973a2215.389 2215.389 0 0 0-4.19 4.078l-1.917 1.84c-1.873 1.875-3.604 3.822-5.33 5.832a131.708 131.708 0 0 1-7.105 7.637l-2.024 2.013c-1.345 1.331-2.692 2.66-4.043 3.985-2.729 2.692-5.282 5.306-7.66 8.322L345 149h-2c-1.172-2.343-1.312-4.129-1.573-6.738l-.303-2.984-.315-3.235-.332-3.319c-.232-2.32-.461-4.641-.689-6.963-.348-3.549-.703-7.097-1.06-10.646l-.67-6.76-.321-3.217-.294-3.012-.26-2.64C337 96.981 336.968 94.511 337 92c2.971 1.37 5.367 2.963 7.89 5.04l2.15 1.757 2.21 1.828 2.258 1.852c1.833 1.504 3.664 3.012 5.492 4.523-3.059 3.956-6.11 6.906-10 10l2 5a156.102 156.102 0 0 0 6-4l1.957-1.355c3.305-2.51 4.835-3.983 6.106-8.02-1.715-5.848-6.255-8.185-11.063-11.625a629.357 629.357 0 0 1-5.5-4.438c-3.09-2.532-3.09-2.532-6.5-4.562v-2l-1.688-.813C335.815 83.904 333.41 82.445 331 81l-1 78h-23c-.829-19.234-1.243-38.44-1.473-57.688-.083-6.848-.175-13.695-.27-20.542l-.03-2.238c-.187-13.506-.5-27.006-1.01-40.504l-.131-3.7-.124-3.097C304 29 304 29 305 28Z" fill="#1E221B"/><path d="M431 69c.339 11.286-.586 22.356-1.654 33.58-.286 3.007-.562 6.015-.836 9.024l-.537 5.775-.25 2.705c-.386 4.028-.81 7.966-1.723 11.916l1.757-.048c2.643-.062 5.287-.101 7.93-.14l2.764-.076c8.722-.095 8.722-.095 12.549 3.264 1.765 2.927 2.28 5.218 2.414 8.613l.117 2.752.094 2.947.115 3.04c.373 10.88.359 21.763.26 32.648-2.194-2.194-3.197-4.16-4.563-6.938l-1.316-2.652C447 173 447 173 446 170h-2l-1.625-1.75c-7.674-7.27-16.176-6.848-26.125-6.875a802.485 802.485 0 0 1-6.349-.072c-1.91-.028-3.819-.038-5.728-.048-3.02-.243-4.708-.541-7.173-2.255-2.261-4.8-2.413-9.664-2.625-14.875l-.117-2.375A892.258 892.258 0 0 1 394 136c-2.944-1.671-5.174-2.277-8.547-2.414l-2.558-.117-2.645-.094-2.691-.117c-2.186-.094-4.372-.18-6.559-.258 1.469-3.057 3.03-5.355 5.313-7.875 2.153-2.403 4.275-4.81 6.312-7.313 2.331-2.76 4.785-5.294 7.375-7.812 1.71-1.71 1.293-3.85 1.375-6.188l.148-2.855c-.735-4.154-2.657-5.906-5.523-8.957l1.794-.927c11.785-6.098 23.524-12.252 35.084-18.77l2.36-1.319 2.064-1.165C429 69 429 69 431 69Z" fill="#4B5053"/><path d="M98 221c-2.633 11.382-9.145 16.081-18.803 22.129-10.12 6.136-20.787 11.1-31.572 15.934l-1.956.877C33.964 265.172 33.964 265.172 30 266l-2.313-3.688-1.3-2.074L25 258l-1.508-2.402a77.285 77.285 0 0 1-7.68-18.786L15 234l-2-1c-.91-3.285-1.405-6.645-2-10 13.976-.797 27.94-1.246 41.937-1.503 3.258-.06 6.515-.125 9.772-.19 11.765-.23 23.524-.37 35.291-.307Z" fill="#721C25"/><path d="M234 221c17.22-.088 34.43.172 51.646.464l10.985.18c7.123.117 14.246.236 21.369.356-.546 6.009-1.49 11.508-3.215 17.281l-.654 2.241c-.452 1.544-.909 3.087-1.369 4.628a971.227 971.227 0 0 0-2.08 7.116l-1.334 4.515-.622 2.153c-.516 1.708-1.114 3.39-1.726 5.066-2 1-2 1-4.312.247l-2.903-1.24-3.241-1.373-3.481-1.509-3.554-1.527C240.657 238.476 240.657 238.476 234 223v-2Z" fill="#721C24"/><path d="M92 169c10.221.408 20.341 1.293 30.5 2.5l3.383.396 3.148.385 2.83.346C134 173 134 173 135 174c.326 1.404.599 2.821.848 4.241l.485 2.732.515 2.976.533 3.047c.373 2.134.744 4.268 1.112 6.403.564 3.258 1.138 6.515 1.712 9.77l1.08 6.218.52 2.945c.79 4.612 1.41 8.968 1.195 13.668l-2.025-.687a1441.168 1441.168 0 0 0-9.412-3.125l-3.433-1.133c-7.303-2.343-14.415-4.19-22.089-4.691-1.908-.208-1.908-.208-5.041-1.364-2.353-5.262-3.655-10.417-4.605-16.078l-.391-2.224a986.971 986.971 0 0 1-.794-4.608c-.4-2.35-.81-4.696-1.224-7.043l-.779-4.5-.37-2.115c-.543-3.22-.837-6.15-.837-9.432ZM244 169c-2.444 15.046-5.07 30.04-8 45l-1.734.364c-11.823 2.509-23.307 5.383-34.711 9.402-2.538.88-4.955 1.616-7.555 2.234.721-6.257 1.732-12.428 2.848-18.625l.533-2.992c.559-3.128 1.12-6.256 1.681-9.383.382-2.131.762-4.263 1.143-6.395.93-5.202 1.861-10.404 2.795-15.605 5.32-.573 10.64-1.143 15.96-1.709 1.81-.193 3.619-.387 5.427-.582 2.604-.28 5.208-.558 7.812-.834l2.44-.265c3.807-.401 7.527-.718 11.361-.61ZM86 113c5.675-.227 10.666.613 16.188 1.875 6.532 1.441 13.041 2.737 19.66 3.73C124 119 124 119 126 120a122.114 122.114 0 0 1 1.508 8.305l.395 2.53c.274 1.77.545 3.54.811 5.311.408 2.712.828 5.422 1.25 8.131.266 1.718.53 3.435.794 5.153l.379 2.462c.46 3.065.863 6.004.863 9.108a641.596 641.596 0 0 1-42-3c-3.051-14.879-4.408-29.825-4-45ZM250 112c-.506 15.445-2.078 30.67-4 46-4.213.434-8.426.861-12.64 1.282a1549 1549 0 0 0-4.286.436c-8.372.864-16.645 1.524-25.074 1.282.624-8.992 2.037-17.814 3.563-26.688l.708-4.185c.572-3.376 1.15-6.752 1.729-10.127 4.53-1.632 9.039-2.676 13.77-3.508l2.186-.395c2.285-.411 4.57-.817 6.857-1.222l4.662-.84C248.804 112 248.804 112 250 112Z" fill="#E7E575"/><path d="M105 235c8.594-.52 16.508.213 24.938 1.813l2.688.5c2.494.5 4.926.994 7.374 1.687l3.66.971C147 242 147 242 147.88 243.92c.613 2.566 1.003 5.093 1.336 7.71l.44 2.865c.458 3.02.87 6.043 1.282 9.069.303 2.04.608 4.082.917 6.123C154 284.08 154 284.08 154 287a96.111 96.111 0 0 1-9.695-2.34l-2.655-.779c-1.873-.552-3.745-1.106-5.616-1.66-5.683-1.652-11.133-2.925-17.073-3.213-2.89-1.486-3.33-3.798-4.295-6.761L114 270l-.635-2.024a323.782 323.782 0 0 1-1.802-6.101l-.64-2.21c-.432-1.493-.862-2.986-1.291-4.48a787.28 787.28 0 0 0-1.843-6.26l-1.102-3.738-.988-3.332C105 239 105 239 105 235Z" fill="#E6E475"/><path d="M231 235c-2.563 12.62-5.923 24.787-10 37l-1.18 3.547L219 278l-1.706.288c-10.618 1.823-20.72 3.8-30.774 7.759C184 287 184 287 182 287a427.814 427.814 0 0 1 4-29.188l.503-2.967c.462-2.624.966-5.234 1.497-7.845l.703-3.535C190 241 190 241 192.984 239.609l3.766-.859 2.025-.472c10.719-2.408 21.233-3.64 32.225-3.278Z" fill="#E7E575"/><path d="M363 139h1c.064 9.6.06 19.198.01 28.799-.01 2.156-.011 4.312-.011 6.469a833.193 833.193 0 0 1-.124 12.107l.008 3.737c-.178 8.035-1.699 12.754-6.883 18.888l-1.335 1.72c-1.148 1.474-2.343 2.91-3.54 4.343l-2.367 2.847L348 220c-4.566-1.569-6.826-5.237-9.625-8.938l-1.484-1.92c-5.918-7.687-5.918-7.687-5.694-11.477a199.6 199.6 0 0 1 .639-4.114l.355-2.217c.254-1.55.515-3.1.782-4.647.397-2.344.746-4.693 1.093-7.044C335.538 170.562 337.512 164.8 345 159a107.615 107.615 0 0 0 3.313-3.75c3.132-3.634 6.331-7.203 9.562-10.75l1.482-1.64A200.54 200.54 0 0 1 363 139Z" fill="#1D221B"/><path d="M213 293c-.647 5.535-2.487 10.35-4.5 15.5l-1.07 2.766A1659.16 1659.16 0 0 1 204 320l-1.145 2.902C198.369 334.215 193.619 345.2 188 356a1522.875 1522.875 0 0 0-3.082 6.206c-3.147 6.357-6.368 12.65-9.918 18.794h-1c-.527-27.935 2.433-55.348 6-83 4.307-1.804 8.536-2.827 13.125-3.625l2.265-.4c5.9-.981 11.63-1.324 17.61-.975Z" fill="#E6E475"/><path d="M122 293c6.777-.178 13.192.261 19.875 1.375l2.508.383c7.523 1.213 7.523 1.213 10.617 3.242.775 1.725.775 1.725 1.156 3.844l.446 2.453A363.489 363.489 0 0 1 158.5 319.5l.384 3.635c.985 9.735 1.705 19.475 2.304 29.24l.129 2.063c.568 9.204.788 18.343.683 27.562-4.943-5.82-8.058-12.526-11.438-19.313l-1.06-2.121C138.638 338.76 129.643 316.126 122 293Z" fill="#E7E575"/><path d="M456 225c3.6.72 6.27 1.387 9.575 2.734l2.649 1.072 2.819 1.159 2.924 1.192c2.034.83 4.067 1.664 6.1 2.499 3.117 1.28 6.239 2.55 9.36 3.819 1.977.808 3.953 1.617 5.928 2.427l2.838 1.153 2.62 1.081 2.31.947C505 244 505 244 507 246l-2.76 1.418a27679.128 27679.128 0 0 0-14.963 7.695c-9.305 4.788-18.604 9.586-27.818 14.549C457.1 272 457.1 272 456 272v-47Z" fill="#4B5053"/><path d="m301 131 .244 1.877c.373 2.854.752 5.707 1.131 8.56l.383 2.952c.797 5.96 1.85 11.76 3.242 17.611-12.166 5.659-29.838 3.122-43 3.063-1.95-.006-3.901-.01-5.852-.014-4.716-.011-9.432-.028-14.148-.049 12.627-12.923 38.892-34 58-34Z" fill="#701C24"/><path d="m211 385 2 1-14 88h-2c-1.573-6.622-2.648-13.188-3.5-19.938-.784-6.18-1.707-12.266-2.974-18.367-1.06-5.432-1.839-10.91-2.651-16.382l-.55-3.588c-.84-5.627-1.575-11.034-1.325-16.725 3.791-2.147 7.583-4.292 11.375-6.438l3.273-1.853 3.125-1.768 2.889-1.634A106.86 106.86 0 0 1 211 385Z" fill="#E7E575"/><path d="M123 385c3.597 1.366 6.93 2.967 10.3 4.82l2.96 1.621 3.053 1.684 3.11 1.707c2.528 1.387 5.053 2.777 7.577 4.168-.64 8.598-1.85 17.056-3.215 25.566l-.654 4.109c-.454 2.845-.91 5.69-1.369 8.534-.588 3.647-1.164 7.296-1.738 10.945-.445 2.818-.897 5.634-1.351 8.45-.216 1.345-.43 2.692-.64 4.039a896.932 896.932 0 0 1-.904 5.613l-.516 3.224C139 472 139 472 137 474c-2.047-8.603-3.306-17.277-4.588-26.021l-.51-3.413-.453-3.095c-.328-2.463-.328-2.463-1.449-4.471a132.105 132.105 0 0 1-.438-5.063c-.286-3.463-.666-6.75-1.5-10.125-2.45-10.225-3.204-20.96-3.718-31.433L124 388l-2-1 1-2Z" fill="#E6E575"/><path d="M112 286c-8.18 17.406-26.534 31.044-43 40-2.563.688-2.563.688-5 0-1.443-1.577-2.87-3.172-4.188-4.855-2.864-3.39-6.215-6.205-9.542-9.13-3.902-3.465-3.902-3.465-5.27-5.015v-2l3.05-.747c3.82-.936 7.636-1.879 11.452-2.824 1.636-.404 3.273-.806 4.91-1.207 14.686-3.594 29.069-7.642 43.111-13.304C110 286 110 286 112 286Z" fill="#711C24"/><path d="M220 288c4.476 1.323 8.945 2.656 13.383 4.102C250.915 297.775 268.787 302.179 287 305c-1.36 3.079-2.867 5.07-5.336 7.348l-1.976 1.834-2.063 1.88-2.04 1.893c-6.432 5.933-6.432 5.933-9.585 8.045-12.621-.667-27.324-16.083-36.063-24.688l-1.624-1.582c-3.56-3.602-5.96-7.245-8.313-11.73Z" fill="#711C25"/><path d="M42 130c5.545 2.976 10.34 6.453 15.25 10.375 7.479 5.909 15.086 11.61 22.82 17.181l2.309 1.678 2.049 1.476C86 162 86 162 87 164c-5.247.025-10.494.043-15.741.055-1.782.005-3.563.012-5.345.02-2.574.013-5.148.018-7.723.023l-2.378.015C42.23 164.115 42.23 164.115 38 162c-.513-10.431.68-22.041 4-32Z" fill="#721C24"/><path d="M215 68c6.44 5.281 12.315 11.095 18.21 16.969 1.74 1.732 3.493 3.453 5.245 5.174a3882.46 3882.46 0 0 1 3.322 3.306l1.59 1.553C247 98.657 247 98.657 247 102c-11.912 4.6-22.278 5.622-35 5-.242-8.664.51-17.086 1.5-25.688l.434-3.896c.35-3.14.705-6.278 1.066-9.416Z" fill="#E3E173"/><path d="m121 68 .402 5.012.259 3.22.551 6.914c.57 7.189.57 7.189 1.179 14.374l.296 3.48.262 2.938L124 106c-2.315 2.315-8.203 1.367-11.416 1.4-8.702-.116-16.442-2.514-24.584-5.4 1.312-2.898 2.716-4.966 4.965-7.208.597-.6 1.195-1.2 1.81-1.82l1.948-1.925 2.002-2c1.394-1.392 2.79-2.78 4.188-4.166a2094.88 2094.88 0 0 0 6.433-6.412c1.354-1.35 2.709-2.699 4.064-4.047l1.954-1.95C119.884 68 119.884 68 121 68Z" fill="#E5E375"/><path d="M509 340c.029 4.458.047 8.917.063 13.375l.025 3.852.01 3.671.016 3.396C509 367 509 367 508 369c-4.732-.635-9.034-1.93-13.5-3.563l-2.166-.777c-2.447-.881-4.89-1.77-7.334-2.66l-6.004-2.176A7575.424 7575.424 0 0 1 463 354v-2l2.548-.67c3.185-.841 6.37-1.684 9.555-2.528 1.366-.362 2.732-.723 4.099-1.082 8.14-2.144 16.205-4.402 24.217-6.994C506 340 506 340 509 340Z" fill="#1D221C"/><path d="M508 385c.058 3.458.094 6.916.125 10.375l.05 2.984.02 2.852.032 2.634C508 406 508 406 506 408c-5.89-1.812-11.78-3.627-17.67-5.444-2.002-.618-4.005-1.235-6.008-1.85-2.883-.888-5.765-1.777-8.646-2.667l-2.706-.83c-4.061-1.257-8.056-2.536-11.97-4.209v-1c6.335-1.001 12.67-1.998 19.006-2.99 2.156-.34 4.311-.679 6.466-1.02 3.098-.489 6.196-.974 9.294-1.459l2.92-.464 2.729-.424c.79-.125 1.581-.25 2.396-.377C504 385 504 385 508 385ZM454 419c16.7 2.836 33.375 5.748 50 9-.524 4.463-1.306 8.301-3.063 12.438l-1.097 2.62L499 445c-3.804-.687-6.725-2.402-10.059-4.316l-1.772-1.015c-1.241-.711-2.481-1.425-3.72-2.14a1390.412 1390.412 0 0 0-5.549-3.187 807.536 807.536 0 0 1-18.31-10.807l-3.258-1.984L454 420v-1ZM390 383c6.655 2.529 12.124 5.756 16 12v2l-2.598.297c-9.434 1.08-9.434 1.08-17.402 5.703-2.003 3.55-3.572 7.185-5 11-2.421-.969-3.756-1.632-5.215-3.832-1.487-4.107-1.596-7.886-.785-12.168 3.434-6.524 8.944-10.989 15-15ZM357 385c4.487 1.036 6.438 3.29 9 7 1.609 2.735 2 3.759 2 7l-2.195.516c-8 1.983-8 1.983-14.805 6.484-1.396 2.938-1.396 2.938-2 6l-.625 2.375L348 416c-5.875-4.75-5.875-4.75-7-7-.095-1.498-.13-3-.125-4.5l-.008-2.406C341 400 341 400 342 398h2l.754-1.773c1.42-2.539 2.968-3.979 5.183-5.852l2.09-1.79C354 387 354 387 357 385ZM324.188 382.875c3.054 1.896 4.21 3.92 5.812 7.125.316 3.034.243 5.963 0 9l-2.012-.14c-4.028-.165-7.108-.27-10.8 1.452-3.345 4.109-5.21 8.804-7.188 13.688-3.807-3.562-4.902-5.5-5.25-10.813.097-4.826 1.339-8.212 4.762-11.75 9.176-8.248 9.176-8.248 14.675-8.562Z" fill="#1E231C"/><path d="M240 382v15l-9.766 2.734c-3.396 1.33-5.076 2.346-7.234 5.266-.48 2.355-.48 2.355-.25 4.75l.11 2.422L223 414c-2.375-.875-2.375-.875-5-3-1.901-4.694-2.274-8.755-1.188-13.688C221.113 390.803 231.694 382 240 382Z" fill="#1F231C"/><path d="M258.078 384.102c2.486 1.161 3.02 2.247 4.172 4.71l1.016 2.083C264 393 264 393 264 397l-13 3-2 8h-2c-2.483-3.725-2.662-7.679-2-12 2.225-4.45 7.425-12.175 13.078-11.898Z" fill="#1E231C"/><path d="M332 228h20c-.93 4.648-2.412 8.178-4.563 12.313l-.998 1.955A941.003 941.003 0 0 1 344 247c-3.442-3.148-5.86-6.658-8.25-10.625l-1.102-1.773C332 230.26 332 230.26 332 228Z" fill="#1F241E"/><path d="M288 351c2.2 1.467 4.4 2.934 6.598 4.406 1.435.953 2.878 1.894 4.336 2.813 1.387.878 2.732 1.823 4.066 2.781v2l-20 9c2.25-11.25 2.25-11.25 3.625-16.125.26-.93.52-1.861.79-2.82L288 351ZM352 287c-.684 4.176-2.014 7.88-3.563 11.813l-1.378 3.519c-.35.88-.7 1.76-1.059 2.668-4.044-1.348-5.664-4.085-8.125-7.375l-1.379-1.79c-1.967-2.59-3.46-4.728-4.496-7.835 2.396-.169 4.792-.335 7.188-.5l2.04-.145c3.598-.245 7.166-.411 10.772-.355Z" fill="#1F241D"/><path d="M326 310c4.945 2.627 8.878 6.266 13 10-3.312 3.713-6.948 5.889-11.25 8.25l-1.969 1.102c-1.59.888-3.185 1.769-4.781 2.648a187.734 187.734 0 0 1 5-22ZM396 344c6.875.522 13.307 1.354 20 3-3.876 4.798-7.925 9.43-13 13h-2l-5-16Z" fill="#1E231C"/><path d="M309 333c4.11 3.36 7.946 6.603 11 11v2l-16 5c1.146-6.345 2.569-12.032 5-18Z" fill="#1E231D"/><path d="M394 38a148.93 148.93 0 0 1 18 7c-2.86 2.86-6.392 3.777-10.125 5.125l-2.285.84c-1.862.683-3.726 1.36-5.59 2.035V38Z" fill="#E3E174"/><path d="M335 259h15c-1.163 5.4-2.423 10.706-4 16h-2a123.08 123.08 0 0 1-4.625-6.875l-1.273-1.973C335 261.268 335 261.268 335 259Z" fill="#1E231C"/><path d="M430 40c2.627.616 5.252 1.243 7.875 1.875l2.262.527c5.636 1.371 5.636 1.371 7.863 3.598-2.623 1.338-5.248 2.67-7.875 4l-2.262 1.156-2.168 1.094-2 1.016C432 54 432 54 430 54V40Z" fill="#E7E575"/><path d="M358 38c3.838.768 6.762 1.595 10.313 3.063l2.675 1.097L373 43c-3.928 4.174-8.165 7.894-13 11h-2V38Z" fill="#DDDB71"/><path d="M391 365c5.114 1.068 10.072 2.231 15 4-1.503 3.668-3.637 5.69-6.625 8.25l-2.477 2.14L395 381c-2.67-5.126-4.354-10.163-4-16Z" fill="#1E231D"/><path d="M313 49c9.107 5.893 9.107 5.893 13 10-1.978 1.17-3.957 2.335-5.938 3.5l-3.34 1.969C314 66 314 66 313 66V49Z" fill="#E1DF72"/><path d="M278 386h2c2.007 4.934 3 7.555 3 13l-14-2 2.813-3.25c1.743-2.023 3.378-4.016 4.937-6.188L278 386Z" fill="#1F241D"/><path d="m313 85 11 5c-3.152 4.413-6.555 7.008-11 10V85Z" fill="#E3E173"/><path d="M146 357h3c.672 1.29 1.337 2.581 2 3.875l1.125 2.18C153 365 153 365 153 367l-7 1c-1.563-1.688-1.563-1.688-3-4 .24-3.37.588-4.588 3-7Z" fill="#701E1D"/><path d="M313 125c4.053 1.225 7.444 2.699 11 5-1.662 1.339-3.33 2.671-5 4l-2.188 1.75C315 137 315 137 313 137v-12Z" fill="#E3E173"/><path d="M140 340c2.285 2.285 2.971 4.125 4.125 7.125l1.07 2.758L146 352a617.075 617.075 0 0 1-3.875 3l-2.18 1.688C138 358 138 358 136 358l4-18Z" fill="#6C1D1D"/><path d="m187 356 5 3c.563 3 .563 3 0 6-1.625 1.938-1.625 1.938-4 3-3.25-.313-3.25-.313-6-1l5-11Z" fill="#711D1C"/><path d="M194 342c1.878 2.817 2.651 4.795 3.563 8 .771 2.688 1.552 5.346 2.437 8-3.579-1.652-6.748-3.783-10-6 .476-1.48.956-2.96 1.438-4.438l.808-2.496C193 343 193 343 194 342Z" fill="#701E1D"/></svg>