<svg width="360" height="355" fill="none" xmlns="http://www.w3.org/2000/svg"><g clip-path="url(#a)"><path d="M358.896 340.983c.368 2.099-.846 4.457.92 6.372 0 1.216-.184 2.468 0 3.647.588 3.131-.552 4.346-3.679 3.646.037-.626.11-1.215.147-1.841 1.508-2.542.441-5.341.809-7.994.184-1.436-.846-3.536 1.803-3.83Z" fill="#fff"/><path d="M63.207 141.631h1.84c.772.847.772 1.952.956 2.984.405 2.026 1.362 2.725 3.532 2.136 7.69-2.063 15.636-1.621 23.4-1.584 7.358.037 14.826.663 22.184.405 7.542-.294 13.981 3.647 21.155 4.605 1.877.258 3.238 1.952 3.164 3.978-.11 3.057 1.067 5.746 1.95 8.546-5.85 3.02-12.362 1.584-18.469 2.873-1.472-.184-3.017.479-4.415-.405-1.067-4.2 4.157-3.831 4.746-6.078-5.04-6.409-11.847-5.489-18.469-5.415-5.887.074-11.773-.147-17.696.516 4.856 1.031 9.529 2.836 14.422 3.61 2.98.442 5.702 0 8.204-1.805 1.361-.995 2.87-1.732 4.599-1.805 1.95-.111 3.679.184 4.231 2.468.478 2.026-.074 3.978-2.024 4.494-2.575.699-3.605 2.357-4.341 4.567-3.9 1.363-7.947 1.731-12.031 1.768-1.729-.11-3.458-.11-5.15.479-1.987.368-4.01.368-5.96 1.031-10.523.921-21.008 2.689-31.567 3.058-1.582-.148-3.201 0-4.71-.7a2.661 2.661 0 0 1-1.103-1.105c-1.03-3.242-.442-6.557-.515-9.835.22-2.652 1.545-4.862 2.76-7.146a95.337 95.337 0 0 0 6.805-9.835c.59-.921 1.656-1.252 2.539-1.768l-.037-.037Z" fill="#98999F"/><path d="M141.461 162.369c-4.967-.516-3.348-4.752-3.127-7.072.368-3.978-1.95-4.494-4.452-4.605-3.127-.147-5.887-1.068-8.683-2.283-2.207-.995-4.525-1.437-7.027-1.511-8.609-.221-17.181-.073-25.79-.552-6.512-.332-13.208.516-19.867.626-.442 0-.92.111-1.325.258-1.729.626-3.311 3.352-5.114 1.657-1.913-1.768-1.435-4.714-.993-7.256 2.722-.405 5.445-.81 8.204-1.216 5.077-.626 10.155-.11 15.232-.294h18.395c3.054.147 6.108-.332 9.124.294h2.76c2.428-.442 4.856-.478 7.284 0l-.073.295c11.221.553 22.442.553 33.664 0 3.679.184 7.468-1.068 11.037.737-3.937 1.252-4.415 3.941-3.422 7.588.552 2.099 1.729 4.162 1.104 6.483-1.177 3.131-3.642 4.788-6.659 5.525-6.144 1.473-12.399 1.842-18.69 2.1-.625 0-1.141-.332-1.545-.811l-.037.037Z" fill="#97999F"/><path d="M55.003 153.345c-.883 2.136-1.803 4.236-2.686 6.372-.736 3.647-.81 7.293 0 10.903 1.508.774 3.017.737 4.562.074 8.536-.332 17.034-1.437 25.496-2.579 2.392-.331 4.82-.147 7.248-.221 4.599-.589 5.408-.147 5.04 3.942-.22 2.578 1.95 5.709-1.398 7.772-6.364.11-12.73.184-19.13.295-8.794-.737-17.55.368-26.343.626a10.162 10.162 0 0 0-5.556 0c-2.502.405-4.893.11-7.21-.921-1.068-3.61-2.797-6.704-5.998-8.914-1.03-.7-1.692-2.1-1.508-3.573.589-.958 1.619-1.289 2.612-1.621 3.054-1.031 4.746-2.984 4.489-6.336-.11-1.289.478-2.283 1.324-3.204 3.09-3.463 7.211-5.599 10.927-8.214 2.649 1.952 6.696 1.841 8.168 5.562l-.037.037ZM43.082 77.759c.699 5.23-.22 10.35-.92 15.47-2.833 1.732-4.856 4.09-4.82 7.589.037 4.346-1.471 7.219-6.18 7.735-1.325.147-2.134 1.621-3.422 2.063a5.686 5.686 0 0 0-.773-.148c-1.508-.478-3.016-.92-3.715-2.541a98.418 98.418 0 0 1-1.95-1.989c-1.398-2.91-1.582-5.968-.92-9.099.441-2.1-.405-4.346.956-6.298-.294-2.284-.92-4.531-.81-6.888a7.28 7.28 0 0 1 .737-1.4c.073-2.063 1.067-3.757 2.134-5.452 6.622-.442 13.244-1.731 19.72.884l-.037.074Z" fill="#C2BDBF"/><path d="M27.704 110.653c.331-2.468 1.766-3.831 4.231-3.721 3.274.148 4.268-1.51 4.01-4.42-.147-1.657.515-3.241.736-4.825.478-3.39 2.281-4.678 5.482-4.42-1.582 7.219 2.76 10.792 8.388 13.555 1.84 4.383 2.539 8.693-.956 12.671-7.58 3.463-12.472-2.21-18.101-5.341-.552-1.915-3.165-1.621-3.79-3.499Z" fill="#C2BBBF"/><path d="M40.47 191.469h3.643c4.083-.332 7.689 1.51 9.529 4.604 1.839 3.058 1.324 6.999-1.215 10.167-1.618 3.278-4.635 2.689-7.468 2.726-1.803 0-3.606.073-5.409.147-4.34 1.179-5.96.368-7.431-3.757-.368-.921-.405-1.842 0-2.726-.479-2.137-.515-4.273 0-6.409v-.884c2.502-1.805 5.114-3.426 8.315-3.794l.036-.074Z" fill="#C66560"/><path d="M21.523 194.342c-.368 1.105-2.465.884-2.024 2.578-1.471 1.695-3.348 2.874-5.04 4.273-1.435 1.179-2.944 1.474-3.974-.626-2.244-3.794-6.77-5.267-9.013-9.061-1.14-.59-2.171-1.216-.92-2.652.92-.295.736-1.142.883-1.842.073-.405.294-.737.662-.958 1.84-1.879 3.054-4.42 5.629-5.599 10.301-2.284 12.62 1.032 13.613 9.798.147 1.326.11 2.689.184 4.015v.074Z" fill="#C76561"/><path d="M28.66 45.712c4.783-.073 9.05-.184 11.7 5.526 1.655 3.573 3.053 6.372.993 9.982-.81 1.731-1.325 3.72-3.753 3.904-2.539.332-5.114-.147-7.616.553-1.987.368-3.679-.037-4.93-1.731-.33-.59-.552-1.253-.92-1.805-.662-1.179-1.324-2.358-1.986-3.5-1.251-5.01.956-8.95 3.863-12.708.883-.073 1.766-.11 2.649-.184v-.037Z" fill="#C66462"/><path d="M20.566 152.497c-.368 1.547-.552 3.205-1.14 4.678-1.987 4.715-3.201 5.157-8.058 3.021-2.612-1.142-5.923-1.031-7.432-4.126-.404-.957-.33-1.915-.11-2.873.331-1.326.478-2.762 2.024-3.352 4.525-1.657 9.418-1.62 14.054-2.762.33-.074.662.552.883.957.11 1.511.368 3.021-.221 4.457Z" fill="#C76462"/><path d="M43.082 77.759c-6.549-.516-13.208 1.068-19.72-.884.589-2.1 1.14-4.2 1.73-6.299 6.033-2.468 12.067-2.468 18.1 0l-.11 7.183Z" fill="#C5BCBC"/><path d="M27.74 167.01c1.436 2.321 2.944 4.384 5.556 5.636 3.017 1.474 1.288 4.568 1.73 6.962-3.054-1.179-6.145-2.21-9.125-3.536-2.318-1.032-3.458-3.131-3.569-5.636-.147-3.094.405-6.078 1.95-8.84 2.613.884 1.95 3.867 3.495 5.414h-.036Z" fill="#C0BDBD"/><path d="M20.345 147.893c-4.488 1.657-9.308 1.842-13.944 2.799-1.545.295-1.177 1.989-2.134 2.689-1.14-.663-.184-2.062-1.03-2.836.221-5.599 5.924-8.804 12.914-6.962 1.545.405 3.642.442 4.452 2.468.368.7.441 1.363-.258 1.879v-.037Z" fill="#C56660"/><path d="M55.003 153.345c-1.766-1.142-3.385-2.432-5.52-2.91-1.287-.295-2.575-.958-2.648-2.653 3.054-2.91 6.365-5.341 10.853-5.414 1.435-.295 3.054-1.437 3.79.957-1.398 3.831-3.827 6.999-6.475 10.02Z" fill="#C5BCBD"/><path d="M27.74 167.01c-3.826-.11-1.913-3.904-3.495-5.414.515-2.21 2.502-3.316 4.12-3.389 2.76-.184 4.968-1.584 7.506-2.21-.11.736-.368 1.473-.331 2.21.037 6.52-.993 7.698-7.8 8.803Z" fill="#C4BCBC"/><path d="M61.478 143.325c-.993-1.326-2.502-.736-3.79-.957 1.656-1.547 3.68-.7 5.52-.737-.59.553-1.141 1.142-1.73 1.694Z" fill="#A6A0A0"/><path d="M302.459 324.407c-6.77 3.978-13.539 7.956-20.346 11.898-4.267 2.467-8.094 5.819-13.208 6.593-1.067.442-2.133.442-3.2-.037-3.974-2.615-8.094-3.683-12.914-2.247-3.973 1.179-8.094-.147-12.178-.147-31.971.037-63.943-.037-95.914.074-12.251.036-24.466-.627-36.717.478-.81-3.352-.516-6.814-.699-10.24-.074-1.326.11-3.131 2.023-3.646 2.502 5.046 6.843 5.414 11.81 5.23a601.773 601.773 0 0 1 45.4.184c17.586.737 35.135-1.51 52.648.074 9.087.81 18.101-1.252 27.189.516 4.893.957 9.602 2.762 14.642 3.204 3.753.332 6.218-.184 6.696-4.53.515-4.715 4.673-6.041 8.021-5.931 8.646.295 16.556-3.536 25.018-3.683 1.251.184 1.913.847 1.766 2.173l-.037.037Z" fill="#C3BEBF"/><path d="M107.798 340.062c6.586-1.511 13.282-.921 19.978-.921h107.576c4.636 0 9.309-.074 13.907.442 1.803.184 3.165-.074 4.71-.663 4.488-1.731 9.492-.148 12.141 3.757-1.693 1.326-3.827-.074-5.556.921h-5.371c-1.729-1.253-3.753-.59-5.666-.774H114.825c-2.833-.11-5.702.258-8.499-.294-.883-.516-1.729-1.216-1.103-2.284.625-1.068 1.655-.774 2.575-.147v-.037Z" fill="#C2BEBF"/><path d="M330.714 301.017c-1.913 3.131-3.311 6.63-6.291 9.061-.957.737-1.987 1.694-3.128 1.731-7.873.332-15.157 4.052-23.031 4.199-1.067 0-1.913-.478-2.538-1.326-.957-4.899 2.685-5.267 5.923-5.82 3.385-.552 6.733-.92 6.733-5.488.736-1.915 2.465-2.726 4.157-3.168 5.372-1.436 9.713-5.672 15.636-5.488 2.76 1.326 3.606 3.425 2.465 6.299h.074Z" fill="#9998A0"/><path d="M297.933 315.529c6.917-1.547 13.65-3.978 20.787-4.641 1.913-.184 3.826-.552 5.74-.847.441 1.731-1.546 1.547-1.987 2.578-.111.479-.405.774-.92.885-5.96 2.615-10.633 7.661-17.145 9.245-1.986.626-2.428-1.179-3.458-2.136-.956-1.732-3.458-2.579-3.054-5.12l.037.036Z" fill="#9C9CA2"/><path d="M342.635 281.789c-1.803 4.051-4.636 7.403-7.248 10.94-1.766 1.215-3.642 1.915-5.85 1.252-3.716-2.799-4.562-6.372-2.759-10.609 3.421-2.394 7.284-2.983 11.331-2.946 1.583.147 3.275-.074 4.489 1.326l.037.037Z" fill="#BFBDBD"/><path d="M330.715 301.016c-.074-2.283-.626-4.346-2.796-5.598-.258-.442-.184-.848.147-1.179.625-.369 1.324-.332 1.986-.148 1.472.111 3.312-.957 4.084 1.327-.478 2.283-2.17 3.83-3.421 5.598Z" fill="#9FA0A4"/><path d="M334.172 295.381c-1.324-.921-2.869-.884-4.415-.921-.22-.221-.257-.405-.183-.59.073-.184.147-.294.22-.294 1.84-.332 3.606-1.253 5.592-.847l-1.214 2.652Z" fill="#AEAEAF"/><path d="M342.634 281.789c-1.545 0-3.127-.037-4.672-.074.184-2.247 2.097-2.063 3.532-2.542 1.324-.073 2.281.405 2.722 1.695l.295-.074c-.258 1.031-1.067.958-1.877.995Z" fill="#B4B3B6"/><path d="M252.57 343.635c-.294-.958-1.214-.811-1.913-1.032-.294-.147-.405-.331-.331-.479.11-.184.184-.257.294-.257 1.582.368 3.826-1.069 4.562 1.657-.883 0-1.766.074-2.649.111h.037Z" fill="#BBB7B5"/><path d="M301.613 320.023c1.103.737 1.324 2.395 2.833 2.8-.442.773-.847 1.621-1.95 1.621l-.883-1.658c-.773-.921-.773-1.842 0-2.726v-.037Z" fill="#ADABAC"/><path d="M56.953 343.672c-4.893-4.568-9.75-9.136-14.643-13.703-1.03-.332-1.435-1.068-1.361-2.1.736-1.878 2.06-3.02 4.12-3.241 2.723.147 4.6 2.026 6.733 3.389 7.653 5.009 15.268 4.457 22.112-1.695 1.103-.994 2.097-2.136 3.274-3.094.552-.442 1.14-.737 1.876-.737.994.332 1.472 1.253 1.251 2.1-.92 3.72.515 6.999 1.73 10.314.11 1.436-.663 2.505-1.583 3.499-.772.737-1.508 1.51-2.685 1.547-4.857 3.794-11 2.173-16.336 3.905-1.545 1.031-3.016 1.178-4.451-.184h-.037Z" fill="#C56660"/><path d="M82.449 340.946c2.391-5.268 7.652-7.478 11.663-11.014 2.354 3.463.993 7.441 1.434 11.124-.184 1.4-1.508 1.105-2.317 1.584-1.509.111-3.054.184-4.562.295h-2.723l-3.532-1.989h.037Z" fill="#C5BCBC"/><path d="M357.976 231.693h.92v20.959c-1.729-2.136-.772-4.641-.846-6.962-.147-4.678-.037-9.319-.037-13.997h-.037ZM358.897 292.692c-1.472-5.783-1.472-11.53 0-17.313v17.313Z" fill="#fff"/><path d="M141.461 162.369c5.666-.589 11.332-1.105 16.998-1.768 3.9-.442 7.211-1.989 9.382-5.488 2.612-3.905 5.518-7.588 9.639-10.056 1.987-.553 3.495-2.689 5.923-1.953 1.693 2.947 5.887 4.163 5.813 8.362-6.034 5.93-11.957 11.898-18.027 17.791-2.944 2.837-4.563 5.931-3.974 10.056.147 2.616-.294 5.268.405 7.883 2.575 5.304 8.057 7.33 12.251 10.793 1.435.884 2.87.847 4.268-.111 5.703-3.646 8.425-9.835 12.472-14.881 5.556-6.962 11.332-13.85 16.262-21.291 2.097-3.168 5.224-4.973 8.866-5.93 3.422-.627 6.696-2.174 10.302-1.253a9.559 9.559 0 0 1 3.532 3.315 2.758 2.758 0 0 1 0 2.026c-7.395 4.973-10.78 13.224-16.115 19.854-2.097 2.616.442 6.005-1.177 8.767-3.826 5.378-6.438 11.161-6.475 17.902 0 1.363-.074 2.726-1.141 3.757-6.732.479-13.465-.331-20.161-.626-3.569-.147-6.549.111-8.977 2.947-4.562.331-9.088.405-13.576-.811-2.649-.478-4.636-1.731-5.298-4.53v-.442c.368-2.247 4.231-3.536 1.729-6.594-2.318-2.836-5.334-4.236-8.903-4.494-1.325-.11-2.686.369-4.01.037-3.459-2.799-4.231-7.219-6.402-10.792-1.509-2.432-2.539-5.231-5.703-6.078-2.023-.811-4.01-.295-5.997.258-4.893.331-9.786.81-14.642-.221-3.348 0-6.66 0-10.008-.037-2.796-2.837-.11-4.273 1.693-5.599 1.692-1.253 3.9-1.621 5.997-1.658 3.348-.073 5.15-1.326 4.672-4.936-.11-.957.368-1.731 1.288-2.173 6.365-.663 12.73-1.289 19.131-1.952l-.037-.074Z" fill="#C2BDBF"/><path d="M32.155 256.262c.405-.884.773-1.768 1.177-2.689 5.703-7.809 11.295-15.655 20.162-20.333 4.893-.258 9.75-.074 14.643-.147 1.766 0 3.531 0 5.297.073.479 0 .994.074 1.472.184 3.753 1.142 6.181 3.537 7.1 7.404-.809 2.652-1.47 5.378-3.42 7.515-6.182-2.321-12.767-1.363-19.095-2.468-3.753-.663-6.291 1.473-8.499 4.125-1.067 1.584-2.612 2.873-3.2 4.752a6.437 6.437 0 0 1-.663 1.068c-2.723 1.51-3.79 4.015-4.268 6.925-1.067 1.584-1.986 3.278-3.127 4.789-4.268 2.026-2.686 6.041-3.127 9.356-.258 1.031-.221 2.099-.295 3.131-.294 3.72-1.177 4.088-4.709 2.026-.846-8.62-1.876-17.276.589-25.822l-.037.111Z" fill="#C66660"/><path d="M226.044 232.503c5.151-3.352 5.298-8.619 5.556-13.96.147-2.984-1.251-4.273-3.827-4.089-6.475.479-12.803-1.584-19.278-.958-5.703.553-11.258-1.768-16.998-.773-3.348-.111-6.659-.221-10.007-.295 0-2.689 1.325-4.567 3.974-4.31 8.351.7 16.85-.221 25.128 1.732 3.127-1.069 6.438-.59 9.676-1.511 3.458-.994 4.599-2.32 3.605-5.672-.22-.737-.11-1.51.405-2.174 2.943-.92 5.592.332 8.315 1.032 2.98 1.878 7.248 1.473 9.308 5.12-.699 7.993-3.164 15.655-4.709 23.501-.957 4.825-3.937 6.888-7.506 6.078-1.913-.442-3.899-.995-3.679-3.684l.037-.037Z" fill="#C4BCBC"/><path d="M105.222 276.3c-.037-4.383-.405-8.767-.074-13.113.442-6.152-1.545-11.124-6.548-14.661-4.526-3.167-7.763-7.845-12.583-10.571-1.288-.921-1.876-2.026-.81-3.5 1.472-.073 2.944-.147 4.416-.184a4.94 4.94 0 0 1 2.906-1.068c3.679.074 7.211-1.031 10.89-.995 1.913-.073 3.826-.147 5.482 1.032.92 1.105 1.288 2.541 1.03 3.831-2.134 9.872 1.177 19.706.074 29.541-.405 3.758-.147 7.957-4.783 9.651v.037Z" fill="#C6BCBC"/><path d="M122.367 164.321c-.147.442-.405.848-.368 1.29.405 6.335.368 6.114-5.555 6.961-5.077.737-8.352 1.069-7.726 6.115-5.078 1.142-10.228 1.363-15.416.921 1.656-3.278-.662-6.63.368-10.13.515-1.731-2.465-1.436-4.047-1.584 1.582-1.62 3.642-.589 5.445-.921 1.398-.994 3.2.185 4.562-.847 4.231-.331 8.462-.663 12.73-.994 2.134-1.547 4.231-1.547 6.365 0 1.14-.516 2.318-1.032 3.642-.811Z" fill="#C1BABE"/><path d="M32.155 320.023c.11-.294.184-.626.294-.921.368-.847.883-1.473 1.877-1.547 2.023.7 3.9 2.689 6.144.479 1.766 2.358 4.304 4.199 4.672 7.441-1.84.221-2.649 1.768-3.826 2.91-2.686-2.173-5.335-4.347-8.02-6.52-.405-.589-.773-1.179-1.178-1.768l.037-.074Z" fill="#D06A67"/><path d="M157.907 98.57c-4.82-3.793-6.181-8.95-6.549-14.844-.258-3.72-1.509-7.514-2.943-11.014-1.619-4.051 0-6.704 2.98-8.877 4.893-3.536 9.86-6.998 14.9-10.314 1.03-.7 2.244-1.326 3.753-1.252 7.027.184 13.943-.958 20.897-1.731 1.692-.184 3.164-.59 4.341-1.805 3.9-1.068 7.91-.221 11.847-.442 3.201 0 6.438-.258 9.639.295 3.348 1.068 6.77.515 10.191.626h7.064c1.766.073 3.606-.184 5.298.7 3.458 9.834.258 14.181-5.335 17.754-1.545.958-2.869 2.136-4.267 3.278-1.73.995-3.827.7-5.629 1.4a68.087 68.087 0 0 1-15.71 1.29c-3.201-.111-6.328.478-9.198 1.878-6.475 3.205-11.368 7.514-10.007 15.728-.221 3.537-1.398 7.036-.699 10.646-.074 1.215-.405 2.357-.773 3.499-.772 2.468-2.428 4.015-5.04 3.352-3.495-.921-6.512.295-9.566 1.474-2.391 0-3.164-2.137-4.635-3.352-1.435-1.474-3.164-2.542-4.894-3.647-1.986-1.4-4.267-2.468-5.665-4.605v-.036ZM128.879 2.21c.294-1.731 1.802-.552 2.612-1.105 1.214-.552 2.428-.884 3.605 0h11.847c2.244-.92 4.452-1.179 6.659.037 2.428 4.42 6.696 4.089 10.78 4.089 26.821.073 53.641 0 80.462 0h14.091c9.381.073 12.582 6.004 7.726 14.365-1.766 1.253-3.826 1.179-5.813 1.179-1.95-.147-3.9-.074-5.887-.074h-58.387c-1.692 0-3.385-.073-5.114.074-6.218.037-12.472.074-18.69 0-.699-.037-1.398-.074-2.097-.074-1.582-.258-2.575.884-3.789 1.584-6.034-1.252-11.001-4.936-16.446-7.514-4.378-2.063-8.425-4.862-12.619-7.33.221-3.647-2.06-4.015-4.857-3.647a10.855 10.855 0 0 1-4.12-1.62l.037.036Z" fill="#C2BDBF"/><path d="M206.95 49.47c-3.9-.258-7.874.883-11.663-.774 1.03-5.673 2.171-11.308-1.987-16.355.626-4.088-.883-8.214.294-12.303 1.031-.147 2.098-.073 3.128-.073h57.467c2.171.515 1.656 2.247 1.435 3.646-.368 2.579-.184 5.047.442 7.552-.589.11-1.178.22-1.803.331-2.539 2.431-1.987 6.115-3.495 8.95v6.373c.588 1.216.036 1.953-.994 2.505-.993.368-1.986.368-3.017 0-3.2-2.1-3.2-4.936-1.655-7.92 1.324-2.541.92-3.757-2.06-3.462-4.011.405-6.365-.92-6.66-5.304-.147-2.358-1.692-3.794-4.083-4.2-8.646-1.436-17.182-.368-25.681.995-2.023.332-6.328 7.22-5.996 9.246.331 2.136 1.692 2.505 3.642 2.173 11.148-1.805 22.295.884 33.443.295 2.207-.11 4.452.773 4.304 3.536-.147 2.726-2.465 3.241-4.635 3.278-8.315.221-16.63 0-24.945.148-1.913 0-4.01-.442-5.481 1.362Z" fill="#9798A0"/><path d="M63.28 52.38c6.034-.27 9.051 2.566 9.051 8.508 0 7.92-.147 15.84.846 23.722.295 2.394 1.582 4.052 2.833 5.82.331 2.026-1.361 2.358-2.502 2.247-4.599-.479-5.776 2.763-6.99 6.041-.772 2.063-1.14 4.347-3.348 5.562-3.826-4.825-7.652-9.724-10.08-15.36-2.024-4.752-.957-10.056-.516-15.066.184-2.025.663-4.125.515-6.151-.257-3.205.773-5.82 2.907-8.104a47.758 47.758 0 0 0 7.21-7.22h.075Z" fill="#C4BDBD"/><path d="M124.096 130.47c-3.237-1.031-6.585-.663-9.86-.958-.588-.258-1.214-.442-1.251-1.252 1.141-4.163 5.629-4.789 7.984-7.662 1.656-1.768.589-4.531 2.318-6.262 2.134-.11 4.231-.184 6.365-.295.919-.92 2.134-1.178 3.311-1.141 10.228.073 20.382-1.032 30.536-1.695a5.932 5.932 0 0 1 2.649.369c2.723 1.989.81 5.156 1.84 7.551.147 1.326.11 2.652.331 3.978.552 3.094-.589 5.23-3.495 6.372-1.472.553-2.392 1.658-3.385 2.8-1.14-.258-2.281-.774-3.421-.7-8.573.516-17.035-1.326-25.607-1.068a20.097 20.097 0 0 0-8.388 0l.073-.037Z" fill="#C6BCBC"/><path d="M104.928 73.228a284.997 284.997 0 0 1 2.024 24.422c.037 1.29.662 2.541 1.03 3.794-.442 2.136 1.766 3.426 1.766 5.415-.184.478-.478.884-.846 1.252-4.967 3.647-10.412 1.731-15.71 1.216-1.325-.111-1.73-1.621-1.876-2.837-.295-2.578-.663-5.378.735-7.588 3.9-6.151 4.82-13.334 7.359-19.964.993-2.616 1.913-5.6 5.592-5.71h-.074Z" fill="#C2BEC0"/><path d="M116.002 68.808c-5.482-3.057-5.923-11.935-.846-15.581 1.802-.958 3.605-1.952 5.408-2.91 2.723-.148 3.458 2.063 4.489 3.867 1.03 1.105 1.949 2.284 3.053 3.242 3.79 3.278 3.532 5.562-.184 9.061-2.796 2.653-5.629 3.537-9.198 2.321h-2.722Z" fill="#C4665F"/><path d="M193.336 20.407c1.141 3.978 3.017 7.956-.036 11.934-7.579-2.8-15.636-4.31-22.737-8.472-1.325-1.805-.368-3.13.956-4.346h19.978c.478.589 1.398.257 1.839.884Z" fill="#9B9CA2"/><path d="M108.717 106.895c.332 0 .663 0 1.031-.036.257 0 .515.073.772.147 3.495 1.437 5.629 4.531 8.241 7.035 1.509.111 3.017.185 4.562.295-.441 2.431 1.251 5.378-1.802 7.146-2.318 1.032-4.562 2.063-6.696 3.536-3.79 2.616-6.623 1.069-6.991-3.388-.22-2.395-.22-4.826-.772-7.146-.662-2.837-.184-5.342 1.729-7.552l-.074-.037Z" fill="#C3BEC0"/><path d="M133.257 3.094c1.95-.405 3.826-1.657 5.445 1.105 1.103 1.842.11 2.358-.846 3.279-1.84-.921-3.643-1.805-5.482-2.726-.331-.884.257-1.29.883-1.658Z" fill="#CAC5C9"/><path d="m133.257 3.094-.883 1.658-1.729.11a170.577 170.577 0 0 1-1.766-2.689c1.545-.147 3.017 0 4.378.884v.037Z" fill="#E3DEE4"/><path d="M171.519 19.523c-.331 1.436-.625 2.91-.956 4.346-.589-.295-1.214-.59-1.803-.884-1.177-1.547.074-2.468.92-3.5h1.839v.038Z" fill="#AEADB1"/><path d="M169.68 19.486c-.294 1.178-.625 2.32-.92 3.5-.735.146-1.508.33-1.839-.664.11-1.768.956-2.763 2.759-2.836Z" fill="#BAB8BB"/><path d="M266.11 19.412c1.692-3.315.772-6.851.809-10.277 0-1.62-1.214-2.357-2.759-2.394-1.214-.037-2.428 0-3.642 0h-94.811c-2.833 0-5.702 0-8.535-.037-3.532-.074-2.907-3.241-3.863-5.267 2.06-1.142 4.231-.553 6.328-.295h41.905c13.833-.663 27.703-.184 41.537-.258 7.652 0 15.342-.405 22.994.258 7.285.11 14.606.184 21.891.295-.221 4.088-4.268 6.372-4.857 10.387-.184 1.326-1.177 2.652-1.545 4.126-1.95 2.946-5.187 4.015-8.168 5.414-1.618.442-2.906-1.105-4.525-.773-.405 0-.846-.074-1.251-.148-.625-.147-1.214-.442-1.582-.994l.074-.037Z" fill="#C2BDBF"/><path d="M292.489 52.122c3.201-.258 5.519 1.878 8.278 2.873 15.93 5.82 25.68 19.007 36.607 30.794 1.435 1.547 2.833 3.094 4.268 4.641.956 2.984-1.362 2.873-3.017 3.02-5.96.59-10.596-2.504-12.068-8.656-.883-3.683-2.207-5.672-6.364-6.114-4.747-.516-8.131-3.757-8.61-8.657-.441-4.64-2.722-5.598-6.843-5.635-6.585 0-12.913-1.658-18.506-5.341-2.465-1.621-4.709-3.536-2.832-6.999 1.545-.258 3.09-.442 4.635.147 1.472.11 2.943-1.363 4.452-.037v-.036Z" fill="#C5BCBC"/><path d="M266.109 19.412c.589 0 1.214.074 1.803.11 1.14 1.069 2.502 1.953 2.833 3.647-4.893 2.652-9.787 5.341-14.68 7.994-1.655-.774-2.686-1.51-1.986-3.905.625-2.173.404-4.641 1.14-6.888.184-.11.331-.258.515-.369 1.619-.331 3.385.442 4.93-.478 1.803 0 3.642-.074 5.445-.11Z" fill="#9999A2"/><path d="M281.599 15.913c-.331-.958-1.435-2.1-.626-2.873 3.054-2.947 1.877-8.583 6.623-10.388.257-.11.257-.81.367-1.252l-.11-.295c2.134-1.363 4.305-1.584 6.439 0 .588.11 1.177.184 1.765.295.516 1.805-3.09 2.173-1.508 4.346.037.921-.331 1.547-1.251 1.768-4.599 1.842-7.542 6.004-11.736 8.399h.037Z" fill="#C5BFC3"/><path d="M298.817 3.02c-1.729.553-2.207 3.058-4.415 2.874-1.913-2.247-1.876-2.358 1.692-4.457.626-.11 1.215-.221 1.84-.295.957-.295 1.913-.626 1.692 1.031-.257.295-.551.59-.809.884v-.036Z" fill="#C8C6C7"/><path d="M268.832 19.486c1.913-.295 3.458.294 4.636 1.842-.258.994-1.141.81-1.84.957-1.471-.405-3.017-.7-2.759-2.8h-.037Z" fill="#ABACB1"/><path d="M268.832 19.486c.92.92 1.839 1.878 2.759 2.8-.294.294-.552.588-.846.846-1.508-.773-2.723-1.805-2.833-3.646h.92Z" fill="#9FA1A9"/><path d="M108.718 106.896c-2.355 5.746.699 11.418.588 17.165 0 2.136 4.01.957 5.592-.442 1.987-1.732 4.047-2.468 6.549-2.174-2.318 2.874-6.438 3.647-8.204 7.183-1.361 1.216-3.164 0-4.562.847h-1.729a36.992 36.992 0 0 0-11.038 0c-3.458.663-5.96-1.841-8.94-2.652-1.25-.515-2.943-.184-3.642-1.841-1.251-.884-2.502-1.732-3.753-2.616-1.582-1.731-.993-3.978-1.288-6.004-1.214-7.846-4.01-9.503-11.147-6.557-.81 0-1.325-.294-1.325-1.178-.883-1.51-1.729-2.984-2.612-4.494.81-2.21 1.472-4.494 2.465-6.63 1.582-3.463 2.686-7.699 8.204-5.857.736.258 1.693-.48 2.171-1.326.589.368 1.214.773 1.803 1.142 2.428.22 4.856 1.362 7.21-.258.295-.295.626-.59.92-.884 2.355.515 3.385-.516 3.385-2.873-.073-5.894 1.398-10.94 6.88-14.33 2.134-1.325 3.09-4.014 4.084-6.409.846-2.025 1.84-3.978 4.673-2.725v9.135c-5.225 3.5-5.482 9.466-6.954 14.697-.625 2.173-.883 4.31-2.244 6.225-1.104 1.584-1.987 3.389-2.723 5.194-2.649 6.556-.772 9.503 6.108 9.319 3.237-.074 6.916 1.51 9.602-1.768l-.073.111Z" fill="#C2BEBF"/><path d="M238.81 133.159c-1.214.11-2.428.184-3.642.295-1.214-.111-2.392-.185-3.606-.295-2.759-.553-5.518-.516-8.278 0-1.766 0-3.532.037-5.298.073-1.876-.626-3.789-.589-5.665 0-5.114-.331-10.228-.626-15.342-.957-1.177-1.032-1.877-2.431-1.913-3.942-.037-4.199-2.171-5.93-6.218-5.635-1.177.073-2.391-.074-3.458-.774.257-3.794 2.833-5.157 7.137-3.61 2.097.737 4.01 2.174 6.365.884 2.06-.221 3.9.995 5.96.848 10.559.184 21.118-.258 31.677.221.846.073 1.656.294 2.355.736 3.348 4.052 1.913 8.104 0 12.156h-.074Z" fill="#C2BBBF"/><path d="M185.133 121.482h3.568c6.549 0 6.512 0 7.395 6.409.184 1.474.589 2.91.883 4.347h-35.466c0-1.216-1.251-3.057.883-3.278 5.003-.553 5.85-3.279 4.599-7.515-.148-.552 0-1.178 0-1.805 4.635 1.032 9.345.995 14.054.59 1.471-.111 3.017 0 4.157 1.215l-.073.037Z" fill="#C2BEC0"/><path d="M66.85 109.732c1.84-2.763 4.562-3.573 7.505-2.542 4.12 1.437 4.157 5.636 5.15 8.951.59 1.952.111 4.199.111 6.336-4.635-.7-6.438-5.231-9.933-7.478-2.024-1.179-3.79-2.505-2.797-5.267h-.036Z" fill="#C5BCBD"/><path d="M206.949 142.552c1.877-1.658 4.194-.847 6.291-1.105 5.188-.921 10.412-1.032 15.673-.737 1.435.479 2.355 1.363 1.987 2.984-.331 1.326-1.582 1.768-2.759 1.952-3.679.626-7.358 1.252-11.038 1.658-1.471.147-3.016.073-4.267 1.031-3.679 1.326-7.358 2.468-10.486-1.216-.147-.442-.147-.847.037-1.289 1.251-1.473 2.87-2.468 4.599-3.278h-.037Z" fill="#999BA1"/><path d="M177.811 146.051c-4.047 2.21-5.997 6.778-9.97 9.062-.662-2.726-1.766-5.268-2.097-8.141-.626-5.452-.92-5.415 4.93-5.525 2.391.073 4.783.11 7.174.184.699.7.957 1.547.846 2.542-.184.663-.404 1.326-.92 1.841l.037.037Z" fill="#9B9CA2"/><path d="M188.775 151.466c-.258-3.757-5.519-4.162-5.445-8.141-.332-.184-.442-.331-.332-.515.111-.148.221-.258.332-.258 1.508-.111 3.016-.221 4.525-.295 1.839-.589 3.716-.147 5.592-.294 2.391.147 4.82-.332 7.211.294.589.111 1.177.184 1.803.295 1.177 1.252.625 2.32-.368 3.315a1.977 1.977 0 0 1-.92.81c-1.729.479-3.605.59-4.93 2.026-2.428 1.032-4.157 3.979-7.432 2.726l-.036.037Z" fill="#C4BCBD"/><path d="M49.595 119.493c1.545-4.125.662-8.472.956-12.671l9.934 4.752c.294.331.478.699.478 1.141-1.619 3.279-5.555 4.347-7.248 7.552-1.14.442-2.207.257-3.2-.442a25.497 25.497 0 0 0-.92-.332Z" fill="#C6BCBC"/><path d="M60.558 112.273c1.545.995 2.759 2.247 3.752 3.794l-.33-.11c-.773 1.252-1.51 2.542-2.834 3.352-1.398.994-2.943-.442-4.378.258-.589.073-1.14.147-1.73.221-.404.184-.698.073-.919-.295.7-2.284 1.14-4.715 4.342-4.973 1.03-.073 1.655-1.252 2.06-2.247h.037Z" fill="#CAC0C1"/><path d="M159.636 140.747c-.993.994-2.244.737-3.421.737h-26.821c-1.177 0-2.465.221-3.421-.774h33.663v.037ZM229.723 141.521c-5.482 0-11.001 0-16.483-.037 1.288-1.658 3.164-.442 4.673-1.032 3.421-.589 6.88-.147 10.338-.294 1.288 0 2.612-.074 3.9.11.478.332.625.774.405 1.326-.957.774-1.914.553-2.833-.073Z" fill="#8F9096"/><path d="M65.194 118.756c-.589 1.363-1.766.848-2.796.848-.368-.258-.994-.295-.994-.958.074-1.621.994-2.468 2.576-2.652.404.921.81 1.842 1.214 2.799v-.037Z" fill="#CFCBCC"/><path d="M183.329 142.589v.773c-1.839.921-3.679 1.805-5.518 2.726 0-.589.036-1.215.073-1.805 1.03-1.878 2.428-2.91 4.636-1.878.294 0 .552.073.809.184Z" fill="#BAB6B5"/><path d="M206.949 142.552c-.956 1.436-2.06 2.689-3.642 3.462-.92-1.178.074-2.32 0-3.499h3.606l.036.037Z" fill="#AAA5A9"/><path d="M182.52 142.368c-1.913-.295-3.2.957-4.635 1.878v-2.578c1.582.074 3.311-.884 4.635.737v-.037Z" fill="#B0AEAB"/><path d="M203.344 142.552c.956 1.179 0 2.32 0 3.499a7.09 7.09 0 0 0-.883.074c-.331.258-.626.258-.92 0 .552-1.105 1.067-2.21.883-3.499h.92v-.074Z" fill="#BDB6B7"/><path d="M118.724 165.132h-6.365c-1.582-3.094-1.324-4.899 2.833-4.605 2.134.148 2.723-1.547 2.576-3.462-.184-2.321-1.95-1.879-3.422-1.879-1.582 0-3.017.626-4.047 1.768-2.281 2.579-5.187 2.468-8.167 2.21-5.556-.442-10.596-3.573-16.336-3.167-.956.073-1.913-.406-2.097-1.363-.22-1.253.994-1.326 1.803-1.51 1.288-.295 2.649-.627 3.973-.664 8.168-.073 16.336 0 24.503 0 1.95 0 3.974-.221 4.82 2.284.662 1.953 2.502 1.179 3.9 1.326 1.14.148 2.722-.405 3.017 1.216.257 1.4-.626 2.542-1.803 3.426-1.803 1.399-4.893 1.252-5.225 4.42h.037Z" fill="#97999F"/><path d="M52.317 170.62c-1.509-3.646-1.435-7.293 0-10.903v10.903Z" fill="#A6A4A9"/><path d="M99.63 166.126c-1.324 1.437-3.016.7-4.562.848 1.325-1.437 3.017-.7 4.562-.848Z" fill="#ACA8AD"/><path d="M56.879 170.694c-1.546 1.252-3.054 1.326-4.563 0h4.563Z" fill="#B3ACB0"/><path d="M37.858 64.167c-2.649 1.694-5.519.59-8.278.7 2.649-1.51 5.519-.442 8.278-.7Z" fill="#AF5B54"/><path d="M104.303 317.298v-2.726c1.03-1.437 3.458-.663 4.194-2.616.184-.368.368-.736.589-1.105 2.391-2.946 5.555-5.009 8.204-7.661 1.361-1.363 3.09-1.805 4.967-.921 4.451 4.678 7.505 10.424 11.589 15.397 1.214 1.51 2.281 3.168 4.01 4.199 1.472.81 2.907.884 4.268-.258 5.187-5.599 8.499-12.561 13.539-18.27 3.458-3.978 6.402-4.383 9.713-.295 3.458 4.273 7.689 8.178 8.241 14.219-.957 1.031-2.171.81-3.348.589-.809-.147-1.803-.7-2.318.479-.184.405.074.884.405 1.215.699.7 1.508.885 2.465.627 1.398-.369 2.171-1.621 3.348-2.247 3.421 1.068 5.592 4.42 9.161 5.23 2.906 1.953 8.609.369 11.111-3.057 1.876-2.578 1.287-4.494-2.245-7.367 1.067-4.862 4.231-8.214 8.205-10.83 3.385-2.21 5.997-.331 8.351 2.1 4.047 4.126 6.549 9.43 10.412 13.703.81.884 1.435 1.952 2.355 2.762 2.428 2.174 4.636 2.284 7.064-.221 4.01-4.125 7.321-8.84 11.589-12.745 1.324-1.215 2.465-2.689 4.084-3.573 2.759-1.031 4.967-.036 7.027 1.842 3.164 2.91 5.408 6.52 7.652 10.13 3.532 5.636 6.66 6.151 11.737 1.915 1.618-1.363 3.017-2.983 4.783-4.199 1.986-1.363 3.531-3.205 5.334-4.789 5.298-4.641 7.69-4.42 12.436.664 1.398 1.473 1.876 3.388 2.943 4.972.589.332 1.214.663 1.803.995a401.613 401.613 0 0 0 3.679 4.494v2.725c-7.984.885-15.305 5.342-23.767 3.868-2.097-.368-4.599 1.216-6.88 1.989-3.054 1.032-1.84 3.721-2.134 5.82-.405 3.168-2.796 3.905-5.298 3.684-3.422-.295-6.843-.995-10.154-1.879-7.322-1.952-14.606-3.573-22.222-1.768-4.525 1.068-8.977-.516-13.466-.626-13.392-.369-26.783.994-40.102.552-20.787-.736-41.574-.736-62.324-.589-5.187 0-5.003-3.72-6.512-6.52-1.582-1.031-2.17-2.726-1.655-4.273 1.03-3.02-.81-4.309-2.76-5.746l-.073.111Z" fill="#C2BEBF"/><path d="M104.303 317.298c3.274.331 6.107.884 3.716 5.304-.846 1.584.625 3.094.699 4.715-.258 3.094-.883 6.188.478 9.209.736 1.62-1.03 2.32-1.398 3.573-1.104.11-2.833-.442-1.803 1.804-1.766.958-3.642.258-5.445.479-1.803-.221-3.716.479-5.482-.442-1.802-3.867-.478-7.993-.956-11.934.993-2.026 3.826-2.063 4.635-4.347 2.465-2.357 5.997-4.015 5.556-8.288v-.073Z" fill="#C3BEC0"/><path d="M290.796 139.679c.074-2.026-.773-3.831-2.538-4.42-9.198-2.91-10.118-10.462-10.486-18.344a1.547 1.547 0 0 1-.221-1.142c.663-1.4.552-3.094 1.435-4.42 1.288-.848 2.833-1.29 3.9-2.468-.11-1.216-.662-.221-1.03-.185a20.01 20.01 0 0 1-3.311 3.058c-.626.258-1.251.184-1.803-.184-.331-.295-.589-.663-.846-1.032-1.104-2.063-.736-4.457-1.509-6.593-.588-7.993-5.408-14.292-8.462-21.291-.846-1.952-2.833-3.72-1.471-6.225 1.435-1.142 4.415-.479 4.525-3.02.147-3.242.184-6.668-.589-9.762-.551-2.173-10.08-1.216-11.846.995-.736.957-.847 3.278-2.98 1.473-.847-4.641-1.656-9.282.699-13.776l7.284-.221h19.058c.92.11 1.84.184 2.759.294-.036 3.131 1.73 4.789 4.378 6.226 6.145 3.388 12.693 4.751 19.536 4.493 3.716-.147 5.114 1.29 5.262 4.936.257 6.262 3.679 9.54 10.117 9.651 2.98.037 4.047.995 4.489 4.126 1.214 8.103 3.532 9.798 11.037 10.498 1.472.147 3.164.331 3.421-1.916 2.098 1.216 2.649 3.242 2.797 5.489.919 3.646-.221 7.44.662 11.087-.294.884-.626 1.768-.92 2.652-.846 2.247-2.943 2.763-4.856 3.536-1.619.405-3.238.369-4.894 0-2.133-.81-4.451-.331-6.622-.884-1.104.442-2.023-2.726-3.201-.11v1.252c.037 3.573 0 7.109.037 10.645 0 2.174.368 4.163 2.759 5.01 1.619.368 3.238.184 4.857.221 1.913 0 3.826.184 5.702.737.92.258 1.877.405 2.76.847 1.619 1.105 3.311 2.1 4.341 3.868.699 1.989.442 4.052.515 6.077v12.488c0 .994-.073 1.952-.368 2.91-.331 1.105-1.103 1.952-1.803 2.836-.515.626-1.03 1.326-1.692 1.805-2.023-.074-3.017 1.805-4.636 2.431-2.391.516-4.819.479-7.211.074-1.471-.148-3.016-2.395-4.415.11-1.692 5.93-.257 11.64 1.325 17.313.331.589.589 1.215.662 1.878-1.839 3.868-5.482 4.42-9.087 4.826-1.656.184-2.907-.958-3.238-2.616-1.508-7.146-1.913-14.402-.772-21.585 1.103-6.999 5.371-10.83 12.214-11.345 1.656-.148 2.686-1.326 4.121-1.768 2.759-.848 4.488-.295 4.084 3.352 2.317-4.31 3.605-8.509 2.906-13.151-.147-.92-.221-1.878-1.288-2.136-.919-.221-1.324.553-1.729 1.179-1.545 2.394-3.348 2.136-5.371.589-2.392-1.842-5.151-3.205-6.991-5.709-1.802-2.505-3.458-5.231-7.431-3.573-.957.405-2.355-.479-3.348-1.179-4.378-3.094-8.793-16.318-7.101-21.217.184-.589.368-1.363.883-1.547 4.783-1.879 7.027-7.11 11.847-8.914.846-.295 2.17-.7 1.95-1.621-.92-3.757-.074-7.92-2.318-11.345-1.214-1.842-3.127-1.842-5.261-1.621-6.476.626-10.486-3.462-9.382-9.945.478-2.874-.405-3.463-2.87-3.537-3.311-.11-6.659-.552-9.897.516-4.12 1.363-7.578-1.068-12.398-2.652 2.06 3.094 4.12 3.241 6.328 3.205 5.04-.11 7.947 3.536 6.218 8.177-1.619 4.31-.736 8.14 1.802 11.53 2.097 2.799 2.686 5.672 2.208 8.95-.515 3.61.294 7.257 0 10.867-.184 2.283.993 3.389 3.458 3.831 4.342.81 5.96 2.946 6.439 7.403-.258 1.4-1.693 2.579-.773 4.2.846 1.326 4.305 1.583 1.84 4.309-.442.7-.626 1.437-.405 2.284 4.452 9.835 3.9 19.891 1.288 30.057-1.435 2.874-1.95 6.41-5.409 7.883-4.378.626-5.114 5.047-6.622 7.736-2.024 3.646-5.261 6.188-7.211 9.761-.92 1.694-2.759 2.026-4.82 1.289-3.863-1.4-5.592-.074-4.967 4.052.479 3.131.626 6.372 1.546 9.393 1.103 3.757 1.067 6.593-3.422 7.698-.956.221-1.472 1.032-1.361 2.321 1.729-2.284 3.9-4.052 6.438-2.1 2.428 1.879 1.987 4.568.258 6.925-1.545 2.137-1.398 4.531-1.545 6.962-.184 2.358.993 6.041-2.576 6.299-2.906.184-2.428-3.389-3.348-6.299.331 3.352 1.104 5.562 3.017 7.294 2.355 2.173 2.134 5.23 2.502 8.03.11.773-.11 1.878-.773 1.989-5.261.921-4.194 5.488-5.15 8.84-.516 1.879-1.325 3.389-3.348 3.942-.405.147-.81.221-1.251.294-1.546.184-2.723 1.326-4.268 1.474-1.803.147-2.796.552-1.913 2.799.883 2.284-.479 3.389-2.723 3.536-5.445.405-10.89.148-16.298.553-2.281.184-3.311-1.658-4.231-3.5-1.435-2.799-1.619-6.114-3.348-8.877-3.826 5.268-9.455 7.478-14.864 9.909-1.619.737-3.384 1.031-4.93 2.099-1.435 1.032-3.127 1.032-4.819.627-1.398-.332-2.612-1.105-2.87-2.579-.294-1.584 1.214-1.805 2.207-2.431.847-.516 2.134-.442 2.429-1.768-4.195-1.805-6.476-1.51-7.91 1.068.294.369.551.737.846 1.105 1.545 3.721-1.03 4.457-3.679 4.899-3.017.516-6.034-.7-9.014-.663-15.71.221-31.456-.81-47.166.59-4.378.405-8.72-.406-12.84-2.026-.663-.332-1.398-.442-2.097-.663-1.656-.7-3.459-.847-5.188-1.253-1.619-.073-4.194-3.904-4.525 1.142-.736 1.179-1.582 2.137-3.164 1.916-.957-.663-1.398-1.658-1.619-2.763.92-2.21-1.876-3.941-.736-6.188.957-.553 1.987-.626 3.054-.737 2.87-.332 5.187-1.289 5.923-4.531.368-1.657 1.619-2.873 3.164-3.683 3.495-.442 5.519 1.768 7.469 4.162 2.722 2.836 6.401 2.984 9.933 3.426 2.686-1.474 5.593-1.142 8.462-1.216h32.671c2.391.111 4.819-1.142 7.174.258 8.462-4.052 17.071-7.809 24.687-13.482.331-1.436 1.361-1.768 2.649-1.768.919-.626 1.876-1.252 2.796-1.878.478-1.363 1.435-1.584 2.686-1.142 4.746 4.604 10.853 3.757 13.539-2.21 1.839-4.126 3.789-7.92 8.094-9.946 2.244-1.031 1.766-4.567 4.635-4.972 2.355 3.02.736 6.777 1.877 9.982.036 3.499 1.655 6.888.956 10.461-.552 2.136-2.391 2.91-4.047 3.868-1.913 1.068-3.863 2.136-5.923 2.983-2.576 1.216-4.452 2.91-2.723 5.968.994 1.768 6.77 1.657 8.83-.074 1.729-1.473 2.87-3.499 4.489-5.083 2.869-2.689 4.194-5.931 4.672-9.909 1.141-9.54 3.422-18.933 4.857-28.437 5.996-3.536 5.629-7.698-1.031-11.639-4.01-1.069-8.094-.406-12.104-.443-1.766 0-2.649 1.216-3.385 2.616-.257.405-.588.773-.993 1.031-2.539.884-4.341-.184-5.923-2.063-.847-1.547-.736-3.315-1.325-4.935-.441-2.137-.331-4.273-.331-6.447.037-2.247.773-4.162 2.833-5.341.405-.258.809-.405 1.251-.552 1.324-.369 2.686-.332 4.01-.111.442.074.883.148 1.288.295 6.328-.81 12.729.295 19.058-1.326 2.906-.737 5.334-1.658 7.211-4.015 1.398-1.289 3.826-1.179 4.598-3.352 1.288-1.768 2.539-3.536 3.827-5.304 1.324-.59 2.685-.221 4.047-.295 4.157-.295 6.512-2.652 6.401-6.704-.184-6.004-1.03-11.935-3.164-17.607h.037Z" fill="#C2BDBF"/><path d="M344.401 261.713c1.987 4.126.147 8.546.993 12.782-.588 1.474.663 3.389-.993 4.641-1.03-.036-2.06-.073-2.796.811-1.214.589-2.465 1.178-3.679 1.805-3.863-.59-7.211 1.51-10.89 1.915-1.251 1.032-2.502 1.768-3.532-.295-.626-1.878-.295-3.83-.589-5.746-.846-2.726 0-5.304.552-7.956.956-2.321-.111-5.083 1.545-7.257 2.281-1.584 4.893-.81 7.395-1.031h2.833c1.324.037 2.649.074 3.937.147 1.545 0 3.053.921 4.635.258l.552-.11.037.036Z" fill="#9798A0"/><path d="M344.511 110.542c-.11.589-.184 1.216-.294 1.805-1.472 1.326-2.944 1.252-4.415 0 1.471-.921 2.943-1.805 4.415-2.726.11.295.22.626.294.921Z" fill="#A7A3A6"/><path d="M341.604 279.947c.442-1.989 1.325-2.394 2.797-.811-.074.59-.148 1.179-.184 1.769-.847-.332-1.73-.627-2.576-.958h-.037Z" fill="#A7A7AE"/><path d="M237.008 342.64c-27.814.037-55.592.111-83.406.147-13.134 0-26.268-.11-39.44-.147-.294-.147-.404-.331-.294-.479.111-.147.184-.258.294-.258h122.809c.294.148.405.332.294.479-.11.148-.184.258-.294.258h.037Z" fill="#ACA8A6"/><path d="M114.163 341.903v.737c-1.509.111-3.054.184-4.562.295-3.017-.111-6.071-.184-9.088-.295-.294-.184-.368-.331-.294-.516.11-.147.184-.221.294-.221 1.803 0 3.643 0 5.445-.036 2.723 0 5.445 0 8.205.036Z" fill="#ADA9A7"/><path d="M237.007 342.64v-.737h13.65v.737c-4.268.111-8.499.184-12.767.295l-.919-.295h.036Z" fill="#AFAAA8"/><path d="M296.131 314.535c-2.023-2.173-4.047-4.31-6.033-6.483-1.84-1.989-3.532-1.952-5.887-.516-3.127 1.916-4.893 5.231-8.131 6.925-8.167-3.057-8.609-3.683-8.683-12.266 3.827-4.641 7.763-9.209 11.001-14.329 1.14-1.805 2.722-3.241 4.599-4.309 1.03-.553 2.134-.921 3.311-1.032 6.181-.405 8.83 3.536 10.633 8.546.478 1.4 1.103 2.763 1.655 4.162 1.877 4.715 3.826 9.283 10.265 8.399 2.097 2.615.441 4.162-1.692 5.267-1.84.921-3.937 1.105-6.071 1.216-2.686.11-5.077.957-4.93 4.457l-.037-.037Z" fill="#9799A0"/><path d="M308.824 303.632c-.846.258-1.729.479-2.576.773-2.906 1.069-4.672.258-5.776-2.799-1.177-3.352-3.569-6.225-4.341-9.798 1.803-2.247 3.716-1.695 5.408 0 1.913 1.952 4.047 2.062 6.623 1.805 5.04-.479 10.191.663 15.121-1.547 1.95-.848 3.789.368 4.672 2.504 0 .295 0 .59-.037.884-6.622 2.1-13.024 4.826-19.094 8.215v-.037Z" fill="#C2BDBF"/><path d="M327.992 294.533c-2.355-1.326-4.379-2.21-7.322-.405-1.766 1.105-4.672 1.732-7.358.626-1.435-.589-3.422-.552-4.893-.073-3.311 1.105-5.85.736-7.763-2.394-1.214-2.026-2.943-.627-4.452-.516-1.987-4.42-3.937-8.877-10.081-8.214-1.287-1.474-2.906 0-4.304-.479-11.405-.074-22.847 0-34.253.147-1.692 0-3.127.995-4.709 1.51-3.863-3.757-8.683-3.831-13.649-3.499-2.245.147-3.091 1.068-3.054 3.426.037 5.23-.773 10.461.625 15.618-1.066 2.505-2.832 2.394-4.819 1.289-2.281-1.252-4.084-3.094-5.703-5.12-2.281-2.836-4.341-5.857-6.953-8.362-4.967-4.751-10.155-4.383-14.312 1.032-3.054 3.978-5.997 7.993-9.124 11.861-1.251 1.547-2.502 3.057-4.562 3.609-1.398.295-2.796.258-4.194-.221-2.76-1.399-4.268-3.941-5.262-6.593-2.648-6.962-6.695-12.119-14.679-12.966-1.472-.847-2.06-2.652-3.642-3.352-3.054-1.4-5.188-3.426-4.011-7.036.994-2.946 6.439-5.083 9.382-3.094 6.512 4.421 13.318 2.1 20.162 2.321 7.836.221 15.783-1.216 23.546 1.915 3.164 1.29 6.843.884 10.375-1.178 4.304-2.542 9.198-3.794 14.312-1.511 4.856 2.211 10.632.479 15.378 3.279 2.943.957 5.924.736 8.867 0 4.378-4.936 10.044-6.594 16.409-6.446 1.692.036 3.311.331 4.746 1.326.993.626 1.729 2.062 2.98 1.952 5.408-.479 10.338 1.068 15.305 2.984 2.281.884 4.672.773 5.592 3.609.478 1.437 1.656 2.542 3.017.884 2.575-3.131 4.636-1.583 6.806.442 1.177 1.106 2.208 2.8 4.194 2.026 2.171-.847 2.649-2.836 2.613-4.862-.074-3.315.735-6.704.183-9.945-.846-4.642.699-8.104 4.415-10.572 2.76-1.842 4.636-4.494 6.365-6.999 2.944-4.309 6.328-4.567 10.559-2.836.846.332 2.171 1.621 2.612 0 .663-2.321.81-4.862-.478-7.072-.956-1.658-1.729.147-2.538.479-4.526 1.804-10.633-.185-12.73-4.494-1.104-2.284-2.612-3.61-5.151-3.758-1.655-.073-3.311-.368-4.746-1.326a4.014 4.014 0 0 1-1.545-2.026c.073-2.136-.773-3.83-2.355-5.23-3.053-2.984-3.936-6.815-4.268-10.866-.551-2.8.479-4.752 3.201-5.673 2.429-.81 3.827-2.873 5.519-4.568 3.348-3.315 5.739-3.83 10.007-1.805 1.729.811 3.238.258 4.857.037 1.655-.221 3.164-.994 4.819-1.289 6.107-1.105 6.255-1.252 5.74-7.698-.037-.59-.111-1.216-.92-1.842-2.097 2.762-4.673 4.383-8.315 2.615-3.679-1.768-4.378-4.162-2.024-7.477.883-1.216 1.803-2.432 2.797-3.573a5.352 5.352 0 0 1 1.655-1.216c1.104-.442 2.281-.516 3.459-.553 1.14 0 2.317.074 3.384.553 1.141.7 2.318 1.4 3.643 1.731 1.508.811 3.2 1.474 3.458 3.5 1.067 6.077.846 12.229.809 18.38 0 1.29-.22 2.542-.662 3.757-1.104 1.879-2.502 3.5-4.304 4.715-.92.295-1.803.258-2.613-.331-1.434-1.179.736-4.605-2.943-4.457-3.274.11-6.254.515-7.616 4.088-.331.848-.551 1.695-1.103 2.432-2.98 3.72-1.656 7.956-1.325 12.008.147 1.547 1.803 1.805 3.091 2.21 2.465.884 5.04.442 7.542.552 1.582 0 3.164 0 4.746.295.405.111.809.258 1.214.442 1.03.663 1.876 1.547 2.833 2.284.478.11.809.295.699.884a148.753 148.753 0 0 0 0 22.911c-.294 1.179-.626 2.358-.92 3.537-.699.847-1.508 1.399-2.649 1.363-2.244-.222-4.157.957-6.254 1.326h-.92c-.92-.774-1.361-2.505-3.164-1.437-1.729 1.031-3.826.184-5.629.958-.662.368-.81.957-.773 1.657-.22 2.063.442 4.163-.404 6.189.551 2.431-1.914 4.825-.037 7.256-.699 2.137-.736 4.273 0 6.409.883 1.069 1.839-.368 2.722.037-.331 3.647.147 7.109 2.723 9.946v.884c-.589 0-1.177 0-1.766.037l-.11.036Z" fill="#C2BDBF"/><path d="M100.55 341.903v.737h-7.248c.588-.258 1.214-.516 1.802-.773h5.482l-.036.036Z" fill="#B8B5B3"/><path d="m93.339 324.591-11.883 11.014c-3.238-3.794-2.429-8.436-2.613-12.819-.662-1.068-.11-1.989.368-2.91 1.73-1.326 2.024-3.352 2.612-5.231.332-.552.81-.957 1.399-1.215a3.54 3.54 0 0 1 1.25-.111c1.509 4.936 5.85 7.625 8.904 11.346l-.037-.074Z" fill="#C05E5E"/><path d="M93.34 324.591c-4.673-2.321-8.5-5.341-9.235-10.977-.258-.258-.332-.442-.184-.626.11-.148.22-.221.368-.221l.956-.958c3.68-2.468 7.469-3.094 11.516-.958.11.332.22.627.33.958.442 2.431.48 4.826 0 7.22-.44.884-1.36 1.584-.882 2.762-.92.921-1.876 1.842-2.796 2.763l-.074.037Z" fill="#C36160"/><path d="M201.504 146.088h.92c2.722 4.015 6.585 1.694 10.007 1.768 2.796.111 4.93 1.879 7.321 3.021 1.95 1.62 3.679 3.278 1.766 6.041-4.047.994-6.622 3.757-9.014 7.035-7.836 10.682-15.893 21.254-23.877 31.826-1.14 1.51-2.759 2.32-4.415 3.131-1.508.626-3.054.663-4.562 0-4.452-3.426-10.191-5.305-12.73-10.904-1.177-2.946.331-6.151-.846-9.135-.625-4.088.846-7.219 3.937-9.945 6.401-5.673 11.515-12.708 18.763-17.423 2.428-1.216 4.857-2.395 7.285-3.61 1.471-1.658 3.716-.921 5.482-1.805h-.037Z" fill="#9798A0"/><path d="M217.729 187.969c.993 4.826 2.796 9.246 6.549 12.635.257.7.588 1.363.772 2.1 1.288 5.156 1.141 4.788-4.12 6.446-3.532 1.068-6.77 2.173-10.339.7-.552-6.447.883-12.451 4.011-18.123.809-1.474 1.582-2.873 3.09-3.721l.037-.037Z" fill="#C0BDBE"/><path d="M221.518 156.918c.258-2.395-.404-4.31-2.722-5.415-1.766-3.279-.074-4.678 2.943-4.605 4.967.111 9.934.553 14.901.774 2.538.147 3.973 1.915 4.966 4.089.442 1.178-.184 1.915-1.14 2.468a10.028 10.028 0 0 1-3.385 1.031c-1.582.147-3.127.258-4.672-.147-3.753-.111-7.285 1.141-10.927 1.768l.036.037Z" fill="#999BA1"/><path d="M163.278 207.197c-4.783-3.131-9.749-6.004-11.626-11.971 5.445-1.842 11.553.221 13.981 4.604 1.435 2.579 2.097 4.715-1.619 5.857-.368.111-.478.995-.736 1.51Z" fill="#C5BCBC"/><path d="M237.007 154.302c.92-.294 1.84-.589 2.723-.921 1.471 2.21 1.03 4.678.92 7.11-1.987.699-3.569-1.106-5.482-.921v-1.658c-.074-1.547.736-2.652 1.839-3.61Z" fill="#BEB8B9"/><path d="M237.007 154.302c-.147 1.437-.662 2.689-1.839 3.61-1.177-.663-2.723-.958-2.723-2.763 1.288-1.473 3.017-.699 4.562-.847Z" fill="#BBB8B9"/><path d="M166.075 178.871c1.765 2.91.478 6.078.846 9.135-1.803-2.91-.552-6.077-.846-9.135Z" fill="#A1A1A7"/><path d="M179.688 198.91h4.562c-1.509 1.289-3.054 1.326-4.562 0Z" fill="#B3B0B4"/><path d="M250.657 216.112c0 2.431-.736 4.935-2.833 5.82-4.893 2.062-6.585 6.114-8.314 10.571-1.582 4.052-5.997 4.42-9.456 5.194-1.692.368-4.635-1.289-4.966-4.273-.295-.221-.332-.405-.221-.552.11-.111.221-.185.368-.185.257 0 .515-.073.772-.147 1.398 2.394 3.606 3.205 6.144 2.652 2.539-.516 3.643-2.762 3.827-5.046.552-6.557 3.716-12.598 3.752-19.228 0-1.731 1.031-3.094 1.803-4.568 4.82-.921 8.977 1.584 10.265 6.189 0 1.326 0 2.615-1.104 3.573h-.037Z" fill="#C3BCBF"/><path d="M40.323 283.557c-1.398 1.547.331 3.057 0 4.604-.368.663-.294 1.584-.81 2.063-6.548 6.004-3.605 12.708-1.508 19.375-1.398 2.799-.699 6.593-3.9 8.619-.551.295-1.103.59-1.692.884v-36.393c1.509-.036 3.385.479 2.686-2.357-.331-1.289-.589-2.91.81-4.052.993 2.726 3.494 4.494 4.414 7.257Z" fill="#C96A63"/><path d="M40.323 283.557c-2.207-1.953-5.629-3.205-4.415-7.257-.883-2.136-.368-4.236-.147-6.446.294-2.615 1.692-2.726 3.606-2.652.073 3.057 3.495 4.31 3.826 7.22-.037.184-.11.368-.147.552-.626 1.216-.626 2.505-.7 3.831 0 .847-.44 1.547-.956 2.173-.368.847-.736 1.731-1.104 2.579h.037Z" fill="#CA6766"/><path d="M79.69 252.578c-.332-1.473-.7-2.947-1.03-4.42.073-2.836 1.213-5.231 2.795-7.477 2.428 2.762 4.857 5.488 7.322 8.251-.92 4.236-4.084 5.009-7.763 5.009-.736-.147-1.177-.626-1.325-1.363Z" fill="#C0615F"/><path d="M53.31 262.671c-3.716 1.437-7.395 1.4-11.11.037-.148-3.499.33-6.557 4.524-7.33 1.215 1.657 3.864 1.363 4.71 3.499.33 1.4 1.14 2.579 1.84 3.794h.036Z" fill="#ECC092"/><path d="M80.682 253.536c3.054-.884 6.255-1.584 8.094-4.567 1.472 1.804 2.907 3.646 4.452 5.414 7.248 8.214 4.268 18.013 4.01 27.295 0 1.363 0 2.505.405 3.757-.7 3.5-.147 7.036-.331 10.535 0 1.216.037 2.431-.037 3.647-5.555.479-10.191-2.505-12.067-7.772 1.729-2.947-.516-5.563-.736-8.362-.074-.884-.258-1.731-.368-2.578-.92-.848-.993-1.953-.993-3.095 0-.442.073-.884.22-1.326.184-.405.405-.773.662-1.142l1.104-6.188c.626-1.584.663-3.168 0-4.752.037-1.399-.772-2.21-1.913-2.762-1.324-1.731-1.913-3.868-3.237-5.599-.221-.958-.221-1.842.698-2.468l.037-.037Z" fill="#C56760"/><path d="M121.41 240.902c1.325 2.136 3.937 2.578 5.519 4.346-.994 1.952-3.091 3.242-2.907 5.931.147 1.878-1.655 2.062-3.164 2.504-2.207.663-4.415.811-6.696.774-2.023 1.915-2.612 4.162-2.06 6.888.736 3.684.552 7.404.515 11.124-.442 5.084 3.09 7.294 8.867 5.526 1.14-.369 2.133-1.179 3.348-1.4 1.582-.332 3.2-.184 3.789 1.547.589 1.657-.809 2.468-2.023 3.057-2.061.958-4.342 1.253-6.365 2.321-1.619.479-3.311.479-4.967.331-2.759-.552-4.82-2.725-7.653-3.168-1.729-.257-1.913-2.025-2.354-3.388v-.958c2.207-1.473 3.053-4.236 3.09-6.225.221-7.588 1.729-15.287-.92-22.764-.478-1.363-.588-2.616 0-3.905 1.435-3.094 1.399-6.409 1.288-9.724l.92-.295c4.856 1.068 7.8 5.12 11.773 7.551v-.073Z" fill="#C2BDBF"/><path d="M122.367 302.748c-2.097-.295-3.716.405-5.224 1.989-2.392 2.468-5.004 4.715-7.542 7.072-1.84.7-3.459.479-4.82-1.031-.074-2.579-1.03-4.936-1.545-7.441-.515-2.394-.442-4.752.809-6.962v-3.646c-.221-.627.11-1.105.515-1.511.994-.847 2.024-1.694 2.833-2.799.699-.995 1.325-2.063 2.208-2.873 1.729-1.474 3.531-2.652 5.96-2.358h4.856c2.171 0 3.753.811 4.121 3.168-1.546 3.021-1.987 6.078-.773 9.43.883 2.468.699 5.009-1.398 6.999v-.037Z" fill="#9898A0"/><path d="M85.208 291.808c2.539 4.604 7.542 5.672 11.59 8.177.993 1.142.367 2.505.551 3.757-.147 1.805.331 3.647-.33 5.415-.074.589-.185 1.179-.258 1.768-3.864.037-7.763-.258-11.516.958-.736-3.757 1.361-8.251-2.87-11.124-.552-2.026-.404-4.052-.073-6.078.956-.958 1.95-1.916 2.906-2.837v-.036Z" fill="#C96664"/><path d="M115.046 283.557c-2.171.221-3.459 2.099-5.372 2.799-2.465.663-3.568-.921-4.451-2.763v-6.372c2.317 3.61 7.137 2.652 9.896 5.452.295.221.368.405.258.589-.11.184-.221.295-.331.295Z" fill="#C2BDBF"/><path d="M105.222 289.045c-.11-1.215-.184-2.431-.294-3.647.11-.589.184-1.215.294-1.804 1.472.92 2.98 1.841 4.452 2.762-.626.921-1.251 1.805-1.877 2.726-.883.589-1.766.773-2.612-.037h.037Z" fill="#BEB8BD"/><path d="M109.601 312.73c-1.104 2.505-3.385 1.658-5.298 1.842v-1.805c1.766-1.363 3.532-1.032 5.298 0v-.037Z" fill="#B9B7B7"/><path d="M109.601 312.73h-5.298v-.884c.11-.442.404-.737.809-.921 1.582-.184 3.091.037 4.489.847v.958Z" fill="#B0AFB0"/><path d="M105.112 310.925c-.258.295-.552.59-.81.921-.11-1.215-.221-2.431-.294-3.683l.331-4.531c1.545 2.284.331 4.899.773 7.293Z" fill="#888286"/><path d="M34.105 318.182c2.355-2.21-.036-6.557 3.643-8.215 1.25-.515 2.207-.073 3.017.884.662 2.432 3.421 4.163 2.465 7.183-.883.074-1.766.111-2.612.184-.405.59-.736 1.216-1.215 1.732-1.471 1.51-2.98 3.131-3.605-.59-.147-.884-.92-1.031-1.656-1.142l-.037-.036Z" fill="#CB6766"/><path d="M206.949 49.47c-.22-3.537 2.576-2.579 4.305-2.616 8.646-.11 17.255-.037 25.901-.073 1.324 0 2.943.331 3.752-1.032 1.215-2.063.074-3.205-1.949-3.425-1.95-.221-3.937-.185-5.887-.074-7.542.405-15.011-.774-22.516-.884-1.95 0-3.9-.332-5.813.626-1.582.774-3.495 2.173-4.673-.258-.956-2.063-2.538-4.604 0-6.593 1.73-1.363 2.539-2.8 2.318-4.973-.184-1.842.81-1.62 2.428-1.915 5.887-1.032 11.81-1.4 17.734-1.88 3.789-.294 7.726.222 11.479.922 2.685.479 3.973 2.91 3.752 5.525-.405 4.347 2.244 4.42 5.114 3.83 1.913-.404 3.826-.773 4.93.885 1.214 1.805-.772 2.91-1.692 4.2-1.84 2.54-1.214 4.788.809 6.887.221.995-.441 1.363-1.177 1.732-1.545.478-3.091.442-4.673.257-2.244-1.068-4.672-.478-7.027-.626h-7.284c-3.275-.22-6.623.442-9.86-.405-3.348 0-6.696-.074-10.007-.11h.036Z" fill="#9798A0"/><path d="M247.015 70.613c-4.305-1.105-8.389 1.363-12.693.626-1.361-.7-2.833-.11-4.231-.442-.11-.184-.221-.331-.331-.516.184-1.915 1.471-2.726 3.09-3.499 5.556-2.726 7.248-6.225 6.144-12.413-.257-1.474.074-2.69.736-3.905.515-.553 1.214-.479 1.876-.479h5.114c1.215.59 2.429 1.216 3.79 1.363.625 1.29 1.766.81 2.759.774.331.073.662.11 1.03.184v14.476c1.141 1.29 1.031 2.579.111 3.904-2.465 1.695-4.93.369-7.358-.11l-.037.037Z" fill="#C5BBBC"/><path d="M191.46 115.22c2.428 1.547 4.857 3.058 7.322 4.605-1.877 2.946-3.79 1.141-5.666 0-3.164-1.879-5.887-1.768-7.947 1.657-3.716.221-7.469-.294-11.221.7-2.539.663-4.857-1.031-6.991-2.505-.883-2.394-1.066-4.751 0-7.146 1.288-1.878 4.599 0 5.335-2.836 3.275-1.952 6.439-3.831 10.559-1.989 2.208.994 3.127-.995 3.974-2.615 1.14.736 1.067 1.952 1.287 3.02-.515 3.131 2.061 4.825 3.385 7.109h-.037Z" fill="#BFBBBD"/><path d="M216.957 49.58h10.007c.295.184.405.368.331.59-.11.184-.184.294-.294.294-3.311-.405-6.806.995-10.007-.847l-.037-.037Z" fill="#B3B0B4"/><path d="M241.533 50.427c-.625 0-1.214 0-1.84.037-1.802 0-3.642-.037-5.445-.074-.294-.184-.404-.368-.294-.589.11-.184.184-.295.294-.295h7.285c.294.184.405.405.294.59-.11.184-.184.294-.294.294v.037Z" fill="#A4A2A8"/><path d="M234.248 49.543v.884h-7.284v-.884h7.284Z" fill="#AAA9AE"/><path d="M104.928 64.093c-1.876.332-3.017 1.105-3.679 3.278-1.14 3.758-3.421 6.815-6.917 9.062-4.488 2.836-3.752 7.735-3.79 12.192 0 2.763-.551 4.568-3.825 3.352-.405-.147-.552-.994-.81-1.51-.22-6.004-.588-12.008-1.655-17.939-.11-.626.404-1.326.625-2.026-.515-3.646-.478-7.33 0-10.976C86.68 54.7 91.205 53.3 95.29 51.459c1.95-.884 4.23-.995 6.328-1.621 2.391-.737 3.422.221 3.422 2.578 0 3.905-.074 7.81-.148 11.714l.037-.037Z" fill="#C4BCBD"/><path d="M89.66 32.157c2.243 3.057 2.28 6.336.588 9.54-.7 1.326-12.914 2.468-13.87 1.105-2.06-2.873-6.07-5.083-4.158-9.687 1.362-1.4 3.054-2.137 4.93-1.51 4.158 1.362 8.315.957 12.546.552h-.037Z" fill="#C66760"/><path d="M89.66 32.157c-2.834 2.21-5.96 2.32-9.272 1.4-2.686-.774-5.408-1.547-8.204-.442.404-3.536 1.95-6.262 5.555-7.404 1.95-1.879 4.12-1.4 6.365-.663 2.722 1.694 4.599 4.015 5.519 7.072l.036.037Z" fill="#C76461"/><path d="M85.023 91.314c-2.28 3.02-4.782 1.068-7.21.258 2.39-.074 4.82-.184 7.21-.258Z" fill="#C2BEC0"/><path d="M244.255 20.37h-48.196c-.294-.184-.404-.369-.331-.59.111-.184.184-.294.294-.294h48.233c.295.184.405.405.295.59-.111.183-.184.294-.295.294Z" fill="#B6B2B5"/><path d="M244.256 20.37v-.884h10.927c.294.22.405.405.294.59-.11.183-.221.294-.294.294h-10.927Z" fill="#B5B2B5"/><path d="M255.182 20.37v-.884h5.445c-1.618 1.584-3.642.59-5.481.847l.036.037Z" fill="#A3A3AB"/><path d="M196.022 19.486v.884H193.3c-.736 0-1.435-.184-1.84-.884h4.562Z" fill="#A9A7AD"/><path d="M246.978 50.464h-.883c-.294-.22-.405-.405-.294-.59.11-.183.184-.294.294-.294.294-.295.626-.59.92-.92h2.833v1.73c-.92.848-1.877.774-2.87.074Z" fill="#AAAAAB"/><path d="M246.978 50.464c.956 0 1.913-.037 2.869-.074.515.148.81.406.662.995-1.398.626-2.98 1.879-3.531-.921Z" fill="#B7B4B3"/><path d="M73.25 104.17c-1.618-.479-5.187 1.105-5.04-2.1.148-2.947 3.643-.994 5.593-1.51.515-.147 1.25 0 1.729.295 1.03.589 3.127.221 2.833 2.136-.258 1.584-1.877 1.031-2.98 1.142-.589.074-1.178 0-2.134 0v.037ZM82.301 110.174c.148-1.547-.368-3.647 1.987-3.794 1.325-.074 2.686.81 2.465 2.505-.22 1.768-.699 3.794-2.76 4.125-2.096.332-1.508-1.658-1.728-2.836h.036Z" fill="#C2BEC0"/><path d="M238.81 133.159c-.478-3.941 1.987-7.883 0-11.787.846-3.389 4.967-4.421 5.703-7.92.662-1.878.22-4.199 2.354-5.451 3.238-1.437 6.328-1.658 9.529.331 2.465 1.547 5.224 1.179 7.91.221 3.201-1.179 4.71-.147 5.225 3.315.515 3.536 1.324 7.109 3.2 10.314.295.7.295 1.4 0 2.1-.625.626-1.287 1.252-1.913 1.915-2.943-1.436-5.15-4.346-9.345-2.542-2.98 1.29-4.635 2.432-3.863 5.82.295 1.29.589 2.689-.257 3.942-1.214.81-2.723 0-3.974.736-2.354 0-4.746.074-7.1.111-2.061-1.068-4.378.11-6.439-.737-.294-.11-.625-.184-.92-.294l-.11-.074Z" fill="#C2BEBF"/><path d="M235.131 172.388c-.331-1.657 1.472-2.173 1.877-3.425 12.251-.59 24.429.442 36.496 2.615 2.428.442 4.305-.7 6.218-1.916.331 2.726-2.465 2.432-3.606 3.758-3.532 4.162-8.351 3.978-13.208 4.162-5.003.221-9.933 1.51-15.01 1.289-1.509-.736-3.017-.736-4.562 0-5.445-.11-8.278-2.357-8.242-6.483h.037Z" fill="#C5BCBC"/><path d="M257.022 160.785c-3.937-.11-7.873-.184-11.81-.294-.883-1.621.331-2.505 1.435-2.468 4.488.147 5.739-2.689 6.254-6.336a3.935 3.935 0 0 1 1.067-.995c4.526-1.62 9.198-2.541 13.981-2.836 3.495 1.216 7.469.7 10.78 2.8-1.251 3.72-4.231 6.298-6.218 9.54-.662 1.068-1.729 1.473-3.09 1.436-4.121-.184-8.315.369-12.399-.81v-.037Z" fill="#C0BDBD"/><path d="M268.943 103.212c1.949 4.678 2.317 9.761 3.679 14.623v1.769c.294.957.625 1.952-.331 2.762-3.569-2.762-3.716-7.072-4.084-10.866-.295-2.947-.994-3.131-3.127-2.137-3.606 1.658-7.101 2.137-10.412-.663-2.576-2.21-5.188.295-7.763 0-2.465-4.972.073-9.135 2.207-13.37 2.465-1.069 4.378.515 6.108 1.694 4.267 2.873 8.756 5.046 13.759 6.225l-.036-.037Z" fill="#C3BCBD"/><path d="M257.022 133.196c0-.295 0-.626-.037-.921-1.802-8.325-.184-10.461 8.242-10.793 3.274-.11 3.863 2.873 5.518 4.641-1.214 1.621-2.354 3.316-3.679 4.863-1.876 2.173-4.084 3.794-7.248 3.131-.772-.737-2.097.147-2.796-.921ZM290.796 139.679c.442 0 1.288.073 1.288.11-.074 3.942 3.458 7.109 2.502 11.198-.295 1.252-.111 2.358.221 3.536.883 3.242.772 6.446-1.95 8.804-2.796 2.431-6.034 2.505-9.345.994 6.033-7.146 8.204-15.434 7.284-24.605v-.037Z" fill="#C5BCBD"/><path d="M278.691 150.619c-3.715.221-7.321-.369-10.779-1.842-.331-.7 0-1.252.404-1.768 1.693-1.547 1.325-5.415 5.151-4.641 6.807.11 8.021 2.026 5.224 8.251Z" fill="#BDB4BC"/><path d="M232.445 140.747c.295-.111.626-.221.92-.332h13.686c2.429.111 4.82.185 7.248.295.221.589.037 1.068-.515 1.363a5.767 5.767 0 0 1-1.582.553c-5.04.442-10.117.184-15.158.184-1.619 0-3.311 0-4.562-1.363v-.737l-.037.037Z" fill="#8C8E94"/><path d="M273.467 142.368c-3.348.331-2.133 4.457-4.635 5.525-1.545-1.952-1.619-4.126-1.104-6.446.699-.479 1.398-.479 2.134 0 1.177.405 2.722-.626 3.642.921h-.037Z" fill="#AFA9AF"/><path d="M269.825 141.447c-.625 0-1.251.074-1.876.11-4.562 2.174-9.124 2.21-13.686-.036v-.737c5.187.221 10.448-1.179 15.562.7v-.037Z" fill="#88878C"/><path d="M232.446 141.521h20.934c3.384 3.057 2.722 6.446.883 9.945-.295 0-.589.074-.92.111-3.716 3.499-7.689 2.762-11.81.847-5.923-6.741-14.128-2.579-21.118-4.347-2.06-.516-1.435 2.063-1.656 3.426-2.097-1.253-4.599-1.805-6.364-3.647.183-1.584 1.25-1.915 2.575-1.805 4.378.295 8.535-1.363 12.84-1.436 2.281 0 3.054-.995 1.84-3.094h2.796Z" fill="#989BA1"/><path d="M201.504 146.088c-1.582 1.326-3.642 1.179-5.482 1.805 1.215-2.505 3.496-1.658 5.482-1.805Z" fill="#BDB6B7"/><path d="M122.367 302.748c.772-3.205.883-6.262-.479-9.467-1.14-2.689-.257-5.23 2.318-6.925 2.355-.331 2.907 1.731 3.9 3.094 2.097 2.726 3.458 5.968 5.886 8.509 3.017 3.205 5.114 3.5 8.462.59 2.833-2.468 4.93-5.636 7.322-8.509 1.398-1.805 3.09-3.315 4.709-4.936a4.775 4.775 0 0 1 1.582-.995c.662-.11 1.251 0 1.766.442 5.923-.11 10.338 1.989 12.693 7.883 1.582 4.015 3.458 7.993 6.438 11.235 1.509.81 3.017.7 4.562.036 5.188-4.457 8.683-10.277 12.73-15.618 4.158-5.488 10.449-6.077 15.489-1.252 2.943 2.836 5.077 6.299 7.763 9.319 2.208 2.468 4.121 6.152 8.572 4.715 2.649-3.057 5.078-6.372 9.272-7.514 5.445 1.768 6.033 7.441 8.94 11.235-5.224 5.819-10.412 11.713-15.747 17.459-2.649 2.837-6.328 1.879-9.455-2.283-3.605-4.789-7.101-9.725-10.89-14.403-3.863-4.788-7.064-4.567-10.89.405-1.729 2.247-3.311 4.678-4.93 6.999-1.803 4.678-4.378 8.693-9.088 10.903-4.231.184-6.512-2.873-9.087-5.451a1.725 1.725 0 0 1-.883-.885c-1.987-5.12-5.261-9.429-8.719-13.592-3.128-3.72-4.857-3.278-8.094.479-4.231 4.936-7.395 10.572-11.332 15.729-.846 1.105-1.582 2.21-2.833 2.836-1.508.7-3.054.663-4.562 0-2.723 0-3.201-2.652-4.415-4.162-4.047-5.01-7.984-10.167-11.037-15.876h.037Z" fill="#9799A0"/><path d="M244.293 304.553c-1.325 0-2.87-.737-2.907-1.732-.11-4.53-3.973-6.335-6.254-9.282-.147-5.046 4.01-6.115 7.358-7.883 5.629-1.252 9.823.626 13.355 5.231 3.311 4.346 6.144 9.43 12.068 11.014.294.994.882 2.025.772 3.02-.405 4.089 1.177 6.483 5.261 7.367.81.184 1.435 1.437 2.134 2.21-2.575 1.584-4.157 4.31-6.843 5.894-4.672 2.726-7.8 2.136-10.559-2.505-2.244-3.757-4.489-7.478-7.579-10.682-1.95-2.026-4.01-3.058-6.806-2.616v-.036Z" fill="#97989F"/><path d="M183.293 323.633c3.017-3.647 6.07-7.256 9.087-10.903 2.171 0 3.643.552 4.158 3.094.588 2.8-.331 4.826-2.392 6.336-2.06 1.51-4.341 2.762-6.659 3.831-2.207.994-3.863.368-4.194-2.321v-.037ZM173.359 317.261l.883.884c-.257 2.726-2.354 3.278-4.488 3.61-1.84.257-2.575-1.216-3.238-2.616-.404-.847-.588-1.731 0-2.541.699-.958 1.619-.442 2.465-.258 1.472.331 2.907.626 4.378.958v-.037Z" fill="#C3BEBF"/><path d="M137.819 322.786h4.562c-1.508 1.363-3.016 1.326-4.562 0Z" fill="#ACA8AC"/><path d="M308.86 224.399c1.803 1.032 3.348 2.174 1.803 4.568-.478.589-1.067 1.068-1.508 1.694-.552.774-.331 1.769-.626 2.616.736-.442 1.251-1.253 2.245-1.105.662.147 1.103.589 1.287 1.215-1.398 5.231 2.171 7.33 5.924 9.283.368.184.699.405.993.7.478 1.399.405 2.799.147 4.199-.478.957-.993 1.915-2.318 1.584-.956-1.695-2.318-2.21-4.12-1.437 3.642 4.862-1.398 8.03-2.612 11.824-.479 1.51-1.435 2.763-.81 4.42-.073 2.874.037 5.747-.368 8.583-.441 2.873-2.354 5.562-5.114 3.352-3.274-2.652-6.328-4.715-10.669-4.752-1.214 0-2.539-.884-3.495-1.915-.479-.442.772-1.842-1.067-1.584-2.244.295-4.525-.258-6.807-.074-3.495.258-5.849-1.105-6.953-4.457 1.508-4.383 1.692-9.209 4.488-13.15.589-.663 1.546-.552 2.282-1.031-.957-.148-1.877-.148-2.576-.884-.441-3.794-1.508-7.588.074-11.346.294-.699.809-1.51.404-2.136-2.98-4.641-1.03-8.84.663-13.298 1.95-5.12 2.649-10.498.919-16.023-1.14-3.683-1.103-7.146 2.134-10.424 2.171-2.21 2.097-6.115 3.827-8.988.993-1.657 1.95-3.094 3.973-3.315 4.967-.589 6.843-3.868 7.432-8.362.184-1.473.184-3.057 1.361-4.236 2.539-1.805 2.943-4.936 4.562-7.293 1.84-2.394 2.649-5.157 2.244-8.104-.735-5.599.699-11.087.479-16.649-.074-2.247.809-3.868 3.017-4.494 2.133-.589 2.832 1.326 3.826 2.542 1.104 1.362 1.14 3.094 1.545 4.678.736 2.946 2.06 3.388 4.489 1.62.478-.368-.074.148.331-.294 1.766-1.879 3.789-4.605 6.365-2.358 2.796 2.395-1.067 4.384-1.583 6.704.92 1.142 1.95.295 2.87.111 1.325-.258 2.87-.995 3.569.7.625 1.547-.92 2.32-1.84 3.315-2.649 2.799-6.254 1.842-9.418 2.32-3.79.553-5.004 2.21-6.071 5.894-2.317 8.177-2.281 16.281-1.508 24.569.257 2.873 1.913 5.488 1.288 8.435-.295 1.4.625.884 1.324.921 2.907.147 4.415 2.1 4.599 4.678.184 2.542-2.244 2.984-4.121 3.463-1.876.479-3.237 1.399-4.304 2.983-.736 1.142-1.803 2.542-3.091 2.542-5.003 0-5.408 4.604-7.726 7.256-1.214 1.437 0 2.837.515 4.236.184 3.131.773 6.262-1.692 8.988-.368.405 1.03 1.326 1.582 2.137.368-1.511-.221-3.058.515-4.457.662-1.29 1.545-2.284 3.127-2.247 1.472.037 1.95 1.068 2.208 2.394.552 2.873 1.287-.847 1.913 0l.073-.111Z" fill="#C2BDBF"/><path d="M279.758 249.889c-2.097 4.052-1.324 9.099-4.562 12.745-.22 3.426-1.324 4.236-4.267 2.652-1.914-1.031-3.827-1.768-5.997-1.768-1.362 0-2.355.627-2.723 1.953-.515 1.878 1.067 1.768 2.134 2.173 1.582.589 3.789.516 3.569 3.168-5.629.11-11.185.368-14.717 5.82-.257.368-1.103.368-1.655.552-2.723.479-5.445-2.284-8.205 0-6.217-2.394-13.097-1.4-19.278-4.052-3.753-1.62-7.689.405-10.67 2.247-4.746 2.947-9.05 2.21-13.539.369-1.251-.516-2.281-1.326-3.752-1.29-10.008.332-20.051.59-30.059.921-2.501.074-4.709-.037-6.364-2.468-1.803-2.689-4.452.111-6.733-.552-.442-.111-3.127 1.805-2.833 3.499.331 1.952 1.214 3.905 3.937 4.31 2.097.294 2.501 2.836 3.752 4.273-.588 0-1.177.037-1.766.073-.588.479-1.103-.147-1.655-.11.11.442.515.663.735 1.031a15.859 15.859 0 0 1-4.562 4.568c-2.501-.111-1.986-2.1-1.655-3.315.956-3.721-1.178-4.973-4.121-5.562-2.428-.479-4.488-.737-5.077-4.015-.441-2.468-3.311-1.805-5.04-1.4-3.569.884-7.175.81-10.78 1.215-2.428.295-4.82-.11-6.88-1.62-.957-1.584-1.067-3.242-.515-4.789-1.214.737-1.067 3.205-3.127 3.536-1.03.074-1.472-.663-1.987-1.363 0-4.346.11-8.693-.773-13.039-.515-2.616-.515-5.378 3.496-5.194 2.207 1.289 3.016 3.02 1.802 5.451-.588 1.437.405 2.947-.294 4.568.589-.663.552-1.473 1.214-1.842.92-.589 1.803-1.215 2.723-1.805 1.03-.626 2.06-.257 3.127-.073a5.492 5.492 0 0 1 2.796 1.51c2.943 1.952 4.93 6.483 9.639 3.61.258-.184.478-.332.626-.516-.515-.368-1.141 0-1.73-.184-2.391-.995-4.304-2.247-2.649-5.268 3.643 2.616 8.168 2.984 12.068 2.505 10.89-1.289 21.743-.405 32.634-.663 7.983-.184 16.004-.331 23.987.847 1.546.221 3.201.074 4.047-1.436 1.03-1.805-1.839-1.695-1.692-3.205 1.656-1.031 3.421-.258 5.04-1.215-2.06-.258-3.679.221-5.04 1.215-2.024-.884-1.692-1.842 0-2.689 3.017-1.51 6.218-.773 9.382-.7.883 0 1.251.737 1.324 1.547.11 1.179-.331 2.137-1.435 2.579-1.361.589-2.796.994-4.378 1.547 1.582 2.947 4.709 3.315 6.181 1.805 2.759-2.8 6.696-2.026 9.602-4.42 1.509-1.253 4.011-1.363 4.636-3.905.147-.626.81-1.105 1.398-.737 3.164 1.842 3.311-.073 2.98-2.431-.147-.957-.368-1.878.773-2.21 1.03-.294 1.655.516 2.244 1.216 2.318 2.762 1.876 6.52 3.458 9.651 1.104 2.21 1.877 3.131 4.673 2.725 4.599-.626 9.308-.442 13.981-.478 1.03 0 2.207.552 2.869-.553.662-1.105-.184-1.989-.92-2.763-1.876-1.989-1.177-3.131 1.288-2.725 2.576.405 4.157-1.658 6.365-1.916.589.516.441 1.253.552 1.879.588-.553-.147-1.326.331-1.879 4.562-1.289 2.575-5.488 3.532-8.325.699-2.025-.294-4.899 3.642-3.757 1.729.479 1.582-.847 1.619-2.247.147-4.604-3.422-7.477-4.82-11.345-.368-.994-.956-1.915-1.14-2.947-.184-1.178-.221-2.689 1.545-2.615 1.398.037 2.06 1.105 1.876 2.542 0 .294-.11.589-.184.884-.772 2.026-.147 4.162 1.766 4.236 1.766.037 1.104-2.395 1.215-3.831.257-3.647-.883-7.478 2.575-10.535 1.214-1.068.736-3.72-1.03-4.568-1.693-.847-3.569-.368-4.305 1.953-.331 1.068-.441 2.394-2.318 2.799-.147-3.02-2.097-6.483 3.238-6.925 1.876-.147 3.017-1.805 2.244-3.168-2.06-3.646-.662-7.845-2.354-11.455-1.104-2.284-.221-4.531.919-6.41 1.104-1.841 2.98-2.652 4.783-.442 2.097 2.579 4.158 1.29 4.893-.81 1.362-3.941 6.807-5.341 6.181-10.461-.11-.884 1.435-1.4 2.465-1.731.736-.258 1.766-.59 1.398-1.4-3.311-6.925 2.355-2.615 4.047-3.279 0 4.347.148 8.73-3.495 12.082-.625.59-.92 1.29-1.986 1.474-6.807.994-8.168 2.652-8.315 10.056 0 .994-.147 2.063-1.03 2.284-4.636 1.141-3.937 4.899-3.091 7.661 2.465 7.993 1.472 15.25-2.502 22.507-1.03 1.915-1.766 5.009 1.104 6.851 1.545.994 1.472 2.431.515 3.499-3.311 3.757-.478 7.993-1.214 11.935.552.589.552 1.215 0 1.805l.294.073Z" fill="#C2BDBF"/><path d="M300.657 218.027c-2.539-1.952-2.981-4.015-.479-6.372 1.251-1.142 2.097-2.395 2.465-4.2.331-1.694 1.251-3.83 3.716-2.283 1.288.773 2.097.294 2.649-.627 2.097-3.278 4.82-5.341 8.83-5.856 2.097-.258 1.582-2.174.589-3.095-.994-.957-1.546-4.125-3.937-1.62-.699.7-1.251 1.436-2.208.847-.367-.221-.625-1.326-.441-1.547 2.06-2.247.221-4.273.037-6.52-.479-6.004-2.134-12.229-1.398-17.939.588-4.788 2.134-9.835 3.384-14.697.7-2.762 4.415-2.836 7.138-2.578 4.231.442 7.505-.958 10.89-5.084-2.833.774-4.709 1.179-6.512 1.805-1.251.406-2.097.111-2.575-1.031-.405-.995.184-1.621.919-2.284 1.472-1.289 4.268-3.02 2.318-4.862-2.207-2.063-3.127 1.289-4.562 2.578-1.398 1.216-3.274 2.763-5.261 2.1-2.023-.626-1.582-3.02-2.171-4.678-.331-.995.589-2.357-.478-2.984-1.398-.773-1.067-3.573-3.348-3.057-2.244.516-2.391 2.505-2.244 4.383.441 6.226-1.472 12.303-.957 18.565.184 2.21-.588 4.199-2.685 5.378 3.164-5.967-.074-12.45 1.434-18.417 1.288-5.12-2.796-8.251-3.237-12.561.184-.221.441-.405.699-.553.662-.331 1.324-.368 2.06-.294-.625-.332-1.398-.295-1.803-.995.184-.7 2.465-1.731-.331-1.878-1.067-.037-1.361-.848-1.471-1.769.368-.478.772-.92 1.251-1.178 2.207-1.179 1.324-1.879-.368-2.468.257-3.978-2.061-7.367-5.409-6.999-5.813.663-5.408-3.499-4.966-5.967.699-4.089-.847-8.03.294-12.045.552-1.879-.11-3.684-1.545-5.415-3.385-4.089-5.335-8.546-2.061-13.85 1.251-2.026-.919-3.573-1.582-5.304-.699-1.768-2.06-1.29-3.421-.774-2.355.847-4.525-.11-6.512-1.178-1.325-.737-2.171-2.248-1.141-3.868 1.104-1.731 2.245-.7 3.422.073 3.385 2.174 6.659 3.647 10.964 1.769 3.642-1.584 7.726.11 11.589-.074 2.17-.11 2.759 1.62 1.802 3.057-2.465 3.573-.625 6.483 1.362 9.025 2.06 2.652 5.187 1.657 7.983 1.031 1.95-.442 5.666 2.394 5.85 4.53.295 2.91-.184 5.895 1.325 8.657.662 1.216.22 3.168-1.325 3.352-5.923.737-7.432 7.625-13.024 8.988-1.839.442-1.251 10.94.589 12.561 2.097 1.841 3.569 3.867 4.084 6.814.625 3.573 4.782 3.831 8.425.442 1.692 6.225 7.1 8.988 11.442 12.745 1.471 1.289 2.318.442 2.943-1.215.478-1.253 1.361-2.689 2.943-2.211 1.546.442 2.318 1.842 2.318 3.573 0 3.758.478 7.625-1.803 11.014-.515.774-.956 1.547-.735 2.505.184.81.956 1.768-.332 2.284-.956.405-1.765-.258-2.501-.737-.957-.589-1.178-1.473-.442-2.284 1.251-1.399.405-2.91-.699-1.989-3.201 2.652-7.064 1.547-10.412 2.763-1.729.626-3.421 1.215-3.164 3.683.147 1.326-1.067 2.063-1.802 3.021-.626.81-1.656 1.805-1.583 2.615.516 6.188-2.538 12.561.994 18.565.221.368.441.921.331 1.252-2.355 6.041 2.134 3.868 4.268 3.242 2.17-.626 4.635-1.289 6.07-3.463.92-.773 1.803-.773 2.723 0-.81 1.4-1.251 3.279-2.465 4.126-2.76 1.952-1.95 3.683.184 4.788 2.097 1.069 4.635 3.463 6.916 0 .773-1.178.883-3.388 2.87-2.983 2.171.479 1.509 2.652 1.582 4.199.074 1.805.294 3.683-.073 5.415-.515 2.32-.111 5.746-4.93 3.352-2.134-1.068-5.813.994-8.793 1.731-1.104.258-2.134 1.363-3.201-.111-3.238-4.53-6.034-1.362-8.499.737-2.355 1.989-3.826 4.899-7.432 5.452-2.06.331-1.582 2.615-1.619 4.236-1.25 1.473-1.103 4.089-3.642 4.567l-.073.074Z" fill="#C2BDBF"/><path d="M339.765 112.347h4.415c1.803 5.452 1.508 10.94.258 16.428-1.583 2.321-4.195 2.063-6.476 2.653-1.692-.995-3.605-.884-5.445-.884-1.803-.7-3.642-.663-5.445 0-2.833-.295-3.679-2.137-3.642-4.678.037-4.494 0-8.951 0-13.445 3.605-1.363 7.248-.405 10.89-.074h5.445Z" fill="#9898A0"/><path d="M334.32 181.523c-1.214 0-2.429.074-3.643.111-1.508.589-3.017.589-4.525 0-2.87-4.899-2.722-10.351-2.722-15.729 0-1.436-.405-3.167 1.802-3.462.883-.7 1.803-.774 2.796-.258 2.98 1.547 6.218.958 9.198.589 2.723-.331 4.967 0 7.174 1.437 1.472 5.194 1.325 10.387.074 15.581-2.87 3.463-6.88.369-10.118 1.731h-.036Z" fill="#9798A0"/><path d="M264.417 76.838c-1.913-4.494-5.114-6.925-10.154-6.52v-3.5c1.373-3.633 4.231-5.45 8.572-5.45 1.508 0 3.017.073 4.525 0 3.054-.185 3.753 1.215 2.723 3.904-.589 1.584-.442 3.241-.074 4.899 1.325 6.004.773 6.63-5.629 6.667h.037ZM265.079 205.282c-4.452-3.168-10.044-3.72-14.753-6.299-1.104-.589-2.392-.921-3.348-1.805v-1.031c1.103-2.1 3.016-3.021 5.187-3.057 4.01-.074 8.094-.59 12.104.331 4.011 1.547 5.666 4.42 5.519 8.73-.147 3.536-1.361 4.789-4.709 3.131Z" fill="#C2BDBF"/><path d="M235.131 172.388c1.031 4.347 5.078 4.863 8.242 6.483-1.325 1.29-3.238 2.174-2.723 4.568-.699.737-.405 1.657-.478 2.505-.221 4.309-1.509 5.414-5.85 4.604-1.325-.258-2.539-.737-3.716.295-1.729-.184-3.054-1.069-2.649-2.873 1.361-5.636 2.355-11.53 7.174-15.582Z" fill="#C2BCBF"/><path d="M136.016 266.281c-2.244 2.763-4.856 2.763-7.027.258-1.214-1.4-3.753-1.474-3.863-3.905-.515-4.273 2.943-1.952 4.562-2.726h1.803c-.074 2.542.993 4.163 3.642 4.568.699.405 1.398.81.92 1.805h-.037Z" fill="#C2BDBF"/><path d="M247.898 178.871c3.826-.626 7.653-1.105 11.405-1.952 2.649-.589 5.188-1.105 7.91-.295 2.171.663 4.084-.368 5.777-1.584.956-.699 1.729-1.657 3.09-1.657-1.803 2.873-4.415 3.868-7.689 4.752-6.034 1.583-12.141.184-18.101 1.583-.883.221-1.803 0-2.429-.884l.037.037Z" fill="#C2BCBF"/><path d="M230.569 190.843c.184-1.989-.662-4.936 3.017-1.732 2.649 2.321 5.666.442 6.108-3.278.11-.921.073-1.842.919-2.431v7.293c.846 1.547.111 2.689-.956 3.758-3.238-.7-6.328-1.695-9.088-3.61ZM287.852 94.482c.295 3.5 3.385 5.746 2.134 9.43-.625 1.878-1.729 2.357-3.384 1.952-1.766-.442-1.288-1.731-.847-2.873 1.03-2.578-.699-5.746 2.097-8.509ZM339.471 97.54c-.736 1.399-.479 2.909-.626 4.383-.073 1.105.11 2.762-1.692 2.431-1.178-.221-1.95-1.4-1.803-2.763.184-1.62.515-3.204.773-4.825.22-1.253.588-2.579 2.17-2.174 1.398.369 1.545 1.658 1.141 2.947h.037ZM327.844 101.444c-1.214-.147-3.458-.147-2.833-1.584.552-1.326 2.833-2.136 4.489-2.726.993-.331 1.95.737 1.913 1.916-.074 2.283-1.803 2.357-3.569 2.394ZM302.239 146.42c-1.656-.295-2.098-1.769-2.134-2.947-.074-1.437.515-3.205 2.244-3.315 1.398-.111 1.656 1.51 1.876 2.615.331 1.657-.478 2.836-1.95 3.647h-.036Z" fill="#C2BDBF"/><path d="M344.364 164.211c-5.335-1.805-11.074.184-16.409-1.694.258-.443.552-.442.92-.111h9.124c.589-.626 1.324-.921 2.171-.958.809 0 1.582 0 2.281-.442a3.599 3.599 0 0 1 1.766-.11c.368.147.699.405.956.7a69.219 69.219 0 0 0-.736 2.578l-.073.037Z" fill="#A09FA3"/><path d="M122.367 261.713a77.804 77.804 0 0 1-2.722-.92c.22-1.4-1.877-3.132-.221-4.052 2.06-1.179 3.237 1.252 4.783 2.247 1.398 2.247-1.03 1.952-1.803 2.725h-.037ZM264.27 193.421c-3.422 0-6.88-.037-10.302 0-2.612.074-4.893 1.179-6.953 2.689.11-1.731 1.103-3.278 2.575-3.315 4.893-.221 9.86-1.252 14.68.589v.037ZM302.495 122.403c1.693.147 3.495-.405 5.188.958-2.907-.847-3.311 3.352-6.071 2.689-1.766-1.731-.552-2.726.92-3.647h-.037ZM287.742 169.773c2.097 1.142 3.238 2.173 2.245 4.199-.515 1.032.147 3.426-1.95 2.726-1.877-.589-.405-1.805.22-2.763.883-1.289-.883-2.394-.515-4.162ZM116.922 262.634v5.12c-2.943-2.173-2.98-2.468-.92-7.846.294.921.589 1.805.92 2.726ZM284.284 108.737c-1.104 2.358-3.054 2.984-5.445 2.726.736-1.326 1.104-2.984 2.722-3.647 1.104-.294 2.465-1.399 2.723.921ZM303.416 129.66c1.692-.111 3.348-.258 5.371-.406-1.545 3.352-4.231 1.805-6.291 2.247 0-.736.184-1.436.92-1.805v-.036Z" fill="#C2BDBF"/><path d="M122.367 261.713c.552-.957 1.95-1.326 1.803-2.725 1.876 0 3.752-.185 5.445.92-.957 1.842-4.305-.294-4.562 2.726a76.522 76.522 0 0 1-2.723-.921h.037Z" fill="#C2BDBF"/><path d="M337.962 131.464c2.244-.699 3.9-2.799 6.475-2.652l.111 3.647c-.184.11-.368.184-.516.295-1.287.037-2.317-.59-3.311-1.253-.92 0-1.839 0-2.722-.037h-.037Z" fill="#A8A7AA"/><path d="M334.32 112.347c-3.642 0-7.248.074-10.89.074v-.958c1.214-.995 2.428-.81 3.642 0 2.428.405 5.04-.884 7.285.884h-.037Z" fill="#B7B5B7"/><path d="M278.066 115.994c-1.214-1.326-1.251-2.91-.92-4.531h1.656c1.177 1.731.552 3.205-.773 4.531h.037ZM267.912 253.536c2.907 2.578.258 2.984-1.361 4.015-.883-1.658.625-2.726.441-4.015h.92ZM269.752 56.358c-2.318.552-3.716.884-4.967-.847 1.656-.81 2.98-.664 4.967.847ZM340.721 162.406c-.92 0-1.839 0-2.759.037.257-2.505 1.545-2.984 3.642-1.805.589 1.031-.368 1.289-.883 1.768ZM327.035 111.463h-3.642c.11-.847-.295-2.1.772-2.284 1.582-.294 2.171 1.179 2.87 2.284Z" fill="#C2BDBF"/><path d="M344.437 161.522h-1.913c-.626-.921-.626-1.805 0-2.726a78.476 78.476 0 0 1 1.692-1.842c1.067 1.474.662 3.021.221 4.568Z" fill="#BCB8BA"/><path d="M239.693 194.452c.331-1.252.626-2.504.957-3.757 1.508 1.216.699 2.91.92 4.421-.589 0-1.178 0-1.803.036 0-.221-.074-.478-.074-.7Z" fill="#C2BDBF"/><path d="M344.07 132.312c.036.626.073 1.289.147 1.915-1.766-.147-2.723-1.326-3.495-2.763 1.214-.11 2.317.148 3.348.811v.037Z" fill="#B9B8B8"/><path d="M308.235 75.623c-.699 0-1.103-.406-1.067-1.032 0-.368.331-.847.663-.958.625-.257 1.177.148 1.324.774.147.663-.294 1.068-.92 1.252v-.037ZM328.875 162.406c-.295 0-.589.074-.92.11-.92 0-1.803-.073-2.723-.073 1.215-3.352 2.429-1.547 3.606 0l.037-.037Z" fill="#C2BDBF"/><path d="M327.072 130.544c1.84-1.326 3.643-1.29 5.445 0h-5.445Z" fill="#A4A3AA"/><path d="M326.152 181.634h4.526c-.295.295-.589.589-.883.847h-2.723l-.883-.847h-.037ZM342.524 158.833v2.726c-.404.7-1.067.884-1.802.847l.883-1.768c0-.737.184-1.437.919-1.805Z" fill="#C2BDBF"/><path d="M243.372 178.871c1.509-1.363 3.017-1.363 4.562 0h-4.562Z" fill="#C2BCBF"/><path d="M284.284 108.737c-.662-1.068-1.729-.884-2.722-.921.883-1.105 1.986-1.215 3.053-.478.552.368.184.994-.331 1.399Z" fill="#C2BDBF"/><path d="M341.604 230.735h-5.445c-2.649-1.215-5.555.258-8.204-.884-3.606.368-4.857-1.326-4.599-4.788.22-2.542.11-5.121 0-7.662-.074-2.026.515-3.205 2.759-3.094.957-.995 2.06-1.732 3.495-1.842a11.83 11.83 0 0 1 1.95-.147c1.913.073 3.826-.111 5.74.11.22 0 .404.074.625.111h2.722c.994-.663 2.061-1.069 3.275-.737.441.184.809.442 1.14.773v17.239c-1.177.221-2.317.553-3.495.884l.037.037Z" fill="#97989F"/><path d="M334.32 181.523c3.201-1.473 6.807-.81 10.118-1.731-.074.589-.184 1.216-.258 1.805-.625.737-1.471.958-2.428.958-.441 0-.883-.037-1.324-.074-.92 0-1.766-.184-2.465-.884-1.214 0-2.429-.037-3.643-.074Z" fill="#A6A5A9"/><path d="M341.604 230.735c.516-2.836 2.098-1.51 3.496-.884.147.589-.184.847-.663.958-.956.7-1.876.736-2.833 0v-.074Z" fill="#A1A1A6"/><path d="M341.604 181.597h2.576c.294.589.625 1.142.919 1.731-.257.037-.478.074-.735.111-1.877.847-2.76.147-2.797-1.805l.037-.037Z" fill="#B1AEB0"/><path d="M341.604 230.809h2.833v1.768c-1.324.073-2.685.11-2.833-1.731v-.037Z" fill="#B7B3B5"/><path d="M341.604 260.829c.846-.294 1.729-.626 2.576-.921.073.59.147 1.216.22 1.805l-.257.074c-.994.81-1.913.921-2.686-.331.037-.221.11-.406.147-.627Z" fill="#B2ADAF"/><path d="M325.232 261.713c1.987-1.731 4.71-.957 7.064-2.247 2.392-1.289 1.766 1.695 2.024 3.095h-.92c-2.612-1.179-5.555.331-8.168-.884v.036ZM335.276 262.597c2.134-.478 3.348-4.272 6.328-1.768v.037c-.368.847-1.14 1.253-1.839 1.768-1.509 0-3.017 0-4.526-.037h.037Z" fill="#C2BDBF"/><path d="M325.233 261.713c2.722.406 5.592-.884 8.167.884-2.722 0-5.445.037-8.131.074-.331.405-.625.405-.919 0 .294-.295.588-.626.883-.921v-.037Z" fill="#BAB6B9"/><path d="M339.802 262.634c.368-.847.956-1.473 1.839-1.768.589.995 1.582.847 2.539.884-.736 3.831-2.98.258-4.378.884Z" fill="#A7A5A9"/><path d="M324.35 262.671h.919c-.441 2.394.847 5.01-.919 7.257v-7.257Z" fill="#AAA7AA"/><path d="M324.313 283.593c-1.398-2.136-1.398-4.272 0-6.409v6.409Z" fill="#ABA9AE"/><path d="M267.912 301.9c-1.803.995-3.348.921-4.783-.736-2.539-2.947-5.629-5.562-7.653-8.804-3.164-5.12-7.505-6.52-12.987-5.967-.478-.626-.589-1.252 0-1.842 1.141-2.468 3.238-2.799 5.666-2.762 8.756.073 17.512.036 26.269 0 3.053 0 6.254-1.658 9.013.92.552.59.479 1.179 0 1.768-5.003 3.942-7.652 9.799-11.736 14.55-1.104 1.253-1.913 2.689-3.716 2.91l-.073-.037Z" fill="#C2BEC0"/><path d="M283.401 284.441v-1.768c1.472-1.474 2.355-1.032 2.723.884-.92.294-1.803.589-2.723.884ZM289.766 269.007c1.582-.148 2.943.515 4.267 1.252.516.295 1.399.958 1.509.847 4.82-4.862 4.967 1.768 7.211 3.021 1.14.663 2.023 2.063 3.495 1.363 1.325-.626 1.656-1.989 1.729-3.463.147-2.836-.662-5.783.883-8.472 0-.147 0-.331.111-.442 4.047-3.941 8.351-7.735 8.094-14.145l1.802-1.804c3.827-.295 6.476-3.279 9.345-4.31-2.759-.958-5.96 1.547-9.345.663-3.127-2.836-5.813-5.967-7.284-10.019l-.92-.921c-.589-1.032-.625-1.842.92-1.805 1.619.295 3.237.884 4.856.847 3.348-.037 5.188 1.326 6.255 4.605 1.398 4.346 8.83 5.967 12.104 2.725 1.803-1.805 2.722-1.657 3.238.811.294 1.326.699 2.615.772 3.978.331 6.299.368 6.078-5.519 4.531-2.759-.737-5.555-1.842-7.689 2.615-1.729 3.573-5.114 6.851-8.866 9.098-2.539 1.51-2.797 3.868-2.392 6.336.773 4.604-.147 9.209-.037 13.776.074 2.726-2.207 3.573-3.752 4.641-1.913 1.326-2.723-1.142-3.937-2.062-.957-.737-1.729-1.658-2.612-2.542-1.288-1.326-2.318-1.031-3.275.479-.662.994-.625 2.762-2.759 2.21-1.95-.479-2.833-1.473-2.833-3.463 0-2.615-2.023-2.136-3.642-2.136-2.281 0-4.489.258-5.85-2.357-.956-1.805-2.759-1.105-4.452-.811-3.2.553-6.696 1.621-8.793-2.32 2.024-2.579 4.158-4.31 7.543-1.879 1.618 1.179 3.826.442 5.665 1.142 1.877.81 2.171 3.205 4.158 4.089-1.472-1.216-2.796-2.395-2.539-4.421.442-1.105 1.03-2.062 2.465-1.657h.074ZM242.453 284.514v1.842c-2.833 1.989-6.107 3.536-7.321 7.183-3.127 2.284-5.445 5.636-9.088 7.293-3.274-5.857-.036-12.303-1.582-18.38-.478-1.879 1.288-2.468 2.944-2.505 3.458 0 6.916.073 10.338 0 3.201-.074 3.495 2.652 4.672 4.567h.037Z" fill="#C2BDBF"/><path d="M289.766 269.007c-.883.331-1.472.958-1.803 1.805-.478.552-1.067.921-1.802.921-2.981-.406-6.108.92-8.83-2.063-1.251-1.363-2.392 3.02-4.783 2.063-1.398-.848-2.943-.995-4.562-.921-.81-2.21-3.275-1.326-4.562-2.395-.847-.699-3.201.958-2.723-1.731.368-2.026.405-4.752 3.127-4.494 2.355.221 5.078-.479 7.138 1.732 2.171 2.357 3.605 1.547 4.268-1.326 3.936 6.482 10.522 2.467 15.82 4.125-.405.737-.81 1.473-1.251 2.247l-.037.037ZM300.656 218.027c1.545-1.252.368-4.678 3.642-4.568.847 3.905 1.913 7.736 4.562 10.94-.22 2.211-1.618 3.316-3.348 4.163-1.214-1.216-.11-1.805.184-2.579.479-1.142.957-2.541-.551-3.094-1.693-.626-2.355.847-2.87 2.137-.147.405-.147.884-.111 1.326.221 1.731 1.251 4.199-.662 4.862-3.053 1.105-.294-4.678-3.826-3.868 0-.258-.11-.7 0-.736 4.231-1.732 1.435-5.931 3.017-8.583h-.037ZM329.795 213.423c-1.214.294-2.429.589-3.643.92.405-5.451 5.96-9.098 11.185-7.109 3.237 1.253.478 3.536.625 5.305-.552.478-1.177.442-1.802.257-1.251-.847-.184-3.499-2.76-3.352-2.612.148-2.281 2.8-3.642 3.942l.037.037ZM243.372 277.221c.515-2.357.957-4.789 3.79-1.51 1.103 1.252 3.274-.111 4.414 1.51-2.722.7-5.445 1.363-8.204 0ZM311.583 230.772c-.736.405-.883 1.068-.919 1.805-.773.626-1.546 1.252-2.502 2.063-.074-2.468-2.796-5.747 2.502-5.71.294.589.588 1.216.919 1.805v.037Z" fill="#C2BDBF"/><path d="m344.217 208.892.11 3.683h-3.642c.883-1.473 1.25-3.499 3.532-3.646v-.037Z" fill="#B4B1B2"/><path d="M327.955 229.888c2.723.295 5.629-.884 8.204.884-2.722-.368-5.629.884-8.204-.884Z" fill="#B7B4B7"/><path d="M341.604 181.597c.516 1.216 1.472 1.805 2.797 1.805-.074.589-.148 1.216-.221 1.805-1.509.074-2.244-1.363-3.458-1.805-.552-.589-.552-1.179 0-1.768h.882v-.037Z" fill="#C2BDBF"/><path d="M340.684 181.634v1.768c-1.324 0-2.612.037-2.722-1.805h2.722v.037Z" fill="#C2BDBF"/><path d="M181.527 303.669c-1.545 1.289-3.054 1.363-4.562-.037 1.508 0 3.017 0 4.562.037Z" fill="#AEADB1"/><path d="M40.507 310.925c-.92-.295-1.84-.626-2.76-.921-4.525-5.194-4.672-14.218-.11-18.638 1.03-.995.626-3.168 2.686-3.205 1.288 1.473 2.576 2.984 3.863 4.457.478 2.468 1.84 4.936-.073 7.404-3.753 2.873-4.673 6.483-2.686 10.793-.258.368-.589.405-.92.11Z" fill="#CA6D65"/><path d="M40.507 310.925c.294-.037.625-.074.92-.11.993.221 1.986.257 2.98.699 2.097.848 5.96 1.621 5.592 3.058-.662 2.505-3.79 3.72-6.806 3.499-.368-2.578-3.864-3.978-2.723-7.146h.037Z" fill="#EDBA93"/><path d="M44.149 299.985c1.067-2.468-2.134-4.936.073-7.404 6.108.295 7.543 1.768 5.777 5.71-1.362 3.02-3.937 1.105-5.85 1.694Z" fill="#EECE9C"/><path d="M79.542 320.134c-.589-.295-1.177-.589-1.73-.884-.809-.663-1.655-1.289-2.39-2.026-.59-.589-1.62-1.179-1.104-2.247.478-.995 1.434-1.4 2.612-1.363 1.508.037 3.017-.074 4.525-.147.331-.184.7-.221 1.03 0 .258.331.221.663 0 .994-.441 2.174.81 5.194-2.943 5.636v.037Z" fill="#EEC495"/><path d="M80.462 256.151c2.907.811 2.796 3.168 2.76 5.489-2.502.442-4.93.073-7.248-.921-1.288-1.51-1.251-3.021-.184-4.641 1.582-1.069 3.127-1.069 4.672.073Z" fill="#EFC796"/><path d="M82.302 294.681c1.36 2.026 1.287 4.015.073 6.078-1.287 0-2.686.847-3.716-.627-.809-1.105-3.2-1.436-1.766-3.609 1.803-.627 3.606-1.216 5.409-1.842Z" fill="#F3CD99"/><path d="M84.14 277.221v3.647c-2.023 1.178-3.973 1.804-5.444-.811-1.288-2.284.956-3.131 1.876-4.494.846-.81 1.692-1.068 2.612-.073.331.184.515.442.552.81.037.368.184.663.441.921h-.036Z" fill="#F9DBAD"/><path d="M44.15 274.643c.883-.037 1.802-.111 2.685-.148 1.693-.073 3.57-.11 3.643 2.21.073 2.321-1.766 2.395-3.495 2.395-3.974.147-4.305-.369-2.833-4.457Z" fill="#F2CEA1"/><path d="M72.368 256.409h3.569v4.236c-3.459.479-4.562-1.031-3.569-4.273v.037Z" fill="#F2CE9A"/><path d="M80.536 275.563c1.177 2.247-2.65 2.432-1.877 4.494-1.103-.921-3.09-1.62-2.465-3.315.663-1.915 2.723-1.436 4.342-1.215v.036Z" fill="#FBE5AF"/><path d="M76.893 296.486c-.11 1.547 1.435 2.284 1.766 3.61-.441-.037-.92 0-1.324-.111-1.067-.368-2.907.958-3.128-1.252-.22-1.953 1.766-1.511 2.686-2.21v-.037Z" fill="#E8C692"/><path d="M44.15 274.643c.11 2.025-.736 4.641 2.832 4.457-.846 1.399-2.685.589-3.715 1.62-1.067-.957-.92-2.21-.92-3.462 0-1.032.147-1.989.92-2.726v-.11l.883.221Z" fill="#E5BE95"/><path d="M53.31 262.671c-1.471-.847-3.053-1.657-1.84-3.794 1.399.884 2.54 1.879 1.84 3.794Z" fill="#F0C79C"/><path d="M43.045 277.184c.074 1.179.147 2.358.184 3.536-.625.074-1.214.185-1.84.258v-2.873c.479-.442.736-1.289 1.656-.921Z" fill="#C78467"/><path d="M83.369 276.263a5.21 5.21 0 0 1-.258-.81c.295-.111.552-.184.883-.184 0 .331.037.626.074.957-.22.332-.442.295-.662 0l-.037.037Z" fill="#533327"/><path d="M82.265 313.761c.33 0 .662 0 .993.037-.257.221-.552.479-.81.7-.073-.258-.147-.479-.183-.737Z" fill="#9C654A"/><path d="M241.569 152.46c3.937-.368 7.984.811 11.81-.847 0 1.216-.11 2.431 0 3.647.295 2.799-.92 3.757-3.642 3.683-1.582-.036-3.826-1.105-4.562 1.584h-4.562c-1.546-2.21-.846-4.715-.92-7.109.736-.073 1.435-.221 1.839-.921l.037-.037Z" fill="#C4BCBC"/><path d="M43.045 277.184c-.552.295-1.104.626-1.655.921.184-1.4-.663-3.352 1.84-3.573-.074.884-.111 1.768-.185 2.652Z" fill="#B56857"/><path d="M83.368 276.263h.663c0 .332.036.627.073.958-.552-.074-.883-.331-.772-.958h.037Z" fill="#664D40"/><path d="M111.44 272.653c.589.295 1.214.59 1.803.921 1.14.553 2.465.479 3.642.921 4.893 2.21 9.971 1.842 14.937.553 2.392-.626 4.673-.7 7.064-.553 2.134.111 4.378-.184 2.171 3.058-.773 1.141.294 2.246 1.398 2.21 6.549-.148 9.639 2.32 7.395 9.208-.074.221.515.7.773 1.032-2.281 4.088-5.151 7.661-8.977 10.461-3.054 2.21-5.335 1.547-7.874-1.068-3.863-3.905-5.408-9.43-9.565-13.077-.663-1.657-2.355-1.952-3.643-2.762-.331-.185-.441-.369-.368-.553.111-.184.221-.295.332-.295.883-2.21 2.98-1.547 4.635-2.026 1.104-.294 2.428-.589 2.907-1.878.11-.258-.221-.884-.515-1.068-1.104-.7-2.465-.774-3.348.147-2.355 2.542-5.004 1.731-7.837 1.289-5.739-.884-5.739-.81-4.93-6.483v-.037Z" fill="#C2BDBF"/><path d="M120.527 282.709v.885h-5.518c0-.295 0-.59.037-.885h5.481Z" fill="#ABA9AE"/><path d="M105.222 289.045c.883 0 1.73 0 2.613.037-.663 1.215-1.546 2.21-2.87 2.689.11-.921.184-1.805.294-2.726h-.037Z" fill="#ACA5AE"/><path d="M199.849 92.346c-2.796-7.367 3.679-10.093 7.284-14.145.736-.81 2.502-1.105 3.532.368.479.59 1.031 1.253.957 1.99-.736 6.15 2.281 10.203 7.358 13.076 1.288 3.646 3.495 6.741 6.255 9.43.735 1.362 1.067 2.689.11 4.088-2.575 1.437-5.519 1.253-8.315 1.621-2.391.332-3.936-1.068-4.893-3.168-1.067-2.32-2.134-4.641-3.054-7.035-.846-2.247-2.207-3.905-4.782-4.236-1.582-.48-3.238-.737-4.489-1.99h.037Z" fill="#C4BCBC"/><path d="M268.942 103.212c-3.642 1.694-6.328-.81-9.161-2.284-3.384-1.768-6.585-3.904-9.896-5.856-1.251-.664-2.282-1.769-3.9-1.548-2.429-.368-5.004-.331-6.843-2.394-1.031-3.241-1.472-6.483.515-9.577 1.214-.11 2.465-.221 3.679-.295 2.428.11 4.856.221 7.284.295.994.81 1.398 1.952 1.803 3.094 1.177 3.242 3.127 5.562 6.917 5.452 1.067 0 1.655.626 2.281 1.289 3.09 3.536 5.85 7.293 7.284 11.824h.037Z" fill="#C5BCBC"/><path d="M204.227 93.23c3.017-.184 5.003 1.4 5.629 4.125 1.913 8.472 6.549 12.266 15.305 9.541.883-.221 1.288.331 1.619 1.031.368 1.252.22 2.394-.699 3.389-5.74 1.105-11.516 2.062-17.219 3.425-1.324.332-1.876-.294-2.759-.663 0-2.652-2.906-3.204-3.716-5.23-1.14-2.21.662-2.468 1.987-3.021 4.415-1.915 5.04-4.052 2.539-8.177-.883-1.474-2.944-2.21-2.649-4.384l-.037-.036Z" fill="#C2BDBE"/><path d="M218.649 94.15c-8.315-2.283-8.609-8.693-7.984-15.58 4.562.552 9.235.478 13.613 2.099 3.385 3.573 3.311 5.452-.294 9.172-.846.59-1.877.81-2.723 1.436-1.14.7-1.398 2.284-2.649 2.91l.037-.036Z" fill="#C2BEC0"/><path d="M223.321 89.546c3.017-2.689 2.539-5.71.92-8.877 3.054-.442 6.071-.147 9.087.59 2.134-1.474 4.268-1.437 6.439 0l-.111.294c0 3.241 0 6.483.037 9.724-4.304 2.91-8.719 1.142-13.097.258-1.214-.479-2.502-.847-3.275-2.026v.037ZM204.227 93.23c1.508 1.436 3.201 2.578 4.194 4.604 2.649 5.488 1.803 7.625-4.01 9.025-1.214.294-1.913.699-2.06 1.952-.847-.663-1.73-1.326-2.576-1.989-.846-.774-.993-1.695-.588-2.763.22-1.473-.184-3.02.331-4.494l.331-7.293c1.545-.11 3.053.074 4.415.92l-.037.038Z" fill="#C0BDBD"/><path d="M246.095 49.543v.921h-4.526v-.884h4.562l-.036-.037Z" fill="#9798A0"/><path d="M261.657 91.388c-7.983-.59-9.602-2.026-11.037-9.835 2.686-.516 4.599.294 6.181 2.726 1.545 2.394 3.9 4.273 4.856 7.109Z" fill="#C2B9BA"/><path d="M254.263 151.466c-.294-3.315.772-6.778-.883-9.945h.92c4.562 0 9.124 0 13.686.036 1.214 1.989.809 4.2.883 6.373-.294.295-.626.589-.92.884-4.562.884-9.087 1.805-13.649 2.689l-.037-.037Z" fill="#9B9CA3"/><path d="M226.081 111.316v-3.5c3.311-1.657 6.622-3.573 10.338-.957.699 1.252.626 2.431-.331 3.536l-7.284 1.215c-.92-.11-1.803-.184-2.723-.294Z" fill="#C9C1C1"/><path d="M236.088 110.395v-3.5c.368-.368.809-.552 1.324-.626 1.546.258 2.281.958 1.472 2.542.11 2.321-1.508 1.657-2.759 1.547l-.037.037Z" fill="#D4CACF"/><path d="M238.847 108.848c-.073-1.179-.625-1.879-1.876-1.953-.515-.994.147-1.362.883-1.657.589.258 1.14.516 1.729.81 0 .995.626 2.174-.773 2.8h.037Z" fill="#CDC6C9"/><path d="M155.147 285.435c-1.398 0-2.833-.073-2.685-2.063.036-.589.22-1.215.956-1.326 2.024-.368 1.398 2.063 2.612 2.505-.294.295-.588.59-.919.884h.036ZM317.065 248.968c.147 1.805.073 3.61.478 5.378.552 2.468-.073 3.758-2.575 4.826-2.244.958-4.084 2.873-6.071 4.383-2.759-.294-1.361-3.241-1.214-3.315 3.459-1.437 3.127-4.604 3.679-7.441.221-1.215 1.84-.847 2.796-1.915-5.408-.516-2.317-3.61-2.281-6.888 1.73 2.173 3.164 3.72 4.378.073.81 2.063-.331 3.684.847 4.899h-.037ZM318.868 243.517c3.569-1.731 7.174-2.947 10.964-.479-3.974.479-5.629 7.22-10.964 4.126-.846-1.216-.846-2.432 0-3.647Z" fill="#C2BDBF"/><path d="M311.583 233.498c2.98 2.91 5.482 6.225 7.285 10.019-1.987 0-3.164-.7-4.783-2.284-3.605-3.536-4.01-3.094-2.465-7.735h-.037ZM279.759 249.889v-1.805c.588-.147 1.177-.221 1.729-.405 1.435-.515 2.575-.073 2.465 1.474-.074 1.51-1.361 1.178-2.428.884-.552-.148-1.178-.074-1.766-.111v-.037ZM223.359 270.848c-4.857.111-9.419.406-13.098 4.568-1.84 2.063-5.151 1.363-7.579 0-3.532-1.952-6.843-4.273-10.228-6.409 1.95-3.463 4.341-.995 6.255-.221 2.759 1.105 5.114 1.547 7.395-.7 2.207.368 4.746.221 6.548 1.289 3.164 1.879 3.974.626 4.342-2.21.846-.847 1.986-.737 2.98-.774 1.508-.036 2.98-2.725 4.304-.589.92 1.473.442 3.536-.919 5.01v.036Z" fill="#C2BDBF"/><path d="M206.067 268.123c-.516 4.162-2.944 3.72-5.887 2.578-2.465-.958-4.709-3.462-7.763-1.657-1.472-.037-3.017.147-4.415-.185-1.177-.294-3.642-.957-3.201-1.547 1.03-1.363.699-4.715 3.937-3.72 1.692.995 3.274 2.284 5.445 1.805 2.612-.516 5.224-1.105 7.837-1.547 1.729-.295 3.863-.995 5.113.331 1.178 1.253-1.471 2.395-1.14 3.979l.074-.037ZM223.359 270.848v-5.304c-1.546 3.5-3.974 2.394-6.365 1.658-1.288-5.194-1.178-5.341 4.562-5.452 1.95-.405 4.01-1.657 5.445.921 1.03 1.658 1.766 4.715 3.973.737.515-.921 2.134-.737 2.024.147-.147 1.51 2.244 3.426-.552 4.531-2.318.442-2.612 3.978-5.445 3.646-1.325.148-2.502-.294-3.642-.92v.036ZM151.469 266.281l-.92-1.805c2.428-1.105 4.856-.994 7.284 0 2.723 1.326 5.446 1.326 8.205 0 2.134-1.215 4.231-1.215 6.365 0 .588 4.826-2.98 3.426-5.445 3.647-2.796-1.768-5.924-.553-8.867-.921-2.207-.258-4.562.626-6.586-.921h-.036Z" fill="#C2BDBF"/><path d="M151.469 266.281h12.03c1.435 0 3.128-.368 3.422 1.805H154.89c-1.435 0-3.127.368-3.421-1.805ZM245.617 264.476c-3.532.111-5.187 4.973-9.271 3.463 2.244-3.242 5.224-4.752 9.271-3.463ZM202.351 257.625c1.766-2.652 4.231-2.542 6.769-1.916.442.111.92.811.993 1.289.184.774-.588 1.032-1.14 1.032-2.171 0-4.341 1.621-6.622-.405ZM277.846 249.226c-.037 1.105-.515 2.174-1.398 2.026-1.766-.294-2.502-1.952-2.833-3.462-.294-1.253.993-1.989 1.95-1.842 1.729.295 1.803 2.063 2.281 3.278ZM116.922 274.495c-1.73 1.768-2.723.553-3.643-.921.883-1.289 1.803-2.578 2.76-3.941 1.508 1.473 1.95 3.02.883 4.862ZM227.001 271.733c2.06-.848 2.097-4.752 5.445-3.647-1.214 2.1-.736 6.814-5.445 3.647ZM157.833 264.476h-7.284c2.354-1.731 2.428-1.989 3.642-1.621 1.251.369 3.091-.331 3.642 1.621ZM172.403 264.476h-6.365c2.134-2.726 4.231-2.726 6.365 0ZM227.001 262.634c-1.693-1.068-3.569-.921-5.445-.921 4.893-2.504 5.187-2.468 5.445.921ZM194.219 265.36c-2.501 1.437-4.267.663-5.445-1.805 2.098-.221 3.68 1.032 5.445 1.805ZM255.182 269.007c-.11 1.473-.736 2.578-2.759 3.204.846-1.473-1.84-3.094.956-4.088.442.626 1.398.258 1.803.921v-.037ZM180.57 263.555c1.067-.479 2.649-1.363 2.98.184.552 2.431-1.287.811-2.134.811-.588 0-1.177-.074-1.766-.111-.22-.81-.036-1.252.92-.921v.037Z" fill="#C2BDBF"/><path d="M255.183 269.007c-.736 0-1.435-.184-1.803-.921 1.582-.516 3.201-1.031 5.261-1.695-.699 2.137-2.539 1.769-3.458 2.616ZM136.016 266.281l-.919-1.805c1.03-.331 2.391-1.621 3.053-.295.663 1.363-1.324 1.474-2.134 2.137v-.037ZM190.43 272.543c-.441.368-.699.773-.993.81-.331.037-.957-.147-1.067-.405-.258-.663.221-1.068.846-1.031.331 0 .662.331 1.177.663l.037-.037ZM146.097 265.544c.294.516.662.847.662 1.179 0 .626-.331 1.142-.993.921-.258-.074-.442-.7-.442-1.068 0-.295.405-.59.773-1.032ZM180.571 263.555l-.92.921c-.699-.147-1.803-.295-1.288-1.216.589-.994 1.545-.515 2.171.295h.037ZM299.001 78.68c3.164-.516 4.746.994 4.415 4.604-.111 1.032-.074 2.431 1.324 2.505 3.495.147 4.194 2.8 5.151 5.304.441 1.105 1.361 1.953 2.391 1.437 1.509-.737.736-1.584-.294-2.32-1.214-.848-.589-1.437.405-1.88 1.655-.736 3.458-.994 4.267.958.736 1.768.736 3.72 1.803 5.489.883 1.473-.515 1.915-1.876 2.136-5.666.847-9.529 4.641-13.355 8.435-1.84 1.805 0 3.721.404 5.489.295 1.326 1.067 2.652-.368 3.683-1.398.995-2.133-.589-3.164-1.031-3.679-1.473-4.856-4.162-4.01-7.956.699-3.168-1.067-7.036 3.091-9.172 1.177-.627.184-1.842-.81-2.431-2.134-1.29-2.354-3.316-2.281-5.526.074-1.62-.037-3.204-.846-4.788-1.987-3.905-1.177-4.936 3.753-4.9v-.036ZM336.748 139.568v7.33c-1.876-2.983-1.876-5.083 0-7.33ZM328.691 194.489c1.214-.11 1.803.295 1.84 1.179.037.7-.442 1.216-1.104 1.031-.625-.184-1.177-.773-1.766-1.178.368-.405.773-.811.994-1.032h.036ZM335.718 193.458c2.023 1.584.92 3.094 1.141 4.42-.92-1.142-1.803-2.32-1.141-4.42ZM321.517 192.169c-.883-.037-1.362-.626-1.546-1.363-.147-.59-.22-1.326.699-1.253.773.037 1.472.442 1.656 1.29.147.626 0 1.178-.773 1.326h-.036ZM329.795 213.423c.147-1.437-.516-3.095.735-4.236 1.288-1.142 2.796-1.474 4.562-.811 2.465.921.663 2.8 1.067 4.163-1.361 1.105-3.2-.185-4.562.884h-1.802Z" fill="#C2BDBF"/><path d="M331.598 213.423c1.287-1.474 3.017-.663 4.562-.884h1.839c-1.95 1.694-4.267.589-6.401.847v.037Z" fill="#B1AFB4"/><path d="M286.124 271.733c.404-.737 1.067-.885 1.802-.921.184 3.094 2.797 3.389 5.041 4.199-3.422 2.063-4.231 1.657-6.88-3.278h.037ZM336.601 241.27c.846 1.878.405 3.868-.147 5.93-.331-1.915-.699-3.83-1.03-5.746l1.177-.184Z" fill="#C2BDBF"/><path d="M224.278 103.175c3.017.332 6.144-.331 9.051.847 1.545.221 3.274-.073 4.525 1.216l-.883 1.657h-.92c-3.458-1.178-6.585 1.511-10.007.921-.294-.294-.625-.589-.92-.921l-.883-3.757.037.037Z" fill="#C8BFC4"/></g><defs><clipPath id="a"><path fill="#fff" d="M0 0h360v354.833H0z"/></clipPath></defs></svg>