<svg xmlns="http://www.w3.org/2000/svg" width="434" height="471"><path d="m231.64 147.855 4.427-.01c3.992-.01 7.984-.012 11.976-.012l7.503-.006c8.743-.009 17.486-.013 26.23-.012 8.118 0 16.236-.01 24.355-.026 6.995-.013 13.99-.018 20.984-.018 4.167 0 8.333-.002 12.5-.013 3.925-.01 7.85-.01 11.775-.003 1.43.002 2.858 0 4.288-.007 16.01-.064 33.352.525 45.576 12.24 13.581 15.648 13.047 35.869 13.005 55.382l.01 6.415c.01 5.777.006 11.555 0 17.332-.005 6.071 0 12.143.002 18.215.004 10.2 0 20.4-.01 30.6-.011 11.749-.008 23.499.003 35.248.01 10.125.01 20.25.006 30.374-.004 6.03-.004 12.06.003 18.091.005 5.679.001 11.357-.01 17.035-.003 2.07-.002 4.138.002 6.207.02 9.876-.143 19.658-1.144 29.49l-.23 2.282c-1.577 13.77-6.406 24.933-16.954 34.091-14.841 10.879-33.77 10.551-51.296 10.48h-5.878c-4.084-.002-8.169-.01-12.254-.024-5.22-.017-10.44-.021-15.661-.02-4.038 0-8.075-.006-12.112-.013l-5.775-.006c-2.69-.002-5.382-.011-8.073-.022l-2.378.002c-4.92-.029-9.634-.488-14.51-1.147-2.27-.041-4.542-.042-6.813 0-4.154.035-8.184-.032-12.312-.5-6.316-.682-12.627-.551-18.971-.463l-2.525.025-2.264.036C223 469 223 469 221.12 468.496c-2.845-.666-5.488-.55-8.408-.496-7.734.056-15.377-.42-23.086-1l-4-.29c-3.209-.232-6.417-.469-9.625-.71 3.045-2.03 4.609-2.462 8.136-3.069l3.225-.565 3.541-.597 3.733-.646c3.39-.584 6.78-1.162 10.171-1.735 2.135-.361 4.27-.724 6.404-1.087 6.721-1.142 13.444-2.279 20.168-3.407 6.92-1.16 13.836-2.334 20.75-3.529 8.89-1.536 17.784-3.048 26.684-4.525l2.183-.363c19.552-3.232 38.707-5.67 58.567-5.252 9.396.031 18.265-2.93 25.461-9.053 11.045-12.136 9.13-28.505 9.138-43.767l.015-5.591c.013-5.033.02-10.066.024-15.098.003-3.147.007-6.294.012-9.44.013-9.855.023-19.71.027-29.563.004-11.363.022-22.724.05-34.086.022-8.798.033-17.596.034-26.394.001-5.249.007-10.498.025-15.748.016-4.93.018-9.86.01-14.791-.001-1.809.003-3.617.013-5.425.013-2.47.007-4.939-.004-7.408l.025-2.165c-.046-4.626-.96-7.767-3.392-11.696-4.572-4.03-8.504-4.565-14.392-4.454l-2.485-.002a760.46 760.46 0 0 0-8.084.065c-1.875.008-3.75.014-5.624.018-4.922.015-9.844.054-14.766.098-5.028.041-10.055.06-15.083.08-9.855.043-19.71.11-29.566.195l-1 2-4 4c-1.488 2.977-1.166 5.699-1.205 9.02l-.03 2.188c-.032 2.392-.057 4.783-.081 7.175l-.063 4.969c-.056 4.363-.105 8.726-.153 13.089-.05 4.45-.106 8.901-.161 13.352-.108 8.736-.21 17.471-.307 26.207a91.988 91.988 0 0 1-14.938 1.062l-2.072-.013c-1.663-.012-3.327-.03-4.99-.049-.863-5.176-1.124-10.177-1.066-15.426l.014-2.462c.01-1.752.023-3.504.038-5.256.022-2.774.036-5.548.048-8.323.033-7.884.075-15.768.137-23.652.038-4.832.061-9.664.075-14.496.008-1.838.021-3.676.04-5.514.027-2.568.035-5.135.039-7.704l.037-2.292c-.017-4.479-.618-7.303-3.362-10.875-4.713-3.445-11.278-2.41-16.844-2.426a337.67 337.67 0 0 1-6.248-.111l-3.998-.022-3.652-.04c-4.32.794-5.568 2.155-8.258 5.599-.48 2.995-.656 5.412-.6 8.399l-.011 2.524c-.007 2.747.022 5.491.052 8.237.005 1.912.007 3.823.007 5.734.007 4.003.03 8.004.065 12.007.045 5.13.06 10.26.064 15.39.004 3.946.02 7.891.039 11.837.008 1.891.015 3.783.02 5.675.009 2.643.031 5.285.058 7.928 0 .782 0 1.564.002 2.37.06 5.268.06 5.268 2.304 9.899 3.501 1.888 6.556 2.296 10.5 2.312l2.781.051c3.439-.46 5.055-1.107 7.719-3.363.482-2.995.631-5.417.559-8.41l-.007-2.548c-.01-1.79-.032-3.58-.065-5.37a501.586 501.586 0 0 1-.067-8.018c-.086-12.918-.664-25.992-3.42-38.654h-5c-.446 22.395-.446 22.395 2.555 44.527.496 2.756.613 5.361.632 8.16l.043 2.887C227 281 227 281 225 283c-2.566.23-2.566.23-5.563.187l-3.003-.019C214 283 214 283 213 282c-.122-2.498-.179-4.97-.193-7.47l-.025-2.37c-.025-2.6-.041-5.2-.055-7.8l-.017-2.687c-.026-4.694-.046-9.387-.06-14.08-.017-4.851-.061-9.7-.112-14.55-.034-3.728-.046-7.454-.051-11.18a557.208 557.208 0 0 0-.046-5.364 482.02 482.02 0 0 1-.024-7.512l-.05-2.236c.048-3.961.504-5.593 3.05-8.7 5.595-4.442 12.719-3.52 19.583-3.051 3.69.852 6.246 2.196 8.875 5 1.965 3.493 2.253 6.285 2.265 10.215l.018 3.275.003 3.594.015 3.785c.012 3.43.02 6.86.024 10.29.003 2.148.007 4.295.012 6.442.013 6.729.023 13.457.027 20.186.004 7.746.022 15.49.05 23.236.023 5.999.033 11.997.034 17.996.001 3.576.007 7.152.025 10.728.02 4.002.015 8.003.008 12.005l.028 3.538c-.074 14.747-4.156 26.914-14.384 37.71h-2l-2 2c-6.393 2.338-12.637 3.175-19.422 3.086l-3.753-.038L202 368l.063 3.421c.073 4.23.119 8.461.157 12.692.02 1.824.047 3.647.082 5.47.244 13.132.09 23.657-9.368 33.726-5.854 5.12-12.263 6.82-19.896 6.805h-3.64l-3.914-.016-4.018-.005c-3.518-.003-7.036-.013-10.554-.024-3.593-.01-7.186-.015-10.78-.02-7.043-.01-14.088-.028-21.132-.049-.5-1.255-.992-2.514-1.482-3.773l-.833-2.123c-1-3.071-.973-5.895-.873-9.104l.083-3.438L116 409h2l.187-1.688c1.165-3.313 3.208-5.017 5.813-7.312 2.773-.924 4.523-1.143 7.392-1.19l2.68-.05 2.889-.041 2.978-.056c3.145-.059 6.29-.112 9.436-.163 4.133-.068 8.266-.141 12.398-.219l2.877-.04 2.7-.052 2.36-.038c2.497-.165 4.849-.612 7.29-1.151v-2h2c1.498-6.414 1.224-12.884 1.25-19.438l.062-3.97.016-3.838.028-3.49c-.4-3.658-1.536-6.092-3.356-9.264h-2v-2c-4.912.069-9.823.157-14.734.262-1.67.034-3.34.062-5.01.084-2.404.034-4.806.086-7.21.142l-2.257.02c-3.081.087-5.454.324-8.23 1.711-2.955 3.375-2.675 7.422-2.7 11.722l-.058 2.768a348.076 348.076 0 0 0-.055 5.719c-.182 6.79-.182 6.79-2.637 10.197-4.557 2.015-8.681 1.918-13.609 1.812l-2.84.022c-8.8-.081-8.8-.081-12.66-3.459-3.283-5-2.334-11.242-2.316-16.997.003-2.1-.02-4.2-.045-6.3-.087-17.935-.087-17.935 6.048-24.64 7.386-4.6 13.432-5.5 21.952-5.404h3.136c3.398.001 6.796.024 10.194.048a5298.014 5298.014 0 0 1 25.718.087c6.341.03 12.683.044 19.024.06 12.43.032 24.86.083 37.289.146-.139-3.271-.287-6.542-.438-9.813l-.119-2.814-.127-2.705-.11-2.491c-.14-2.356-.14-2.356-1.206-5.177h-32l-.076-8.638c-.084-9.448-.172-18.895-.263-28.343-.055-5.724-.109-11.449-.158-17.174-.048-5.53-.1-11.061-.156-16.592-.02-2.104-.039-4.207-.056-6.311-.012-17.911-.012-17.911-2.354-35.63-2.086-12.158-2.561-25.355 4.25-36.125 5.327-6.782 12.837-9.377 21.117-10.725 6.418-.769 12.882-.61 19.335-.607Z" fill="#E5D9BF"/><path d="m17.204-.193 2.607-.025c2.86-.025 5.72-.041 8.58-.055l2.953-.017c5.16-.026 10.321-.046 15.482-.06 5.334-.017 10.668-.062 16.003-.112 4.097-.034 8.194-.046 12.291-.051 1.967-.007 3.933-.022 5.9-.046 2.753-.032 5.505-.032 8.258-.024l2.463-.05c4.273.047 5.792.256 9.242 3.044 2.516 3.229 3.14 4.769 3.222 8.763l.06 2.609.051 2.819.063 2.883c.066 3.047.125 6.093.184 9.14l.13 6.187c.108 5.063.209 10.125.307 15.188l3.188-1.938c7.052-4.012 15.128-3.613 23.062-4.125l2.064-.135C146.548 42.944 159.74 42.767 173 43c1.442 4.839-.227 7.255-2.543 11.594-3.078 5.084-6.815 8.49-12.457 10.406-5.446.24-9.978-.906-14.937-3.063-5.307-2.08-10.182-2.348-15.813-2.375l-2.437-.029c-5.314.075-9.066 1.074-13.813 3.467-.072 2.316-.072 2.316 1 5 2.253 2.158 4.834 3.794 7.438 5.5 1.551 1.055 3.102 2.11 4.652 3.168l2.445 1.65c4.041 2.758 8.003 5.623 11.965 8.494l2.29 1.656C154.154 98.153 154.154 98.153 157 101c.087 2.141.104 4.285.094 6.428l-.008 4.178-.009 2.25c-.011 3.924.01 7.848.025 11.773.018 4.997.027 9.994-.002 14.99-.023 4.035-.011 8.069.023 12.103.006 1.535 0 3.07-.018 4.605-.325 8.472-.325 8.472 2.511 16.216 1.71 1.724 3.349 3.141 5.384 4.457l-1 2c-1.992.29-3.987.573-5.992.754-2.211.204-2.211.204-5.008 1.246-2.247.203-4.498.365-6.75.5l-3.793.262a948.82 948.82 0 0 1-5.758.383c-5.325.507-8.053 3.21-11.699 6.855-1.092.849-2.199 1.68-3.312 2.5a480.702 480.702 0 0 0-7.895 5.977l-1.708 1.322c-1.114.864-2.228 1.73-3.34 2.597-6.948 5.381-6.948 5.381-10.745 7.604l-3-1v-2l-2.437-.875C90 205 90 205 89 203l-3-1-2-2c-1.564-1.39-3.142-2.765-4.773-4.074C77 194 77 194 74.773 191.418c-9.133-9.2-19.822-8.527-32.052-8.572A478.82 478.82 0 0 0 32 183c1.11-2.498 2.16-4.17 4.052-6.184 2.51-3.63 2.42-5.8 2.37-10.189l-.008-2.195c-.013-2.384-.053-4.767-.094-7.15-.012-1.663-.023-3.326-.031-4.988-.027-4.371-.076-8.742-.13-13.113-.087-6.996-.147-13.992-.193-20.988-.02-2.44-.055-4.88-.09-7.32l-.04-4.5-.05-3.958c.209-3.333.62-5.497 2.214-8.415 3.07-1.965 3.07-1.965 4.962-2.94 2.17-1.129 4.214-2.38 6.28-3.689l2.268-1.43c1.616-1.027 3.23-2.058 4.84-3.09 4.18-2.676 8.37-5.29 12.67-7.765l2.38-1.416c1.492-.885 2.998-1.745 4.52-2.576C79.965 69.853 81.485 68.858 83 67c.594-3.095.448-5.893 0-9-21.878-.833-21.878-.833-43 4-3.11 1.036-5.616 1.04-8.867.937-2.2-.003-2.2-.003-4.555.606-5.79 1.027-12.326-.614-17.515-3.293C4.02 56.545 1.398 52.059 0 46c-.15-3.341-.119-6.658 0-10 6.166-3.426 11.12-3.232 18-2l2 1c14.546 1.634 29.372 1.316 43.985 1.532 3.393.051 6.786.106 10.18.161 6.611.106 13.223.208 19.835.307a375.706 375.706 0 0 0-.312-5.813l-.176-3.269C92.967 24.812 92.53 23.805 90 22c-2.061-.337-2.061-.337-4.309-.11l-2.513.153-2.615.207-2.604.16c-3.788.253-7.28.642-10.959 1.59-1.416.043-2.834.04-4.25 0-3.019-.04-5.886.081-8.875.5-3.683.475-7.169.5-10.875.5l-2.781.496c-3.42.536-6.634.602-10.094.566l-3.492-.027L24 26v-2l-2.687-.25c-3.89-.88-5.539-1.9-8.313-4.75C9.923 13.416 8.657 7.327 8 1c2.051-2.051 6.382-1.178 9.204-1.193ZM307.586 211.602l3.324-.01c2.311-.001 4.623.004 6.934.017 3.513.016 7.025 0 10.539-.02 2.255.003 4.51.007 6.765.013l3.148-.019c7.028.067 15.025.34 20.65 5.044 5.358 5.595 6.299 12.175 6.345 19.742l.02 2.122c.019 2.293.023 4.586.025 6.88l.02 4.823c.012 3.361.016 6.722.015 10.084 0 4.291.027 8.582.061 12.874.022 3.317.026 6.635.025 9.952.003 1.582.012 3.163.027 4.745.14 15.76.14 15.76-4.484 22.151-3.897 3.404-7.74 3.403-12.707 3.293l-2.198-.013a738.086 738.086 0 0 1-6.908-.092c-1.567-.016-3.134-.03-4.7-.042-3.83-.032-7.658-.084-11.487-.146.599 2.352 1.27 4.686 2 7 2.978 1.49 6.04 1.177 9.309 1.21l4.45.087c2.342.041 4.684.078 7.025.104 2.259.028 4.516.074 6.775.122l2.121.01c2.858.073 4.857.15 7.251 1.791 2.913 4.569 1.85 11.52 1.069 16.676-1.874 3.3-4.044 5.64-7 8l-3.438-2.938-1.933-1.652A49.663 49.663 0 0 1 348 341a61.25 61.25 0 0 0-4.177-.158l-2.693-.03-2.939-.023-6.142-.086a2159.64 2159.64 0 0 0-9.696-.104c-3.117-.028-6.233-.074-9.35-.122l-2.882-.01c-7.754-.14-17.015-1.259-23.121-6.467-3.972-5.872-4.608-11.291-4.641-18.236l-.06-3.01c-.06-3.261-.091-6.523-.12-9.785-.03-2.279-.06-4.558-.093-6.836-.061-4.768-.108-9.535-.145-14.303-.049-6.1-.143-12.2-.25-18.299-.076-4.703-.124-9.405-.164-14.109a779.813 779.813 0 0 0-.098-6.746 612.818 612.818 0 0 1-.082-9.44c-.024-.921-.05-1.843-.074-2.793.038-5.911 1.354-9.264 5.08-13.86 5.78-5.558 13.71-5.025 21.233-4.981Z" fill="#E4D9BF"/><path d="M107 322a86.5 86.5 0 0 1 7 7c-1.924 2.027-3.514 3.317-5.938 4.813-4.207 3.005-6.434 6.303-8.062 11.187-.11 2.818-.164 5.611-.168 8.43l-.01 2.507c-.005 1.75-.007 3.5-.007 5.25-.002 2.67-.02 5.341-.04 8.012-.003 1.702-.005 3.404-.005 5.106l-.022 2.412c.014 3.442.075 5.855 1.407 9.072.845 2.211.845 2.211.046 4.276l-1.447 2.001-1.537 2.221-1.654 2.276a359.01 359.01 0 0 0-3.184 4.503l-1.451 1.999c-1.124 1.902-1.124 1.902-.677 4.065.996 2.487 2.42 3.794 4.374 5.62 2.765 2.657 5.384 5.335 7.875 8.25 3.061 3.582 6.357 6.83 9.8 10.043C115 433 115 433 117 438l-11 7 13 10c-3.753 7.506-12.195 12.252-20 15-16.204 2.97-36.03 3.726-50.188-5.563-3.548-3.075-3.74-4.493-4.093-9.125-.116-2.168-.22-4.338-.324-6.507C44.226 445.66 44 443.003 43 440l-21-1-1-6 2.216-.044c3.324-.075 6.648-.171 9.971-.269l3.487-.068 3.369-.107 3.094-.08c3.38-.51 5.256-1.207 7.863-3.432.69-2.794.69-2.794.488-5.98l-.038-3.177c-.045-1.33-.09-2.66-.138-4.03L51 403l-33-1v-11l2.491-.044c3.733-.075 7.464-.171 11.197-.269l3.92-.068 3.779-.107 3.475-.08c3.488-.48 5.367-1.28 8.138-3.432 1.784-2.908 2.257-5.118 2.29-8.506l.04-2.68.006-2.873.02-2.973c.01-2.074.015-4.148.015-6.221.004-3.17.04-6.338.078-9.507.006-2.016.01-4.032.012-6.049l.043-2.866c-.03-4.273-.109-6.676-2.372-10.39-2.43-2.206-4.214-2.956-7.382-3.748l-2.703-.707L39 330c2.117-4.01 4.39-6.292 8-9l1.313-1.426C65.279 303.747 90.334 309.584 107 322Zm-32 85-8 18 7.813-1.875 2.448-.578c3.381-.829 5.817-1.6 8.739-3.547a2364.669 2364.669 0 0 0-4.938-6l-1.42-1.734A223.663 223.663 0 0 0 76 407h-1Zm15 31-8 14h20c-2.267-3.779-4.236-6.598-7.125-9.813l-2.133-2.394L91 438h-1Zm-32 1a1223.098 1223.098 0 0 0-3 5.375l-1.688 3.023C51.85 449.812 51.85 449.812 52 452h18l-4-6h-2l-.875-1.813c-1.172-2.38-1.172-2.38-3.125-5.187h-2Z" fill="#E5D9BF"/><path d="m128.397 330.644 3.064-.007c3.33-.003 6.659.016 9.988.035 2.337.003 4.675.005 7.012.006 4.901.004 9.803.019 14.704.04 6.224.029 12.448.04 18.672.044 5.995.006 11.991.02 17.987.035l3.384.006c14.292.03 28.522.383 42.792 1.197-1.392 12.118-5.263 22.263-14 31h-2l-2 2c-6.393 2.338-12.637 3.175-19.422 3.086l-3.753-.038L202 368l.063 3.421c.073 4.23.119 8.461.157 12.692.02 1.824.047 3.647.082 5.47.244 13.132.09 23.657-9.368 33.726-5.854 5.12-12.263 6.82-19.896 6.805h-3.64l-3.914-.016-4.018-.005c-3.518-.003-7.036-.013-10.554-.024-3.593-.01-7.186-.015-10.78-.02-7.043-.01-14.088-.028-21.132-.049-.5-1.255-.992-2.514-1.482-3.773l-.833-2.123c-1-3.071-.973-5.895-.873-9.104l.083-3.438L116 409h2l.187-1.688c1.165-3.313 3.208-5.017 5.813-7.312 2.773-.924 4.523-1.143 7.392-1.19l2.68-.05 2.889-.041 2.978-.056c3.145-.059 6.29-.112 9.436-.163 4.133-.068 8.266-.141 12.398-.219l2.877-.04 2.7-.052 2.36-.038c2.497-.165 4.849-.612 7.29-1.151v-2h2c1.498-6.414 1.224-12.884 1.25-19.438l.062-3.97.016-3.838.028-3.49c-.4-3.658-1.536-6.092-3.356-9.264h-2v-2c-4.912.069-9.823.157-14.734.262-1.67.034-3.34.062-5.01.084-2.404.034-4.806.086-7.21.142l-2.257.02c-3.081.087-5.454.324-8.23 1.711-2.955 3.375-2.675 7.422-2.7 11.722l-.058 2.768a348.076 348.076 0 0 0-.055 5.719c-.182 6.79-.182 6.79-2.637 10.197-4.557 2.015-8.681 1.918-13.609 1.812l-2.84.022c-8.8-.081-8.8-.081-12.66-3.459-3.283-5-2.334-11.242-2.316-16.997.003-2.1-.02-4.2-.045-6.3-.087-17.935-.087-17.935 6.048-24.64 7.297-4.544 13.293-5.502 21.71-5.42Z" fill="#DEA65A"/><path d="M184 192v114l-12 1-4 1a99.873 99.873 0 0 1-4.988-.004c-5.036-.047-9.945.296-14.956.767-11.746 1.085-23.341 1.38-35.119 1.05l-2.047-.045c-12.467-.294-21.783-1.846-31.515-9.955-8.384-9.93-8.687-23.068-8.57-35.481l.008-3.518c.011-3.667.036-7.334.062-11.002.01-2.503.02-5.006.027-7.51.022-6.1.056-12.201.098-18.302 3.937 1.82 6.633 4.376 9.64 7.445l1.598 1.606c1.675 1.687 3.344 3.38 5.012 5.074l3.414 3.441c2.784 2.806 5.562 5.619 8.336 8.434 3.125-1.488 5.26-3.015 7.688-5.5l1.824-1.844c1.571-1.601 1.571-1.601 2.488-3.656h2v-2h2v-2h2v-2h2v-2h2v-2h2v-2h2v-2h2v-2c1.715-1.727 1.715-1.727 3.938-3.625l2.214-1.914C135 216 135 216 136 216l.044 3.988c.058 4.915.136 9.83.218 14.744.034 2.12.062 4.242.084 6.363.034 3.061.087 6.122.142 9.182l.02 2.842c.128 5.86.655 11.636 3.492 16.881 5.326 2.663 12.321 3.064 18.094 1.395 3.636-1.4 3.636-1.4 5.906-4.395h2l.004-2.293c.018-7.165.06-14.328.128-21.492.034-3.682.06-7.364.064-11.047.004-3.56.033-7.119.077-10.679.02-2.005.014-4.01.008-6.016.136-8.592 1.442-14.628 7.197-21.147C176.82 191.414 179.5 192 184 192Z" fill="#E4D9BF"/><path d="m17.204-.193 2.607-.025c2.86-.025 5.72-.041 8.58-.055l2.953-.017c5.16-.026 10.321-.046 15.482-.06 5.334-.017 10.668-.062 16.003-.112 4.097-.034 8.194-.046 12.291-.051 1.967-.007 3.933-.022 5.9-.046 2.753-.032 5.505-.032 8.258-.024l2.463-.05c4.273.047 5.792.256 9.242 3.044 2.516 3.229 3.14 4.769 3.222 8.763l.06 2.609.051 2.819.063 2.883c.066 3.047.125 6.093.184 9.14l.13 6.187c.108 5.063.209 10.125.307 15.188l3.188-1.938c7.052-4.012 15.128-3.613 23.062-4.125l2.064-.135C146.548 42.944 159.74 42.767 173 43c1.442 4.839-.227 7.255-2.543 11.594-3.078 5.084-6.815 8.49-12.457 10.406-5.446.24-9.978-.906-14.937-3.063-5.307-2.08-10.182-2.348-15.813-2.375l-2.437-.029c-5.274.075-9.247.736-13.813 3.467l-1 5H85c-1.996-3.991-2.195-5.7-2-10-21.878-.833-21.878-.833-43 4-3.11 1.036-5.616 1.04-8.867.937-2.2-.003-2.2-.003-4.555.606-5.79 1.027-12.326-.614-17.515-3.293C4.02 56.545 1.398 52.059 0 46c-.15-3.341-.119-6.658 0-10 6.166-3.426 11.12-3.232 18-2l2 1c14.546 1.634 29.372 1.316 43.985 1.532 3.393.051 6.786.106 10.18.161 6.611.106 13.223.208 19.835.307a375.706 375.706 0 0 0-.312-5.813l-.176-3.269C92.967 24.812 92.53 23.805 90 22c-2.061-.337-2.061-.337-4.309-.11l-2.513.153-2.615.207-2.604.16c-3.788.253-7.28.642-10.959 1.59-1.416.043-2.834.04-4.25 0-3.019-.04-5.886.081-8.875.5-3.683.475-7.169.5-10.875.5l-2.781.496c-3.42.536-6.634.602-10.094.566l-3.492-.027L24 26v-2l-2.687-.25c-3.89-.88-5.539-1.9-8.313-4.75C9.923 13.416 8.657 7.327 8 1c2.051-2.051 6.382-1.178 9.204-1.193Z" fill="#DD5C48"/><path d="M97 117c2.809 1.287 4.928 2.659 7.164 4.785l1.711 1.608c.578.55 1.155 1.102 1.75 1.67 3.868 3.903 3.868 3.903 8.375 6.937v2l1.614.69c6.008 3.299 12.887 8.641 15.058 15.403.81 4.653.74 9.27.508 13.973-.119 2.46-.144 4.909-.155 7.371a679.477 679.477 0 0 1-.115 4.72l-.036 2.209c-.211 3.763-.563 5.332-3.306 8L127 188l-2 2c-1.092.849-2.199 1.68-3.313 2.5a480.702 480.702 0 0 0-7.894 5.977l-1.708 1.322c-1.114.864-2.228 1.73-3.34 2.597-6.948 5.381-6.948 5.381-10.745 7.604l-3-1v-2l-2.438-.875C90 205 90 205 89 203l-3-1-2-2-2.813-2.5-1.852-1.651c-2.394-1.982-2.394-1.982-5.542-3.739-8.724-5.312-8.724-5.312-10.54-10.066-.948-4.583-.891-9.138-.673-13.795.108-2.447.102-4.876.082-7.325.108-11.078.108-11.078 2.93-15.313 2.037-1.765 4.142-3.159 6.408-4.611 1.366-1.278 2.7-2.592 4-3.938l2-2.023L80 133c4.658-4.75 9.386-9.316 14.434-13.652A46.45 46.45 0 0 0 97 117Z" fill="#575138"/><path d="M341 341c6 0 6 0 8.117 1.531l1.758 1.969 1.805 1.969L354 348c3.44-1.53 6.092-3.628 9-6 .093 7.537.164 15.074.207 22.612.021 3.5.05 7 .095 10.502.052 4.033.071 8.067.089 12.1l.062 3.77c.002 7.031-.444 13.044-4.453 19.016-4.5 3.674-8.141 5.107-13.883 5.19l-3.003.05-3.239.041-3.329.056c-4.707.079-9.415.146-14.122.215-3.433.052-6.866.11-10.299.167l-3.239.04-3.003.052-2.644.038c-2.41.068-2.41.068-5.239 1.151a78.83 78.83 0 0 1-5.063-.438c-5.335-.554-10.577-.667-15.937-.562-2.239 5.451-3.476 10.132-4 16a90.488 90.488 0 0 1-4-4v-2l-2-1c-1.274-7.179-1.274-7.179 0-11l-2.313-.813c-2.56-1.131-3.884-2.1-5.687-4.187-3.378 2.61-4.231 5.965-5 10-.222 3.153-.191 6.28-.125 9.438l.027 2.505c.024 2.02.06 4.038.098 6.057-3.585-2.39-4.097-3.998-5.688-7.938l-1.324-3.214C245 423 245 423 245 420l-2-1c-1.166-4.548-.913-8.446-.25-13.063l.484-3.597c1.046-4.56 2.34-7.435 6.328-9.965L252 391l2-3c2.778-.316 5.339-.437 8.122-.432l2.542-.031c2.782-.03 5.562-.04 8.344-.049l5.776-.054c5.073-.048 10.146-.077 15.22-.104 6.084-.035 12.168-.092 18.252-.145 9.248-.079 18.496-.13 27.744-.185l1-46ZM8.324 330.696l2.63.003 2.705-.013c1.893-.006 3.786-.006 5.68-.002 2.886.003 5.77-.02 8.657-.045 1.84-.003 3.68-.003 5.52-.002l2.604-.028c6.315.048 10.38 1.168 15.222 5.473 2.385 4.198 2.232 7.85 2.19 12.602l.01 2.827c.004 1.97-.004 3.939-.02 5.908-.022 3.005 0 6.008.025 9.013a2116.22 2116.22 0 0 1-.016 5.752l.025 2.708c-.082 5.492-.778 8.828-4.556 13.108-3.642 2.895-8.296 2.324-12.746 2.336l-2.57.02c-1.791.01-3.583.015-5.374.015-2.735.004-5.468.04-8.203.078-1.742.006-3.485.01-5.228.012l-2.469.043c-3.999-.032-5.944-.208-9.402-2.408-2.97-3.1-3.135-4.788-3.153-8.973l-.02-3.074-.003-3.33-.01-3.408c-.005-2.38-.007-4.76-.007-7.142-.002-3.654-.02-7.308-.04-10.962-.003-2.309-.005-4.617-.005-6.926l-.022-3.33.01-3.074-.005-2.714c.583-5.104 4.315-4.416 8.57-4.467Z" fill="#DDA65A"/><path d="M159 188c-2.959 3.979-6.127 7.021-10 10.125-13.78 11.05-26.987 23.567-38.402 37.055-3.022 3.443-6.322 6.62-9.598 9.82-2.839-1.287-4.848-2.614-7.005-4.857l-1.69-1.74-1.793-1.872a8272.666 8272.666 0 0 0-3.83-3.918c-2-2.055-3.996-4.114-5.984-6.182a907.841 907.841 0 0 0-5.811-5.962l-1.775-1.872C69.215 214.653 66.386 213.235 61 212c-1.188-2-1.188-2-2-4-1.782-1.142-1.782-1.142-4-2l-6-3v-2l-2.688-.688c-3.81-1.51-5.582-3.294-8.312-6.312a719.667 719.667 0 0 0-4-4c4.498-.225 8.993-.387 13.495-.494a206.92 206.92 0 0 0 4.576-.185c8.26-.415 14.387-.608 21.085 4.859A187.611 187.611 0 0 1 78 199a170.89 170.89 0 0 0 3.637 3.074l1.547 1.326a678.833 678.833 0 0 0 4.796 4.06 485.675 485.675 0 0 1 5.446 4.642l2.074 1.71 1.719 1.458c1.85.963 1.85.963 4.183.14 2.973-1.614 5.185-3.481 7.66-5.785l2.536-2.336a135.829 135.829 0 0 0 4.586-4.578C118 201 118 201 120 201v-2c5.154-6.208 10.236-9.364 18.13-10.344 6.963-.61 13.883-.705 20.87-.656Z" fill="#585238"/><path d="M40 94c4.041 1.6 6.68 4.487 9.625 7.563 3.339 3.664 3.339 3.664 7.375 6.437v2l1.781.792c2.35 1.279 3.856 2.63 5.715 4.544.641.652 1.283 1.304 1.943 1.977.66.68 1.32 1.36 1.999 2.062 5.98 6.14 5.98 6.14 12.562 11.625-1.313 2.899-2.727 4.983-4.969 7.234l-1.73 1.739-1.801 1.777-1.8 1.824-1.731 1.723-1.58 1.573C66 148 66 148 64 148v35H32c2-4 2-4 4.099-6.29 2.494-3.555 2.373-5.765 2.323-10.083l-.008-2.195c-.013-2.384-.053-4.767-.094-7.15-.012-1.663-.023-3.326-.031-4.988-.027-4.371-.076-8.742-.13-13.113-.087-6.996-.147-13.992-.193-20.988-.02-2.44-.055-4.88-.09-7.32l-.04-4.5-.05-3.958c.205-3.279.79-5.482 2.214-8.415Z" fill="#DC5E4A"/><path d="m154 100 3 1-.01 2.61a2801.47 2801.47 0 0 0 .038 24.408c.024 4.182.035 8.364.017 12.547-.018 4.04-.001 8.078.039 12.118.009 1.538.006 3.076-.01 4.613-.305 8.49-.305 8.49 2.544 16.249 1.71 1.723 3.347 3.14 5.382 4.455l-1 2c-1.992.29-3.987.573-5.992.754-2.211.204-2.211.204-5.008 1.246-1.626.147-3.256.247-4.887.316l-2.842.127-2.958.12-2.995.13c-2.439.106-4.878.208-7.318.307l.115-3.007c1.78-20.797 1.78-20.797-5.737-39.006-2.677-2.285-5.36-4.17-8.378-5.987l-2-2 2.54-1.574c4-2.669 7.37-5.922 10.835-9.238a4420668458.07 4420668458.07 0 0 0 5.91-5.582c2.565-2.402 5.2-4.715 7.863-7.008 3.657-3.155 7.247-6.385 10.852-9.598Z" fill="#DC5C48"/><path d="M313 442c-1.296 2.829-2.692 4.97-4.82 7.234l-1.621 1.739-1.684 1.777-1.707 1.824c-1.385 1.48-2.776 2.953-4.168 4.426 4.357 3.608 8.963 6.547 13.77 9.512L315 470v1c-5.408.025-10.815.043-16.223.055-1.837.005-3.674.012-5.51.02-2.652.013-5.303.018-7.954.023l-2.46.015c-5.045 0-9.855-.428-14.853-1.113-2.27-.041-4.542-.042-6.813 0-4.154.035-8.184-.032-12.312-.5-6.316-.682-12.627-.551-18.971-.463l-2.525.026-2.264.035C223 469 223 469 221.12 468.496c-2.845-.666-5.488-.55-8.408-.496-7.734.056-15.377-.42-23.086-1l-4-.29c-3.209-.232-6.417-.469-9.625-.71 3.106-2.07 4.744-2.477 8.359-3.076l3.369-.569 3.698-.602 3.893-.65c3.524-.59 7.049-1.17 10.574-1.748 3.686-.606 7.37-1.22 11.056-1.834 6.187-1.029 12.375-2.052 18.564-3.071 8.734-1.44 17.467-2.888 26.2-4.34a37034.67 37034.67 0 0 1 36.99-6.122l3.705-.614 3.36-.552 2.933-.484C311 442 311 442 313 442Z" fill="#595239"/><path d="m12.073 402.741 2.467-.019 2.651.012 2.73-.005c1.905-.002 3.809.002 5.713.01 2.92.011 5.841 0 8.762-.012 1.849 0 3.697.003 5.545.007l2.658-.012c6.171.048 6.171.048 8.401 2.278.48 3.604.37 7.242.375 10.875l.074 3.05c.03 7.365.03 7.365-2.222 10.708-4.57 2.806-9.268 2.5-14.493 2.465l-2.404-.005c-2.527-.005-5.053-.018-7.58-.03-1.716-.006-3.432-.01-5.148-.014C15.4 432.038 11.2 432.02 7 432c-2.917-4.951-2.33-10.032-2.313-15.625l-.048-3.219-.002-3.07-.01-2.811c.124-.75.246-1.502.373-2.275 3.048-2.032 3.648-2.251 7.073-2.259Z" fill="#DEA65A"/><path d="M136 433h53c-1.096 9.863-2.1 13.794-9.379 19.898C178 454 178 454 176 454l-1 2c-5.088 1.696-10.5 1.225-15.824 1.24-2.103.01-4.204.041-6.307.072-1.34.007-2.68.012-4.021.016l-3.688.028c-3.415-.385-4.776-.925-7.16-3.356-2.224-6.67-1.61-13.98-2-21Z" fill="#DEA75A"/><path d="M383 151c8.878 1.121 15.864 5.825 21.465 12.723 4.03 5.979 6.552 12.142 7.535 19.277a521.562 521.562 0 0 1-38 1c2.675-11.105 5.698-22.065 9-33Z" fill="#E7A978"/><path d="M134 388c-2.856 3.597-5.633 6.897-9.395 9.57-6.67 4.846-6.67 4.846-10.293 12.029-.806 6.124-.718 12.246-.312 18.401l-5-2v-2h-2a207.388 207.388 0 0 1-4-5 282.478 282.478 0 0 0-5-5c-1.105-1.103-2.21-2.207-3.313-3.313L92 408a718.26 718.26 0 0 1 2-6l1.074-3.648c6.204-15.824 24.87-11.507 38.926-10.352Z" fill="#585138"/><path d="M276 148h43c-1.671 3.342-3.418 6.228-5.5 9.313l-2.125 3.16-1.148 1.703c-2.254 3.35-4.489 6.713-6.727 10.074l-2.594 3.89L299 179c-4.529-4.271-8.27-9.01-12.063-13.938l-1.853-2.38C276 150.946 276 150.946 276 148Z" fill="#E8AB7C"/><path d="M249 335c6.23.583 12.135 1.543 18.188 3.125l2.471.643c7.67 2.116 14.427 5.318 21.341 9.232-2.543 3.071-5.19 3.979-8.938 5.188l-3.152 1.042C276 355 276 355 272 355v2l-2.813-.063c-3.21-.095-3.21-.095-6.187 1.063-1.384.091-2.773.13-4.16.133l-2.404.004-2.498-.012-2.51.012-2.4-.004-2.196-.004C245 358 245 358 243 357l.586-1.836c1.66-5.342 2.991-10.627 3.984-16.133C248 337 248 337 249 335Z" fill="#DC5D49"/><path d="M225 148h41c-1.78 4.45-3.82 7.777-6.625 11.563C254.736 165.93 250.321 172.41 246 179c-4.003-3.74-6.976-7.655-9.938-12.25l-2.613-3.996-1.264-1.945c-2.025-3.091-4.126-6.13-6.224-9.172C225 150 225 150 225 148Z" fill="#E8AB7C"/><path d="M327 149h41c-9.203 16.105-9.203 16.105-13.5 23.375l-1.336 2.266A7951.302 7951.302 0 0 1 350 180c-3.489-1.163-3.91-1.928-5.89-4.902l-1.642-2.436-1.718-2.6-3.496-5.207-1.695-2.537c-2.43-3.614-4.953-7.158-7.485-10.7C327 150 327 150 327 149Z" fill="#E7A97A"/><path d="M132 148c4.365 3.741 8.305 7.228 12.25 11.313 4.495 4.597 9.25 8.674 14.34 12.617 2.505 2.152 4.43 4.434 6.41 7.07-1.861 1.861-4.5 1.461-6.992 1.719-2.21.247-2.21.247-5.008 1.281-1.626.147-3.256.247-4.887.316l-2.561.116-3.24.13L132 183v-35Z" fill="#DDA55A"/><path d="m25.375 439.688 3.117-.05c5.547-.003 9.775.11 14.508 3.362 1.227 2.454 1.202 4.2 1.25 6.938l.078 2.652C44 455 44 455 42.872 456.624c-4.207 3.093-10.798 1.841-15.81 1.813l-3.904.061-3.748-.002-3.433.006c-3.606-.608-4.753-1.66-6.977-4.502-1.65-4.363-.687-7.743 1-12 4.598-3.11 10.044-2.33 15.375-2.313Z" fill="#DEA65A"/><path d="M64 149v34H32c4.797-9.593 13.964-17.123 21.5-24.625l2.742-2.754 2.602-2.598 2.35-2.346C63 149 63 149 64 149Z" fill="#DEA559"/><path d="M414 247v39c-3.387-1.693-5.149-2.875-7.785-5.406l-2.108-2.004-2.17-2.09a2148.004 2148.004 0 0 0-4.285-4.094l-1.906-1.834c-1.867-1.757-1.867-1.757-4.746-3.572 1.57-4.276 4.826-6.653 8.25-9.438l1.7-1.408a586.92 586.92 0 0 1 3.376-2.775 184.27 184.27 0 0 0 3.363-2.84C411.793 247 411.793 247 414 247ZM414 304v39c-7.875-6.75-7.875-6.75-11.184-10.086l-2.119-2.129c-1.056-1.07-1.056-1.07-2.135-2.16l-2.216-2.23A2974.824 2974.824 0 0 1 391 321c4.047-4.286 8.466-7.796 13.188-11.313l2.193-1.666 2.1-1.572 1.903-1.427C412 304 412 304 414 304Z" fill="#E7AB7C"/><path d="M255.25 392.188C258 394 258 394 259 396a89.91 89.91 0 0 1 .313 5.875l.113 3.18c-.532 3.678-1.82 4.402-4.426 6.945-2.168 5.516-2.247 10.614-2.125 16.438l.027 2.505c.024 2.02.06 4.038.098 6.057-3.585-2.39-4.097-3.998-5.688-7.938l-1.324-3.214C245 423 245 423 245 420l-2-1c-1.166-4.548-.913-8.446-.25-13.063l.484-3.597c1.035-4.512 2.585-7.318 6.078-10.34 2.688-1 2.688-1 5.938.188Z" fill="#5B543A"/><path d="M414 198v33c-3.635-1.817-5.751-3.41-8.688-6.125a478.286 478.286 0 0 0-12.695-11.246C391 212 391 212 391 210c3.454-2.007 6.914-4.004 10.375-6l2.984-1.734 2.852-1.641 2.634-1.523C412 198 412 198 414 198Z" fill="#E7AB7C"/><path d="M413 420c-.137 7.409-1.056 14.169-3.375 21.188l-.634 1.96c-1.229 3.519-1.793 4.72-4.991 6.852l-1.146-1.589-5.166-7.161-1.803-2.5a324529482.318 324529482.318 0 0 0-3.351-4.644c-1.521-2.141-1.521-2.141-3.293-4.189L388 428l1-3c2.209-.8 2.209-.8 5.094-1.387l3.12-.654 3.286-.647 3.285-.681C411.706 420 411.706 420 413 420Z" fill="#E7A978"/><path d="M34 190h32l1 23-6-1c-1.125-1.938-1.125-1.938-2-4-1.782-1.142-1.782-1.142-4-2l-6-3v-2l-2.688-.688c-3.81-1.51-5.582-3.294-8.312-6.312l-4-4Z" fill="#DEA65B"/><path d="M249 314c26.126 2.963 26.126 2.963 33 11-5.052 2.821-9.175 4.397-15 5a386.828 386.828 0 0 0-7.277 1.598c-3.539.523-7.146.402-10.723.402v-18Z" fill="#DD5F4A"/><path d="M134 435v23c-10.128 0-10.128 0-12.871-2.3l-1.799-1.464-1.767-1.548-1.85-1.514c-2.687-2.237-4.765-4.252-6.713-7.174a648.067 648.067 0 0 1 8-4.5l2.254-1.3 2.246-1.231 2.031-1.143C126 435 126 435 134 435Z" fill="#595339"/><path d="M414 360v37c-3.618-1.81-4.809-2.63-7.25-5.563l-1.8-2.128L403 387a1190.35 1190.35 0 0 0-4.438-5l-2.058-2.313L395 378c1.374-3.114 2.926-5.135 5.406-7.453l2.004-1.875 2.09-1.922 2.09-1.969C411.743 360 411.743 360 414 360Z" fill="#E7AB7D"/><path d="M159 188c-3.75 5.042-8.166 8.7-13.066 12.61-3.812 3.105-7.423 6.404-11.036 9.738C133 212 133 212 132 212v-22l8.438-1 2.599-.316c5.355-.614 10.573-.77 15.963-.684Z" fill="#DEA75B"/><path d="M210 124c3 1 3 1 4.075 2.535l.968 1.957 1.064 2.137 1.08 2.246 1.116 2.223C221 140.592 221 140.592 221 144h-23c4.25-10.625 4.25-10.625 7-12l1-3h2l2-5Z" fill="#DEA85D"/><path d="M279 398c.081 2.438.14 4.874.188 7.313l.076 2.091c.075 5.176.075 5.176-1.674 7.346L276 416c-2.643 5.095-3.495 10.34-4 16a90.488 90.488 0 0 1-4-4v-2l-2-1c-1.708-6.962-.753-13.39 2-20 2.708-3.308 6.502-7 11-7Z" fill="#5A5339"/><path d="M267 126c3.301 1.1 3.655 1.545 5.48 4.309l1.338 2.013 1.37 2.115 1.404 2.104C280 141.726 280 141.726 280 144h-26c1.979-3.958 4.354-7.228 7.063-10.688l1.392-1.798c3.366-4.335 3.366-4.335 4.545-5.514Z" fill="#DCA65B"/><path d="M249 295c9.028.437 15.89 3.435 23 9l-1 3c-7.159 3.185-14.224 4.527-22 4v-16Z" fill="#DD5E49"/><path d="M55.625 125.875C59 127 59 127 60.938 128.563c2.012 4.617 1.663 8.775 0 13.375C59 144 59 144 55.562 145.063 52 145 52 145 49.626 143.625c-2.341-3.782-3.06-7.19-2.625-11.625 1.778-4.255 3.906-5.962 8.625-6.125Z" fill="#96EBD0"/><path d="M126 279c6.75 2.25 6.75 2.25 9.648 3.727l1.856.937 1.871.961 1.941.984c1.563.794 3.124 1.592 4.684 2.391-2.77 3.228-6.35 5.12-10 7.188l-1.906 1.115C129.37 299 129.37 299 126 299v-20Z" fill="#DEA960"/><path d="M142.125 125.938c2.908 1.074 3.974 1.702 5.875 4.062 1.23 4.16 1.37 7.89 0 12-2 2-2 2-5.438 3.063C139 145 139 145 136.625 143.625c-2.34-3.779-3.068-7.193-2.625-11.625 1.705-3.91 3.681-5.974 8.125-6.063Z" fill="#95ECD1"/><path d="M417 333c10.125 5.625 10.125 5.625 13.563 8.313l2.003 1.55L434 344c-1.105 3.315-1.558 3.66-4.344 5.48l-2.027 1.338-2.129 1.37-2.129 1.404C418.161 357 418.161 357 417 357v-24ZM417 220c10.125 5.625 10.125 5.625 13.563 8.313l2.003 1.55L434 231c-1.393 4.18-4.362 5.466-7.938 7.688-.646.415-1.292.83-1.958 1.26C419.276 243 419.276 243 417 243v-23Z" fill="#DEA75C"/><path d="M295 128c4.159 1.526 6.241 4.535 8.75 8l1.246 1.656C308 141.728 308 141.728 308 144h-23c1.072-4.29 2.91-6.854 5.563-10.25l1.287-1.68A743.257 743.257 0 0 1 295 128Z" fill="#DCA559"/><path d="m417 252 16 8v4c-1.68 1.414-1.68 1.414-3.875 2.625-2.415 1.36-4.15 2.4-6.125 4.375-4.73 3-4.73 3-6 3v-22Z" fill="#DDA65B"/><path d="m411 165 20 2c-2.774 4.855-5.156 8.708-8.625 12.938l-2.352 2.902L418 185h-2l-.805-3.684-1.07-4.754-.527-2.431c-.47-2.06-1.028-4.098-1.598-6.131l-2-1 1-2Z" fill="#DDA65C"/><path d="M417 278c11.714 7.429 11.714 7.429 17 11-1 3-1 3-2.582 4.075l-2.016.968-1.96.962-2.505 1.183L417 300v-22Z" fill="#DCA559"/><path d="M413 442c4.851 4.41 8.348 9.58 12 15l-1 2c-4.049.942-7.865 1-12 1l-2.063.563c-2.525.57-4.434-.008-6.937-.563l1.68-2.922 2.195-3.828 1.105-1.922c1.76-3.07 3.489-6.137 5.02-9.328Z" fill="#DEA75D"/><path d="m298 288 6.688 3.75 2.076 1.155 1.685.954 1.698.953c2.412 1.546 4.616 3.398 6.853 5.188l-19 9v-21Z" fill="#5C563D"/><path d="M410 141v21c-3.376-1.688-5.204-2.944-7.875-5.438-3.231-2.904-6.139-4.868-10.125-6.562v-2c2.434-1.174 4.872-2.34 7.313-3.5l2.091-1.012C406.66 141 406.66 141 410 141Z" fill="#DEA65B"/><path d="M235 128c3.864 1.288 5.312 3.652 7.625 6.813l1.234 1.619c2.198 2.958 3.23 4.923 4.141 8.568l-22-1c1.632-4.08 3.258-7.175 5.625-10.813l1.914-2.957L235 128Z" fill="#DDA55A"/><path d="M298 257c4.882 1.627 8.628 3.406 12.875 6.125l1.797 1.129A802.57 802.57 0 0 1 317 267c-3.582 3-7.532 4.777-11.75 6.688L298 277v-20Z" fill="#5C563D"/><path d="M298 223c3.13 1.252 5.714 2.301 8.55 3.945l1.866 1.075 1.897 1.105 1.955 1.129c1.579.912 3.156 1.829 4.732 2.746-3.331 2.666-6.872 4.667-10.625 6.688l-3.477 1.886C300 243 300 243 298 243v-20Z" fill="#5B553C"/><path d="M155 279c6.034 3.278 12.054 6.565 18 10v2c-2.623 1.338-5.248 2.67-7.875 4l-2.262 1.156-2.168 1.094-2 1.016C157 299 157 299 155 299v-20Z" fill="#DEA85D"/><path d="M376 130c4.423 1.5 5.698 4.445 7.813 8.438l1.894 3.496C387 145 387 145 386 148l-2.09-.621c-6.005-1.722-11.684-2.869-17.91-3.379v-3h2l.188-1.688c1.15-3.276 3.294-4.978 5.812-7.312l2-2Z" fill="#DDA65C"/><path d="M417 307c4.335 1.734 7.495 3.524 11.313 6.125l3.238 2.195L434 317c-1 3-1 3-2.875 4.188C429 322 429 322 426 322l-1 2c-2.903 1.375-4.761 2-8 2v-19Z" fill="#DEA75D"/><path d="M416 361c3.813 1.907 7.25 4.092 10.75 6.5l1.824 1.223c1.513 1.04 2.975 2.153 4.426 3.277v2a139.532 139.532 0 0 1-7.438 4.625l-2.142 1.273C418.158 383 418.158 383 417 383l-1-22Z" fill="#DEA75C"/><path d="M417 192c3.769 1.885 6.928 4.082 10.25 6.625l1.68 1.273A1461.76 1461.76 0 0 1 433 203c-2.53 2.788-5.393 4.675-8.563 6.688l-2.94 1.886C419 213 419 213 417 213v-21Z" fill="#DEA65B"/><path d="M417 416c5.117 3.198 9.527 6.958 14 11-3.075 3.374-6.285 5.509-10.25 7.75l-3.266 1.86L415 438c-.054-2.73-.094-5.458-.125-8.188-.017-.768-.034-1.537-.05-2.33-.038-4.297.18-7.561 2.175-11.482Z" fill="#DEA75D"/><path d="M323 130h3c2.043 2.3 2.043 2.3 4.188 5.313l2.167 2.988C334 141 334 141 334 144h-21l2-4 1-3a262.496 262.496 0 0 1 5-4l2-3ZM417 390c4.08 1.632 7.175 3.258 10.813 5.625l2.957 1.914L433 399c-2.53 2.788-5.393 4.675-8.563 6.688l-2.94 1.886C419 409 419 409 417 409v-19Z" fill="#DDA65B"/><path d="M304 403v12c-5.133 1.78-8.562 2.255-14 1l-3-2a662.162 662.162 0 0 1 4.688-4.375l2.636-2.46C297.35 404.716 300.036 403 304 403Z" fill="#61573B"/><path d="M349 131c3.595 3.492 6.92 7.04 10 11v2h-20c1.398-2.796 2.662-5.114 4.438-7.625l1.246-1.79C346 133 346 133 349 131Z" fill="#DDA45A"/></svg>