<svg xmlns="http://www.w3.org/2000/svg" width="473" height="478"><path d="m30.938-.438 2.38-.021C38.25-.405 41.757.247 46 3c2.25 3.374 2.241 4.46 2.211 8.402l-.01 3.348-.04 3.617-.017 3.718c-.017 3.93-.049 7.86-.081 11.79-.028 3.923-.053 7.846-.072 11.769-.012 2.443-.03 4.885-.053 7.328l-.02 3.367-.025 2.954C48 61.966 48.4 64.398 49 67h5c2.369-4.74 2.493-9.351 2.781-14.543l.18-2.799c.187-2.948.364-5.897.539-8.846.175-2.93.354-5.861.54-8.792.116-1.82.225-3.639.327-5.46C59.444 9.568 59.444 9.568 65 3c3.622-1.207 6.977-1.222 10.75-1.25 1.036-.03 1.036-.03 2.094-.063C82.832 1.65 86.634 2.356 91 5c6.996 11.994 2.48 29.753.98 42.996C91.24 54.857 90.567 61.21 92 68c2.755 2.252 2.755 2.252 5.563 1.938 2.665-.715 2.665-.715 3.687-3.376L102 64l1-2c.2-2.143.346-4.292.465-6.441l.236-3.96c.119-2.07.235-4.141.349-6.213.425-7.666.986-14.95 2.95-22.386h2l.625-1.813c2.032-3.232 3.763-3.92 7.375-5.187 8.378-.934 14.264.414 21.25 5.25 4.506 4.506 5.904 8.302 6.004 14.52-.079 7.423-1.669 14.56-3.191 21.792-2.856 13.77-4.298 26.808-4.313 40.876l-.004 2.222c.007 17.215 1.49 34.23 3.254 51.34l.437 4.274c.538 5.253 1.077 10.507 1.648 15.757l.364 3.367.323 2.928c.22 2.573.27 5.093.228 7.674-3.5-.31-7-.624-10.5-.938l-2.977-.263C124 184.302 118.5 183.727 113 183c.76 13.135 2.043 26.036 4.313 39 2.399 13.779 3.811 27.58 5.124 41.5 1.688 17.84 4.189 35.135 7.999 52.64.778 3.944 1.208 7.858 1.564 11.86a89.85 89.85 0 0 1-13-13c1.338 12.338 3.125 24.565 5.125 36.813.417 2.554.832 5.11 1.244 7.665a1230 1230 0 0 0 .768 4.711c.537 3.338.863 6.418.863 9.811h28l-1.438-9.063c-.509-6.75.607-11.536 5.074-16.773 5.351-5.799 11.247-11.051 17.253-16.159L178 330v-2c-2.166-1.635-2.166-1.635-4.969-3.3-1.046-.649-2.093-1.296-3.172-1.964l-3.359-2.048-3.266-2.014a2117.2 2117.2 0 0 0-6.123-3.761c-3.716-2.285-7.412-4.601-11.111-6.913v27l7.438-2.375 2.345-.736c1.758-.574 3.489-1.23 5.217-1.889l1-2-13 4v-20c4.182 1.673 6.64 3.04 10.125 5.688 4.796 3.582 9.727 6.782 14.855 9.867L176 329v2c-1.398 1.375-1.398 1.375-3.375 3-4.359 3.692-8.342 7.678-12.328 11.766-4.107 3.995-4.107 3.995-6.297 5.234-6.361-.875-12.17-2.672-17-7-2.337-5.957-2.794-11.977-3.36-18.313-.202-1.816-.409-3.631-.62-5.446-.543-4.768-1.018-9.54-1.48-14.315-.481-4.853-1.03-9.697-1.571-14.543-.78-7.087-1.54-14.175-2.241-21.27l-.227-2.23c-.385-3.977-.574-7.888-.501-11.883 9.415 1.333 18.719 3.035 28.025 4.977 1.504.311 3.008.616 4.515.916 2.203.438 4.402.893 6.6 1.353l2.049.398c1.874.405 1.874.405 4.811 1.356 1.142 3.425 1.294 6.362 1.5 9.969l.123 2.05c.173 2.892.337 5.783.502 8.675.122 2.113.248 4.225.375 6.337l.219 3.83c.162 3.166.162 3.166 1.281 6.139 1.551 1.325 1.551 1.325 3.5 2.488l2.191 1.393 2.309 1.432a553.644 553.644 0 0 1 6.562 4.182c2.383 1.53 2.383 1.53 4.821 2.656 2.634 1.392 4.565 2.678 6.617 4.849 1.247 4.216 1.052 8.253.879 12.617l-.039 3.674c-.05 3.863-.163 7.722-.278 11.584a2480.31 2480.31 0 0 0-.123 7.867c-.099 6.421-.25 12.84-.439 19.258 1.44-.304 2.88-.612 4.32-.922l2.43-.518c4.264-1.06 6.558-2.414 8.838-6.188 1.572-3.753 1.978-7.06 2.133-11.067l.119-2.265c.38-7.801.55-15.612.705-23.421.08-3.694.226-7.376.43-11.065 1.89-19.738 1.89-19.738-4.321-37.688-5.65-5.004-11.942-8.097-18.95-10.778-2.346-.944-4.202-1.924-6.252-3.377-3.135-2.187-5.686-2.308-9.452-2.711l-2.499-.875c-4.93-1.584-9.947-2.512-15.024-3.508l-3.338-.664c-3.504-.696-7.009-1.387-10.514-2.078l-7.145-1.418c-5.826-1.156-11.652-2.308-17.48-3.457l-1-3 16-14c-5.065-10.817-11.447-20.851-17.695-31.008l-1.934-3.153a1824.108 1824.108 0 0 0-3.85-6.246l-1.775-2.894-1.604-2.599C114 187 114 187 114 185c12.38.61 24.675 1.687 37 3l-.215-2.038c-.646-6.504-.92-12.909-.883-19.442l.005-2.846c.005-2.954.018-5.907.03-8.862A7441.535 7441.535 0 0 1 150 134c2.915 1.075 4.778 1.78 7 4.001l-1-23c3.68 1.227 6.875 2.31 10.305 3.945l2.265 1.075 2.305 1.105 2.375 1.129c1.918.912 3.834 1.829 5.75 2.746l.302-1.991c.904-3.896 2.353-7.456 3.858-11.154l.938-2.332c.984-2.447 1.974-4.891 2.964-7.335l2.01-4.99A6481.72 6481.72 0 0 1 194 85c3.449 1.48 5.645 3.424 8.258 6.098l2.394 2.427 2.473 2.537c1.625 1.66 3.253 3.318 4.883 4.973l2.176 2.23c1.711 1.805 1.711 1.805 3.816 2.735l.832-1.747c1.155-2.229 2.436-4.238 3.856-6.308l1.604-2.344L226 93.125l1.75-2.542c1.745-2.531 3.496-5.058 5.25-7.583l1.556-2.24c1.37-1.966 2.749-3.927 4.131-5.885l1.24-1.773c2.839-3.985 2.839-3.985 5.073-5.102l1.003 1.474c1.58 2.322 3.164 4.643 4.747 6.963l1.757 2.576a788.352 788.352 0 0 0 9.028 12.964l1.671 2.342a959.758 959.758 0 0 0 3.186 4.423C270 103.782 270 103.782 270 106c6.142-5.074 11.716-10.657 17.25-16.375l1.773-1.809 1.592-1.642C292 85 292 85 294 85l16 39c8.4-3.467 8.4-3.467 16.625-7.313C330 115 330 115 332 115l-1 23 5-4h2c.166 18.026-.303 35.991-1 54l2.75-.275c3.388-.338 6.777-.673 10.165-1.007 1.463-.144 2.925-.29 4.388-.436 2.11-.212 4.22-.419 6.33-.626l3.84-.38c3.195-.25 6.324-.328 9.527-.276v-2l-2.323.275c-3.476.411-6.951.818-10.427 1.225l-3.656.434-3.516.41-3.237.38C348 186 348 186 344 186c.691-12.178 1.929-24.261 3.27-36.382 1.83-16.596 2.964-33.102 2.98-49.805l.003-2.307C350.242 85.11 349.45 73.178 347 61l-.519-2.657C344.65 48.567 344.65 48.567 342 39c.635-7.926 2.506-13.69 8.375-19.25 6.184-4.122 12.38-4.41 19.625-3.75 5.26 1.558 7.288 4.358 10.02 8.867 2.044 4.448 2.167 9.105 2.41 13.938l.222 3.957c.114 2.055.223 4.11.322 6.167.306 10.485.306 10.485 4.026 20.071 2.431 1.237 2.431 1.237 5 1 3.398-1.76 3.398-1.76 3.777-5.684.49-6.156-.292-12.216-.985-18.332C391.131 13.347 391.131 13.347 396 5c4.998-3.009 9.46-3.471 15.125-3.375l2.09-.035c4.427.025 7.304.642 10.785 3.41 3.895 7.372 4.201 14.886 4.684 23.035l.373 5.889c.192 3.076.381 6.153.565 9.23.18 2.981.37 5.963.562 8.944l.158 2.78c.29 4.408.633 8.108 2.658 12.122h5c.779-3.448 1.128-6.635 1.133-10.168l.004-2.959-.012-3.06.012-3.002c-.006-4.644-.125-9.196-.653-13.811-.622-5.626-.55-11.162-.359-16.813l.031-3.06c.165-4.805.254-7.345 3.211-11.264 4.715-3.336 8.958-3.11 14.508-3.175l2.434-.088c3.722-.04 6.186.156 9.574 1.795 5.964 7.34 5.549 17.087 5.48 26.09l.002 3.911c0 2.733-.01 5.466-.029 8.2a1214.8 1214.8 0 0 0-.017 10.21c.035 24.456-1.132 48.837-4.069 73.131l-.25 2.088c-4.982 41.192-16.032 80.116-33.203 117.873l-1.4 3.097a179.499 179.499 0 0 1-2.903 5.955c-3.018 6.052-4.13 9.436-2.494 16.05l.91 3.867c4.117 14.76 10.289 28.471 17.938 41.727L449 316l-1 2-4-2 1.222 3.314a131404.858 131404.858 0 0 1 6.495 17.62l.955 2.591.945 2.562c.617 1.676 1.233 3.351 1.847 5.028a846.02 846.02 0 0 0 3.917 10.5l1.135 2.99.962 2.486C462 365 462 365 461 367c-6.875-2.75-6.875-2.75-8-5h-4v-2h-4v-2l-6-1v-2h-3l-10 22c-4.231-2.116-6.686-4.659-9.75-8.125l-1.535-1.707A875.718 875.718 0 0 1 411 363c-.058 3.896-.094 7.791-.125 11.688-.017 1.102-.034 2.205-.05 3.341l-.02 3.233-.032 2.967c.323 3.939 1.18 6.79 4.09 9.517l2.45 1.692 2.914 2.035c3.041 2.052 6.107 4.068 9.171 6.086l2.882 1.902a862.98 862.98 0 0 0 5.81 3.79l2.703 1.772 2.454 1.592L445 414v2c-10.332.37-20.665.702-31 1l-3.106.096c-2.444.07-4.887.117-7.332.154l-3.933.078c-5.464-.494-11.201-1.912-14.879-6.265-7.6-10.397-7.265-22.054-7-34.313.02-1.631.038-3.263.055-4.895.043-3.952.112-7.903.195-11.855l-4.22 4.546-3.228 3.47c-2.536 2.74-4.988 5.499-7.322 8.414L361 379h-2c1.009-10.256 2.29-20.341 4.316-30.45.676-3.509 1.191-7.01 1.684-10.55.248-1.567.5-3.133.754-4.7l.4-2.474c.274-1.688.55-3.375.828-5.062l.397-2.463.361-2.214c.342-2.398.342-2.398.26-6.087l-2.59 2.844-3.348 3.656-1.708 1.879c-1.431 1.56-2.89 3.092-4.354 4.621h-1c.654-7.384 2.044-14.529 3.526-21.788 2.798-13.778 5.543-27.684 5.45-41.802.025-3.59.46-6.93 1.024-10.473.526-3.305 1.012-6.397.938-9.746.07-3.634.734-6.905 1.487-10.452.996-4.746 1.805-9.525 2.637-14.302l.526-2.958c1.614-9.245 2.589-18.084 2.412-27.479l-3.402 5.598-1.072 1.762c-1.94 3.191-3.877 6.384-5.81 9.58-6.629 10.948-6.629 10.948-9.884 16.119l-1.295 2.08a828.874 828.874 0 0 1-3.264 5.173c-1.417 2.502-1.417 2.502-1.285 4.747 1.485 2.849 3.524 4.77 5.825 7.004l2.644 2.597c2.108 1.94 4.211 3.682 6.543 5.34l-1 3-2.173.422a4771.079 4771.079 0 0 0-20.387 4.013c-3.491.694-6.983 1.384-10.478 2.06-3.38.656-6.758 1.325-10.134 2.004a742.33 742.33 0 0 1-5.7 1.105c-9.75 1.981-17.518 5.525-25.847 10.912l-2.883 1.851-2.898 1.883a9169.122 9169.122 0 0 1-5.844 3.766l-2.568 1.665C270 283 270 283 268 284l-.018 3.436c-.057 10.739-.13 21.477-.218 32.216-.044 5.52-.084 11.038-.11 16.558-.027 5.336-.067 10.673-.117 16.009-.017 2.026-.028 4.052-.035 6.078-.107 31.396-.107 31.396-9.502 41.703-7.092 6.667-14.837 9.427-24.438 9.512l-2.32.054a870.84 870.84 0 0 1-7.242.122c-1.65.033-3.3.067-4.95.103-4.016.084-8.033.151-12.05.209l9 5c-.481 6.093-3.193 10.675-6 16h-15l-1.125 3.625c-2.197 6.632-5.066 12.985-7.875 19.375-5.039.577-10.264 1.144-15-1-4.145-4.354-6.023-10.432-8-16-.663-1.668-1.328-3.335-2-5l-3.29.203c-8.626.213-8.626.213-12.71-1.203-3.93-4.138-6.005-8.901-5.996-14.64 1.432-3.393 3.946-4.437 6.996-6.36-6.014-.124-12.027-.214-18.042-.275-2.045-.025-4.09-.059-6.134-.102-2.944-.061-5.887-.09-8.832-.111l-2.756-.078c-6.267-.003-8.804 1.145-13.236 5.566-4.483 2.004-8.597 2.278-13.438 2.188l-2.237-.02C68.215 417.002 55.102 416.47 42 416c1.333-4 3.496-4.838 7-7l-3.148-.664c-10.736-2.392-21.714-5.425-28.082-15.23-2.203-4.414-3.165-8.162-3.77-13.106l-2-1 .063-3.313c.122-3.63.122-3.63-1.063-6.687 1.917-13.593 8.083-25.773 14-38h2l1-6h2l.781-2.023c1.183-2.89 2.476-5.714 3.784-8.548 5.47-11.3 5.47-11.3 6.013-23.515-2.44-6.428-6.816-9.255-12.676-12.18-2.029-.914-2.029-.914-4.902-.734v-2l-3.613-.367-4.7-.508-2.38-.238-2.295-.254-2.11-.222C6 274 6 274 3 272c2.52-1.273 5.04-2.544 7.563-3.813l2.134-1.08C24.857 261 24.857 261 29 261c-1.638-3.276-5.174-3.865-8.438-5.125l-2.103-.84c-3.62-1.512-3.62-1.512-7.459-2.035v-2l-3 1v-2l-2.875-.438C2 249 2 249 0 248v-2c34.69-13.888 34.69-13.888 47-13l-1.434-3.207c-16.768-38.222-25.507-79.01-29.207-120.469-.24-3.32-.24-3.32-1.359-6.324-.147-1.687-.242-3.38-.308-5.072l-.123-3.16-.116-3.452-.126-3.617c-.426-13.223-.549-26.447-.567-39.676-.006-3.45-.03-6.9-.058-10.35-.023-3.36-.025-6.722-.03-10.083l-.038-3.697c.021-7.95.264-16.108 5.495-22.49C23.138-.557 26.534-.55 30.937-.438ZM108 359v15h14l-1-2h-2l-.746-1.703c-1.475-2.702-3.258-4.761-5.317-7.047-.712-.8-1.425-1.598-2.16-2.422L109 359h-1Zm-32 3a210.028 210.028 0 0 0-4 5l5 2v-7h-1Zm99.125 3.813-1.934 1.369-1.87 1.338-1.711 1.221c-1.675 1.31-3.138 2.727-4.61 4.259 3.964-.6 6.417-2.604 9.563-5 5.128-3.897 5.128-3.897 8.437-5l9 10 3-1a3031.494 3031.494 0 0 0-5.938-6l-1.708-1.734A286.91 286.91 0 0 0 183 361c-2.58 0-5.744 3.284-7.875 4.813Z" fill="#B28098"/><path d="m455.875-.313 2.434-.087c3.722-.04 6.186.156 9.574 1.795 5.964 7.34 5.549 17.087 5.48 26.09l.002 3.911c0 2.733-.01 5.466-.029 8.2a1214.8 1214.8 0 0 0-.017 10.21c.035 24.456-1.132 48.837-4.069 73.131l-.25 2.088c-4.982 41.192-16.032 80.116-33.203 117.873l-1.4 3.097a179.499 179.499 0 0 1-2.903 5.955c-3.018 6.052-4.13 9.436-2.494 16.05l.91 3.867c4.117 14.76 10.289 28.471 17.938 41.727L449 316l-1 2-4-2 1.222 3.314a131404.858 131404.858 0 0 1 6.495 17.62l.955 2.591.945 2.562c.617 1.676 1.233 3.351 1.847 5.028a846.02 846.02 0 0 0 3.917 10.5l1.135 2.99.962 2.486C462 365 462 365 461 367c-6.875-2.75-6.875-2.75-8-5h-4v-2h-4v-2l-6-1v-2h-3l-10 22c-4.231-2.116-6.686-4.659-9.75-8.125l-1.535-1.707A875.718 875.718 0 0 1 411 363c-.058 3.896-.094 7.791-.125 11.688-.017 1.102-.034 2.205-.05 3.341l-.02 3.233-.032 2.967c.323 3.939 1.18 6.79 4.09 9.517l2.45 1.692 2.914 2.035c3.041 2.052 6.107 4.068 9.171 6.086l2.882 1.902a862.98 862.98 0 0 0 5.81 3.79l2.703 1.772 2.454 1.592L445 414v2c-10.332.37-20.665.702-31 1l-3.106.096c-2.444.07-4.887.117-7.332.154l-3.933.078c-5.464-.494-11.201-1.912-14.879-6.265-7.6-10.397-7.265-22.054-7-34.313.02-1.631.038-3.263.055-4.895.043-3.952.112-7.903.195-11.855l-4.22 4.546-3.228 3.47c-2.536 2.74-4.988 5.499-7.322 8.414L361 379h-2c1.009-10.256 2.29-20.341 4.316-30.45.676-3.509 1.191-7.01 1.684-10.55.248-1.567.5-3.133.754-4.7l.4-2.474c.274-1.688.55-3.375.828-5.062l.397-2.463.361-2.214c.342-2.398.342-2.398.26-6.087l-2.59 2.844-3.348 3.656-1.708 1.879c-1.431 1.56-2.89 3.092-4.354 4.621h-1c.654-7.384 2.044-14.529 3.526-21.788 2.798-13.778 5.543-27.684 5.45-41.802.025-3.59.46-6.93 1.024-10.473.526-3.305 1.012-6.397.938-9.746.07-3.634.734-6.905 1.487-10.452.996-4.746 1.805-9.525 2.637-14.302l.526-2.958c1.614-9.245 2.589-18.084 2.412-27.479l-3.402 5.598-1.072 1.762c-1.94 3.191-3.877 6.384-5.81 9.58-6.629 10.948-6.629 10.948-9.884 16.119l-1.295 2.08a828.874 828.874 0 0 1-3.264 5.173c-1.417 2.502-1.417 2.502-1.285 4.747 1.485 2.849 3.524 4.77 5.825 7.004l2.644 2.597c2.108 1.94 4.211 3.682 6.543 5.34l-1 3c-2.834.23-4.476.342-6.897-1.238l-1.767-1.719-1.961-1.873-2-1.982-2.023-1.948A622.278 622.278 0 0 1 338 235c1.507-4.267 3.717-7.877 6.21-11.621l1.242-1.886c1.303-1.98 2.613-3.955 3.923-5.93l2.617-3.971C355.645 206.05 359.316 200.52 363 195c-6.744-.245-13.21.411-19.883 1.289l-2.129.274-1.89.253c-2.69.236-5.398.184-8.098.184l-1-46c-22.978 14.772-52.153 34.114-58.457 63.102-.243 1.624-.404 3.261-.543 4.898l1.54-1.426c7.257-6.565 12.214-9.239 22.198-8.988 6.337.804 11.02 3.715 15.2 8.476 4.41 6.282 4.993 11.295 4.062 18.938-3.656 10.561-9.884 16.168-19.438 21.313-6.783 1.82-12.297.888-18.554-2.153C274 254 274 254 271.125 251.688L269 250c-3.154.731-3.154.731-4.75 3.375-3.764 4.391-8.689 5.727-14.25 6.625-16.372 1.118-16.372 1.118-23-4-2.875-2.688-2.875-2.688-5-5l-2-1-1.758 1.242C211.1 256.17 204.852 259.366 196 258c-8.977-3.075-15.288-8.555-19.938-16.75-2.815-6.133-3.244-12-1.433-18.512 2.671-6.289 7.732-10.027 13.797-12.879 6.045-2.018 12.508-1.621 18.387.766 4.225 2.113 7.069 4.857 10.187 8.375-2.362-21.207-17.97-38.428-34-51.27-8.02-6.203-16.302-11.377-25-16.73v46c-18.405-1.15-18.405-1.15-25.5-2.063l-2.238-.275A1314.26 1314.26 0 0 1 125 194c4.99 8.078 10.02 16.116 15.313 24C150 232.462 150 232.462 150 236c-1.504 1.578-1.504 1.578-3.563 3.25-3.502 2.925-6.73 5.984-9.894 9.27-2.363 2.266-3.916 3.45-7.23 3.605L127 252l-1-3 16-14c-5.065-10.817-11.447-20.851-17.695-31.008l-1.934-3.153a1824.108 1824.108 0 0 0-3.85-6.246l-1.775-2.894-1.604-2.599C114 187 114 187 114 185c12.38.61 24.675 1.687 37 3l-.215-2.038c-.646-6.504-.92-12.909-.883-19.442l.005-2.846c.005-2.954.018-5.907.03-8.862A7441.535 7441.535 0 0 1 150 134c2.915 1.075 4.778 1.78 7 4.001l-1-23c3.68 1.227 6.875 2.31 10.305 3.945l2.265 1.075 2.305 1.105 2.375 1.129c1.918.912 3.834 1.829 5.75 2.746l.302-1.991c.904-3.896 2.353-7.456 3.858-11.154l.938-2.332c.984-2.447 1.974-4.891 2.964-7.335l2.01-4.99A6481.72 6481.72 0 0 1 194 85c3.449 1.48 5.645 3.424 8.258 6.098l2.394 2.427 2.473 2.537c1.625 1.66 3.253 3.318 4.883 4.973l2.176 2.23c1.711 1.805 1.711 1.805 3.816 2.735l.832-1.747c1.155-2.229 2.436-4.238 3.856-6.308l1.604-2.344L226 93.125l1.75-2.542c1.745-2.531 3.496-5.058 5.25-7.583l1.556-2.24c1.37-1.966 2.749-3.927 4.131-5.885.41-.585.82-1.17 1.24-1.773 2.839-3.985 2.839-3.985 5.073-5.102l1.003 1.474c1.58 2.322 3.164 4.643 4.747 6.963l1.757 2.576a788.352 788.352 0 0 0 9.028 12.964l1.671 2.342a959.758 959.758 0 0 0 3.186 4.423C270 103.782 270 103.782 270 106c6.142-5.074 11.716-10.657 17.25-16.375l1.773-1.809 1.592-1.642C292 85 292 85 294 85l16 39c8.4-3.467 8.4-3.467 16.625-7.313C330 115 330 115 332 115l-1 23 5-4h2c.166 18.026-.303 35.991-1 54l2.75-.275c3.388-.338 6.777-.673 10.165-1.007 1.463-.144 2.925-.29 4.388-.436 2.11-.212 4.22-.419 6.33-.626l3.84-.38c3.195-.25 6.324-.328 9.527-.276v-2l-2.323.275c-3.476.411-6.951.818-10.427 1.225l-3.656.434-3.516.41-3.237.38C348 186 348 186 344 186c.691-12.178 1.929-24.261 3.27-36.382 1.83-16.596 2.964-33.102 2.98-49.805l.003-2.307C350.242 85.11 349.45 73.178 347 61l-.519-2.657C344.65 48.567 344.65 48.567 342 39c.635-7.926 2.506-13.69 8.375-19.25 6.184-4.122 12.38-4.41 19.625-3.75 5.26 1.558 7.288 4.358 10.02 8.867 2.044 4.448 2.167 9.105 2.41 13.938l.222 3.957c.114 2.055.223 4.11.322 6.167.306 10.485.306 10.485 4.026 20.071 2.431 1.237 2.431 1.237 5 1 3.398-1.76 3.398-1.76 3.777-5.684.49-6.156-.292-12.216-.985-18.332C391.131 13.347 391.131 13.347 396 5c4.998-3.009 9.46-3.471 15.125-3.375l2.09-.035c4.427.025 7.304.642 10.785 3.41 3.895 7.372 4.201 14.886 4.684 23.035l.373 5.889c.192 3.076.381 6.153.565 9.23.18 2.981.37 5.963.562 8.944l.158 2.78c.29 4.408.633 8.108 2.658 12.122h5c.779-3.448 1.128-6.635 1.133-10.168l.004-2.959-.012-3.06.012-3.002c-.006-4.644-.125-9.196-.653-13.811-.622-5.626-.55-11.162-.359-16.813l.031-3.06c.165-4.805.254-7.345 3.211-11.264 4.715-3.336 8.958-3.11 14.508-3.175Z" fill="#6D743E"/><path d="m455.875-.313 2.434-.087c3.722-.04 6.186.156 9.574 1.795 5.964 7.34 5.549 17.087 5.48 26.09l.002 3.911c0 2.733-.01 5.466-.029 8.2a1214.8 1214.8 0 0 0-.017 10.21c.035 24.456-1.132 48.837-4.069 73.131l-.25 2.088C463.19 173.07 448.925 217.888 427 261c-8.838-8.838-6.418-30.789-6.428-42.6.008-4.838.048-9.676.095-14.513.027-3.245.036-6.489.044-9.733.048-19.403.437-38.768 1.289-58.154l-2.01.172c-23.64 2.022-47.28 3.853-70.99 4.828l.092-1.648c2.223-39.344 2.223-39.344-2.092-78.352l-.519-2.657C344.65 48.567 344.65 48.567 342 39c.635-7.926 2.506-13.69 8.375-19.25 6.184-4.122 12.38-4.41 19.625-3.75 5.26 1.558 7.288 4.358 10.02 8.867 2.044 4.448 2.167 9.105 2.41 13.938l.222 3.957c.114 2.055.223 4.11.322 6.167.306 10.485.306 10.485 4.026 20.071 2.431 1.237 2.431 1.237 5 1 3.398-1.76 3.398-1.76 3.777-5.684.49-6.156-.292-12.216-.985-18.332C391.131 13.347 391.131 13.347 396 5c4.998-3.009 9.46-3.471 15.125-3.375l2.09-.035c4.427.025 7.304.642 10.785 3.41 3.895 7.372 4.201 14.886 4.684 23.035l.373 5.889c.192 3.076.381 6.153.565 9.23.18 2.981.37 5.963.562 8.944l.158 2.78c.29 4.408.633 8.108 2.658 12.122h5c.779-3.448 1.128-6.635 1.133-10.168l.004-2.959-.012-3.06.012-3.002c-.006-4.644-.125-9.196-.653-13.811-.622-5.626-.55-11.162-.359-16.813l.031-3.06c.165-4.805.254-7.345 3.211-11.264 4.715-3.336 8.958-3.11 14.508-3.175ZM30.938-.438l2.38-.021C38.25-.405 41.757.247 46 3c2.25 3.374 2.241 4.46 2.211 8.402l-.01 3.348-.04 3.617-.017 3.718c-.017 3.93-.049 7.86-.081 11.79-.028 3.923-.053 7.846-.072 11.769-.012 2.443-.03 4.885-.053 7.328l-.02 3.367-.025 2.954C48 61.966 48.4 64.398 49 67h5c2.369-4.74 2.493-9.351 2.781-14.543l.18-2.799c.187-2.948.364-5.897.539-8.846.175-2.93.354-5.861.54-8.792.116-1.82.225-3.639.327-5.46C59.444 9.568 59.444 9.568 65 3c3.622-1.207 6.977-1.222 10.75-1.25l2.094-.063C82.832 1.65 86.634 2.356 91 5c6.996 11.994 2.48 29.753.98 42.996C91.24 54.857 90.567 61.21 92 68c2.755 2.252 2.755 2.252 5.563 1.938 2.665-.715 2.665-.715 3.687-3.376L102 64l1-2c.2-2.143.346-4.292.465-6.441l.236-3.96c.119-2.07.235-4.141.349-6.213.425-7.666.986-14.95 2.95-22.386h2l.625-1.813c2.032-3.232 3.763-3.92 7.375-5.187 8.378-.934 14.264.414 21.25 5.25 4.506 4.506 5.904 8.302 6.004 14.52-.079 7.423-1.669 14.56-3.191 21.792-2.91 14.035-4.237 27.25-4.188 41.563l.003 2.247c.018 13.228.439 26.417 1.122 39.628-16.522-.577-32.964-1.691-49.438-3.063l-6.912-.564c-5.55-.453-11.1-.911-16.65-1.373l.089 1.966c.862 19.725 1.099 39.418 1.096 59.158 0 4.16.014 8.319.031 12.478.011 3.261.013 6.522.013 9.783 0 1.535.005 3.069.013 4.603.083 17.824.083 17.824-2.242 25.012l-2 1c-.23-.52-.461-1.039-.7-1.574-2.696-5.767-5.524-9.873-11.226-13.063-3.952-3.038-5.128-5.863-6.886-10.425l-1.002-2.505A428.548 428.548 0 0 1 39 214l-1.123-3.049C26.02 178.217 19.45 143.955 16.359 109.324c-.24-3.32-.24-3.32-1.359-6.324-.147-1.687-.242-3.38-.308-5.072l-.123-3.16-.116-3.452-.126-3.617c-.426-13.223-.549-26.447-.567-39.676-.006-3.45-.03-6.9-.058-10.35-.023-3.36-.025-6.722-.03-10.083l-.038-3.697c.021-7.95.264-16.108 5.495-22.49C23.138-.557 26.534-.55 30.937-.438Z" fill="#CEC2B2"/><path d="m422 136-.027 3.731a9623.053 9623.053 0 0 0-.18 35.078c-.021 6.01-.049 12.019-.095 18.028-.044 5.816-.067 11.632-.078 17.448a999.055 999.055 0 0 1-.043 6.605c-.182 19.167 2.34 37.02 8.173 55.298l1.037 3.301c4.32 13.407 10.028 25.918 17.06 38.105L449 316l-1 2-4-2 1.222 3.314a131404.858 131404.858 0 0 1 7.45 20.211l.945 2.562c.617 1.676 1.233 3.351 1.847 5.028a846.02 846.02 0 0 0 3.917 10.5l1.135 2.99.962 2.486C462 365 462 365 461 367c-6.875-2.75-6.875-2.75-8-5h-4v-2h-4v-2l-6-1v-2h-3l-10 22c-4.231-2.116-6.686-4.659-9.75-8.125l-1.535-1.707A875.718 875.718 0 0 1 411 363c-.058 3.896-.094 7.791-.125 11.688l-.05 3.341-.02 3.233-.032 2.967c.323 3.939 1.18 6.79 4.09 9.517l2.45 1.692 2.914 2.035c3.041 2.052 6.107 4.068 9.171 6.086l2.882 1.902a862.98 862.98 0 0 0 5.81 3.79l2.703 1.772 2.454 1.592L445 414v2c-10.332.37-20.665.702-31 1l-3.106.096c-2.444.07-4.887.117-7.332.154l-3.933.078c-5.464-.494-11.201-1.912-14.879-6.265-7.6-10.397-7.265-22.054-7-34.313.02-1.631.038-3.263.055-4.895.043-3.952.112-7.903.195-11.855l-4.22 4.546-3.228 3.47c-2.536 2.74-4.988 5.499-7.322 8.414L361 379h-2c1.009-10.256 2.29-20.341 4.316-30.45.676-3.509 1.191-7.01 1.684-10.55.248-1.567.5-3.133.754-4.7l.4-2.474c.274-1.688.55-3.375.828-5.062l.397-2.463.361-2.214c.342-2.398.342-2.398.26-6.087l-2.59 2.844-3.348 3.656-1.708 1.879c-1.431 1.56-2.89 3.092-4.354 4.621h-1c.654-7.384 2.044-14.529 3.526-21.788 2.798-13.778 5.543-27.684 5.45-41.802.025-3.59.46-6.93 1.024-10.473.526-3.305 1.012-6.397.938-9.746.07-3.634.734-6.905 1.487-10.452.996-4.746 1.805-9.525 2.637-14.302l.526-2.958c1.422-8.148 2.571-16.066 2.412-24.354-.065-3.463-.099-5.83 1-9.125l-2.323.275c-3.476.411-6.951.818-10.427 1.225l-3.656.434-3.516.41-3.237.38C348 186 348 186 344 186c.492-9.973 1.452-19.884 2.5-29.813l.396-3.813.385-3.581.346-3.234C348 143 348 143 349 141c2.749-.432 5.418-.718 8.188-.938l2.709-.233c2.106-.18 4.213-.353 6.32-.523 2.76-.223 5.518-.452 8.277-.686 4.141-.353 8.283-.697 12.425-1.038 1.66-.136 3.32-.274 4.979-.414 2.386-.2 4.773-.392 7.16-.582l2.099-.18c6.943-.538 13.883-.458 20.843-.406Z" fill="#6E743E"/><path d="M65 136c7.996-.12 15.888.242 23.86.84l3.601.262c2.495.182 4.989.366 7.483.552 3.809.284 7.618.56 11.427.836l7.3.537 3.432.25c11.73.88 11.73.88 15.897 1.723 1.61 3.22 1.61 6.789 1.973 10.332l.264 2.511c.185 1.756.367 3.512.547 5.269.276 2.68.56 5.36.843 8.038l.533 5.12.256 2.421c.386 3.788.686 7.495.584 11.309-3.5-.31-7-.624-10.5-.938l-2.977-.263C124 184.302 118.5 183.727 113 183c.76 13.135 2.043 26.036 4.313 39 2.399 13.779 3.811 27.58 5.124 41.5 1.688 17.84 4.189 35.135 7.999 52.64.778 3.944 1.208 7.858 1.564 11.86a89.85 89.85 0 0 1-13-13c1.338 12.338 3.125 24.565 5.125 36.813.417 2.554.832 5.11 1.244 7.665a1230 1230 0 0 0 .768 4.711c.537 3.338.863 6.418.863 9.811-2.188.313-2.188.313-5 0-5.37-4.94-10.112-10.59-15-16l-9 16c-7 0-7 0-8.713-1.469L88.13 370.5l-1.299-2.188L85.563 366l-1.35-2.313A270.217 270.217 0 0 1 81 358c-3.392 3.335-3.392 3.335-6.563 6.875C73 366 73 366 71.106 365.828c-2.787-1.096-3.613-2.455-5.23-4.953l-1.508-2.258c-3.956-7.574-3.676-14.845-3.617-23.242l.005-2.023c.037-12.068.645-24.082 1.39-36.124a468.508 468.508 0 0 0 .78-37.765l-.05-3.69-.07-3.174c.165-3.048.583-5.687 1.193-8.66 1.032-5.573 1.274-10.896 1.23-16.551v-3.02c-.001-3.251-.017-6.503-.033-9.755l-.008-6.813c-.008-5.946-.027-11.892-.05-17.839-.02-6.08-.03-12.16-.04-18.24-.02-11.907-.055-23.814-.097-35.721Z" fill="#6D743F"/><path d="M157 150c5.294 2.528 10.084 5.223 14.813 8.688l1.825 1.326C193.634 174.668 210.617 190.707 218 215c.152 2.934.152 2.934 0 5l-1.215-1.172c-6.844-6.27-13.565-9.67-23.008-9.273-6.457 1.035-11.913 3.771-15.84 9.07-3.317 5.78-3.803 10.82-2.937 17.375 3.307 9.129 9.09 15.232 17.438 19.938 8.224 2.452 14.119 1.06 21.562-2.938 2.366-1.29 4.684-2.62 7-4 1.5 1.375 1.5 1.375 3 3v2c1.323.688 2.66 1.347 4 2l2.813 1.625c8.13 3.435 19.01 2.205 27.171-.633 2.95-1.452 4.874-3.535 7.016-5.992 2.313-1.313 2.313-1.313 4-2l2.5 2.313c5.324 4.389 11.224 6.356 18.133 6.105 8.485-1.498 14.61-6.636 19.555-13.418 3.988-6.601 4.754-12.362 3.812-20-2.603-7.386-8.314-10.657-15-14-9.312-1.07-15.634.154-23 6a53.508 53.508 0 0 0-5 5c.46-6.504 1.63-11.478 4.5-17.313l1.081-2.229C286.82 179.03 308.321 161.88 330 150h1v47l23-3h10c-5.099 9.029-10.647 17.657-16.438 26.25l-2.505 3.738c-2.015 3.007-4.035 6.01-6.057 9.012 1.637 3.474 3.497 5.736 6.25 8.438l2.418 2.375a100.025 100.025 0 0 0 5.894 5.125c.805.68 1.61 1.36 2.438 2.062v2l-1.983.384c-6.85 1.33-13.695 2.68-20.539 4.041-2.55.505-5.1 1.004-7.652 1.498-3.682.714-7.36 1.446-11.037 2.182l-3.423.651c-9.29 1.891-16.909 5.349-24.733 10.69-.906.601-1.813 1.203-2.746 1.824a678.776 678.776 0 0 0-5.5 3.734c-6.591 4.347-12.646 6.54-20.387 7.996l-2.655.558c-5.707 1.075-11.57.691-17.345.442l-2.068-.057c-16.436-.693-28.767-10.1-41.842-19.285-3.737-2.592-6.56-3.173-11.09-3.658l-2.58-.888c-4.482-1.457-9.014-2.351-13.63-3.276l-2.935-.597a5442.54 5442.54 0 0 0-9.23-1.864l-6.277-1.273c-5.115-1.038-10.231-2.072-15.348-3.102 0-3 0-3 1.504-4.578l2.059-1.672c3.564-2.97 6.807-6.095 9.992-9.465C148 236 148 236 150 236a123.534 123.534 0 0 0-8.984-15.71l-1.396-2.105c-1.452-2.19-2.91-4.375-4.37-6.56-1.937-2.9-3.869-5.804-5.797-8.71L128.1 200.9C125 196.226 125 196.226 125 194a374.473 374.473 0 0 1 33 3l-.217-2.452c-.78-9.663-.902-19.235-.845-28.923.005-1.526.01-3.052.013-4.578.011-3.682.028-7.365.049-11.047Z" fill="#43A67C"/><path d="M150 134c3.39 1.3 5.793 2.44 8.438 4.938 3.622 3.289 7.385 6.316 11.25 9.312 50.056 39 50.056 39 54.312 68.75.32 4.836.365 9.676.39 14.521.186 7.712 1.692 13.942 6.673 19.979 3.82 2.957 7.578 2.695 12.25 2.75l3.925.078c3.975-.347 6.318-1.395 9.762-3.328h2l.875-2.188a146.661 146.661 0 0 1 2.178-5.178c.977-2.717 1.2-4.718 1.22-7.591l.054-2.848.048-3.007c.48-15.053 2.835-27.55 11.625-40.188l1.633-2.363C286.159 174.928 298.47 163.689 311 154c1.87-1.49 3.733-2.987 5.596-4.484 1.928-1.548 3.86-3.09 5.795-4.63a624.381 624.381 0 0 0 6.718-5.429l2.704-2.207 2.332-1.922C336 134 336 134 338 134c.166 18.026-.303 35.991-1 54l2.75-.275c3.388-.338 6.777-.673 10.165-1.007 1.463-.144 2.925-.29 4.388-.436 2.11-.212 4.22-.419 6.33-.626l3.84-.38c3.195-.25 6.324-.328 9.527-.276-2.725 7.163-6.76 13.576-10.688 20.125l-2.068 3.477-2.068 3.468-1.027 1.727a281.208 281.208 0 0 1-5.487 8.827l-1.14 1.777a650.399 650.399 0 0 1-3.162 4.852c-1.56 2.569-1.56 2.569-1.208 4.96 1.344 2.832 3.424 4.679 5.66 6.85l2.645 2.597c2.108 1.94 4.211 3.682 6.543 5.34l-1 3c-2.834.23-4.476.342-6.897-1.238l-1.767-1.719-1.961-1.873-2-1.982-2.023-1.948A622.278 622.278 0 0 1 338 235c1.507-4.267 3.717-7.877 6.21-11.621l1.242-1.886c1.303-1.98 2.613-3.955 3.923-5.93l2.617-3.971C355.645 206.05 359.316 200.52 363 195c-6.744-.245-13.21.411-19.883 1.289l-2.129.274-1.89.253c-2.69.236-5.398.184-8.098.184l-1-46c-22.978 14.772-52.153 34.114-58.457 63.102-.243 1.624-.404 3.261-.543 4.898l1.54-1.426c7.257-6.565 12.214-9.239 22.198-8.988 6.337.804 11.02 3.715 15.2 8.476 4.41 6.282 4.993 11.295 4.062 18.938-3.656 10.561-9.884 16.168-19.438 21.313-6.783 1.82-12.297.888-18.554-2.153C274 254 274 254 271.125 251.688L269 250c-3.154.731-3.154.731-4.75 3.375-3.764 4.391-8.689 5.727-14.25 6.625-16.372 1.118-16.372 1.118-23-4-2.875-2.688-2.875-2.688-5-5l-2-1-1.758 1.242C211.1 256.17 204.852 259.366 196 258c-8.977-3.075-15.288-8.555-19.938-16.75-2.815-6.133-3.244-12-1.433-18.512 2.671-6.289 7.732-10.027 13.797-12.879 6.045-2.018 12.508-1.621 18.387.766 4.225 2.113 7.069 4.857 10.187 8.375-2.362-21.207-17.97-38.428-34-51.27-8.02-6.203-16.302-11.377-25-16.73v46c-18.405-1.15-18.405-1.15-25.5-2.063l-2.238-.275A1314.26 1314.26 0 0 1 125 194c4.99 8.078 10.02 16.116 15.313 24C150 232.462 150 232.462 150 236c-1.504 1.578-1.504 1.578-3.563 3.25-3.502 2.925-6.73 5.984-9.894 9.27-2.363 2.266-3.916 3.45-7.23 3.605L127 252l-1-3 16-14c-5.065-10.817-11.447-20.851-17.695-31.008l-1.934-3.153a1824.108 1824.108 0 0 0-3.85-6.246l-1.775-2.894-1.604-2.599C114 187 114 187 114 185c12.38.61 24.675 1.687 37 3l-.215-2.038c-.646-6.504-.92-12.909-.883-19.442l.005-2.846c.005-2.954.018-5.907.03-8.862A7441.535 7441.535 0 0 1 150 134Z" fill="#463733"/><path d="M243 22c3.769 1.256 4.262 2.526 6.355 5.84l1.885 2.97 1.947 3.128 1.983 3.115C260 44.723 260 44.723 260 47l1.788-.75c2.671-1.114 5.348-2.213 8.024-3.313l2.815-1.181 2.705-1.104 2.491-1.031C280 39 280 39 283 40c1.718 2.5 1.718 2.5 3.574 5.785l.996 1.745a899.084 899.084 0 0 1 3.118 5.532 3194.5 3194.5 0 0 0 2.126 3.745C294.553 59.866 296.28 62.93 298 66l2.266-.656 2.984-.844 2.953-.844C309 63 309 63 313 63c2.597 5.331 5.178 10.67 7.745 16.016.876 1.817 1.756 3.633 2.64 5.447 1.27 2.606 2.524 5.219 3.775 7.834l1.209 2.456 1.092 2.305.976 2.018c.691 2.363.398 3.633-.437 5.924-1.26 1.584-1.26 1.584-2.836 3.094l-1.726 1.683-1.813 1.723a1209.581 1209.581 0 0 0-3.523 3.406l-1.66 1.61c-1.584 1.566-1.584 1.566-3.231 3.89L314 122h-2l-1.437-3.058a55920.31 55920.31 0 0 0-7.576-16.114l-3.292-7-1.029-2.191c-1.88-4.003-1.88-4.003-3.897-7.939C294 84 294 84 294 81c-5.851 4.732-10.904 10.016-15.874 15.643-3.811 4.252-3.811 4.252-7.126 5.357v-2h-2c-1.218-1.586-1.218-1.586-2.61-3.82-3.596-5.579-7.589-10.802-11.64-16.055a8224.777 8224.777 0 0 1-4.266-5.555l-1.883-2.445c-1.256-1.667-2.443-3.388-3.601-5.125h-2c-1.414 1.544-1.414 1.544-2.836 3.594l-1.71 2.352-1.829 2.554a8579.15 8579.15 0 0 1-3.781 5.207l-1.934 2.67c-2.889 3.967-5.833 7.89-8.785 11.81l-1.568 2.086A7130.53 7130.53 0 0 1 217 102c-4.368-1.62-6.88-4.913-9.875-8.313C203.323 89.394 199.494 85.576 195 82c-1.904 3.928-3.806 7.856-5.707 11.786l-1.934 3.994c-3.892 8.028-7.719 16.074-11.359 24.22-6-4.956-11.809-10.192-17-16v-2h-2c2.362-7.986 5.811-15.386 9.415-22.869a717.148 717.148 0 0 0 3.048-6.463c.655-1.37 1.312-2.738 1.97-4.106l.904-1.953c.88-1.793.88-1.793 2.663-4.609 4-1 4-1 15 2l16-27c5.963 1.988 11.839 4.024 17.715 6.23 2.199.876 2.199.876 4.285.77 1.26-1.613 1.26-1.613 2.46-3.727l1.43-2.378 1.485-2.52c.965-1.618 1.931-3.235 2.898-4.852l1.398-2.34c1.697-2.787 3.49-5.49 5.329-8.183Z" fill="#6E743E"/><path d="M404 301c3.659 3.566 7.04 7.265 10.313 11.188l1.376 1.615C419 317.76 419 317.76 419 320h2l.34-2.57c.705-3.661 1.845-6.844 3.223-10.305l1.378-3.492L427 301c3.264 1.508 6.064 3.34 8.938 5.5l2.527 1.844c5.95 6.235 8.667 15.198 11.558 23.187l1.062 2.902c.73 2.003 1.458 4.006 2.183 6.01 1.115 3.08 2.245 6.155 3.377 9.229.71 1.953 1.42 3.906 2.128 5.86l1.03 2.79.921 2.57.822 2.264C462 365 462 365 461 367c-6.875-2.75-6.875-2.75-8-5h-4v-2h-4v-2l-6-1v-2h-3l-10 22c-4.231-2.116-6.686-4.659-9.75-8.125l-1.535-1.707A875.718 875.718 0 0 1 411 363c-.058 3.896-.094 7.791-.125 11.688-.017 1.102-.034 2.205-.05 3.341l-.02 3.233-.032 2.967c.323 3.939 1.18 6.79 4.09 9.517l2.45 1.692 2.914 2.035c3.041 2.052 6.107 4.068 9.171 6.086l2.882 1.902a862.98 862.98 0 0 0 5.81 3.79l2.703 1.772 2.454 1.592L445 414v2c-10.332.37-20.665.702-31 1l-3.106.096c-2.444.07-4.887.117-7.332.154l-3.933.078c-5.464-.494-11.201-1.912-14.879-6.265-7.6-10.397-7.265-22.054-7-34.313.02-1.631.038-3.263.055-4.895.043-3.952.112-7.903.195-11.855l-4.22 4.546-3.228 3.47c-2.536 2.74-4.988 5.499-7.322 8.414L361 379h-2c1.009-10.256 2.29-20.341 4.316-30.45.676-3.51 1.193-7.009 1.684-10.55.6-4.046 1.234-8.086 1.875-12.125l.488-3.246.504-3.137.441-2.832c1.308-5.03 4.423-8.714 7.692-12.66 3.264 1.375 4.84 2.76 6.797 5.695l1.465 2.168c.49.747.982 1.493 1.488 2.262l1.535 2.285A781.967 781.967 0 0 1 391 322l1.828-3.07 2.422-4.055 1.2-2.016A243.543 243.543 0 0 1 404 301Z" fill="#44A77C"/><path d="M65 136c11.49-.065 11.49-.065 17.187.351l3.265.233 3.407.256 3.602.262c2.495.182 4.989.366 7.483.552 3.809.284 7.618.56 11.427.836l7.3.537 3.432.25c11.73.88 11.73.88 15.897 1.723 1.61 3.22 1.61 6.789 1.973 10.332l.264 2.511c.185 1.756.367 3.512.547 5.269.276 2.68.56 5.36.843 8.038l.533 5.12.256 2.421c.386 3.788.686 7.495.584 11.309-3.5-.31-7-.624-10.5-.938l-2.977-.263C124 184.302 118.5 183.727 113 183c.23 3.647.485 7.293.75 10.938l.245 3.371c.75 9.357 2.16 18.52 4.035 27.716.5 2.695.934 5.234.97 7.975-1.633 2.246-1.633 2.246-4 4-1.579 2.324-2.9 4.788-4.25 7.25l-1.102 1.969c-.888 1.59-1.769 3.185-2.648 4.781-4.02-3.504-6.244-7.63-8.75-12.25l-1.246-2.258c-1.007-1.827-2.007-3.66-3.004-5.492-3 3.582-4.777 7.53-6.688 11.75l-.97 2.113c-.785 1.71-1.564 3.424-2.342 5.137h-2l-.81-1.728c-1.207-2.571-2.417-5.14-3.627-7.71l-1.276-2.72-1.22-2.588-1.127-2.396c-.801-1.823-.801-1.823-1.94-2.858l-6 12c-.787-3.148-1.124-5.214-1.12-8.353l-.004-2.618.01-2.846v-3.017c0-3.29.009-6.58.016-9.87l.005-6.843c.003-6.003.013-12.007.024-18.011.01-6.126.015-12.253.02-18.38.01-12.02.028-24.041.049-36.062Z" fill="#6E743E"/><path d="M127 256c9.415 1.333 18.719 3.035 28.025 4.977 1.504.311 3.008.616 4.515.916 2.203.438 4.402.893 6.6 1.353l2.049.398c1.874.405 1.874.405 4.811 1.356 1.142 3.425 1.294 6.362 1.5 9.969l.123 2.05c.173 2.892.337 5.783.502 8.675.122 2.113.248 4.225.375 6.337l.219 3.83c.162 3.166.162 3.166 1.281 6.139 1.551 1.325 1.551 1.325 3.5 2.488l2.191 1.393 2.309 1.432a553.644 553.644 0 0 1 6.562 4.182c2.383 1.53 2.383 1.53 4.821 2.656 2.634 1.392 4.565 2.678 6.617 4.849 1.247 4.216 1.052 8.253.879 12.617l-.039 3.674c-.05 3.863-.163 7.722-.278 11.584a2480.31 2480.31 0 0 0-.123 7.867c-.099 6.421-.25 12.84-.439 19.258-6.722.17-6.722.17-9.223-1.355l-1.84-1.832c-3.203-3.11-6.487-5.98-9.937-8.813l-2.957 2.117a124549.377 124549.377 0 0 1-7.688 5.5l-1.73 1.238c-3.635 2.56-5.387 3.385-9.813 3.27l-2.73-.055L155 374c-1.523-7.13-2.433-13.985 0-21 5.687-8.112 13.38-14.609 20.889-20.995L178 330v-2c-2.166-1.635-2.166-1.635-4.969-3.3-1.046-.649-2.093-1.296-3.172-1.964l-3.359-2.048-3.266-2.014a2117.2 2117.2 0 0 0-6.123-3.761c-3.716-2.285-7.412-4.601-11.111-6.913v27l7.438-2.375 2.345-.736c1.758-.574 3.489-1.23 5.217-1.889l1-2-13 4v-20c4.182 1.673 6.64 3.04 10.125 5.688 4.796 3.582 9.727 6.782 14.855 9.867L176 329v2c-1.398 1.375-1.398 1.375-3.375 3-4.359 3.692-8.342 7.678-12.328 11.766-4.107 3.995-4.107 3.995-6.297 5.234-6.361-.875-12.17-2.672-17-7-2.337-5.957-2.794-11.977-3.36-18.313-.202-1.816-.409-3.631-.62-5.446-.543-4.768-1.018-9.54-1.48-14.315-.481-4.853-1.03-9.697-1.571-14.543-.78-7.087-1.54-14.175-2.241-21.27l-.227-2.23c-.385-3.977-.574-7.888-.501-11.883Z" fill="#6E743F"/><path d="M361 256a464.823 464.823 0 0 1-2.813 32.008l-.526 4.395c-.364 3.033-.73 6.067-1.1 9.1-.47 3.875-.937 7.75-1.401 11.626-.448 3.73-.898 7.461-1.348 11.191l-.255 2.127c-.24 1.992-.483 3.984-.725 5.975l-.415 3.42L352 339l-.38 3.29c-.62 2.71-.62 2.71-3.386 4.644l-3.484 1.503-3.453 1.56c-3.609 1.098-4.852 1.467-8.297.003-2.678-2.072-5.081-4.384-7.5-6.75l-1.973-1.883A579.333 579.333 0 0 1 313 331c1.299-3.896 2.91-4.552 6.313-6.793l3.257-2.158 1.704-1.111c1.724-1.124 3.44-2.26 5.156-3.397C337.84 312 337.84 312 339 312v20l-9-3h-3v2l2.012.367 2.675.508 2.637.492C337 333 337 333 342 335v-27l-8.688 5.5c-7.735 4.892-15.5 9.731-23.312 14.5 1.505 3.753 3.646 5.552 6.79 8.035 16.487 13.94 16.487 13.94 17.597 24.356.15 6.593-.375 13.096-1.387 19.609-4.352-1.627-7.652-3.856-11.25-6.75-5.093-4.014-10.273-7.768-15.75-11.25-5.346 4.744-10.624 9.482-15.527 14.688C289 378 289 378 286 379a1297.89 1297.89 0 0 1-.57-23.055c-.057-3.57-.135-7.138-.26-10.707-.12-3.45-.185-6.896-.214-10.348-.03-1.946-.115-3.891-.202-5.836-.006-8.715-.006-8.715 3.625-12.597 2.792-2.05 5.593-3.782 8.621-5.457a233.372 233.372 0 0 0 4.066-2.75 710.3 710.3 0 0 1 3.497-2.25l1.822-1.191C310.755 302 310.755 302 313 302l-.07-2.762a208.84 208.84 0 0 1 1.078-24.32l.287-2.908c.232-2.337.467-4.674.705-7.01 6.068-1.286 12.137-2.567 18.207-3.845 2.065-.436 4.13-.872 6.195-1.31 2.966-.628 5.932-1.253 8.899-1.876l2.803-.597 2.608-.546 2.295-.484C358 256 358 256 361 256Z" fill="#6E743E"/><path d="M393 229c2.502 1.25 2.766 2.212 3.945 4.71l1.075 2.274 1.105 2.391 1.129 2.367C403 246.617 403 246.617 403 250h2l.773-2.508c1.38-3.926 3.063-7.615 4.852-11.367l.984-2.086A1894.9 1894.9 0 0 1 414 229c7.276 6.497 9.427 16.232 11.043 25.426 4.042 20.845 12.228 40.838 22.805 59.168L449 316l-1 2c-3.514-.976-4.778-1.654-6.781-4.781-2.46-3.57-4.96-5.576-8.469-8.094l-1.68-1.219c-1.35-.978-2.71-1.943-4.07-2.906l-.55 2.125c-1.53 5.772-3.25 11.324-5.45 16.875h-2c-1.734-1.906-1.734-1.906-3.75-4.5l-2.14-2.742A767.806 767.806 0 0 1 405 302c-2.395 2.2-3.925 4.382-5.48 7.23l-1.338 2.432-1.37 2.526-1.404 2.56c-1.14 2.082-2.276 4.166-3.408 6.252-3.856-3.636-6.867-7.417-9.813-11.813l-1.232-1.81A966.07 966.07 0 0 1 378 305c-3.732 1.244-4.745 2.843-7 6l-1 3a208.964 208.964 0 0 1-4.242 3.465c-2.71 2.366-4.942 5.107-7.242 7.863C357 327 357 327 355 328c.654-7.384 2.044-14.529 3.526-21.788 2.798-13.778 5.543-27.684 5.45-41.802.025-3.59.46-6.93 1.024-10.473.544-3.417 1.003-6.604.969-10.066.032-2.935.534-5.003 1.531-7.746l.844-2.367L369 232c4.003 4.69 6.61 9.774 9.414 15.234 1.296 2.852 1.296 2.852 3.586 3.766.235-.817.47-1.635.71-2.477 1.557-4.254 3.652-7.987 5.915-11.898l1.273-2.23c1.03-1.801 2.065-3.599 3.102-5.395Z" fill="#6D743E"/><path d="M305 363c2.928 1.38 5.495 2.968 8.117 4.863l2.34 1.69 2.418 1.76 2.395 1.724a327.39 327.39 0 0 1 4.611 3.403c2.047 1.552 2.047 1.552 4.03 2.739 1.667 1.11 1.667 1.11 4.089 3.821.462 3.38.115 6.671-.125 10.063-.171 6.956-.171 6.956 2.716 13.087 4.31 4.058 9.23 7.03 14.409 9.85l-7 15h-16l-2 6a91.143 91.143 0 0 1-1.945 4.086l-1.075 2.129-1.105 2.16-1.129 2.23c-.912 1.8-1.828 3.598-2.746 5.395h-15c-3-6-3-6-3-9l-2-1c-1.07-2.215-1.07-2.215-2.125-4.938l-1.07-2.714C293 433 293 433 293 431h-14c-1.174-2.1-2.34-4.205-3.5-6.313l-1.012-1.802C272.932 420.042 272 418.293 272 415c2.555-1.824 2.555-1.824 5.875-3.688l3.305-1.886C284 408 284 408 286 408l-.27-2.025c-2.166-18.8-2.166-18.8 1.906-25.78 3.974-4.847 8.608-8.886 13.576-12.69 2.032-1.568 2.032-1.568 3.788-4.505Z" fill="#BB6C54"/><path d="M82 302h2c1.205 1.744 1.205 1.744 2.531 4.156l1.457 2.598 3.024 5.492 1.457 2.598 1.326 2.412L95 321h2c1.256-1.517 1.256-1.517 2.46-3.5.473-.722.945-1.444 1.43-2.188.988-1.538 1.97-3.08 2.946-4.625l1.437-2.187 1.295-2.031L108 305c4 0 4 0 6.563 2.125 7.008 9.279 6.929 26.693 8.654 37.938.475 3.092.958 6.182 1.441 9.273l.916 5.922.436 2.787.395 2.592.35 2.268C127 370 127 370 127 374c-2.188.313-2.188.313-5 0-5.37-4.94-10.112-10.59-15-16l-9 16c-7 0-7 0-8.713-1.469L88.13 370.5l-1.299-2.188L85.563 366l-1.35-2.313A270.217 270.217 0 0 1 81 358c-3.392 3.335-3.392 3.335-6.563 6.875C73 366 73 366 71.106 365.828c-2.787-1.096-3.613-2.455-5.23-4.953l-1.508-2.258c-2.847-5.45-3.618-10.674-3.597-16.765v-1.99c.004-1.38.012-2.76.024-4.14.018-2.085.02-4.169.02-6.253.02-6.89.24-13.64 1.186-20.469 2.448 3.673 4 6.546 4 11h2l.652-1.582c1.894-3.397 4.373-6.172 6.91-9.106l1.538-1.798c3.655-4.269 3.655-4.269 4.9-5.514Z" fill="#43A77C"/><path d="m161.488 407.168 3.575-.025c2.485-.008 4.97-.001 7.455.02 3.774.024 7.543-.02 11.316-.071 23.384-.082 23.384-.082 32.166 7.908-.931 6.185-3.086 10.471-6 16h-15l-1.125 3.625c-2.197 6.632-5.066 12.985-7.875 19.375-5.039.577-10.264 1.144-15-1-4.145-4.354-6.023-10.432-8-16-.663-1.668-1.328-3.335-2-5l-3.29.203c-8.626.213-8.626.213-12.71-1.203-3.372-3.55-4.989-7.229-6-12 .268-2.994.575-4.537 2.627-6.772 6.57-4.54 11.993-5.123 19.861-5.06Z" fill="#BB6C54"/><path d="M379 357c2.312 2.147 3.902 4.285 5.48 7.012l1.338 2.295 1.37 2.38 1.404 2.417c1.14 1.963 2.276 3.928 3.408 5.896 3.395-4.085 6.334-8.383 9.25-12.813A2969.168 2969.168 0 0 0 406 357c1.966 1.125 1.966 1.125 4 3.001.514 2.74.514 2.74.54 6.023.022 1.186.045 2.372.07 3.594l.015 3.758c.026 2.445.06 4.89.102 7.336l.018 3.29c.344 4.04 1.127 6.942 4.118 9.745l2.45 1.692 2.914 2.035c3.041 2.052 6.107 4.068 9.171 6.086l2.882 1.902a862.98 862.98 0 0 0 5.81 3.79l2.703 1.772 2.454 1.592L445 414v2c-10.332.37-20.665.702-31 1l-3.106.096c-2.444.07-4.887.117-7.332.154l-3.933.078c-5.464-.494-11.201-1.912-14.879-6.265-7.978-10.966-7.113-22.963-6.5-35.813.068-1.776.135-3.552.2-5.328.16-4.309.347-8.615.55-12.922Z" fill="#CDC2B2"/><path d="M393 229c2.502 1.25 2.766 2.212 3.945 4.71l1.075 2.274 1.105 2.391 1.129 2.367C403 246.617 403 246.617 403 250h2l.773-2.508c1.38-3.926 3.063-7.615 4.852-11.367l.984-2.086A1894.9 1894.9 0 0 1 414 229c6.554 5.83 10.191 15.82 11.29 24.336-.595 7.53-4.243 15.309-8.29 21.664l-2 1-.902-1.728c-1.343-2.571-2.69-5.14-4.036-7.71l-1.42-2.72-1.357-2.588-1.254-2.396c-.895-1.814-.895-1.814-2.031-2.858l-1.172 2.746c-2.894 6.774-5.815 13.532-8.828 20.254-2.562-2.301-3.969-4.586-5.48-7.668l-1.338-2.705-1.37-2.815-1.404-2.85c-1.141-2.317-2.277-4.638-3.408-6.962-4.131 3.721-7.058 8.198-10.188 12.75-1.073 1.56-2.15 3.117-3.23 4.672l-1.43 2.08L365 277h-1c-.214-9.155.012-17.849 1.563-26.914.515-3.077.515-3.077.406-6.18.031-2.952.528-5.022 1.531-7.781l.844-2.367L369 232c4.003 4.69 6.61 9.774 9.414 15.234 1.296 2.852 1.296 2.852 3.586 3.766.235-.817.47-1.635.71-2.477 1.557-4.254 3.652-7.987 5.915-11.898l1.273-2.23c1.03-1.801 2.065-3.599 3.102-5.395ZM72 229c2.964 3.557 4.772 7.45 6.688 11.625l.97 2.063C82 247.74 82 247.74 82 250h2l.246-1.98c1.024-4.1 2.881-7.593 4.817-11.333l1.142-2.244c.926-1.817 1.86-3.63 2.795-5.443 3.56 4.14 6.138 8.553 8.75 13.313l1.246 2.244c1.006 1.812 2.005 3.627 3.004 5.443 2.822-3.525 4.983-7.327 7.188-11.25l1.115-1.969c.901-1.592 1.8-3.186 2.697-4.781l2 1c.487 2.142.487 2.142.816 4.96.125 1.03.25 2.06.377 3.122l.37 3.293.38 3.176c1.16 9.828 2.22 19.545 2.057 29.449-4.33-4.013-7.536-8.418-10.813-13.313l-1.521-2.244A1228.47 1228.47 0 0 1 107 256c-2.143 2.733-3.878 5.468-5.48 8.547l-1.338 2.558-1.37 2.645-1.404 2.691c-1.14 2.185-2.275 4.371-3.408 6.559-2.186-2.734-3.71-5.314-5.043-8.547l-1.064-2.558-1.08-2.645-1.116-2.691A1549.8 1549.8 0 0 1 83 256l-1.863 3.36-2.45 4.39-1.224 2.21c-1.968 3.521-3.91 6.9-6.463 10.04-5.453-9.497-9.53-18.123-7.582-29.426C65.255 240.306 68.751 234.626 72 229Z" fill="#44A67B"/><path d="m303.438 266.688 2.62.136L308 267c.748 6.074-1.698 9.544-4.875 14.438l-1.523 2.373a1191.568 1191.568 0 0 1-3.12 4.83c-1.379 2.195-2.64 4.418-3.877 6.695-4.217 7.482-7.64 11.658-16.105 14.101-3.146.808-6.234 1.563-9.5 1.563-1.384-8.219-2.632-16.944 0-25 5.028-6.087 12.354-9.38 19.381-12.679 2.4-1.21 4.377-2.519 6.494-4.16 3.293-2.277 4.651-2.741 8.563-2.474Z" fill="#CDC1B1"/><path d="M181 267c9.43-1.315 16.346 3.107 24.063 7.938l2.012 1.24c5.57 3.546 10.756 6.884 13.259 13.176 1.174 7.326.327 14.453-1.334 21.646-14.804-1.793-14.804-1.793-19.901-6.908-3.482-4.614-6.168-9.659-8.832-14.775-1.758-3.215-3.85-6.052-6.017-9.005-3.229-4.742-4.122-7.642-3.25-13.312Z" fill="#CEC1B1"/><path d="M31.875 9.625c2.738.02 2.738.02 5.125.375 4.926 5.523 4.25 12.522 4.313 19.5l.087 3.148c.06 7.315-.907 13.825-4.4 20.352-3.496 2.33-4.887 2.588-9 2-3.814-3.711-4.874-6.722-5.161-11.913-.046-3.633-.074-7.266-.089-10.9l-.063-3.814C22.66 21.838 22.692 16.723 26 11c1.66-1.66 3.598-1.29 5.875-1.375ZM454.875 9.688l2.68-.114C460 10 460 10 461.758 11.77c3.399 6.103 2.464 13.263 2.492 20.043l.063 3.814c.05 11.866.05 11.866-3.313 17.373-3 2-3 2-6.5 1.938C451 54 451 54 449.187 51.874c-3.076-7.448-3.524-13.855-3.5-21.875l-.048-3.195c-.004-6.055.433-10.467 3.361-15.805 1.659-1.659 3.6-1.25 5.875-1.313Z" fill="#BC6F57"/><path d="M81 13c2.365 1.867 3.66 3.32 5 6 .788 8.444-.201 16.416-1.813 24.688l-.5 2.645-.519 2.491-.46 2.222C81.872 53.353 80.896 54.463 79 56c-2.156.434-2.156.434-4.5.438l-2.344.058C70 56 70 56 68.39 54.361c-1.79-3.039-1.778-5.115-1.788-8.63l-.012-3.694.035-3.85-.035-3.814c.025-7.92.48-13.292 5.16-19.81C74.997 12.306 77.139 12.447 81 13Z" fill="#BC6D56"/><path d="M408.5 12.5c5.147.735 5.147.735 7.5 2.5 4.8 6.755 4.217 13.495 4.24 21.527.01 2.032.041 4.064.072 6.096l.016 3.88.028 3.558C420 53 420 53 418.614 54.88c-2.128 1.476-3.54 1.52-6.114 1.494l-2.344.023C408 56 408 56 406.32 54.961c-2.006-2.98-2.386-6.232-2.945-9.711l-.367-2.094c-3.776-21.836-3.776-21.836-.445-27.843C405 13 405 13 408.5 12.5Z" fill="#BC6D55"/><path d="M367 28c7.171 7.158 7.318 18.763 7.398 28.379-.522 3.436-1.924 6.147-4.398 8.621a91.472 91.472 0 0 1-5.063.063l-2.785-.028L360 65c-5.338-8.896-7.462-20.765-6-31 3.37-5.73 6.469-6.676 13-6Z" fill="#BC6E56"/><path d="M126.836 28.387C129 29 129 29 131.563 30.812 135.935 40.51 132.07 52.33 129 62l-2 3c-2.277.398-2.277.398-4.938.375l-2.652.023c-2.85-.47-3.698-1.112-5.41-3.398-2.937-8.81-.265-22.587 3-31 2.812-3.874 5.436-3.323 9.836-2.613Z" fill="#BC6D55"/><path d="m289 213-.49 2.625c-.817 5.407-.694 10.791-.697 16.25l-.038 3.473c-.01 6.249.367 11.675 2.225 17.652-6.524.337-10.36-.22-15.703-4.3-2.936-2.765-4.16-4.806-4.777-8.837-.233-9.722 2.278-15.01 8.71-22.093 3.57-3.57 5.704-4.77 10.77-4.77ZM198 212c6.963.82 11.448 4.959 15.676 10.23 4.734 6.327 5.216 12.039 4.324 19.77-1.007 3.766-2.694 6.17-6.059 8.309-4.363 2.126-8.024 3.195-12.941 2.691l.49-2.58c.887-5.946.695-11.918.697-17.92l.038-3.957.005-3.824.013-3.471c-.253-3.378-1.038-6.094-2.243-9.248Z" fill="#CBBFAF"/><path d="m63.375 407.512 3.53.021c3.7.028 7.397.09 11.095.154 2.517.026 5.034.048 7.55.069 6.151.055 12.3.138 18.45.244-3.975 5.072-6.638 7.54-13 9-3.629.328-3.629.328-7.563.25l-2.21-.033A663.14 663.14 0 0 1 73 417l-3.86-.111A3995.19 3995.19 0 0 1 42 416c1.312-3.937 3-4.894 6.49-6.96 4.817-1.996 9.747-1.647 14.885-1.528Z" fill="#CDC1B1"/><path d="M293 213c6.818 1.136 6.818 1.136 9.688 3.25l1.699 1.203c2.898 2.78 4.437 5.396 5.047 9.379.01 7.904-.802 13.343-6.34 19.176-3.44 3.17-5.464 4.834-10.094 5.992v-39Z" fill="#C9BEAE"/><path d="M195 213v39c-6.64-2.656-11.229-6.122-15-12.25-1.683-6.313-2.288-12.173.688-18.125C188.286 213 188.286 213 195 213Z" fill="#CBBFAF"/><path d="M243 90h2c1.29 3.77 2.571 7.541 3.845 11.316.435 1.283.871 2.565 1.31 3.847.631 1.844 1.254 3.692 1.876 5.54l1.143 3.364C254 117 254 117 254 121h-20c2.459-10.519 5.68-20.726 9-31Z" fill="#44A67B"/><path d="M267 156h2v32c-10.125-3.375-10.125-3.375-14.563-5.188l-2.566-1.042L250 181c4.38-7.155 9.078-13.918 14.18-20.566 1.817-2.28 1.817-2.28 2.82-4.434Z" fill="#45A479"/><path d="M192 119c4.437 1.476 7.768 3.926 11.375 6.813l3.441 2.699 1.657 1.302c2.777 2.157 5.644 4.175 8.527 6.186-4.566 4.87-9.75 8.892-15 13-2.487-2.487-2.922-4.453-3.945-7.813l-1.075-3.507-1.105-3.68-1.129-3.68C192 121.287 192 121.287 192 119Z" fill="#43A67B"/><path d="M294 119h2c-2.284 10.145-4.766 20.108-8 30-4.052-1.745-7.306-4.423-10.75-7.125l-1.824-1.418c-1.478-1.15-2.952-2.303-4.426-3.457 2.604-2.707 5.234-5.022 8.293-7.2.795-.568 1.59-1.137 2.408-1.724l2.486-1.763c1.64-1.17 3.28-2.34 4.918-3.512l2.193-1.558c1.644-1.134 1.644-1.134 2.702-2.243Z" fill="#44A67B"/><path d="M220 157c3.242 3.242 5.758 5.811 8.332 9.426l1.729 2.412 1.751 2.475 1.811 2.533c1.463 2.048 2.922 4.1 4.377 6.154-3.098 2.413-5.85 3.869-9.563 5.188l-2.878 1.042C223 187 223 187 220 187v-30Z" fill="#43A77B"/><path d="M196 213h3c1.894 4.014 2.257 7.236 2.266 11.656l.007 3.848-.023 3.996.023 3.996-.007 3.848-.007 3.506c-.256 3.119-.931 5.336-2.259 8.15h-3c-1.995-4.163-2.257-7.571-2.266-12.164l-.005-2.042c-.002-1.417.002-2.834.01-4.251.011-2.168 0-4.336-.012-6.504a8007633328.164 8007633328.164 0 0 1 .015-7.932C194 216 194 216 196 213Z" fill="#13100D"/><path d="M289 213c1.938.313 1.938.313 4 1 1.69 5.07 1.186 10.463 1.185 15.769.002 2.092.02 4.183.04 6.274.003 1.337.005 2.674.005 4.012l.013 3.671c-.237 3.191-.874 5.405-2.243 8.274h-3c-2.435-6.638-2.297-13.051-2.25-20.063l-.023-3.51.007-3.4.007-3.07c.283-3.236 1.122-5.924 2.259-8.957Z" fill="#13100C"/><path d="M302 455h15c-1.525 7.496-3.68 14.714-6 22h-3a2651.832 2651.832 0 0 1-3-9.313l-.867-2.67-.82-2.568-.762-2.364C302 458 302 458 302 455ZM171 455h15c-1.328 7.527-3.02 14.932-6 22l-2 1a4784.192 4784.192 0 0 1-3.5-10.375l-1.012-2.984-.957-2.852-.888-2.634C171 457 171 457 171 455Z" fill="#CCBFB0"/><path d="M351 417c3.395 1.458 5.523 3.338 8.063 6 2.274 2.374 4.182 4.163 6.937 6v2h-22c1.42-4.26 2.303-6.83 4.625-10.375l1.352-2.086L351 417ZM218 417c4.582 2.291 7.732 5.605 11.23 9.258 1.665 1.818 1.665 1.818 3.77 2.742v2h-22c1.42-4.26 2.303-6.83 4.625-10.375l1.352-2.086L218 417Z" fill="#CDC0B1"/><path d="M136 417c3.915 3.356 6.08 7.28 8 12v2h-22c6.75-7.875 6.75-7.875 10.375-10.938l2.086-1.777L136 417Z" fill="#CDC1B1"/><path d="M269 417c2.553 2.275 3.841 4.432 5.188 7.563l1.042 2.378C276 429 276 429 276 431h-21c6.75-7.875 6.75-7.875 10.375-10.938l2.086-1.777L269 417Z" fill="#CCC0B0"/><path d="M182 363c4.654 3.596 6.511 5.767 10 11h-24c3.443-3.443 5.886-5.793 9.813-8.313l2.394-1.55L182 363Z" fill="#B86E56"/><path d="M80 357c3.148 2.94 5.455 5.986 7.75 9.625l1.86 2.914C91 372 91 372 91 374c-10.558-1.927-10.558-1.927-15-4 .087-1.605.196-3.21.313-4.813l.175-2.707c.575-2.786 1.333-3.721 3.512-5.48Z" fill="#CAC1B0"/><path d="M107 357h1v17H98c1.31-4.435 3.047-8 5.563-11.875l1.878-2.93L107 357Z" fill="#C9C1B0"/></svg>