<svg xmlns="http://www.w3.org/2000/svg" width="475" height="477"><path d="M428 33c1.293 2.21 1.293 2.21 2 4l-1.8.777C420.852 41.17 415.027 45.64 409 51l-2.297 2.008c-8.38 7.78-12.477 17.63-13.015 28.992.401 11.267 6.94 18.985 14.812 26.438 7.439 6.483 15.813 12.392 24.754 16.609 3.14 1.53 5.076 2.937 7.058 5.89l1.434 2.098L443 135l1.875 2.875C446 140 446 140 446 142l-1.688-.36c-7.42-1.253-11.35.549-17.343 4.801-7.04 5.619-14.042 14.636-15.27 23.805l-.012 2.191-.05 2.184c.512 3.357 1.516 5.516 3.363 8.379 2.354 1.59 4.485 2.873 7 4.125 7.981 4.072 7.981 4.072 10 7.875.375 2.737.139 5.22 0 8l-1.54-.84-2.085-1.097-2.04-1.09c-9.633-4.012-24.508-3.63-34.085.152-6.073 3.002-11.546 6.467-14.25 12.875-.455 3.562-.396 5.356 1.5 8.438 2.04 2.09 4.087 3.932 6.313 5.812 5.17 4.424 10.95 9.809 12.187 16.75-5.865-.437-9.74-2.976-14.563-6.063l-2.42-1.509a813.61 813.61 0 0 1-10.415-6.62C331.586 204.986 279.18 197.37 233.438 198c-1.918.025-3.836.047-5.754.063l-2.514.035C223 198 223 198 220 197a78.81 78.81 0 0 0-4.316-.21c-22.76-.708-22.76-.708-30.684-7.79a103.23 103.23 0 0 1-4.063-5.438c-1.988-2.83-3.894-5.514-6.222-8.078C173 173 173 173 173.039 170.387l.586-2.7c.602-4.423.398-6.533-2.313-10.125A84.545 84.545 0 0 0 168 154l-2.063-2.125L164 150l-2.375-3.125c-3.309-3.624-5.85-4.504-10.668-5.148-11.058-1.667-20.644-7.727-30.113-13.368l-3.238-1.924a575.154 575.154 0 0 1-6.356-3.862l-2.977-1.792-2.643-1.623c-4.142-1.824-7.394-1.57-11.63-.158l-1 5c-6.233-5.165-9.8-12.676-10.813-20.688L82 100l2.93-.48c14.913-2.6 26.366-8.166 35.445-20.895 2.052-3.36 3.481-6.703 4.79-10.414l1.052-2.967L127 63l2.24.124C160.2 65.198 160.2 65.198 188 53c1.43-1.207 1.43-1.207 1.188-4.75-.032-3.526-.75-6.013-2.188-9.25v-4c2.833-.795 5.433-1.188 8.375-1.25l2.21-.078C200 34 200 34 202.876 35.488c7.318 3.54 16.172 2.115 23.688-.3 3.766-1.364 7.05-3.05 10.437-5.188-.538-3.38-1.143-6.687-2-10C286.98-4.37 381.564-5.303 428 33Z" fill="#A13624"/><path d="M45 139c18.06 9.215 35.434 22.155 44 41l2-3a262.673 262.673 0 0 1 2.875-4.063l1.492-2.097c1.742-1.963 3.23-2.837 5.633-3.84l.262 1.816c2.335 15.06 5.026 30.378 10.858 44.517 1.948 4.923 2.439 9.436 1.88 14.667-1.968 1.968-5.348 1.662-8 2 1.831 2.002 3.664 4.002 5.5 6l1.648 1.794a243.771 243.771 0 0 0 11.426 11.62c2.764 3.074 2.616 6.394 2.676 10.336l.078 3.047c-.403 3.933-1.714 6.603-3.328 10.203l2.81.44c3.479.557 6.951 1.14 10.422 1.739 1.496.253 2.994.496 4.493.73 8.98 1.403 16.165 2.773 22.275 10.091l2.063 2.375c1.742 4.879.596 9.742-1.081 14.534-1.506 5.26-1.248 10.596-1.212 16.025v3.487c.004 2.433.012 4.866.024 7.3.018 3.673.02 7.346.02 11.02.017 11.05.11 22.053.95 33.075C165.85 388.448 165.85 388.448 162 394c-2.244 2.244-7.24 1.326-10.25 1.375l-2.605.113c-4.416.062-6.522-.047-10.215-2.66-2.138-3.133-2.607-4.697-2.555-8.453l-.04-2.852c.22-.832.44-1.665.665-2.523l2.5-1.32L142 376c.526-2.983.714-5.276.625-8.25l-.03-2.324c-.225-5.862-1.305-9.243-5.595-13.426l1.938-2.688c1.945-3.125 2.702-4.736 3.062-8.312-.63-2.266-.63-2.266-1.8-4.441l-1.21-2.503-1.303-2.618c-2.822-5.858-5.139-10.944-5.75-17.5-.183-2.71-.183-2.71-.937-4.938-2.082-1.447-3.74-2.001-6.223-2.473L123 306c-1.08-3.238-1.114-5.578-1.098-8.98l.01-3.526.025-3.682.014-3.716c.012-3.032.028-6.064.049-9.096a617.384 617.384 0 0 0-2.473 4.75l-1.39 2.672c-1.566 3.55-1.694 5.762-1.137 9.578l2 2c.266 2.39.266 2.39.25 5.25l.016 2.828c-.293 3.217-1.14 5.904-2.266 8.922l1.898 2.082 2.477 2.73 2.46 2.708c4.187 4.798 4.187 4.798 4.103 7.418-1.32 2.901-3.387 4.23-5.938 6.062.947 3.131 1.867 5.79 3.625 8.563 1.608 2.85 2.034 4.226 1.375 7.437l-2.5 1.813c-2.909 2.043-2.909 2.043-2.875 5.875.092 1.44.22 2.877.375 4.312l.242 2.52c.225 2.164.478 4.322.758 6.48l-3.254-.438-4.308-.562c-.705-.095-1.41-.19-2.135-.29-6.098-.786-12.018-1.493-17.928.603l-2.309.816c-2.245.875-2.245.875-4.754 2.621C86 375 86 375 83.313 375.063 75.974 372.707 69.162 368.652 65 362c-1.064-2.7-1.713-5.416-2.313-8.25l-.51-2.18C61 346.436 61 346.436 61 344l-2-1a68.46 68.46 0 0 1-2.313-4.125C53.163 332.363 49.309 327.179 44 322c-5.524-5.549-8.673-11.848-12-18.875-3.243-6.799-6.507-13.249-10.898-19.387C20 282 20 282 20 280l8 1-1.68-1.906-2.195-2.594-2.18-2.531c-4.517-6.894-4.589-15.512-5.52-23.51-1.728-14.709-4.18-29.161-7.963-43.5C8 205 8 205 7.562 201.313L7 198l-2-1c-.594-2.649-.742-5.292-1-8 23.306 7.523 40.136 28.242 53.866 47.425A275.033 275.033 0 0 0 62 242c.132-6.51-.303-12.687-1.25-19.125l-.4-2.766C59.145 212.2 57.248 204.67 55 197c-.69-2.662-1.346-5.33-2-8h3l-.953-2.438c-4.007-11.006-5.843-22.091-7.588-33.646-.733-4.654-1.59-9.285-2.459-13.916Z" fill="#A03624"/><path d="m326 214 2.143.749c10.551 3.776 20.69 8.46 30.741 13.397 1.228.603 2.457 1.203 3.689 1.799 17.64 8.577 17.64 8.577 21.365 16.618C389.52 264.625 389.13 296.4 381 314c-2.075 3.706-4.153 5.668-8.188 7.25-9.263-.607-16.98-8.499-23.812-14.25l-1.546-1.289c-9.078-7.577-17.737-15.554-26.313-23.692a904.727 904.727 0 0 0-6.864-6.39l-2.354-2.185a1079.194 1079.194 0 0 0-4.516-4.166l-2.055-1.915-1.818-1.678c-3.49-3.834-3.966-7.345-3.858-12.365.537-3.848 2.07-6.165 4.324-9.32 3.122-2.081 3.933-2.274 7.5-2.25l2.344-.016C316 242 316 242 319 244c.293 2.383.293 2.383.188 5.125l-.083 2.758L319 254c-3.67 1.573-5.443 2.144-9.375 1.125L307 254c.309 2.986.832 3.861 3.188 5.813 3.553 1.5 5.14 1.311 8.812.187 4.67-2.502 4.67-2.502 7-7 .365-4.934.29-8.162-3-12-4.405-1.836-8.249-2.297-13-2.313l-3.563-.05c-3.831.405-6.2 1.291-9.437 3.363-2.997 4.336-3.652 9.88-3 15 2.719 5.444 6.065 9.617 10.25 14l1.76 1.866c3.48 3.656 7.029 7.134 10.908 10.368 2.731 2.317 5.336 4.765 7.957 7.204a181.52 181.52 0 0 0 13.969 11.71c3.554 3.053 6.544 6.081 7.156 10.852.125 2.207.227 4.416.313 6.625.551 7.92 1.881 14.984 7.625 20.813 3.346 2.611 6.623 3.252 10.75 4.062 5.995 1.198 5.995 1.198 9.062 4.125 1.539 4.155 2.619 7.917 2.25 12.375-1.813 3.063-1.813 3.063-4 5h-2l-.875 2.875C368 372 368 372 366 374c-2.293-.2-2.293-.2-5.188-.688-7.006-.763-12.228 1.109-18.66 3.56C339 378 339 378 336 378l-1 2c-2.063.625-2.063.625-4 1l.027-1.906c-.215-6.203-1.404-9.634-5.773-14.047-7.346-6.672-15.001-12.715-23.067-18.485l-2.136-1.54c-8.815-6.198-16.777-8.2-27.488-8.21l-2.198-.037c-5.388-.014-10.632.333-15.205 3.498-1.587 2.362-2.096 4.58-2.722 7.352l-.743 3.21L251 354l-.633 2.79c-.466 2.067-.918 4.138-1.367 6.21l-2.094-2.2c-2.888-2.882-6.072-5.272-9.406-7.613l-1.825-1.294c-5.272-3.698-10.704-7.087-16.226-10.397C217 340 217 340 216 339c-.218-10.017 8.761-17.927 14.945-25.027 5.692-5.464 9.926-6.59 17.547-6.575l2.742-.026c1.908-.011 3.816-.012 5.724-.003 2.902.006 5.8-.041 8.702-.092 1.86-.004 3.722-.006 5.582-.004l2.602-.055c6.554.1 10.503 2.19 15.156 6.782l1.542 2.166c1.381 2.148 1.381 2.148 4.369 2.38l3.507.063 3.799.098 3.97.043c1.336.028 2.671.058 4.006.09 3.27.07 6.538.123 9.807.16.127-4.703-.075-7.2-3-11-2.042-1.655-2.042-1.655-4.438-2.938l-2.695-1.546c-2.852-1.508-5.75-2.852-8.68-4.204-7.384-3.65-13.214-8.747-19.187-14.312l-1.824-1.691c-19.489-18.263-19.489-18.263-21.512-30.309-.24-12.26 4.822-22.591 12.649-31.688C287.44 207.435 306.428 207.076 326 214Z" fill="#A13624"/><path d="m424 39-2.746 2.09c-12.47 9.575-23.994 18.437-26.973 34.762-1.173 8.964.342 16.271 5.781 23.648 7.655 9.204 17.047 15.942 26.938 22.5-4.084 1.694-7.476.127-11.438-1.188-40.193-12.474-84.84-14.071-126.625-14.124l-3.427-.011c-38.169-.066-79.124 3.15-113.247 21.783-3.539 1.892-6.226 3.242-10.263 2.54-3.586-3.267-4.826-4.499-5.39-9.371.467-4.34 1.594-5.884 4.452-9.129l2.52-2.871L166 107l1.7-1.91c13.88-14.79 33.226-25.657 51.418-34.202a396.31 396.31 0 0 0 5.472-2.65c33.217-16.05 70.16-25.544 106.56-30.816 2.763-.41 5.514-.866 8.268-1.328C360.59 32.762 405.187 26.458 424 39Z" fill="#B59464"/><path d="M275.141 114.927c46.79-1.53 98.333 1.854 142.859 17.073 1.967.645 3.934 1.288 5.902 1.93A1146.886 1146.886 0 0 1 439 139c-2 2-2 2-5.625 3.688-9.873 4.891-15.996 12.972-20.555 22.875-2.095 6.225-.884 12.373 1.18 18.437l-5.375-2.062-3.629-1.391a629.394 629.394 0 0 1-8.023-3.156c-48.153-19.222-96.966-26.555-148.348-30.203-3.09-.221-6.18-.455-9.27-.69-10.612-.802-21.211-1.476-31.851-1.732l-2.16-.056a764.596 764.596 0 0 0-10.325-.193l-3.707-.076-3.261-.04c-4.893-.643-8.83-2.643-12.051-6.401 1.226-3.796 3.45-5.14 6.896-6.942l2.041-.995 2.157-1.054c8.343-3.9 16.911-6.159 25.906-8.009l2.72-.562c19.64-3.9 39.463-4.832 59.421-5.51Z" fill="#B59463"/><path d="m270 153 2.133.301c29.37 4.154 58.38 9.404 86.634 18.643 2.365.773 4.732 1.536 7.103 2.291 16.07 5.124 31.842 10.378 47.044 17.768 3.658 1.748 7.373 3.37 11.086 4.997v1l-2.104-.08c-21.976-.948-21.976-.948-40.591 9.553-2.66 3.114-3.566 5.703-3.43 9.777L378 221l-2.063-1.25c-8.442-5.03-17.053-9.554-25.937-13.75l-1.974-.94c-37.317-17.476-78.161-25.158-118.428-32.245a967.806 967.806 0 0 1-10.903-1.995c-5.605-1.027-11.225-1.535-16.898-2.062-5.102-1.018-8.628-3.131-12.797-6.258-1-1.5-1-1.5-.938-3.5 1.222-2.606 2.516-3.448 4.938-5 2.77-.914 2.77-.914 5.813-1.625l3.019-.727c21.965-4.495 46.19-1.805 68.168 1.352Z" fill="#B49363"/><path d="M370.875 48.813C375.987 52.477 380.662 57.053 383 63l-1 3-1.469-1.39C375.98 60.442 371.728 57.307 366 55c-.69-.3-1.382-.598-2.094-.906-5.667-2.096-11.115-2.375-17.094-2.407l-2.304-.016c-7.107.09-13.304 1.125-18.508 6.329-3.857 6.512-4.015 12.606-3 20 3.082 7.4 10.368 11.696 17.285 15.137 12.333 3.921 25.91.102 37.133-5.301L379 87c-3.693 8.249-10.473 12.716-18.582 16.09-8.262 3.11-19.401 3.52-27.793.347A79.455 79.455 0 0 1 328 101l-2.766-1.543c-5.635-3.364-10.147-7.021-14.48-11.953-1.875-1.938-1.875-1.938-5.754-1.504l-.848 1.758c-3.849 7.5-7.838 12.437-16.027 15.117-12.02 2.802-26.512 2.513-37.625-3.063-7.752-3.659-16.591-.546-24.438 1.75l-2.739.796c-9.426 2.832-18.396 6.52-27.323 10.642l-2.233 1.025c-8.293 3.85-15.791 7.985-22.767 13.975-3.653 2.92-3.653 2.92-6.438 3.563-3.134-.689-4.552-2.192-6.644-4.567-1.443-3.138-1.266-5.587-.918-8.996 4.807-9.055 11.598-12.945 21-16l3.703-1.414c16.254-6.195 33.342-10.411 50.586-12.65 4.304-.46 4.304-.46 7.711-2.936l.688-3.625c1.731-7.297 7.037-11.808 13.187-15.688 7.747-4.582 15.269-6.2 24.188-6.124l2.564-.061C288.7 59.508 295.172 62.343 301 68c1.313 2.75 1.313 2.75 2 5h2l.188-3.938c1.032-8.784 5.687-14.754 12.335-20.335 15.267-10.644 38.012-9.372 53.352.086Z" fill="#826649"/><path d="M107 166c6.284 1.061 11.361 2.361 16 7 .072 1.853.084 3.708.063 5.563l-.028 3.066L123 184l2.125-1c3.323-1.156 5.377-1.456 8.875-1 2.476 1.416 4.57 2.783 6.813 4.5.607.45 1.214.898 1.84 1.36 5.029 3.77 9.784 7.818 14.347 12.14 5.917-4.155 11.011-8.773 16-14 12.356 5.373 19.965 23.067 25.125 34.73 2.772 7.19 3.054 14.954.313 22.208-3.59 7.956-7.249 15.858-14.438 21.062l-1.438-7.625-.408-2.16-.4-2.13-.398-2.094c-.324-1.81-.58-3.63-.829-5.452L180 242l-2-1v-3c-4.93-.76-9.186-1.092-13.57 1.547-7.824 6.893-14.675 15.358-20.88 23.73l-2.3 3.036-1.984 2.738C137 271 137 271 133.422 271.418 130 271 130 271 127 269c.38-2.436.773-4.577 1.945-6.762 1.114-2.161 1.763-3.815 2.055-6.238-3.287-9.658-12.391-17.923-21-23 3.268-2.179 6.38-3.498 10-5-.31-1.438-.623-2.875-.938-4.313l-.527-2.425c-.534-2.407-.534-2.407-1.535-5.262 4.593 1.486 7.436 3.85 11 7v-3c-2.99-2.848-5.186-4.677-9.043-6.207-3.842-2.33-4.565-4.84-5.644-8.98l-.609-2.143c-3.323-12.087-5.136-24.145-5.704-36.67ZM69 413.625l2.116.003c6.937.16 10.7 2.168 16.322 6.06 6.838 3.502 14.354 2.121 21.624.875 18.202-2.771 40.84-5.056 57.227 5.117 2.393 1.846 3.65 3.49 4.711 6.32.188 2.813.188 2.813 0 5h2c2.849 6.291 4.335 12.094 3 19-4.427 9.03-16.418 14.168-25.25 18-4.542 1.211-9.083 1.885-13.75 1l-2-3 1.496-1.645 1.941-2.168 1.934-2.144c1.82-2.042 1.82-2.042 2.629-5.043h2l1-4-3.375.938c-4.157 1.054-8.253 1.492-12.523 1.816-2.157.132-2.157.132-4.102 1.246l-2.691.262c-4.257.95-6.835 2.927-10.246 5.55-12.408 9.358-12.408 9.358-16.5 8.938L95 475c.37-6.79 2.405-11.269 6-17-3.742-2.547-7.014-4.749-11.438-5.875-5.967-1.885-10.297-6.124-14.937-10.223C62.741 431.713 47.973 430.486 33 428c3.66-4.066 7.295-6.46 12.313-8.688l1.896-.892c7.117-3.248 13.968-4.813 21.791-4.795Z" fill="#A13624"/><path d="M101 41c6.533 4.894 13.326 10.24 18 17v3c-4.534.216-7.732-.563-12-2-10.525-2.278-21.278-2.57-32-3l.55 2.918c.678 3.598 1.347 7.197 2.013 10.797.29 1.553.58 3.105.874 4.658.422 2.24.837 4.482 1.25 6.725l.398 2.078C80.872 87.502 81.12 91.608 81 96h-2a262.496 262.496 0 0 1-4-5l-2-1v-2h-2a325.725 325.725 0 0 1-3.703-4.543C65.727 81.694 64.15 80.932 62 80c-.396-.438-.791-.877-1.2-1.328-2.517-2.337-5.432-3.733-8.487-5.234l-1.91-.94C37.182 66.138 24.645 67.23 11 72a174.164 174.164 0 0 0-7.188 3.23C2 76 2 76 0 76c1.281-12.75 9.755-24.815 19.375-33.027C45.417 23.9 74.502 22.969 101 41Z" fill="#2E3640"/><path d="M124 274a637.6 637.6 0 0 1 17 2l2.148.276c8.795 1.2 15.053 2.759 20.852 9.724 1.02 1.176 1.02 1.176 2.063 2.375 1.742 4.879.596 9.742-1.081 14.534-1.506 5.26-1.248 10.596-1.212 16.025v3.487c.004 2.433.012 4.866.024 7.3.018 3.673.02 7.346.02 11.02.017 11.05.11 22.053.95 33.075C165.85 388.448 165.85 388.448 162 394c-2.244 2.244-7.24 1.326-10.25 1.375l-2.605.113c-4.416.062-6.522-.047-10.215-2.66-2.138-3.133-2.607-4.697-2.555-8.453l-.04-2.852c.22-.832.44-1.665.665-2.523l2.5-1.32L142 376c.526-2.983.714-5.276.625-8.25l-.03-2.324c-.225-5.862-1.305-9.243-5.595-13.426l1.938-2.688c1.945-3.125 2.702-4.736 3.062-8.312-.63-2.266-.63-2.266-1.8-4.441l-1.21-2.503-1.303-2.618c-2.822-5.858-5.139-10.944-5.75-17.5-.183-2.71-.183-2.71-.937-4.938-2.082-1.447-3.74-2.001-6.223-2.473L123 306c-1.51-4.528-1.184-9.007-1.188-13.75l-.037-2.96c-.01-5.503.389-10.093 2.225-15.29Z" fill="#B69564"/><path d="M212.25 340.25c3.63.99 5.009 2.886 7.523 5.605 6.287 6.055 14.838 12.063 22.977 15.207C245 362 245 362 246 364c.184 1.425.32 2.856.43 4.29l.222 2.605c.147 1.796.288 3.593.422 5.39.614 7.006 1.448 13.347 6.738 18.402 13.551 8.434 27.267 9.377 42.329 6.004L299 400c-3.488 9.015-16.01 14.303-24.285 18.004C272 419 272 419 269 419l-1 2c-2.326.38-4.66.713-7 1l-2 1c-15.065.084-27.8-2.597-40-12-1.888-1.914-3.398-3.83-5-6l-2-1a152.477 152.477 0 0 1-3.563-7.75l-.958-2.172c-5.997-13.852-5.867-33.954-.479-48.078 2.551-4.85 2.551-4.85 5.25-5.75Z" fill="#2E3540"/><path d="M300 120c2.94 2.865 5.35 5.986 7.563 9.438 1.36 1.754 1.36 1.754 3.687 2.187 3.53-.802 5.186-2.5 7.71-5.02 7.786-6.13 17.23-5.54 26.648-4.902 7.526.935 13.4 4.569 18.08 10.422 1.755 2.58 2.694 4.817 3.312 7.875l-2.02-1.39c-8.742-5.82-18.1-11.349-28.98-9.61-3.648 1.284-5.462 2.358-7.938 5.313-1.374 3.477-1.243 5.144-.062 8.687 3.831 4.576 8.091 7.855 14 9 7.315.416 13.997.197 21-2-3.87 4.676-8.386 6.487-14.285 7.324-10.936.516-22.1-3.701-30.715-10.324-1.516-1.754-1.516-1.754-2.75-3.438-1.986-2.869-1.986-2.869-5-2.75-3.633 1.328-6.759 3.117-10.102 5.043-2.803 1.494-4.972 1.954-8.148 2.145l-2.426.188c-9.408.425-18.223-2.191-25.574-8.188l-1-3c-18.29.967-36.517 2.323-54.75 4.063l-2.82.266c-2.66.252-5.318.51-7.977.769l-2.414.23c-4.089.382-4.089.382-8.085 1.278-3.228.65-5.223-.979-7.954-2.606-1.875-1.688-1.875-1.688-3-3 1.484-3.913 3.304-5.135 7-7 2.882-.884 5.8-1.512 8.75-2.125l2.305-.512c9.152-1.97 18.032-2.532 27.382-2.488l3.177.01c12.888.085 25.761.25 38.386 3.115l.75-1.805c2.64-4.638 7.787-7.38 12.75-9.023 8.193-1.792 16.04-2.535 23.5 1.828Z" fill="#826649"/><path d="M391 252c16.738 5.354 29.583 12.367 40 27 2.201 4.402 1.186 10.379 1.185 15.273.002 2.19.02 4.38.04 6.57.085 20.2.085 20.2-5.1 25.594-7.385 5.342-16.313 5.81-25.125 5.875l-2.212.018c-3.707-.051-6.705-.148-9.788-2.33-1.167-2.334-1.095-3.595-1.038-6.189l.052-2.64.072-2.882.063-2.994c.07-3.224.148-6.447.226-9.67l.148-6.586c.36-15.685.819-31.364 1.477-47.039Z" fill="#A13624"/><path d="M4 189c23.109 7.46 40.285 28.114 53.784 47.28a276.107 276.107 0 0 0 3.54 4.86c1.804 3.079 1.832 4.402 1.676 7.86l-1.693-.61c-2.58-.928-5.162-1.846-7.745-2.765l-2.662-.96A122.18 122.18 0 0 0 34 240c.457 1.542.916 3.084 1.375 4.625l.773 2.602c.586 1.907 1.222 3.799 1.899 5.675 1.038 3.373 1.455 6.528 1.828 10.036.847 6.904 2.39 13.34 4.32 20.015C45 286 45 286 45 289c-8.076-.621-14.048-4.624-19.375-10.5-4.73-5.527-7.038-10.006-7.836-17.273l-.577-4.659-.29-2.448c-1.897-15.931-4.35-31.615-8.458-47.147C8 205 8 205 7.562 201.313L7 198l-2-1c-.594-2.649-.742-5.292-1-8ZM45 139c18.06 9.215 35.434 22.155 44 41l2-3a262.673 262.673 0 0 1 2.875-4.063l1.492-2.097c1.742-1.963 3.23-2.837 5.633-3.84l.262 1.816c2.335 15.06 5.026 30.378 10.858 44.517 1.948 4.923 2.439 9.436 1.88 14.667-1.53 1.53-2.935 1.428-5.063 1.625-3.224-.03-4.593-.36-7.171-2.352-4.27-4.67-7.233-9.521-9.766-15.273-5.96-13.074-5.96-13.074-16-23l-.367 1.863-.508 2.45-.492 2.425C74 198 74 198 72 201c-8.555-4.157-15.156-8.143-18.438-17.5-3.208-9.927-4.612-20.324-6.119-30.616C46.73 148.238 45.87 143.619 45 139Z" fill="#2E3540"/><path d="m205.102 154.797 2.298-.017c1.598-.01 3.196-.016 4.795-.02 2.403-.01 4.805-.04 7.207-.072 12.833-.09 24.097 2.211 36.223 6.437l2.348.8c2.01.687 4.019 1.38 6.027 2.075l3 1c1.725-.91 1.725-.91 3.375-2.313 6.402-5.1 12.662-5.466 20.625-4.687 6.089 1.368 8.686 4.708 12.125 9.75l1.82 2.984c1.892 2.567 1.892 2.567 5.07 2.72 2.84-.432 4.26-.908 6.61-2.454 5.16-2.794 10.646-2.877 16.375-2 4.058 2.053 6.882 4.703 10 8l-1 2-3.313-2c-5.131-2.593-10.047-2.556-15.687-2l-3 1 .125 3.688.07 2.074c1.27 3.533 3.554 5.55 6.805 7.238 3.159.574 6.178.478 9.375.313l2.52-.069c2.035-.058 4.07-.148 6.105-.244-4.295 4.515-7.567 5.676-13.75 6.5-5.605-.182-9.988-3.048-14.25-6.5a88.111 88.111 0 0 1-3.688-4.813c-2.395-3.356-2.904-4.056-7-5.375-3.152-.05-3.152-.05-5.066 1.11-11.342 5.444-24.05 2.493-35.64-.215-9-2.087-18.081-3.717-27.17-5.362-2.868-.52-5.735-1.048-8.601-1.577-1.83-.334-3.66-.667-5.491-.998l-2.685-.487c-6.722-1.187-13.432-2-20.231-2.589-4.89-.99-10.562-3.395-13.428-7.694.251-2.137.46-3.46 2-5 5.037-.906 9.997-1.173 15.102-1.203Z" fill="#826649"/><path d="M390 364c2.387 1.89 2.387 1.89 4.688 4.25 8.676 8.146 17.658 10.509 29.312 11.75-.475 13.825-3.874 22.384-14 32-6.205 5.069-12.186 5.761-20 5-6.631-2.011-11.827-6.733-16.574-11.621-1.398-1.49-1.398-1.49-3.426-2.379v-2l-1.625-.688c-3.16-1.746-5.643-3.952-8.375-6.312 1.516-5.731 4.426-10.137 7.688-15l1.529-2.367c5.12-7.69 10.714-15.318 20.783-12.633ZM368 406c2.938 1.625 2.938 1.625 6 4 2.56 1.542 5.144 3.038 7.73 4.535 2.125 1.371 3.73 2.464 5.27 4.465 2.123 10.78-2.091 23.118-8 32l-1.688 2.688c-6.994 6.994-15.578 10.358-25.375 10.437L349 464c-1.581-6.44-2.996-12.704-3.625-19.313-1.336-9.601-7.09-17.76-12.375-25.687v-3c3.207-1.295 6.416-2.585 9.625-3.875l2.738-1.105c15.195-6.1 15.195-6.1 22.637-5.02Z" fill="#A13624"/><path d="M270 213c-1.534 3.258-3.39 6.185-5.375 9.188-4.949 7.767-7.872 14.48-9.23 23.625C255 248 255 248 254 249c-1.38.099-2.765.13-4.148.133l-2.547.004-2.68-.012-2.656.012-2.555-.004-2.345-.004C235 249 235 249 232 248c-11.807-1.054-20.811 4.818-30.227 11.172C199 261 199 261 198 261v-12h2v-6h2l1-6h2l.75-2.191c4.399-9.884 13.552-15.853 23.082-20.059 11.873-4.216 29.013-5.322 41.168-1.75Z" fill="#2E3540"/><path d="M238.108 257.717c5.6-.656 11.397-1.232 16.892.283 4.3 3.757 6.37 7.997 9 13 2.006 2.615 2.006 2.615 4.062 4.813l1.723 1.894L271 279l-1 2c-2.846.383-5.64.656-8.5.875-15.735 1.468-34.198 3.959-45.688 16-3.108 4.037-4.571 8.231-5.812 13.125-.394 1.355-.79 2.71-1.188 4.063L208 318c-3-3.75-3-3.75-3-6l-2-1-1-5-2-1c-2.666-8.796-.573-16.822 3-25 6.287-11.332 14.858-16.937 27-21 2.695-.563 5.382-.917 8.108-1.283Z" fill="#2F3540"/><path d="M317.879 422.766c4.476-.22 7.346-.168 11.371 1.921 1.336 1.418 1.336 1.418 2.75 3.313l1.914 2.488c6.204 9.528 6.814 20.393 5.086 31.512-1.01 2.419-1.568 3.69-3.707 5.223-5.823 1.974-13.024 1.802-18.86-.028-7.225-3.748-16.182-10.491-19.882-17.91-.831-3.447-.937-6.882-.988-10.41l-.032-2.102c.077-4.404.742-7.29 3.469-10.773 5.845-2.851 12.506-2.716 18.879-3.234Z" fill="#A13624"/><path d="M259 347h2a87.909 87.909 0 0 1 3.625 4.563C272.721 361.839 280.79 367.322 294 369c2.856.133 5.704.14 8.563.125l2.248.012c3.854-.007 7.443-.202 11.189-1.137.75 2.125.75 2.125 1 5-4.614 9.027-13.317 16.442-22.715 20.04-9.908 2.994-18.866 1.989-28.098-2.665-6.422-3.84-13.217-8.833-15.187-16.375.39-3.516.39-3.516 1.25-7.25l.828-3.766L254 360l2-1c.358-2.33.688-4.664 1-7 1.063-2.938 1.063-2.938 2-5Z" fill="#2E3540"/><path d="M96 373c1.936-.356 1.936-.356 4.29-.328l2.605.015 2.73.063 2.66.016A118.63 118.63 0 0 1 124 374c.88 3.302.994 6.242.875 9.625-.028 6.284.532 13.107 4.566 18.191 1.774 1.576 3.577 2.881 5.559 4.184l2.457 1.691c2.162 1.468 4.341 2.901 6.543 4.309l-1 2c-2.734.558-5.222.823-8 1l-3.703.27c-8.213.41-13.824-.1-20.867-4.86-2.818-1.635-5.216-2.042-8.43-2.41v-2l-3.688-.313c-3.847-.326-6.277-1.255-9.312-3.687-1.999-3.014-3.588-6.198-5.188-9.438l-1.326-2.603A771.38 771.38 0 0 1 79 383l-2-4 2.75.938L83 381l1.977.738c2.088.483 2.088.483 3.875-.847l1.773-1.641 1.79-1.61c1.792-1.756 1.792-1.756 3.585-4.64Z" fill="#2F3540"/><path d="M421.866 334.903c2.045-.046 4.09.013 6.134.097 4.158 4.158 3.248 10.63 3.251 16.187-.126 7.82-1.45 15.187-7.251 20.813-4.963 3.065-10.37 2.668-16 2-7.966-2.59-16.682-8.207-21.563-15.125-2.877-5.78-2.382-13.668-.601-19.71C387 337 387 337 390 336c2.104-.151 4.212-.249 6.32-.316l3.813-.127 3.992-.12 3.922-.13c4.606-.148 9.213-.248 13.82-.404Z" fill="#A13624"/><path d="M107 166c6.284 1.061 11.361 2.361 16 7 .072 1.853.084 3.708.063 5.563l-.028 3.066L123 184l2.125-1c3.323-1.156 5.377-1.456 8.875-1 2.476 1.416 4.57 2.783 6.813 4.5.607.45 1.214.898 1.84 1.36 5.029 3.77 9.784 7.818 14.347 12.14-1.605 4.472-5.086 6.933-8.625 9.875l-1.912 1.606A779.541 779.541 0 0 1 141 216l-2.563 2.117C133.534 222 133.534 222 129 222c-1.199-1.465-2.39-2.939-3.516-4.46-1.756-1.822-3.092-2.169-5.484-2.915-3.264-1.488-3.963-2.547-5.52-5.867-1.444-4.181-2.502-8.447-3.48-12.758l-.48-2.085c-2.064-9.248-3.091-18.45-3.52-27.915Z" fill="#B48D5E"/><path d="m266.875 324.625 2.778.026c18.479.39 30.252 4.375 44.347 16.349 1.83 1.504 3.663 3.004 5.5 4.5 2.816 2.3 5.627 4.605 8.426 6.926l2.887 2.387 2.726 2.261a44.491 44.491 0 0 0 6.149 4.051C342 363 342 363 342.563 366.25c-.648 4.318-1.871 7.733-3.563 11.75h-3l-1 2c-2.063.625-2.063.625-4 1l.027-1.906c-.215-6.203-1.404-9.634-5.773-14.047-7.346-6.672-15.001-12.715-23.067-18.485l-2.136-1.54c-8.815-6.198-16.777-8.2-27.488-8.21l-2.198-.037c-5.388-.014-10.632.333-15.205 3.498-1.587 2.362-2.096 4.58-2.722 7.352l-.743 3.21L251 354l-.633 2.79c-.466 2.067-.918 4.138-1.367 6.21-2.545-2.272-3.867-4.172-4.41-7.566-.165-3.132-.184-6.235-.153-9.372l-.072-3.248c.017-8.773.017-8.773 2.733-12.38 6.259-5.249 11.929-5.933 19.777-5.809Z" fill="#B49261"/><path d="M98 123c4.032 1.24 7.548 2.714 11.195 4.828l2.903 1.667 3.027 1.755c13.323 8.312 13.323 8.312 27.875 13.75v2c-1.619.983-3.272 1.91-4.938 2.813-7.114 4.33-10.823 10.226-15.062 17.187-3.724-.626-6.922-1.687-10.387-3.18l-3.095-1.316-6.352-2.734C96.866 157.09 90.61 154.793 84 153c1.19-10.996 6.109-22.109 14-30Z" fill="#A13624"/><path d="M168.93 17.266c5.597 4.688 9.869 9.717 12.07 16.734l-1 3-2.543-.988C166.482 32.024 155.572 30.342 144 29l.988 3.695c.779 3.119 1.263 5.95 1.2 9.18l-.02 2.242C146 46 146 46 145 48h-2l-1.688-2.625C133.207 32.864 117.678 29.216 104 26v-3c16.63-14.592 46.397-19.153 64.93-5.734Z" fill="#2E3640"/><path d="m267.09 425.678 2.785.01 2.762-.05 2.668-.001 2.437-.01c2.827.467 4.184 1.421 6.258 3.373.976 2.928 1.094 4.949 1.188 8 .944 11.156 8.162 19.418 15.812 27-7.305 3.223-14.52 3.21-22.375 3.25l-3.04.062c-7.372.04-13.405-.373-19.062-5.601-3.23-5.75-2.188-13.138-.586-19.336L257 439c.294-2.88.497-5.753.656-8.645.807-5.53 4.914-4.64 9.434-4.677ZM192.214 424.922c2.408-.08 4.815-.13 7.223-.172l2.368-.065c3.298-.019 5.732.066 8.668 1.643 3.017 3.303 2.906 7.46 3.402 11.735.668 5.47 1.695 10.586 3.54 15.789.669 2.455.683 4.615.585 7.148-7.984 3.795-17.95 3.051-26.188.313-6.047-2.586-8.28-5.89-10.937-11.75-2.446-6.454-5.15-15.122-3.195-21.93C179 426 179 426 180.969 425.39c3.749-.209 7.493-.337 11.245-.47Z" fill="#A13624"/><path d="M92 216c3.447 1.429 5.077 3.082 7.25 6.086 3.622 4.825 7.584 9.181 11.75 13.539l2.04 2.156c3.785 3.99 7.63 7.894 11.612 11.69 2.735 3.103 2.511 6.468 2.535 10.404l.043 3.117c-.234 3.063-.938 5.24-2.23 8.008-16.023-.883-16.023-.883-23.313-1.438l-2.488-.183c-2.374-.41-4.11-1.199-6.199-2.379l.5-3.313c1.105-8.947.449-17.875-.438-26.812l-.263-2.8c-.42-4.407-.887-8.8-1.428-13.192L91 217l1-1Z" fill="#B59463"/><path d="M83.46 416.613c3.004 2.706 4.823 5.757 6.54 9.387l.969 1.992c2.853 7 2.509 14.577 2.031 22.008l-1 2c-3.12.31-4.637.23-7.324-1.469l-2.364-2.031-2.644-2.203a463.415 463.415 0 0 1-5.117-4.469C62.71 431.686 47.909 430.476 33 428c3.66-4.066 7.295-6.46 12.313-8.688l1.896-.892c10.25-4.678 26.05-8.211 36.252-1.807Z" fill="#2F3540"/><path d="M54 93c7.478 1.308 10.919 6.482 15.313 12.375 3.428 4.556 7.43 8.17 11.746 11.875L83 119v1l5 1c-.446 6.775-2.437 11.827-5.438 17.875l-1.236 2.586c-3.025 6.238-3.025 6.238-5.326 8.539h-3l-.125-1.875L72 146a250.483 250.483 0 0 0-6-2c-7.574-5.643-10.408-10.803-12-20-.336-5.406-.287-10.775-.188-16.188.016-1.443.03-2.886.042-4.33.032-3.494.084-6.988.146-10.482Zm17 32c-.618 3.104-.472 6.101-.313 9.25l.069 2.547c.059 2.068.148 4.136.244 6.203h1l.078-3.613c.056-1.567.114-3.133.172-4.7l.043-2.38c.248-5.833.248-5.833 2.613-8.276L77 123l2.25-1.188L81 121c-4.697-.537-6.82.524-10 4Z" fill="#2E3540"/><path d="M66 297c3.392 1.208 6.697 2.567 10 4l3.266 1.402c8.092 3.997 8.092 3.997 9.902 8.508.504 3.06.714 5.994.832 9.09.309 2.004.635 4.005 1 6l3.25.188c3.75.812 3.75.812 5.938 2.945 3.331 5.27 2.907 10.88 1.812 16.867-2.16 3.907-4.816 6.897-8 10l-2.266 2.273L90 360l-1.938-3.375c-2.18-3.508-4.633-6.47-7.437-9.5-3.725-4.028-6.911-8.18-9.984-12.719-2.427-3.56-5.03-6.981-7.641-10.406 6.677.607 12.701 2.776 19 5l-1.215-1.52c-4.369-5.815-7.61-11.857-10.722-18.418l-1.217-2.548C66 300.391 66 300.391 66 297Z" fill="#2F3540"/><path d="M391 252c4.36 1.348 8.313 3.05 12.375 5.125l3.21 1.633L409 260l-.903 1.745c-3.461 7.114-4.676 14.105-5.222 21.942l-.238 3.068c-.734 10.134-1.048 20.287-1.296 30.443l-.095 3.693-.072 3.282c-.15 2.431-.478 4.503-1.174 6.827-1.457.081-2.916.14-4.375.188l-2.46.105L391 331c-2.096-3.145-2.24-3.746-2.151-7.302l.051-2.64.088-2.867.068-2.99c.075-3.213.166-6.426.257-9.639l.161-6.572c.391-15.667.869-31.332 1.526-46.99Z" fill="#B49362"/><path d="M240.063 426.688c3.586 1.602 4.241 2.827 5.937 6.312.371 2.656.371 2.656.438 5.5.336 5.921 1.778 11.007 3.722 16.59.822 2.848 1.162 4.97.84 7.91-3.375 3.375-7.833 2.769-12.43 3.023-4.793-.031-7.449-.566-11.57-3.023-1.88-4.31-2.294-8.272-2.5-12.938-.289-5.01-1.083-9.246-2.5-14.062-.16-3.009-.123-5.99 0-9 4.955-2.478 12.743-1.522 18.063-.313Z" fill="#A13724"/><path d="M173 437c2.849 6.291 4.335 12.094 3 19-4.427 9.03-16.418 14.168-25.25 18-4.542 1.211-9.083 1.885-13.75 1l-2-3 1.496-1.645 1.941-2.168 1.934-2.144c1.82-2.042 1.82-2.042 2.629-5.043h2l.445-1.871C147.437 451.61 150.338 444.44 157 440c5.287-1.984 10.303-3.45 16-3Z" fill="#2F3540"/><path d="M390 364c2.773 2.066 2.773 2.066 5.375 4.563l2.648 2.503L400 373c-4.732 6.443-9.75 12.602-14.877 18.732A193.643 193.643 0 0 0 375 405l-5-2v-2l-1.625-.688c-3.16-1.746-5.643-3.952-8.375-6.312 1.516-5.731 4.426-10.137 7.688-15l1.529-2.367c5.111-7.677 10.725-15.34 20.783-12.633Z" fill="#B39262"/><path d="M160.793 148.16c5.94 4.708 11.285 11.136 12.207 18.84-1.928 1.928-5.476 1.54-8.125 1.813C151.689 170.33 139.372 174.349 127 179c-.392-9.707 4.112-16.58 10.105-23.957 6.685-7.208 14.251-12.989 23.688-6.883Z" fill="#3B3124"/><path d="M432 28c7.173-.664 12.009 1.015 18 5 9.44 7.858 18.008 18.853 19.242 31.477.007 1.842-.103 3.685-.242 5.523-3.315-1.461-5.597-3.361-8.273-5.781-6.432-5.225-13.571-7.354-21.352-9.719-1.4-.443-2.8-.889-4.2-1.336A863.021 863.021 0 0 0 425 50v-4c2.152-1.633 2.152-1.633 4.938-3.125 3.696-1.778 3.696-1.778 6.062-4.875l-1.129-1.426-1.433-1.886-1.442-1.864L431 31l1-3Z" fill="#A13624"/><path d="M79 58c8.186 1.423 16.052 3.666 24 6.063l3.715 1.103c8.993 2.688 8.993 2.688 11.285 3.834-2.385 7.372-7.806 11.988-13.75 16.563l-1.86 1.444C90.618 96 90.618 96 85 96c-.857-5.09-1.711-10.18-2.563-15.271-.29-1.733-.582-3.465-.874-5.197-.418-2.487-.834-4.974-1.25-7.462l-.398-2.355C79 60.228 79 60.228 79 58Z" fill="#5F170B"/><path d="M445 300c10.977 3.596 16.147 9.633 21.418 19.71 5.957 12.473 7.189 23.783 3.434 37.173C469 359 469 359 467 360l-8-16h-2v-2l-1.762-.875a233.214 233.214 0 0 1-4.133-2.125c-4.31-2.247-8.39-3.821-13.105-5 4.441-5.207 9.959-7.921 16-11-.463-5.73-2.048-9.466-5.063-14.313C445 302.22 445 302.22 445 300Z" fill="#303540"/><path d="M286.375 70.125c3.276 2.34 4.847 4.25 6.625 7.875.648 4.086.94 6.384-1.14 9.96-3.487 4.35-7.22 7.55-12.923 8.317-7.055.307-13.672-1.415-19.5-5.465C257 88 257 88 256.313 84.063c.303-3.656 1.541-6.051 4.125-8.746 7.443-6.27 16.649-8.287 25.938-5.191Z" fill="#B49464"/><path d="M359 381c.82 6.237-1.748 10.873-5 16-4.825 6.248-10.253 10.228-18 12-6.924.77-12.985.682-19-3-3.145-2.932-5.137-5.75-6-10l2.887.36 3.8.39 3.762.422c4.291-.208 5.608-1.114 8.551-4.172 1.475-2.193 1.475-2.193 2.688-4.5 5.6-8.694 16.821-10.664 26.312-7.5Z" fill="#2F3540"/><path d="M444 127c7.689.405 14.486 5.053 19.688 10.5 7.357 9.017 11.507 19.198 11.375 30.75l-.014 2.258c-.012 1.83-.03 3.661-.049 5.492l-4 1-1.031-2.125c-4.016-7.861-8.646-15.158-16.969-18.875v-2l-2.625-.75c-3.558-1.318-6.298-3.052-9.375-5.25 2.22-3.329 3.347-3.75 7-5l-.621-1.723c-1.67-4.785-2.843-9.236-3.379-14.277Z" fill="#A03624"/><path d="M371.563 407.813 374 410c0 5.232-4.496 8.4-8 12-16.547 16-16.547 16-22 16l-1.898-3.395-2.477-4.418-1.25-2.236c-.4-.712-.8-1.424-1.21-2.158l-1.112-1.984c-.955-1.64-2-3.229-3.053-4.809v-3c3.207-1.295 6.416-2.585 9.625-3.875l2.738-1.105c18.168-7.294 18.168-7.294 26.2-3.207Z" fill="#B39362"/><path d="M128 432c3.04 7.854 4.123 15.61 3 24-2.125 3.313-2.125 3.313-5 5-1.36.15-1.36.15-2.746.305-4.24.906-6.8 2.9-10.192 5.507-12.407 9.358-12.407 9.358-16.5 8.938L95 475c.673-12.336 8.141-20.519 16.844-28.742C115.599 443 115.599 443 118 443l.813-1.766c1.202-2.262 2.525-4.04 4.187-5.984l1.563-1.86C126 432 126 432 128 432Z" fill="#303540"/><path d="M443 349c8.482 3.31 12.638 9.658 16.313 17.688 5.14 13.036 5.394 23.26.687 36.312-1.645 2.465-1.645 2.465-3 4l-1.574-3.29-2.113-4.335-1.03-2.16c-3.066-6.247-6.403-11.522-12.596-15.09l-2.113-1.242L436 380l1-3c2.434-1.168 2.434-1.168 5.438-2.188l2.996-1.042C448 373 448 373 450 373a485.352 485.352 0 0 0-.375-5.438c-.07-1.009-.14-2.018-.21-3.058-.138-.826-.274-1.653-.415-2.504l-2-1c-1.07-2.215-1.07-2.215-2.125-4.938l-1.07-2.714C443 351 443 351 443 349Z" fill="#2F3540"/><path d="M148 32c26.84 5.996 26.84 5.996 36 14l-1 3h-2l-1 2a132.504 132.504 0 0 1-7.5 2.938l-2.204.8c-1.445.523-2.89 1.043-4.338 1.559a295.377 295.377 0 0 0-4.845 1.797c-4.04 1.481-6.96 2.38-11.113.906-2.008-6.025-2.124-11.516-2.063-17.813l.014-2.677c.012-2.17.03-4.34.049-6.51Z" fill="#5E170B"/><path d="M436 396h2c6.696 11.663 11.13 25.474 9 39-2.027 5.437-4.791 10.187-8 15h-2l-.883-2.71c-2.339-6.9-4.803-13.047-8.785-19.204C426 426 426 426 424.953 423.793c-1.234-2.32-2.637-2.672-4.953-3.793l-1-3 16-2c2.322-6.967 2.39-11.879 1-19Z" fill="#303540"/><path d="m220 4 2.223 1.39c4.334 2.99 7.256 5.988 9.777 10.61v2l-2.602-.871C217.424 13.058 217.424 13.058 205 11v16h-2a965.884 965.884 0 0 1-2.773-4.23C194.373 14.325 185.967 10.443 177 6V4c12.384-5.585 31.036-7.557 43 0Z" fill="#2F3540"/><path d="M317.879 422.766c4.638-.228 7.374-.18 11.496 2.109 3.618 3.628 5.592 8.493 7.625 13.125-3.126 1.563-6.525 1.483-9.965 1.754l-2.391.197c-1.67.138-3.34.273-5.01.406-2.558.204-5.115.414-7.671.625l-4.865.397-2.32.19c-2.936.233-5.832.431-8.778.431-.46-9.746-.46-9.746 1.125-14.063 5.161-5.333 13.815-4.606 20.754-5.171Z" fill="#B49362"/><path d="M436 193c6.162 1.232 7.513 3.096 11 8 1.71 2.722 3.22 5.516 4.688 8.375l1.142 2.133c3.684 7.046 7.105 14.392 6.17 22.492-1.5 2.938-1.5 2.938-3 5-2.641-1.009-3.805-1.673-5.273-4.137l-1.102-2.55c-1.994-4.293-4.23-7.523-7.488-10.938C441 220 441 220 441 218l-1.672-.773c-2.694-1.42-5.096-3.088-7.578-4.852l-2.703-1.914L427 209c1.713-3.426 5.507-3.78 9-5v-11Z" fill="#A13624"/><path d="M352 249c10.691 1.545 19.44 4.3 28 11-4.93 8.963-13.57 14.538-23 18-3.974-9.394-5.339-18.834-5-29Z" fill="#6A1C10"/><path d="M170 174c2.813 2.563 2.813 2.563 5 5l-1 3h-2l-1 2-2.625 1.563c-4.484 2.84-7.31 7.192-10.375 11.437l-4-2v-2h-2l-2-2.125c-3.15-3.341-7-5.336-10.988-7.543L137 182v-2c22.883-9.112 22.883-9.112 33-6Z" fill="#A18462"/><path d="M169 370c6.793 1.132 7.784 2.045 11.902 7.004C186.738 385.339 192 394.626 192 405l-1.938-.813c-6.616-2.565-13.157-4.46-20.062-6.187l-1-28Z" fill="#3B3125"/><path d="M30 164c4.163 1.535 6.314 4.557 8.875 8 .435.578.87 1.156 1.32 1.751C47.94 184.171 47.94 184.171 50 189l-1 3-7 2c-1.327 3.982 0 6.448 1.438 10.188l.736 1.982c.6 1.613 1.212 3.222 1.826 4.83l-4-1v-2l-3-1c-8.913-9.146-9.235-22.416-9.188-34.438.038-2.855.105-5.707.188-8.562Z" fill="#30363F"/><path d="M404.125 231.938c7.017 1.28 11.583 7.402 15.563 12.875 5.014 7.578 9.174 13.881 8.312 23.187-2.452-.378-3.698-.669-5.395-2.531l-1.418-1.969c-3.919-4.778-8.675-7.445-14.032-10.354-5.931-3.292-5.931-3.292-7.155-7.146l3-1-4-11c2-2 2-2 5.125-2.063Z" fill="#A03625"/><path d="M273 283c8.747.979 15.683 9.509 21.758 15.395 1.429 1.846 1.74 3.35 2.242 5.605l-3.84.148-5.098.227-2.517.094c-5.04.235-9.698.872-14.582 2.152-2.81.542-5.22.082-7.963-.621 3.003-7.825 6.434-15.417 10-23Z" fill="#2F3540"/><path d="M200 228c.933 12.177-4.052 22.15-11 32-2.723 2.352-2.723 2.352-5 4a14099.162 14099.162 0 0 1-1.846-9.785l-.4-2.13-.398-2.094c-.324-1.81-.58-3.63-.829-5.452L180 242l-2-1v-4c3.1-1.51 6.205-3.006 9.313-4.5.88-.43 1.762-.859 2.67-1.3l2.568-1.231 2.364-1.143C197 228 197 228 200 228Z" fill="#702418"/><path d="M170 80c-3.267 6.196-6.883 12.145-10.625 18.063l-1.452 2.347-1.4 2.188-1.252 1.984L154 106h-3c-1.319-1.481-1.319-1.481-2.629-3.543l-1.447-2.256-1.487-2.388-1.498-2.33C141.58 91.76 139.423 88.2 138 84c2.687-.48 5.375-.96 8.063-1.438l2.279-.408C155.623 80.862 162.596 79.87 170 80Z" fill="#772214"/><path d="m267.09 425.678 2.785.01 2.762-.05 2.668-.001 2.437-.01c2.827.467 4.184 1.421 6.258 3.373 1.005 3.015 1.103 5.042 1.063 8.187l-.028 2.731L285 442c-6.337 3.169-14.865.979-21.25-1-1.922-.65-3.841-1.31-5.75-2a444.403 444.403 0 0 1-.125-5.375l-.07-3.023c.434-5.789 4.657-4.887 9.285-4.924Z" fill="#B49362"/><path d="M107 166c6.284 1.061 11.361 2.361 16 7 .427 6.695-.843 12.582-2.438 19.063C119.124 198.03 117.737 203.9 117 210h-2c-4.286-14.724-7.136-28.628-8-44Z" fill="#A03624"/><path d="M401 435c3.41 4.262 5.481 7.616 7.688 12.438l.931 1.947c2.198 4.736 4.003 8.965 2.78 14.178-2.199 5.235-4.363 9.401-8.399 13.437h-2a913.776 913.776 0 0 1-1.938-4.25l-1.09-2.39c-.972-2.36-.972-2.36-1.5-4.59-.3-1.916-.3-1.916-2.097-2.832L393 462c-1.25-.54-2.5-1.081-3.75-1.625L386 459l1-2c3.16-.414 3.16-.414 7.063-.625L401 456v-21Z" fill="#31353F"/><path d="M292 123c3.803 2.005 5.618 3.427 8 7 .5 2.875.5 2.875 0 6-4.663 4.77-7.49 5.798-13.875 6.313-5.284-.07-8.353-2.599-12.063-6.188C273 134 273 134 272.938 131c1.424-4.018 3.376-5.009 7.063-7 4.065-1.355 7.75-1.537 12-1Z" fill="#B49463"/><path d="M208 13c8.325.354 16.767 1.754 23.188 7.5C233 23 233 23 232.815 25c-1.572 3.853-5.2 5.284-8.816 7-4.287 1.512-8.615 2.803-13 4-3.691-7.383-4.927-14.863-3-23Z" fill="#5D180C"/><path d="M330 226c10.173 2.463 19.742 6.114 29 11-1.3 2.862-2.683 4.939-4.898 7.164l-1.704 1.711-1.773 1.75-1.75 1.773-1.71 1.704-1.55 1.541c-1.762 1.48-3.525 2.408-5.615 3.357l-.487-1.677C335.4 239.936 335.4 239.936 330 226Z" fill="#6B1C0F"/><path d="m124 274 9 1-2.418 1.762c-4.067 4.067-3.619 9.615-3.894 15.05l-.221 3.256A518.865 518.865 0 0 0 126 303l3.656.434c4.843.605 9.566 1.57 14.344 2.566v-13l-9 1c1.804-3.265 2.834-4.89 6-7 5.283-.55 5.283-.55 7.663 1.275 2.311 2.981 1.766 6.611 1.712 10.225l.035 2.34c-.03 5.683-.03 5.683-1.779 7.877-3.682 2.896-9.233 1.754-13.631 1.283-4.155-.968-8.187-2.064-12-4-1.51-4.528-1.184-9.007-1.188-13.75l-.037-2.96c-.01-5.503.389-10.093 2.225-15.29Z" fill="#987954"/><path d="M167 329c3.839-.216 4.888-.07 8.313 2.063 7.48 6.889 12.296 18.03 13.687 27.937l-1.98-.836c-3.73-1.438-7.514-2.615-11.333-3.789l-2.244-.695c-1.814-.562-3.628-1.121-5.443-1.68-.675-7.685-1.157-15.284-1-23Z" fill="#3B3125"/><path d="M106 200c2.78 3.706 4.268 6.88 5.688 11.188l.668 2.012c1.633 5.184 2.2 9.418 1.644 14.8-1.53 1.53-2.935 1.428-5.063 1.625-3.335-.01-4.618-.366-7.242-2.492-3.19-3.564-5.547-6.838-7.695-11.133l12-16Z" fill="#A13624"/><path d="m224.238 167.734 2.174-.005c1.524-.002 3.048.002 4.572.01 2.282.01 4.564 0 6.846-.012 25.197-.032 25.197-.032 32.295 6.21A754.235 754.235 0 0 1 274 178a106.082 106.082 0 0 0 4 3c-6.441-.648-12.754-1.597-19.117-2.777l-2.842-.52c-2.973-.544-5.944-1.092-8.916-1.64a11486.2 11486.2 0 0 1-16.98-3.117A6369.28 6369.28 0 0 0 214 170c3.75-2.5 5.757-2.258 10.238-2.266Z" fill="#B49162"/><path d="m394.688 335.938 2.449.027L399 336c-.14 3.5-.288 7-.438 10.5l-.119 2.977c-.24 5.56-.662 11.012-1.443 16.523-2.125 0-2.125 0-5-1-4.803-5.228-7.147-9.199-7.188-16.313l-.042-3.425c.229-3.241.672-5.42 2.23-8.262 2.882-.96 4.699-1.106 7.688-1.063Z" fill="#B39261"/><path d="M240.063 426.688C243 428 243 428 244.938 430.063c1.042 2.882 1.175 4.607 1.128 7.62l-.029 2.452L246 442c-3.628-.22-7.25-.48-10.875-.75l-3.129-.188-2.988-.234-2.761-.19C224 440 224 440 222.699 438.096c-.802-2.405-.898-4.316-.824-6.846l.055-2.422L222 427c4.955-2.478 12.743-1.522 18.063-.313Z" fill="#B49362"/><path d="m339 272 2.895 1.574c7.585 4.1 15.184 8 23.105 11.426-2.733 3.191-6.252 4.996-9.875 7-4.074 2.282-8.135 4.573-12.125 7-.678-3.185-1.34-6.373-2-9.563l-.578-2.712c-1.03-5.018-1.647-9.604-1.422-14.725Z" fill="#6A1D10"/><path d="M88 121c-.446 6.775-2.437 11.827-5.438 17.875l-1.236 2.586c-3.025 6.238-3.025 6.238-5.326 8.539h-3c-.845-5.245-1.272-10.377-1.375-15.688l-.113-2.26c-.063-3.935.088-5.634 2.86-8.525C78.887 120.903 82.85 120.88 88 121Z" fill="#5F170B"/><path d="M73 211c3.528 4.259 6.64 8.746 9.75 13.313l1.535 2.244c1.24 1.813 2.478 3.627 3.715 5.443-2.617 2.617-5.643 3.716-9 5.125l-1.945.84C72.263 240 72.263 240 70 240c.456-7.649.92-15.297 1.5-22.938l.219-2.902C72 212 72 212 73 211Z" fill="#722418"/><path d="m199.188 424.75 2.404-.063c3.485-.023 5.782-.02 8.896 1.641 2.617 2.894 2.628 5.64 2.575 9.36l-.028 2.449L213 440c-10.963-2.726-20.204-7.51-30-13v-1c5.423-.898 10.694-1.214 16.188-1.25Z" fill="#B39261"/><path d="M429 388c1.539 2.83 2.431 5.394 3.07 8.547l.528 2.558.527 2.645.55 2.691c.447 2.186.888 4.372 1.325 6.559l-1.898.402-2.477.536-2.46.527c-2.194.458-2.194.458-4.165 1.535-2.672.134-5.323.043-8 0 1.405-5.766 3.675-10.61 6.5-15.813l1.223-2.31c3-5.6 3-5.6 5.277-7.877Z" fill="#5F190E"/><path d="M290 163c2.97 1.39 4.697 2.697 7 5 .5 2.313.5 2.313 0 5-2.623 3.027-4.293 4.653-8.227 5.453-3.91.183-6.317-.22-9.836-2.016C277 174 277 174 276.438 170.5c.563-3.5.563-3.5 2-5.938 3.802-2.317 7.221-2.221 11.563-1.562Z" fill="#B49464"/><path d="M395 429h1c.754 3.35 1.12 6.431 1.098 9.863l-.01 2.686-.026 2.764-.013 2.822A1757.79 1757.79 0 0 1 397 454c-3.216.84-6.311 1.312-9.625 1.625l-2.914.29C382 456 382 456 380 455c1.315-3.499 2.855-6.63 4.785-9.828l1.608-2.672c.55-.908 1.102-1.815 1.67-2.75l1.681-2.797c4.109-6.806 4.109-6.806 5.256-7.953Z" fill="#5F1A0F"/><path d="M174 67h24c-6.75 9-6.75 9-9.875 12.5l-1.805 2.031L185 83c-4.493-4.097-7.978-8.714-11-14v-2Z" fill="#6C1D0F"/><path d="M437 300c3.787 3.396 6.186 7.232 8.75 11.563l1.246 2.037C450 318.624 450 318.624 450 322l-3.438.375L443 323l-1 2c-3.577 3-3.577 3-6 3-.117-9.402.115-18.629 1-28Z" fill="#5F190E"/><path d="M426 298c-1.268 2.564-2.54 5.126-3.813 7.688l-1.08 2.185c-4.051 8.14-4.051 8.14-6.107 11.127h-2c-.674-2.394-1.34-4.79-2-7.188l-.578-2.04c-1.005-3.678-1.659-6.957-1.422-10.772 1.333-.173 2.666-.338 4-.5l2.25-.281c3.595-.286 7.144-.25 10.75-.219ZM405 344h16c0 4.008-.159 4.746-2.188 7.89-.45.71-.902 1.419-1.367 2.15L416 356.25l-1.445 2.258A760.393 760.393 0 0 1 411 364c-2.728-2.728-3.202-5.805-4.125-9.438-.182-.68-.364-1.362-.55-2.064-.76-2.915-1.325-5.474-1.325-8.498Z" fill="#7A2413"/><path d="M177 202c2.703 2.703 3.2 5.715 4.125 9.313l.55 2.013c.957 3.635 1.543 6.915 1.325 10.674l-1.582-1.102c-5.933-4.052-12.065-7.55-18.418-10.898 2.833-3.045 5.655-5.169 9.25-7.25l2.703-1.578L177 202Z" fill="#712418"/><path d="M46 253c3.96 1.433 7.287 3.331 10.813 5.625l2.957 1.914L62 262c-1.498 3.615-3.575 5.686-6.5 8.25l-2.406 2.14C51 274 51 274 49 274c-2.045-6.954-2.582-13.779-3-21Z" fill="#722418"/><path d="M400 386c4.841 1.467 8.56 4.351 12 8v2l-18 10c-1.415-4.244.304-7.151 1.875-11.125l.855-2.246c2.11-5.47 2.11-5.47 3.27-6.629Z" fill="#7A2413"/><path d="M436 352c3.307 2.737 4.868 6.4 6.688 10.188l.97 1.982A963.547 963.547 0 0 1 446 369a1660.986 1660.986 0 0 1-6.375 3.5l-1.828 1.012C433.227 376 433.227 376 431 376c.403-5.955.832-11.388 3-17 .698-2.325 1.345-4.662 2-7Z" fill="#601A0F"/><path d="M102 237c3.594 3.297 6.135 6.928 8.75 11l1.246 1.867C114.2 253.278 115 254.833 115 259c-1.414.136-2.832.232-4.25.313l-2.39.175C106 259 106 259 103.718 257.031c-2.315-4.082-2.17-7.245-1.969-11.844l.055-2.388c.047-1.934.118-3.866.195-5.799Z" fill="#826649"/><path d="M125 354c6.135.368 8.86 1.662 13 6 1.063 2.625 1.063 2.625 1 5-2.204 2.866-4.197 3.53-7.688 4.188l-2.449.48L127 370c-1.868-5.487-2.236-10.222-2-16Z" fill="#A59278"/><path d="m316 219-8 14h-3c-2.262-2.336-2.262-2.336-4.688-5.375l-2.449-3.023C296 222 296 222 296 220c2.77-.362 5.54-.715 8.313-1.063l2.38-.314 2.295-.283 2.11-.27C313 218 313 218 316 219Z" fill="#6A1D10"/><path d="M83 157c10.316 1.91 10.316 1.91 14 5 0 4.582-.518 5.055-3.5 8.25l-1.969 2.14L90 174c-1.89-.664-1.89-.664-4-2-1.047-2.46-1.047-2.46-1.75-5.375l-.734-2.898C83 161 83 161 83 157Z" fill="#A03624"/><path d="M132.563 331.938C136 333 136 333 137.938 335.188c1.224 3.24 1.5 5.375 1.062 8.812-1.5 2.375-1.5 2.375-3 4-3.473-.565-4.95-1.626-7.188-4.313l-1.542-1.8c-1.36-2.02-1.98-3.473-2.27-5.887 2.264-3.49 3.369-3.989 7.563-4.063Z" fill="#A59379"/><path d="M91 326c6.327.365 6.327.365 9.219 3.094 2.244 3.662 2.19 5.959 2.031 10.219l-.11 3.8L102 346l-4 2c-.99-2.35-1.966-4.705-2.938-7.063l-.841-1.99C92.443 334.6 91.48 330.675 91 326Z" fill="#4D7C84"/><path d="M58 275c3.537 1.768 6.178 3.557 9.25 6l2.703 2.125L72 285v2l-14 7v-19Z" fill="#732418"/><path d="M203 51c7.066-.138 13.974.252 21 1-1.41 3.039-3.089 5.594-5.125 8.25l-1.633 2.14L216 64c-3.37-1.462-5.607-3.338-8.188-5.938l-2.105-2.09C204 54 204 54 203 51Z" fill="#772214"/><path d="M54 205h2l5 25h-3v-2l-1.75-.688c-3.003-1.751-4.436-3.331-6.25-6.312-.846-6.454.713-10.482 4-16Z" fill="#5F1A0F"/><path d="M371 426h2v16l-16-1c3.592-4.38 7.17-8.183 11.582-11.738 1.555-1.227 1.555-1.227 2.418-3.262Z" fill="#7A2414"/><path d="M90 70c1.918.283 3.834.577 5.75.875l3.234.492c2.693.565 4.652 1.267 7.016 2.633-3.768 4.122-7.889 7.63-13 10l-2-1c-.414-2.941-.414-2.941-.625-6.563l-.227-3.628L90 70Z" fill="#2F1F1A"/><path d="M330 447v11c-3 1-3 1-5.34-.145l-2.598-1.668c-2.97-1.885-5.883-3.675-9.062-5.187 4.73-4.73 10.76-4.19 17-4Z" fill="#7A2413"/><path d="m51 193 1 1c-.157 6.177-1.352 12.069-3 18h-2c-.87-1.888-1.72-3.786-2.563-5.688l-1.44-3.199c-1.063-3.319-1.216-4.874.003-8.113 3.222-2.148 4.278-2.294 8-2Z" fill="#561C15"/><path d="M84 273h2c1.727 2.555 1.727 2.555 3.625 5.875l1.914 3.305C93 285 93 285 93 287H78l6-14Z" fill="#722418"/><path d="M261 30c12.857 1 12.857 1 18 2v2a102.765 102.765 0 0 1-5.875 4.125l-3.305 2.195C267 42 267 42 265 42l-4-12Z" fill="#772214"/><path d="M80 249c3.916 1.305 4.538 2.973 6.688 6.438l1.886 2.996C90 261 90 261 90 263c-4.41 1.102-8.484 1.077-13 1 .642-5.135 1.683-9.994 3-15Z" fill="#722418"/><path d="M101 352c4.278 3.644 6.405 8.098 9 13H94c5.875-11.875 5.875-11.875 7-13Z" fill="#712418"/><path d="M234 41h17c0 2 0 2-1.61 3.621-1.059.9-1.059.9-2.14 1.816l-2.11 1.81A150.089 150.089 0 0 1 239 53c-.838-1.622-1.67-3.248-2.5-4.875l-1.406-2.742C234 43 234 43 234 41Z" fill="#6B1C0F"/><path d="M146 224h15c-1.42 3.55-2.612 6.187-4.625 9.313l-1.352 2.113L154 237c-8-9.714-8-9.714-8-13Z" fill="#722418"/><path d="M156 41c3.662.627 6.882 1.645 10.313 3.063l2.675 1.097L171 46v2c-5.103 1.905-9.463 3.426-15 3V41Z" fill="#2D1F1B"/><path d="M101 297c-.664 6.746-1.719 13.344-3 20-2.942-2.74-5.339-5.309-7-9 1.196-3.252 3.108-5.352 5.563-7.75l1.878-1.86C100 297 100 297 101 297Z" fill="#742518"/><path d="m129 310 2 2c-.337 6.178-.337 6.178-2.563 8.938L127 322c-4.66-3.066-5.855-5.587-7-11 3.013-1.507 5.683-1.178 9-1Z" fill="#A69176"/><path d="M129 237h13c-.87 4.349-1.947 7.163-4 11-4.45-1.483-6.746-5.083-9-9v-2Z" fill="#712418"/><path d="M322 17a7961.562 7961.562 0 0 1 7.52 2.246c1.835.558 3.66 1.147 5.48 1.754v2l-11 6c-1.305-4.16-2.12-7.65-2-12Z" fill="#772314"/><path d="M363.563 257.188C366 258 366 258 368 261c-.54 4.54-.54 4.54-2 6-2.938.188-2.938.188-6 0-2-2-2-2-2.313-5l.313-3c3-2 3-2 5.563-1.813Z" fill="#2F3440"/><path d="M316 219c-2.114 4.845-2.114 4.845-4 7-2.801.94-4.997.95-8 1-.625-2.313-.625-2.313-1-5 2-3 2-3 3.84-3.547l2.098-.203 2.09-.234C313 218 313 218 316 219Z" fill="#6A1D11"/><path d="M294 23c3.118.75 6.18 1.634 9.25 2.563l2.703.816L308 27v2l-11 4c-3-6.625-3-6.625-3-10Z" fill="#6C1D10"/><path d="M280 226c4.022 2.011 5.483 3.404 8 7v2c-1.29.672-2.581 1.337-3.875 2l-2.18 1.125C280 239 280 239 278 239l2-13Z" fill="#6D1D10"/><path d="M111 317c1 2 1 2 .223 4.383l-1.16 2.742-1.153 2.758L108 329c-3.313-1.54-5.078-2.828-7-6v-3l10-3Z" fill="#732518"/><path d="M108 334c4.14 2.484 6.753 4.567 10 8l-11 4 1-12Z" fill="#732418"/><path d="M117 216c4.593 1.486 7.436 3.85 11 7-1 3-1 3-4.063 4.688L121 229l-.621-2.082-.817-2.73-.808-2.708A215.647 215.647 0 0 0 117 216Z" fill="#B0895D"/><path d="M331 305c.73 2.066.73 2.066 1.188 4.563l.48 2.503L333 314c-3.588-1.333-6.836-2.83-10-5v-2c4.39-3.203 4.39-3.203 8-2Z" fill="#792315"/><path d="M342 235c2.625.375 2.625.375 5 1 .625 2.375.625 2.375 1 5l-2 2c-2.625-.375-2.625-.375-5-1-.625-2.375-.625-2.375-1-5l2-2Z" fill="#33333C"/><path d="M271 245h10l-3 9c-3.126-2.962-5.048-5.096-7-9Z" fill="#772214"/><path d="M241 446c1.158 3.473 1.069 6.36 1 10l-10-5c6.667-5 6.667-5 9-5Z" fill="#7B2514"/><path d="M303 280h2c1.498 3.371 2 5.204 2 9l-10-2c4.492-5.469 4.492-5.469 6-7ZM286 259l-2 9c-5.75-1.875-5.75-1.875-8-3v-2c1.29-.672 2.581-1.337 3.875-2l2.18-1.125C284 259 284 259 286 259Z" fill="#792315"/><path d="m281 448-1 9c-3.46-1.25-6.147-2.675-9-5 6.625-4 6.625-4 10-4Z" fill="#7B2514"/><path d="M316 290c2 1 2 1 2.852 3.066L321 300l-10-3c1.617-3.235 2.476-4.706 5-7Z" fill="#792315"/><path d="M292 269c2.125 3.188 2.502 5.265 3 9l-8-1c0-3 0-3 2.5-5.688L292 269Z" fill="#7A2415"/><path d="M214 20c3.375.547 5.082 1.055 8 3l-1 3-7 1c-1.044-3.133-.934-3.99 0-7Z" fill="#2E1F1A"/><path d="M204 442v7l-10-3c2.979-2.979 5.803-4 10-4Z" fill="#7A2414"/><path d="M304 221c1.675.286 3.344.618 5 1v5h-5a88.406 88.406 0 0 1-1-5l1-1Z" fill="#31333D"/><path d="M345 283c1.675.286 3.344.618 5 1v5h-5a88.406 88.406 0 0 1-1-5l1-1Z" fill="#31333E"/><path d="M389 443c2.063.438 2.063.438 4 1 .563 1.938.563 1.938 1 4-1 1-1 1-3.563 1.063L388 449a99.984 99.984 0 0 1 0-5l1-1Z" fill="#33333C"/><path d="m425 402 5 1c-.313 1.938-.313 1.938-1 4l-3 1-2-1 1-5Z" fill="#32323C"/><path d="m78 128 3 1v5h-4a99.984 99.984 0 0 1 0-5l1-1Z" fill="#34323A"/><path d="M321 192c2.82.46 2.82.46 6.125 1.375l3.32.898L333 195c-3 2-3 2-5.7 1.54-.985-.303-1.971-.604-2.988-.915l-3.011-.898L319 194l2-2Z" fill="#AF875A"/><path d="M197 127c-1 2-1 2-4.313 3.188-3.444.758-4.517.799-7.687-.188 1.432-.7 2.87-1.384 4.313-2.063l2.425-1.16C194 126 194 126 197 127Z" fill="#AE885C"/><path d="M437 363h3v6h-3c-1.125-3.75-1.125-3.75 0-6Z" fill="#34323A"/><path d="M221.188 167.875 225 168c-1.563 1.563-1.563 1.563-4 3-3.75-.313-3.75-.313-7-1 3.089-2.06 3.71-2.239 7.188-2.125Z" fill="#A9845A"/><path d="m440 314 3 1v4l-4-1 1-4Z" fill="#35323B"/></svg>