<svg xmlns="http://www.w3.org/2000/svg" width="464" height="475"><path d="m303.727-.168 3.103-.01c2.167-.005 4.333-.007 6.5-.007 3.237-.002 6.473-.02 9.71-.04 10.382-.028 20.677.193 31.022 1.12l2.67.238C367.415 2.201 377.618 4.638 387 10c-1.484 3.365-3.449 5.753-5.875 8.5-6.845 8.398-9.565 19.249-9.402 30.012C373.086 60.745 380.878 71.225 390 79c6.185 4.75 11.89 8.345 19.477 10.223C415.42 91.053 420.85 94.567 426 98v2c-1.425 1.194-1.425 1.194-3.422 2.566-5.07 3.682-9.414 7.939-13.828 12.371l-2.39 2.342c-7.617 7.518-7.617 7.518-10.673 17.471.191 3.258.191 3.258 1.313 6.25 1.328.356 2.662.685 4 1 4.508 3.219 8.667 6.897 11 12v2l-2.193-.048c-24.197-.454-47.625 1.423-69.932 11.736C331.142 171.61 320.541 173 311 173l-1 2-2.563.563c-7.447 3.114-11.347 9.972-14.875 16.937-5.458 10.597-14.393 17.182-23.562 24.5-2.067 1.682-4.127 3.372-6.188 5.063L258 226c-.96-2.882-1.106-4.699-1.063-7.688l.028-2.449L257 214c-2.057.453-4.113.908-6.168 1.371-2 .444-4.002.872-6.008 1.29-5.128 1.102-9.858 2.193-14.574 4.526-3.143 1.544-5.03 1.921-8.5 1.563-8.023-.436-15.784 6.744-21.875 11.313L197 236c-3.736-1.245-5.226-3.226-8-6-2.613-1.845-5.14-3.57-8-5l-2.313-1.438c-4.794-2.787-9.265-3.946-14.699-4.804C162 218 162 218 160.68 216.188c-1.293-4.16.382-7.453 2.32-11.188 6.572-9.057 15.023-15.163 25-20l-2.309-1.469C178.978 179.173 172.648 174.72 167 169v-1c1.938.145 3.875.29 5.813.438l3.269.246c2.128.171 4.256.35 6.38.57 7.05.713 14.018.897 21.1.871l3.268.012 3.111-.004 2.803-.004c2.291.018 2.291.018 4.256-1.129l-1.222-2c-1.843-3.02-3.686-6.041-5.528-9.063l-1.922-3.146c-8.224-13.493-8.224-13.493-11.578-20.041l-1.016-1.953C195 131 195 131 195 128c3.902.603 6.232 2.48 9.313 4.875 1.059.813 2.119 1.626 3.18 2.438l1.705 1.312c3.218 2.456 6.478 4.853 9.74 7.25l1.897 1.406c3.298 2.425 6.608 4.68 10.165 6.719-1.849-7.665-4.963-14.647-8.307-21.753l-1.048-2.27-.958-2.03C220 124 220 124 220 120c3.994.538 6.176 1.61 9.25 4.188 4.402 3.58 8.985 6.737 13.75 9.812-.166-4.482-.516-6.484-3.633-9.809-1.146-.9-2.311-1.775-3.492-2.629l-1.877-1.411c-7.45-5.45-15.886-10.876-24.877-13.24L206 106l-1-2c-1.838-.277-3.68-.536-5.53-.718-2.638-.301-5.202-.793-7.81-1.294-7.31-1.23-14.511-1.332-21.91-1.3l-2.071.006c-24.939.126-45.756 7.141-66.242 21.368-.584.4-1.168.8-1.77 1.21-3.877 2.785-6.125 5.735-8.667 9.728-7.484 6.717-17.792 8.112-27.438 9l-2.08.237c-1.978.138-1.978.138-5.482-.237-5.525-5.038-5.619-11.727-6.249-18.792-.315-8.11 1.6-13.787 5.249-20.958l1.387-2.957c4.528-9.219 10.576-15.507 19.363-20.73l3.297-1.997C81.46 75.286 83.336 74.46 86 74l.734 2.379C88.644 82.365 90.624 87.694 94 93l1.73-.184 2.457-.254 2.766-.308C104 92 104 92 107.172 92.027c9.569-.08 14.06-3.573 20.828-10.027l2.754-2.176c2.302-1.613 2.302-1.613 3.184-3.699.199-2.267.199-2.267-.926-4.797-1.137-3.74-1.21-6.804-1.137-10.703l.055-3.773L132 54c2.06-.986 4.123-1.963 6.188-2.938l3.48-1.652c2.847-1.205 5.292-1.958 8.332-2.41l1.469 2.844c.675 1.22 1.352 2.438 2.031 3.656l.953 1.879c1.104 2.073 1.104 2.073 3.547 4.621 5.756.833 10.552-.423 16-2.25l2.112-.683A82.066 82.066 0 0 0 190 51l3-1c2.619-7.856.707-15.427-2-23 6.057-4.521 11.642-7.249 19-9 8 9.714 8 9.714 8 13 3.285 1.095 5.737 1.1 9.188 1.063l3.292-.028L233 32v-1l-3.188.125c-4.662-.153-7.497-.81-10.812-4.125l-.625-3.188c-1.416-5.169-5.08-7.877-9.375-10.812-3.92-2.186-7.926-4.12-12-6a462.034 462.034 0 0 1-4-2C198.55-.55 209.487.564 216.821.562 228.479.793 239.613 3.866 249 11c2.364 3.545 2.321 4.822 2 9-.556 2.386-1.252 4.663-2 7l3-1c1.521-3.042 1.374-6.28 1.563-9.625l.13-2.14c.106-1.745.207-3.49.307-5.235 6.122-2.97 12.286-4.302 18.938-5.625l3.17-.656c9.304-1.895 18.134-2.876 27.619-2.887Z" fill="#5B7145"/><path d="m310.5 204.75 3.217.023c16.85.228 36.998 1.51 50.283 13.227a74.424 74.424 0 0 1 4.672 5.352c1.44 1.855 1.44 1.855 3.828 4.085 9.368 9.603 11.983 18.445 11.852 31.668-.357 11.908-2.273 23.772-10.982 32.535-5.07 4.686-10.509 7.897-16.62 11.048-8.71 4.133-8.71 4.133-14.75 11.312l21 2 1-9c3.711-7.834 11.547-14.282 19.438-17.5 5.265-1.735 9.16-1.563 14.562-.5l-1.137 1.984c-9.236 16.472-14.6 32.191-14.113 51.13.018 1.389.033 2.778.046 4.168.045 4.344.122 8.687.204 13.03.095 5.061.176 10.122.224 15.184.025 2 .076 3.999.127 5.998.112 10.44-1.796 18.227-8.788 26.131-5.267 4.635-12.735 4.88-19.375 6.063l-3.815.72-3.705.666-3.366.612c-3.618.344-6.737-.041-10.302-.686.248-6.94 2.224-10.956 7-16 3.11-2.8 5.638-3.551 9.75-4.188l2.984-.48L356 393l-3-7h-2v-2a1814.02 1814.02 0 0 0-12.125-.125l-3.46-.05-3.36-.02-3.079-.032c-3.255.248-5.903 1.166-8.976 2.227-3.039-.781-3.865-1.81-5.688-4.375-2.81-5.621-2.95-11.433-2.312-17.625 2.318-4.904 5.23-7.48 10-10 7.37-2.272 14.802-2.382 22.447-2.566 4.886-.164 8.964-.547 13.553-2.434-3.354-3.507-5.39-4.206-10.25-4.375-6.314.038-11.192 1.79-17.023 4.059-4.012 1.417-7.933 2.388-12.102 3.191l-3.836.742c-4.253.43-7.575.054-11.789-.617l-2.531-.316L295 351l14 5c-.143 2.48-.29 4.958-.438 7.438l-.119 2.083c-.313 5.184-.838 10.32-1.443 15.479l-2.117.212c-27.71 2.83-50.017 6.22-69.004 28.249-2.891 3.907-4.988 8.073-6.879 12.539-3.66-3.139-4.883-5.83-6.188-10.438l-.98-3.37c-3.78-14.503-2.435-28.325 4.918-41.505 6.662-10.19 15.904-17.23 27.82-20.363 11.347-1.514 22.314.58 33.43 2.676l-1.438-1.25c-4.646-5.204-2.895-15.188-2.562-21.75.904-6.478 4.436-9.926 9.36-14.008 3.692-2.785 7.511-5.335 11.386-7.86C322.927 293.138 322.927 293.138 334 276c1.277-11.437-.914-21.843-8-31-2.62-2.995-4.455-4.694-8.406-5.477-14.222-.776-27.19 8.6-37.594 17.477-2.577 3.865-2.586 5.388-2 10 2.561 5.405 5.654 9.89 10 14 4.068-.93 5.655-2.597 7.813-6 1.753-2.814 1.753-2.814 2.187-6l-7 2c-2-2-2-2-2.563-4.75.667-3.85 2.043-5.3 5.094-7.664 14.355-9.222 14.355-9.222 21.469-9.586 2.864 1.79 4.865 4.405 7 7l1.594 1.934c2.537 3.503 3.78 6.132 3.469 10.503-2.21 11.798-9.532 20.587-19.063 27.563-8.122 4.632-22.692 4.588-31.715 2.316-2.24-.949-4.223-2.027-6.285-3.316l-2.293-1.32c-7.01-4.298-13.051-9.713-15.707-17.68l-2-1c-3.565-9.704-3.36-22.693-.227-32.488 2.445-5.006 6.294-8.647 10.227-12.512l2.355-2.531c13.418-14.183 28.386-22.902 48.145-22.719Z" fill="#5B7044"/><path d="M132 214c3.331 1.545 5.007 2.868 7 6 2.551 7.653 2.407 18.086-.305 25.629A70.527 70.527 0 0 1 134 253l-1 2c6.953-.858 12.013-2.814 17.871-6.66 3.51-2.209 6.267-2.455 10.316-2.403l2.731.028L166 246c-.298 8.341-3.172 15.336-6.207 22.997-3.136 7.251-3.136 7.251-3.793 15.003 3.766-.958 4.897-1.85 7.133-5.117.679-1.245 1.343-2.498 1.992-3.758 4.127-7.729 4.127-7.729 6.875-11.125l2.563.438L178 265l3.375.563c8.232.993 14.028-.007 21.813-2.625 1.74-.586 3.483-1.16 5.23-1.723l2.305-.778c2.694-.517 4.642-.122 7.277.563.837 30.82.837 30.82-9 43l-2.063 2.813c-2.115 2.388-4.388 4.276-6.937 6.187l11-1c-1.21 6.054-3.596 11.035-6.245 16.583a456.166 456.166 0 0 0-2.567 5.536c-4.755 9.996-9.054 15.268-19.511 19.09-4.544 1.343-9.105 1.987-13.802 2.541l-2.84.379c-5.389.686-10.605.999-16.035.871l.07 1.871.055 2.567.07 2.496c-.654 10.28-.654 10.28-3.634 13.735-1.87 1.535-3.789 2.879-5.811 4.206a2239.7 2239.7 0 0 0-4.375 3.074l-2.227 1.537c-3.232 2.278-6.31 4.734-9.398 7.202l-3.457 2.695a162.21 162.21 0 0 0-6.305 5.234c-7.7 6.437-14.082 8.165-23.988 8.383l-3.195.071C65.68 410.458 65.68 410.458 57 409c-5.687-.44-9.651-.294-14.805 2.32-5.295 1.64-11.752 1.351-17.195.68-2.55-3.826-2.515-5.443-2-10 1.8-4.088 3.832-7.832 7-11l2.938.813c3.024.59 4.032.204 6.792-1.333 1.9-1.3 3.776-2.636 5.622-4.011C48 385 48 385 50.59 385.109c2.499.924 4.235 2.034 6.347 3.641 2.015 1.368 2.015 1.368 4.063 2.25 4.952-1.213 7.882-4.688 11.191-8.379C74 381 74 381 79 379l8 12c2.4-.92 4.682-1.898 7-3l2.363-1.113c3.765-2.09 6.141-3.575 7.7-7.7.457-2.08.882-4.167 1.273-6.261.992-4.373 2.576-6.691 5.664-9.926 2.563-.625 2.563-.625 5 0 2.313 1.5 2.313 1.5 4 3 3.068-1.424 5.21-2.908 8-5h-10c-1.073-4.294-.797-5.195 1-9-4.003-.443-4.003-.443-6.25 2l-1.75 2c-3.83-1.453-5.12-3.429-7-7-3.43 1.617-6.563 3.576-9.75 5.625l-2.984 1.914L89 358c-3.938-2.239-6.956-4.721-10.156-7.89-1.827-1.326-1.827-1.326-4.23-1.036-3.228 1.144-5.31 2.79-7.927 4.988l-2.675 2.223L62 358c-3.065-1.996-5.841-3.857-8.563-6.313-2.251-1.927-2.251-1.927-4.68-1.566-3.564 1.136-6.327 3.077-9.32 5.254A355.973 355.973 0 0 0 29 363a97.393 97.393 0 0 1-1.999-7l-.602-2.41c-.678-3.72-1.108-6.38.856-9.727 1.822-2.074 3.739-3.968 5.746-5.863 4.574-4.84 8.095-9.684 11.375-15.477 2.297-3.567 5.164-6.453 8.184-9.418 1.708-2.035 1.708-2.035 1.293-4.68-.81-2.644-.81-2.644-2.914-5.425-1.938-3-1.938-3-2.563-5.625.973-3.696 3.403-4.479 6.625-6.375a118.209 118.209 0 0 1 7.313-2.563c.661-.215 1.323-.43 2.004-.653 2.753-.893 5.503-1.738 8.308-2.452 11.993-3.191 19.944-14.72 25.898-24.95 3.61-6.174 7.761-10.752 12.915-15.632 7.215-6.875 11.332-13.831 15.562-22.75 1.591-2.728 3.273-5.356 5-8Z" fill="#5B7045"/><path d="m377 22-.586 1.836C372.173 37.484 369.761 48.61 376 62c6.17 11.299 15.246 18.26 26 25-2.818 1.41-4.846.51-7.818-.134-29.848-6.464-59.983-7.441-90.399-7.48-9.177-.012-18.353-.088-27.53-.16-3.04-.023-6.078-.044-9.117-.065-15.786-.117-31.56-.39-47.337-.916-2.383-.08-4.766-.153-7.15-.222a1215.21 1215.21 0 0 1-9.669-.328l-2.757-.076c-5.654-.245-10.02-1.374-15.223-3.619 0-4 0-4 1.992-6.008C208.68 52.064 233.052 42.61 259 36l3.274-.851C282.688 29.899 303.113 26.626 324 24l3.002-.386C365.836 18.667 365.836 18.667 377 22Z" fill="#79985D"/><path d="M370 226h2c10.292 10.86 12.424 20.702 12.21 35.277-.366 11.21-2.71 22.183-10.84 30.363-5.07 4.686-10.509 7.897-16.62 11.048-8.71 4.133-8.71 4.133-14.75 11.312l21 2 1-9c3.711-7.834 11.547-14.282 19.438-17.5 5.265-1.735 9.16-1.563 14.562-.5l-1.137 1.984c-9.236 16.472-14.6 32.191-14.113 51.13.018 1.389.033 2.778.046 4.168.045 4.344.122 8.687.204 13.03.095 5.061.176 10.122.224 15.184.025 2 .076 3.999.127 5.998.112 10.44-1.796 18.227-8.788 26.131-5.267 4.635-12.735 4.88-19.375 6.063l-3.815.72-3.705.666-3.366.612c-3.618.344-6.737-.041-10.302-.686.248-6.94 2.224-10.956 7-16 3.11-2.8 5.638-3.551 9.75-4.188l2.984-.48L356 393l-3-7h-2v-2a1814.02 1814.02 0 0 0-12.125-.125l-3.46-.05-3.36-.02-3.079-.032c-3.255.248-5.903 1.166-8.976 2.227-3.039-.781-3.865-1.81-5.688-4.375-2.81-5.621-2.95-11.433-2.312-17.625 2.318-4.904 5.23-7.48 10-10 7.37-2.272 14.802-2.382 22.447-2.566 4.886-.164 8.964-.547 13.553-2.434-3.354-3.507-5.39-4.206-10.25-4.375-6.425.023-11.465 1.865-17.39 4.195-4.443 1.56-8.676 2.061-13.36 2.18-4.298-5.296-6.934-9.504-6.45-16.46 3.397-19.194 21.49-31.503 36.368-42.12 3.914-2.67 7.985-5.083 12.122-7.39 5.552-3.149 9.754-6.61 12.21-12.592l.953-2.254c4.454-12.205 3.12-29.089-1.203-41.184l-1-3Z" fill="#9F926F"/><path d="M220 120c3.994.538 6.176 1.61 9.25 4.188 4.402 3.58 8.985 6.737 13.75 9.812l1-6c7.629 5.493 12.302 13.152 14.188 22.438C258 154 258 154 255.813 156.563L253 159c-3.356 4.848-4.264 8.091-4.652 13.91-.519 3.116-2.162 4.904-4.348 7.09l3.375 1.063c3.305 1.42 3.578 1.843 5.313 5.312.312 3.625.312 3.625-1.563 6.563-.701.68-1.403 1.36-2.125 2.062l3.75.563c3.443.851 4.994 1.784 6.875 4.812C261 204 261 204 260.438 206.063L259 208l-1.563 3.188C256 214 256 214 255 215c-1.839.313-3.68.621-5.523.901-7.543 1.15-13.893 2.891-20.856 6.122-2.708 1.01-4.227 1.086-7.059.79-7.867-.545-15.73 6.781-21.687 11.25L197 236c-3.736-1.245-5.226-3.226-8-6-2.613-1.845-5.14-3.57-8-5l-2.313-1.438c-4.794-2.787-9.265-3.946-14.699-4.804C162 218 162 218 160.68 216.188c-1.293-4.16.382-7.453 2.32-11.188 6.572-9.057 15.023-15.163 25-20l-2.309-1.469C178.978 179.173 172.648 174.72 167 169v-1a6186.058 6186.058 0 0 1 9.082.684c2.128.171 4.256.35 6.38.57 7.05.713 14.018.897 21.1.871l3.268.012 3.111-.004 2.803-.004c2.291.018 2.291.018 4.256-1.129l-1.222-2c-1.843-3.02-3.686-6.041-5.528-9.063l-1.922-3.146c-8.224-13.493-8.224-13.493-11.578-20.041l-1.016-1.953C195 131 195 131 195 128c3.902.603 6.232 2.48 9.313 4.875 1.059.813 2.119 1.626 3.18 2.438l1.705 1.312c3.218 2.456 6.478 4.853 9.74 7.25l1.897 1.406c3.298 2.425 6.608 4.68 10.165 6.719-1.849-7.665-4.963-14.647-8.307-21.753l-1.048-2.27-.958-2.03C220 124 220 124 220 120Z" fill="#4E4732"/><path d="M419 102c-.56 3.809-2.145 5.465-4.895 8.082l-2.396 2.326a20092.97 20092.97 0 0 1-5.008 4.774c-7.877 7.485-7.877 7.485-11.014 17.568.191 3.258.191 3.258 1.313 6.25-6.252.312-11.857-.862-17.938-2.25l-3.092-.687c-5.066-1.136-10.116-2.317-15.137-3.637-5.96-1.531-11.835-2.807-17.919-3.742-9.863-1.587-19.597-3.673-29.344-5.853a1983.12 1983.12 0 0 0-8.607-1.895c-9.499-2.099-18.925-4.374-28.287-7.018l-2.529-.708C260.394 111.228 247.894 104.901 236 97c.188-1.875.188-1.875 1-4 35.843-21.736 143.791-3.736 182 9Z" fill="#79975D"/><path d="M132 214c3.373 1.396 5.042 2.924 7 6 2.551 7.653 2.407 18.086-.305 25.629A70.527 70.527 0 0 1 134 253l-1 2c6.953-.858 12.013-2.814 17.871-6.66 3.51-2.209 6.267-2.455 10.316-2.403l2.731.028L166 246c-.347 9.718-4.248 18.259-7.877 27.15-1.398 3.522-2.144 5.643-1.748 9.475C156 286 156 286 154.325 287.559c-2.389 1.588-4.839 3.012-7.325 4.441a515.383 515.383 0 0 0-4.313 3.063c-3.414 2.296-6.795 3.876-10.625 5.375-7.094 2.805-12.915 6.864-18.687 11.812-4.53 3.338-9.595 4.641-15.063 5.688-3.998.812-6.267 2.286-9.312 5.062-3.822 1.274-7.407 1.124-11.387 1.098l-2.476-.005c-2.608-.005-5.216-.018-7.825-.03-1.768-.006-3.537-.01-5.306-.014-4.335-.011-8.67-.028-13.006-.049l1.242-1.645 1.633-2.168 1.617-2.144c3.055-4.14 3.93-6.933 4.508-12.043 3.875 1.875 3.875 1.875 5 3 4.136.432 6.17-.403 9.5-2.813 2.468-1.77 4.603-3.234 7.375-4.5 2.526-2.005 2.696-3.083 3.563-6.125 1.02-3.495 1.405-4.424 4.25-6.937C91 287 91 287 94.75 285.875c6.136-2.228 10.17-6.966 14.25-11.875l1.404-1.66c7.623-9.372 9.269-16.851 9.122-28.809.058-10.05 3.837-16.48 9.474-24.531a307.244 307.244 0 0 0 3-5Z" fill="#4C5138"/><path d="m136.375 414.75 2.773-.078c6.582.757 10.69 4.727 15.227 9.14 3.594 3.424 7.118 6.7 11.188 9.563 4.352 3.113 6.727 6.496 8.437 11.625.081 1.554.108 3.112.098 4.668l-.01 2.705-.025 2.815-.014 2.85c-.012 2.32-.028 4.641-.049 6.962-18.408 6.442-35.63 10.86-55.117 7.566-2.996-.437-5.94-.775-8.953-1.039l-2.685-.236c-1.754-.15-3.51-.289-5.266-.417-5.113-.441-10.145-1.04-13.979-4.874-.377-7.335 2.34-12.523 7-18 1.942-1.852 3.948-3.571 6.016-5.281 2.56-2.218 4.668-4.69 6.859-7.266 2.873-3.316 5.836-6.542 8.813-9.765l1.694-1.852c5.691-6.15 9.43-8.942 17.993-9.086Z" fill="#5B7145"/><path d="M309 356c-.143 2.48-.29 4.958-.438 7.438l-.119 2.083c-.313 5.184-.838 10.32-1.443 15.479l-2.117.212c-27.71 2.83-50.017 6.22-69.004 28.249-2.891 3.907-4.988 8.073-6.879 12.539-3.66-3.139-4.883-5.83-6.188-10.438l-.98-3.37c-3.78-14.503-2.435-28.325 4.918-41.505 6.662-10.19 15.901-17.225 27.816-20.363 17.964-2.393 37.917 2.73 54.434 9.676Z" fill="#4A3E29"/><path d="M426 377c13.046 6.835 22.616 19.454 27.563 33.188 2.158 8.201 4.342 20.51.074 28.3-1.776 1.713-3.642 3.066-5.637 4.512a78.325 78.325 0 0 0-3.25 4.25c-3.91 5.49-6.073 7.058-12.875 8.563-5.902 1.4-10.368 3.267-15.238 7.015C415 464 415 464 413 464c-.68-3.164-1.341-6.332-2-9.5l-.578-2.688c-1.108-5.38-1.811-10.316-1.422-15.812l2-3c-3.604-4.614-7.336-8.178-12.098-11.578-2.573-1.924-4.703-4.085-6.902-6.422l1-2c2.066-.633 2.066-.633 4.563-1.125l2.503-.508L402 411c-.364-4.972-1.93-7.696-4.941-11.484C396 398 396 398 396 396a240.96 240.96 0 0 1 4.031-2.605c2.465-1.746 4.62-3.728 6.844-5.77C420.149 375.567 420.149 375.567 426 377Z" fill="#5D7346"/><path d="M144 358.188c2.474 1.005 4.068 1.944 6 3.812.348 2.742.348 2.742.063 5.875l-.215 3.117c-1.621 5.752-6.637 8.741-11.286 12.133-3.977 2.938-7.914 5.909-11.792 8.976a613.75 613.75 0 0 1-3.56 2.792c-2.804 2.185-5.561 4.393-8.237 6.736C107.28 408.06 100.895 409.782 91 410l-3.195.071C65.68 410.458 65.68 410.458 57 409c-5.687-.44-9.651-.294-14.805 2.32-5.295 1.64-11.752 1.351-17.195.68-2.55-3.826-2.515-5.443-2-10 1.8-4.088 3.832-7.832 7-11l2.938.813c3.024.59 4.032.204 6.792-1.333 1.9-1.3 3.776-2.636 5.622-4.011C48 385 48 385 50.59 385.109c2.499.924 4.235 2.034 6.347 3.641 2.015 1.368 2.015 1.368 4.063 2.25 4.952-1.213 7.882-4.688 11.191-8.379C74 381 74 381 79 379l8 12c2.4-.92 4.682-1.898 7-3l2.363-1.113c3.765-2.09 6.141-3.575 7.7-7.7.457-2.08.882-4.167 1.273-6.261.992-4.373 2.576-6.691 5.664-9.926 2.563-.625 2.563-.625 5 0 2.313 1.5 2.313 1.5 4 3 2.541-1.173 4.514-2.397 6.75-4.125 4.207-2.427 6.452-2.03 11.25-1.875 4.196-1.982 4.196-1.982 6-1.813Z" fill="#C1C2A2"/><path d="M42 120h2l.332 3.516C45.677 139.273 45.677 139.273 51 154c8.555-1.48 16.84-2.94 25-6-2.065 7.306-4.583 14.357-7.313 21.438C59.909 192.589 54.334 213.09 55 238c-11.957-5.404-20.326-23.514-24.853-35.201-8.04-22.564-6.06-45.203 3.846-66.982C36.22 131.155 38.588 126.57 41 122l1-2Z" fill="#4F4026"/><path d="M421.188 328.125c5.522 1.718 10.017 3.789 13.937 8.125 3.655 3.934 8.032 6.337 12.725 8.821 6.275 3.363 11.776 6.937 14.15 13.929 1.213 7.778-.785 13.493-5 20a179.902 179.902 0 0 1-8 10c-4.373-1.66-7.138-4.959-10.313-8.25-4.396-4.486-8.81-8.78-13.687-12.75-4.152 1.364-6.456 3.145-9.434 6.316l-2.466 2.565a1645.59 1645.59 0 0 0-5.063 5.375l-2.47 2.56-2.221 2.358c-2.794 2.174-4.86 2.52-8.346 2.826-1.626-3.252-1.623-6.491-1-10 1.487-2.596 3.413-4.622 5.5-6.75 4.41-4.316 4.41-4.316 5.5-10.25-1.906-1.732-1.906-1.732-4.375-3.125-2.501-1.532-4.546-2.796-6.625-4.875-.625-2.625-.625-2.625 0-6 4.187-5.764 19.866-21.293 27.188-20.875Z" fill="#5F7547"/><path d="M426 277a75.71 75.71 0 0 1 4.438 3.063c3.942 2.843 7.958 5.434 12.125 7.937 9.481 5.807 17.78 11.029 21.437 22 .906 8.499-.185 14.882-5 22-1.577 1.888-3.125 3.392-5 5-4.274-1.36-6.256-3.107-9.063-6.563-5.243-6.042-11.864-12.709-19.585-15.34-2.328-.294-2.328-.294-4.063.81-.55.525-1.098 1.051-1.664 1.593l-2.04 1.914c-2.109 2.11-4.205 4.23-6.296 6.36l-2.01 2.037a450.353 450.353 0 0 0-4 4.12l-1.888 1.936-1.687 1.754c-1.895 1.534-3.322 1.974-5.704 2.379-1.631-3.263-1.616-6.48-1-10 1.517-2.83 3.486-5.186 5.563-7.625 4.192-4.694 4.192-4.694 5.527-10.61-1.244-3.155-2.402-4.365-5.09-6.39-3.758-2.859-3.758-2.859-4.926-5.352-.104-2.838.84-3.698 2.738-5.773C416.553 273.345 416.553 273.345 426 277Z" fill="#5F7547"/><path d="M279 127c19.894-.845 38.94 2.367 58 8 5.708 1.622 11.357 3.078 17.188 4.188 7.858 1.618 15.304 4.28 22.881 6.89 7.91 2.685 15.675 4.652 23.931 5.922v2c-2.594.865-4.336 1.171-7.008 1.324-18.538 1.277-36.96 4.725-53.906 12.574-4.141 1.479-7.702 2.104-11.88.348-1.95-1.08-3.792-2.255-5.644-3.496l-2.083-1.354C308.117 155.246 296.654 146.282 286 136l-2.293-2.172c-3.545-3.425-3.545-3.425-4.707-4.828v-2Z" fill="#78975C"/><path d="M120.938 48.25c5.406 5.992 7.437 13.746 7.062 21.75-1.41 6.332-4.009 10.98-9.223 14.883C113.22 88.377 107.401 88.667 101 88c-4.74-1.668-7.44-3.673-10-8a131.367 131.367 0 0 1-1.8-9.258c-1.007-2.961-1.007-2.961-3.907-4.59-5.942-2.096-12.46-1.542-18.668-1.465l-3.867-.01c-6.896.04-13.1.503-19.758 2.323 5.548-11.712 17.585-18.613 29.297-23.074 15.254-5.225 35.856-7.366 48.64 4.324Z" fill="#635238"/><path d="M43 325c.548.49 1.096.98 1.661 1.483 2.856 1.852 4.385 1.858 7.763 1.782l3.287-.052 3.535-.104 3.646-.073c2.545-.053 5.09-.114 7.634-.182 3.893-.103 7.786-.186 11.68-.264 2.471-.055 4.943-.11 7.415-.168l3.53-.08 3.296-.09 2.89-.074c2.633-.176 5.092-.6 7.663-1.178v8c3.734.879 7.168 1.09 11 1l1 3-1 2a284.396 284.396 0 0 0-.188 4.75c-.337 4.01-.987 6.042-3.874 8.875L111 356c-3.83-1.453-5.12-3.429-7-7-3.43 1.617-6.563 3.576-9.75 5.625l-2.984 1.914L89 358c-3.938-2.239-6.956-4.721-10.156-7.89-1.827-1.326-1.827-1.326-4.23-1.036-3.228 1.144-5.31 2.79-7.927 4.988l-2.675 2.223L62 358c-3.065-1.996-5.841-3.857-8.563-6.313-2.251-1.927-2.251-1.927-4.68-1.566-3.564 1.136-6.327 3.077-9.32 5.254A355.973 355.973 0 0 0 29 363a97.393 97.393 0 0 1-1.999-7l-.602-2.41c-.678-3.72-1.108-6.38.856-9.727C29.076 341.79 30.997 339.9 33 338a244.449 244.449 0 0 0 3.75-4.188l1.738-1.98c1.77-2.145 3.208-4.377 4.512-6.832Z" fill="#C0C2A2"/><path d="m215.875 426.625 2.473-.113c6.032-.089 6.032-.089 9.097 2.761L229 432l1.18 2.035c3.179 7.615 3.972 16.861 2.82 24.965-3.11 7.247-10.168 11.584-17 15-6.545.633-12.178.112-18-3l-2.074-1.09c-8.335-5.401-12.83-14.687-17.74-23.05-1.18-1.998-1.18-1.998-3.186-3.86.097-3.575 1.026-5.033 3.25-7.875C181 433 181 433 183.5 432.875c3.23 1.453 5.152 3.509 7.5 6.125 3.678-1.565 6.212-3.854 9.125-6.563 5.599-5.191 8.325-5.684 15.75-5.812ZM297.063 427.438l3.22.005c5.595.095 9.933.344 14.717 3.557 4.619 5.097 4.402 10.776 4.781 17.36.13 2.16.302 4.32.563 6.468.464 5.273-.432 7.941-3.844 12.047-5.684 5.615-10.32 8.275-18.375 8.688-7.747-.284-13.851-3.285-19.625-8.375-4.918-5.544-4.703-12.259-4.875-19.313l-.08-2.064c-.016-5.147 1.179-7.899 4.455-11.811l1.399-1.684c5.194-5.385 10.517-5.126 17.663-4.878Z" fill="#5B7145"/><path d="M210 312c1.773 5.318-2.168 10.439-4.521 15.287-.966 1.999-1.903 4.01-2.838 6.024-4.78 10.077-9.26 15.985-19.969 19.898-4.523 1.339-9.06 1.987-13.734 2.541l-2.815.379c-5.752.735-11.326.99-17.123.871 1.119-25.39 1.119-25.39 8.11-34.45 5.081-4.167 11.098-5.138 17.421-5.902l2.409-.316c2.519-.328 5.04-.643 7.56-.957l5.074-.656c3.115-.404 6.23-.802 9.346-1.194 3.7-.47 7.39-.988 11.08-1.525Z" fill="#B9BA9D"/><path d="M46 301c2 3 2 3 1.813 6.305-3.195 14.53-14.85 27.647-24.485 38.574C18.936 350.92 15.358 356.208 12 362c-3.117-2.838-4.921-5.402-6.625-9.25l-1.227-2.703c-3.21-8.518-3.484-16.18-3.46-25.235l-.05-3.81-.001-3.67-.01-3.321C1.055 310.564 1.88 308.736 4 306c4.883-3.447 11.849-3.49 17.644-4.397a638.67 638.67 0 0 0 6.649-1.1c1.42-.226 2.84-.451 4.262-.675l3.89-.628c3.801-.214 6.117.198 9.555 1.8Z" fill="#5B7044"/><path d="M419 176c18.11 9.845 33.924 26.828 40.809 46.285 1.203 4.308 1.375 8.292 1.191 12.715-5.097-1.572-9.846-3.665-14.688-5.875-5.11-2.32-10.16-4.5-15.5-6.25-6.996-2.467-10.905-6.56-15.25-12.438-3.249-4.372-6.752-6.951-11.562-9.437 1.118-8.691 2.566-16.458 7.938-23.563 2.674-1.863 3.835-1.822 7.062-1.437Z" fill="#5E7547"/><path d="M409 217c2.625-.063 2.625-.063 6 1 9.123 9.233 9.58 23.024 9.61 35.248.015 2.147.083 4.29.152 6.436.16 9.832.16 9.832-2.079 13.434-1.803 1.597-3.577 2.719-5.683 3.882-1.34.932-2.675 1.868-4.008 2.809-1.368.882-2.74 1.758-4.117 2.628l-2.09 1.39c-5.016 3.178-5.016 3.178-8.605 3.153-3.306-1.486-4.423-3.012-5.93-6.261-.422-4.588 1.898-8.342 4.056-12.262 2.2-4.027 3.306-6.86 2.694-11.457-3.277-4.866-7.147-7.765-12-11 1.53-5.105 4.696-8.38 8.188-12.25 1.176-1.328 2.35-2.657 3.523-3.988l1.714-1.944c3.017-3.482 5.823-7.125 8.575-10.818Z" fill="#B8B899"/><path d="M180.953 23.246c4.35 3.728 8.546 8.676 9.484 14.442-.632 4.786-2.861 7.182-6.437 10.312-8.163 5.53-16.101 8.137-26 7-4.472-2.041-5.473-4.97-7.25-9.313-4.326-10.01-12.8-13.485-22.418-17.425A199.88 199.88 0 0 0 119 25v-2c19.042-8.047 43.941-12.496 61.953.246Z" fill="#635238"/><path d="M386 416c6.78 2.324 10.554 6.381 14.75 12.063l2.36 3.16c5.062 7.437 4.108 19.158 2.89 27.777-1.903 4.246-4.164 6.443-8 9l-2.219 1.625c-5.095 3.301-9.77 4.441-15.781 3.375-4.157-1.755-6.53-4.252-9-8-3.166-9.053-3.754-20.02-1.043-29.262 3.842-7.585 10.136-13.715 16.043-19.738Z" fill="#5F7547"/><path d="M182.242 359.324c2.378 1.781 4.567 3.671 6.758 5.676l1.879 1.602c6.45 5.859 12.712 14.808 13.36 23.656.174 9.116-.365 16.07-6.364 23.305C196 415 196 415 194 415v-3l-2-1a91.198 91.198 0 0 1-2.188-4.625c-3.87-7.935-9.854-13.538-17.812-17.375a104.625 104.625 0 0 0-7.996-2.324C162 386 162 386 161 384c-2.025-.43-2.025-.43-4.375-.563-2.82-.225-4.912-.533-7.625-1.437.713-2.138 1.427-4.276 2.152-6.41a115.314 115.314 0 0 0 1.54-5.086l.683-2.379.586-2.18c1.908-3.572 5.17-4.654 8.871-5.894 14.541-3.602 14.541-3.602 19.41-.727Z" fill="#7A7248"/><path d="M429 227c5.967 1.608 11.002 3.817 16.438 6.688l2.447 1.24c2.43 1.275 4.772 2.641 7.115 4.072.777.44 1.554.878 2.355 1.33 3.837 2.62 5.413 4.48 6.316 9.114.189 3.49.228 6.883.097 10.371-.08 2.18-.102 4.355-.114 6.537-.115 6.934-.489 12.422-3.654 18.648-2.313 2.063-2.313 2.063-5 3-5.639-.877-9.692-4.492-14-8l-1.926-1.55c-4.318-3.58-8.256-6.997-10.074-12.45-.085-2.95-.116-5.875-.098-8.824l.005-2.61c.005-2.752.018-5.502.03-8.254.006-1.865.01-3.73.014-5.595.011-4.573.028-9.145.049-13.717Z" fill="#5B7145"/><path d="m375.5 167.688 2.427.012c9.406.178 19.122 1.349 26.073 8.3.069 8.202-1.593 15.562-5 23l-1.006 2.624C396 204 396 204 394.184 204.437c-2.424.144-4.8.124-7.227.051l-2.678-.021a671.36 671.36 0 0 1-8.466-.155c-1.914-.025-3.827-.047-5.74-.068-4.692-.055-9.382-.141-14.073-.244-2.057-9.832-2.164-21.074 3.172-29.95 4.662-5.942 9.101-6.413 16.328-6.363Z" fill="#5B7044"/><path d="M333.719 395.645 336 397c-4.34 13.852-4.34 13.852-7.836 16.27-2.164.73-2.164.73-4.207.12l-2.144-1.14c-11.124-5.31-25.756-6.63-37.625-2.813-8.13 3.5-15.172 9.271-22.188 14.563-2.088-4.177-.69-9.766.645-14.086 4.954-11.086 15.136-19.629 26.257-24.074 15.845-4.296 31.235 2.074 44.817 9.805Z" fill="#4B3F2A"/><path d="M156 253v26l-6.875 3-2.16.95C142.222 285 142.222 285 140 285l-.523 3.313C138 292 138 292 134.648 293.75c-1.416.443-2.841.858-4.273 1.25-1.543.477-3.085.96-4.625 1.45l-2.387.747c-4.447 1.511-8.68 3.521-12.92 5.532-4.237 1.947-7.856 2.817-12.443 3.271 0-8.73 3.384-12.608 9-19a452.912 452.912 0 0 0 3-4.125c3.627-4.672 7.727-8.857 11.875-13.063l2-2.053c6.384-6.375 12.885-11.86 21.938-13.634l3.269-.68C152 253 152 253 156 253Z" fill="#5A7044"/><path d="m344.438 428.625 2.892-.074c6.961-.03 6.961-.03 10.205 2.16 4.339 6.78 4.652 14.465 5.465 22.289l.371 3.215c.444 6.61.444 6.61-1.691 9.687-5.34 4.897-11.845 7.816-19.133 7.59-5.264-1.017-10.061-3.616-14.547-6.492-4.476-6.714-3.46-17.666-2.578-25.52 2.534-10.87 8.897-12.841 19.015-12.855Z" fill="#5B7145"/><path d="M89 442c0 4.234-.833 6.443-2.438 10.313-2.128 5.231-2.128 5.231-3.062 10.75C83 466 83 466 81 468.313c-6.55 3.683-13.927 4.052-21.313 4l-2.505-.015c-9.979-.19-19.27-1.834-27.182-8.298-2.828-2.973-4.14-5.05-5-9l3.219.465c7.833 1.13 7.833 1.13 15.308-.676 2.008-1.815 3.73-3.72 5.473-5.789 13.132-13.06 23.293-14.131 40-7Z" fill="#7A7248"/><path d="M359 166c-1.094 3.5-2.72 6.07-4.938 8.938-5.097 6.693-6.924 11.628-6.062 20.062.913 2.786.913 2.786 2 5v4c-6.218 1.348-11.269.45-17.438-.875-9.63-1.993-18.702-3.286-28.562-3.188l-2.637.014c-2.12.012-4.242.03-6.363.049.583-4.123 1.92-6.981 4.125-10.5l1.695-2.781c3.098-3.865 6.303-7.153 11.317-8.14 2.3-.15 4.56-.178 6.863-.142 7.836.086 12.242-1.272 18.375-6.437 6.854-5.222 13.104-6.64 21.625-6Z" fill="#5B7044"/><path d="M260 428c4.016 1.72 5.734 4.514 7.813 8.313 1.269 3.942 1.914 7.584 2.187 11.687l.371 2.79c.551 6.559-.391 10.034-4.558 15.21-3.017 3.361-6.117 6.392-9.813 9-6.595.254-10.96-3.195-16-7l-2.563-1.75c-2.458-3.848-1.72-7.819-1.437-12.25l.098-3.52c.376-9.056 1.563-13.457 7.34-20.418 4.694-3.614 11.009-2.931 16.562-2.062Z" fill="#607748"/><path d="M218 261c.836 30.783.836 30.783-9 43l-1.938 2.75c-4.342 4.738-8.489 7.769-15.062 8.25l1.813-1.938c6.103-8.544 7.185-20.203 5.75-30.437L199 280c-12.774-3.83-25.754.309-38 4 1.658-4.493 3.85-8.612 6.125-12.813l1.129-2.1c.913-1.696 1.83-3.392 2.746-5.087l2.781.438 3.719.562 3.656.563c8.338.949 14.146.026 22.031-2.625 1.74-.586 3.484-1.16 5.231-1.723l2.305-.778c2.694-.517 4.642-.122 7.277.563Z" fill="#61543D"/><path d="m51.707 412.902 2.198.005c2.303.005 4.605.018 6.907.03A4577.056 4577.056 0 0 1 77 413a367.531 367.531 0 0 1-11 10.625l-1.54 1.445c-9.659 8.917-22.716 11.385-35.651 11.207-10.64-1.05-19.914-5.382-27.434-12.902C0 421 0 421 .415 418.852L1 417l1.941.105 2.622.082 2.566.106c3.019-.147 3.019-.147 6.047-1.797 4.702-2.168 9.367-1.785 14.449-1.621 1.846.044 3.693.083 5.54.117l2.45.074c2.391.006 2.391.006 4.706-.56 3.47-.655 6.87-.63 10.386-.604Z" fill="#4B3F2A"/><path d="M138 439c9.639 4.619 17.12 16.274 23 25v2c-5.75 3-5.75 3-8 3v2c-11.439 3.65-24.408 4.581-36 1-2.75-2.063-2.75-2.063-4-5-.856-6.752 2.184-11.925 5.91-17.336 5.342-6.81 9.97-12.458 19.09-10.664Z" fill="#9AA062"/><path d="M421.688 328.375 424 329c.249 5.247.43 10.49.55 15.741.05 1.782.117 3.564.204 5.345.704 14.774.704 14.774-2.787 19.899-2.539 2.26-5.145 4.128-7.967 6.015a80.526 80.526 0 0 0-3.61 3.688l-1.597 1.675a357.86 357.86 0 0 0-3.133 3.367c-3.38 3.513-5.57 5.026-10.66 5.27-1.626-3.252-1.623-6.491-1-10 1.487-2.596 3.413-4.622 5.5-6.75 4.41-4.316 4.41-4.316 5.5-10.25-1.906-1.732-1.906-1.732-4.375-3.125-2.501-1.532-4.546-2.796-6.625-4.875-.625-2.625-.625-2.625 0-6 4.28-5.891 20.294-21.657 27.688-20.625Z" fill="#B8B899"/><path d="m198.563 188.063 2.498 1.279c1.598.821 3.19 1.655 4.775 2.502 2.696 1.44 5.425 2.802 8.164 4.156l-2.125 1.691a607.607 607.607 0 0 0-8.875 7.246l-1.69 1.408c-4.998 4.24-9.57 8.844-13.996 13.678-1.537 1.618-1.537 1.618-4.314 3.977-3.436-.465-6.551-1.994-9.77-3.25-3.06-1.029-6.16-1.544-9.347-2.027C162 218 162 218 160.69 216.19c-1.312-4.159.37-7.453 2.309-11.191 5.177-7.134 11.532-12.41 19-17l1.526-1.226c5.687-4.139 9.303-1.85 15.036 1.288Z" fill="#5A7044"/><path d="M425 277a620.09 620.09 0 0 1 .122 15.314c.002 1.733.022 3.466.06 5.199.297 14.36.297 14.36-3.224 19.423-2.538 2.26-5.152 4.152-7.958 6.064a99.387 99.387 0 0 0-3.898 3.906l-1.762 1.813a912.078 912.078 0 0 0-3.5 3.656l-1.738 1.781-1.521 1.588c-1.827 1.451-3.305 1.85-5.581 2.256-1.631-3.263-1.616-6.48-1-10 1.517-2.83 3.486-5.186 5.563-7.625 4.192-4.694 4.192-4.694 5.527-10.61-1.244-3.155-2.402-4.365-5.09-6.39-3.758-2.859-3.758-2.859-4.926-5.352-.104-2.838.84-3.698 2.738-5.773C415.954 273.984 415.954 273.984 425 277ZM423 378c.05 5.086.086 10.172.11 15.259.01 1.726.023 3.452.04 5.178.227 22.964.227 22.964-4.095 29.508l-2.18 2.18-2.195 2.258L413 434l-2.156-2.219c-2.674-2.615-5.422-4.95-8.344-7.281A110.907 110.907 0 0 1 392 415l1-2c2.066-.633 2.066-.633 4.563-1.125l2.503-.508L402 411c-.364-4.972-1.93-7.696-4.941-11.484C396 398 396 398 396 396c1.334-.878 2.672-1.75 4.023-2.602 2.503-1.77 4.71-3.773 6.977-5.836l2.605-2.367a432.86 432.86 0 0 0 4.196-3.89c3.224-2.916 4.918-3.527 9.199-3.305Z" fill="#B8B899"/><path d="M245.875 8.625c3.39 2.576 4.917 4.007 5.563 8.25-.61 4.353-1.979 5.427-5.438 8.125-6.69 3.782-12.183 6.404-20 6-3.133-.975-4.676-1.676-7-4l-.625-3.188c-1.416-5.169-5.08-7.877-9.375-10.812-3.92-2.186-7.926-4.12-12-6a462.034 462.034 0 0 1-4-2c11.425-11.425 40.886-3.431 52.875 3.625Z" fill="#635238"/><path d="M158 221c10.082.72 16.519 5.095 24.169 11.383 3.75 3.022 7.33 4.886 11.831 6.617a106.235 106.235 0 0 1-1 7l-.277 2.293C192.174 251 191.59 252.727 190 255c-6.939 4.088-15.096 5.805-23 7l.254-2.922.309-3.828.316-3.797c.1-2.848.027-4.796-.879-7.453-3.31-1.001-6.3-1.104-9.75-1.063l-2.984.028L152 243c.199-8.16 2.575-14.644 6-22Z" fill="#5B7044"/><path d="m279 38 2 1a201.102 201.102 0 0 1-1.75 3.875l-.984 2.18C276.733 47.41 275.629 48.056 273 49c-2.148.273-2.148.273-4.375.375-4.485.452-7.342 1.342-10.625 4.625-.7 3.942-.96 6.282.996 9.781 2.916 3.707 5.722 5.933 10.406 6.52 6.221.029 9.805-.605 14.41-5.051 2.75-1.57 4.913-1.6 8.016-1.11 4.325 1.712 7.203 5.394 10.172 8.86l-1 2-1.574-.91c-4.316-2.4-4.316-2.4-9.113-3.09-2.86 1.236-4.89 3.05-7.313 5-6.126 2.917-13.178 2.978-19.688 1.313-7.187-2.63-12.906-6.389-16.75-13.126C244.63 59.812 244.143 55.712 245 51c2.402-4.896 5.24-7.418 10-10 3.188-.556 6.332-.605 9.563-.625 5.315-.082 9.515-.164 14.437-2.375Z" fill="#5B5C2A"/><path d="M405 212c-1.523 4.484-3.982 8.084-6.75 11.875l-1.356 1.87c-3.117 4.265-6.198 8.468-9.894 12.255h-3l-.777-1.617C378.43 227.058 369.358 214.453 359 211v-2c13.53-5.969 33.054-4.276 46 3Z" fill="#B8B899"/><path d="M58 98c2.404 3.806 2.59 7.879 3 12.25.14 1.464.286 2.928.438 4.39l.183 1.955c.554 3.514 1.516 6.953 2.379 10.405h30c-2.555 6.387-5.377 8.431-11.5 11.125-6.025 2.284-12.116 3.198-18.5 3.875l-2.465.293c-3.408.235-5.172-.016-7.91-2.106-2.36-4.63-3.052-9.053-3.625-14.187l-.398-2.82C48.834 113.47 53.349 106.18 58 98Z" fill="#635238"/><path d="M132 214c3.373 1.396 5.042 2.924 7 6 2.544 7.631 2.424 18.078-.305 25.594-1.448 2.578-3.01 4.979-4.695 7.406l-1 3a148.361 148.361 0 0 1-6 4c-2.325 1.707-4.599 3.479-6.875 5.25l-1.797 1.39A2696.735 2696.735 0 0 0 114 270l-2-1 1.496-1.598c5.44-6.907 5.929-12 5.879-20.59-.014-11.517 3.117-18.518 9.625-27.812a307.244 307.244 0 0 0 3-5Z" fill="#61543D"/><path d="M349 31c-.448 4.929-2.84 8.338-6 12-3.55 1.775-8.048.907-11.97.697-3.691-.092-5.799.162-8.98 2.1C319.229 48.83 319 50.9 319 55c1.178 2.79 2.145 4.395 4.617 6.145 4.016 1.441 8.248.855 12.451.601 3.662-.117 5.683.099 8.823 2.059 2.42 2.519 3.73 5.001 5.109 8.195l-6-3c-4.653-.305-4.653-.305-9 1-7.065.7-13.4.985-19.281-3.363-4.569-4.35-8.801-9.296-9.094-15.762.069-5.333 1.862-8.916 5.375-12.875 4.708-3.424 9.369-3.64 15-3 1.672.653 3.34 1.319 5 2 5.312.755 5.312.755 10-1.344a76.063 76.063 0 0 0 3.555-3.343C347 31 347 31 349 31Z" fill="#5B5C2A"/><path d="m398 289-1.137 1.984C389.635 303.874 385.508 316.73 382 331l-1.355-1.809C375.403 322.207 371.1 319.097 363 316c.04-8.562 3.099-12.826 8.79-18.914 7.58-7.331 15.885-10.117 26.21-8.086Z" fill="#4C402A"/><path d="M397.688 9.938c12.165 3.902 20.921 10.72 27.218 21.863C427 36.008 427.088 39.35 427 44l-1.293-1.066c-8.421-6.65-17.906-13.096-28.91-13.032l-2.969.01-3.078.026-3.125.013c-2.542.012-5.083.028-7.625.049.758-4.621 2.217-6.952 5.25-10.563l2.328-2.816c6.09-6.59 6.09-6.59 10.11-6.683Z" fill="#52452B"/><path d="M386 416c6.68 2.29 10.542 6.326 14.75 11.875l2.36 3.055c1.947 3.163 2.562 5.402 2.89 9.07-6.965 2.621-13.948 2.331-21.313 2.313l-3.9.048-3.713.002-3.388.01L371 442l-2-3c4.274-9.161 10.007-15.87 17-23ZM215.875 426.625l2.473-.113c6.052-.09 6.052-.09 9.144 2.886L229 432l1.25 2c.91 2.428.893 4.428.75 7-3.246 1.623-6.804 1.1-10.367 1.063l-2.519-.012c-3.562-.016-7.124-.044-10.687-.072-2.598-.018-5.196-.03-7.794-.041l-2.437-.026c-3.594-.015-6.733.197-10.196 1.088-2.082.067-4.167.085-6.25.063l-3.266-.028L175 443c.746-4.815 2.072-6.965 6-10 2.5-.125 2.5-.125 5 1 2.813 2.563 2.813 2.563 5 5 3.678-1.565 6.212-3.854 9.125-6.563 5.599-5.191 8.325-5.684 15.75-5.812ZM297.125 427.375l3.207.02c6.484.138 11.748.584 16.48 5.48 1.329 2.377 1.815 4.44 2.188 7.125-7.38 3.69-18.367 2.183-26.375 2.188l-3.809.037-3.652.005-3.298.013c-2.826-.24-4.47-.78-6.866-2.243 1.144-4.72 3.93-7.445 7.513-10.5 4.62-2.785 9.367-2.35 14.612-2.125Z" fill="#B8B899"/><path d="M429 227c7.877 2.25 7.877 2.25 10.02 5.336l1.408 1.976 1.385 2.063 1.443 2.04c2.175 3.107 4.099 6.16 5.744 9.585l-2.16 2.125C441.333 255.57 435.984 261.064 431 267l-2-1v-39Z" fill="#708C53"/><path d="M192 323c-3.548 2.714-7.238 5.157-10.977 7.598-2.12 1.38-2.12 1.38-4.023 3.402v3c5.339.508 7.732-.896 12-4h2v-2h2c-2.02 5.702-4.967 9.593-10 13-3.278.826-6.426 1.186-9.79 1.504-4.727.73-8.292 2.844-12.21 5.496-.489-16.054-.489-16.054 2-21 4.019-3.142 8.5-4.092 13.375-5.188l2.21-.537c4.583-1.06 8.715-1.455 13.415-1.275Z" fill="#9A9472"/><path d="m344.313 428.688 2.92-.088c7.122-.065 7.122-.065 10.353 2.263 2.066 3.123 3.632 5.567 3.101 9.387C360 442 360 442 359 443c-4.24.218-8.484.186-12.728.185-2.131.002-4.262.02-6.393.04-1.353.003-2.706.005-4.059.005l-3.741.013C329 443 329 443 326 441c1.28-5.004 3.173-7.566 7-11 2.365-2.365 8.14-1.281 11.313-1.313Z" fill="#B8B899"/><path d="M427.938 90.5c7.373.105 12.175 4.807 17.332 9.617 5.668 5.91 9.409 12.228 9.98 20.508L455 123l-1.504-1.137a882.752 882.752 0 0 0-4.285-3.207 182.802 182.802 0 0 1-3.984-3.062c-6.357-4.895-13.338-6.755-21.227-7.594 1.312-3.937 2.92-6.227 6-9l-2.375-2.375L423 92c1-1 1-1 4.938-1.5Z" fill="#52462B"/><path d="M346 98c1.307.457 2.6.96 3.875 1.5 4.432 1.84 8.397 1.752 13.125 1.5h3c-3.75 4.875-3.75 4.875-6 6-4.382.154-8.418-.036-12.75-.688-2.807-.315-4.147-.346-6.875.563-2.277 3.52-1.14 7.16-.375 11.125 3.674 1.354 7.215 2.23 11.063 2.875 4.246.819 6.942 1.84 9.937 5.125.813 2.25.813 2.25 1 4l-2.5-1.938c-4.023-2.382-7.95-2.348-12.5-2.437-8.601-.238-8.601-.238-12.375-3.375-3.298-3.625-4.372-6.76-5.188-11.563.804-5.268 3.73-8.13 7.563-11.687 3.088-1.544 5.571-1.221 9-1Z" fill="#5B5D2C"/><path d="M139 449c4.615 3.151 8.41 6.057 10.063 11.5L149 463c-7.097 4.074-11.944 6.49-20.3 4.434-3.734-1.304-5.468-2.086-7.7-5.434.132-4.89 2.721-7.572 6-11 4.17-3.401 6.877-3.622 12-2Z" fill="#837B4F"/><path d="m294.625 91.813 2.852.019C300 92 300 92 303 93c2.228.07 4.458.085 6.688.063l3.574-.028L316 93c-2.21 2.542-3.65 3.559-7 4a256.431 256.431 0 0 1-10.156-.215c-3.225-.066-5.448-.004-8.301 1.574-1.72 1.58-1.72 1.58-2.23 4.016.868 3.315 2.459 4.648 5.28 6.504 3.961 1.845 8.132 2.52 12.419 3.25 3.366.981 4.759 2.219 6.988 4.871-3 0-3 0-5-1a81.639 81.639 0 0 0-4.543-.105l-2.756-.045c-1.906-.025-3.812-.03-5.719-.016-6.005-.14-9.346-1.08-13.733-5.257-2.787-3.52-2.693-7.285-2.249-11.577 4.296-5.524 8.754-7.292 15.625-7.188Z" fill="#5C5E2C"/><path d="M260 428c3.532 1.453 5.347 3.64 7.016 7.113.753 1.929 1.38 3.906 1.984 5.887-4.577 2.288-10.975 1.185-16 1.188l-3.969.037-3.781.005-3.484.013C239 442 239 442 237 440c5.455-10.7 10.768-13.899 23-12Z" fill="#B8B999"/><path d="M214 234c1.766 1.89 1.766 1.89 3.25 4.25l1.516 2.328c1.304 2.56 1.99 4.559 2.234 7.422-2 3-2 3-4.031 3.616l-2.469.333-2.688.381-2.812.357-2.813.393c-6.697.92-6.697.92-9.187.92.527-7.373 2.073-13.282 7.625-18.438 3.676-2.418 5.107-2.933 9.375-1.562Z" fill="#BABA9E"/><path d="M411 144c15.746 6.903 15.746 6.903 20 15l1.457 2.707c2.632 5.3 4.2 9.373 3.543 15.293l-2.813-2.563C426.839 169.005 420.041 164.41 412 162c0-2 0-2 1.5-3.625L415 157l-.875-1.828L413 152.75l-1.125-2.39C411 148 411 148 411 144Z" fill="#52472C"/><path d="M48 413h29c-3.618 3.618-7.246 7.157-11 10.625l-1.54 1.445C56.955 432 56.955 432 51 432c-.506-2.228-1.005-4.457-1.5-6.688l-.844-3.761C48 418 48 418 48 413Z" fill="#62553C"/><path d="M236 221c1.204 3.754 1.099 7.332 1.063 11.25l-.028 3.828L237 239a300.587 300.587 0 0 1-5.25 2.125l-2.953 1.195c-2.797.68-2.797.68-4.953.11-2.389-1.852-3.59-3.815-5.094-6.43l-1.578-2.688C216 231 216 231 216 229c2.248-1.15 4.498-2.296 6.75-3.438l1.922-.986C231.75 221 231.75 221 236 221Z" fill="#B9BA9D"/><path d="M341 255c7.884 1.353 15.394 3.544 23 6-1.562 4.863-4.363 8.377-7.5 12.313l-1.512 1.955c-1.278 1.619-2.628 3.18-3.988 4.732h-2a5591.23 5591.23 0 0 1-4-11.375l-1.156-3.273-1.094-3.125-1.016-2.889C341 257 341 257 341 255Z" fill="#475934"/><path d="m315 441-2.137 2.043c-3.192 3.193-5.921 6.7-8.675 10.27l-1.522 1.955A1874.77 1874.77 0 0 0 299 460a123.435 123.435 0 0 1-9.75-10.688l-2.36-2.886C285 444 285 444 284 442c3.667-.17 7.333-.335 11-.5l3.121-.145c5.633-.25 11.24-.41 16.879-.355Z" fill="#708B53"/><path d="M194 442h28c-3.573 4.764-7.097 9.42-10.875 14l-2.367 2.875L207 461c-3.244-2.836-5.35-6.454-7.625-10.063l-1.234-1.931c-2.975-4.673-2.975-4.673-4.141-7.006Z" fill="#718C53"/><path d="M166 246c-.223 6.238-1.694 11.457-3.875 17.25l-.778 2.076c-1.472 3.794-3.136 7.258-5.347 10.674-.881-2.978-1.067-5.453-.879-8.547l.147-2.558.17-2.645.158-2.691c.129-2.187.264-4.373.404-6.559l-1.826.416-2.42.545-2.389.54c-3.11.656-6.213 1.097-9.365 1.499 6.924-7.547 15.84-11.214 26-10Z" fill="#61543D"/><path d="M348 233c7.547.403 14.74.822 22 3-4.262 6.684-8.966 12.88-14 19-1.642-2.463-2.548-4.218-3.508-6.941l-.8-2.268-.817-2.353-.84-2.366C348 235.262 348 235.262 348 233ZM346 220l-7 22c-3 0-3 0-4.442-1.162l-1.476-1.611-1.611-1.75-1.659-1.852-1.693-1.828C324 229.27 324 229.27 324 227a1726.05 1726.05 0 0 1 9.875-4.063l2.84-1.181 2.715-1.104 2.507-1.031C344 219 344 219 346 220Z" fill="#485934"/><path d="M218 221c-2.45 2.696-5.158 4.466-8.25 6.375-3.364 2.091-6.604 4.219-9.75 6.625l-3 2c-3.762-1.254-5.272-3.142-8-6l-2.813-2.813L184 225c10.874-4.655 22.405-4.247 34-4Z" fill="#5B7044"/><path d="M81 412c4.073 1.45 7.372 3.443 10.938 5.875l3.027 2.055L98 422a1929.07 1929.07 0 0 0 6 4c-.634 3.498-2.052 5.84-4.063 8.75-.547.8-1.095 1.598-1.66 2.422L97 439c-3-1-3-1-4.168-2.777l-1.02-2.16-1.042-2.153C90 430 90 430 90 428l-2-1a164.159 164.159 0 0 1-3.625-7.563l-.984-2.154c-.803-1.758-1.598-3.52-2.391-5.283Z" fill="#4F452F"/><path d="M429 231c3.548 3.548 6.684 6.937 9.813 10.813l2.394 2.957L443 247c-4.095 4.894-8.264 9.707-13 14h-1v-30Z" fill="#3C4C23"/><path d="M368 4c6.61.49 11.95 2.334 18 5 0 5.356-1.844 7.331-5.355 11.203-4.306 2.926-8.12 2.094-13.082 1.332L365 21l1.277-1.426 1.66-1.887 1.653-1.863c1.61-1.876 1.61-1.876 2.41-4.824-.746-1.88-.746-1.88-1.938-3.688L368 4Z" fill="#625137"/><path d="M331 443h27l-5 5a694.46 694.46 0 0 0-5.313 5.813l-2.675 2.957L343 459c-3-1-3-1-4.605-3.652-.523-1.084-1.045-2.169-1.582-3.286l-1.606-3.277C334 446 334 446 334 444l-3-1Z" fill="#6F8853"/><path d="M254 219a440.93 440.93 0 0 1-.313 6.313l-.175 3.55C253 232 253 232 251.613 233.843c-3.1 2.223-5.81 3.157-9.613 3.157-1.868-5.487-2.236-10.222-2-16 4.89-1.35 8.894-2.117 14-2Z" fill="#B8B99C"/><path d="m185 408-1.038 1.374a6234.453 6234.453 0 0 0-4.712 6.251l-1.633 2.16c-2.4 3.19-4.745 6.365-6.883 9.738L169 430h-2a668.54 668.54 0 0 1-2.5-4.813l-1.406-2.707C162 420 162 420 162 417c3.263-1.704 6.536-3.385 9.813-5.063l2.814-1.47 2.705-1.377 2.491-1.286C182 407 182 407 185 408Z" fill="#4F462F"/><path d="M323 135c1.504.984 2.981 2.009 4.438 3.063 4.167 2.959 6.528 3.58 11.562 2.937l-2 4c-4.091-.307-6.715-1.314-10.063-3.563-2.514-1.663-3.781-2.413-6.812-2.875-2.331.277-2.331.277-4.125 2.438-.668 2.872-.668 2.872 0 6 2.011 2.011 3.684 3.444 6 5l3.25 2.188L328 156l2 2c-.375 2.125-.375 2.125-1 4l-1.938-2.813c-2.287-2.795-4.098-3.733-7.562-4.687-4.964-1.423-6.784-3.086-9.5-7.5-1.188-3.563-1.188-3.563-1-7 4-4.987 7.93-6.655 14-5Z" fill="#5C5E2C"/><path d="M165 33c6.755-.734 11.185 1.724 17 5-3.576 3.938-6.831 6.17-11.688 8.313l-3.449 1.55C164 49 164 49 162 49c.42-5.605.916-10.72 3-16Z" fill="#4F3719"/><path d="M156 387c2.034 4.067.248 9.55-.313 13.938l-.396 3.365-.404 3.224-.369 2.961C154 413 154 413 152 416l-9-7c1.361-3.403 2.456-5.953 4.348-8.953l1.334-2.125 1.38-2.172 1.393-2.219c3.39-5.376 3.39-5.376 4.545-6.531Z" fill="#50462F"/><path d="M107 62c5.687 1.251 8.728 3.041 13 7-2.025 4.845-5.41 6.74-10 9-3.5.813-3.5.813-6 1-.345-6.334.707-11.103 3-17Z" fill="#4F3719"/><path d="M131 394c2 1 2 1 3.07 3.652l1.055 3.286 1.07 3.277C137 407 137 407 137 409a478.951 478.951 0 0 1-4.25 1.5l-2.39.844C128 412 128 412 124 412c-1.074-11.639-1.074-11.639 1.559-14.977 1.941-1.336 1.941-1.336 5.441-3.023Z" fill="#4F452E"/><path d="M77 352c2.375 1.5 2.375 1.5 4 3-1.64 5.233-3.39 10.152-6 15h-3a338 338 0 0 1-2.563-5.188l-1.44-2.917c-1.109-3.22-1.175-4.724.003-7.895 3.489-2.326 4.897-2.419 9-2Z" fill="#C0C1A1"/><path d="M406 201h18l-1 17c-2.94-2.94-5.436-5.449-7.938-8.625-2.637-3.144-5.218-4.819-9.062-6.375v-2Z" fill="#3F4C25"/><path d="M423 395c7.875 6.75 7.875 6.75 11 11-1.37 3.149-2.875 5.048-5.5 7.25l-1.844 1.578C425 416 425 416 423 416v-21Z" fill="#3E4E26"/><path d="M51.75 353.188C54 354 54 354 55 355c-.345 5.745-1.996 9.251-5 14-2.744-1.041-3.979-1.973-5.813-4.313C43 362 43 362 43 359.438c1.696-4.133 4.161-6.562 8.75-6.25Z" fill="#C0C1A1"/><path d="M87 374c5.672.277 9.463 2.88 14 6-5.59 5.9-5.59 5.9-9 7-2.125-.125-2.125-.125-4-1-2.588-3.365-2.232-6.906-2-11l1-1Z" fill="#BFC0A0"/><path d="m301.25 441.875 3.828.055L308 442c-.91 1.42-1.829 2.836-2.75 4.25-.51.789-1.02 1.578-1.547 2.39C302 451 302 451 298 455l-8-11c4.34-2.17 6.484-2.213 11.25-2.125Z" fill="#3E4E27"/><path d="M368 187c4.75.75 4.75.75 7 3-.217 4.879-1.749 7.434-5 11-5.75-.875-5.75-.875-8-2 .457-5.027 2.992-8.149 6-12Z" fill="#4B5239"/><path d="M323 212c-1.413 4.827-3.43 8.716-6 13l-8-6-2.266-1.574L305 216v-2c2.062-.338 4.124-.67 6.188-1l3.48-.563c2.836-.372 5.48-.523 8.332-.437Z" fill="#485934"/><path d="M200 442a710.49 710.49 0 0 1 6.813-.125l3.832-.07C214 442 214 442 217 444l-10 11c-2.787-1.394-3.265-3.165-4.625-5.938l-1.352-2.714C200 444 200 444 200 442Z" fill="#3F4F27"/><path d="M425 338c4.237 3.39 6.954 5.7 10 10-.202 2.63-.775 3.754-2.559 5.703l-1.878 1.547-1.872 1.578C427 358 427 358 425 358v-20Z" fill="#3B4C23"/><path d="M425 284c5.625 5.625 5.625 5.625 7.813 9.313l1.269 2.113L435 297l-10 10v-23Z" fill="#3C4C24"/><path d="M114 409c3.936 4.948 3.936 4.948 4.125 8.063-1.806 3.11-4.228 4.809-7.125 6.937h-2c-3.429-8.429-3.429-8.429-3-13 5.75-2 5.75-2 8-2Z" fill="#4F452F"/><path d="M389 254c2.786.904 4.72 1.74 6.875 3.75 1.602 3.203 1.146 4.847.125 8.25-1.938 3.375-1.938 3.375-4 6h-2c-1.982-5.698-2.497-10.97-2-17l1-1Z" fill="#B9B999"/><path d="M79 450c-.454 1.897-.913 3.792-1.375 5.688l-.773 3.199c-.771 2.817-1.707 5.43-2.852 8.113-3.329-2.984-5.32-5.846-7-10 1-3 1-3 2.996-4.168l2.442-1.02 2.433-1.042C77 450 77 450 79 450Z" fill="#93955C"/><path d="m293 217 2 14-15-3c10.676-11 10.676-11 13-11Z" fill="#4F5C3B"/><path d="M64 127c1.371 3.69.6 5.709-.938 9.25l-1.152 2.703L61 141c-2.813.25-2.813.25-6 0-1.875-1.875-1.875-1.875-3-4v-2c2.117-1.945 2.117-1.945 4.875-4.125l2.742-2.195C62 127 62 127 64 127Z" fill="#4F4026"/><path d="M271 14c11.25.804 11.25.804 15 3a770.845 770.845 0 0 1-5.313 4l-2.988 2.25C275 25 275 25 272 25l-1-11Z" fill="#4F5C3B"/><path d="M88 310c1 1 1 1 1 6H73c2-5 2-5 3.77-6.215 4.397-1.555 6.983-2.359 11.23.215Z" fill="#C76616"/><path d="M262 443c-1.668 3.941-4.227 6.79-7 10-3.698-1.233-3.935-2.2-5.688-5.563l-1.324-2.503L247 443c5.005-1.383 10.006-1.598 15 0Z" fill="#384920"/><path d="M378 443h16c-6.027 7.098-6.027 7.098-9 10-4.427-1.476-4.914-3.9-7-8v-2Z" fill="#3C4C23"/><path d="M410 90c5.845 1.538 11.127 4.456 16 8v2l-7 4v-2l-5-1v-3c-.866-1.983-.866-1.983-2-4l-2-4Z" fill="#625439"/><path d="M337 187c2.085 3.388 2.43 6.053 2 10-3 2-3 2-5.563 1.875C331 198 331 198 329.688 196.187 329 194 329 194 329 190c2.861-2.861 3.797-3 8-3Z" fill="#4B5239"/><path d="M271 54c3.5.188 3.5.188 7 1 2.152 3.228 2.2 4.284 2 8-3.043 1.522-5.654 1.239-9 1-2.15-3.224-2.383-4.267-2-8l2-2Z" fill="#5C5E2C"/><path d="M337 444h15c-2.71 4.064-4.582 6.826-8 10-4.427-1.476-4.914-3.9-7-8v-2Z" fill="#3B4B22"/><path d="M60 375c6.223 3.532 6.223 3.532 8 6-.089 2.838-.805 3.805-2.813 5.813C63 388 63 388 60.813 387.813 59 387 59 387 58 385c-.353-6.47-.353-6.47 2-10Z" fill="#BDBF9F"/><path d="M446 305.75c3 .25 3 .25 5 2.25.25 3 .25 3 0 6-2 2-2 2-5 2.25-3-.25-3-.25-5-2.25-.25-3-.25-3 0-6 2-2 2-2 5-2.25Z" fill="#718E53"/><path d="M103 451.75c3 .25 3 .25 5 2.25.25 3 .25 3 0 6-2 2-2 2-5 2.313l-3-.313c-2.15-3.224-2.383-4.267-2-8 2-2 2-2 5-2.25Z" fill="#6E8A52"/><path d="m58 451 3 10c-3.769.754-6.567 1.112-10.313 1.063l-2.675-.028L46 462c9.27-11 9.27-11 12-11Z" fill="#93955C"/><path d="M330.875 47.75C334 48 334 48 335.938 49.125 337 51 337 51 336.813 54.125L336 57c-2.709 1.354-5.01 1.065-8 1-1.491-2.982-1.12-5.716-1-9 1-1 1-1 3.875-1.25Z" fill="#5B5C2B"/><path d="m142 423.688 3 .312c2 3 2 3 1.625 6.188L146 433c-3.375.625-3.375.625-7 1-2-2-2-2-2.25-5 .344-4.13 1.136-4.884 5.25-5.313Z" fill="#6E8A52"/><path d="M173 238c3.65 1.318 5.79 2.592 9 5l-3 10c-2 0-2 0-4.125-1.875-2.626-4.376-2.223-8.144-1.875-13.125Z" fill="#4B5239"/><path d="M118.5 431.75c2.5.25 2.5.25 4.5 2.25.25 3 .25 3 0 6-2 2-2 2-5 2.313l-3-.313c-2-3-2-3-1.75-5.563 1.009-3.279 1.776-4.34 5.25-4.687Z" fill="#6E8B52"/><path d="M438.563 427.25C441 428 441 428 443 430c.25 2.5.25 2.5 0 5-2 2-2 2-5 2.25-3-.25-3-.25-5-2.25-.313-3-.313-3 0-6 3-2 3-2 5.563-1.75Z" fill="#718E53"/><path d="M395 305c1.32.565 2.631 1.153 3.938 1.75l2.214.984C403 309 403 309 403.93 310.938c.07 2.062.07 2.062-1.075 3.765l-1.668 1.547-1.644 1.578C398 319 398 319 396 319c-1.382-2.765-1.095-5.046-1.063-8.125l.028-3.32L395 305Z" fill="#B7B898"/><path d="M368 4c6.61.49 11.95 2.334 18 5v3c-11.61 1.071-11.61 1.071-14.977-1.523C368 6.145 368 6.145 368 4Z" fill="#625339"/><path d="m259 257 11 1-6 13c-1.891-2.837-2.692-4.894-3.625-8.125-.26-.89-.52-1.779-.79-2.695C259 258 259 258 259 257Z" fill="#4F5B3B"/><path d="M399 142c5.519 1.338 8.85 5.512 12 10l1 4-14-1 4-4h2c-1.536-3.142-3.057-6.086-5-9Z" fill="#605439"/><path d="M393 188v9c-4 2-4 2-7 2-1.43-2.861-1.387-4.84-1-8 2.85-2.311 4.314-3 8-3Z" fill="#4B5239"/><path d="M231 13c4.128.607 7.332 2.038 11 4-2.518 3.123-3.726 3.945-7.75 4.75L231 22c-1.125-6.75-1.125-6.75 0-9Z" fill="#4F381A"/><path d="M297 11c4.571.549 8.674 1.417 13 3-1.253 2.506-2.335 2.884-4.813 4.125l-2.082 1.07C301 20 301 20 297 20v-9Z" fill="#4F5B3B"/><path d="M439 212c4.556.556 4.556.556 6 2 .188 2.938.188 2.938 0 6l-2 2c-3.297-.33-4.623-.623-7-3 .33-3.297.623-4.623 3-7Z" fill="#708D52"/><path d="m155 279 1 7c-1.412.986-2.83 1.964-4.25 2.938l-2.39 1.652c-2.186 1.306-3.875 1.96-6.36 2.41 1.387-4.268 3.354-6.707 6.563-9.813l2.44-2.394C154 279 154 279 155 279Z" fill="#61533D"/><path d="M316.945 186.805 323 187l-1 7-9 1c-.125-2.875-.125-2.875 0-6 2-2 2-2 3.945-2.195Z" fill="#4C5339"/><path d="M165.5 451.75c2.5.25 2.5.25 4.5 2.25.25 2.5.25 2.5 0 5-2 2-2 2-4.5 2.25C163 461 163 461 161 459c-.25-2.5-.25-2.5 0-5 2-2 2-2 4.5-2.25Z" fill="#6E8A52"/><path d="M446.5 361.75c2.5.25 2.5.25 4.5 2.25.25 2.5.25 2.5 0 5-2 2-2 2-4.5 2.25C444 371 444 371 442 369c-.25-2.5-.25-2.5 0-5 2-2 2-2 4.5-2.25Z" fill="#718E53"/><path d="M395 361c3.914 1.27 5.79 2.512 8 6-2.25 2.5-2.25 2.5-5 5h-4c-.125-7.625-.125-7.625 1-11Z" fill="#B6B697"/><path d="M20.563 314.938 24 315c-.483 5.155-3.186 8.816-6 13-2-2-2-2-2.23-4.348l.043-2.714.019-2.723c.281-3.71.844-3.21 4.73-3.277Z" fill="#4C5339"/><path d="M449 261.875c3 .125 3 .125 4 1.125.188 2.938.188 2.938 0 6l-2 2c-3.297-.33-4.623-.623-7-3 .725-5.947.725-5.947 5-6.125Z" fill="#708E53"/><path d="M429 240c3.948 2.457 6.154 4.205 9 8l-9 6v-14Z" fill="#1D3308"/><path d="m269 236 3.375 1.813 1.898 1.019C276 240 276 240 278 243a804.91 804.91 0 0 1-4.375 2.5l-2.46 1.406C269 248 269 248 267 248l2-12Z" fill="#4F5B3B"/><path d="M158.5 436.75c2.5.25 2.5.25 4.5 2.25.313 2.5.313 2.5 0 5-3 2-3 2-5.625 1.688C155 445 155 445 154 444c-.188-2.438-.188-2.438 0-5 2-2 2-2 4.5-2.25Z" fill="#6E8A52"/><path d="M372 428c-1.45 4.108-3.398 7.503-6 11h-2l-3-9c3.83-1.802 6.781-2.196 11-2Z" fill="#B6B797"/><path d="M34 378c2.375.313 2.375.313 5 1 2.148 3.222 2.294 4.278 2 8-1 1-1 1-3.438 1.25L35 388c-2.567-3.85-1.833-5.586-1-10Z" fill="#BDBF9F"/><path d="m185 203 5 5-5 6c-2.622-1.049-3.794-1.65-5.25-4.125L179 208l6-5Z" fill="#4B5139"/><path d="M199 193c1.503 2.387 2.014 3.71 1.875 6.563-1.051 2.927-2.262 3.836-4.875 5.437-2.294-3.44-3-4.723-3-9 3.214-3 3.214-3 6-3Z" fill="#4B5239"/><path d="M189 379h2l4 13c-6.75-2.25-6.75-2.25-10-5l4-8ZM176 369c2.4 2.88 4.473 5.564 6 9-3.62 1.316-6.096 2-10 2 .607-4.128 2.038-7.332 4-11Z" fill="#706246"/><path d="M357.563 235.813C360 236 360 236 361 237a176.79 176.79 0 0 1-1 7l-6-1c-.625-2.375-.625-2.375-1-5 2-2 2-2 4.563-2.188Z" fill="#20360B"/><path d="M348 110h4c1.354 2.709 1.065 5.01 1 8-2.375.625-2.375.625-5 1-2-2-2-2-2.25-4.5.25-2.5.25-2.5 2.25-4.5Z" fill="#5C5E2D"/><path d="M322 9c1.438.115 2.876.242 4.313.375l2.425.21C331 10 331 10 334 12c-8.429 3.286-8.429 3.286-13 4l1-7Z" fill="#4F5C3B"/><path d="m381.625 10.938 2.477.027L386 11c-1.27 3.914-2.512 5.79-6 8l-5-7c2.405-1.203 3.95-1.1 6.625-1.063Z" fill="#504228"/><path d="M392 402c3.161 1.37 3.993 1.99 6 5-.375 2.188-.375 2.188-1 4l-7-1c.875-5.75.875-5.75 2-8Z" fill="#B8B898"/><path d="M232 163c3.487 1.11 6.775 2.263 10 4-1.137 3.412-2.043 4.119-5 6h-2l-3-10Z" fill="#86733A"/><path d="M350.5 261.875C353 262 353 262 354 263c.125 2.5.125 2.5 0 5-1 1-1 1-3.438 1.188C348 269 348 269 346 267c.748-4.937.748-4.937 4.5-5.125Z" fill="#1E3409"/><path d="M308.188 100.313 310 101c.043 2 .04 4 0 6-1 1-1 1-3.563 1.063L304 108c-.688-2.313-.688-2.313-1-5 1.582-2.497 2.212-3.113 5.188-2.688Z" fill="#5C5E2D"/><path d="M230 429h10c-1.782 3.563-3.168 5.356-6 8-4-5.75-4-5.75-4-8Z" fill="#B8B899"/><path d="M161 365c2.468 1.152 4.048 2.048 6 4v3l-9 1c1.875-5.75 1.875-5.75 3-8Z" fill="#706246"/><path d="M219 186c5.415-.37 5.415-.37 8.375 1.5L229 189c-5.75 5-5.75 5-8 5l-2-8Z" fill="#86733A"/><path d="M218 203h2c1.257 2.906 2 4.796 2 8l-9-1c3.875-5.875 3.875-5.875 5-7Z" fill="#86743A"/><path d="M319 430h9l-.938 2.313A110.556 110.556 0 0 0 325 438c-3.754-1.251-4.24-2.565-6-6v-2Z" fill="#B8B899"/><path d="M242 149c5.75 1.875 5.75 1.875 8 3-1.137 3.412-2.043 4.119-5 6h-2l-1-9Z" fill="#86743A"/><path d="M306 456c2.063.438 2.063.438 4 1l1 5c-4.75 1.125-4.75 1.125-7 0 .875-4.875.875-4.875 2-6Z" fill="#6F8C52"/><path d="m422 203-2 8-5-1-1-5c2.906-1.257 4.796-2 8-2Z" fill="#23370D"/><path d="m231 200 7 2v3c-3.333 3-3.333 3-6 3-1.354-2.709-1.065-5.01-1-8Z" fill="#867339"/><path d="M390 456c2.063.438 2.063.438 4 1l1 5c-2.375.625-2.375.625-5 1l-2-2c.536-3.536.536-3.536 2-5Z" fill="#708C52"/><path d="M334 225c2.063.438 2.063.438 4 1l1 5c-2.375.625-2.375.625-5 1l-2-2c.536-3.536.536-3.536 2-5Z" fill="#20360B"/><path d="m277 429-5 8c-4-4.75-4-4.75-4-7 3.196-1.065 5.657-1.074 9-1Z" fill="#B6B697"/><path d="M187 429h10c-1.074 2.915-1.778 4.778-4 7l-6-7Z" fill="#B8B899"/><path d="M272 277c2.565 2.565 2.54 4.477 3 8l-9-2c3.75-4.875 3.75-4.875 6-6Z" fill="#505D3B"/><path d="M324 145c1.675.286 3.344.618 5 1 .625 1.875.625 1.875 1 4l-2 2c-2.125-.375-2.125-.375-4-1a88.406 88.406 0 0 1-1-5l1-1Z" fill="#5C5F2E"/><path d="m372 68 3 1c1.188 2.563 1.188 2.563 2 5h-9c2-4 2-4 4-6Z" fill="#657F4A"/><path d="M284 285c4 2 4 2 6 5a90.488 90.488 0 0 1-4 4h-2v-9Z" fill="#515E3C"/><path d="M368 30v7l-9-4c3.268-2.179 5.08-3 9-3Z" fill="#627C48"/><path d="M344 8h2v2l6 1c-3.285 2.19-6.207 2.998-10 4 .875-5.875.875-5.875 2-7Z" fill="#505C3B"/><path d="m254 190 2 7-7-1c0-3 0-3 1.375-4.688C252 190 252 190 254 190Z" fill="#86743A"/><path d="m225 455-1 5-4-1-1-4c2.49-1.245 3.41-.777 6 0Z" fill="#6F8B52"/><path d="M194 454c2.063.438 2.063.438 4 1l-1 5-4-1c0-4 0-4 1-5Z" fill="#708C52"/><path d="M295 443h8l-4 6a90.488 90.488 0 0 1-4-4v-2Z" fill="#1D3308"/><path d="m249 176 1 7-7-3c3.75-4 3.75-4 6-4Z" fill="#86733A"/><path d="M205 443h8l-5 6c-3-3.75-3-3.75-3-6Z" fill="#1D3308"/><path d="M236 186h2c3 4.385 3 4.385 3 7h-6l1-7Z" fill="#87743A"/><path d="m374 459 5 1-1 4-5-1 1-4Z" fill="#708D53"/><path d="m333 458 5 1-1 4-5-1 1-4Z" fill="#708D52"/><path d="M381 443h7c-2.75 4.875-2.75 4.875-5 6l-2-6ZM424 403l5 5-5 4v-9Z" fill="#1D3308"/><path d="M392 130v6c-2.169-.506-4-1-6-2v-2c3.75-2 3.75-2 6-2Z" fill="#647D49"/><path d="M388 118c5.75.75 5.75.75 8 3-1.375 1.5-1.375 1.5-3 3h-2l-3-6Z" fill="#627C48"/><path d="M349 458h5l-1 5-4-1v-4Z" fill="#718E53"/><path d="m425 345 3 1v2l2 1-5 4v-8ZM425 294l5 3-5 5v-8Z" fill="#1D3308"/><path d="M367 48v6l-6-2c3.826-4 3.826-4 6-4Z" fill="#627C47"/><path d="m399 108 5 2v2l-5 2v-6Z" fill="#657F4A"/><path d="M340 444h7l-3 4-3-1-1-3Z" fill="#1D3308"/><path d="M338 141v3l-5 1-1-3 6-1Z" fill="#616836"/><path d="m313 215 4 1v3l-5-1 1-3Z" fill="#21360C"/><path d="m347 155 6 3c-3 2-3 2-6 2v-5Z" fill="#647D49"/></svg>