<svg xmlns="http://www.w3.org/2000/svg" width="467" height="462"><path d="M171 0c52.858-.78 102.6 4.702 150.174 29.21 4.344 2.188 8.671 3.833 13.326 5.29 7.61 2.39 14.474 5.73 21.514 9.456 1.958 1.03 3.93 2.028 5.908 3.02 17.91 9.097 37.253 23.26 46.437 41.762.878 4.47-.801 6.855-3.144 10.496l-1.25 2.055a550.311 550.311 0 0 1-4.027 6.461 1783.91 1783.91 0 0 0-3.952 6.418 459.905 459.905 0 0 1-2.471 3.974c-1.205 1.934-2.359 3.894-3.515 5.858l-1.385 2.133c-4.56 7.736-4.31 15.539-4.209 24.242.002 1.576.002 3.152 0 4.728.002 3.288.02 6.576.052 9.864.04 4.19.044 8.377.037 12.567-.004 3.25.009 6.5.026 9.75.007 1.543.01 3.087.009 4.63-.162 14.412-.162 14.412 5.845 27.086 4.463 3.4 8.24 4.25 13.8 4.414l3.507.117 3.63.094 3.69.117c3 .094 5.998.18 8.998.258.95 60.533-11.484 116.184-54.563 160.813-4.535 4.38-9.516 8.253-14.437 12.187l-2.566 2.164-2.372 1.961-2.09 1.758C346 404 346 404 343.907 403.805c-2.687-1.135-4.661-2.963-6.906-4.805l-3-1-1.652-1.664c-3.337-3.32-7.106-5.95-10.91-8.711l-5.145-3.762-2.659-1.939c-4.138-3.023-8.26-6.068-12.384-9.111a3577.313 3577.313 0 0 0-13.46-9.891c-5.839-4.264-11.643-8.552-17.325-13.024-3.43-2.642-6.914-5.209-10.402-7.773l-2.012-1.482c-3.398-2.525-3.398-2.525-7.051-4.643v-2h-6l1 65h-26c-5.817 1.003-5.817 1.003-11.559 2.344C206 402 206 402 203 402l-1 2-3.375 1.125c-10.195 3.647-19.966 12.305-26.188 21.078C171 428 171 428 168 429a77.297 77.297 0 0 1-4.438.208l-2.753.06-3.013.052c-1.049.02-2.098.042-3.179.064-9.677.182-19.354.289-29.033.372-6.501.056-13 .138-19.5.28-6.287.136-12.571.209-18.86.236-2.392.022-4.785.066-7.178.133-18.268.49-18.268.49-22.962-2.712C53.552 424.159 50 419.159 50 414h-2l-1-3 1.9.036c6.572.114 13.14.15 19.713.141 2.447.007 4.894.033 7.34.08 15.284 1 15.284 1 28.558-5.08 2.02-2.256 3.737-4.71 5.489-7.177a105.997 105.997 0 0 1 5-4 279.297 279.297 0 0 0 5-5c9.456-9.629 9.456-9.629 14-13 4.184 1.639 6.984 4.713 10.078 7.848l1.732 1.733c1.202 1.205 2.402 2.413 3.6 3.623a1565.07 1565.07 0 0 0 5.543 5.564l3.5 3.517 1.685 1.689C164 404.884 164 404.884 164 406h-41c6-7 6-7 9-10a56.54 56.54 0 0 1 7 4c.436-4.101.436-4.101-2.375-6.75-2.302-2.467-2.302-2.467-4.625-2.25l-2 2c-1.056.925-2.119 1.84-3.188 2.75l-1.859 1.586L123 399l-3.938 3.375L116 405l2 3c2.092.475 2.092.475 4.542.432l2.85.06 3.085.02 3.152.054c3.332.054 6.664.088 9.996.122 2.255.033 4.51.067 6.766.103 5.536.085 11.072.153 16.609.209v-2l2-2-31-31c-8.497 4.248-14.996 11.944-21.613 18.645-2.73 2.694-5.57 5.214-8.5 7.687-2.04 1.683-2.04 1.683-3.777 4.255-4.713 3.657-8.967 2.936-14.755 2.683l-3.408-.09c-3.588-.098-7.173-.232-10.76-.368-2.434-.073-4.868-.144-7.302-.212-5.963-.173-11.924-.376-17.885-.6-.014-1.602-.024-3.204-.032-4.806-.01-1.338-.01-1.338-.018-2.704.096-4.77 1.523-9.01 3.05-13.49l.703-2.332c1.275-3.369 2.412-5.16 5.578-6.977 5.917-2.32 12.009-3.423 18.285-4.296C78 371.125 78 371.125 80 370l-2.703-.125c-4.25-1.128-5.732-3.374-8.047-6.875-2.556-4.101-2.556-4.101-6.25-7a101.168 101.168 0 0 1-2-6h-2l-2-5c3.6 1.32 6.876 2.994 10.217 4.87 6.75 3.778 13.13 6.603 20.783 8.13.983-1.602 1.961-3.207 2.938-4.813l1.652-2.707c1.52-2.487 1.52-2.487 2.41-5.48h2l.625-2.438c2.535-6.568 6.42-11.606 11.375-16.562l4 19 7-4h2v5c4.717-3.43 8.261-7.576 12-12 1.082-1.272 2.166-2.543 3.25-3.813l1.39-1.644C140 327 140 327 141.61 325.488c1.642-1.551 1.642-1.551 2.39-4.488a749.839 749.839 0 0 1 5-5c8.521-11.165 16.153-23.483 22.027-36.242C172 278 172 278 174 277l.387-1.973c.89-4.393 2.705-8.338 4.425-12.464 2.92-7.133 5.438-14.159 7.399-21.618.811-3.029 1.771-5.98 2.789-8.945h2c6.526 11.608 9.342 23.87 11 37 17.267-16.75 17.267-16.75 30-37h2c.651 2.978 1.296 5.957 1.938 8.938l.552 2.517c1.65 7.706 2.663 15.212 2.572 23.107l-.027 3.13L239 272c10.448-5.869 19.2-12.911 27.51-21.495A226.512 226.512 0 0 1 270 247h1c.672 13.163-1.784 23.522-6 36 2.23-1.582 4.46-3.165 6.688-4.75l1.896-1.344c3.56-2.535 7.031-5.136 10.416-7.906.027 2.042.047 4.083.063 6.125l.035 3.445c-.093 3.243-.484 6.25-1.098 9.43 12.796-6.81 24.75-13.564 35-24l1.668-1.492c17.58-15.999 28.861-45 30.535-68.34.377-23.948-7.515-47.941-23.203-66.168-9.135-8.163-25.497-7.608-37-7-6.018.504-12.01 1.24-18 2 2.628-4.21 5.25-7.435 9-10.75l2.563-2.297c2.108-1.69 3.973-2.88 6.437-3.953-3.371-1.498-5.204-2-9-2v-2l-18-1-1 2a266.875 266.875 0 0 1-6 2c-2.1 1.008-4.184 2.05-6.25 3.125C244.22 111 244.22 111 242 111l-1 2a135.655 135.655 0 0 1-5.063 2.813C221.441 124.102 208.69 136.173 197 148c-1.255-3.766-.37-5.372 1-9h2v-4h2l.734-2.598c1.397-3.755 3.207-6.569 5.516-9.84l1.207-1.713A128.368 128.368 0 0 1 219 109c-7.83 2.686-15.42 5.49-22.89 9.082C194 119 194 119 192 119l-1 2-1.438 1.407c-1.596 1.627-2.504 3.07-3.55 5.085l-1.12 2.105-1.204 2.278C174.976 147.909 164.645 162.96 153 177l-2.164 2.629c-3.402 4.025-3.402 4.025-4.836 5.371h-2a282.815 282.815 0 0 1 4.023-9.66c7.66-15.619 7.66-15.619 10.977-32.34h2l-1-2c-6.614 6.028-12.229 12.303-17.375 19.625l-1.476 2.095c-3.383 4.92-6.333 10.017-9.149 15.28h-1c-.194-2.145-.38-4.291-.563-6.438l-.316-3.62L130 165l1-1c.368-2.328.702-4.662 1-7-11.312 9.05-19.89 20.109-28 32l-2-1c3.028-12.447 7.18-23.59 13-35-11.012 5.656-22.218 13.218-31 22l-1-4-1.793 2.047-2.394 2.703-2.356 2.672c-6.118 6.42-6.118 6.42-10.465 6.933l-3.117-.167c-4.514-.22-4.514-.22-8.875.812-3.067.068-6.12-.002-9.188-.063-2.894-.074-2.894-.074-5.812 1.063-1.92.083-3.84.107-5.762.098l-3.388-.01-3.538-.025-3.572-.014c-2.913-.012-5.827-.028-8.74-.049 2.93-1.953 5.48-3.025 8.77-4.242l3.443-1.293c2.387-.889 4.775-1.774 7.164-2.656 5.668-2.134 10.812-4.1 15.623-7.809l2.563-1.938c2.477-2.038 2.477-2.038 4.75-4.375C59 162 59 162 60.987 160.441 66.47 156.102 68.332 152.693 70 146c2.515-8.668 6.055-16.452 10.195-24.434 1.79-3.399 1.79-3.399 2.918-6.402 1.11-2.71 2.766-4.18 4.887-6.164l1-2c-15.508 5.796-29.268 13.32-42 24l-2-2c7.916-15.018 7.916-15.018 12-20h2v-2c1.5-1.625 1.5-1.625 3-3a1057.983 1057.983 0 0 0-9.64 7.41 132.465 132.465 0 0 1-5.782 4.274c-2.163 1.482-2.163 1.482-4.578 4.316-.258 2.333-.127 4.475.05 6.813-.058 2.529-.52 3.646-1.987 5.687-3.883 3.17-7.107 3.735-12.063 3.5l-1-1a1805.902 1805.902 0 0 0-5.5 7.375l-1.59 2.117-1.504 2.031-1.396 1.873c-1.188 1.57-1.188 1.57-1.01 3.604l3.813-.25c3.884.02 3.884.02 6.25 1.813 1.357 3.528.922 5.825-.063 9.437-1.688 2-1.688 2-4 3-3.154-.129-5.2-.448-7.813-2.25C13 162 13 162 12 157l-5 15H6c-1.965-10.664-1.05-21.066.25-31.75l.331-2.902c.99-7.542 2.494-15.044 7.653-20.871l2.516-1.852 2.906-2.195 1.602-1.161a342.589 342.589 0 0 0 5.773-4.324 1119.45 1119.45 0 0 1 8.172-6.148l1.897-1.412c1.3-.948 2.615-1.875 3.941-2.785 1.684-1.156 3.326-2.373 4.959-3.6v-2h2l.75-2.625C51.286 81.527 55.41 77.428 61 73c-1.605.141-3.209.288-4.813.438l-2.707.246c-2.607.25-2.607.25-5.48 1.316a93.694 93.694 0 0 1-4 .563l-2.063.253C40 76 40 76 37 76v-2a86.7 86.7 0 0 1 5.75-4.375l1.852-1.311C55.299 60.879 66.68 54.43 78 48c-9.13-.154-18.148.323-27.25 1l-4.027.29c-3.242.232-6.482.47-9.723.71v-2c16.019-7.479 32.585-12.131 50-15-4.36-.025-8.72-.043-13.08-.055-1.483-.005-2.966-.012-4.45-.02-2.131-.013-4.263-.018-6.396-.023l-3.888-.016C55.977 32.851 55.977 32.851 53 34l-1-3c18.564-10.545 39.006-14.388 60-17l2.886-.36C147.17 9.897 180.596 11.37 213 13c-8.174-3.69-16.196-6.29-24.938-8.25l-3.322-.773C180.172 2.919 175.602 1.903 171 1V0Z" fill="#8697A1"/><path d="M171 0c55.78-.823 105.948 6.36 156 32-3.532 1.2-6.062.773-9.688.063C297.86 28.91 280.457 31.892 263 41l1.826.272C293.242 45.602 318.494 53.441 337 77c8.566 12.071 14.167 25.479 17 40l.621 3.023c4.008 23.714 2.55 50.484-2.621 73.977h-1l-.196-1.842c-2.566-23.385-7.16-49.322-25.745-65.888-14.915-9.198-36.67-5.351-53.059-3.27 2.628-4.21 5.25-7.435 9-10.75l2.563-2.297c2.108-1.69 3.973-2.88 6.437-3.953-3.371-1.498-5.204-2-9-2v-2l-18-1-1 2a266.875 266.875 0 0 1-6 2c-2.1 1.008-4.184 2.05-6.25 3.125C244.22 111 244.22 111 242 111l-1 2a135.655 135.655 0 0 1-5.063 2.813C221.441 124.102 208.69 136.173 197 148c-1.255-3.766-.37-5.372 1-9h2v-4h2l.734-2.598c1.397-3.755 3.207-6.569 5.516-9.84l1.207-1.713A128.368 128.368 0 0 1 219 109c-7.83 2.686-15.42 5.49-22.89 9.082C194 119 194 119 192 119l-1 2-1.438 1.407c-1.596 1.627-2.504 3.07-3.55 5.085l-1.12 2.105-1.204 2.278C174.976 147.909 164.645 162.96 153 177l-2.164 2.629c-3.402 4.025-3.402 4.025-4.836 5.371h-2a282.815 282.815 0 0 1 4.023-9.66c7.66-15.619 7.66-15.619 10.977-32.34h2l-1-2c-6.614 6.028-12.229 12.303-17.375 19.625l-1.476 2.095c-3.383 4.92-6.333 10.017-9.149 15.28h-1c-.194-2.145-.38-4.291-.563-6.438l-.316-3.62L130 165l1-1c.368-2.328.702-4.662 1-7-11.312 9.05-19.89 20.109-28 32l-2-1c3.028-12.447 7.18-23.59 13-35-11.012 5.656-22.218 13.218-31 22l-1-4-1.793 2.047-2.394 2.703-2.356 2.672c-6.118 6.42-6.118 6.42-10.465 6.933l-3.117-.167c-4.514-.22-4.514-.22-8.875.812-3.067.068-6.12-.002-9.188-.063-2.894-.074-2.894-.074-5.812 1.063-1.92.083-3.84.107-5.762.098l-3.388-.01-3.538-.025-3.572-.014c-2.913-.012-5.827-.028-8.74-.049 2.93-1.953 5.48-3.025 8.77-4.242l3.443-1.293c2.387-.889 4.775-1.774 7.164-2.656 5.668-2.134 10.812-4.1 15.623-7.809l2.563-1.938c2.477-2.038 2.477-2.038 4.75-4.375C59 162 59 162 60.987 160.441 66.47 156.102 68.332 152.693 70 146c2.515-8.668 6.055-16.452 10.195-24.434 1.79-3.399 1.79-3.399 2.918-6.402 1.11-2.71 2.766-4.18 4.887-6.164l1-2c-15.508 5.796-29.268 13.32-42 24l-2-2c7.916-15.018 7.916-15.018 12-20h2v-2c1.5-1.625 1.5-1.625 3-3a1057.983 1057.983 0 0 0-9.64 7.41 132.465 132.465 0 0 1-5.782 4.274c-2.163 1.482-2.163 1.482-4.578 4.316-.258 2.333-.127 4.475.05 6.813-.058 2.529-.52 3.646-1.987 5.687-3.883 3.17-7.107 3.735-12.063 3.5l-1-1a1805.902 1805.902 0 0 0-5.5 7.375l-1.59 2.117-1.504 2.031-1.396 1.873c-1.188 1.57-1.188 1.57-1.01 3.604l3.813-.25c3.884.02 3.884.02 6.25 1.813 1.357 3.528.922 5.825-.063 9.437-1.688 2-1.688 2-4 3-3.154-.129-5.2-.448-7.813-2.25C13 162 13 162 12 157l-5 15H6c-1.965-10.664-1.05-21.066.25-31.75l.331-2.902c.99-7.542 2.494-15.044 7.653-20.871l2.516-1.852 2.906-2.195 1.602-1.161a342.589 342.589 0 0 0 5.773-4.324 1119.45 1119.45 0 0 1 8.172-6.148l1.897-1.412c1.3-.948 2.615-1.875 3.941-2.785 1.684-1.156 3.326-2.373 4.959-3.6v-2h2l.75-2.625C51.286 81.527 55.41 77.428 61 73c-1.605.141-3.209.288-4.813.438l-2.707.246c-2.607.25-2.607.25-5.48 1.316a93.694 93.694 0 0 1-4 .563l-2.063.253C40 76 40 76 37 76v-2a86.7 86.7 0 0 1 5.75-4.375l1.852-1.311C55.299 60.879 66.68 54.43 78 48c-9.13-.154-18.148.323-27.25 1l-4.027.29c-3.242.232-6.482.47-9.723.71v-2c16.019-7.479 32.585-12.131 50-15-4.36-.025-8.72-.043-13.08-.055-1.483-.005-2.966-.012-4.45-.02-2.131-.013-4.263-.018-6.396-.023l-3.888-.016C55.977 32.851 55.977 32.851 53 34l-1-3c18.564-10.545 39.006-14.388 60-17l2.886-.36C147.17 9.897 180.596 11.37 213 13c-8.174-3.69-16.196-6.29-24.938-8.25l-3.322-.773C180.172 2.919 175.602 1.903 171 1V0Z" fill="#D6D5D8"/><path d="M423 225h1c.989 60.136-11.822 115.534-54.563 159.813-4.535 4.38-9.516 8.253-14.437 12.187l-2.566 2.164-2.372 1.961-2.09 1.758C346 404 346 404 343.907 403.805c-2.687-1.135-4.661-2.963-6.906-4.805l-3-1-1.652-1.664c-3.337-3.32-7.106-5.95-10.91-8.711l-5.145-3.762-2.659-1.939c-4.138-3.023-8.26-6.068-12.384-9.111a3577.313 3577.313 0 0 0-13.46-9.891c-5.839-4.264-11.643-8.552-17.325-13.024-3.43-2.642-6.914-5.209-10.402-7.773l-2.012-1.482c-3.398-2.525-3.398-2.525-7.051-4.643v-2l3.354-.044C302.2 333.275 341.394 326.39 377 292l2.77-2.578c12.433-11.882 21.567-26.01 30.184-40.797C411 247 411 247 413 245l1 1 9-21Z" fill="#A9B8C1"/><path d="M189 232h2c6.526 11.608 9.342 23.87 11 37 17.267-16.75 17.267-16.75 30-37h2c.651 2.978 1.296 5.957 1.938 8.938l.552 2.517c1.65 7.706 2.663 15.212 2.572 23.107l-.027 3.13L239 272c10.448-5.869 19.2-12.911 27.51-21.495A226.512 226.512 0 0 1 270 247h1c.672 13.163-1.784 23.522-6 36 2.23-1.582 4.46-3.165 6.688-4.75l1.896-1.344c3.56-2.535 7.031-5.136 10.416-7.906.396 9.485.655 18.987-6.14 26.453-5.154 4.288-11.507 8.43-17.86 10.547l.781-5.957c.272-2.198.272-2.198.219-5.043l-1.981 2.076c-2.485 2.596-4.991 5.17-7.504 7.738a438.119 438.119 0 0 0-3.205 3.329c-9.513 9.971-19.857 17.87-33.31 21.857h-4c1.472-9.141 3.685-18.045 6-27l-1.879 2.063a1818.82 1818.82 0 0 1-5.723 6.234 691.422 691.422 0 0 0-7.046 7.781C193.32 329.082 184.354 338.185 171 342h-4c.431-8.965 2.699-17.374 5-26l-2.273 2.676C143.457 349.512 143.457 349.512 131 352c-3.685.223-7.315.19-11 0 .63-4.423 1.683-5.83 5.258-8.559 3.322-2.748 5.972-6.153 8.742-9.441a2679.91 2679.91 0 0 1 3.25-3.813l1.39-1.644C140 327 140 327 141.61 325.488c1.642-1.551 1.642-1.551 2.39-4.488a749.839 749.839 0 0 1 5-5c8.521-11.165 16.153-23.483 22.027-36.242C172 278 172 278 174 277l.387-1.973c.89-4.393 2.705-8.338 4.425-12.464 2.92-7.133 5.438-14.159 7.399-21.618.811-3.029 1.771-5.98 2.789-8.945Z" fill="#D6D6D9"/><path d="M251 339c2.811 1.406 4.92 2.563 7.363 4.398l1.914 1.434 2.036 1.543 2.142 1.615c5.353 4.057 10.608 8.224 15.834 12.442 5.318 4.282 10.728 8.436 16.162 12.57a1571.303 1571.303 0 0 1 15.611 12.06c8.23 6.424 16.561 12.707 24.938 18.938-1.381 3.294-2.76 4.83-5.742 6.767l-2.35 1.546-2.568 1.648-2.683 1.755c-2.9 1.895-5.81 3.777-8.72 5.659-4.018 2.614-8.034 5.233-12.05 7.852l-3.052 1.985a1024.051 1024.051 0 0 0-18.815 12.561l-4.522 3.077a785.174 785.174 0 0 0-6.3 4.327 615.707 615.707 0 0 1-5.745 3.932l-3.214 2.218c-6.716 3.469-14.397 2.822-21.794 2.806l-2.978.003c-2.062 0-4.124-.001-6.187-.006-3.166-.005-6.332 0-9.499.007-2.008 0-4.015-.002-6.023-.004l-2.876.006-2.651-.01-2.336-.002C205 460 205 460 203 459v3h-27v-2c-10.252-.22-20.222.083-30.41 1.284-5.571.648-10.976.9-16.59.716 6.589-9.883 20.279-16.951 31.624-19.415 2.764-.54 5.533-1.038 8.31-1.508 2.308-.395 4.61-.819 6.912-1.25a1402.973 1402.973 0 0 1 19.632-3.54c27.42-4.752 50.539-13.582 74.751-27.294 12.888-6.982 29.573-4.65 43.771-3.993-1.783-3.174-3.433-5.672-6.223-8.016l-1.866-1.588c-.651-.544-1.302-1.087-1.974-1.646a4483.219 4483.219 0 0 1-4.082-3.469l-2.006-1.699c-2.41-2.063-4.758-4.19-7.099-6.332-4.268-3.876-8.7-7.514-13.207-11.11C275 369 275 369 272.301 366.235c-2.006-2.466-2.006-2.466-4.301-2.234-.074 3.933-.129 7.865-.165 11.798-.022 1.995-.06 3.99-.099 5.985l-.029 3.799-.048 3.507c.112 2.878.112 2.878 1.595 4.78 2.123 1.375 3.457 1.553 5.976 1.643l2.432.107 2.526.068 2.56.104c2.084.082 4.168.147 6.252.209l-1-3 1-2h-17v-22c4.642 3.979 9.073 7.924 13.371 12.238l1.719 1.716c1.183 1.183 2.365 2.367 3.546 3.552 1.818 1.823 3.64 3.64 5.464 5.457l3.459 3.463 1.656 1.65C305 400.885 305 400.885 305 402h-54v-63ZM410 92c4.054 3.897 7.606 8.055 11.125 12.438l1.72 2.13a1575.675 1575.675 0 0 1 14.812 18.714c2.275 2.91 4.56 5.814 6.843 8.718l2.73 3.477c1.896 2.413 3.795 4.824 5.696 7.234l1.465 1.86c.909 1.154 1.82 2.307 2.73 3.46.827 1.05 1.648 2.107 2.46 3.168.953 1.21 1.942 2.39 2.962 3.543 4.425 5.25 5.31 9.03 5.138 15.795l.003 2.782c-.004 3.01-.05 6.016-.098 9.025-.011 2.096-.02 4.192-.026 6.288-.023 5.498-.081 10.995-.148 16.492-.062 5.617-.089 11.235-.119 16.853A5841.187 5841.187 0 0 1 467 257c-6.372-8.38-9.975-18.31-12.862-28.357-3.76-13.03-8.406-25.691-13.138-38.393l-2.367-6.402A6415.31 6415.31 0 0 0 426 150l.427 2.19c1.36 7.457 1.88 14.61 1.874 22.181l.013 3.41c.005 2.356.006 4.711.002 7.066-.004 3.606.02 7.21.045 10.815.003 2.299.003 4.598.002 6.897l.028 3.254c-.058 9.363-.058 9.363-3.391 13.187-4.847 3.231-10.178 2.328-15.875 2.313l-3.59.048-3.465.002-3.163.01c-3.346-.43-5.2-1.39-7.907-3.373-3.487-4.981-4.177-9.268-4.336-15.212l-.068-2.22c-.2-6.822-.313-13.647-.404-20.472a668.026 668.026 0 0 0-.303-13.698c-.733-22.159-.675-38.772 13.378-57.077 2.681-3.592 4.877-7.44 7.108-11.321.713-1.19 1.429-2.377 2.148-3.563L410 92Zm5.326 35.61c-14.27 15.691-16.928 29.456-16.514 50.39l.066 3.386c.127 5.104.318 10.205.625 15.302l.142 2.386c.21 2.159.21 2.159 2.355 3.926 3.058.32 3.058.32 6.5.25l3.531.016c3.087.043 3.087.043 4.969-2.266.175-2.437.232-4.76.195-7.195l-.008-2.144c-.011-2.262-.037-4.524-.062-6.786-.01-1.533-.02-3.065-.027-4.598-.022-3.759-.057-7.518-.098-11.277h-2l-1 29-8-1c-1.735-5.204-1.186-10.791-1.185-16.239-.002-2.16-.02-4.318-.04-6.478-.099-23.931-.099-23.931 6.225-32.283 2.794-1.79 4.34-2 7.625-2 2.375 1 2.375 1 4.188 4.063L424 147c1.147-3.44.871-4.003-.434-7.23l-.966-2.432-1.038-2.525-1.025-2.561A855.456 855.456 0 0 0 418 126c-1.267-.115-1.267-.115-2.674 1.61Z" fill="#8698A2"/><path d="M225 374c4.932 4.11 9.49 8.377 13.875 13.063l1.758 1.814 1.672 1.783 1.5 1.582c1.493 2.196 1.818 4.153 2.195 6.758l-2.165-.048c-17.861-.498-17.861-.498-35.394 2.392C206 402 206 402 203 402l-1 2-3.375 1.125c-10.195 3.647-19.966 12.305-26.188 21.078C171 428 171 428 168 429a77.297 77.297 0 0 1-4.438.208l-2.753.06-3.013.052c-1.049.02-2.098.042-3.179.064-9.677.182-19.354.289-29.033.372-6.501.056-13 .138-19.5.28-6.287.136-12.571.209-18.86.236-2.392.022-4.785.066-7.178.133-18.268.49-18.268.49-22.962-2.712C53.552 424.159 50 419.159 50 414h-2l-1-3 1.9.036c6.572.114 13.14.15 19.713.141 2.447.007 4.894.033 7.34.08 15.284 1 15.284 1 28.558-5.08 2.02-2.256 3.737-4.71 5.489-7.177a105.997 105.997 0 0 1 5-4 279.297 279.297 0 0 0 5-5c9.456-9.629 9.456-9.629 14-13 4.184 1.639 6.984 4.713 10.078 7.848l1.732 1.733c1.202 1.205 2.402 2.413 3.6 3.623a1565.07 1565.07 0 0 0 5.543 5.564l3.5 3.517 1.685 1.689C164 404.884 164 404.884 164 406h-41c6-7 6-7 9-10a56.54 56.54 0 0 1 7 4c.436-4.101.436-4.101-2.375-6.75-2.302-2.467-2.302-2.467-4.625-2.25l-2 2c-1.056.925-2.119 1.84-3.188 2.75l-1.859 1.586L123 399l-3.938 3.375L116 405l2 3c2.092.475 2.092.475 4.542.432l2.85.06 3.085.02 3.152.054c3.332.054 6.664.088 9.996.122 2.255.033 4.51.067 6.766.103 5.536.085 11.072.153 16.609.209v-2a242.72 242.72 0 0 1 4.168-2.715c3.587-2.516 6.628-5.682 9.77-8.723 4.792-4.637 9.532-8.82 15.062-12.562l2.703 1.82c1.182.77 2.364 1.538 3.547 2.305l1.777 1.207c3.253 2.18 3.253 2.18 7.012 2.316 2.959-2.487 5.516-5.266 8.086-8.148l3.195-3.531L223 376l2-2Z" fill="#B4AE98"/><path d="M136 63c-2.494 1.663-4.587 2.75-7.324 3.883l-2.593 1.086-2.77 1.156C114.005 73.069 104.944 77.296 96 82l-2.126 1.095c-15.849 8.2-30.104 18.56-43.694 30.096C48 115 48 115 46.008 116.34c-1.931 1.23-1.931 1.23-4.008 3.66-.198 2.3-.06 4.476.086 6.777-.098 2.532-.555 3.678-2.023 5.723-3.883 3.17-7.107 3.735-12.063 3.5l-1-1a1805.902 1805.902 0 0 0-5.5 7.375l-1.59 2.117-1.504 2.031-1.396 1.873c-1.188 1.57-1.188 1.57-1.01 3.604l3.813-.25c3.884.02 3.884.02 6.25 1.813 1.357 3.528.922 5.825-.063 9.437-1.688 2-1.688 2-4 3-3.154-.129-5.2-.448-7.813-2.25C13 162 13 162 12 157l-5 15H6c-1.965-10.664-1.05-21.066.25-31.75l.331-2.902c.99-7.542 2.494-15.044 7.653-20.871l2.516-1.852 2.914-2.195 1.603-1.161c1.924-1.409 3.809-2.863 5.694-4.324 12.241-9.435 12.241-9.435 18.602-12.687 2.017-1.041 3.974-2.13 5.937-3.266C76.48 76.547 106.539 62.232 136 63Z" fill="#4E5D6A"/><path d="M108 326c2.403 3.604 2.91 7.007 3.625 11.188l.406 2.271c.33 1.846.65 3.693.969 5.541l3.375-2c3.375-2 3.375-2 5.625-2-.875 7.625-.875 7.625-2 11 6.029-.512 12.02-1.07 18-2-6.934 15.238-20.422 28.786-36 35l-2.715 1.09C83.715 391.607 66.29 390.154 50 390c2.837-11.261 2.837-11.261 7-14 5.913-2.654 12.12-3.642 18.496-4.57 2.493-.304 2.493-.304 4.504-1.43l-2.703-.125c-4.25-1.128-5.732-3.374-8.047-6.875-2.556-4.101-2.556-4.101-6.25-7a101.168 101.168 0 0 1-2-6h-2l-2-5c3.6 1.32 6.876 2.994 10.217 4.87 6.75 3.778 13.13 6.603 20.783 8.13.983-1.602 1.961-3.207 2.938-4.813l1.652-2.707c1.52-2.487 1.52-2.487 2.41-5.48h2l.625-2.438C100.004 336.4 104.029 331.24 108 326ZM168 92c-5.258 4.872-10.51 9.666-16.125 14.125-5.846 4.71-11.259 9.845-16.686 15.028a348.725 348.725 0 0 1-12.253 11.154c-3.1 2.71-6.115 5.508-9.124 8.318l-1.939 1.809c-4.945 4.637-9.75 9.398-14.51 14.226-2.626 2.653-5.268 5.185-8.175 7.528-2.787 2.285-4.903 4.851-7.126 7.687l-2.046 2.578a274.443 274.443 0 0 0-3.844 4.969c-2.97 3.518-4.79 5.386-9.461 6.035a97.353 97.353 0 0 1-6.856-.273c-2.929-.369-2.929-.369-5.855.816-3.067.068-6.12-.002-9.188-.063-2.894-.074-2.894-.074-5.812 1.063-1.92.083-3.84.107-5.762.098l-3.388-.01-3.538-.025-3.572-.014c-2.913-.012-5.827-.028-8.74-.049 2.93-1.953 5.48-3.025 8.77-4.242l3.443-1.293c2.387-.889 4.775-1.774 7.164-2.656 5.668-2.134 10.812-4.1 15.623-7.809l2.563-1.938c2.488-2.047 2.488-2.047 4.812-4.437 3.704-3.704 7.453-7.358 11.996-10.008 3.027-1.862 5.522-4.02 8.192-6.367C85.338 140.683 94.674 133.868 104 127l2.35-1.745C156.4 88.133 156.4 88.133 168 92Z" fill="#4D5C6A"/><path d="m254 51 2.774.95C268.861 56.21 280.333 61.406 290 70c-2.976.911-5.104 1.017-8.16.477l-2.408-.407-2.495-.445c-12.93-2.261-25.643-2.858-38.75-2.875l-2.529-.007C216.684 66.723 197.876 68.188 179 70c2.66-2.106 5.215-3.698 8.309-5.086l2.493-1.124 2.636-1.165 2.72-1.21C234.286 44.15 234.286 44.15 254 51Z" fill="#4E5C6A"/><path d="M349 42c12.68 1.435 26.533 12.006 36 20 1.004.842 2.008 1.684 3.043 2.55C396.258 71.649 406.706 81.076 409 92c-1.21 3.16-1.21 3.16-3.234 6.492l-1.07 1.79a283.343 283.343 0 0 1-2.271 3.706 361.337 361.337 0 0 0-3.464 5.707c-4.005 6.607-4.005 6.607-5.961 9.305h-2c-.69-12.021-1.111-23.958-1-36h-14c-.766-7.375-1.13-14.587-1-22l-2.082 1.129-2.73 1.434-2.708 1.44C365 66 365 66 362 65c-1.534-2.01-1.534-2.01-3.137-4.621l-1.748-2.834-1.803-2.983-1.837-2.97C349 44.278 349 44.278 349 42Z" fill="#B3AE98"/><path d="M68.313 270.188c4.272 4.47 5.834 8.641 6.124 14.75-.216 6.46-2.334 11.061-7 15.5C62.26 303.757 56.957 303.447 51 303c-4.97-1.62-6.631-5.345-8.984-9.746-1.85-4.104-2.109-7.027-1.578-11.504l.308-2.703L41 277h2l.688-2.25c2.154-4.513 5.08-6.239 9.624-8.125 6.056-1.026 9.912.202 15 3.563Z" fill="#A3D8DF"/><path d="M211 32c-19.571 17.646-62.91 17.5-88 17 4.267-4.992 11.037-7.753 16.757-10.786 2.115-1.145 4.177-2.357 6.247-3.581C165.338 23.928 190.118 28.128 211 32Z" fill="#4E5D6B"/><path d="M91 270c3.558 1 5.785 2.599 8.438 5.063C114.442 288.58 135.762 299.627 156 301c-1.455 7.495-7.187 13.493-12.29 18.883-1.71 1.117-1.71 1.117-3.737.906-5.285-2.114-9.065-5.807-12.973-9.789-1.27-1.272-2.54-2.543-3.813-3.813-8.374-8.375-8.374-8.375-10.355-10.363a239.248 239.248 0 0 0-3.445-3.367A96.037 96.037 0 0 1 106 290v-2h-2c-1.313-1.437-1.313-1.437-2.785-3.43l-1.608-2.16-1.67-2.285-1.681-2.262c-4.087-5.526-4.087-5.526-5.256-7.863Z" fill="#4D5C6A"/><path d="m265 100-2 1-1 2a266.875 266.875 0 0 1-6 2c-2.1 1.008-4.184 2.05-6.25 3.125C244.22 111 244.22 111 242 111l-1 2a135.655 135.655 0 0 1-5.063 2.813C221.441 124.102 208.69 136.173 197 148c-1.255-3.766-.37-5.372 1-9h2v-4h2l.742-2.605c3.434-9.268 12.48-22.423 21.38-27 4.476-1.764 9.1-2.696 13.815-3.582l2.769-.529C248.88 99.828 256.715 99.578 265 100Z" fill="#4F5E6B"/><path d="m187 121 2 1c-9.646 19.721-21.926 38.158-36 55l-2.156 2.617c-3.402 4.03-3.402 4.03-4.844 5.383h-2a282.815 282.815 0 0 1 4.023-9.66c7.66-15.619 7.66-15.619 10.977-32.34h2l.066-2.688c1.28-4.54 4.029-5.994 7.871-8.312l2.048-1.292a372.99 372.99 0 0 1 4.094-2.535c1.703-1.04 3.388-2.11 5.07-3.185 4.887-3.074 4.887-3.074 6.851-3.988Z" fill="#4D5C6A"/><path d="M31 188c2.81 1.794 4.51 3.019 6 6 .04 2.333.043 4.667 0 7l2.25-.313C42 201 42 201 44.375 203.063 46 206 46 206 46 209.563c-1.113 3.828-1.572 5.381-5 7.438-3.075.021-5.988-.408-9-1l-2-6-2.063.688c-5.042.536-8.839-1.956-12.937-4.688-.897-5.02-.79-9.618 1.75-14.063 4.425-3.81 8.35-4.92 14.25-3.937Z" fill="#92CDD0"/><path d="m96 32.688 2.067-.018c4.936.072 9.215 1.008 13.933 2.33v2l-2.57.664-3.555.961-3.445.914c-2.584.751-4.788 1.646-7.19 2.882-11.501 5.77-22.96 5.904-35.615 6.454-2.2.115-4.401.232-6.602.352-5.34.285-10.68.54-16.023.773v-2c18.342-8.564 38.614-15.156 59-15.313ZM136 142c-1.032 12.462-1.032 12.462-6.438 17.063l-2.16 1.812C118.144 169.065 110.93 178.839 104 189l-2-1c2.326-9.781 5.15-19.142 9.313-28.313l1.036-2.403c3.309-6.984 7.874-9.65 14.803-12.647l2.785-.95 2.84-.988C135 142 135 142 136 142ZM238 342c-4.01 7.8-8.937 14.863-14 22-16.318-1.159-16.318-1.159-22-4 2.29-6.083 4.69-11.038 10-15 8.182-2.73 17.43-3.197 26-3ZM300.07 107.637C321.245 117.49 321.245 117.49 325 125l-2.563-.621c-17.305-4.11-32.934-3.602-50.437-1.379 2.602-4.155 5.187-7.396 8.875-10.688l2.492-2.261c6.45-5.024 9.35-5.473 16.703-2.414ZM191 362c-3.432 6.984-7.343 14.621-14 19-6.836 1.807-14.072.95-21 0a209.27 209.27 0 0 1 3-9l.787-2.326c2.081-5.176 2.081-5.176 5.058-6.486 2.283-.436 4.457-.605 6.78-.688l2.43-.175c5.645-.376 11.29-.507 16.945-.325Z" fill="#4D5C6A"/><path d="M292 439c3.22 1.385 5.037 2.91 7.234 5.625l1.739 2.14L302.75 449l1.824 2.234c4.426 5.5 4.426 5.5 4.426 7.766l-2.256-.092c-19.366-.821-19.366-.821-38.744-.908l-1-3 1.649-1.038a17951 17951 0 0 0 7.476-4.712l2.594-1.633c4.466-2.817 8.905-5.661 13.281-8.617Z" fill="#4D5B69"/><path d="M321 420c4.63 3.826 8.9 7.804 12.938 12.25l1.494 1.602c3.568 3.9 3.568 3.9 3.568 6.148-5.036-.405-10.071-.814-15.106-1.227-1.712-.14-3.424-.278-5.136-.416-2.465-.198-4.93-.4-7.395-.603l-2.308-.183c-3.747-.312-7.387-.73-11.055-1.571 4.525-3.797 9.39-7.002 14.313-10.25l2.533-1.68A3637.1 3637.1 0 0 1 321 420ZM163 443c.339 1.728.67 3.458 1 5.188l.563 2.917c.407 2.694.469 5.179.437 7.895-4.124.51-8.25 1.006-12.375 1.5l-3.504.434c-6.746.8-13.328 1.276-20.121 1.066 5.985-8.977 17.995-15.47 28.102-18.664C159 443 159 443 163 443ZM140 252l1.89.519c11.641 3.177 23.072 6.271 35.11 7.481-1.74 5.813-3.811 10.832-7 16-10.577-2.989-20.469-12.154-28-20a94.703 94.703 0 0 1-2-4Z" fill="#4C5B69"/><path d="M124 208c2.95 1.81 4.609 3.342 6.375 6.313 1.102 4.74.369 8.318-1.938 12.562-2.854 2.488-4.678 3.137-8.406 3.395-4.44-.59-6.778-3.756-9.531-7.083-.828-3.62.12-6.791 1.5-10.187 3.625-4.418 6.29-5.56 12-5Z" fill="#A7D8DF"/><path d="M203 443v19h-27c5.37-8.949 15.7-19 27-19Z" fill="#4D5C6A"/><path d="M232.125 84.875c1.737.01 3.474.02 5.21.027 4.222.022 8.444.057 12.665.098v1l-3.129.445C226.142 89.558 205.211 94.285 187 105c2.166-4.754 5.445-8.227 9-12l1.664-1.781c8.934-8.638 22.942-6.46 34.461-6.344Z" fill="#515F6D"/><path d="M172 315c1.507 3.014.422 5.021-.398 8.25l-.954 3.781-.508 1.973c-.513 1.986-1.015 3.975-1.515 5.965-2.471 9.723-2.471 9.723-3.625 12.031-2.25-.114-4.5-.242-6.75-.375-1.253-.07-2.506-.14-3.797-.21-3.063-.368-4.873-.812-7.453-2.415 6.527-7.682 13.093-15.296 19.941-22.695A76.797 76.797 0 0 0 172 315Z" fill="#505F6D"/><path d="M217 302c1.516 3.031.399 5.078-.434 8.32l-.966 3.809-1.037 3.996-1.026 4.02A3273.77 3273.77 0 0 1 211 332l-18-1c0-3.697.714-4.11 3.219-6.695l2.066-2.159 2.215-2.271c1.47-1.532 2.938-3.064 4.406-4.598l2.145-2.23c3.42-3.591 6.702-7.298 9.949-11.047Z" fill="#505F6C"/><path d="M35.098 116.297c3.315 1.225 4.904 2.83 6.902 5.703.816 4.488.336 6.415-1.938 10.375-2.868 3.024-5.798 3.798-9.902 3.977C28 136 28 136 24.937 133.625c-2.235-3.353-2.73-6.51-2.48-10.496.612-2.401 1.284-3.524 3.043-5.254 3.781-2.026 5.5-2.427 9.598-1.578Z" fill="#A7D8DF"/><path d="m81 370 1 2c-2.005 6.015-5.277 10.139-11 13-1.52.151-3.045.249-4.57.316l-2.715.127-2.84.12-2.863.13c-2.337.107-4.675.209-7.012.307 3.107-8.367 3.107-8.367 6.375-10.684l2.625-.753 2.906-.86a152.35 152.35 0 0 1 12.563-2.308c2.647-.341 2.647-.341 5.531-1.395Z" fill="#8596A0"/><path d="M262 293c1.395 2.79.616 4.167-.18 7.156l-.816 3.098-.879 3.246-.855 3.246c-2.113 7.94-2.113 7.94-3.27 10.254-6.44.107-12.626-.038-19-1 4.962-5.995 10.348-11.464 15.875-16.938l2.664-2.65c2.151-2.14 4.305-4.277 6.461-6.412Z" fill="#4F5E6B"/><path d="M453 223h14v34c-7.553-10.07-11.177-21.863-14-34Z" fill="#4C5B69"/><path d="M68.313 270.188c4.272 4.47 5.834 8.641 6.124 14.75-.216 6.46-2.334 11.061-7 15.5C62.26 303.757 56.957 303.447 51 303c-4.97-1.62-6.631-5.345-8.984-9.746-1.85-4.104-2.109-7.027-1.578-11.504l.308-2.703L41 277h2l.688-2.25c2.154-4.513 5.08-6.239 9.624-8.125 6.056-1.026 9.912.202 15 3.563Zm-23.399 5.738C42.86 280.589 43.257 286.053 44 291c2.306 4.645 5.335 7.667 10 10 5.025.38 8.009.151 12-3 2.907-2.932 5.613-5.748 6-10l.313-3.25c-.51-6.103-2.548-10.181-7.126-14.25-7.602-3.577-15.122-1.17-20.273 5.426Z" fill="#93CDCF"/><path d="m301 291 1 2c-.773 1.74-.773 1.74-2.02 3.809-.445.747-.89 1.494-1.35 2.263l-1.442 2.365-1.409 2.354c-1.87 3.115-3.763 6.186-5.779 9.209-6.661-1.033-11.517-3.086-17-7 3.043-2.433 6.152-4.192 9.64-5.918l3.243-1.611 3.367-1.659 3.414-1.693c2.777-1.377 5.556-2.75 8.336-4.119Z" fill="#4E5D6B"/><path d="m305 350-7 18c-3.449 0-4.11-.546-6.793-2.555l-2.158-1.613-2.236-1.707-2.272-1.684c-4.112-3.105-4.112-3.105-5.541-4.441v-2c3.58-.87 7.164-1.718 10.75-2.563l3.078-.748 2.969-.693c.9-.215 1.801-.43 2.73-.65C301 349 301 349 305 350Z" fill="#505F6D"/><path d="M32 192c1.875 1.75 1.875 1.75 3 4-.077 3.606-.821 5.69-2.625 8.813C29.23 207.708 27.241 208 23 208c-2.875-.938-2.875-.938-5-3-1.005-2.722-1.282-5.114-1-8 1.89-3.479 3.393-4.703 6.938-6.438 3.565-.654 4.968-.402 8.062 1.438Z" fill="#A6D8DF"/><path d="M327 368c-.515 7.134-1.44 14.018-3 21-6.684-4.262-12.88-8.966-19-14 3.684-2.016 7.59-3.307 11.563-4.625l2.037-.695c2.923-.976 5.297-1.68 8.4-1.68Z" fill="#51606E"/><path d="M405 224h19l-9 23c-2.692-1.346-2.848-2.63-3.945-5.402l-1.075-2.698-1.105-2.838-1.129-2.826C405 226.281 405 226.281 405 224Z" fill="#4F5E6C"/><path d="M58.625 275.938C62 277 62 277 63.938 278.563c1.534 3.519 1.768 6.661 1.062 10.437-1.8 2.506-3.189 3.607-5.938 4.938-3.032.091-4.634-1.213-7.062-2.938-2-2-2-2-2.438-5.813.1-3.415.478-4.247 2.5-7.25C55 276 55 276 58.626 275.938Z" fill="#BDD9DE"/><path d="M343.014 407.215c2.206.872 3.494 1.854 5.22 3.473l1.739 1.617L351.75 414l1.824 1.695c1.5 1.409 2.967 2.854 4.426 4.305v1a429.754 429.754 0 0 1-21.688-1.937l-2.105-.227c-4.974-.603-4.974-.603-7.207-2.836 2.24-1.537 4.49-3.054 6.75-4.562l1.922-1.327c4.79-3.168 4.79-3.168 7.342-2.896Z" fill="#4D5B69"/><path d="m333 270 2 1-11 21c-4.445-.74-7.015-1.25-10.875-3.063l-2.367-1.097L309 287c2.312-2.495 4.772-4.27 7.633-6.102l2.691-1.734 2.801-1.789c1.837-1.179 3.673-2.358 5.508-3.54l2.465-1.576c1.83-1.12 1.83-1.12 2.902-2.259ZM351 235h1v27c-10-2-10-2-13-3 1.578-5.605 4.264-10.35 7.125-15.375l1.418-2.52c1.148-2.037 2.3-4.072 3.457-6.105Z" fill="#4E5D6B"/><path d="M24 152c2.063 1.563 2.063 1.563 3 4-.066 3.776-.22 6.075-2.688 9-3.184 1.377-5.021.98-8.312 0-1.813-1.125-1.813-1.125-3-3-.688-3.688-.688-3.688-1-7 3.774-3.774 6.935-3.563 12-3Z" fill="#94CDCF"/><path d="M359 199c1.845 3.24 2.537 6.204 3.125 9.875l.508 3.055c.365 3.056.431 5.996.367 9.07-3.981 1.327-7.85 1.07-12 1 .643-5.104 2.162-9.548 4-14.313l.828-2.205c2.031-5.341 2.031-5.341 3.172-6.482Z" fill="#505F6D"/><path d="M124 208c2.95 1.81 4.609 3.342 6.375 6.313 1.102 4.74.369 8.318-1.938 12.562-2.854 2.488-4.678 3.137-8.406 3.395-4.44-.59-6.778-3.756-9.531-7.083-.828-3.62.12-6.791 1.5-10.187 3.625-4.418 6.29-5.56 12-5Zm-10 7c-1.377 3.49-1.111 4.725.313 8.25 1.4 2.827 1.4 2.827 3.687 3.75 2.915.5 2.915.5 6 0 3.162-2.746 3.917-4.408 4.5-8.563-.25-3.438-.25-3.438-2.125-5.875-4.99-3.283-8.94-2.27-12.375 2.438Z" fill="#94CED0"/><path d="M361 165c2.109 3.164 3.058 5.88 4.188 9.5l1.105 3.469C367 181 367 181 366 184c-3.462 1.827-6.144 2.084-10 2 1.162-7.193 2.745-14.07 5-21Z" fill="#505F6D"/><path d="M35.098 116.297c3.315 1.225 4.904 2.83 6.902 5.703.816 4.488.336 6.415-1.938 10.375-2.868 3.024-5.798 3.798-9.902 3.977C28 136 28 136 24.937 133.625c-2.235-3.353-2.73-6.51-2.48-10.496.612-2.401 1.284-3.524 3.043-5.254 3.781-2.026 5.5-2.427 9.598-1.578Zm-7.848 3.266c-2.555 2.328-2.555 2.328-2.875 5.937.325 3.596.325 3.596 2.813 5.938 3.055 1.697 4.4 2.262 7.812 1.562 2.457-1.457 2.457-1.457 4-4 .75-3.5.75-3.5 0-7-2.127-2.552-2.127-2.552-5-4-3.948-.33-3.948-.33-6.75 1.563Z" fill="#8ECFD1"/><path d="M37 261c1.875 1.125 1.875 1.125 3 3 .394 3.15.529 5.12-1.125 7.875-2.756 1.654-4.726 1.519-7.875 1.125-1.875-1.125-1.875-1.125-3-3-.394-3.15-.529-5.12 1.125-7.875 2.756-1.654 4.726-1.519 7.875-1.125Z" fill="#93CCCF"/><path d="M467 195v19c-3.214-3.214-5.403-5.862-7.813-9.625l-1.894-2.914L456 199c1-2 1-2 3.813-3.125C463 195 463 195 467 195Z" fill="#4E5D6A"/><path d="M35 203c3.625.375 3.625.375 7 1 1.334 6.425 1.334 6.425-.125 8.938-2.539 1.438-4.003 1.565-6.875 1.062-1.875-1.688-1.875-1.688-3-4 .24-3.37.588-4.588 3-7Z" fill="#A7D8DF"/><path d="M94.875 371.688c3.125.312 3.125.312 5.063 2 1.322 2.877.972 4.334.062 7.312-2.75 1.188-2.75 1.188-6 2-2.375-1.375-2.375-1.375-4-3 1.004-7.892 1.004-7.892 4.875-8.313Z" fill="#8B3522"/><path d="M361 133c3.41 3.155 5.394 6.658 7 11 .063 2.813.063 2.813-1 5-4.034 3-4.034 3-7 3-.12-6.433.176-12.618 1-19Z" fill="#4F5E6C"/><path d="M5 117.75c3 .25 3 .25 5 2.25-.375 3.625-.375 3.625-1 7-3.375.625-3.375.625-7 1-2-2-2-2-2.25-5 .344-4.13 1.12-4.906 5.25-5.25Z" fill="#94CFD2"/><path d="m29 194 2 2c-.125 3.5-.125 3.5-1 7-1.75 1.625-1.75 1.625-4 2-2.75-1.375-2.75-1.375-5-3 .256-2.343.593-4.678 1-7 2.513-1.256 4.217-1.209 7-1Z" fill="#BED9DE"/><path d="M354 103c4.136 3.381 7.813 6.666 11 11l-7 5c-1.932-3.345-2.546-6.448-3.125-10.25l-.508-3.266L354 103Z" fill="#4F5F6C"/><path d="M124 215c1 1 1 1 1.188 3.938C125 222 125 222 123 224c-3.297-.33-4.623-.623-7-3 .25-3.063.25-3.063 1-6 2.684-1.342 4.153-.73 7 0ZM30 121c3.688.498 5.605 1.1 8 4-.625 1.938-.625 1.938-2 4-3.125.75-3.125.75-6 1l-3-5 3-4Z" fill="#BDD9DE"/><path d="M256 389c4.154 3.435 7.789 6.633 11 11h-11v-11Z" fill="#D1D1D5"/><path d="M23 155c1 1 1 1 1.188 3.438C24 161 24 161 22 163c-2.5.313-2.5.313-5 0-2-3-2-3-1.75-5.625L16 155c2.684-1.342 4.153-.73 7 0Z" fill="#AAD8DF"/><path d="M37 118c2.5 1.563 2.5 1.563 5 4 .638 3.447.769 5.708-1.063 8.785-1.312 1.653-1.312 1.653-3.937 4.215h-2l1-4h2c.054-1.437.093-2.875.125-4.313l.07-2.425c-.037-2.546-.037-2.546-2.195-5.262l1-1Z" fill="#93CFD2"/><path d="M32 263c2.625.375 2.625.375 5 1 .688 1.813.688 1.813 1 4-1.188 1.813-1.188 1.813-3 3-2.188-.313-2.188-.313-4-1-.625-2.375-.625-2.375-1-5l2-2Z" fill="#B2D9DF"/><path d="M36 204h4c.8 3.287 1.097 4.71 0 8l-5-1c-.625-2.375-.625-2.375-1-5l2-2Z" fill="#BCD9DE"/><path d="M256 373c4.274 1.583 6.265 4.506 9 8h-9v-8Z" fill="#D1D1D4"/><path d="M256 352c1.15.954 2.294 1.914 3.438 2.875l1.933 1.617C263 358 263 358 264 360h-8v-8Z" fill="#D7D6DA"/><path d="M2 118c2.875-.125 2.875-.125 6 0l2 2c-.375 3.625-.375 3.625-1 7l-3-1 3-4c-4.531-.934-4.531-.934-9 0l2-4Z" fill="#93CCCE"/><path d="M37 117v2l-3.063-.25c-4.84.307-6.93 1.634-10.937 4.25 3.04-7.345 6.87-7.307 14-6Z" fill="#89C4C8"/><path d="m17 155 5 1 1 4a88.406 88.406 0 0 1-5 1c-1-1-1-1-1.063-3.563L17 155Z" fill="#BDD9DE"/><path d="m3 120 4 1v4l-5-1 1-4Z" fill="#B9D9DE"/></svg>