<?xml version="1.0" encoding="UTF-8"?>
<svg version="1.1" xmlns="http://www.w3.org/2000/svg" width="479" height="460">
<path d="M0 0 C3.16639372 1.11313586 6.33050515 2.23030705 9.484375 3.37841797 C11.50129723 4.1075253 13.52638385 4.80953713 15.55297852 5.51123047 C23.11300642 8.2019477 28.96068265 11.13397129 34.57836914 16.98779297 C35.43790443 17.77487137 35.43790443 17.77487137 36.31480408 18.57785034 C42.40864665 24.60889734 43.73316167 31.46834611 45.45336914 39.62841797 C45.7809997 41.09002783 46.11100186 42.5511078 46.44319153 44.01168823 C47.14706859 47.12557853 47.83633342 50.24219413 48.5140686 53.36187744 C49.58628869 58.29268134 50.69474076 63.21486365 51.81152344 68.13574219 C52.09240767 69.37409474 52.09240767 69.37409474 52.37896633 70.63746452 C52.75883395 72.31208806 53.13879164 73.98669117 53.51883888 75.66127396 C54.09201185 78.19159894 54.66220051 80.72258003 55.23161316 83.25375366 C58.76024063 98.9217481 62.50018314 114.5308052 66.39086914 130.11279297 C66.84830002 131.94975235 66.84830002 131.94975235 67.31497192 133.82382202 C71.70029889 151.3594318 76.53789563 168.70847417 82.07568359 185.91601562 C82.43350418 187.02898766 82.43350418 187.02898766 82.79855347 188.16444397 C83.43065567 190.118226 84.07234105 192.06890056 84.71484375 194.01928711 C85.57836914 196.98779297 85.57836914 196.98779297 85.57836914 199.98779297 C79.81480594 202.6359166 74.66904339 201.78976787 68.57836914 200.98779297 C68.57836914 201.64779297 68.57836914 202.30779297 68.57836914 202.98779297 C67.00635742 202.97039062 67.00635742 202.97039062 65.40258789 202.95263672 C64.02368342 202.94325642 62.64477703 202.93415647 61.26586914 202.92529297 C60.57557617 202.91691406 59.8852832 202.90853516 59.17407227 202.89990234 C56.03006664 202.88471391 53.58416895 202.9858597 50.57836914 203.98779297 C47.31484416 204.41463524 44.05273226 204.54137503 40.76586914 204.67529297 C39.87577148 204.75457031 38.98567383 204.83384766 38.06860352 204.91552734 C35.27569966 205.00455245 33.22372489 204.90422781 30.57836914 203.98779297 C27.78974752 201.03663015 26.26627927 197.6506894 24.57836914 193.98779297 C23.58416307 192.0798774 22.58674427 190.17363267 21.58618164 188.26904297 C20.62107409 186.34404467 19.66014564 184.41694558 18.70336914 182.48779297 C18.20579102 181.50037109 17.70821289 180.51294922 17.19555664 179.49560547 C16.72633789 178.55458984 16.25711914 177.61357422 15.77368164 176.64404297 C15.35103027 175.79648437 14.92837891 174.94892578 14.49291992 174.07568359 C13.57836914 171.98779297 13.57836914 171.98779297 13.57836914 169.98779297 C12.91836914 169.65779297 12.25836914 169.32779297 11.57836914 168.98779297 C10.76026026 167.26857865 10.02426344 165.51000377 9.32836914 163.73779297 C6.99237051 157.92220235 4.40838585 152.26294143 1.71508789 146.60498047 C0.57836914 143.98779297 0.57836914 143.98779297 0.57836914 141.98779297 C-0.08163086 141.65779297 -0.74163086 141.32779297 -1.42163086 140.98779297 C-2.30278391 139.14406019 -3.10304767 137.26124483 -3.85913086 135.36279297 C-4.29999023 134.27095703 -4.74084961 133.17912109 -5.19506836 132.05419922 C-5.59983398 131.04228516 -6.00459961 130.03037109 -6.42163086 128.98779297 C-7.96787408 125.29241352 -9.58261524 121.62898257 -11.22631836 117.97607422 C-13.59475341 112.65155543 -15.79393719 107.26256219 -17.98413086 101.86279297 C-18.75570527 99.96412739 -19.52782845 98.06568472 -20.30053711 96.16748047 C-20.66622803 95.26852051 -21.03191895 94.36956055 -21.40869141 93.44335938 C-22.23855067 91.4316157 -23.10268102 89.43404034 -23.97631836 87.44091797 C-25.84385516 82.97901923 -27.41352469 78.43612793 -28.98413086 73.86279297 C-29.58855696 72.10982895 -30.19399493 70.35721343 -30.80053711 68.60498047 C-31.0804248 67.79512695 -31.3603125 66.98527344 -31.64868164 66.15087891 C-32.26188875 64.43482868 -32.93845184 62.74144012 -33.63647461 61.05810547 C-34.42163086 58.98779297 -34.42163086 58.98779297 -34.42163086 55.98779297 C-35.08163086 55.65779297 -35.74163086 55.32779297 -36.42163086 54.98779297 C-37.20288086 53.01904297 -37.20288086 53.01904297 -37.92163086 50.48779297 C-38.1781543 49.59189453 -38.43467773 48.69599609 -38.69897461 47.77294922 C-39.5640572 44.43887414 -40.26930612 41.08943844 -40.89428711 37.70263672 C-41.06831055 37.13673828 -41.24233398 36.57083984 -41.42163086 35.98779297 C-42.08163086 35.65779297 -42.74163086 35.32779297 -43.42163086 34.98779297 C-44.30834961 32.65966797 -44.30834961 32.65966797 -45.10913086 29.73779297 C-45.38112305 28.78388672 -45.65311523 27.82998047 -45.93334961 26.84716797 C-46.47744244 23.66096035 -46.49191977 22.03680125 -45.42163086 18.98779297 C-42.84887695 16.9230957 -42.84887695 16.9230957 -39.44506836 14.92138672 C-38.84159576 14.56061539 -38.23812317 14.19984406 -37.61636353 13.82814026 C-35.68509351 12.67846808 -33.74144967 11.55186191 -31.79663086 10.42529297 C-30.51060236 9.66439547 -29.22543538 8.90203989 -27.94116211 8.13818359 C-24.44695751 6.06657414 -20.93881576 4.02021203 -17.42163086 1.98779297 C-16.84987122 1.60188995 -16.27811157 1.21598694 -15.68902588 0.81838989 C-9.93098649 -2.92218083 -6.27859155 -1.85737 0 0 Z " fill="#B06A3A" transform="translate(46.421630859375,198.01220703125)"/>
<path d="M0 0 C1.14726562 -0.020625 2.29453125 -0.04125 3.4765625 -0.0625 C13.22177655 -0.10639736 24.55794213 0.63598594 32.875 6.25 C34.79544394 8.16017419 36.27321559 10.03576861 37.875 12.25 C37.875 12.91 37.875 13.57 37.875 14.25 C38.803125 14.311875 39.73125 14.37375 40.6875 14.4375 C43.875 15.25 43.875 15.25 45.6875 17.25 C47.67165398 22.26259952 48.79301078 27.02744759 46.6875 32.125 C44.875 34.25 44.875 34.25 42.75 35.6875 C40.54890675 37.20341525 40.54890675 37.20341525 40.125 40.4375 C40.0425 41.365625 39.96 42.29375 39.875 43.25 C41.050625 43.435625 41.050625 43.435625 42.25 43.625 C44.875 44.25 44.875 44.25 46.875 46.25 C47.2109375 49.33203125 47.2109375 49.33203125 47.25 53.0625 C47.27835938 54.28582031 47.30671875 55.50914062 47.3359375 56.76953125 C46.8008924 60.80957516 45.81119997 62.46750002 42.875 65.25 C41.885 65.25 40.895 65.25 39.875 65.25 C39.875 66.9 39.875 68.55 39.875 70.25 C40.803125 70.3325 41.73125 70.415 42.6875 70.5 C45.875 71.25 45.875 71.25 47.546875 72.91015625 C50.2012958 77.58662112 49.42889391 83.05191874 48.875 88.25 C47.47971015 93.21580079 45.30798352 98.4083439 40.875 101.25 C30.96915345 105.23138832 20.74959211 101.72632258 10.875 99.25 C10.69167114 98.31510742 10.69167114 98.31510742 10.50463867 97.36132812 C10.17365899 95.68723983 9.83332776 94.01499567 9.48828125 92.34375 C9.07259296 90.24677468 8.69611421 88.1417151 8.35546875 86.03125 C6.34511894 74.72141105 1.77609175 62.84388058 -6.125 54.25 C-6.785 54.25 -7.445 54.25 -8.125 54.25 C-7.53345458 57.68202248 -6.65810104 60.62998086 -5.234375 63.8046875 C-4.85676025 64.65957764 -4.47914551 65.51446777 -4.09008789 66.39526367 C-3.68910889 67.29607666 -3.28812988 68.19688965 -2.875 69.125 C4.94279906 87.04446693 13.51732866 107.58094865 7.375 127.3125 C4.56030915 133.92652621 -0.34187019 138.15811734 -6.8125 141.125 C-22.95079738 146.60593118 -43.79605523 144.24634196 -60.125 140.25 C-61.82462891 139.83814453 -61.82462891 139.83814453 -63.55859375 139.41796875 C-70.83999141 137.53500859 -70.83999141 137.53500859 -72.125 136.25 C-72.16625 135.05375 -72.2075 133.8575 -72.25 132.625 C-72.74043214 127.8411356 -75.10063112 125.74794491 -78.62890625 122.6953125 C-79.12261719 122.21835938 -79.61632812 121.74140625 -80.125 121.25 C-80.125 120.59 -80.125 119.93 -80.125 119.25 C-80.785 119.25 -81.445 119.25 -82.125 119.25 C-85.125 113.5 -85.125 113.5 -85.125 111.25 C-85.785 110.92 -86.445 110.59 -87.125 110.25 C-90.78786192 103.88428911 -92.60549776 96.67751991 -94.4375 89.625 C-94.71400391 88.62726563 -94.99050781 87.62953125 -95.27539062 86.6015625 C-96.9248797 80.31937739 -97.86425428 75.2104706 -95.15234375 69.03515625 C-94.14322917 67.44010417 -93.13411458 65.84505208 -92.125 64.25 C-91.465 64.25 -90.805 64.25 -90.125 64.25 C-89.90328125 63.67507812 -89.6815625 63.10015625 -89.453125 62.5078125 C-87.71947463 59.56060687 -85.6454077 58.11575745 -82.875 56.125 C-81.47507812 55.10019531 -81.47507812 55.10019531 -80.046875 54.0546875 C-77.125 52.25 -77.125 52.25 -71.125 50.25 C-67.66 58.17 -67.66 58.17 -64.125 66.25 C-60.63873047 66.27126953 -60.63873047 66.27126953 -57.08203125 66.29296875 C-54.82138728 66.3236172 -52.56103468 66.36269815 -50.30053711 66.40258789 C-48.73423631 66.42572882 -47.16778078 66.44015448 -45.60131836 66.44555664 C-43.34391297 66.45487588 -41.08892779 66.49592233 -38.83203125 66.54296875 C-37.78798882 66.53706978 -37.78798882 66.53706978 -36.72285461 66.53105164 C-33.10127591 66.63878789 -31.18110595 67.21124444 -28.18261719 69.2824707 C-25.58512086 73.02862256 -25.41780174 76.03245183 -25.49609375 80.4375 C-25.49368179 81.21762451 -25.49126984 81.99774902 -25.48878479 82.80151367 C-25.48976122 84.44552714 -25.50310628 86.08957432 -25.52807617 87.73339844 C-25.56239985 90.24267824 -25.54872463 92.74843578 -25.52929688 95.2578125 C-25.53619574 96.85938991 -25.5458685 98.46095828 -25.55859375 100.0625 C-25.55115395 101.18144653 -25.55115395 101.18144653 -25.54356384 102.32299805 C-25.62491031 105.94041977 -26.03974195 108.11018093 -27.9375 111.22241211 C-31.10504207 114.15839837 -33.4415192 113.88305882 -37.6875 113.8125 C-38.35974609 113.82345703 -39.03199219 113.83441406 -39.72460938 113.84570312 C-42.70747748 113.80127113 -44.67727624 113.59433374 -47.0703125 111.75390625 C-48.63440047 108.04064554 -48.52110898 104.61147598 -48.4375 100.625 C-48.44072266 99.84898437 -48.44394531 99.07296875 -48.44726562 98.2734375 C-48.39230253 92.51730253 -48.39230253 92.51730253 -46.125 90.25 C-43.43660615 89.98008094 -40.83358064 90.16262643 -38.125 90.25 C-37.795 91.9 -37.465 93.55 -37.125 95.25 C-36.465 95.25 -35.805 95.25 -35.125 95.25 C-35.35360058 93.78815942 -35.60870392 92.33044581 -35.875 90.875 C-36.01421875 90.06289062 -36.1534375 89.25078125 -36.296875 88.4140625 C-36.94402453 86.11339283 -36.94402453 86.11339283 -39.0078125 84.9453125 C-41.99729044 83.96352823 -44.11656444 84.46519072 -47.125 85.25 C-50.39815523 88.52315523 -50.25208508 91.87085563 -50.2578125 96.34765625 C-50.25910156 97.31380859 -50.26039063 98.27996094 -50.26171875 99.27539062 C-50.25591797 100.77875977 -50.25591797 100.77875977 -50.25 102.3125 C-50.25386719 103.31861328 -50.25773437 104.32472656 -50.26171875 105.36132812 C-50.25978516 106.80862305 -50.25978516 106.80862305 -50.2578125 108.28515625 C-50.25612061 109.60592163 -50.25612061 109.60592163 -50.25439453 110.95336914 C-50.21658773 113.41250665 -50.21658773 113.41250665 -49.125 116.25 C-46.21499203 117.70500399 -43.6160667 117.45897384 -40.375 117.5 C-39.16328125 117.52578125 -37.9515625 117.5515625 -36.703125 117.578125 C-32.70456535 117.21144486 -30.44288879 116.50616438 -27.125 114.25 C-24.14282652 109.5423061 -23.68194961 105.40713558 -23.7265625 99.96484375 C-23.72369232 99.18613419 -23.72082214 98.40742462 -23.71786499 97.6051178 C-23.7158328 95.96712512 -23.72130327 94.32910771 -23.73388672 92.69116211 C-23.74997528 90.19134103 -23.73399909 87.69313114 -23.71484375 85.19335938 C-23.71682591 83.59635062 -23.72066902 81.99934286 -23.7265625 80.40234375 C-23.72048981 79.65951645 -23.71441711 78.91668915 -23.7081604 78.15135193 C-23.76860667 73.67050642 -24.35632395 70.80535687 -27.125 67.25 C-33.09064623 62.73783116 -39.13341424 62.27498712 -46.4375 61.5625 C-48.60057149 61.3323319 -50.76335135 61.09940099 -52.92578125 60.86328125 C-54.35144409 60.72079956 -54.35144409 60.72079956 -55.8059082 60.57543945 C-58.125 60.25 -58.125 60.25 -60.125 59.25 C-60.125 58.59 -60.125 57.93 -60.125 57.25 C-60.723125 57.0025 -61.32125 56.755 -61.9375 56.5 C-64.59307354 54.9825294 -65.63960751 53.93785308 -67.125 51.25 C-69.47492892 41.51458017 -65.70965086 33.31274725 -60.82421875 24.9140625 C-52.05704518 11.1687467 -38.88851864 5.72653553 -23.52734375 1.94140625 C-15.63235675 0.33702887 -8.03624739 0.03540197 0 0 Z " fill="#B06A3A" transform="translate(430.125,86.75)"/>
<path d="M0 0 C0.33 0 0.66 0 1 0 C4.4013886 24.66006736 6.79621975 51.72103616 -5.75 74.125 C-10.9086024 80.71654751 -16.96189457 85.44746553 -25 88 C-25.99 88 -26.98 88 -28 88 C-28 88.66 -28 89.32 -28 90 C-28.969375 89.979375 -29.93875 89.95875 -30.9375 89.9375 C-33.87465895 89.64381501 -33.87465895 89.64381501 -35 91 C-36.54094298 91.04723197 -38.08378342 91.03724995 -39.625 91 C-43.85824488 90.95175789 -47.81075531 91.35550082 -52 92 C-54 92 -56 92 -58 92 C-58.99 92.495 -58.99 92.495 -60 93 C-62.76265008 93.07016254 -65.51076631 92.99707242 -68.2734375 92.9375 C-70.88291006 92.89390554 -70.88291006 92.89390554 -72.87744141 93.48413086 C-89.23454406 97.45958035 -109.38493135 95.17688789 -126.16308594 95.28610229 C-128.44602707 95.30351012 -130.72892791 95.32770965 -133.01171875 95.35916138 C-151.58290535 95.60120049 -171.26490787 95.18939885 -187 84 C-188.423125 83.443125 -188.423125 83.443125 -189.875 82.875 C-192 81 -192 81 -192.34375 78.765625 C-192.39506531 74.42948141 -192.12166859 70.20625722 -191 66 C-190.34 66 -189.68 66 -189 66 C-188.9175 65.21625 -188.835 64.4325 -188.75 63.625 C-187.93185013 59.67060894 -186.67082571 56.23213363 -185.05859375 52.5390625 C-183.95605385 50.07175524 -183.95605385 50.07175524 -183.41015625 47.6484375 C-182.60664281 45.03345293 -182.08781268 43.80641184 -180 42 C-175.88747151 41.02874327 -171.95603329 40.60718865 -167.75 40.3515625 C-164.29219126 40.02739293 -162.95242309 39.48816468 -160 38 C-156.7578125 37.76953125 -156.7578125 37.76953125 -153.125 37.8125 C-151.33449219 37.82216797 -151.33449219 37.82216797 -149.5078125 37.83203125 C-146 38 -146 38 -142.94140625 38.53125 C-139.76772956 39.03701521 -137.01042953 38.95906056 -133.8125 38.6875 C-132.78769531 38.60886719 -131.76289063 38.53023438 -130.70703125 38.44921875 C-127.78771321 38.15531229 -127.78771321 38.15531229 -125 36 C-121.96899414 35.8046875 -121.96899414 35.8046875 -118.28515625 35.875 C-117.63300644 35.88257324 -116.98085663 35.89014648 -116.3089447 35.89794922 C-113.52376505 35.93059284 -110.73917623 35.98683479 -107.9543457 36.04101562 C-105.9188103 36.07724105 -103.88337088 36.10139442 -101.84765625 36.125 C-100.63086182 36.14820313 -99.41406738 36.17140625 -98.16040039 36.1953125 C-95.0055816 36.00034494 -93.73426105 35.37801666 -91 34 C-87.88378906 33.77294922 -87.88378906 33.77294922 -84.265625 33.8046875 C-82.97011719 33.81113281 -81.67460937 33.81757813 -80.33984375 33.82421875 C-78.97655981 33.84092807 -77.61327856 33.85785794 -76.25 33.875 C-74.87110015 33.8850366 -73.49219335 33.89416127 -72.11328125 33.90234375 C-68.74201118 33.92591907 -65.37109364 33.9588273 -62 34 C-61.67 33.01 -61.34 32.02 -61 31 C-58.44194717 29.72097358 -56.72276047 29.93390897 -53.86328125 30.0078125 C-31.792927 31.16715102 -31.792927 31.16715102 -12.25 22.5 C-10.76550227 20.90383906 -10.76550227 20.90383906 -10 18 C-9.34 18 -8.68 18 -8 18 C-7.73445312 17.14148438 -7.46890625 16.28296875 -7.1953125 15.3984375 C-5.98976199 11.97089192 -4.52755614 8.85826202 -2.875 5.625 C-2.33617187 4.56539063 -1.79734375 3.50578125 -1.2421875 2.4140625 C-0.83226562 1.61742187 -0.42234375 0.82078125 0 0 Z " fill="#71542C" transform="translate(254,365)"/>
<path d="M0 0 C3.48982289 0.38982064 6.32069569 2.12803916 9.359375 3.80078125 C10.39320313 4.36603516 11.42703125 4.93128906 12.4921875 5.51367188 C13.56726563 6.10728516 14.64234375 6.70089844 15.75 7.3125 C17.86912628 8.47647264 19.98890502 9.6392583 22.109375 10.80078125 C23.11709961 11.35386963 24.12482422 11.90695801 25.16308594 12.47680664 C27.62688722 13.79966862 30.10752081 15.04937571 32.625 16.265625 C38.4276743 19.24755485 39.9891848 23.56809517 42 29.5 C51.99579341 64.50472401 53.3840678 102.81295135 57.03271484 138.84082031 C57.15639435 140.05955841 57.28007385 141.27829651 57.40750122 142.53396606 C57.63963438 144.82619938 57.87041155 147.11857057 58.09957886 149.41110229 C58.62702879 154.62881034 59.21887416 159.81431275 60 165 C60.53148363 170.17057642 60.7008593 173.77914832 58.0625 178.375 C48.57065051 187.81367386 32.54225892 188.50914236 20 189 C12 170.14893617 12 170.14893617 12 163 C11.34 162.67 10.68 162.34 10 162 C9.25390625 159.59375 9.25390625 159.59375 8.5625 156.5 C7.47846142 151.85412039 6.20283403 147.4107506 4.55078125 142.9375 C4 141 4 141 4 137 C3.34 136.67 2.68 136.34 2 136 C0.30413121 131.63292246 -0.75571876 127.12197299 -1.85546875 122.57421875 C-3.65096696 115.2565083 -5.66088308 108.01410884 -7.74871826 100.77398682 C-13.96436027 79.14877438 -19.99181276 57.33351131 -23 35 C-23.21140625 33.75734375 -23.4228125 32.5146875 -23.640625 31.234375 C-24.76743868 23.12858629 -24.76743868 23.12858629 -22.671875 20.046875 C-20.86725592 18.49333336 -19.01845044 17.25787491 -17 16 C-16.236875 15.236875 -15.47375 14.47375 -14.6875 13.6875 C-11.31474164 10.31474164 -7.76574371 7.16284484 -4.20703125 3.98828125 C-2.7713649 2.69491104 -1.3663719 1.3663719 0 0 Z " fill="#B06A3A" transform="translate(123,207)"/>
<path d="M0 0 C4.85577427 4.68658353 8.70668737 9.79873779 12.68066406 15.23193359 C14.08580098 17.11498348 15.53463154 18.95806076 16.9921875 20.80078125 C17.9949044 22.09626692 18.99751024 23.39183855 20 24.6875 C20.48098145 25.28030762 20.96196289 25.87311523 21.45751953 26.48388672 C23.87934691 29.66149878 25.24985217 32.13684106 25.6124115 36.15307617 C25.68416533 36.94569351 25.75591915 37.73831085 25.82984734 38.5549469 C26.10196075 42.46515163 26.27070751 46.3713887 26.38891602 50.2890625 C26.41832275 51.17015182 26.44772949 52.05124115 26.47802734 52.95903015 C26.57349142 55.84758469 26.66384594 58.73627232 26.75390625 61.625 C26.81950714 63.6565016 26.88534275 65.68799563 26.95140076 67.71948242 C27.08891539 71.97258767 27.22396067 76.22576194 27.35717773 80.47900391 C27.52660617 85.88381143 27.70156933 91.28842195 27.87835789 96.69299316 C28.01511698 100.89013216 28.14915557 105.08735478 28.2823925 109.28460693 C28.3458227 111.274581 28.40999539 113.26453157 28.47497749 115.25445557 C28.86223911 127.17447626 29.08808925 139.07354011 29 151 C-1.33732098 166.15785415 -1.33732098 166.15785415 -15 165 C-16.62934184 163.37065816 -16.4820456 161.38206423 -16.80360413 159.13667297 C-16.95643356 158.08378586 -17.109263 157.03089874 -17.26672363 155.94610596 C-17.43144165 154.78093445 -17.59615967 153.61576294 -17.76586914 152.4152832 C-17.94157944 151.19582504 -18.11728973 149.97636688 -18.29832458 148.71995544 C-18.78077053 145.3647859 -19.2594024 142.00911561 -19.7361176 138.65312982 C-20.23542226 135.1428396 -20.73881532 131.63313538 -21.24156189 128.12333679 C-22.08602401 122.22303427 -22.92693296 116.32223315 -23.76586914 110.42114258 C-24.7350017 103.60463039 -25.71015625 96.78900007 -26.6884833 89.97380191 C-27.52811499 84.12364664 -28.36445797 78.27302804 -29.19807714 72.42201298 C-29.69599339 68.92725729 -30.195035 65.43267248 -30.69703865 61.93850136 C-31.25735407 58.03691082 -31.81077372 54.13435911 -32.36352539 50.23168945 C-32.53026764 49.0766391 -32.69700989 47.92158875 -32.86880493 46.73153687 C-33.01881454 45.66455063 -33.16882416 44.59756439 -33.32337952 43.49824524 C-33.45481889 42.57590749 -33.58625826 41.65356974 -33.72168064 40.70328236 C-34.54519886 32.70454926 -34.54519886 32.70454926 -31.875 29.25390625 C-30.451875 27.92166016 -30.451875 27.92166016 -29 26.5625 C-28.24505249 25.84429077 -28.24505249 25.84429077 -27.47485352 25.11157227 C-24.08588386 21.91252735 -20.58612768 18.84188655 -17.0390625 15.8203125 C-13.67032704 12.81297394 -10.54561077 9.56456032 -7.39453125 6.33203125 C-5.04262897 4.04151631 -2.59631146 2.00603106 0 0 Z " fill="#B06A3A" transform="translate(209,214)"/>
<path d="M0 0 C3.21321017 0.79747162 5.84695687 1.87066135 8.81005859 3.33935547 C9.88723145 3.86674316 10.9644043 4.39413086 12.07421875 4.9375 C13.78810791 5.78997314 13.78810791 5.78997314 15.53662109 6.65966797 C17.9469838 7.84427747 20.35808379 9.02715789 22.77099609 10.20654297 C23.38178009 10.50573639 23.99256409 10.80492981 24.62185669 11.1131897 C28.79503523 13.1475447 33.00180148 15.09080824 37.23974609 16.98779297 C38.3427002 17.48166504 39.4456543 17.97553711 40.58203125 18.484375 C42.68739377 19.4207689 44.79636748 20.34909318 46.90917969 21.26855469 C47.85100098 21.6889502 48.79282227 22.1093457 49.76318359 22.54248047 C50.59156738 22.90486816 51.41995117 23.26725586 52.2734375 23.640625 C54.16162109 24.78466797 54.16162109 24.78466797 55.16162109 27.78466797 C54.35717773 29.8659668 54.35717773 29.8659668 53.07177734 32.24169922 C52.61738281 33.10730469 52.16298828 33.97291016 51.69482422 34.86474609 C50.72012308 36.67564502 49.74358169 38.48555474 48.76513672 40.29443359 C45.3853002 46.65920203 45.3853002 46.65920203 45.16162109 53.78466797 C45.88994141 54.05537109 46.61826172 54.32607422 47.36865234 54.60498047 C50.08112071 55.75066641 52.38980549 57.04796029 54.84912109 58.65966797 C55.61611328 59.15208984 56.38310547 59.64451172 57.17333984 60.15185547 C59.34624274 61.9362826 60.24205002 63.14152925 61.16162109 65.78466797 C61.26139443 70.04166359 60.4334072 74.1498102 58.16162109 77.78466797 C58.65533203 78.08759766 59.14904297 78.39052734 59.65771484 78.70263672 C64.81637579 82.07600655 64.81637579 82.07600655 66.34912109 85.22216797 C66.07263388 89.00082662 64.54944858 90.89413996 62.16162109 93.78466797 C58.20260908 96.99467771 55.18252211 97.29526807 50.16162109 96.78466797 C47.39729753 95.94082183 44.83264906 94.90931132 42.16162109 93.78466797 C42.16162109 94.44466797 42.16162109 95.10466797 42.16162109 95.78466797 C42.88349609 95.88779297 43.60537109 95.99091797 44.34912109 96.09716797 C47.43908795 96.8524932 49.55720795 97.97604773 52.16162109 99.78466797 C53.60592964 102.67328506 53.53850615 104.58114498 53.16162109 107.78466797 C51.16516207 110.74715555 49.66242627 112.43086599 46.10693359 113.26904297 C40.58492027 113.61297459 37.24336845 112.08747614 32.88818359 108.78076172 C32.31841797 108.45205078 31.74865234 108.12333984 31.16162109 107.78466797 C29.67662109 108.27966797 29.67662109 108.27966797 28.16162109 108.78466797 C28.86029297 109.18298828 29.55896484 109.58130859 30.27880859 109.99169922 C31.18888672 110.52150391 32.09896484 111.05130859 33.03662109 111.59716797 C33.94154297 112.11923828 34.84646484 112.64130859 35.77880859 113.17919922 C38.16162109 114.78466797 38.16162109 114.78466797 40.16162109 117.78466797 C40.59912109 120.22216797 40.59912109 120.22216797 40.16162109 122.78466797 C37.97623897 125.47997258 36.26879107 126.6188688 32.81396484 127.13623047 C23.14212615 127.45716629 17.985244 123.10604452 11.16162109 116.78466797 C10.17162109 117.27966797 10.17162109 117.27966797 9.16162109 117.78466797 C2.55075784 116.41260201 -1.10669795 114.14167816 -5.08837891 108.72216797 C-7.77084483 104.21945732 -8.34240538 100.99294155 -7.83837891 95.78466797 C-5.33288043 89.72877703 -1.27887633 84.45861633 2.51318359 79.15966797 C4.61383648 76.1331349 6.40336642 73.01985656 8.16162109 69.78466797 C7.49001953 69.54490234 6.81841797 69.30513672 6.12646484 69.05810547 C-9.91210623 62.16933845 -24.75715072 49.93595722 -34.83837891 35.78466797 C-31.23146997 30.64755524 -27.3451484 26.16829719 -22.85400391 21.78857422 C-18.58601679 17.54540098 -14.66015526 13.07658094 -11.27587891 8.09716797 C-5.29724359 -0.40187243 -5.29724359 -0.40187243 0 0 Z " fill="#B06A3A" transform="translate(331.83837890625,296.21533203125)"/>
<path d="M0 0 C25.44234464 0.40241505 49.4699656 4.32397755 74 11 C79.42747016 30.8309318 71.84353437 53.46618595 62.4375 70.6875 C62.06157715 71.38367432 61.6856543 72.07984863 61.29833984 72.79711914 C57.91072213 78.76736876 57.91072213 78.76736876 54 80 C46.58325833 72.74527453 46.58325833 72.74527453 43.75 69.125 C41.95814791 66.94917961 40.59874921 66.02093719 38 65 C38 64.34 38 63.68 38 63 C37.34 63 36.68 63 36 63 C36 62.34 36 61.68 36 61 C35.34 61 34.68 61 34 61 C32.91139361 59.87627727 31.82422121 58.75114671 30.7421875 57.62109375 C27.6659748 54.75869852 24.19427152 52.42370225 20.77734375 49.98828125 C18.39734307 48.28445516 16.0687636 46.53540277 13.75 44.75 C9.73155737 41.72184568 5.53565933 39.28554385 1.04296875 37.0078125 C-3.80905041 34.45827901 -3.80905041 34.45827901 -4.9375 31.75 C-4.958125 31.1725 -4.97875 30.595 -5 30 C-4.34 30 -3.68 30 -3 30 C-3 26.04 -3 22.08 -3 18 C-2.34 18 -1.68 18 -1 18 C-1.27650391 17.23429687 -1.27650391 17.23429687 -1.55859375 16.453125 C-2.16961972 13.05733464 -1.5975527 10.14915833 -1.0625 6.75 C-0.86785156 5.48671875 -0.67320312 4.2234375 -0.47265625 2.921875 C-0.23869141 1.47554687 -0.23869141 1.47554687 0 0 Z " fill="#B06A3A" transform="translate(275,199)"/>
<path d="M0 0 C4.13773812 2.30640588 7.68387651 5.09614108 11.25 8.1875 C11.84844727 8.7043335 12.44689453 9.22116699 13.06347656 9.75366211 C28.18440193 22.93118818 42.53695096 36.44582024 54 53 C47.15490099 69.22194698 35.15607266 82.50593491 23 95 C22.17991455 95.85078125 22.17991455 95.85078125 21.34326172 96.71875 C19.69503677 98.42456525 18.03762629 100.12072686 16.375 101.8125 C15.61110962 102.59620972 15.61110962 102.59620972 14.83178711 103.39575195 C13.59313435 104.63693645 12.30084286 105.8241567 11 107 C10.34 107 9.68 107 9 107 C8.83564453 105.92081299 8.83564453 105.92081299 8.66796875 104.81982422 C7.27860341 95.73953103 5.85173491 86.66550464 4.39550781 77.59570312 C4.13015917 75.93809307 3.86650809 74.28021044 3.60449219 72.62207031 C3.21958033 70.18747893 2.82910918 67.75383446 2.4375 65.3203125 C2.322854 64.58789337 2.20820801 63.85547424 2.09008789 63.1008606 C1.36166679 58.62015319 0.30455061 54.35674457 -1 50 C-2.16470588 44.49411765 -2.16470588 44.49411765 -1 41 C-1.66 40.67 -2.32 40.34 -3 40 C-3.4921875 37.83984375 -3.4921875 37.83984375 -3.875 34.9375 C-4.75720932 29.00393085 -6.10968247 23.30217834 -7.67919922 17.52124023 C-9.58250328 10.31227354 -9.58250328 10.31227354 -9 7 C-7.03125 4.98046875 -7.03125 4.98046875 -4.5 3.1875 C-3.6646875 2.58292969 -2.829375 1.97835937 -1.96875 1.35546875 C-1.3190625 0.90816406 -0.669375 0.46085938 0 0 Z " fill="#B06A3A" transform="translate(269,235)"/>
<path d="M0 0 C8.18982074 0.5218029 16.09010601 2.46664154 24.0625 4.30859375 C25.50451124 4.63887808 26.94656935 4.96895784 28.38867188 5.29884338 C31.39160712 5.987144 34.39359458 6.67941215 37.39501953 7.37426758 C41.24769243 8.26562254 45.10309066 9.14452337 48.95933533 10.02027798 C51.92882823 10.69648703 54.89651938 11.38034525 57.86373901 12.06645393 C59.28574959 12.39404875 60.7083806 12.71896223 62.13162231 13.04116631 C64.11040722 13.49009322 66.08653559 13.95068226 68.0625 14.41186523 C69.75052734 14.80038918 69.75052734 14.80038918 71.47265625 15.19676208 C72.30667969 15.4618306 73.14070313 15.72689911 74 16 C75 18 75 18 74.1015625 21.3515625 C63.84853367 51.95084266 63.84853367 51.95084266 53 59 C49.91350074 59.34355027 48.05673978 58.85803222 45 58 C45 57.34 45 56.68 45 56 C44.19175781 55.81824219 44.19175781 55.81824219 43.3671875 55.6328125 C34.13391631 53.16451228 25.54500788 48.92178733 17.09375 44.55078125 C14.42124562 43.21115469 11.77403262 42.10285662 9 41 C7.39832452 40.29948336 5.8007198 39.58959547 4.20703125 38.87109375 C3.32982422 38.47599609 2.45261719 38.08089844 1.54882812 37.67382812 C0.64583984 37.26583984 -0.25714844 36.85785156 -1.1875 36.4375 C-2.10208984 36.02564453 -3.01667969 35.61378906 -3.95898438 35.18945312 C-10.70453477 32.14773261 -10.70453477 32.14773261 -13 31 C-10.86156945 24.14686945 -8.22938884 17.58350975 -5.375 11 C-4.96765625 10.04738281 -4.5603125 9.09476562 -4.140625 8.11328125 C-1.13375235 1.13375235 -1.13375235 1.13375235 0 0 Z " fill="#71532C" transform="translate(348,260)"/>
<path d="M0 0 C11.27365545 -0.38269253 22.40366488 0.65736392 33.62182617 1.65405273 C36.82229211 1.93836989 40.02335053 2.21500196 43.22460938 2.49023438 C45.28128838 2.66882936 47.33793041 2.84785087 49.39453125 3.02734375 C50.34052689 3.10967758 51.28652252 3.19201141 52.26118469 3.27684021 C57.52483949 3.74559192 62.76059389 4.31043298 68 5 C72.1266647 17.25717669 71.92742304 27.72680299 68 40 C63.05 39.67 58.1 39.34 53 39 C53 38.34 53 37.68 53 37 C52.14341797 37.05220703 52.14341797 37.05220703 51.26953125 37.10546875 C44.93304061 37.3170209 39.39087834 36.32959012 33.25390625 34.80078125 C30.17939195 34.04414808 27.11183628 33.39466049 24 32.8125 C23.154375 32.65394531 22.30875 32.49539063 21.4375 32.33203125 C18.9278888 31.99017716 16.52955926 31.94127809 14 32 C14 31.34 14 30.68 14 30 C13.39414062 30.02320313 12.78828125 30.04640625 12.1640625 30.0703125 C5.85124971 30.20628078 0.13568071 29.46211966 -6 28 C-7.1893478 24.4319566 -6.71264183 23.08631272 -5.75 19.5 C-5.46898437 18.44039062 -5.18796875 17.38078125 -4.8984375 16.2890625 C-4.60195313 15.20367187 -4.30546875 14.11828125 -4 13 C-3.72414063 11.95585937 -3.44828125 10.91171875 -3.1640625 9.8359375 C-1.16242938 2.32485876 -1.16242938 2.32485876 0 0 Z " fill="#71532C" transform="translate(357,230)"/>
<path d="M0 0 C2.21606396 1.52115627 3.4055912 2.9947114 4.9206543 5.21069336 C5.4446582 5.96672852 5.96866211 6.72276367 6.50854492 7.50170898 C7.31001953 8.68603516 7.31001953 8.68603516 8.12768555 9.89428711 C9.20394141 11.45847951 10.28073573 13.02230161 11.3581543 14.58569336 C11.83019287 15.27993408 12.30223145 15.9741748 12.78857422 16.68945312 C13.8391151 18.28837996 13.8391151 18.28837996 14.94018555 19.33178711 C15.02704158 20.89351456 15.04720774 22.45908055 15.0378418 24.02319336 C15.03300781 25.43955078 15.03300781 25.43955078 15.02807617 26.88452148 C15.01550781 28.37435547 15.01550781 28.37435547 15.00268555 29.89428711 C14.99817383 30.89137695 14.99366211 31.8884668 14.98901367 32.91577148 C14.97718561 35.3878356 14.96070404 37.85978229 14.94018555 40.33178711 C7.09086267 41.24851172 -0.75887973 42.16152159 -8.60917854 43.06984711 C-12.25472136 43.4917748 -15.9001088 43.91496034 -19.54516602 44.34106445 C-23.06558332 44.75255064 -26.58637581 45.16067522 -30.10744858 45.56651306 C-32.09844149 45.7968711 -34.0890352 46.03067103 -36.07962036 46.26452637 C-37.30043304 46.40467163 -38.52124573 46.54481689 -39.77905273 46.68920898 C-40.84938751 46.81356323 -41.91972229 46.93791748 -43.02249146 47.06604004 C-46.05203668 47.3311066 -49.0204082 47.37860139 -52.05981445 47.33178711 C-52.83739724 45.54303937 -53.6064494 43.75058314 -54.37231445 41.95678711 C-54.80157227 40.95905273 -55.23083008 39.96131836 -55.6730957 38.93334961 C-57.3925543 34.46760082 -58.73867732 29.92849458 -60.05981445 25.33178711 C-58.59680908 24.68330811 -58.59680908 24.68330811 -57.10424805 24.02172852 C-54.19324116 22.73120271 -51.28268027 21.43967591 -48.37231445 20.14770508 C-45.07385741 18.68347139 -41.77422147 17.22193672 -38.47387695 15.76196289 C-31.25455979 12.56377074 -24.04618834 9.3556735 -16.91137695 5.97241211 C-15.39858154 5.25964111 -15.39858154 5.25964111 -13.85522461 4.5324707 C-12.03342106 3.66850623 -10.21758813 2.79180177 -8.40893555 1.90063477 C-7.61310059 1.52471191 -6.81726563 1.14878906 -5.99731445 0.76147461 C-5.32571289 0.4338916 -4.65411133 0.10630859 -3.9621582 -0.23120117 C-2.05981445 -0.66821289 -2.05981445 -0.66821289 0 0 Z " fill="#B06A3A" transform="translate(340.059814453125,73.668212890625)"/>
<path d="M0 0 C3.68007238 35.97842307 5.32318589 71.84547055 6 108 C-0.625 112 -0.625 112 -4 112 C-4.495 112.99 -4.495 112.99 -5 114 C-7.3140622 114.73075648 -9.64828869 115.40138258 -12 116 C-13.41464367 107.18373857 -14.1295921 98.67473925 -14 89.75 C-13.87765549 80.70947019 -14.28761993 71.76766207 -14.9375 62.75 C-15.02451172 61.51733398 -15.11152344 60.28466797 -15.20117188 59.01464844 C-15.38942273 53.33025445 -15.38942273 53.33025445 -17 48 C-17 45.86195974 -16.99687198 43.72384062 -16.97265625 41.5859375 C-17.02841965 36.31231331 -17.32784117 31.0164765 -19 26 C-19.14403348 24.66636297 -19.24590423 23.32781954 -19.31640625 21.98828125 C-19.35830078 21.23095703 -19.40019531 20.47363281 -19.44335938 19.69335938 C-19.48267578 18.90767578 -19.52199219 18.12199219 -19.5625 17.3125 C-19.60568359 16.51521484 -19.64886719 15.71792969 -19.69335938 14.89648438 C-19.79927368 12.93118553 -19.90012551 10.96561504 -20 9 C-17.23456804 7.48987869 -14.46183193 5.99369852 -11.6875 4.5 C-10.90181641 4.07074219 -10.11613281 3.64148438 -9.30664062 3.19921875 C-8.54931641 2.79316406 -7.79199219 2.38710937 -7.01171875 1.96875 C-6.31522217 1.59169922 -5.61872559 1.21464844 -4.90112305 0.82617188 C-3 0 -3 0 0 0 Z " fill="#AF6A3A" transform="translate(257,245)"/>
<path d="M0 0 C1.81274414 0.18896484 1.81274414 0.18896484 4 1 C5.53295898 3.13525391 5.53295898 3.13525391 6.99609375 5.9765625 C7.54910156 7.02956543 8.10210937 8.08256836 8.671875 9.16748047 C9.54585938 10.87895264 9.54585938 10.87895264 10.4375 12.625 C11.67303318 14.9962885 12.91087817 17.36620385 14.15234375 19.734375 C14.46702606 20.33768646 14.78170837 20.94099792 15.10592651 21.56259155 C17.26176145 25.67215833 19.53086738 29.69901306 21.87890625 33.703125 C22.48742432 34.74388184 23.09594238 35.78463867 23.72290039 36.85693359 C24.89111018 38.84091621 26.07098803 40.81808282 27.26342773 42.78759766 C27.78493408 43.6801123 28.30644043 44.57262695 28.84375 45.4921875 C29.30974609 46.26933105 29.77574219 47.04647461 30.25585938 47.84716797 C31 50 31 50 30.35473633 52.09765625 C28.89580203 54.14631655 27.49317742 55.44204247 25.48046875 56.9453125 C24.44116211 57.72455078 24.44116211 57.72455078 23.38085938 58.51953125 C22.65705078 59.04933594 21.93324219 59.57914062 21.1875 60.125 C20.47529297 60.66253906 19.76308594 61.20007813 19.02929688 61.75390625 C15.4382435 64.41812902 12.21931517 66.44086259 8 68 C7.67 68.66 7.34 69.32 7 70 C5.67532254 70.6837045 4.34136367 71.34964186 3 72 C2.01 72.99 2.01 72.99 1 74 C-0.81155109 75.07910296 -2.6483138 76.11631831 -4.5 77.125 C-5.4796875 77.66382813 -6.459375 78.20265625 -7.46875 78.7578125 C-10 80 -10 80 -12 80 C-12.1774048 72.28083811 -12.34332806 64.56150091 -12.49477577 56.84178734 C-12.56546333 53.25684356 -12.64003763 49.67207021 -12.72363281 46.08740234 C-12.80422813 42.62514039 -12.87443291 39.16280659 -12.93757248 35.70018387 C-12.97594297 33.74254552 -13.02494808 31.78512492 -13.0741272 29.82772827 C-13.09429901 28.62693634 -13.11447083 27.42614441 -13.13525391 26.18896484 C-13.15746002 25.13639496 -13.17966614 24.08382507 -13.20254517 22.99935913 C-12.76462781 16.51452694 -10.61210329 13.38712264 -6 9 C-5.443125 8.071875 -4.88625 7.14375 -4.3125 6.1875 C-3.6628125 5.1046875 -3.6628125 5.1046875 -3 4 C-2.34 4 -1.68 4 -1 4 C-0.67 2.68 -0.34 1.36 0 0 Z " fill="#70532C" transform="translate(275,343)"/>
<path d="M0 0 C10.18359231 2.86150528 19.72629759 8.12795623 27.125 15.6875 C25.91120323 23.8806282 17.27140321 29.06363259 11.125 33.6875 C3.30099298 39.4053644 -4.76862738 44.73989116 -13.0625 49.75 C-13.67383789 50.11996094 -14.28517578 50.48992187 -14.91503906 50.87109375 C-18.13759391 52.78128782 -21.29218688 54.56110938 -24.875 55.6875 C-27.6429006 54.3035497 -28.29465441 52.33146721 -29.875 49.6875 C-31.23451623 48.05244128 -32.63094118 46.44736788 -34.0625 44.875 C-34.77792969 44.08480469 -35.49335938 43.29460937 -36.23046875 42.48046875 C-36.77316406 41.88878906 -37.31585938 41.29710937 -37.875 40.6875 C-32.61986804 30.05993402 -32.61986804 30.05993402 -29.875 28.6875 C-29.545 27.6975 -29.215 26.7075 -28.875 25.6875 C-27.24316532 23.98671456 -25.56998905 22.32535459 -23.875 20.6875 C-22.01593922 18.71091239 -20.19695628 16.69828649 -18.375 14.6875 C-15.6835429 11.71709636 -12.98211171 8.79415266 -10.140625 5.96484375 C-7.83452972 3.76787357 -7.83452972 3.76787357 -6.125 1.25 C-3.875 -0.3125 -3.875 -0.3125 0 0 Z " fill="#B06A3A" transform="translate(304.875,39.3125)"/>
<path d="M0 0 C12.33279093 1.03882193 24.69091631 4.22656697 36.8125 6.625 C38.96935282 7.04972412 41.1262535 7.47420527 43.28320312 7.8984375 C48.52269145 8.92949104 53.76152096 9.96383133 59 11 C59 16.94 59 22.88 59 29 C52.24848076 31.25050641 52.24848076 31.25050641 48.65234375 32.03515625 C47.88212891 32.20466797 47.11191406 32.37417969 46.31835938 32.54882812 C45.53267578 32.71833984 44.74699219 32.88785156 43.9375 33.0625 C43.14794922 33.23587891 42.35839844 33.40925781 41.54492188 33.58789062 C38.5757101 34.23748348 35.60734646 34.88024154 32.62524414 35.46826172 C29.66522687 36.06780767 26.72494315 36.73500741 23.78125 37.41015625 C22.60175781 37.67763672 21.42226562 37.94511719 20.20703125 38.22070312 C17.73483075 38.78209323 15.2634716 39.34720122 12.79296875 39.91601562 C11.61347656 40.18220703 10.43398438 40.44839844 9.21875 40.72265625 C8.14560547 40.96765869 7.07246094 41.21266113 5.96679688 41.46508789 C3.22955908 41.9586106 0.77212206 42.10482006 -2 42 C-2.19534474 39.58373582 -2.38153404 37.16734771 -2.5625 34.75 C-2.61857422 34.06808594 -2.67464844 33.38617188 -2.73242188 32.68359375 C-2.98841 29.16802354 -2.84815029 26.38116629 -2 23 C-1.8674084 21.27989736 -1.77715064 19.55624788 -1.71875 17.83203125 C-1.68136719 16.85685547 -1.64398438 15.88167969 -1.60546875 14.87695312 C-1.5347534 12.82227945 -1.46444546 10.76759172 -1.39453125 8.71289062 C-1.35714844 7.74158203 -1.31976563 6.77027344 -1.28125 5.76953125 C-1.25095703 4.87854736 -1.22066406 3.98756348 -1.18945312 3.06958008 C-1 1 -1 1 0 0 Z " fill="#53372D" transform="translate(49,24)"/>
<path d="M0 0 C0.88602402 0.00222061 1.77204803 0.00444122 2.68492126 0.00672913 C3.68588333 0.00680466 4.6868454 0.00688019 5.71813965 0.00695801 C6.80666733 0.01211929 7.89519501 0.01728058 9.01670837 0.02259827 C10.67928932 0.02472069 10.67928932 0.02472069 12.37545776 0.02688599 C15.93168281 0.03250418 19.48784596 0.04505977 23.04405212 0.05775452 C25.44834809 0.06276717 27.85264504 0.06733048 30.25694275 0.07142639 C36.16516716 0.08247952 42.07335522 0.09923535 47.98155212 0.12025452 C49.39099399 4.44241576 50.79672151 8.76576098 52.19908142 13.09022522 C52.67626202 14.5599544 53.15444044 16.02936002 53.63365173 17.49842834 C54.32388749 19.61500798 55.01047857 21.7327408 55.69639587 23.85072327 C55.90997238 24.503004 56.12354889 25.15528473 56.34359741 25.82733154 C57.44307833 29.23493399 58.36549587 32.59193235 58.98155212 36.12025452 C49.82341076 35.33534585 40.78253952 33.92121279 31.7061615 32.49330139 C26.04847463 31.62800811 20.69784617 31.0029571 14.98155212 31.12025452 C13.99155212 30.79025452 13.00155212 30.46025452 11.98155212 30.12025452 C9.24289926 30.04974337 6.53127625 30.02667686 3.79405212 30.05775452 C3.04446228 30.06226624 2.29487244 30.06677795 1.52256775 30.07142639 C-0.3244717 30.08319097 -2.17147001 30.10112586 -4.01844788 30.12025452 C-4.21238663 27.97499353 -4.39843464 25.82901775 -4.58094788 23.68275452 C-4.73756897 21.89031311 -4.73756897 21.89031311 -4.89735413 20.06166077 C-4.93731506 19.0909967 -4.977276 18.12033264 -5.01844788 17.12025452 C-4.68844788 16.79025452 -4.35844788 16.46025452 -4.01844788 16.12025452 C-3.80781681 13.61608516 -3.6427271 11.12885371 -3.51844788 8.62025452 C-3.10054082 0.18472314 -3.10054082 0.18472314 0 0 Z " fill="#B06A3A" transform="translate(279.01844787597656,163.87974548339844)"/>
<path d="M0 0 C-2.80829496 5.21540492 -5.97779279 9.69433437 -9.75 14.25 C-10.74753262 15.46128961 -11.74225779 16.67489588 -12.734375 17.890625 C-13.27642578 18.52121826 -13.81847656 19.15181152 -14.37695312 19.80151367 C-16.13032456 22.01110228 -16.13032456 22.01110228 -17.29492188 24.91137695 C-19.18079891 28.63838649 -20.56976612 30.55985392 -24 33 C-32.10641948 34.89556248 -40.7548369 34.02654148 -49 33.6875 C-51.32410357 33.63228756 -53.6483324 33.58210368 -55.97265625 33.53710938 C-61.65118099 33.41624735 -67.32501006 33.23254305 -73 33 C-73.33 31.68 -73.66 30.36 -74 29 C-73.34 29 -72.68 29 -72 29 C-72.01160156 28.09378906 -72.02320313 27.18757813 -72.03515625 26.25390625 C-72.13555713 12.69978708 -72.13555713 12.69978708 -71 6 C-68.39675132 4.69837566 -66.20748674 4.66611893 -63.30029297 4.42749023 C-62.10499969 4.32746201 -60.90970642 4.22743378 -59.67819214 4.12437439 C-58.37931061 4.02016678 -57.08042908 3.91595917 -55.7421875 3.80859375 C-54.39655384 3.69819063 -53.05094254 3.58751469 -51.70535278 3.47657776 C-48.87929775 3.24451449 -46.0530254 3.01537026 -43.2265625 2.78833008 C-39.62183551 2.49860039 -36.01768175 2.20235133 -32.41366386 1.90394497 C-29.63072242 1.67415617 -26.84752637 1.44758143 -24.06424332 1.22197151 C-22.09452509 1.06183256 -20.12500352 0.89928068 -18.15548706 0.73667908 C-12.08235272 0.25213094 -6.09259508 -0.1291329 0 0 Z " fill="#B06A3A" transform="translate(355,124)"/>
<path d="M0 0 C5.75708091 4.47387613 9.41439064 9.35460444 10.34765625 16.7578125 C10.71578458 24.13925751 9.56177481 30.06546888 5 36 C-0.13794297 40.55236858 -6.18964696 44.16184752 -13.21875 43.86328125 C-24.85995308 41.90922216 -24.85995308 41.90922216 -29 39 C-30.1875 37.0625 -30.1875 37.0625 -31 35 C-31.495 34.38125 -31.99 33.7625 -32.5 33.125 C-35.98082392 28.19383278 -37.05229187 21.96127375 -37 16 C-35.10187261 9.23792117 -30.75696624 3.48838023 -24.89453125 -0.39453125 C-16.95341111 -4.37211886 -7.75975309 -4.5560376 0 0 Z " fill="#55382E" transform="translate(43,389)"/>
<path d="M0 0 C2.29100996 0.60226022 4.54632586 1.25206605 6.8125 1.9375 C8.07707031 2.29714844 9.34164062 2.65679687 10.64453125 3.02734375 C14.44925565 5.26411421 15.2335253 6.81353792 16.33911133 11.01391602 C16.66625122 12.49202759 16.66625122 12.49202759 17 14 C17.4479895 15.89673462 17.4479895 15.89673462 17.9050293 17.83178711 C18.9632039 22.37772831 19.95179669 26.9378967 20.9375 31.5 C25.72880346 54.29792135 25.72880346 54.29792135 31.875 76.75 C33.44333971 81.83780706 34.99669261 86.92305673 36.40234375 92.05859375 C39.4636374 103.21867192 43.05153769 114.07166377 47.10473633 124.91479492 C47.48009521 125.92517822 47.8554541 126.93556152 48.2421875 127.9765625 C48.5810498 128.87455566 48.91991211 129.77254883 49.26904297 130.69775391 C50 133 50 133 50 136 C47.03 136.99 44.06 137.98 41 139 C30.40646924 113.91825806 21.7962783 88.03747713 14.75585938 61.74902344 C13.55124334 57.36789405 12.21053826 53.03012599 10.875 48.6875 C8.35478132 40.43303869 6.20598168 32.11656619 4.171875 23.73046875 C3.42230117 20.6538317 2.62492956 17.59858449 1.765625 14.55078125 C1.57307129 13.86346924 1.38051758 13.17615723 1.18212891 12.46801758 C0.66260503 10.63283704 0.13249305 8.80066305 -0.3984375 6.96875 C-0.97481558 4.12428676 -1.00968274 2.67500362 0 0 Z " fill="#99552A" transform="translate(51,200)"/>
<path d="M0 0 C14.87949989 0.32669561 29.58645868 4.70821914 43 11 C41.24672925 15.23531068 38.27048206 18.44992213 35.375 21.9375 C27.76995765 31.27946828 21.75753878 40.90628458 17 52 C13.56185066 51.52541842 10.1246099 51.04454738 6.6875 50.5625 C5.71103516 50.42779297 4.73457031 50.29308594 3.72851562 50.15429688 C2.79072266 50.02216797 1.85292969 49.89003906 0.88671875 49.75390625 C-0.40939331 49.57323608 -0.40939331 49.57323608 -1.73168945 49.38891602 C-4 49 -4 49 -7 48 C-6.72803996 37.99187066 -5.71795611 28.25326096 -4.0625 18.375 C-3.89266602 17.35664062 -3.72283203 16.33828125 -3.54785156 15.2890625 C-2.64349377 10.0799616 -1.57644833 5.04746238 0 0 Z " fill="#B06A3A" transform="translate(244,26)"/>
<path d="M0 0 C5.42046332 3.24311019 8.57007329 8.16995468 11 13.875 C12.06965061 20.76830394 11.59999489 27.63912033 7.5625 33.5 C2.04854361 39.15748671 -2.3379621 42.54376758 -10.375 42.6875 C-14.14541708 42.6142333 -17.73778845 42.27888664 -21.4375 41.5 C-21.4375 40.84 -21.4375 40.18 -21.4375 39.5 C-22.03046875 39.24089844 -22.6234375 38.98179687 -23.234375 38.71484375 C-25.59608141 37.41255529 -26.94636446 36.10701522 -28.6875 34.0625 C-29.20828125 33.46566406 -29.7290625 32.86882812 -30.265625 32.25390625 C-31.4375 30.5 -31.4375 30.5 -31.4375 27.5 C-32.0975 27.17 -32.7575 26.84 -33.4375 26.5 C-33.82779836 18.30373439 -32.82284166 12.1120888 -28.25 5.1875 C-20.56595721 -2.15502978 -10.05581895 -4.32342312 0 0 Z " fill="#55392E" transform="translate(100.4375,146.5)"/>
<path d="M0 0 C10.89 0 21.78 0 33 0 C32.38125 2.866875 31.7625 5.73375 31.125 8.6875 C28.72632975 20.04036863 26.87127551 31.19605251 26.34106445 42.79760742 C26.0990963 47.8018074 26.0990963 47.8018074 25 50 C16.09 50 7.18 50 -2 50 C-2.76920264 44.61558153 -3.03013995 40.02293306 -2.6953125 34.6875 C-2.65187714 33.91494873 -2.60844177 33.14239746 -2.56369019 32.34643555 C-2.47102953 30.72262873 -2.37504142 29.09900867 -2.27587891 27.47558594 C-2.12545978 25.00754404 -1.98568298 22.53907538 -1.84765625 20.0703125 C-1.75583271 18.48433873 -1.66340493 16.8983998 -1.5703125 15.3125 C-1.52858917 14.58313232 -1.48686584 13.85376465 -1.44387817 13.10229492 C-1.40068451 12.40467041 -1.35749084 11.7070459 -1.31298828 10.98828125 C-1.2766629 10.38540283 -1.24033752 9.78252441 -1.20291138 9.16137695 C-0.91502461 6.09485677 -0.43557835 3.04904843 0 0 Z " fill="#B06A3A" transform="translate(205,24)"/>
<path d="M0 0 C0.66 0.33 1.32 0.66 2 1 C2.51755714 4.02299733 2.90415837 6.98056583 3.22094727 10.02685547 C3.3269223 10.97493576 3.43289734 11.92301605 3.54208374 12.89982605 C3.89244153 16.05470097 4.22946643 19.21085359 4.56640625 22.3671875 C4.80699235 24.55909685 5.04837162 26.75091928 5.29051208 28.94265747 C5.92805605 34.73426462 6.55420416 40.52705154 7.17822266 46.32012939 C7.81142541 52.17775771 8.45624602 58.03410569 9.09960938 63.890625 C10.04144545 72.48621417 10.9805163 81.08209682 11.90844727 89.67919922 C12.00456802 90.56380325 12.10068878 91.44840729 12.19972229 92.3598175 C12.86721152 98.56750428 13.45101706 104.78075533 14 111 C8.25 114 8.25 114 6 114 C3.44403339 102.82732776 1.48227474 91.57727859 -0.44091797 80.28222656 C-1.22596517 75.6734167 -2.01742164 71.06571999 -2.81030273 66.45825195 C-3.22895949 64.02469751 -3.64643711 61.59093993 -4.06274414 59.15698242 C-5.14633301 52.84573595 -6.26129933 46.54223161 -7.4296875 40.24609375 C-7.66115479 38.98885498 -7.89262207 37.73161621 -8.13110352 36.4362793 C-8.57272478 34.04715732 -9.02073387 31.65920376 -9.47631836 29.27270508 C-12.41115546 13.33988727 -12.41115546 13.33988727 -9.96020508 9.27587891 C-8.56402585 7.68088695 -7.10946174 6.31562633 -5.5 4.9375 C-4.71302734 4.21143555 -4.71302734 4.21143555 -3.91015625 3.47070312 C-2.62643831 2.29201665 -1.31579044 1.14277254 0 0 Z " fill="#99552A" transform="translate(203,221)"/>
<path d="M0 0 C2.11891603 1.32558605 3.76060073 2.72163983 5.54316711 4.4715271 C6.2067775 5.11915009 6.87038788 5.76677307 7.55410767 6.434021 C8.2584343 7.13298492 8.96276093 7.83194885 9.68843079 8.55209351 C10.41761215 9.2722464 11.14679352 9.99239929 11.89807129 10.734375 C13.43467138 12.25648499 14.96848989 13.78140747 16.49971008 15.30892944 C18.85299022 17.65026399 21.22427342 19.97230215 23.59663391 22.29428101 C25.08671147 23.77490014 26.57568276 25.25663363 28.06343079 26.73959351 C28.77787857 27.43450897 29.49232635 28.12942444 30.22842407 28.84539795 C30.87627365 29.49932526 31.52412323 30.15325256 32.19160461 30.82699585 C32.76800186 31.39832245 33.34439911 31.96964905 33.93826294 32.55828857 C35.04389954 34.27865601 35.04389954 34.27865601 34.84521484 36.34863281 C31.60232834 44.15934865 21.7109686 50.41523848 15.04389954 55.27865601 C11.40153805 52.85041501 10.38848512 50.62982031 8.35639954 46.77865601 C8.0360675 46.18439819 7.71573547 45.59014038 7.38569641 44.97787476 C5.04389954 40.55392586 5.04389954 40.55392586 5.04389954 38.27865601 C4.38389954 37.94865601 3.72389954 37.61865601 3.04389954 37.27865601 C1.76955237 35.06799272 0.57911365 32.86081083 -0.58110046 30.59115601 C-3.73818401 24.52170699 -7.03383988 18.56103601 -10.51713562 12.67245483 C-12.95610046 8.49110922 -12.95610046 8.49110922 -12.95610046 6.27865601 C-10.69047546 4.48178101 -10.69047546 4.48178101 -7.70610046 2.52865601 C-6.24430359 1.54639038 -6.24430359 1.54639038 -4.75297546 0.54428101 C-1.95610046 -0.72134399 -1.95610046 -0.72134399 0 0 Z " fill="#71532C" transform="translate(294.9561004638672,337.7213439941406)"/>
<path d="M0 0 C2.52261035 1.05108764 4.61162977 2.38781764 6.859375 3.94140625 C7.65859375 4.48925781 8.4578125 5.03710938 9.28125 5.6015625 C9.88453125 6.02308594 10.4878125 6.44460937 11.109375 6.87890625 C9.54987298 14.8011765 7.17111159 22.43204564 4.7409668 30.11987305 C4.04116852 32.33446506 3.34731262 34.55085534 2.65429688 36.76757812 C2.21127958 38.17849287 1.76793234 39.58930407 1.32421875 41 C1.11691635 41.66140488 0.90961395 42.32280975 0.69602966 43.0042572 C-0.05453825 45.37390371 -0.77702581 47.65170788 -1.890625 49.87890625 C-6.95542545 48.19400251 -11.11099981 45.25157031 -15.515625 42.31640625 C-17.02662197 41.31205269 -18.5395655 40.31061984 -20.0546875 39.3125 C-20.71936035 38.86962646 -21.3840332 38.42675293 -22.06884766 37.97045898 C-24.00693302 36.71995146 -24.00693302 36.71995146 -26.890625 35.87890625 C-26.890625 35.21890625 -26.890625 34.55890625 -26.890625 33.87890625 C-28.540625 33.21890625 -30.190625 32.55890625 -31.890625 31.87890625 C-31.890625 27.87890625 -31.890625 27.87890625 -29.51171875 25.328125 C-28.45983864 24.39691947 -27.39801795 23.47685921 -26.328125 22.56640625 C-25.21634806 21.58718483 -24.1056653 20.60671968 -22.99609375 19.625 C-22.45774902 19.15304199 -21.9194043 18.68108398 -21.36474609 18.19482422 C-19.54975498 16.57461851 -17.83681742 14.87254462 -16.140625 13.12890625 C-13.13368655 10.06300822 -9.9489838 7.24886138 -6.6875 4.45703125 C-4.85825742 2.93030251 -4.85825742 2.93030251 -3.40625 1.11328125 C-1.890625 -0.12109375 -1.890625 -0.12109375 0 0 Z " fill="#54382D" transform="translate(109.890625,62.12109375)"/>
<path d="M0 0 C7.33333333 1 7.33333333 1 10 3 C11.5577794 7.01433357 12.40917661 10.89332217 13 15.1484375 C13.16387207 16.30972168 13.32774414 17.47100586 13.49658203 18.66748047 C13.74577393 20.50270264 13.74577393 20.50270264 14 22.375 C14.17515137 23.64359863 14.35030273 24.91219727 14.53076172 26.21923828 C14.87446895 28.72000471 15.2155423 31.22113484 15.55371094 33.72265625 C15.8999667 36.26540099 16.25908996 38.80497043 16.6328125 41.34375 C19.61377082 62.73094301 20.38136151 84.43188802 20 106 C17.03 106 14.06 106 11 106 C10.96559814 105.20045898 10.93119629 104.40091797 10.89575195 103.57714844 C9.45867502 71.93026364 6.77082939 40.09834803 0.69921875 8.97265625 C0.11770785 5.93743593 -0.16926721 3.10323224 0 0 Z " fill="#99552A" transform="translate(145,220)"/>
<path d="M0 0 C2.25 1.0625 2.25 1.0625 4.25 4.0625 C4.52124023 7.2668457 4.52124023 7.2668457 4.55859375 11.23828125 C4.5813546 12.71021183 4.60456594 14.1821355 4.62817383 15.65405273 C4.63732819 16.42482147 4.64648254 17.19559021 4.65591431 17.98971558 C4.91073425 37.23317634 6.83005365 55.64223675 10.97973633 74.45874023 C11.98417304 79.10970829 12.4337969 83.30279399 12.25 88.0625 C8.37315913 89.25537411 5.33378077 90.0625 1.25 90.0625 C-2.07562964 72.193924 -4.55915777 54.31080226 -6.5625 36.25 C-6.67322845 35.26528717 -6.78395691 34.28057434 -6.89804077 33.26602173 C-7.21591576 30.42150735 -7.52570193 27.57624759 -7.83203125 24.73046875 C-7.92553864 23.88769379 -8.01904602 23.04491882 -8.11538696 22.17660522 C-9.62222806 7.77098795 -9.62222806 7.77098795 -7.61328125 3.8359375 C-3.44632042 0.07832546 -3.44632042 0.07832546 0 0 Z " fill="#99552A" transform="translate(126.75,207.9375)"/>
<path d="M0 0 C2.58913312 5.37314722 1.90711764 12.35306194 0.328125 17.97265625 C-1.37127719 22.01629309 -3.16304008 25.8597212 -6.91015625 28.26171875 C-13.75561481 30.40513282 -20.16338046 30.93062403 -26.91015625 28.26171875 C-30.33437868 26.05024176 -31.61923474 25.13448328 -32.91015625 21.26171875 C-33.18335812 18.3081239 -33.18730396 15.35159776 -33.22265625 12.38671875 C-33.25166016 11.58363281 -33.28066406 10.78054687 -33.31054688 9.953125 C-33.35434395 5.86315231 -33.24697216 3.79645741 -31.015625 0.25390625 C-27.17293381 -3.38203532 -23.28322688 -3.12383789 -18.22265625 -3.42578125 C-17.43181641 -3.48572266 -16.64097656 -3.54566406 -15.82617188 -3.60742188 C-10.1026396 -3.95244075 -4.48929794 -4.08535293 0 0 Z " fill="#53372E" transform="translate(477.91015625,159.73828125)"/>
<path d="M0 0 C0 13.86 0 27.72 0 42 C-12.52307692 42 -12.52307692 42 -17.625 41.5625 C-18.62789062 41.48128906 -19.63078125 41.40007812 -20.6640625 41.31640625 C-23 41 -23 41 -24 40 C-24.08861992 37.1883662 -24.11522355 34.40141745 -24.09765625 31.58984375 C-24.0962413 30.74780899 -24.09482635 29.90577423 -24.09336853 29.03822327 C-24.08775263 26.33794665 -24.07519748 23.63775172 -24.0625 20.9375 C-24.05748705 19.11132932 -24.05292379 17.28515734 -24.04882812 15.45898438 C-24.03777804 10.97262458 -24.02050279 6.48632616 -24 2 C-21.50072231 1.66029235 -19.00080405 1.32811968 -16.5 1 C-15.80390625 0.90460937 -15.1078125 0.80921875 -14.390625 0.7109375 C-13.69453125 0.62070312 -12.9984375 0.53046875 -12.28125 0.4375 C-11.65283203 0.35371094 -11.02441406 0.26992188 -10.37695312 0.18359375 C-6.92770103 -0.08282342 -3.4595257 0 0 0 Z " fill="#B06A3A" transform="translate(197,26)"/>
<path d="M0 0 C4.70077893 2.68993916 8.09370431 5.87291031 9.70703125 11.12890625 C10.53478036 17.1229515 10.16003297 22.00893819 6.70703125 27.12890625 C3.38869116 31.07504041 0.80681784 33.16668237 -4.29296875 34.12890625 C-10.60479262 34.21127916 -15.47921914 33.4948652 -20.29296875 29.12890625 C-23.83367303 24.89320962 -26.12899637 20.93947384 -25.7109375 15.2109375 C-24.57296414 9.54234122 -22.74346504 5.31298486 -18.23046875 1.62890625 C-12.44529034 -1.32522741 -6.21595848 -2.36142886 0 0 Z " fill="#54382E" transform="translate(241.29296875,126.87109375)"/>
<path d="M0 0 C3.29318721 8.3375672 6.26318136 16.71594705 9 25.25 C12.58856172 36.23987229 16.61331889 47.00681313 20.875 57.75 C21.29894043 58.81909607 21.29894043 58.81909607 21.73144531 59.90979004 C24.68145536 67.44046606 24.68145536 67.44046606 27.84234619 74.88244629 C29.1364055 77.77591859 30 79.79043358 30 83 C25.545 83.495 25.545 83.495 21 84 C9.82032508 62.48381 0.36234133 40.08166737 -7.4375 17.125 C-7.69692383 16.36920654 -7.95634766 15.61341309 -8.22363281 14.8347168 C-9.38056324 11.34840961 -10 8.7123895 -10 5 C-8.3203125 3.515625 -8.3203125 3.515625 -6.125 2.25 C-5.40570312 1.82203125 -4.68640625 1.3940625 -3.9453125 0.953125 C-2 0 -2 0 0 0 Z " fill="#99552A" transform="translate(24,204)"/>
<path d="M0 0 C3.87825151 3.18484272 6.61164049 5.96636352 7.33984375 11.09765625 C7.42922368 16.83584806 7.01635049 20.29566196 3.00390625 24.73046875 C-1.20617798 28.19209356 -4.52677676 29.63617018 -9.99609375 29.73046875 C-14.54202677 28.8282225 -17.44142607 27.23690446 -20.87109375 24.10546875 C-23.44016704 20.02517588 -24.94674315 16.59150313 -24.99609375 11.73046875 C-23.55030565 6.40733983 -20.6967379 2.64039132 -15.99609375 -0.26953125 C-10.60823206 -2.7838667 -5.11486039 -3.25309125 0 0 Z " fill="#B06A3A" transform="translate(64.99609375,101.26953125)"/>
<path d="M0 0 C4.02040962 2.90362917 6.59277608 5.65292548 9 10 C9.44135904 12.9273814 9.65001317 15.50378638 9.6875 18.4375 C9.71384521 19.31365967 9.74019043 20.18981934 9.76733398 21.0925293 C9.82641797 23.15944133 9.87614765 25.22663192 9.91894531 27.29394531 C10.01313289 31.60047377 10.14292222 35.90538892 10.2734375 40.2109375 C10.80304727 58.14343149 11.16261138 76.05854432 11 94 C8.09399739 95.25664978 6.20395416 96 3 96 C2.60628412 85.25510114 2.21493907 74.51011873 1.82654572 63.76502609 C1.64608906 58.77462324 1.46484338 53.78425175 1.28173828 48.79394531 C1.10476623 43.96996987 0.92994023 39.14592082 0.75654602 34.32181549 C0.69032296 32.48958866 0.62335178 30.65738869 0.55558777 28.8252182 C0.20058321 19.21336642 -0.11454169 9.62059266 0 0 Z " fill="#9A562A" transform="translate(219,228)"/>
<path d="M0 0 C1.33998047 -0.02416992 1.33998047 -0.02416992 2.70703125 -0.04882812 C6.29784073 -0.05151184 9.13110896 -0.00101299 12.4609375 1.40234375 C14.60167223 4.29410973 14.40505476 6.6335244 14.375 10.1875 C14.3853125 11.40179688 14.395625 12.61609375 14.40625 13.8671875 C13.78034943 17.92633677 12.91325543 19.56794259 9.875 22.3125 C5.44192394 23.59067242 0.90855254 23.47681104 -3.6875 23.5 C-4.96753906 23.51417969 -6.24757813 23.52835938 -7.56640625 23.54296875 C-11.90321795 23.2620995 -14.87171995 22.65530005 -17.875 19.4375 C-20.36797629 15.19944031 -20.5613839 11.19999966 -20.125 6.3125 C-15.39245902 -0.42226986 -7.45037367 -0.02711199 0 0 Z " fill="#54382E" transform="translate(463.125,129.6875)"/>
<path d="M0 0 C3.99583546 3.10194238 5.07806197 6.05505964 6 11 C6 15.51224483 5.61989002 17.31742448 2.56640625 20.6796875 C-1.62555797 23.98597262 -5.92617775 23.6653242 -11.0625 23.5 C-12.38991211 23.50386719 -12.38991211 23.50386719 -13.74414062 23.5078125 C-18.59568689 23.43502111 -22.10101764 23.20077425 -26 20 C-28.09902913 15.80194175 -27.5359727 10.5620002 -27 6 C-24.27125346 2.41852016 -20.90267518 1.24219746 -16.51953125 0.3203125 C-11.05273581 -0.37469095 -5.46208519 -0.7937513 0 0 Z " fill="#53382E" transform="translate(472,101)"/>
<path d="M0 0 C2.28913718 7.75058412 3.89528587 15.45419587 5.125 23.4375 C5.29386719 24.47970703 5.46273437 25.52191406 5.63671875 26.59570312 C7.85701128 40.69543484 8.1293736 54.51223183 8.0625 68.75 C8.05747365 70.62239463 8.05291276 72.49479058 8.04882812 74.3671875 C8.03791543 78.91149123 8.02071371 83.45573081 8 88 C5.03 88.495 5.03 88.495 2 89 C1.92483154 87.76773682 1.84966309 86.53547363 1.7722168 85.26586914 C-0.5106534 42.7856175 -0.5106534 42.7856175 -8 1 C-4.85571151 -0.9090323 -3.47925125 -1.04523725 0 0 Z " fill="#9A562A" transform="translate(250,250)"/>
<path d="M0 0 C0 10.89 0 21.78 0 33 C-6.6 33 -13.2 33 -20 33 C-20 23.76 -20 14.52 -20 5 C-6.25 0 -6.25 0 0 0 Z " fill="#B06A3A" transform="translate(168,32)"/>
<path d="M0 0 C1.21429688 -0.04898437 2.42859375 -0.09796875 3.6796875 -0.1484375 C7.125 0.375 7.125 0.375 10.02734375 2.3984375 C12.62890105 6.09003278 12.90515602 9.00808168 12.8125 13.375 C12.84021484 14.07367188 12.86792969 14.77234375 12.89648438 15.4921875 C12.88284923 18.38283919 12.7003831 20.68394159 10.81103516 22.953125 C6.00687925 27.02459229 2.77236548 27.71204744 -3.328125 27.66796875 C-7.93421771 27.1381268 -10.70927766 24.54072234 -13.875 21.375 C-14.57323959 15.56986856 -14.9265573 9.38125841 -12.0625 4.125 C-8.6298988 -0.19027008 -5.2617367 0.14461433 0 0 Z " fill="#A88F69" transform="translate(100.875,402.625)"/>
<path d="M0 0 C0.83802913 4.1032224 1.66961878 8.20772362 2.5 12.3125 C2.73847656 13.47974609 2.97695312 14.64699219 3.22265625 15.84960938 C3.44824219 16.96787109 3.67382812 18.08613281 3.90625 19.23828125 C4.11572266 20.26993408 4.32519531 21.30158691 4.54101562 22.36450195 C5 25 5 25 5 28 C2.35261084 29.4606285 1.10551666 30 -2 30 C-2.33 30.66 -2.66 31.32 -3 32 C-5.32156597 32.40729228 -7.6568787 32.74438677 -10 33 C-10.433125 32.0409375 -10.433125 32.0409375 -10.875 31.0625 C-11.82823451 28.84793921 -11.82823451 28.84793921 -14 28 C-15 25.5 -15 25.5 -16 23 C-16.66 22.67 -17.32 22.34 -18 22 C-18.66666667 20.33333333 -19.33333333 18.66666667 -20 17 C-20.66 16.67 -21.32 16.34 -22 16 C-24 13 -24 13 -24 9 C-20.75991781 7.2929319 -17.50656439 5.61288127 -14.25 3.9375 C-13.32960938 3.45216797 -12.40921875 2.96683594 -11.4609375 2.46679688 C-10.57148437 2.01240234 -9.68203125 1.55800781 -8.765625 1.08984375 C-7.94868164 0.66566162 -7.13173828 0.24147949 -6.29003906 -0.19555664 C-3.70403883 -1.10396504 -2.53242597 -0.93821806 0 0 Z " fill="#56392E" transform="translate(122,1)"/>
<path d="M0 0 C4.04416675 3.38134607 5.81915182 7.08300929 6.3125 12.3125 C5.94050629 16.7020258 4.80652364 18.64776343 2 22 C-0.1875 23.25 -0.1875 23.25 -2 24 C-2.33 24.66 -2.66 25.32 -3 26 C-5.64596477 27.15760959 -7.43545368 27.169062 -10.19140625 26.34375 C-14.88263693 24.42706926 -18.69682183 22.70649451 -21 18 C-21.76563264 12.72922369 -21.60717388 8.41673905 -19.5 3.5 C-13.86677586 -2.13322414 -7.32328471 -3.3477873 0 0 Z " fill="#B06A3A" transform="translate(21,331)"/>
<path d="M0 0 C1.31613281 -0.04898437 2.63226563 -0.09796875 3.98828125 -0.1484375 C7.6875 0.375 7.6875 0.375 10.6328125 2.42578125 C13.23633829 6.16278119 13.32636233 8.4141549 13.25 12.9375 C13.25128906 14.23816406 13.25257813 15.53882813 13.25390625 16.87890625 C12.61477245 20.82390455 11.81113002 21.98702864 8.6875 24.375 C5.54239907 25.94755046 2.19984555 25.60072668 -1.25 25.625 C-1.97896484 25.645625 -2.70792969 25.66625 -3.45898438 25.6875 C-6.36892775 25.70883781 -8.70983855 25.70783078 -11.29296875 24.28125 C-14.00552378 19.2094996 -13.05763688 11.36032405 -11.703125 5.93359375 C-9.21813326 -0.13942178 -5.96879858 0.12517976 0 0 Z " fill="#A78E68" transform="translate(202.3125,394.625)"/>
<path d="M0 0 C3.84253242 1.28084414 5.545708 3.68763611 7.8125 6.9375 C8.43769531 7.81277344 9.06289063 8.68804687 9.70703125 9.58984375 C10.13371094 10.38519531 10.56039063 11.18054688 11 12 C9.82515368 15.52453897 8.89715185 16.02329183 5.9375 18.125 C-2.74119804 24.70978994 -8.20061365 32.27397084 -13 42 C-13.99 41.67 -14.98 41.34 -16 41 C-15.979375 40.154375 -15.95875 39.30875 -15.9375 38.4375 C-15.92649606 35.06180827 -15.92649606 35.06180827 -16.4375 32 C-16.50710938 31.41476563 -16.57671875 30.82953125 -16.6484375 30.2265625 C-16.98413635 27.83278711 -16.98413635 27.83278711 -17.8515625 24.8984375 C-18.68252954 20.78012835 -18.95727221 18.11799531 -18 14 C-13.43624033 8.22450402 -6.57311337 3.28655669 0 0 Z " fill="#71532C" transform="translate(374,79)"/>
<path d="M0 0 C3.79562306 1.61515875 5.81867224 3.53661052 8 7 C8.78623141 11.33737663 9.013156 15.96162661 7.015625 19.98046875 C4.80302318 22.74622102 2.40606975 24.99821478 -1 26 C-5.16512377 26.46279153 -7.4315719 26.28978687 -11.1875 24.375 C-15.37590349 20.83812594 -17.71329047 18.00696671 -18.5 12.5 C-17.80193498 7.61354487 -15.8149702 4.63308619 -12.16796875 1.3515625 C-8.36374384 -1.02008041 -4.33342622 -0.52057393 0 0 Z " fill="#C79035" transform="translate(95,157)"/>
<path d="M0 0 C5.61053532 2.07138676 10.35417288 3.94804433 14.82421875 8.0234375 C15.88671875 10.3984375 15.88671875 10.3984375 15.82421875 13.0234375 C13.57600765 17.34692039 11.35194614 20.12810975 6.82421875 22.0234375 C-1.93197159 23.20215543 -8.84186441 18.51247482 -15.7421875 13.68359375 C-17.17578125 12.0234375 -17.17578125 12.0234375 -17.5390625 9.56640625 C-17.14179005 6.78549912 -16.49329606 5.4844684 -14.80078125 3.2734375 C-14.13949219 2.38398438 -14.13949219 2.38398438 -13.46484375 1.4765625 C-9.82107484 -2.63095882 -4.68997491 -1.44218171 0 0 Z " fill="#54382E" transform="translate(382.17578125,370.9765625)"/>
<path d="M0 0 C7.92 0 15.84 0 24 0 C24 7.26 24 14.52 24 22 C21.174375 22.20625 18.34875 22.4125 15.4375 22.625 C14.1235022 22.73062256 14.1235022 22.73062256 12.78295898 22.83837891 C12.06954346 22.88397949 11.35612793 22.92958008 10.62109375 22.9765625 C9.9036499 23.02893066 9.18620605 23.08129883 8.44702148 23.13525391 C6 23 6 23 -1 21 C-0.67 14.07 -0.34 7.14 0 0 Z " fill="#B06A3A" transform="translate(116,39)"/>
<path d="M0 0 C2.75354912 3.92172148 3.35544397 7.18343783 3.0625 11.9375 C1.85354376 15.43711016 1.14983982 17.29788834 -2.0625 19.1875 C-2.68125 19.435 -3.3 19.6825 -3.9375 19.9375 C-4.2675 20.5975 -4.5975 21.2575 -4.9375 21.9375 C-10.84875786 22.24861883 -14.74936409 21.90214909 -19.9375 18.9375 C-20.75 16.8125 -20.75 16.8125 -20.9375 14.9375 C-21.5975 14.6075 -22.2575 14.2775 -22.9375 13.9375 C-24.59532515 9.57978819 -23.16562498 6.27205875 -21.9375 1.9375 C-21.2775 1.9375 -20.6175 1.9375 -19.9375 1.9375 C-19.9375 1.2775 -19.9375 0.6175 -19.9375 -0.0625 C-19.2775 -0.0625 -18.6175 -0.0625 -17.9375 -0.0625 C-17.9375 -0.7225 -17.9375 -1.3825 -17.9375 -2.0625 C-11.01453416 -4.65861219 -6.13554064 -4.30793279 0 0 Z " fill="#AF693A" transform="translate(189.9375,169.0625)"/>
<path d="M0 0 C0.66 0.33 1.32 0.66 2 1 C-0.84414225 10.1012552 -4.51943209 18.82892201 -13 24 C-16.5625 24.6875 -16.5625 24.6875 -20 25 C-20.99 25.3403125 -20.99 25.3403125 -22 25.6875 C-24.54443486 26.08506795 -26.50653929 25.4512345 -28.92578125 24.6640625 C-30.47007046 24.16965729 -32.0341996 23.7364109 -33.60546875 23.3359375 C-34.49878906 23.10132813 -35.39210937 22.86671875 -36.3125 22.625 C-37.15425781 22.41101563 -37.99601563 22.19703125 -38.86328125 21.9765625 C-41 21 -41 21 -42.29296875 18.8984375 C-42.52628906 18.27195312 -42.75960937 17.64546875 -43 17 C-42.03900391 16.63648438 -42.03900391 16.63648438 -41.05859375 16.265625 C-40.19363281 15.93046875 -39.32867187 15.5953125 -38.4375 15.25 C-37.59058594 14.92515625 -36.74367187 14.6003125 -35.87109375 14.265625 C-32.86595567 13.01698267 -32.86595567 13.01698267 -29.75390625 11.015625 C-24.8582494 8.15410257 -19.50377501 7.18806852 -14.02734375 5.93359375 C-10.00500325 4.95867655 -6.59270128 3.92696909 -3.03125 1.78125 C-2.0309375 1.1934375 -1.030625 0.605625 0 0 Z " fill="#BA5A3A" transform="translate(244,367)"/>
<path d="M0 0 C10.01181842 1.71964276 19.7221889 5.11378872 29.3125 8.375 C30.396521 8.73770996 31.48054199 9.10041992 32.59741211 9.47412109 C49.25590383 15.25590383 49.25590383 15.25590383 54 20 C54.04080783 21.99958364 54.04254356 24.00045254 54 26 C44.40860364 24.16635069 35.25685924 20.89990383 26.01269531 17.81616211 C16.74272981 14.73126252 7.58205777 11.97308413 -2 10 C-2 8.35 -2 6.7 -2 5 C-1.34 5 -0.68 5 0 5 C-0.2784375 4.0409375 -0.2784375 4.0409375 -0.5625 3.0625 C-0.7790625 2.0415625 -0.7790625 2.0415625 -1 1 C-0.67 0.67 -0.34 0.34 0 0 Z " fill="#99552A" transform="translate(274,212)"/>
<path d="M0 0 C1.44726355 0.02387786 2.89428279 0.07430617 4.33984375 0.1484375 C5.4390918 0.16970703 5.4390918 0.16970703 6.56054688 0.19140625 C11.90790133 0.33871629 11.90790133 0.33871629 14.27734375 1.5234375 C17.02298102 6.99517013 17.02114409 12.53997697 16.27734375 18.5234375 C14.58984375 21.7734375 14.58984375 21.7734375 11.27734375 23.5234375 C5.43339547 24.40638999 0.29383105 24.55070462 -5.03515625 21.8359375 C-7.69132678 16.62197313 -7.57407802 11.25634411 -6.72265625 5.5234375 C-5.20257223 1.25795457 -4.56393932 0.64172914 0 0 Z " fill="#A78F69" transform="translate(132.72265625,400.4765625)"/>
<path d="M0 0 C3.06765423 1.72196807 5.40321354 3.80642707 7 7 C7.51436888 11.08555854 7.92098732 15.21847627 5.98828125 18.95703125 C3.85188119 21.59384934 2.23364822 22.92211726 -1 24 C-6.30585376 24.34231315 -9.73795828 24.53140599 -14 21 C-16.95250655 17.43663003 -17.47965422 14.41614738 -17.28515625 9.92578125 C-16.69364437 5.93105036 -14.87394645 3.74542491 -11.875 1.1875 C-7.83924626 -0.47944176 -4.29995051 -0.83127338 0 0 Z " fill="#C79035" transform="translate(34,398)"/>
<path d="M0 0 C0.72896484 -0.020625 1.45792969 -0.04125 2.20898438 -0.0625 C7.54846615 -0.10165294 7.54846615 -0.10165294 10.00390625 1.578125 C12.08258498 4.86105672 12.27731032 7.89816866 12.375 11.6875 C12.41238281 12.63496094 12.44976562 13.58242188 12.48828125 14.55859375 C12.0625 17.25 12.0625 17.25 10.48046875 19.5703125 C7.21957758 21.83555193 5.00351214 21.75012201 1.0625 21.6875 C-0.7628125 21.68556641 -0.7628125 21.68556641 -2.625 21.68359375 C-6.09814804 21.22897178 -7.51384747 20.72608732 -9.9375 18.25 C-10.96585363 15.16493912 -11.07118434 12.9805728 -11.0625 9.75 C-11.06507813 8.7909375 -11.06765625 7.831875 -11.0703125 6.84375 C-10.9375 4.25 -10.9375 4.25 -9.9375 1.25 C-6.79239907 -0.32255046 -3.44984555 0.02427332 0 0 Z " fill="#A88E68" transform="translate(170.9375,398.75)"/>
<path d="M0 0 C2.82099545 2.48976414 4.3387741 5.2115028 6.07421875 8.53125 C6.65606934 9.6437915 7.23791992 10.75633301 7.83740234 11.90258789 C8.45481444 13.10135837 9.07150023 14.30050317 9.6875 15.5 C9.99858704 16.10182098 10.30967407 16.70364197 10.63018799 17.32369995 C25 45.17233447 25 45.17233447 25 51 C23.03852126 52.38938077 21.03833424 53.7260411 19 55 C18.63390625 54.20722656 18.2678125 53.41445313 17.890625 52.59765625 C13.93057385 44.06468888 9.91608439 35.55736732 5.875 27.0625 C5.37258789 25.99717041 4.87017578 24.93184082 4.35253906 23.83422852 C1.81482604 18.51812849 -0.76399468 13.50519305 -4.21044922 8.71655273 C-5 7 -5 7 -4.75830078 4.89086914 C-3.7475731 2.37055816 -2.24394759 1.44770812 0 0 Z " fill="#99552A" transform="translate(267,236)"/>
<path d="M0 0 C3.96373713 0.36752962 7.3112208 1.54959759 10.953125 3.05859375 C11.60796875 3.31125 12.2628125 3.56390625 12.9375 3.82421875 C16.83714572 5.40302268 19.69601966 6.99723542 22.328125 10.30859375 C23.0934248 14.30515937 22.67217061 15.79807446 20.390625 19.18359375 C16.85808887 21.63474127 14.94925733 22.10194816 10.73046875 21.86328125 C6.21415829 20.82049087 2.90870238 18.13818861 -0.671875 15.30859375 C-1.61160156 14.64730469 -1.61160156 14.64730469 -2.5703125 13.97265625 C-5.08911418 12.11607473 -6.52606223 10.89184484 -7.296875 7.80859375 C-6.23066591 3.5437574 -4.59038665 0.53017624 0 0 Z " fill="#54382E" transform="translate(362.671875,387.69140625)"/>
<path d="M0 0 C10.13654422 0.5154175 20.84840597 3.45109519 28 11 C28.33 11.99 28.66 12.98 29 14 C26.74053233 16.17878832 24.46567034 18.34078831 22.1875 20.5 C21.54490234 21.12003906 20.90230469 21.74007812 20.24023438 22.37890625 C19.61826172 22.96542969 18.99628906 23.55195312 18.35546875 24.15625 C17.78465576 24.70087891 17.21384277 25.24550781 16.62573242 25.80664062 C15 27 15 27 12 27 C9.99026832 23.0673934 7.99390285 19.12815258 6 15.1875 C5.42765625 14.06794922 4.8553125 12.94839844 4.265625 11.79492188 C3.72421875 10.72177734 3.1828125 9.64863281 2.625 8.54296875 C2.12226563 7.55321045 1.61953125 6.56345215 1.1015625 5.54370117 C0 3 0 3 0 0 Z " fill="#73532C" transform="translate(343,60)"/>
<path d="M0 0 C6.750387 1.33745985 14.72756205 3.81539264 19.375 9.0625 C20.5 12.5625 20.5 12.5625 20.375 16.0625 C18.5625 18.5 18.5625 18.5 15.375 20.0625 C8.23315368 21.10649082 3.37545711 19.8245264 -2.54296875 15.73828125 C-5.73026876 13.31440639 -7.41695036 11.98926656 -8.3125 8 C-7.07855625 2.72769487 -5.68682895 0.09804877 0 0 Z " fill="#54382E" transform="translate(351.625,402.9375)"/>
<path d="M0 0 C7.26095914 -0.40682597 13.66810058 1.11091949 20.6875 2.875 C22.3590918 3.27912109 22.3590918 3.27912109 24.06445312 3.69140625 C28.86239269 4.87004928 33.44030118 6.07482843 38 8 C38 10.97 38 13.94 38 17 C36.85144531 16.73445313 35.70289063 16.46890625 34.51953125 16.1953125 C16.45362756 12.00333371 16.45362756 12.00333371 -2 11 C-1.67 10.34 -1.34 9.68 -1 9 C-0.77532169 7.46331135 -0.59203195 5.92031946 -0.4375 4.375 C-0.35371094 3.55773437 -0.26992188 2.74046875 -0.18359375 1.8984375 C-0.12300781 1.27195313 -0.06242187 0.64546875 0 0 Z " fill="#99552A" transform="translate(276,171)"/>
<path d="M0 0 C2.50298434 2.93828597 3.46930939 5.17902761 4 9 C-10.93704755 13.57514895 -25.31687199 17.30879831 -41 18 C-41.33 15.69 -41.66 13.38 -42 11 C-41.26064209 10.84442627 -40.52128418 10.68885254 -39.75952148 10.52856445 C-19.5952836 6.28028513 -19.5952836 6.28028513 0 0 Z " fill="#99552A" transform="translate(325,94)"/>
<path d="M0 0 C0 2.31 0 4.62 0 7 C-5.94342986 9.31480952 -12.10821089 10.13896675 -18.375 11.125 C-19.47328125 11.30675781 -20.5715625 11.48851562 -21.703125 11.67578125 C-27.54635446 12.60761521 -33.0838412 13.2159182 -39 13 C-40.125 5.25 -40.125 5.25 -39 3 C-36.52289636 2.60554942 -34.13573651 2.33931294 -31.640625 2.1484375 C-30.89923279 2.08467926 -30.15784058 2.02092102 -29.39398193 1.95523071 C-27.01330276 1.75296897 -24.63175539 1.56411963 -22.25 1.375 C-20.65878458 1.24040349 -19.06763746 1.10499685 -17.4765625 0.96875 C-15.94797665 0.84042927 -14.41933232 0.71280298 -12.890625 0.5859375 C-12.17585999 0.52659027 -11.46109497 0.46724304 -10.72467041 0.40609741 C-7.1404055 0.12232667 -3.59565813 -0.0656142 0 0 Z " fill="#99552A" transform="translate(323,134)"/>
<path d="M0 0 C0 10.89 0 21.78 0 33 C-3.3 33 -6.6 33 -10 33 C-11.16063604 28.74433453 -10.76173392 25.3164922 -10 21 C-6.535 20.505 -6.535 20.505 -3 20 C-3.28875 19.44570313 -3.5775 18.89140625 -3.875 18.3203125 C-4.431875 17.23363281 -4.431875 17.23363281 -5 16.125 C-5.37125 15.40570313 -5.7425 14.68640625 -6.125 13.9453125 C-7 12 -7 12 -7 10 C-7.556875 9.938125 -8.11375 9.87625 -8.6875 9.8125 C-11.94987173 8.66626128 -13.68667874 6.50609803 -16 4 C-10.27460245 1.46761262 -6.36250601 0 0 0 Z " fill="#AF6A3A" transform="translate(168,32)"/>
<path d="M0 0 C2.625 0.75 2.625 0.75 5 2 C5.495 2.99 5.495 2.99 6 4 C5.15179688 4.65484375 4.30359375 5.3096875 3.4296875 5.984375 C2.24426602 6.90557398 1.05941531 7.82750772 -0.125 8.75 C-1.06158447 9.47751465 -1.06158447 9.47751465 -2.01708984 10.21972656 C-5.3986444 12.87116313 -8.69738349 15.57869165 -11.90625 18.4375 C-12.52999512 18.99083008 -13.15374023 19.54416016 -13.79638672 20.11425781 C-15.0004742 21.19134541 -16.19515572 22.27905627 -17.37939453 23.37792969 C-19.0390625 24.859375 -19.0390625 24.859375 -22 27 C-24.06005859 26.82128906 -24.06005859 26.82128906 -26 26 C-26.66 25.01 -27.32 24.02 -28 23 C-7.16666667 4.77777778 -7.16666667 4.77777778 0 0 Z " fill="#9A552A" transform="translate(299,61)"/>
<path d="M0 0 C2.64 0 5.28 0 8 0 C8.33 9.24 8.66 18.48 9 28 C6.03 28 3.06 28 0 28 C0 18.76 0 9.52 0 0 Z " fill="#99552A" transform="translate(213,46)"/>
<path d="M0 0 C10.89 0 21.78 0 33 0 C33 0.66 33 1.32 33 2 C31.56712057 3.19961999 30.13026321 4.39501028 28.66796875 5.55859375 C26.09577474 7.7814031 24.10560345 10.33703093 22 13 C19.1673866 11.5836933 18.98292167 9.85502707 17.875 6.9375 C17.52179688 6.01839844 17.16859375 5.09929688 16.8046875 4.15234375 C16.53914063 3.44207031 16.27359375 2.73179688 16 2 C15.278125 2.7425 14.55625 3.485 13.8125 4.25 C11.31407427 6.69290515 8.76356798 8.8681047 6 11 C4.02 7.37 2.04 3.74 0 0 Z " fill="#8F5C37" transform="translate(205,24)"/>
<path d="M0 0 C1.66674321 2.91824244 2.2432008 4.97594379 2.1953125 8.328125 C2.18886719 9.12734375 2.18242187 9.9265625 2.17578125 10.75 C2.15902344 11.575 2.14226562 12.4 2.125 13.25 C2.11597656 14.09046875 2.10695313 14.9309375 2.09765625 15.796875 C2.07415817 17.86470604 2.03828908 19.93238995 2 22 C-4.4188547 20.26375242 -10.13784836 18.14819255 -16 15 C-12.49441279 11.44314278 -8.89446761 8.03716953 -5.1875 4.6875 C-4.21167969 3.80449219 -3.23585938 2.92148437 -2.23046875 2.01171875 C-1.49441406 1.34785156 -0.75835937 0.68398438 0 0 Z " fill="#C89036" transform="translate(297,281)"/>
<path d="M0 0 C2.97 0.495 2.97 0.495 6 1 C5.68977905 1.86165771 5.68977905 1.86165771 5.37329102 2.74072266 C4.43111349 5.36696644 3.49675321 7.99592736 2.5625 10.625 C2.23701172 11.52863281 1.91152344 12.43226562 1.57617188 13.36328125 C-0.0292727 17.89824841 -1.43319834 22.1941606 -2 27 C-5.09354597 27.99435406 -6.90279155 27.87840996 -10 27 C-8.72692984 17.34746804 -6.23927423 7.69449854 0 0 Z " fill="#99552A" transform="translate(252,48)"/>
<path d="M0 0 C0.33 0 0.66 0 1 0 C1.63273002 10.96732036 -1.68930256 20.51211367 -7 30 C-7.66 30 -8.32 30 -9 30 C-9.84069415 28.39967863 -10.67231505 26.79458829 -11.5 25.1875 C-11.9640625 24.29417969 -12.428125 23.40085938 -12.90625 22.48046875 C-14 20 -14 20 -14 17 C-12.4609375 15.52734375 -12.4609375 15.52734375 -10.375 13.9375 C-6.16990623 10.45690729 -3.73192879 6.70061094 -1.12890625 1.94140625 C-0.57009766 0.98041016 -0.57009766 0.98041016 0 0 Z " fill="#74552C" transform="translate(359,165)"/>
<path d="M0 0 C2.4375 1.5625 2.4375 1.5625 4 4 C4.5625 7.5 4.5625 7.5 4 11 C1.9375 13.5 1.9375 13.5 -1 15 C-4.80284671 15 -7.01930006 14.7968187 -10 12.375 C-11.45635054 8.91616747 -10.91305869 6.58701629 -10 3 C-7.67133148 -1.01048467 -4.26353269 -0.52359173 0 0 Z " fill="#C48E35" transform="translate(237,136)"/>
<path d="M0 0 C1.12496937 4.49987748 1.12496937 4.49987748 -0.6171875 7.8203125 C-0.97683594 8.52027344 -1.33648437 9.22023438 -1.70703125 9.94140625 C-2.09246094 10.66199219 -2.47789062 11.38257813 -2.875 12.125 C-3.25269531 12.85332031 -3.63039063 13.58164062 -4.01953125 14.33203125 C-4.71970835 15.68005905 -5.42477848 17.02556439 -6.13623047 18.36767578 C-6.77272787 19.57050835 -7.3914057 20.7828114 -8 22 C-8.66 22 -9.32 22 -10 22 C-10.8394882 19.89828133 -11.67139656 17.79353375 -12.5 15.6875 C-12.9640625 14.51574219 -13.428125 13.34398437 -13.90625 12.13671875 C-15 9 -15 9 -15 6 C-10.05 4.02 -5.1 2.04 0 0 Z " fill="#8D5B36" transform="translate(344,250)"/>
<path d="M0 0 C7.875 6.75 7.875 6.75 11.4375 10.375 C12.11683594 11.06335938 12.79617188 11.75171875 13.49609375 12.4609375 C13.99238281 12.96882812 14.48867188 13.47671875 15 14 C10.45363858 17.69121249 5.33503871 19.65004247 0 22 C0 14.74 0 7.48 0 0 Z " fill="#C99236" transform="translate(328,225)"/>
<path d="M0 0 C6.93 0.495 6.93 0.495 14 1 C14 5.42049361 13.74351892 5.80379688 10.9375 8.875 C10.36902344 9.51179688 9.80054688 10.14859375 9.21484375 10.8046875 C6.29533592 13.69845011 3.12103304 16.32482883 0 19 C0 12.73 0 6.46 0 0 Z " fill="#8E5C37" transform="translate(287,315)"/>
<path d="M0 0 C0.33 0.66 0.66 1.32 1 2 C0.525625 2.99 0.05125 3.98 -0.4375 5 C-3.90037299 12.67232869 -1.8763349 21.12609461 0 29 C-5.26172123 24.83200734 -10.05872849 20.93622633 -11.6875 14.125 C-10.31419994 7.88272701 -5.04365891 3.60420759 0 0 Z " fill="#924724" transform="translate(407,99)"/>
<path d="M0 0 C0 6.93 0 13.86 0 21 C-4.25716967 19.29713213 -6.10255948 18.31291166 -9.3125 15.375 C-10.00988281 14.74335937 -10.70726562 14.11171875 -11.42578125 13.4609375 C-11.94527344 12.97882813 -12.46476562 12.49671875 -13 12 C-11.50198648 8.38522825 -9.42462583 6.31379537 -6.5 3.75 C-5.7059375 3.04359375 -4.911875 2.3371875 -4.09375 1.609375 C-2 0 -2 0 0 0 Z " fill="#8E5C37" transform="translate(355,93)"/>
<path d="M0 0 C0.33 0 0.66 0 1 0 C1.08741124 3.56234428 1.14052896 7.12441108 1.1875 10.6875 C1.22520508 12.19860352 1.22520508 12.19860352 1.26367188 13.74023438 C1.35493909 22.95822299 1.35493909 22.95822299 -2 27 C-3.75 26.9375 -3.75 26.9375 -6 26 C-7.78563172 23.83904442 -9.04701901 21.63677561 -10 19 C-9.5625 17 -9.5625 17 -8 15 C-4.30281849 10.1536945 -1.93599193 5.8079758 0 0 Z " fill="#72542C" transform="translate(363,180)"/>
<path d="M0 0 C0.33 0.66 0.66 1.32 1 2 C0.525625 3.11375 0.05125 4.2275 -0.4375 5.375 C-3.26036393 12.43860472 -2.62750902 20.6762094 -1 28 C-6.21542254 25.03669174 -8.52916574 22.51186103 -11 17 C-11.6875 14.0625 -11.6875 14.0625 -11 11 C-7.92846526 6.61448445 -4.34785011 3.10698138 0 0 Z " fill="#924724" transform="translate(424,97)"/>
<path d="M0 0 C0 13.86 0 27.72 0 42 C-0.33 42 -0.66 42 -1 42 C-1.33 28.8 -1.66 15.6 -2 2 C-5.3 4.31 -8.6 6.62 -12 9 C-17.68088674 7.86382265 -18.90204811 6.71674706 -23 3 C-19.69706753 0.79804502 -18.19462223 0.64341818 -14.3125 0.375 C-13.31863281 0.30023437 -12.32476562 0.22546875 -11.30078125 0.1484375 C-7.53733278 -0.02080634 -3.76725203 0 0 0 Z " fill="#945E37" transform="translate(197,26)"/>
<path d="M0 0 C0.99 0 1.98 0 3 0 C3.99 2.31 4.98 4.62 6 7 C4.45036847 8.65795529 2.88475231 10.30098044 1.3125 11.9375 C0.44238281 12.85402344 -0.42773438 13.77054687 -1.32421875 14.71484375 C-4.05441092 17.04646772 -5.48192553 17.70207297 -9 18 C-9.7734375 15.890625 -9.7734375 15.890625 -10 13 C-8.61898565 10.68459722 -7.31765209 8.80536326 -5.625 6.75 C-5.19960938 6.20859375 -4.77421875 5.6671875 -4.3359375 5.109375 C-1.42633929 1.42633929 -1.42633929 1.42633929 0 0 Z " fill="#53382D" transform="translate(292,373)"/>
<path d="M0 0 C3 1 3 1 4.75 3.875 C6 7 6 7 5 10 C2.63671875 11.82421875 2.63671875 11.82421875 -0.3125 13.6875 C-1.27800781 14.31011719 -2.24351562 14.93273437 -3.23828125 15.57421875 C-6 17 -6 17 -10 17 C-9.56853797 11.712629 -7.87894055 9.09962148 -4.4375 5.125 C-3.61121094 4.15820312 -2.78492188 3.19140625 -1.93359375 2.1953125 C-1.29550781 1.47085937 -0.65742188 0.74640625 0 0 Z " fill="#55392E" transform="translate(285,359)"/>
<path d="M0 0 C0.89203125 0.00902344 1.7840625 0.01804687 2.703125 0.02734375 C3.37859375 0.03894531 4.0540625 0.05054688 4.75 0.0625 C4.75 1.3825 4.75 2.7025 4.75 4.0625 C3.77417969 4.17207031 2.79835938 4.28164063 1.79296875 4.39453125 C0.52066406 4.55308594 -0.75164062 4.71164062 -2.0625 4.875 C-3.32707031 5.02582031 -4.59164063 5.17664063 -5.89453125 5.33203125 C-9.12791008 5.83494957 -9.12791008 5.83494957 -11.125 7.25 C-12.73184191 9.83880086 -13.01759395 12.24605672 -13.4375 15.25 C-13.59605469 16.33667969 -13.75460937 17.42335938 -13.91796875 18.54296875 C-14.02753906 19.37441406 -14.13710938 20.20585937 -14.25 21.0625 C-15.57 21.0625 -16.89 21.0625 -18.25 21.0625 C-18.79505716 14.52181413 -18.18398587 9.47332199 -14.25 4.0625 C-9.74434106 0.57061432 -5.58746069 -0.07351922 0 0 Z " fill="#944925" transform="translate(342.25,323.9375)"/>
<path d="M0 0 C0.9880871 7.77117154 1.03232625 14.40816971 -1 22 C-3.66648371 18.66894651 -5.6669681 15.12802152 -7.6875 11.375 C-8.31011719 10.22773438 -8.93273437 9.08046875 -9.57421875 7.8984375 C-11 5 -11 5 -11 3 C-9.35467212 2.49833923 -7.70872301 1.99871553 -6.0625 1.5 C-4.68771484 1.08234375 -4.68771484 1.08234375 -3.28515625 0.65625 C-1 0 -1 0 0 0 Z " fill="#8C5B36" transform="translate(349,219)"/>
<path d="M0 0 C0.33 0 0.66 0 1 0 C1.33776052 5.73442302 0.2840872 9.93666317 -1.8125 15.25 C-2.07353516 15.95640625 -2.33457031 16.6628125 -2.60351562 17.390625 C-3.92361832 20.83267054 -5.04304306 23.69126485 -8 26 C-11.80838323 16.63772455 -11.80838323 16.63772455 -11 13 C-9.3524116 11.64316249 -7.68083079 10.31543279 -6 9 C-4.30620725 6.6659698 -2.76398912 4.27235374 -1.234375 1.828125 C-0.82703125 1.22484375 -0.4196875 0.6215625 0 0 Z " fill="#74552C" transform="translate(351,154)"/>
<path d="M0 0 C5.94 0.99 5.94 0.99 12 2 C10.4045099 5.98872524 8.82261512 9.15325765 6.5625 12.75 C5.96566406 13.71421875 5.36882812 14.6784375 4.75390625 15.671875 C3 18 3 18 0 19 C0 12.73 0 6.46 0 0 Z " fill="#905C36" transform="translate(309,289)"/>
<path d="M0 0 C2.375 0.3125 2.375 0.3125 5 1 C7.45193779 4.67790669 7.71511798 7.72592275 7 12 C5 15 5 15 3 17 C0.70895944 16.08358378 -0.75057101 15.30881685 -2.3125 13.375 C-3.33440656 9.84477732 -2.90157334 6.54085658 -2 3 C-1.34 2.01 -0.68 1.02 0 0 Z " fill="#53382E" transform="translate(372,268)"/>
<path d="M0 0 C7.19270839 0.46247533 14.0030827 1.25077067 21 3 C17.5103248 6.59231271 14.03355127 10.01867949 10 13 C6.3392481 11.77974937 6.07660559 10.873509 4.3125 7.5625 C3.87550781 6.75941406 3.43851563 5.95632812 2.98828125 5.12890625 C2 3 2 3 2 1 C1.34 0.67 0.68 0.34 0 0 Z " fill="#8F5C37" transform="translate(244,26)"/>
<path d="M0 0 C2.375 -0.1875 2.375 -0.1875 5 0 C7.15942819 3.23914229 7.27232978 4.24859733 7.25 8 C7.25515625 8.86625 7.2603125 9.7325 7.265625 10.625 C7 13 7 13 5 16 C2.625 15.6875 2.625 15.6875 0 15 C-2.46934085 11.29598872 -2.44928433 8.29412135 -2 4 C-1 1.5 -1 1.5 0 0 Z " fill="#53372E" transform="translate(377,240)"/>
<path d="M0 0 C1.73017508 0.45451184 3.45909877 0.91378857 5.1875 1.375 C6.15042969 1.63023438 7.11335938 1.88546875 8.10546875 2.1484375 C10.82210207 2.94766296 13.39137175 3.9031362 16 5 C15.59007812 5.54269531 15.18015625 6.08539063 14.7578125 6.64453125 C14.21898437 7.35996094 13.68015625 8.07539062 13.125 8.8125 C12.59132813 9.52019531 12.05765625 10.22789063 11.5078125 10.95703125 C10.29185219 12.60456297 9.13583859 14.29624211 8 16 C7.34 16 6.68 16 6 16 C4.9955866 13.7101766 3.99632388 11.4183401 3 9.125 C2.71382813 8.47402344 2.42765625 7.82304688 2.1328125 7.15234375 C0 2.2265625 0 2.2265625 0 0 Z " fill="#C89136" transform="translate(325,91)"/>
<path d="M0 0 C4.70133003 3.42639308 9.01437117 6.76526936 13 11 C11.3790787 12.17232685 9.75313167 13.3377077 8.125 14.5 C7.22007812 15.1496875 6.31515625 15.799375 5.3828125 16.46875 C3 18 3 18 1 18 C0.67 12.06 0.34 6.12 0 0 Z " fill="#C89036" transform="translate(313,174)"/>
<path d="M0 0 C3.57490748 0.09661912 5.03333435 1.02608775 7.875 3.25 C10 6 10 6 10 8.6875 C9 11 9 11 6 13 C2.90991439 12.84549572 1.46428516 12.43226549 -0.8125 10.3125 C-2.33721863 7.34331109 -2.35817561 5.29521559 -2 2 C-1.34 1.34 -0.68 0.68 0 0 Z " fill="#52372E" transform="translate(304,350)"/>
<path d="M0 0 C2.625 -0.1875 2.625 -0.1875 5 0 C7.09972674 3.41205596 7.33083127 6.0300247 7 10 C6 12.375 6 12.375 5 14 C2.625 14.1875 2.625 14.1875 0 14 C-1.99825961 11.00261059 -2.27550398 10.36652492 -2.25 7 C-2.25515625 6.319375 -2.2603125 5.63875 -2.265625 4.9375 C-2 3 -2 3 0 0 Z " fill="#52372E" transform="translate(385,272)"/>
<path d="M0 0 C2.91308822 1.45654411 3.05452316 3.35387648 4.125 6.375 C4.47820312 7.35210937 4.83140625 8.32921875 5.1953125 9.3359375 C6 12 6 12 6 15 C1.71 15 -2.58 15 -7 15 C-3.535 7.575 -3.535 7.575 0 0 Z " fill="#C78F36" transform="translate(182,38)"/>
<path d="M0 0 C0.99 2.97 1.98 5.94 3 9 C-4.75 13 -4.75 13 -7 13 C-7.99 9.7 -8.98 6.4 -10 3 C-3.375 0 -3.375 0 0 0 Z " fill="#9A562A" transform="translate(144,334)"/>
<path d="M0 0 C0.66 0.66 1.32 1.32 2 2 C1.8125 5.5 1.8125 5.5 1 9 C-2 11 -2 11 -4.5625 10.75 C-7 10 -7 10 -9 8 C-9.375 5.0625 -9.375 5.0625 -9 2 C-6.12524616 -1.3006433 -4.03854228 -1.38160657 0 0 Z " fill="#C89036" transform="translate(375,208)"/>
<path d="M0 0 C1.43441239 2.52729802 2.02061371 4.27852017 1.9375 7.1875 C1 9 1 9 -1.3125 10.3125 C-4.15182498 11.03883895 -5.39882239 11.34543669 -8 10 C-9.43441239 7.47270198 -10.02061371 5.72147983 -9.9375 2.8125 C-9 1 -9 1 -6.6875 -0.3125 C-3.84817502 -1.03883895 -2.60117761 -1.34543669 0 0 Z " fill="#99552A" transform="translate(150,356)"/>
<path d="M0 0 C3.76075665 1.25358555 4.47649131 2.70673887 6.6875 5.9375 C7.62142578 7.28134766 7.62142578 7.28134766 8.57421875 8.65234375 C10 11 10 11 10 13 C5.71 13 1.42 13 -3 13 C-1.125 3.375 -1.125 3.375 0 0 Z " fill="#8F5C37" transform="translate(341,77)"/>
<path d="M0 0 C0.99 2.97 1.98 5.94 3 9 C-1.455 10.485 -1.455 10.485 -6 12 C-7.32 9.03 -8.64 6.06 -10 3 C-3.375 0 -3.375 0 0 0 Z " fill="#99552A" transform="translate(138,310)"/>
<path d="M0 0 C1.875 1.0625 1.875 1.0625 3 3 C2.8125 6.625 2.8125 6.625 2 10 C-0.78863007 11.39431504 -2.92078868 11.25660094 -6 11 C-8.15502531 7.76746204 -8.46856135 6.74849077 -8 3 C-5.85607122 -0.27231235 -3.76836426 -0.56525464 0 0 Z " fill="#C89136" transform="translate(389,211)"/>
<path d="M0 0 C2.9375 0.8125 2.9375 0.8125 4.9375 2.8125 C4.6875 6.375 4.6875 6.375 3.9375 9.8125 C1.17499964 11.19375018 -1.00981099 11.00329306 -4.0625 10.8125 C-6.0625 8.8125 -6.0625 8.8125 -6.375 5.875 C-6.0625 2.8125 -6.0625 2.8125 -4.9375 0.875 C-3.0625 -0.1875 -3.0625 -0.1875 0 0 Z " fill="#C89136" transform="translate(406.0625,209.1875)"/>
<path d="M0 0 C7.59 0 15.18 0 23 0 C16.47826087 6.52173913 16.47826087 6.52173913 13 8 C8.34223335 6.99291532 3.86791303 3.75456834 0 1 C0 0.67 0 0.34 0 0 Z " fill="#905C36" transform="translate(116,39)"/>
<path d="M0 0 C-2.79692561 5.27112904 -5.98235547 9.59398317 -10 14 C-12.10827055 10.83759418 -12.33817465 9.49342531 -12.625 5.8125 C-12.69976562 4.91144531 -12.77453125 4.01039063 -12.8515625 3.08203125 C-12.90054687 2.39496094 -12.94953125 1.70789063 -13 1 C-8.59085217 -0.10228696 -4.51617599 -0.07654536 0 0 Z " fill="#925D37" transform="translate(355,124)"/>
<path d="M0 0 C6.40140935 0.46555704 11.26769829 2.14711836 17 5 C17 5.66 17 6.32 17 7 C11.72 7.66 6.44 8.32 1 9 C0.67 6.03 0.34 3.06 0 0 Z " fill="#8F5C37" transform="translate(270,32)"/>
<path d="M0 0 C3.0625 0.3125 3.0625 0.3125 5 1.4375 C6.0625 3.3125 6.0625 3.3125 5.9375 6.375 C5.0625 9.3125 5.0625 9.3125 2.0625 11.3125 C-1.25990324 10.9883631 -2.54526303 10.70473697 -4.9375 8.3125 C-5.1875 5.3125 -5.1875 5.3125 -4.9375 2.3125 C-2.9375 0.3125 -2.9375 0.3125 0 0 Z " fill="#C99136" transform="translate(421.9375,186.6875)"/>
<path d="M0 0 C2.31 0 4.62 0 7 0 C7 4.62 7 9.24 7 14 C4.69 14 2.38 14 0 14 C0 9.38 0 4.76 0 0 Z " fill="#99552A" transform="translate(179,53)"/>
<path d="M0 0 C1.875 0.3125 1.875 0.3125 4 1 C6.44897847 4.67346771 6.31537716 6.66356399 6 11 C4 13 4 13 1.5 13.3125 C0.2625 13.1578125 0.2625 13.1578125 -1 13 C-3.32579101 9.51131349 -3.41865457 8.10281481 -3 4 C-1.5 1.625 -1.5 1.625 0 0 Z " fill="#53372E" transform="translate(401,275)"/>
<path d="M0 0 C-2.31 3.63 -4.62 7.26 -7 11 C-12 9 -12 9 -14 8 C-14 7.34 -14 6.68 -14 6 C-14.99 5.67 -15.98 5.34 -17 5 C-14.51737568 2.51737568 -12.38224713 1.92713025 -9.0625 0.8125 C-8.00160156 0.44769531 -6.94070313 0.08289062 -5.84765625 -0.29296875 C-3 -1 -3 -1 0 0 Z " fill="#C78F36" transform="translate(315,54)"/>
<path d="M0 0 C1.29315061 0.95632999 2.58446853 1.91513851 3.875 2.875 C4.59429687 3.40867188 5.31359375 3.94234375 6.0546875 4.4921875 C8 6 8 6 10 8 C9.67 9.32 9.34 10.64 9 12 C5.7 12.33 2.4 12.66 -1 13 C-1.07654536 8.48382401 -1.10228696 4.40914783 0 0 Z " fill="#905C36" transform="translate(322,47)"/>
<path d="M0 0 C0.66 0.33 1.32 0.66 2 1 C2.4140625 3.72265625 2.4140625 3.72265625 2.625 7.0625 C2.69976562 8.16722656 2.77453125 9.27195312 2.8515625 10.41015625 C2.90054687 11.26480469 2.94953125 12.11945312 3 13 C1.58318366 12.68817931 0.16655349 12.37551263 -1.25 12.0625 C-2.43335938 11.80146484 -2.43335938 11.80146484 -3.640625 11.53515625 C-5.76878703 11.052444 -7.88532842 10.53836822 -10 10 C-10 9.34 -10 8.68 -10 8 C-8.38542921 6.56418526 -6.70780925 5.19855217 -5 3.875 C-4.071875 3.15054688 -3.14375 2.42609375 -2.1875 1.6796875 C-1.465625 1.12539063 -0.74375 0.57109375 0 0 Z " fill="#C78E36" transform="translate(261,38)"/>
<path d="M0 0 C1.60597325 0.45196245 3.20972508 0.91182327 4.8125 1.375 C6.15248047 1.75785156 6.15248047 1.75785156 7.51953125 2.1484375 C10 3 10 3 13 5 C12 8 12 8 10.22265625 9.16796875 C9.50980469 9.50441406 8.79695313 9.84085938 8.0625 10.1875 C7.35222656 10.53167969 6.64195312 10.87585937 5.91015625 11.23046875 C4 12 4 12 2 12 C0.69507531 7.84055256 -0.12019705 4.34963091 0 0 Z " fill="#905C36" transform="translate(303,39)"/>
<path d="M0 0 C1.21236328 0.01353516 1.21236328 0.01353516 2.44921875 0.02734375 C3.37154297 0.04474609 3.37154297 0.04474609 4.3125 0.0625 C4.3125 1.0525 4.3125 2.0425 4.3125 3.0625 C3.63703125 3.14886719 2.9615625 3.23523438 2.265625 3.32421875 C-3.47897259 4.19511505 -3.47897259 4.19511505 -8.25 7.3125 C-9.8044263 10.2861851 -10.37787129 12.73399138 -10.6875 16.0625 C-11.6775 16.0625 -12.6675 16.0625 -13.6875 16.0625 C-14.4037143 9.25846419 -14.4037143 9.25846419 -12.45703125 6.0078125 C-8.64717112 1.47360859 -6.03603513 -0.08747877 0 0 Z " fill="#924623" transform="translate(351.6875,337.9375)"/>
<path d="M0 0 C3.875 1.75 3.875 1.75 5 4 C5.30343947 7.48955396 5.39470082 9.37505704 3.5 12.375 C3.005 12.91125 2.51 13.4475 2 14 C-1.875 12.25 -1.875 12.25 -3 10 C-3.30343947 6.51044604 -3.39470082 4.62494296 -1.5 1.625 C-1.005 1.08875 -0.51 0.5525 0 0 Z " fill="#54392E" transform="translate(393,241)"/>
<path d="M0 0 C-1.49836105 3.11198065 -3.19933758 6.0534615 -5 9 C-9.83256305 8.58578031 -11.82679218 6.53586014 -15 3 C-9.63560356 0.31780178 -5.98993047 -0.3152595 0 0 Z " fill="#8F5C36" transform="translate(167,33)"/>
<path d="M0 0 C3.49107379 1.16369126 3.85222763 1.88973538 5.6875 4.9375 C6.34298828 6.00291016 6.34298828 6.00291016 7.01171875 7.08984375 C8 9 8 9 8 11 C4.04 11 0.08 11 -4 11 C-3.1302743 6.65137149 -2.0525056 3.83729307 0 0 Z " fill="#C78F36" transform="translate(127,50)"/>
<path d="M0 0 C3.67033927 3.27708863 5.69281189 6.71522208 8 11 C3.38 11 -1.24 11 -6 11 C-4.31482096 6.7870524 -2.56523798 3.67684111 0 0 Z " fill="#C99136" transform="translate(216,34)"/>
<path d="M0 0 C2 1 2 1 3.125 4.25 C3.85463482 7.37700635 4.19234975 9.82622905 4 13 C2.5410574 12.52269162 1.08286504 12.04308958 -0.375 11.5625 C-1.18710937 11.29566406 -1.99921875 11.02882812 -2.8359375 10.75390625 C-5 10 -5 10 -7 9 C-5.44499019 5.18315774 -2.96404505 2.80804268 0 0 Z " fill="#905C36" transform="translate(332,184)"/>
<path d="M0 0 C2.86453858 3.41016497 4.34703566 6.90694544 6 11 C1.71 11 -2.58 11 -7 11 C-5.55311454 8.10622907 -4.24918136 5.81466922 -2.375 3.25 C-1.92898437 2.63640625 -1.48296875 2.0228125 -1.0234375 1.390625 C-0.68570313 0.93171875 -0.34796875 0.4728125 0 0 Z " fill="#C89036" transform="translate(160,42)"/>
<path d="M0 0 C3 5.75 3 5.75 3 8 C-2.75 11 -2.75 11 -5 11 C-8 5.25 -8 5.25 -8 3 C-2.25 0 -2.25 0 0 0 Z " fill="#9A562B" transform="translate(110,379)"/>
<path d="M0 0 C3 5.75 3 5.75 3 8 C-2.75 11 -2.75 11 -5 11 C-8 5.25 -8 5.25 -8 3 C-2.25 0 -2.25 0 0 0 Z " fill="#9A562B" transform="translate(106,364)"/>
<path d="M0 0 C3 5.75 3 5.75 3 8 C-2.75 11 -2.75 11 -5 11 C-8 5.25 -8 5.25 -8 3 C-2.25 0 -2.25 0 0 0 Z " fill="#9A562B" transform="translate(61,317)"/>
<path d="M0 0 C3 5.75 3 5.75 3 8 C-0.465 9.485 -0.465 9.485 -4 11 C-8 5.25 -8 5.25 -8 3 C-2.25 0 -2.25 0 0 0 Z " fill="#9A562A" transform="translate(72,349)"/>
<path d="M0 0 C0.625 2.3125 0.625 2.3125 1 5 C0.01 6.485 0.01 6.485 -1 8 C-3.31 7.67 -5.62 7.34 -8 7 C-8.6875 4.6875 -8.6875 4.6875 -9 2 C-6.73607469 -1.99516231 -4.01344788 -0.98106504 0 0 Z " fill="#C89036" transform="translate(331,315)"/>
<path d="M0 0 C2.5 0.25 2.5 0.25 4.5 2.25 C4.75 4.75 4.75 4.75 4.5 7.25 C2.5 9.25 2.5 9.25 0 9.5 C-2.5 9.25 -2.5 9.25 -4.5 7.25 C-4.75 4.75 -4.75 4.75 -4.5 2.25 C-2.5 0.25 -2.5 0.25 0 0 Z " fill="#C99136" transform="translate(351.5,346.75)"/>
<path d="M0 0 C2.5 0.25 2.5 0.25 4.5 2.25 C4.75 4.75 4.75 4.75 4.5 7.25 C2.5 9.25 2.5 9.25 0 9.5 C-2.5 9.25 -2.5 9.25 -4.5 7.25 C-4.75 4.75 -4.75 4.75 -4.5 2.25 C-2.5 0.25 -2.5 0.25 0 0 Z " fill="#C99136" transform="translate(338.5,331.75)"/>
<path d="M0 0 C2.5 0.25 2.5 0.25 4.5 2.25 C4.75 4.75 4.75 4.75 4.5 7.25 C2.5 9.25 2.5 9.25 0 9.5 C-2.5 9.25 -2.5 9.25 -4.5 7.25 C-4.75 4.75 -4.75 4.75 -4.5 2.25 C-2.5 0.25 -2.5 0.25 0 0 Z " fill="#C99136" transform="translate(419.5,201.75)"/>
<path d="M0 0 C2.89932357 2.39509338 3.50168276 4.31245243 4 8 C0.535 9.485 0.535 9.485 -3 11 C-6 6.375 -6 6.375 -6 3 C-4.02 2.01 -2.04 1.02 0 0 Z " fill="#99552A" transform="translate(82,381)"/>
<path d="M0 0 C2.15377564 2.62198774 3.40072174 4.64404172 4 8 C1.6875 9.5625 1.6875 9.5625 -1 11 C-4 10 -4 10 -5.1875 8.125 C-6 6 -6 6 -6 3 C-4.02 2.01 -2.04 1.02 0 0 Z " fill="#9A552A" transform="translate(152,377)"/>
<path d="M0 0 C2.89932357 2.39509338 3.50168276 4.31245243 4 8 C0.535 9.485 0.535 9.485 -3 11 C-6 6.375 -6 6.375 -6 3 C-4.02 2.01 -2.04 1.02 0 0 Z " fill="#99552A" transform="translate(99,347)"/>
<path d="M0 0 C1.64820195 2.60242414 2 3.86248779 2 7 C-1.465 8.485 -1.465 8.485 -5 10 C-6.5625 7.1875 -6.5625 7.1875 -8 4 C-7 1 -7 1 -5.125 -0.25 C-3 -1 -3 -1 0 0 Z " fill="#99552A" transform="translate(165,337)"/>
<path d="M0 0 C2.89932357 2.39509338 3.50168276 4.31245243 4 8 C0.535 9.485 0.535 9.485 -3 11 C-6 6.375 -6 6.375 -6 3 C-4.02 2.01 -2.04 1.02 0 0 Z " fill="#99552A" transform="translate(65,332)"/>
<path d="M0 0 C3 5.75 3 5.75 3 8 C-0.465 9.485 -0.465 9.485 -4 11 C-7.01866081 6.65312843 -7.01866081 6.65312843 -6.9375 3.8125 C-5.42908118 0.89622362 -3.216386 0 0 0 Z " fill="#9A552A" transform="translate(55,300)"/>
<path d="M0 0 C2.5625 0.1875 2.5625 0.1875 4.5625 2.1875 C4.8125 4.6875 4.8125 4.6875 4.5625 7.1875 C2.5625 9.1875 2.5625 9.1875 0.0625 9.5 C-1.175 9.3453125 -1.175 9.3453125 -2.4375 9.1875 C-4.4375 6.1875 -4.4375 6.1875 -4.125 3.5625 C-3.16420807 0.24340062 -3.16420807 0.24340062 0 0 Z " fill="#C89136" transform="translate(430.4375,105.8125)"/>
<path d="M0 0 C2.5 0.25 2.5 0.25 4.5 2.25 C4.125 5.375 4.125 5.375 3.5 8.25 C0.625 8.875 0.625 8.875 -2.5 9.25 C-4.5 7.25 -4.5 7.25 -4.75 4.75 C-4.40058445 1.25584452 -3.49415548 0.34941555 0 0 Z " fill="#C99236" transform="translate(421.5,169.75)"/>
<path d="M0 0 C0.763125 0.20625 1.52625 0.4125 2.3125 0.625 C2.9375 3.5 2.9375 3.5 3.3125 6.625 C1.3125 8.625 1.3125 8.625 -1.8125 8.75 C-3.235625 8.688125 -3.235625 8.688125 -4.6875 8.625 C-5.0175 6.315 -5.3475 4.005 -5.6875 1.625 C-2.6875 -0.375 -2.6875 -0.375 0 0 Z " fill="#C89136" transform="translate(386.6875,111.375)"/>
<path d="M0 0 C0.33 2.64 0.66 5.28 1 8 C-1.31 8.33 -3.62 8.66 -6 9 C-7.25664978 6.09399739 -8 4.20395416 -8 1 C-5.23735711 0.40267181 -2.83967231 0 0 0 Z " fill="#9B562B" transform="translate(219,351)"/>
<path d="M0 0 C5 2.5 5 2.5 7 5 C7 5.99 7 6.98 7 8 C5.50390625 9.38671875 5.50390625 9.38671875 3.5625 10.6875 C2.60537109 11.34298828 2.60537109 11.34298828 1.62890625 12.01171875 C0 13 0 13 -1 13 C-0.67 8.71 -0.34 4.42 0 0 Z " fill="#C89036" transform="translate(324,131)"/>
<path d="M0 0 C0.33 1.98 0.66 3.96 1 6 C-1.64 6.66 -4.28 7.32 -7 8 C-7.33 5.36 -7.66 2.72 -8 0 C-4.71023192 -1.09658936 -3.28696233 -0.79953138 0 0 Z " fill="#9A562B" transform="translate(167,358)"/>
<path d="M0 0 C0.40729228 2.32156597 0.74438677 4.6568787 1 7 C-1.64 7.33 -4.28 7.66 -7 8 C-7.33 5.69 -7.66 3.38 -8 1 C-2.25 -1.125 -2.25 -1.125 0 0 Z " fill="#9A562B" transform="translate(229,329)"/>
<path d="M0 0 C1.98 0 3.96 0 6 0 C5.67 3.63 5.34 7.26 5 11 C3.02 11 1.04 11 -1 11 C-0.67 7.37 -0.34 3.74 0 0 Z " fill="#9A562A" transform="translate(158,53)"/>
<path d="M0 0 C2.0625 0.4375 2.0625 0.4375 4 1 C3 4 3 4 0.5625 5.875 C-2.17702754 8.14680333 -2.9765183 9.65042354 -4 13 C-4.99 13 -5.98 13 -7 13 C-6.74126898 8.60157266 -6.43893111 6.50477078 -3.5 3.125 C-2.2625 2.073125 -2.2625 2.073125 -1 1 C-0.67 0.67 -0.34 0.34 0 0 Z " fill="#934824" transform="translate(343,396)"/>
<path d="M0 0 C1.4606285 2.64738916 2 3.89448334 2 7 C-0.64 7.66 -3.28 8.32 -6 9 C-6.33 6.36 -6.66 3.72 -7 1 C-4 0 -4 0 0 0 Z " fill="#9A562A" transform="translate(79,368)"/>
<path d="M0 0 C0.33 2.64 0.66 5.28 1 8 C-1.31 8.33 -3.62 8.66 -6 9 C-6.66 6.69 -7.32 4.38 -8 2 C-5.09399739 0.74335022 -3.20395416 0 0 0 Z " fill="#9A562A" transform="translate(221,362)"/>
<path d="M0 0 C0.33 2.31 0.66 4.62 1 7 C-1.31 7.66 -3.62 8.32 -6 9 C-7.35439668 6.29120665 -7.06501451 3.99066732 -7 1 C-4 0 -4 0 0 0 Z " fill="#9A562A" transform="translate(232,351)"/>
<path d="M0 0 C0.33 2.31 0.66 4.62 1 7 C-1.31 7.33 -3.62 7.66 -6 8 C-6.66 5.69 -7.32 3.38 -8 1 C-5.29120665 -0.35439668 -2.99066732 -0.06501451 0 0 Z " fill="#9A562A" transform="translate(170,374)"/>
<path d="M0 0 C-0.51881113 4.1724106 -1.71151274 6.25416821 -4.5625 9.3125 C-5.20316406 10.00988281 -5.84382813 10.70726562 -6.50390625 11.42578125 C-6.99761719 11.94527344 -7.49132812 12.46476562 -8 13 C-8.99 12.67 -9.98 12.34 -11 12 C-9.43035549 6.8201731 -5.8629386 0 0 0 Z " fill="#934824" transform="translate(367,366)"/>
<path d="M0 0 C0.66 2.31 1.32 4.62 2 7 C-0.64 7.66 -3.28 8.32 -6 9 C-6.33 6.36 -6.66 3.72 -7 1 C-4 0 -4 0 0 0 Z " fill="#9A562A" transform="translate(230,340)"/>
<path d="M0 0 C-1.48868707 4.60139641 -3.74629855 7.50227094 -7 11 C-7.66 11 -8.32 11 -9 11 C-9.33 8.03 -9.66 5.06 -10 2 C-3.375 0 -3.375 0 0 0 Z " fill="#915D36" transform="translate(340,143)"/>
<path d="M0 0 C0.33 1.98 0.66 3.96 1 6 C-4.75 9 -4.75 9 -7 9 C-7.33 6.69 -7.66 4.38 -8 2 C-2.25 0 -2.25 0 0 0 Z " fill="#9A562B" transform="translate(259,345)"/>
<path d="M0 0 C-0.60994066 3.06325753 -1.57728011 5.20050634 -3.375 7.75 C-3.79523438 8.36359375 -4.21546875 8.9771875 -4.6484375 9.609375 C-5.09445312 10.06828125 -5.54046875 10.5271875 -6 11 C-6.99 11 -7.98 11 -9 11 C-8.72217314 7.01781501 -8.20726652 5.25090158 -5.625 2.125 C-3 0 -3 0 0 0 Z " fill="#934724" transform="translate(356,381)"/>
<path d="M0 0 C0.5345256 1.24420647 1.05208611 2.49570936 1.5625 3.75 C1.85253906 4.44609375 2.14257812 5.1421875 2.44140625 5.859375 C3.07831803 8.30012784 2.80248831 9.6403655 2 12 C0.66072279 10.54712339 -0.67126847 9.08752741 -2 7.625 C-2.7425 6.81289062 -3.485 6.00078125 -4.25 5.1640625 C-6 3 -6 3 -6 1 C-3 0 -3 0 0 0 Z " fill="#915C37" transform="translate(328,168)"/>
<path d="M0 0 C1.32 0.66 2.64 1.32 4 2 C4 3.98 4 5.96 4 8 C2.02 8.99 2.02 8.99 0 10 C-2 7 -2 7 -1.6875 3.875 C-1 1 -1 1 0 0 Z " fill="#553A2E" transform="translate(407,245)"/>
<path d="M0 0 C0.33 1.32 0.66 2.64 1 4 C-0.98 4.66 -2.96 5.32 -5 6 C-5.33 4.02 -5.66 2.04 -6 0 C-3.50907189 -1.24546405 -2.58919267 -0.7767578 0 0 Z " fill="#9A562A" transform="translate(216,341)"/>
<path d="M0 0 C1.65 0.33 3.3 0.66 5 1 C4.67 2.32 4.34 3.64 4 5 C2.35 4.67 0.7 4.34 -1 4 C-0.67 2.68 -0.34 1.36 0 0 Z " fill="#C78E36" transform="translate(406,108)"/>
<path d="" fill="#954C28" transform="translate(0,0)"/>
</svg>
