<svg xmlns="http://www.w3.org/2000/svg" width="479" height="460"><path d="M46.422 198.012c3.166 1.113 6.33 2.23 9.484 3.379 2.017.729 4.042 1.43 6.069 2.132C69.535 206.214 75.382 209.146 81 215l1.736 1.59c6.094 6.031 7.419 12.89 9.139 21.05.328 1.462.658 2.923.99 4.384.704 3.114 1.393 6.23 2.07 9.35 1.073 4.93 2.181 9.853 3.298 14.774l.568 2.502 1.14 5.023c.573 2.53 1.143 5.062 1.712 7.593 3.529 15.668 7.269 31.277 11.16 46.859l.924 3.711c4.385 17.536 9.223 34.885 14.76 52.092l.723 2.249c.632 1.953 1.274 3.904 1.916 5.854C132 395 132 395 132 398c-5.764 2.648-10.91 1.802-17 1v2l-3.176-.035-4.137-.027-2.091-.026c-3.144-.015-5.59.086-8.596 1.088-3.264.427-6.526.554-9.813.688l-2.697.24c-2.793.089-4.845-.012-7.49-.928-2.789-2.951-4.312-6.337-6-10a1935.55 1935.55 0 0 0-2.992-5.719c-.965-1.925-1.926-3.852-2.883-5.781l-1.508-2.992-1.422-2.852-1.28-2.568C60 370 60 370 60 368l-2-1a81.663 81.663 0 0 1-2.25-5.25c-2.336-5.816-4.92-11.475-7.613-17.133C47 342 47 342 47 340l-2-1a91.79 91.79 0 0 1-2.438-5.625l-1.335-3.309L40 327a452.597 452.597 0 0 0-4.805-11.012c-2.368-5.324-4.567-10.713-6.758-16.113a10290.725 10290.725 0 0 0-3.424-8.42c-.83-2.011-1.694-4.009-2.568-6.002-1.867-4.462-3.437-9.005-5.008-13.578-.604-1.753-1.21-3.506-1.816-5.258l-.848-2.454c-.613-1.716-1.29-3.41-1.988-5.093C12 257 12 257 12 254l-2-1c-.781-1.969-.781-1.969-1.5-4.5l-.777-2.715c-.865-3.334-1.57-6.683-2.196-10.07L5 234l-2-1c-.887-2.328-.887-2.328-1.688-5.25l-.824-2.89c-.544-3.187-.558-4.811.512-7.86 2.573-2.065 2.573-2.065 5.977-4.066l1.828-1.094a565.646 565.646 0 0 1 5.82-3.402c1.286-.761 2.571-1.524 3.855-2.288 3.495-2.071 7.003-4.118 10.52-6.15l1.733-1.17c5.758-3.74 9.41-2.675 15.689-.818ZM430.125 86.75l3.477-.063c9.745-.043 21.08.699 29.398 6.313 1.92 1.91 3.398 3.786 5 6v2l2.813.188c3.187.812 3.187.812 5 2.812 1.984 5.013 3.105 9.777 1 14.875C475 121 475 121 472.875 122.438c-2.201 1.515-2.201 1.515-2.625 4.75L470 130l2.375.375C475 131 475 131 477 133c.336 3.082.336 3.082.375 6.813l.086 3.707c-.535 4.04-1.525 5.698-4.461 8.48h-3v5l2.813.25c3.187.75 3.187.75 4.859 2.41 2.654 4.677 1.882 10.142 1.328 15.34-1.395 4.966-3.567 10.158-8 13-9.906 3.981-20.125.476-30-2l-.37-1.889a608.758 608.758 0 0 0-1.017-5.017 179.832 179.832 0 0 1-1.133-6.313c-2.01-11.31-6.579-23.187-14.48-31.781h-2c.592 3.432 1.467 6.38 2.89 9.555l1.145 2.59 1.215 2.73c7.818 17.92 16.392 38.456 10.25 58.188-2.815 6.614-7.717 10.845-14.188 13.812-16.138 5.48-36.983 3.121-53.312-.875l-3.434-.832c-7.281-1.883-7.281-1.883-8.566-3.168l-.125-3.625c-.49-4.784-2.85-6.877-6.379-9.93L350 208v-2h-2c-3-5.75-3-5.75-3-8l-2-1c-3.663-6.366-5.48-13.572-7.313-20.625l-.837-3.023c-1.65-6.283-2.59-11.392.123-17.567L338 151h2l.672-1.742c1.734-2.947 3.808-4.392 6.578-6.383l2.828-2.07C353 139 353 139 359 137l7 16 7.043.043c2.26.03 4.521.07 6.781.11 1.567.023 3.133.037 4.7.043 2.257.009 4.512.05 6.769.097l2.11-.012c3.62.108 5.54.68 8.54 2.751 2.597 3.747 2.764 6.75 2.686 11.155l.007 2.365a337.934 337.934 0 0 1-.04 4.931c-.033 2.51-.02 5.015 0 7.525-.007 1.601-.017 3.203-.03 4.804l.015 2.261c-.08 3.617-.496 5.787-2.394 8.9-3.167 2.935-5.504 2.66-9.75 2.59l-2.037.033c-2.982-.045-4.952-.252-7.345-2.092-1.564-3.713-1.451-7.143-1.368-11.129l-.01-2.352c.056-5.756.056-5.756 2.323-8.023 2.688-.27 5.291-.087 8 0l1 5h2c-.229-1.462-.484-2.92-.75-4.375l-.422-2.46c-.647-2.302-.647-2.302-2.71-3.47-2.99-.981-5.11-.48-8.118.305-3.273 3.273-3.127 6.62-3.133 11.098l-.004 2.927.012 3.037-.012 3.05.004 2.923.004 2.668c.037 2.46.037 2.46 1.129 5.297 2.91 1.455 5.509 1.209 8.75 1.25l3.672.078c3.998-.367 6.26-1.072 9.578-3.328 2.982-4.708 3.443-8.843 3.398-14.285l.01-2.36c.001-1.638-.004-3.276-.017-4.914-.016-2.5 0-4.998.02-7.498-.003-1.597-.007-3.194-.013-4.79l.019-2.252c-.06-4.48-.648-7.346-3.417-10.901-5.966-4.512-12.008-4.975-19.313-5.688-2.163-.23-4.325-.463-6.488-.699l-2.88-.288C372 147 372 147 370 146v-2l-1.813-.75c-2.655-1.517-3.702-2.562-5.187-5.25-2.35-9.735 1.415-17.937 6.3-26.336 8.768-13.745 21.936-19.187 37.298-22.973 7.895-1.604 15.49-1.906 23.527-1.941Z" fill="#B06A3A"/><path d="M254 365h1c3.401 24.66 5.796 51.721-6.75 74.125-5.159 6.592-11.212 11.322-19.25 13.875h-3v2l-2.938-.063c-2.937-.293-2.937-.293-4.062 1.063-1.54.047-3.084.037-4.625 0-4.233-.048-8.186.356-12.375 1h-6l-2 1c-2.763.07-5.51-.003-8.273-.063-2.61-.043-2.61-.043-4.604.547-16.358 3.976-36.508 1.693-53.286 1.802-2.283.018-4.566.042-6.849.073-18.57.242-38.253-.17-53.988-11.359l-2.875-1.125C62 446 62 446 61.656 443.765c-.051-4.336.222-8.559 1.344-12.765h2l.25-2.375c.818-3.954 2.08-7.393 3.691-11.086 1.103-2.467 1.103-2.467 1.649-4.89.803-2.616 1.322-3.843 3.41-5.649 4.113-.971 8.044-1.393 12.25-1.648 3.458-.325 4.798-.864 7.75-2.352 3.242-.23 3.242-.23 6.875-.188l3.617.02c3.508.168 3.508.168 6.567.7 3.173.505 5.93.427 9.129.156 1.024-.08 2.05-.158 3.105-.239 2.92-.294 2.92-.294 5.707-2.449 3.031-.195 3.031-.195 6.715-.125l1.976.023c2.785.033 5.57.089 8.355.143 2.035.036 4.07.06 6.106.084l3.688.07c3.154-.195 4.426-.817 7.16-2.195 3.116-.227 3.116-.227 6.734-.195l3.926.02 4.09.05A1937.467 1937.467 0 0 1 192 399l1-3c2.558-1.279 4.277-1.066 7.137-.992 22.07 1.16 22.07 1.16 41.613-7.508 1.484-1.596 1.484-1.596 2.25-4.5h2l.805-2.602c1.205-3.427 2.667-6.54 4.32-9.773l1.633-3.21L254 365Z" fill="#71542C"/><path d="M123 207c3.49.39 6.32 2.128 9.36 3.8l3.132 1.714 3.258 1.798c2.12 1.164 4.239 2.327 6.36 3.489l3.053 1.676a195.604 195.604 0 0 0 7.462 3.789c5.803 2.982 7.364 7.302 9.375 13.234 9.996 35.005 11.384 73.313 15.033 109.34l.375 3.694c.232 2.292.462 4.585.692 6.877.527 5.218 1.119 10.403 1.9 15.589.531 5.17.7 8.78-1.938 13.375-9.491 9.439-25.52 10.134-38.062 10.625-8-18.851-8-18.851-8-26l-2-1c-.746-2.406-.746-2.406-1.438-5.5-1.084-4.646-2.36-9.09-4.011-13.563C127 348 127 348 127 344l-2-1c-1.696-4.367-2.756-8.878-3.855-13.426-1.796-7.317-3.806-14.56-5.894-21.8-6.215-21.625-12.243-43.44-15.251-65.774l-.64-3.766c-1.127-8.105-1.127-8.105.968-11.187 1.805-1.554 3.654-2.79 5.672-4.047l2.313-2.313c3.372-3.372 6.921-6.524 10.48-9.699A111.31 111.31 0 0 0 123 207ZM209 214c4.856 4.687 8.707 9.799 12.68 15.232a250.003 250.003 0 0 0 4.312 5.569c1.003 1.295 2.006 2.59 3.008 3.887l1.458 1.796c2.421 3.177 3.792 5.653 4.154 9.67l.218 2.4c.272 3.911.44 7.817.559 11.735l.089 2.67c.095 2.889.186 5.777.276 8.666l.197 6.094c.138 4.254.273 8.507.406 12.76.17 5.405.345 10.81.521 16.214.137 4.197.271 8.394.404 12.592l.193 5.97c.387 11.92.613 23.819.525 35.745-30.337 15.158-30.337 15.158-44 14-1.63-1.63-1.482-3.618-1.804-5.863l-.463-3.19-.499-3.532-.532-3.695c-.483-3.355-.961-6.71-1.438-10.067-.5-3.51-1.003-7.02-1.506-10.53-.844-5.9-1.685-11.8-2.524-17.702-.969-6.816-1.944-13.632-2.922-20.447-.84-5.85-1.676-11.701-2.51-17.552-.498-3.495-.997-6.99-1.499-10.483-.56-3.902-1.114-7.805-1.667-11.707l-.505-3.5-.454-3.234-.399-2.795c-.823-7.998-.823-7.998 1.847-11.45l2.875-2.69 1.525-1.451c3.39-3.2 6.889-6.27 10.436-9.292 3.369-3.007 6.493-6.255 9.644-9.488 2.352-2.29 4.799-4.326 7.395-6.332ZM331.838 296.215c3.214.798 5.847 1.871 8.81 3.34l3.265 1.598 3.462 1.722a3722.277 3722.277 0 0 0 9.085 4.454 425.22 425.22 0 0 0 12.618 5.874l3.342 1.497c2.106.936 4.215 1.864 6.328 2.784l2.854 1.274 2.51 1.098C386 321 386 321 387 324c-.804 2.081-.804 2.081-2.09 4.457l-1.377 2.623c-.974 1.811-1.951 3.62-2.93 5.43-3.38 6.365-3.38 6.365-3.603 13.49l2.207.82c2.712 1.146 5.021 2.443 7.48 4.055l2.325 1.492c2.173 1.785 3.068 2.99 3.988 5.633.1 4.257-.728 8.365-3 12l1.496.918c5.159 3.373 5.159 3.373 6.691 6.52-.276 3.778-1.8 5.671-4.187 8.562-3.959 3.21-6.98 3.51-12 3-2.764-.844-5.329-1.875-8-3v2l2.187.313c3.09.755 5.209 1.878 7.813 3.687 1.444 2.889 1.377 4.796 1 8-1.996 2.962-3.5 4.646-7.055 5.484-5.522.344-8.863-1.181-13.218-4.488L363 404l-3 1 2.117 1.207 2.758 1.606 2.742 1.582C370 411 370 411 372 414c.437 2.438.437 2.438 0 5-2.185 2.695-3.893 3.834-7.348 4.352-9.671.32-14.828-4.03-21.652-10.352l-2 1c-6.61-1.372-10.268-3.643-14.25-9.062-2.682-4.503-3.254-7.73-2.75-12.938 2.505-6.056 6.56-11.326 10.352-16.625 2.1-3.027 3.89-6.14 5.648-9.375l-2.035-.727C321.926 358.385 307.08 346.151 297 332c3.607-5.137 7.493-9.616 11.984-13.996 4.268-4.243 8.194-8.712 11.578-13.691 5.98-8.5 5.98-8.5 11.276-8.098ZM275 199c25.442.402 49.47 4.324 74 11 5.427 19.83-2.156 42.466-11.563 59.688l-1.139 2.11c-3.387 5.97-3.387 5.97-7.298 7.202-7.417-7.255-7.417-7.255-10.25-10.875-1.792-2.176-3.151-3.104-5.75-4.125v-2h-2v-2h-2a804.733 804.733 0 0 1-3.258-3.379c-3.076-2.862-6.548-5.197-9.965-7.633a251.068 251.068 0 0 1-7.027-5.238c-4.018-3.028-8.214-5.464-12.707-7.742-4.852-2.55-4.852-2.55-5.98-5.258L270 229h2v-12h2l-.559-1.547c-.61-3.396-.039-6.304.497-9.703l.59-3.828L275 199ZM269 235c4.138 2.306 7.684 5.096 11.25 8.188l1.813 1.566C297.184 257.93 311.537 271.446 323 288c-6.845 16.222-18.844 29.506-31 42l-1.657 1.719a839.046 839.046 0 0 1-4.968 5.094l-1.543 1.583c-1.239 1.24-2.531 2.428-3.832 3.604h-2l-.332-2.18a3740.2 3740.2 0 0 0-4.272-27.224c-.266-1.658-.53-3.316-.792-4.974-.384-2.435-.775-4.868-1.166-7.302l-.348-2.22c-.728-4.48-1.785-8.743-3.09-13.1-1.165-5.506-1.165-5.506 0-9l-2-1c-.492-2.16-.492-2.16-.875-5.063-.882-5.933-2.235-11.635-3.804-17.416-1.904-7.209-1.904-7.209-1.321-10.521 1.969-2.02 1.969-2.02 4.5-3.813l2.531-1.832L269 235Z" fill="#B06A3A"/><path d="M348 260c8.19.522 16.09 2.467 24.063 4.309l4.326.99c3.003.688 6.005 1.38 9.006 2.075 3.853.892 7.708 1.77 11.564 2.646 2.97.676 5.938 1.36 8.905 2.046 1.422.328 2.844.653 4.268.975 1.978.45 3.955.91 5.93 1.37l3.41.786L422 276c1 2 1 2 .102 5.352C411.849 311.95 411.849 311.95 401 319c-3.086.344-4.943-.142-8-1v-2l-1.633-.367c-9.233-2.468-17.822-6.711-26.273-11.082-2.673-1.34-5.32-2.448-8.094-3.551a465.9 465.9 0 0 1-4.793-2.129l-2.658-1.197-2.736-1.236-2.772-1.249c-6.746-3.041-6.746-3.041-9.041-4.189 2.138-6.853 4.77-13.416 7.625-20l1.234-2.887c3.007-6.98 3.007-6.98 4.141-8.113ZM357 230c11.274-.383 22.404.657 33.622 1.654 3.2.284 6.401.561 9.603.836a14185.665 14185.665 0 0 1 9.036.787c5.264.469 10.5 1.033 15.739 1.723 4.127 12.257 3.927 22.727 0 35l-15-1v-2l-1.73.105c-6.337.212-11.88-.775-18.016-2.304a167.407 167.407 0 0 0-9.254-1.988c-.846-.16-1.691-.318-2.563-.481-2.51-.342-4.907-.39-7.437-.332v-2l-1.836.07c-6.313.136-12.028-.608-18.164-2.07-1.19-3.568-.713-4.914.25-8.5l.852-3.21L353 243l.836-3.164c2.002-7.511 2.002-7.511 3.164-9.836Z" fill="#71532C"/><path d="M340.06 73.668c2.216 1.521 3.405 2.995 4.92 5.21l1.588 2.292 1.62 2.393c1.076 1.564 2.153 3.128 3.23 4.69l1.43 2.105c1.05 1.599 1.05 1.599 2.152 2.642.087 1.562.107 3.127.098 4.691l-.01 2.862-.025 3.01-.014 3.021A2109.54 2109.54 0 0 1 355 114c-7.85.917-15.7 1.83-23.55 2.738-3.645.422-7.29.845-10.935 1.271-3.52.412-7.042.82-10.563 1.226-1.99.23-3.981.464-5.972.698l-3.7.424c-1.07.125-2.14.25-3.243.377-3.03.265-5.998.313-9.037.266a894.493 894.493 0 0 1-2.312-5.375l-1.301-3.023c-1.72-4.466-3.066-9.005-4.387-13.602l2.956-1.31 8.732-3.874a8385.67 8385.67 0 0 1 9.898-4.386c7.22-3.198 14.428-6.406 21.562-9.79l3.057-1.44c1.821-.863 3.637-1.74 5.446-2.631l2.412-1.14 2.035-.992C338 73 338 73 340.06 73.668Z" fill="#B06A3A"/><path d="M257 245c3.68 35.978 5.323 71.845 6 108-6.625 4-6.625 4-10 4l-1 2c-2.314.73-4.648 1.401-7 2-1.415-8.816-2.13-17.325-2-26.25.122-9.04-.288-17.982-.938-27l-.263-3.735c-.188-5.685-.188-5.685-1.799-11.015 0-2.138.003-4.276.027-6.414-.055-5.274-.355-10.57-2.027-15.586a73.19 73.19 0 0 1-.316-4.012l-.127-2.295-.12-2.38-.13-2.417c-.106-1.965-.207-3.93-.307-5.896 2.765-1.51 5.538-3.006 8.313-4.5.785-.43 1.57-.859 2.38-1.3l2.295-1.231 2.11-1.143C254 245 254 245 257 245Z" fill="#AF6A3A"/><path d="M275 343c1.813.189 1.813.189 4 1 1.533 2.135 1.533 2.135 2.996 4.977l1.676 3.19 1.765 3.458a3200.41 3200.41 0 0 0 3.715 7.11l.954 1.828c2.156 4.11 4.425 8.136 6.773 12.14l1.844 3.154a563.518 563.518 0 0 0 3.54 5.93l1.58 2.705 1.413 2.355c.744 2.153.744 2.153.099 4.25-1.46 2.05-2.862 3.345-4.875 4.848l-2.1 1.575-2.192 1.605-2.159 1.629c-3.59 2.664-6.81 4.687-11.029 6.246l-1 2c-1.325.684-2.659 1.35-4 2l-2 2a164.576 164.576 0 0 1-5.5 3.125l-2.969 1.633C265 423 265 423 263 423c-.177-7.72-.343-15.438-.495-23.158-.07-3.585-.145-7.17-.229-10.755-.08-3.462-.15-6.924-.214-10.387-.038-1.957-.087-3.915-.136-5.872l-.061-3.639-.068-3.19c.438-6.484 2.59-9.612 7.203-13.999l1.688-2.813L272 347h2l1-4Z" fill="#70532C"/><path d="M304.875 39.313C315.059 42.173 324.601 47.44 332 55c-1.214 8.193-9.854 13.376-16 18-7.824 5.718-15.894 11.052-24.188 16.063l-1.852 1.12c-3.223 1.91-6.377 3.69-9.96 4.817-2.768-1.384-3.42-3.356-5-6a142.06 142.06 0 0 0-4.188-4.813l-2.167-2.394L267 80c5.255-10.628 5.255-10.628 8-12l1-3c1.632-1.7 3.305-3.362 5-5 1.86-1.977 3.678-3.99 5.5-6 2.691-2.97 5.393-5.893 8.234-8.723 2.306-2.197 2.306-2.197 4.016-4.715C301 39 301 39 304.875 39.313Z" fill="#B06A3A"/><path d="M49 24c12.333 1.039 24.69 4.227 36.813 6.625A16407.72 16407.72 0 0 1 108 35l-.001 18c-6.752 2.25-6.752 2.25-10.348 3.035l-2.334.514-2.38.514-2.393.525c-2.97.65-5.938 1.292-8.92 1.88-2.96.6-5.9 1.267-8.844 1.942l-3.574.81c-2.472.562-4.944 1.127-7.414 1.696l-3.574.807-3.252.742c-2.737.494-5.195.64-7.967.535-.195-2.416-.382-4.833-.563-7.25l-.17-2.066c-.255-3.516-.115-6.303.733-9.684.133-1.72.223-3.444.281-5.168l.114-2.955.21-6.164.114-2.943.092-2.7C48 25 48 25 49 24Z" fill="#53372D"/><path d="m279.018 163.88 2.685.006h3.034l3.298.016 3.359.005c3.556.005 7.112.018 10.668.03 2.405.006 4.81.01 7.213.014 5.909.011 11.817.028 17.725.049 1.41 4.322 2.815 8.646 4.218 12.97.477 1.47.955 2.94 1.434 4.408.69 2.117 1.377 4.234 2.063 6.352l.647 1.977c1.1 3.408 2.022 6.765 2.638 10.293-9.158-.785-18.199-2.199-27.275-3.627-5.658-.865-11.009-1.49-16.725-1.373l-3-1c-2.739-.07-5.45-.094-8.188-.062l-2.271.013c-1.847.012-3.694.03-5.541.049-.194-2.145-.38-4.291-.563-6.437l-.316-3.622L274 181l1-1c.21-2.504.376-4.991.5-7.5.418-8.436.418-8.436 3.518-8.62ZM355 124c-2.808 5.215-5.978 9.694-9.75 14.25-.998 1.211-1.992 2.425-2.984 3.64l-1.643 1.912c-1.753 2.21-1.753 2.21-2.918 5.11-1.886 3.726-3.275 5.648-6.705 8.088-8.106 1.896-16.755 1.027-25 .688-2.324-.056-4.648-.106-6.973-.15A865.801 865.801 0 0 1 282 157l-1-4h2l-.035-2.746c-.1-13.554-.1-13.554 1.035-20.254 2.603-1.302 4.793-1.334 7.7-1.573l3.622-.303 3.936-.315 4.037-.332c2.826-.232 5.652-.462 8.478-.689 3.605-.29 7.21-.586 10.813-.884 2.783-.23 5.566-.456 8.35-.682 1.97-.16 3.939-.323 5.909-.485 6.073-.485 12.062-.866 18.155-.737Z" fill="#B06A3A"/><path d="M43 389c5.757 4.474 9.414 9.355 10.348 16.758.368 7.381-.786 13.307-5.348 19.242-5.138 4.552-11.19 8.162-18.219 7.863C18.14 430.91 18.14 430.91 14 428c-1.188-1.938-1.188-1.938-2-4l-1.5-1.875C7.02 417.194 5.948 410.961 6 405c1.898-6.762 6.243-12.512 12.105-16.395 7.942-3.977 17.135-4.161 24.895.395Z" fill="#55382E"/><path d="M51 200a192.67 192.67 0 0 1 6.813 1.938l3.832 1.09c3.804 2.236 4.589 3.786 5.694 7.986L68 214l.905 3.832c1.058 4.546 2.047 9.106 3.032 13.668 4.792 22.798 4.792 22.798 10.938 45.25 1.568 5.088 3.122 10.173 4.527 15.309 3.062 11.16 6.65 22.013 10.703 32.856l1.137 3.062 1.027 2.72C101 333 101 333 101 336l-9 3c-10.594-25.082-19.204-50.963-26.244-77.251-1.205-4.381-2.545-8.719-3.881-13.062-2.52-8.254-4.669-16.57-6.703-24.957a264.608 264.608 0 0 0-2.406-9.18l-.584-2.082c-.52-1.835-1.05-3.667-1.58-5.5-.577-2.844-.612-4.293.398-6.968Z" fill="#99552A"/><path d="M244 26c14.88.327 29.586 4.708 43 11-1.753 4.235-4.73 7.45-7.625 10.938C271.77 57.279 265.758 66.906 261 78c-3.438-.475-6.875-.955-10.313-1.438l-2.958-.408-2.842-.4-2.619-.365C240 75 240 75 237 74c.272-10.008 1.282-19.747 2.938-29.625l.514-3.086C241.357 36.08 242.424 31.047 244 26Z" fill="#B06A3A"/><path d="M100.438 146.5c5.42 3.243 8.57 8.17 11 13.875 1.07 6.893.6 13.764-3.438 19.625-5.514 5.657-9.9 9.044-17.938 9.188-3.77-.074-7.362-.41-11.062-1.188v-2l-1.797-.785c-2.362-1.302-3.712-2.608-5.453-4.653l-1.578-1.808C69 177 69 177 69 174l-2-1c-.39-8.196.615-14.388 5.188-21.313 7.684-7.342 18.194-9.51 28.25-5.187Z" fill="#55392E"/><path d="M205 24h33l-1.875 8.688c-2.399 11.352-4.254 22.508-4.784 34.11C231.1 71.802 231.1 71.802 230 74h-27c-.77-5.384-1.03-9.977-.695-15.313l.131-2.34c.093-1.624.189-3.248.288-4.871.15-2.468.29-4.937.428-7.406l.278-4.758.126-2.21.131-2.114.11-1.827c.288-3.066.767-6.112 1.203-9.161Z" fill="#B06A3A"/><path d="m203 221 2 1c.518 3.023.904 5.98 1.22 9.027l.322 2.873c.35 3.155.687 6.31 1.024 9.467a7485.869 7485.869 0 0 1 2.612 23.953c.633 5.858 1.278 11.714 1.922 17.57a16037.053 16037.053 0 0 1 3.1 28.47A981.803 981.803 0 0 1 217 332c-5.75 3-5.75 3-8 3-2.556-11.173-4.518-22.423-6.44-33.718-.786-4.609-1.577-9.216-2.37-13.824-.419-2.433-.836-4.867-1.253-7.301a1427.85 1427.85 0 0 0-3.367-18.91l-.701-3.81c-.442-2.39-.89-4.778-1.345-7.164-2.935-15.933-2.935-15.933-.484-19.997 1.396-1.595 2.85-2.96 4.46-4.339l1.59-1.466A189.244 189.244 0 0 1 203 221Z" fill="#99552A"/><path d="M294.956 337.721c2.119 1.326 3.76 2.722 5.543 4.472l2.011 1.962 2.135 2.118 2.21 2.183c1.536 1.522 3.07 3.047 4.6 4.574 2.354 2.342 4.725 4.664 7.098 6.986 1.49 1.48 2.979 2.962 4.467 4.445l2.165 2.106 1.963 1.981 1.746 1.732c1.106 1.72 1.106 1.72.907 3.79-3.243 7.81-13.134 14.067-19.801 18.93-3.642-2.428-4.655-4.649-6.687-8.5l-.971-1.8C300 378.274 300 378.274 300 376l-2-1a150.18 150.18 0 0 1-3.625-6.687 375.232 375.232 0 0 0-9.936-17.92C282 346.214 282 346.214 282 344c2.266-1.797 2.266-1.797 5.25-3.75l2.953-1.984C293 337 293 337 294.956 337.72Z" fill="#71532C"/><path d="M109.89 62.121c2.523 1.051 4.612 2.388 6.86 3.941l2.422 1.66L121 69c-1.56 7.922-3.938 15.553-6.368 23.241a8989.115 8989.115 0 0 1-3.417 10.88l-.628 2.004c-.75 2.37-1.473 4.648-2.587 6.875-5.065-1.685-9.22-4.627-13.625-7.563a1321.146 1321.146 0 0 0-4.54-3.003l-2.013-1.342C85.884 98.84 85.884 98.84 83 98v-2l-5-2c0-4 0-4 2.379-6.55a215.466 215.466 0 0 1 3.183-2.763c1.112-.979 2.223-1.96 3.333-2.94l1.63-1.431c1.816-1.62 3.529-3.322 5.225-5.066 3.007-3.066 6.192-5.88 9.453-8.672 1.83-1.527 1.83-1.527 3.281-3.344C108 62 108 62 109.891 62.121Z" fill="#54382D"/><path d="M145 220c7.333 1 7.333 1 10 3 1.558 4.014 2.41 7.893 3 12.148l.497 3.52.503 3.707.53 3.844c.344 2.501.686 5.002 1.024 7.504.346 2.542.705 5.082 1.079 7.62 2.98 21.388 3.748 43.089 3.367 64.657h-9l-.104-2.423c-1.437-31.647-4.125-63.479-10.197-94.604-.581-3.036-.868-5.87-.699-8.973ZM126.75 207.938C129 209 129 209 131 212c.271 3.204.271 3.204.309 7.176.022 1.472.046 2.944.07 4.416l.027 2.335c.255 19.244 2.174 37.653 6.324 56.47 1.004 4.65 1.454 8.843 1.27 13.603-3.877 1.193-6.916 2-11 2-3.326-17.869-5.81-35.752-7.813-53.813l-.335-2.983c-.318-2.845-.628-5.69-.934-8.536l-.283-2.554c-1.507-14.406-1.507-14.406.502-18.34 4.167-3.758 4.167-3.758 7.613-3.837Z" fill="#99552A"/><path d="M477.91 159.738c2.59 5.373 1.907 12.353.328 17.973-1.7 4.044-3.49 7.887-7.238 10.289-6.845 2.143-13.253 2.669-20 0-3.424-2.211-4.71-3.127-6-7-.273-2.954-.277-5.91-.313-8.875l-.087-2.434c-.044-4.09.063-6.156 2.295-9.699 3.842-3.636 7.732-3.378 12.793-3.68l2.396-.181c5.724-.345 11.337-.478 15.826 3.607Z" fill="#53372E"/><path d="M197 26v42c-12.523 0-12.523 0-17.625-.438-1.003-.08-2.006-.162-3.04-.246C174 67 174 67 173 66a222.098 222.098 0 0 1-.098-8.41l.005-2.552c.005-2.7.018-5.4.03-8.1A6387.782 6387.782 0 0 1 173 28c2.5-.34 5-.672 7.5-1 .696-.095 1.392-.19 2.11-.29l2.109-.273 1.904-.253C190.073 25.917 193.54 26 197 26Z" fill="#B06A3A"/><path d="M241.293 126.871c4.7 2.69 8.094 5.873 9.707 11.129.828 5.994.453 10.88-3 16-3.318 3.946-5.9 6.038-11 7-6.312.082-11.186-.634-16-5-3.54-4.236-5.836-8.19-5.418-13.918 1.138-5.669 2.968-9.898 7.48-13.582 5.786-2.954 12.015-3.99 18.231-1.629Z" fill="#54382E"/><path d="M24 204a406.05 406.05 0 0 1 9 25.25c3.589 10.99 7.613 21.757 11.875 32.5l.856 2.16c2.95 7.53 2.95 7.53 6.111 14.972C53.136 281.776 54 283.79 54 287l-9 1c-11.18-21.516-20.638-43.918-28.438-66.875l-.786-2.29C14.62 215.348 14 212.712 14 209c1.68-1.484 1.68-1.484 3.875-2.75l2.18-1.297C22 204 22 204 24 204Z" fill="#99552A"/><path d="M64.996 101.27c3.878 3.184 6.612 5.966 7.34 11.097.09 5.738-.324 9.198-4.336 13.633-4.21 3.462-7.53 4.906-13 5-4.546-.902-7.445-2.494-10.875-5.625-2.57-4.08-4.076-7.514-4.125-12.375 1.446-5.323 4.3-9.09 9-12 5.388-2.514 10.881-2.984 15.996.27Z" fill="#B06A3A"/><path d="M219 228c4.02 2.904 6.593 5.653 9 10 .441 2.927.65 5.504.688 8.438l.08 2.655c.058 2.066.108 4.134.15 6.2.095 4.307.225 8.612.355 12.918.53 17.932.89 35.848.727 53.789-2.906 1.257-4.796 2-8 2-.394-10.745-.785-21.49-1.173-32.235-.18-4.99-.362-9.98-.545-14.971-.177-4.824-.352-9.648-.525-14.472l-.201-5.497c-.355-9.612-.67-19.204-.556-28.825Z" fill="#9A562A"/><path d="m463.125 129.688 2.707-.05c3.59-.002 6.424.048 9.754 1.452 2.14 2.892 1.944 5.231 1.914 8.785l.031 3.68c-.626 4.059-1.493 5.7-4.531 8.445-4.433 1.278-8.966 1.164-13.563 1.188l-3.878.042c-4.337-.28-7.306-.887-10.309-4.105-2.493-4.238-2.686-8.238-2.25-13.125 4.733-6.735 12.675-6.34 20.125-6.313Z" fill="#54382E"/><path d="M472 101c3.996 3.102 5.078 6.055 6 11 0 4.512-.38 6.317-3.434 9.68-4.192 3.306-8.492 2.985-13.628 2.82l-2.682.008c-4.852-.073-8.357-.307-12.256-3.508-2.099-4.198-1.536-9.438-1-14 2.729-3.581 6.097-4.758 10.48-5.68 5.467-.695 11.058-1.114 16.52-.32Z" fill="#53382E"/><path d="M250 250c2.29 7.75 3.895 15.454 5.125 23.438l.512 3.158c2.22 14.1 2.492 27.916 2.425 42.154A6320.936 6320.936 0 0 1 258 338l-5.999 1-.228-3.734c-2.283-42.48-2.283-42.48-9.772-84.266 3.144-1.909 4.52-2.045 8-1Z" fill="#9A562A"/><path d="M168 32v33h-20V37c13.75-5 13.75-5 20-5Z" fill="#B06A3A"/><path d="m100.875 402.625 3.68-.148c3.445.523 3.445.523 6.347 2.546 2.602 3.692 2.878 6.61 2.785 10.977l.084 2.117c-.013 2.89-.196 5.192-2.085 7.461-4.804 4.072-8.039 4.759-14.14 4.715-4.605-.53-7.38-3.127-10.546-6.293-.698-5.805-1.052-11.994 1.813-17.25 3.432-4.315 6.8-3.98 12.062-4.125Z" fill="#A88F69"/><path d="M122 1c.838 4.103 1.67 8.208 2.5 12.313l.723 3.537.683 3.388.635 3.127C127 26 127 26 127 29c-2.647 1.46-3.894 2-7 2l-1 2c-2.322.407-4.657.744-7 1l-.875-1.938c-.953-2.214-.953-2.214-3.125-3.062l-2-5-2-1-2-5-2-1c-2-3-2-3-2-7 3.24-1.707 6.493-3.387 9.75-5.063l2.79-1.47 2.694-1.377L115.71.804c2.586-.908 3.758-.742 6.29.196Z" fill="#56392E"/><path d="M21 331c4.044 3.381 5.82 7.083 6.313 12.313-.372 4.389-1.506 6.335-4.313 9.687-2.188 1.25-2.188 1.25-4 2l-1 2c-2.646 1.158-4.435 1.17-7.191.344C6.117 355.427 2.303 353.706 0 349c-.766-5.27-.607-9.583 1.5-14.5 5.633-5.633 12.177-6.848 19.5-3.5Z" fill="#B06A3A"/><path d="m202.313 394.625 3.988-.148C210 395 210 395 212.945 397.05c2.604 3.737 2.694 5.988 2.618 10.512l.003 3.94c-.639 3.946-1.442 5.109-4.566 7.497-3.145 1.573-6.488 1.226-9.938 1.25l-2.208.063c-2.91.02-5.251.02-7.834-1.407-2.713-5.072-1.765-12.92-.41-18.347 2.484-6.073 5.734-5.809 11.702-5.934Z" fill="#A78E68"/><path d="M374 79c3.843 1.28 5.546 3.688 7.813 6.938l1.894 2.652L385 91c-1.175 3.525-2.103 4.023-5.063 6.125C371.26 103.71 365.8 111.274 361 121l-3-1 .063-2.563c.01-3.375.01-3.375-.5-6.437l-.211-1.773c-.336-2.394-.336-2.394-1.204-5.329-.83-4.118-1.105-6.78-.148-10.898 4.564-5.775 11.427-10.713 18-14Z" fill="#71532C"/><path d="M95 157c3.796 1.615 5.819 3.537 8 7 .786 4.337 1.013 8.962-.984 12.98-2.213 2.766-4.61 5.018-8.016 6.02-4.165.463-6.432.29-10.188-1.625-4.188-3.537-6.525-6.368-7.312-11.875.698-4.886 2.685-7.867 6.332-11.148C86.636 155.98 90.667 156.479 95 157Z" fill="#C79035"/><path d="M382.176 370.977c5.61 2.07 10.354 3.948 14.824 8.023 1.063 2.375 1.063 2.375 1 5-2.248 4.323-4.472 7.105-9 9-8.756 1.179-15.666-3.511-22.566-8.34C365 383 365 383 364.637 380.543c.397-2.78 1.045-4.082 2.738-6.293l1.336-1.797c3.644-4.107 8.775-2.919 13.465-1.476Z" fill="#54382E"/><path d="M116 39h24v22l-8.563.625-2.654.213-2.162.139-2.174.158C122 62 122 62 115 60l1-21Z" fill="#B06A3A"/><path d="M189.938 169.063c2.753 3.921 3.355 7.183 3.062 11.937-1.209 3.5-1.913 5.36-5.125 7.25L186 189l-1 2c-5.911.311-9.812-.035-15-3-.813-2.125-.813-2.125-1-4l-2-1c-1.658-4.358-.228-7.665 1-12h2v-2h2v-2c6.923-2.596 11.802-2.245 17.938 2.063Z" fill="#AF693A"/><path d="m244 367 2 1c-2.844 9.101-6.52 17.829-15 23-3.563.688-3.563.688-7 1l-2 .688c-2.544.397-4.507-.237-6.926-1.024a80.729 80.729 0 0 0-4.68-1.328l-2.707-.711-2.55-.648C203 388 203 388 201.707 385.898L201 384l1.941-.734 2.621-1.016 2.567-.984c3.005-1.249 3.005-1.249 6.117-3.25 4.896-2.862 10.25-3.828 15.727-5.082 4.022-.975 7.434-2.007 10.996-4.153L244 367Z" fill="#BA5A3A"/><path d="M274 212c10.012 1.72 19.722 5.114 29.313 8.375 1.084.363 2.168.725 3.284 1.1 16.659 5.78 16.659 5.78 21.403 10.525.04 2 .043 4 0 6-9.591-1.834-18.743-5.1-27.987-8.184-9.27-3.085-18.43-5.843-28.013-7.816v-5h2l-.563-1.938L273 213l1-1Z" fill="#99552A"/><path d="M132.723 400.477c1.447.023 2.894.074 4.34.148l2.22.043c5.348.147 5.348.147 7.717 1.332 2.746 5.472 2.744 11.017 2 17-1.688 3.25-1.688 3.25-5 5-5.844.883-10.984 1.027-16.313-1.688-2.656-5.213-2.538-10.58-1.687-16.312 1.52-4.265 2.159-4.882 6.723-5.523Z" fill="#A78F69"/><path d="M34 398c3.068 1.722 5.403 3.806 7 7 .514 4.086.921 8.218-1.012 11.957-2.136 2.637-3.754 3.965-6.988 5.043-5.306.342-8.738.531-13-3-2.953-3.563-3.48-6.584-3.285-11.074.591-3.995 2.411-6.18 5.41-8.738C26.161 397.52 29.7 397.168 34 398Z" fill="#C79035"/><path d="m170.938 398.75 2.208-.063c5.34-.039 5.34-.039 7.795 1.641 2.08 3.283 2.274 6.32 2.371 10.11l.114 2.87C183 416 183 416 181.418 418.32c-3.26 2.266-5.477 2.18-9.418 2.118l-3.688-.004c-3.473-.455-4.888-.958-7.312-3.434-1.028-3.085-1.134-5.27-1.125-8.5l-.008-2.906C160 403 160 403 161 400c3.145-1.573 6.488-1.226 9.938-1.25Z" fill="#A88E68"/><path d="M267 236c2.821 2.49 4.339 5.212 6.074 8.531l1.763 3.372c.618 1.198 1.235 2.398 1.85 3.597l.943 1.824C292 281.172 292 281.172 292 287a125.024 125.024 0 0 1-6 4l-1.11-2.402c-3.96-8.533-7.974-17.04-12.015-25.536l-1.522-3.228c-2.538-5.316-5.117-10.329-8.563-15.117-.79-1.717-.79-1.717-.548-3.826 1.01-2.52 2.514-3.443 4.758-4.891Z" fill="#99552A"/><path d="M362.672 387.691c3.964.368 7.311 1.55 10.953 3.059l1.984.766c3.9 1.578 6.759 3.173 9.391 6.484.765 3.997.344 5.49-1.938 8.875-3.532 2.451-5.44 2.918-9.66 2.68-4.516-1.043-7.821-3.725-11.402-6.555l-1.898-1.336c-2.52-1.857-3.956-3.08-4.727-6.164 1.066-4.265 2.706-7.278 7.297-7.809Z" fill="#54382E"/><path d="M343 60c10.137.515 20.848 3.451 28 11l1 3c-2.26 2.179-4.534 4.34-6.813 6.5l-1.947 1.879-1.885 1.777c-.57.545-1.141 1.09-1.73 1.65C358 87 358 87 355 87a3295.25 3295.25 0 0 1-6-11.813l-1.734-3.392-1.641-3.252-1.523-3C343 63 343 63 343 60Z" fill="#73532C"/><path d="M351.625 402.938c6.75 1.337 14.728 3.815 19.375 9.062 1.125 3.5 1.125 3.5 1 7-1.813 2.438-1.813 2.438-5 4-7.142 1.044-12-.238-17.918-4.324-3.187-2.424-4.874-3.75-5.77-7.738 1.234-5.273 2.626-7.902 8.313-8Z" fill="#54382E"/><path d="M276 171c7.261-.407 13.668 1.11 20.688 2.875l3.376.816c4.798 1.179 9.376 2.384 13.936 4.309v9l-3.48-.805c-18.066-4.192-18.066-4.192-36.52-5.195l1-2c.225-1.537.408-3.08.563-4.625l.253-2.477L276 171ZM325 94c2.503 2.938 3.47 5.179 4 9-14.937 4.575-29.317 8.309-45 9l-1-7 2.24-.471C305.405 100.28 305.405 100.28 325 94ZM323 134v7c-5.943 2.315-12.108 3.139-18.375 4.125l-3.328.55c-5.843.933-11.38 1.54-17.297 1.325-1.125-7.75-1.125-7.75 0-10a89.59 89.59 0 0 1 7.36-.852l2.246-.193c2.38-.202 4.762-.39 7.144-.58l4.773-.406a4833.987 4833.987 0 0 1 6.752-.563c3.585-.284 7.13-.472 10.725-.406Z" fill="#99552A"/><path d="M168 32v33h-10c-1.16-4.256-.762-7.684 0-12l7-1-.875-1.68L163 48.125l-1.125-2.18C161 44 161 44 161 42l-1.688-.188C156.05 40.666 154.314 38.507 152 36c5.725-2.532 9.637-4 16-4Z" fill="#AF6A3A"/><path d="M299 61c2.625.75 2.625.75 5 2l1 2-2.57 1.984-3.555 2.766-1.892 1.47c-3.382 2.651-6.68 5.359-9.89 8.218l-1.89 1.676a265.677 265.677 0 0 0-3.582 3.264c-1.66 1.481-1.66 1.481-4.621 3.622-2.06-.179-2.06-.179-4-1l-2-3c20.833-18.222 20.833-18.222 28-23Z" fill="#9A552A"/><path d="M213 46h8l1 28h-9V46Z" fill="#99552A"/><path d="M205 24h33v2a225.23 225.23 0 0 1-4.332 3.559C231.096 31.78 229.106 34.337 227 37c-2.833-1.416-3.017-3.145-4.125-6.063l-1.07-2.785L221 26l-2.188 2.25c-2.498 2.443-5.048 4.618-7.812 6.75l-6-11Z" fill="#8F5C37"/><path d="M297 281c1.667 2.918 2.243 4.976 2.195 8.328l-.02 2.422-.05 2.5-.027 2.547c-.024 2.068-.06 4.135-.098 6.203-6.419-1.736-12.138-3.852-18-7 3.506-3.557 7.106-6.963 10.813-10.313l2.957-2.675L297 281Z" fill="#C89036"/><path d="m252 48 6 1-.627 1.74c-.942 2.627-1.876 5.256-2.81 7.885l-.987 2.738c-1.605 4.535-3.01 8.831-3.576 13.637-3.094.994-4.903.878-8 0 1.273-9.653 3.76-19.306 10-27Z" fill="#99552A"/><path d="M359 165h1c.633 10.967-2.69 20.512-8 30h-2a668.54 668.54 0 0 1-2.5-4.813l-1.406-2.707C345 185 345 185 345 182c1.54-1.473 1.54-1.473 3.625-3.063 4.205-3.48 6.643-7.236 9.246-11.996L359 165Z" fill="#74552C"/><path d="M237 136c2.438 1.563 2.438 1.563 4 4 .563 3.5.563 3.5 0 7-2.063 2.5-2.063 2.5-5 4-3.803 0-6.02-.203-9-2.625-1.456-3.459-.913-5.788 0-9.375 2.329-4.01 5.736-3.524 10-3Z" fill="#C48E35"/><path d="M344 250c1.125 4.5 1.125 4.5-.617 7.82l-1.09 2.121c-.385.721-.77 1.442-1.168 2.184l-1.145 2.207c-.7 1.348-1.405 2.694-2.116 4.036A177.058 177.058 0 0 0 336 272h-2a1312.33 1312.33 0 0 1-2.5-6.313l-1.406-3.55C329 259 329 259 329 256l15-6Z" fill="#8D5B36"/><path d="M328 225c7.875 6.75 7.875 6.75 11.438 10.375l2.058 2.086L343 239c-4.546 3.691-9.665 5.65-15 8v-22Z" fill="#C99236"/><path d="m287 315 14 1c0 4.42-.256 4.804-3.063 7.875l-1.722 1.93c-2.92 2.893-6.094 5.52-9.215 8.195v-19Z" fill="#8E5C37"/><path d="m407 99 1 2-1.438 3c-3.462 7.672-1.438 16.126.438 24-5.262-4.168-10.059-8.064-11.688-14.875 1.374-6.242 6.644-10.52 11.688-14.125Z" fill="#924724"/><path d="M355 93v21c-4.257-1.703-6.103-2.687-9.313-5.625l-2.113-1.914L342 105c1.498-3.615 3.575-5.686 6.5-8.25l2.406-2.14C353 93 353 93 355 93Z" fill="#8E5C37"/><path d="M363 180h1c.087 3.562.14 7.124.188 10.688l.076 3.052c.09 9.218.09 9.218-3.264 13.26-1.75-.063-1.75-.063-4-1-1.786-2.161-3.047-4.363-4-7 .438-2 .438-2 2-4 3.697-4.846 6.064-9.192 8-15Z" fill="#72542C"/><path d="m424 97 1 2-1.438 3.375c-2.822 7.064-2.19 15.301-.562 22.625-5.215-2.963-7.53-5.488-10-11-.688-2.938-.688-2.938 0-6 3.072-4.386 6.652-7.893 11-11Z" fill="#924724"/><path d="M197 26v42h-1l-1-40-10 7c-5.68-1.136-6.902-2.283-11-6 3.303-2.202 4.805-2.357 8.688-2.625l3.011-.227C189.463 25.98 193.233 26 197 26Z" fill="#945E37"/><path d="M292 373h3l3 7a495.788 495.788 0 0 1-4.688 4.938l-2.636 2.777c-2.73 2.331-4.158 2.987-7.676 3.285-.773-2.11-.773-2.11-1-5 1.381-2.315 2.682-4.195 4.375-6.25.425-.541.85-1.083 1.29-1.64 2.909-3.684 2.909-3.684 4.335-5.11Z" fill="#53382D"/><path d="M285 359c3 1 3 1 4.75 3.875C291 366 291 366 290 369c-2.363 1.824-2.363 1.824-5.313 3.688l-2.925 1.886C279 376 279 376 275 376c.431-5.287 2.121-7.9 5.563-11.875l2.503-2.93L285 359Z" fill="#55392E"/><path d="m342.25 323.938 2.703.027L347 324v4l-2.957.332-3.856.48-3.832.458c-3.233.502-3.233.502-5.23 1.918-1.607 2.588-1.893 4.996-2.313 8l-.48 3.292L328 345h-4c-.545-6.54.066-11.59 4-17 4.506-3.492 8.663-4.136 14.25-4.063Z" fill="#944925"/><path d="M349 219c.988 7.771 1.032 14.408-1 22-2.666-3.331-4.667-6.872-6.688-10.625l-1.886-3.477C338 224 338 224 338 222c1.645-.502 3.291-1.001 4.938-1.5l2.777-.844C348 219 348 219 349 219Z" fill="#8C5B36"/><path d="M351 154h1c.338 5.734-.716 9.937-2.813 15.25l-.79 2.14c-1.32 3.443-2.44 6.301-5.397 8.61-3.808-9.362-3.808-9.362-3-13a257.396 257.396 0 0 1 5-4c1.694-2.334 3.236-4.728 4.766-7.172L351 154Z" fill="#74552C"/><path d="m309 289 12 2c-1.595 3.989-3.177 7.153-5.438 10.75l-1.808 2.922C312 307 312 307 309 308v-19Z" fill="#905C36"/><path d="M372 268c2.375.313 2.375.313 5 1 2.452 3.678 2.715 6.726 2 11-2 3-2 3-4 5-2.291-.916-3.75-1.691-5.313-3.625-1.021-3.53-.589-6.834.313-10.375l2-3Z" fill="#53382E"/><path d="M244 26c7.193.462 14.003 1.25 21 3-3.49 3.592-6.966 7.019-11 10-3.66-1.22-3.923-2.126-5.688-5.438l-1.324-2.433C246 29 246 29 246 27l-2-1Z" fill="#8F5C37"/><path d="M377 240c2.375-.188 2.375-.188 5 0 2.16 3.24 2.272 4.249 2.25 8l.016 2.625C384 253 384 253 382 256c-2.375-.313-2.375-.313-5-1-2.47-3.704-2.45-6.706-2-11 1-2.5 1-2.5 2-4Z" fill="#53372E"/><path d="M325 91c1.73.455 3.46.914 5.188 1.375l2.917.773c2.717.8 5.286 1.755 7.895 2.852l-1.242 1.645a446571667.726 446571667.726 0 0 0-3.25 4.312A128.529 128.529 0 0 0 333 107h-2c-1.004-2.29-2.004-4.582-3-6.875l-.867-1.973C325 93.227 325 93.227 325 91Z" fill="#C89136"/><path d="M313 174c4.701 3.426 9.014 6.765 13 11a971.577 971.577 0 0 1-4.875 3.5l-2.742 1.969C316 192 316 192 314 192l-1-18Z" fill="#C89036"/><path d="M304 350c3.575.097 5.033 1.026 7.875 3.25C314 356 314 356 314 358.688 313 361 313 361 310 363c-3.09-.155-4.536-.568-6.813-2.688-1.524-2.969-1.545-5.017-1.187-8.312l2-2ZM385 272c2.625-.188 2.625-.188 5 0 2.1 3.412 2.33 6.03 2 10-1 2.375-1 2.375-2 4-2.375.188-2.375.188-5 0-1.998-2.997-2.276-3.633-2.25-7l-.016-2.063C383 275 383 275 385 272Z" fill="#52372E"/><path d="M182 38c2.913 1.457 3.055 3.354 4.125 6.375l1.07 2.96C188 50 188 50 188 53h-13l7-15Z" fill="#C78F36"/><path d="m144 334 3 9c-7.75 4-7.75 4-10 4l-3-10c6.625-3 6.625-3 10-3Z" fill="#9A562A"/><path d="m375 208 2 2c-.188 3.5-.188 3.5-1 7-3 2-3 2-5.563 1.75C368 218 368 218 366 216c-.375-2.938-.375-2.938 0-6 2.875-3.3 4.961-3.382 9-2Z" fill="#C89036"/><path d="M150 356c1.434 2.527 2.02 4.279 1.938 7.188C151 365 151 365 148.688 366.313c-2.84.726-4.087 1.032-6.688-.313-1.434-2.527-2.02-4.279-1.938-7.188.938-1.812.938-1.812 3.25-3.125 2.84-.726 4.087-1.032 6.688.313Z" fill="#99552A"/><path d="M341 77c3.76 1.254 4.476 2.707 6.688 5.938l1.886 2.714C351 88 351 88 351 90h-13c1.875-9.625 1.875-9.625 3-13Z" fill="#8F5C37"/><path d="m138 310 3 9-9 3-4-9c6.625-3 6.625-3 10-3Z" fill="#99552A"/><path d="M389 211c1.875 1.063 1.875 1.063 3 3-.188 3.625-.188 3.625-1 7-2.789 1.394-4.92 1.257-8 1-2.155-3.233-2.469-4.252-2-8 2.144-3.272 4.232-3.565 8-3ZM406.063 209.188C409 210 409 210 411 212c-.25 3.563-.25 3.563-1 7-2.763 1.381-4.947 1.19-8 1-2-2-2-2-2.313-4.938.313-3.062.313-3.062 1.438-5C403 209 403 209 406.063 209.188Z" fill="#C89136"/><path d="M116 39h23c-6.522 6.522-6.522 6.522-10 8-4.658-1.007-9.132-4.245-13-7v-1Z" fill="#905C36"/><path d="M355 124c-2.797 5.271-5.982 9.594-10 14-2.108-3.162-2.338-4.507-2.625-8.188l-.227-2.73L342 125c4.41-1.102 8.484-1.077 13-1Z" fill="#925D37"/><path d="M270 32c6.401.466 11.268 2.147 17 5v2l-16 2-1-9Z" fill="#8F5C37"/><path d="M421.938 186.688c3.062.312 3.062.312 5 1.437C428 190 428 190 427.875 193.063 427 196 427 196 424 198c-3.322-.324-4.608-.608-7-3-.25-3-.25-3 0-6 2-2 2-2 4.938-2.313Z" fill="#C99136"/><path d="M179 53h7v14h-7V53Z" fill="#99552A"/><path d="M401 275c1.875.313 1.875.313 4 1 2.449 3.673 2.315 5.664 2 10-2 2-2 2-4.5 2.313L400 288c-2.326-3.489-2.419-4.897-2-9 1.5-2.375 1.5-2.375 3-4Z" fill="#53372E"/><path d="m315 54-7 11c-5-2-5-2-7-3v-2l-3-1c2.483-2.483 4.618-3.073 7.938-4.188l3.214-1.105C312 53 312 53 315 54Z" fill="#C78F36"/><path d="M322 47c1.293.956 2.584 1.915 3.875 2.875l2.18 1.617C330 53 330 53 332 55l-1 4-10 1c-.077-4.516-.102-8.59 1-13Z" fill="#905C36"/><path d="m261 38 2 1c.414 2.723.414 2.723.625 6.063l.227 3.347L264 51c-1.417-.312-2.833-.624-4.25-.938l-2.39-.527A249.124 249.124 0 0 1 251 48v-2a95.998 95.998 0 0 1 5-4.125l2.813-2.195L261 38Z" fill="#C78E36"/><path d="M303 39c1.606.452 3.21.912 4.813 1.375l2.707.773C313 42 313 42 316 44c-1 3-1 3-2.777 4.168l-2.16 1.02-2.153 1.042C307 51 307 51 305 51c-1.305-4.16-2.12-7.65-2-12Z" fill="#905C36"/><path d="m351.688 337.938 2.449.027L356 338v3l-2.047.262c-5.744.87-5.744.87-10.515 3.988-1.555 2.974-2.128 5.421-2.438 8.75h-3c-.716-6.804-.716-6.804 1.23-10.055 3.81-4.534 6.421-6.095 12.457-6.007Z" fill="#924623"/><path d="M393 241c3.875 1.75 3.875 1.75 5 4 .303 3.49.395 5.375-1.5 8.375L395 255c-3.875-1.75-3.875-1.75-5-4-.303-3.49-.395-5.375 1.5-8.375L393 241Z" fill="#54392E"/><path d="M167 33c-1.498 3.112-3.2 6.053-5 9-4.833-.414-6.827-2.464-10-6 5.364-2.682 9.01-3.315 15-3Z" fill="#8F5C36"/><path d="M127 50c3.491 1.164 3.852 1.89 5.688 4.938l1.324 2.152C135 59 135 59 135 61h-12c.87-4.349 1.947-7.163 4-11Z" fill="#C78F36"/><path d="M216 34c3.67 3.277 5.693 6.715 8 11h-14c1.685-4.213 3.435-7.323 6-11Z" fill="#C99136"/><path d="M332 184c2 1 2 1 3.125 4.25.73 3.127 1.067 5.576.875 8.75a257489763.178 257489763.178 0 0 0-6.836-2.246C327 194 327 194 325 193c1.555-3.817 4.036-6.192 7-9Z" fill="#905C36"/><path d="M160 42c2.865 3.41 4.347 6.907 6 11h-13c1.447-2.894 2.75-5.185 4.625-7.75l1.352-1.86L160 42Z" fill="#C89036"/><path d="M110 379c3 5.75 3 5.75 3 8-5.75 3-5.75 3-8 3-3-5.75-3-5.75-3-8 5.75-3 5.75-3 8-3ZM106 364c3 5.75 3 5.75 3 8-5.75 3-5.75 3-8 3-3-5.75-3-5.75-3-8 5.75-3 5.75-3 8-3ZM61 317c3 5.75 3 5.75 3 8-5.75 3-5.75 3-8 3-3-5.75-3-5.75-3-8 5.75-3 5.75-3 8-3Z" fill="#9A562B"/><path d="M72 349c3 5.75 3 5.75 3 8l-7 3c-4-5.75-4-5.75-4-8 5.75-3 5.75-3 8-3Z" fill="#9A562A"/><path d="M331 315c.625 2.313.625 2.313 1 5l-2 3-7-1c-.688-2.313-.688-2.313-1-5 2.264-3.995 4.987-2.981 9-2Z" fill="#C89036"/><path d="M351.5 346.75c2.5.25 2.5.25 4.5 2.25.25 2.5.25 2.5 0 5-2 2-2 2-4.5 2.25C349 356 349 356 347 354c-.25-2.5-.25-2.5 0-5 2-2 2-2 4.5-2.25ZM338.5 331.75c2.5.25 2.5.25 4.5 2.25.25 2.5.25 2.5 0 5-2 2-2 2-4.5 2.25C336 341 336 341 334 339c-.25-2.5-.25-2.5 0-5 2-2 2-2 4.5-2.25ZM419.5 201.75c2.5.25 2.5.25 4.5 2.25.25 2.5.25 2.5 0 5-2 2-2 2-4.5 2.25C417 211 417 211 415 209c-.25-2.5-.25-2.5 0-5 2-2 2-2 4.5-2.25Z" fill="#C99136"/><path d="M82 381c2.9 2.395 3.502 4.312 4 8l-7 3c-3-4.625-3-4.625-3-8l6-3Z" fill="#99552A"/><path d="M152 377c2.154 2.622 3.4 4.644 4 8-2.313 1.563-2.313 1.563-5 3-3-1-3-1-4.188-2.875C146 383 146 383 146 380l6-3Z" fill="#9A552A"/><path d="M99 347c2.9 2.395 3.502 4.312 4 8l-7 3c-3-4.625-3-4.625-3-8l6-3ZM165 337c1.648 2.602 2 3.862 2 7l-7 3c-1.563-2.813-1.563-2.813-3-6 1-3 1-3 2.875-4.25C162 336 162 336 165 337ZM65 332c2.9 2.395 3.502 4.312 4 8l-7 3c-3-4.625-3-4.625-3-8l6-3Z" fill="#99552A"/><path d="M55 300c3 5.75 3 5.75 3 8l-7 3c-3.019-4.347-3.019-4.347-2.938-7.188C49.572 300.897 51.785 300 55 300Z" fill="#9A552A"/><path d="M430.438 105.813C433 106 433 106 435 108c.25 2.5.25 2.5 0 5-2 2-2 2-4.5 2.313L428 115c-2-3-2-3-1.688-5.625.961-3.32.961-3.32 4.125-3.563Z" fill="#C89136"/><path d="M421.5 169.75c2.5.25 2.5.25 4.5 2.25-.375 3.125-.375 3.125-1 6-2.875.625-2.875.625-6 1-2-2-2-2-2.25-4.5.35-3.494 1.256-4.4 4.75-4.75Z" fill="#C99236"/><path d="M386.688 111.375 389 112c.625 2.875.625 2.875 1 6-2 2-2 2-5.125 2.125L382 120l-1-7c3-2 3-2 5.688-1.625Z" fill="#C89136"/><path d="m219 351 1 8-7 1c-1.257-2.906-2-4.796-2-8 2.763-.597 5.16-1 8-1Z" fill="#9B562B"/><path d="M324 131c5 2.5 5 2.5 7 5v3c-1.496 1.387-1.496 1.387-3.438 2.688l-1.933 1.324C324 144 324 144 323 144l1-13Z" fill="#C89036"/><path d="m167 358 1 6-8 2-1-8c3.29-1.097 4.713-.8 8 0ZM229 329c.407 2.322.744 4.657 1 7l-8 1-1-7c5.75-2.125 5.75-2.125 8-1Z" fill="#9A562B"/><path d="M158 53h6l-1 11h-6l1-11Z" fill="#9A562A"/><path d="M343 396c2.063.438 2.063.438 4 1-1 3-1 3-3.438 4.875-2.739 2.272-3.539 3.775-4.562 7.125h-3c.259-4.398.561-6.495 3.5-9.875L342 397l1-1Z" fill="#934824"/><path d="M79 368c1.46 2.647 2 3.894 2 7l-8 2-1-8c3-1 3-1 7-1ZM221 362l1 8-7 1-2-7c2.906-1.257 4.796-2 8-2ZM232 351l1 7-7 2c-1.354-2.709-1.065-5.01-1-8 3-1 3-1 7-1ZM170 374l1 7-7 1-2-7c2.709-1.354 5.01-1.065 8-1Z" fill="#9A562A"/><path d="M367 366c-.519 4.172-1.712 6.254-4.563 9.313l-1.94 2.113L359 379l-3-1c1.57-5.18 5.137-12 11-12Z" fill="#934824"/><path d="m230 340 2 7-8 2-1-8c3-1 3-1 7-1Z" fill="#9A562A"/><path d="M340 143c-1.489 4.601-3.746 7.502-7 11h-2l-1-9c6.625-2 6.625-2 10-2Z" fill="#915D36"/><path d="m259 345 1 6c-5.75 3-5.75 3-8 3l-1-7c5.75-2 5.75-2 8-2Z" fill="#9A562B"/><path d="M356 381c-.61 3.063-1.577 5.2-3.375 7.75l-1.273 1.86L350 392h-3c.278-3.982.793-5.75 3.375-8.875C353 381 353 381 356 381Z" fill="#934724"/><path d="M328 168a210.497 210.497 0 0 1 1.563 3.75l.878 2.11c.637 2.44.361 3.78-.441 6.14a819.413 819.413 0 0 1-4-4.375l-2.25-2.46C322 171 322 171 322 169c3-1 3-1 6-1Z" fill="#915C37"/><path d="m407 245 4 2v6l-4 2c-2-3-2-3-1.688-6.125C406 246 406 246 407 245Z" fill="#553A2E"/><path d="m216 341 1 4-6 2-1-6c2.49-1.245 3.41-.777 6 0Z" fill="#9A562A"/><path d="m406 108 5 1-1 4-5-1 1-4Z" fill="#C78E36"/></svg>