<?xml version="1.0" encoding="UTF-8"?>
<svg version="1.1" xmlns="http://www.w3.org/2000/svg" width="511" height="485">
<path d="M0 0 C9.54577166 -0.07219844 19.09147446 -0.13062085 28.63745213 -0.16739559 C33.31850858 -0.18559657 37.99929739 -0.20975216 42.6802063 -0.2517395 C83.49697496 -0.6059463 135.77248648 -0.29177325 167.15380859 29.91210938 C167.86923828 30.6365625 168.58466797 31.36101563 169.32177734 32.10742188 C169.94439453 32.708125 170.56701172 33.30882812 171.20849609 33.92773438 C193.49070439 57.0611731 194.65046947 95.76008775 194.58056641 125.82421875 C194.58328557 127.82306545 194.58685162 129.82191115 194.59118652 131.820755 C194.60022186 137.20100727 194.59679811 142.58118188 194.59042835 147.96143532 C194.58529954 153.66435553 194.59008069 159.3672699 194.59320068 165.07019043 C194.59682999 174.67619999 194.5920784 184.28217873 194.58251953 193.88818359 C194.57173649 204.84786931 194.57508999 215.80747999 194.58617234 226.76716375 C194.59539557 236.28334597 194.59645601 245.79950621 194.591295 255.31569147 C194.5882432 260.95033641 194.58756824 266.5849468 194.59436798 272.21958923 C194.62443406 301.0279317 193.94930651 329.73778137 192.66964269 358.5176816 C192.13506057 370.9009291 191.90620469 383.2913868 191.70489192 395.68384981 C191.21457777 420.90835921 186.94137942 445.9298305 168.11865234 464.25195312 C157.66916513 473.30010182 142.32831932 480.53722551 128.32177734 480.10742188 C127.99177734 480.76742188 127.66177734 481.42742187 127.32177734 482.10742188 C126.53802734 482.08679688 125.75427734 482.06617188 124.94677734 482.04492188 C122.34062773 481.92058125 122.34062773 481.92058125 120.32177734 483.10742188 C98.5278926 485.9390297 76.24573796 485.39439562 54.32119966 485.34314132 C49.6684551 485.33419219 45.01571223 485.33612123 40.36296082 485.33650208 C32.58839192 485.33557503 24.81386285 485.3270095 17.03930664 485.31323242 C8.05295035 485.2973669 -0.93336299 485.29223994 -9.91973227 485.29296798 C-19.53722226 485.29364177 -29.15469577 485.28672803 -38.7721808 485.27752137 C-41.53313589 485.27539105 -44.29408833 485.27468044 -47.05504417 485.27428246 C-51.37026934 485.27328162 -55.6854582 485.26720657 -60.00067139 485.25711632 C-61.58499746 485.25418779 -63.16932771 485.25296666 -64.75365639 485.25354385 C-66.90813155 485.254032 -69.06250385 485.24840495 -71.21696472 485.24113464 C-72.42371951 485.2394588 -73.6304743 485.23778296 -74.87379742 485.23605633 C-77.67822266 485.10742188 -77.67822266 485.10742188 -79.67822266 484.10742188 C-81.34250598 483.88731398 -83.01346333 483.71645285 -84.68603516 483.57226562 C-85.67216797 483.48525391 -86.65830078 483.39824219 -87.67431641 483.30859375 C-88.70685547 483.22158203 -89.73939453 483.13457031 -90.80322266 483.04492188 C-92.36363281 482.90860352 -92.36363281 482.90860352 -93.95556641 482.76953125 C-96.52949313 482.54519819 -99.1036885 482.32465412 -101.67822266 482.10742188 C-100.67822266 480.10742188 -100.67822266 480.10742188 -98.55322266 479.3046875 C-97.13009766 478.91313477 -97.13009766 478.91313477 -95.67822266 478.51367188 C-94.58574219 478.21082275 -93.49326172 477.90797363 -92.36767578 477.59594727 C-91.15015625 477.26973389 -89.93263672 476.94352051 -88.67822266 476.60742188 C-88.0452124 476.43612762 -87.41220215 476.26483337 -86.76000977 476.08834839 C-43.9375033 464.5083473 -0.72316792 454.91930094 43.21810913 448.71794128 C62.12990248 446.26772417 62.12990248 446.26772417 80.50927734 441.41992188 C81.24919922 441.16573486 81.98912109 440.91154785 82.75146484 440.6496582 C94.90671472 436.28103839 109.52015213 429.20233545 115.32177734 417.10742188 C116.03720703 416.39392578 116.03720703 416.39392578 116.76708984 415.66601562 C125.03476187 407.37757055 128.96685161 390.38554257 129.45458984 379.00976562 C129.38884766 378.06810547 129.38884766 378.06810547 129.32177734 377.10742188 C129.98177734 377.10742188 130.64177734 377.10742188 131.32177734 377.10742188 C131.29857422 376.46675781 131.27537109 375.82609375 131.25146484 375.16601562 C131.23341797 374.30105469 131.21537109 373.43609375 131.19677734 372.54492188 C131.17357422 371.69800781 131.15037109 370.85109375 131.12646484 369.97851562 C131.32177734 367.10742188 131.32177734 367.10742188 132.26928711 363.88671875 C133.30923542 360.15245759 133.8910351 356.61254803 134.35693359 352.76757812 C134.4405162 352.08296005 134.52409882 351.39834198 134.61021423 350.69297791 C134.78513399 349.2486932 134.95725807 347.8040674 135.12670898 346.35913086 C135.38004818 344.20586779 135.64412191 342.05413136 135.90966797 339.90234375 C136.08024346 338.48250025 136.25018361 337.06258024 136.41943359 335.64257812 C136.64385132 333.76131226 136.64385132 333.76131226 136.87280273 331.84204102 C138.27633907 318.01979495 138.47168328 304.25574677 138.45458984 290.37695312 C138.45526606 288.40988656 138.45623871 286.44282007 138.45748901 284.47575378 C138.45895278 280.37534786 138.4568555 276.27496389 138.45214844 272.17456055 C138.446471 266.98234447 138.44972608 261.79018034 138.4557209 256.59796619 C138.45937874 252.54043708 138.45816397 248.48291976 138.45559311 244.42539024 C138.45493719 242.51410605 138.4557041 240.6028207 138.45807266 238.69153786 C138.46781148 228.62327479 138.33102246 218.57931642 137.87597656 208.52026367 C137.83725496 207.63463902 137.79853336 206.74901438 137.75863838 205.83655262 C137.71734747 205.01257323 137.67605656 204.18859385 137.6335144 203.33964539 C137.59770201 202.61697825 137.56188961 201.89431112 137.52499199 201.14974499 C137.31676825 199.05708011 136.83697862 197.14266066 136.32177734 195.10742188 C136.40066269 193.60588007 136.50692949 192.10563188 136.63427734 190.60742188 C136.73807177 184.78628444 134.49694937 180.68746193 131.73193359 175.67382812 C130.32177734 173.10742188 130.32177734 173.10742188 129.32177734 170.10742188 C128.66177734 170.10742188 128.00177734 170.10742188 127.32177734 170.10742188 C126.78552734 169.52992188 126.24927734 168.95242187 125.69677734 168.35742188 C118.02228676 161.08685184 109.52120888 161.50990017 99.57177734 161.48242188 C97.45525489 161.46602594 95.33916764 161.44393754 93.22283936 161.41079712 C91.3135805 161.38236604 89.40407689 161.37207187 87.49462891 161.36279297 C84.47569759 161.11981035 82.78686404 160.8210559 80.32177734 159.10742188 C78.06063284 154.30796032 77.90876962 149.44389859 77.69677734 144.23242188 C77.65810547 143.44867188 77.61943359 142.66492188 77.57958984 141.85742188 C77.48611113 139.9411082 77.4028924 138.02429869 77.32177734 136.10742188 C74.37796246 134.43613255 72.1479434 133.83010428 68.77490234 133.69335938 C67.93056641 133.6546875 67.08623047 133.61601562 66.21630859 133.57617188 C65.34361328 133.54523438 64.47091797 133.51429688 63.57177734 133.48242188 C62.68361328 133.44375 61.79544922 133.40507812 60.88037109 133.36523438 C58.69437754 133.27121315 56.50838673 133.18556044 54.32177734 133.10742188 C55.79067714 130.0504901 57.35204458 127.75249265 59.63427734 125.23242188 C61.78755652 122.82948714 63.90994007 120.42232195 65.94677734 117.91992188 C68.27803766 115.15921887 70.73221958 112.62504748 73.32177734 110.10742188 C74.99818514 108.43101408 74.92581494 106.60471118 75.19677734 104.29492188 C75.18603102 100.16833323 74.4523843 97.90020793 71.70458984 94.91992188 C66.52889954 89.9279151 60.7904029 85.56833555 54.94677734 81.39257812 C52.33469232 79.3267705 50.4210773 76.67906432 48.32177734 74.10742188 C47.13106507 73.0456577 45.92073227 72.00568784 44.69677734 70.98242188 C40.02769042 67.013255 36.01930618 62.52614162 31.93505859 57.97460938 C29.46895207 55.26889609 26.92484193 52.68066412 24.32177734 50.10742188 C23.71333984 49.47578125 23.10490234 48.84414063 22.47802734 48.19335938 C19.2750773 44.88465155 16.32414728 42.42458341 12.32177734 40.10742188 C11.59732422 39.3571875 10.87287109 38.60695312 10.12646484 37.83398438 C6.99146942 34.78631472 3.72104061 32.48576046 0.07177734 30.10742188 C-0.54568359 29.69492187 -1.16314453 29.28242188 -1.79931641 28.85742188 C-5.26558019 26.57040247 -8.79020941 24.45642987 -12.42724609 22.45117188 C-13.22660583 22.00966797 -14.02596558 21.56816406 -14.84954834 21.11328125 C-15.45301086 20.78134766 -16.05647339 20.44941406 -16.67822266 20.10742188 C-16.59293703 32.53193326 -16.49773553 44.9563284 -16.39069557 57.38067245 C-16.34125897 63.15300971 -16.29493598 68.92533313 -16.25634766 74.69775391 C-19.86497387 121.26063194 -19.86497387 121.26063194 -8.67822266 163.10742188 C-6.27480651 163.55482584 -6.27480651 163.55482584 -3.48681641 163.70507812 C-2.46007812 163.78435547 -1.43333984 163.86363281 -0.37548828 163.9453125 C1.2380957 164.05649414 1.2380957 164.05649414 2.88427734 164.16992188 C5.01086696 164.32354417 7.13719198 164.48089052 9.26318359 164.64257812 C10.2087915 164.70840088 11.15439941 164.77422363 12.12866211 164.84204102 C14.32177734 165.10742188 14.32177734 165.10742188 15.32177734 166.10742188 C14.80530852 173.70348644 13.13465525 180.96207524 11.38427734 188.35742188 C11.23482666 188.99326202 11.08537598 189.62910217 10.93139648 190.28421021 C4.99727441 215.4627398 -1.87885571 240.44386084 -9.67822266 265.10742188 C-8.68822266 265.43742187 -7.69822266 265.76742188 -6.67822266 266.10742188 C-6.01822266 261.81742187 -5.35822266 257.52742188 -4.67822266 253.10742188 C-4.01822266 253.10742188 -3.35822266 253.10742188 -2.67822266 253.10742188 C-2.55600342 252.22707275 -2.43378418 251.34672363 -2.30786133 250.43969727 C-1.71214987 247.28697695 -0.85623622 244.73313022 0.39599609 241.79101562 C0.81333008 240.79142822 1.23066406 239.79184082 1.66064453 238.76196289 C2.10569336 237.70033936 2.55074219 236.63871582 3.00927734 235.54492188 C8.75238854 221.40826792 13.35455678 207.61503885 15.73583984 192.52148438 C15.8580188 191.76417526 15.98019775 191.00686615 16.1060791 190.22660828 C16.71505767 186.43319177 17.28631593 182.64092737 17.79150391 178.83227539 C19.07809845 169.98051247 21.10443353 164.79389555 28.32177734 159.10742188 C29.45227507 157.88118417 30.56054038 156.63365577 31.63427734 155.35742188 C34.76715994 151.7229873 37.96576316 148.15450788 41.19677734 144.60742188 C41.68573486 144.06633789 42.17469238 143.52525391 42.6784668 142.96777344 C43.87186261 141.66145189 45.09422382 140.38169889 46.32177734 139.10742188 C46.65177734 139.10742188 46.98177734 139.10742188 47.32177734 139.10742188 C47.32126594 139.86753161 47.32075453 140.62764135 47.32022762 141.41078472 C47.31195245 155.80560942 47.31619456 170.20017952 47.36562455 184.59493029 C47.41580097 199.21713306 47.42366677 213.83890973 47.39693546 228.46117878 C47.38282688 236.81851468 47.3861607 245.17521227 47.42797852 253.5324707 C47.46487794 260.91741463 47.47010322 268.30159534 47.43760675 275.68657178 C47.42160102 279.56804553 47.42080804 283.4480772 47.45854378 287.32943153 C47.49339786 290.96102452 47.48565711 294.59011033 47.44614792 298.221632 C47.4357019 300.17087641 47.46948587 302.12020435 47.50502014 304.06915283 C47.38509235 310.88066193 46.52247802 314.63457358 41.90818787 319.7865448 C40.39662081 321.24491624 38.86991852 322.68793565 37.32177734 324.10742188 C35.82431971 325.90483972 34.34036313 327.71382808 32.88427734 329.54492188 C28.97480794 334.37547046 24.86649903 338.97855282 20.66162109 343.55273438 C18.66342886 345.73440002 16.70028846 347.93753496 14.75927734 350.16992188 C7.25175919 358.79307588 -0.49039644 367.12461476 -8.55322266 375.23242188 C-9.46974609 376.16957031 -10.38626953 377.10671875 -11.33056641 378.07226562 C-17.26914045 384.04424937 -23.39535815 389.79193563 -30.67822266 394.10742188 C-31.66822266 394.10742188 -32.65822266 394.10742188 -33.67822266 394.10742188 C-33.67822266 395.75742187 -33.67822266 397.40742188 -33.67822266 399.10742188 C-38.29822266 398.44742187 -42.91822266 397.78742188 -47.67822266 397.10742188 C-47.67822266 396.77742188 -47.67822266 396.44742187 -47.67822266 396.10742188 C-49.32822266 395.77742188 -50.97822266 395.44742187 -52.67822266 395.10742188 C-52.67822266 395.76742188 -52.67822266 396.42742187 -52.67822266 397.10742188 C-59.11322266 398.59242188 -59.11322266 398.59242188 -65.67822266 400.10742188 C-66.33822266 402.74742187 -66.99822266 405.38742187 -67.67822266 408.10742188 C-68.33822266 408.10742188 -68.99822266 408.10742188 -69.67822266 408.10742188 C-71.79869058 404.57330867 -72.21021554 401.16348352 -72.67822266 397.10742188 C-80.09414238 398.04677171 -86.23591623 399.21772743 -92.67822266 403.10742188 C-93.88095085 405.51287826 -93.77893738 407.0573914 -93.74072266 409.73242188 C-93.73169922 410.5496875 -93.72267578 411.36695313 -93.71337891 412.20898438 C-93.69597656 413.14871094 -93.69597656 413.14871094 -93.67822266 414.10742188 C-96.05322266 413.23242187 -96.05322266 413.23242187 -98.67822266 411.10742188 C-100.57957706 406.41292739 -100.95259164 402.35263497 -99.86572266 397.41992188 C-94.95342587 389.98130102 -87.81487428 386.58653149 -79.92114258 382.87744141 C-73.86077866 379.91912309 -69.45278978 375.77569066 -64.67822266 371.10742188 C-63.62678041 370.23967989 -62.56591102 369.38306084 -61.49072266 368.54492188 C-59.26649123 366.61725464 -57.50725398 364.82651107 -55.61572266 362.60742188 C-48.02414253 353.74219917 -39.65570738 345.62071988 -30.51416016 338.36914062 C-26.66493309 335.29930251 -22.92697399 332.10496626 -19.18017578 328.91162109 C-17.68349106 327.63887571 -16.18097251 326.37300033 -14.67822266 325.10742188 C-13.76814453 324.34042969 -12.85806641 323.5734375 -11.92041016 322.78320312 C-9.67822266 321.10742188 -9.67822266 321.10742188 -7.67822266 321.10742188 C-7.83419922 320.17285156 -7.99017578 319.23828125 -8.15087891 318.27539062 C-9.35254682 310.41693595 -9.7688308 302.97483932 -9.23681641 295.03320312 C-9.18489136 294.1684436 -9.13296631 293.30368408 -9.07946777 292.41271973 C-8.95230546 290.31054502 -8.81621627 288.20891337 -8.67822266 286.10742188 C-9.48453125 286.91896729 -10.29083984 287.7305127 -11.12158203 288.56665039 C-14.14565596 291.60897697 -17.17316328 294.64786779 -20.20166016 297.68579102 C-21.50596849 298.99509362 -22.80937374 300.30529657 -24.11181641 301.61645508 C-37.88798621 315.48242354 -37.88798621 315.48242354 -44.67822266 321.10742188 C-45.27248047 321.60693359 -45.86673828 322.10644531 -46.47900391 322.62109375 C-47.87345307 323.78954598 -49.27488093 324.94966495 -50.67822266 326.10742188 C-48.03822266 327.75742187 -45.39822266 329.40742188 -42.67822266 331.10742188 C-49.10411671 349.74920826 -71.14919227 363.55407886 -86.61572266 374.54492188 C-87.31318604 375.0410498 -88.01064941 375.53717773 -88.72924805 376.04833984 C-100.21804867 384.10742188 -100.21804867 384.10742188 -103.67822266 384.10742188 C-103.88801758 385.53223877 -103.88801758 385.53223877 -104.10205078 386.98583984 C-108.39160295 416.06464688 -112.98762447 445.09083464 -117.67822266 474.10742188 C-118.33822266 474.10742188 -118.99822266 474.10742188 -119.67822266 474.10742188 C-121.2507396 467.48522766 -122.32573621 460.91955357 -123.17822266 454.16992188 C-123.96204222 447.98980609 -124.8852507 441.90600316 -126.15185547 435.80639648 C-127.21536147 430.3532152 -127.99069382 424.8525243 -128.80322266 419.35742188 C-129.07585937 417.56884766 -129.07585937 417.56884766 -129.35400391 415.74414062 C-129.52544922 414.59042969 -129.69689453 413.43671875 -129.87353516 412.24804688 C-130.02838379 411.21196289 -130.18323242 410.17587891 -130.34277344 409.10839844 C-130.68113639 406.08135522 -130.73672313 403.1505823 -130.67822266 400.10742188 C-132.32371094 400.97367187 -132.32371094 400.97367187 -134.00244141 401.85742188 C-135.45659469 402.6079526 -136.91103711 403.35792331 -138.36572266 404.10742188 C-139.08695313 404.48898437 -139.80818359 404.87054688 -140.55126953 405.26367188 C-147.47458081 408.80436075 -147.47458081 408.80436075 -151.67822266 408.10742188 C-153.81103516 407.26757813 -153.81103516 407.26757813 -155.80322266 406.16992188 C-158.1344937 404.90450432 -160.1400557 403.95347753 -162.67822266 403.10742188 C-162.67822266 402.44742187 -162.67822266 401.78742188 -162.67822266 401.10742188 C-163.99822266 400.77742188 -165.31822266 400.44742187 -166.67822266 400.10742188 C-166.81647461 401.3374292 -166.81647461 401.3374292 -166.95751953 402.59228516 C-168.48513303 415.49043515 -170.5139943 428.30637079 -172.56445312 441.13037109 C-173.18441218 445.02126763 -173.79265264 448.91389496 -174.40087891 452.80664062 C-174.79469267 455.27941125 -175.18919805 457.75207185 -175.58447266 460.22460938 C-175.85487366 461.97123367 -175.85487366 461.97123367 -176.1307373 463.75314331 C-176.30431763 464.82251129 -176.47789795 465.89187927 -176.65673828 466.99365234 C-176.80614868 467.93578583 -176.95555908 468.87791931 -177.10949707 469.84860229 C-177.67822266 472.10742188 -177.67822266 472.10742188 -179.67822266 474.10742188 C-181.72566534 465.50449007 -182.98421864 456.83046045 -184.26611328 448.0859375 C-184.43433594 446.95994141 -184.60255859 445.83394531 -184.77587891 444.67382812 C-184.92549072 443.65232666 -185.07510254 442.6308252 -185.22924805 441.57836914 C-185.55765875 439.11512593 -185.55765875 439.11512593 -186.67822266 437.10742188 C-186.85958214 435.42336952 -186.99926795 433.73470349 -187.11572266 432.04492188 C-187.40214682 428.58097968 -187.78210033 425.29348722 -188.61572266 421.91992188 C-191.06686134 411.6946493 -191.82045037 400.95953212 -192.33447266 390.48632812 C-192.44791016 389.70128906 -192.56134766 388.91625 -192.67822266 388.10742188 C-193.33822266 387.77742188 -193.99822266 387.44742187 -194.67822266 387.10742188 C-195.22736328 386.5221875 -195.77650391 385.93695313 -196.34228516 385.33398438 C-199.3078683 382.50725797 -202.55220355 380.5815295 -206.05322266 378.48242188 C-223.99499726 367.46948944 -246.84202215 353.31694287 -256.67822266 334.10742188 C-256.67822266 333.11742187 -256.67822266 332.12742187 -256.67822266 331.10742188 C-253.67822266 328.91992188 -253.67822266 328.91992188 -250.67822266 327.10742188 C-254.6876015 323.04438022 -258.81489325 319.12371428 -262.99072266 315.23242188 C-263.65789307 314.60964355 -264.32506348 313.98686523 -265.01245117 313.34521484 C-268.91062483 309.7175694 -272.85887105 306.16827708 -276.90087891 302.70117188 C-279.73148606 300.16295711 -282.36910218 297.43834699 -285.01416016 294.70898438 C-286.60244999 293.02113464 -286.60244999 293.02113464 -288.67822266 292.10742188 C-288.67822266 291.44742187 -288.67822266 290.78742188 -288.67822266 290.10742188 C-289.33822266 290.10742188 -289.99822266 290.10742188 -290.67822266 290.10742188 C-292.19563242 288.40839164 -293.64335066 286.64669465 -295.05322266 284.85742188 C-297.78103658 281.40888119 -300.50278595 278.15236118 -303.67822266 275.10742188 C-302.67822266 272.10742188 -302.67822266 272.10742188 -299.51806641 270.50195312 C-298.22183644 269.96351914 -296.92078198 269.43658759 -295.61572266 268.91992188 C-294.62088867 268.5109668 -294.62088867 268.5109668 -293.60595703 268.09375 C-291.96737449 267.42181327 -290.32328862 266.7633256 -288.67822266 266.10742188 C-289.93442672 262.13405396 -291.40704768 258.80884037 -293.53369141 255.22460938 C-296.64310821 249.4727189 -299.2085769 243.24839189 -300.86572266 236.91992188 C-301.26791016 235.52773438 -301.26791016 235.52773438 -301.67822266 234.10742188 C-302.33822266 233.77742187 -302.99822266 233.44742188 -303.67822266 233.10742188 C-304.42651367 231.16503906 -304.42651367 231.16503906 -305.11962891 228.65429688 C-305.37631348 227.74615234 -305.63299805 226.83800781 -305.89746094 225.90234375 C-306.1551123 224.98001953 -306.41276367 224.05769531 -306.67822266 223.10742188 C-307.16292051 221.50737365 -307.65109682 219.90837423 -308.14306641 218.31054688 C-313.49984556 200.47193482 -317.64379768 182.8288488 -316.67822266 164.10742188 C-313.87685302 163.33011985 -311.2710342 162.93587894 -308.36962891 162.79101562 C-307.5455957 162.74904053 -306.7215625 162.70706543 -305.87255859 162.66381836 C-305.00405273 162.62458252 -304.13554687 162.58534668 -303.24072266 162.54492188 C-302.35288086 162.50246338 -301.46503906 162.46000488 -300.55029297 162.41625977 C-293.58742576 162.10291813 -286.64829642 161.99294986 -279.67822266 162.10742188 C-279.53126953 160.80675781 -279.38431641 159.50609375 -279.23291016 158.16601562 C-276.21806961 132.72319007 -271.66342703 108.16292127 -262.67822266 84.10742188 C-245.33779712 92.68188996 -245.33779712 92.68188996 -237.67822266 97.10742188 C-237.76201172 96.25277344 -237.84580078 95.398125 -237.93212891 94.51757812 C-238.03396484 93.41285156 -238.13580078 92.308125 -238.24072266 91.16992188 C-238.34513672 90.06777344 -238.44955078 88.965625 -238.55712891 87.83007812 C-238.61707031 86.48236328 -238.61707031 86.48236328 -238.67822266 85.10742188 C-238.34822266 84.77742188 -238.01822266 84.44742188 -237.67822266 84.10742188 C-237.3838996 82.80076917 -237.13894521 81.48289975 -236.91650391 80.16210938 C-232.47158076 55.11247624 -222.32889475 33.82121572 -201.30712891 18.53320312 C-181.44893839 4.80873235 -159.23037178 1.03091079 -135.55102539 0.90209961 C-133.81915891 0.88727146 -133.81915891 0.88727146 -132.05230522 0.87214375 C-128.2388292 0.8406927 -124.42534126 0.81577814 -120.61181641 0.79101562 C-117.89372623 0.7706087 -115.17564664 0.7489051 -112.45756531 0.72735596 C-104.43012427 0.66494825 -96.40263425 0.61148028 -88.37511921 0.55960417 C-85.36373809 0.54003523 -82.35236062 0.51993471 -79.34098291 0.49984831 C-62.72748363 0.38919756 -46.11394379 0.28807358 -29.50033951 0.1945864 C-19.66681228 0.13909494 -9.83340549 0.07449641 0 0 Z " fill="#1D221B" transform="translate(316.67822265625,-0.107421875)"/>
<path d="M0 0 C5.08802393 0.61400791 9.86001101 1.69737366 14.76953125 3.1796875 C15.49057541 3.39311798 16.21161957 3.60654846 16.95451355 3.82644653 C19.24190638 4.50469742 21.52720286 5.1897252 23.8125 5.875 C25.33385105 6.32727165 26.85533447 6.77909825 28.37695312 7.23046875 C32.58653533 8.48066302 36.79368025 9.73887852 41 11 C42.08974121 11.32645508 43.17948242 11.65291016 44.30224609 11.98925781 C46.53508137 12.65867575 48.76771068 13.3287642 51 14 C48.25906266 17.25438942 44.66314333 18.94573151 40.953125 20.87109375 C40.26369812 21.23469498 39.57427124 21.5982962 38.86395264 21.97291565 C36.661999 23.13299499 34.45619472 24.2855099 32.25 25.4375 C30.05889429 26.58739576 27.86862479 27.73886088 25.67889404 28.89137268 C24.31857866 29.60671503 22.95734767 30.32032003 21.59503174 31.03184509 C18.40262813 32.70471823 15.2587969 34.42366883 12.15136719 36.25024414 C9 38 9 38 7 38 C7 38.66 7 39.32 7 40 C7.75667969 40.07863281 8.51335937 40.15726562 9.29296875 40.23828125 C14.52728606 41.3138259 19.33702316 43.26391444 24.3125 45.1875 C26.45392363 46.00392592 28.59585494 46.8190214 30.73828125 47.6328125 C31.79354004 48.0340332 32.84879883 48.43525391 33.93603516 48.84863281 C40.58358269 51.34662757 47.29339734 53.66669198 54 56 C53.97494385 56.85601807 53.9498877 57.71203613 53.92407227 58.59399414 C53.82551658 61.97282281 53.72770944 65.35167205 53.63015747 68.73052979 C53.56201182 71.0793264 53.4928037 73.42809029 53.42358398 75.77685547 C53.17446128 84.32078206 52.95444513 92.86434007 52.78125 101.41015625 C52.72604998 103.98225945 52.67023266 106.55434854 52.61422729 109.12643433 C52.58029457 110.76547508 52.54921146 112.40457784 52.52127075 114.04373169 C52.05779869 141.08866893 49.21845269 168.26608063 28.796875 188.14453125 C18.34738779 197.19267995 3.00654197 204.42980363 -11 204 C-11.33 204.66 -11.66 205.32 -12 206 C-12.78375 205.979375 -13.5675 205.95875 -14.375 205.9375 C-16.98114961 205.81315937 -16.98114961 205.81315937 -19 207 C-40.79388475 209.83160783 -63.07603939 209.28697375 -85.00057769 209.23571944 C-89.65332224 209.22677032 -94.30606511 209.22869936 -98.95881653 209.2290802 C-106.73338542 209.22815316 -114.5079145 209.21958763 -122.2824707 209.20581055 C-131.268827 209.18994503 -140.25514033 209.18481807 -149.24150962 209.1855461 C-158.85899961 209.18621989 -168.47647312 209.17930616 -178.09395814 209.1700995 C-180.85491323 209.16796918 -183.61586568 209.16725856 -186.37682152 209.16686058 C-190.69204668 209.16585975 -195.00723554 209.1597847 -199.32244873 209.14969444 C-200.9067748 209.14676591 -202.49110506 209.14554479 -204.07543373 209.14612198 C-206.2299089 209.14661013 -208.38428119 209.14098308 -210.53874207 209.13371277 C-211.74549685 209.13203692 -212.95225164 209.13036108 -214.19557476 209.12863445 C-217 209 -217 209 -219 208 C-220.66428333 207.77989211 -222.33524067 207.60903098 -224.0078125 207.46484375 C-225.48701172 207.33432617 -225.48701172 207.33432617 -226.99609375 207.20117188 C-228.54490234 207.0706543 -228.54490234 207.0706543 -230.125 206.9375 C-231.16527344 206.84662109 -232.20554688 206.75574219 -233.27734375 206.66210938 C-235.85127048 206.43777631 -238.42546585 206.21723225 -241 206 C-240 204 -240 204 -237.875 203.19726562 C-236.92625 202.93623047 -235.9775 202.67519531 -235 202.40625 C-233.3612793 201.95197632 -233.3612793 201.95197632 -231.68945312 201.48852539 C-230.47193359 201.16231201 -229.25441406 200.83609863 -228 200.5 C-227.36698975 200.32870575 -226.73397949 200.1574115 -226.08178711 199.98092651 C-183.25928065 188.40092542 -140.04494526 178.81187907 -96.10366821 172.61051941 C-77.19187487 170.1603023 -77.19187487 170.1603023 -58.8125 165.3125 C-58.07257813 165.05831299 -57.33265625 164.80412598 -56.5703125 164.54223633 C-44.41506263 160.17361651 -29.80162521 153.09491358 -24 141 C-23.52304687 140.52433594 -23.04609375 140.04867187 -22.5546875 139.55859375 C-14.28701547 131.27014868 -10.35492573 114.27812069 -9.8671875 102.90234375 C-9.91101563 102.27457031 -9.95484375 101.64679688 -10 101 C-9.34 101 -8.68 101 -8 101 C-8.02320313 100.35933594 -8.04640625 99.71867187 -8.0703125 99.05859375 C-8.08835937 98.19363281 -8.10640625 97.32867187 -8.125 96.4375 C-8.14820313 95.59058594 -8.17140625 94.74367188 -8.1953125 93.87109375 C-8 91 -8 91 -7.05249023 87.77929688 C-6.01254192 84.04503571 -5.43074225 80.50512615 -4.96484375 76.66015625 C-4.88126114 75.97553818 -4.79767853 75.2909201 -4.71156311 74.58555603 C-4.53664335 73.14127133 -4.36451927 71.69664553 -4.19506836 70.25170898 C-3.94172917 68.09844592 -3.67765543 65.94670948 -3.41210938 63.79492188 C-1.50603193 48.06315409 -0.84223772 32.32937474 -0.4375 16.5 C-0.39413902 14.88671177 -0.35052038 13.27343045 -0.30664062 11.66015625 C-0.20147286 7.77351023 -0.09973526 3.88678906 0 0 Z " fill="#4B5053" transform="translate(456,276)"/>
<path d="M0 0 C5.24073914 8.23544722 6.90738743 15.59846439 6.86352539 25.30395508 C6.86367142 26.15324585 6.86381744 27.00253662 6.8639679 27.87756348 C6.86327319 30.67491237 6.85550149 33.47219404 6.84765625 36.26953125 C6.8457905 38.2129462 6.84436734 40.15636163 6.84336853 42.09977722 C6.83955571 47.20760401 6.82973597 52.31540224 6.81866455 57.42321777 C6.80842387 62.63826104 6.80386522 67.85330894 6.79882812 73.06835938 C6.7881126 83.29558545 6.77105101 93.52279035 6.75 103.75 C5.72519531 103.81058594 4.70039063 103.87117188 3.64453125 103.93359375 C2.28384305 104.01805026 0.92316657 104.10269567 -0.4375 104.1875 C-1.11103516 104.22681641 -1.78457031 104.26613281 -2.47851562 104.30664062 C-6.15226818 104.5396103 -9.65589431 104.96579043 -13.25 105.75 C-17.4138424 106.03854697 -21.57727703 106.07254291 -25.75 106.125 C-26.87792969 106.16238281 -28.00585938 106.19976562 -29.16796875 106.23828125 C-30.25722656 106.24988281 -31.34648437 106.26148438 -32.46875 106.2734375 C-33.45810547 106.29325684 -34.44746094 106.31307617 -35.46679688 106.33349609 C-39.38960482 105.51108285 -40.74586698 103.83794801 -43.25 100.75 C-43.85127258 97.41532898 -43.85127258 97.41532898 -43.81762695 93.57299805 C-43.81835709 92.87001083 -43.81908722 92.16702362 -43.81983948 91.44273376 C-43.81637091 89.13159556 -43.77755009 86.82250238 -43.73828125 84.51171875 C-43.72895038 82.90461834 -43.72183556 81.29750366 -43.71684265 79.69038391 C-43.69779401 75.46992406 -43.64871274 71.2503309 -43.59332275 67.0302124 C-43.54208352 62.72013065 -43.5193187 58.40990821 -43.49414062 54.09960938 C-43.44059063 45.64929841 -43.35267333 37.19985703 -43.25 28.75 C-33.35 27.43 -23.45 26.11 -13.25 24.75 C-13.25 42.57 -13.25 60.39 -13.25 78.75 C-17.54 78.75 -21.83 78.75 -26.25 78.75 C-26.25 67.86 -26.25 56.97 -26.25 45.75 C-27.9 46.08 -29.55 46.41 -31.25 46.75 C-31.3241205 52.10682133 -31.37858776 57.46334462 -31.41479492 62.82055664 C-31.4298876 64.64320067 -31.45036395 66.46580836 -31.47631836 68.28833008 C-31.51268103 70.907155 -31.52972124 73.52550007 -31.54296875 76.14453125 C-31.55845261 76.96025101 -31.57393646 77.77597076 -31.58988953 78.6164093 C-31.73159709 82.83324682 -31.73159709 82.83324682 -29.85371399 86.42680359 C-25.63929153 89.90404997 -20.452254 89.16347395 -15.25 88.75 C-11.86079007 87.43581656 -10.71646345 86.71656839 -9.14706421 83.46458435 C-8.21523069 80.64478542 -7.98470013 78.46441275 -7.95947266 75.50415039 C-7.94671295 74.48281509 -7.93395325 73.4614798 -7.92080688 72.40919495 C-7.91858124 71.31638718 -7.91635559 70.22357941 -7.9140625 69.09765625 C-7.9074057 67.96476669 -7.9007489 66.83187714 -7.89389038 65.66465759 C-7.88377702 63.27165346 -7.87907295 60.87862119 -7.87939453 58.4855957 C-7.87501988 54.82911682 -7.83868021 51.17384369 -7.80078125 47.51757812 C-7.79491313 45.19010829 -7.79094371 42.86263273 -7.7890625 40.53515625 C-7.77469147 39.44437271 -7.76032043 38.35358917 -7.74551392 37.22975159 C-7.78596715 30.49448711 -8.38106176 26.61893824 -13.25 21.75 C-17.63123147 21.50753708 -22.01807317 21.52148045 -26.40527344 21.50976562 C-28.60910929 21.50006991 -30.81200869 21.46906478 -33.015625 21.4375 C-34.41405695 21.43096911 -35.81249558 21.42571897 -37.2109375 21.421875 C-38.48759277 21.4125293 -39.76424805 21.40318359 -41.07958984 21.39355469 C-44.19779268 21.48504084 -44.19779268 21.48504084 -46.12744141 23.08300781 C-48.6536059 26.8343456 -48.39809423 30.67159148 -48.39526367 35.00366211 C-48.39862228 35.73894638 -48.4019809 36.47423065 -48.40544128 37.23179626 C-48.41494423 39.66366259 -48.41689401 42.09546001 -48.41796875 44.52734375 C-48.42118159 46.2174126 -48.42454568 47.90748117 -48.42805481 49.59754944 C-48.43404429 53.14080449 -48.43589487 56.68403516 -48.43530273 60.22729492 C-48.43520108 64.76806185 -48.44885785 69.30867254 -48.46607494 73.84940243 C-48.47719147 77.34010029 -48.47922206 80.83076032 -48.47869301 84.32147408 C-48.47987347 85.99561667 -48.48429897 87.66976024 -48.49202538 89.34388542 C-48.50181908 91.68501624 -48.49894986 94.02580711 -48.49291992 96.36694336 C-48.49853943 97.05850525 -48.50415894 97.75006714 -48.50994873 98.46258545 C-48.48648195 102.04674856 -48.32597347 104.76334528 -46.25 107.75 C-41.28067163 111.10756438 -36.86709354 111.17732268 -31.08984375 111.15625 C-29.78860313 111.17250427 -29.78860313 111.17250427 -28.46107483 111.18908691 C-24.76991974 111.23475899 -21.0788381 111.24642501 -17.38745117 111.26123047 C-14.68382949 111.27694505 -11.98078999 111.30994298 -9.27734375 111.34375 C-8.03186012 111.33921814 -8.03186012 111.33921814 -6.76121521 111.33459473 C-2.20682931 111.3935508 1.21647572 111.53690929 4.75 114.75 C5.34936523 117.09082031 5.34936523 117.09082031 5.30859375 119.828125 C5.30150391 120.82457031 5.29441406 121.82101562 5.28710938 122.84765625 C5.25423828 123.88792969 5.22136719 124.92820312 5.1875 126 C5.17879883 127.53720703 5.17879883 127.53720703 5.16992188 129.10546875 C4.99246642 140.13609965 1.41751049 147.59820572 -3.875 157.125 C-12.02932323 172.05950933 -19.18372875 186.50108639 -24.25 202.75 C-28.80121032 217.29211424 -28.80121032 217.29211424 -34.25 220.75 C-37.5371041 221.53788835 -40.76388712 221.94619023 -44.12109375 222.328125 C-48.71080049 222.94696186 -50.69236057 223.71118298 -54.25 226.75 C-56.2534909 230.30094423 -57.82249157 233.93453968 -59.25 237.75 C-61.66946095 236.78221562 -63.01042655 236.10257979 -64.4921875 233.921875 C-65.34704387 231.47187427 -65.45109118 229.58709998 -65.375 227 C-65.35695313 226.20078125 -65.33890625 225.4015625 -65.3203125 224.578125 C-65.29710937 223.97484375 -65.27390625 223.3715625 -65.25 222.75 C-65.930625 222.915 -66.61125 223.08 -67.3125 223.25 C-70.25 223.75 -70.25 223.75 -73.4375 223.5625 C-79.03700038 223.83788526 -84.50809434 225.64929722 -89.00390625 229.09375 C-90.61442933 231.23438256 -90.74523086 232.78418593 -90.9375 235.4375 C-91.00324219 236.24574219 -91.06898438 237.05398438 -91.13671875 237.88671875 C-91.17410156 238.50160156 -91.21148437 239.11648438 -91.25 239.75 C-94.76104082 237.8521401 -97.43963824 236.37072351 -99.25 232.75 C-99.490143 229.73255102 -99.42421398 226.76970898 -99.25 223.75 C-100.03246094 223.76160156 -100.81492187 223.77320313 -101.62109375 223.78515625 C-102.63300781 223.79417969 -103.64492188 223.80320312 -104.6875 223.8125 C-105.69683594 223.82410156 -106.70617187 223.83570313 -107.74609375 223.84765625 C-110.25 223.75 -110.25 223.75 -111.25 222.75 C-115.48689737 222.21601087 -119.11819179 222.20981881 -123 224.0625 C-126.41753875 228.14456017 -128.26240303 232.84444152 -130.25 237.75 C-134.05726834 234.18836187 -135.15159494 232.25067721 -135.5 226.9375 C-135.40393295 222.16034778 -134.18508654 218.80334183 -130.84375 215.2578125 C-127.5316782 212.24257733 -123.9895307 209.93940984 -120.125 207.6875 C-116.21445514 205.40585879 -113.31218423 203.12625441 -110.25 199.75 C-105.12369889 194.49676191 -99.99830485 189.32518141 -94.25 184.75 C-93.59 184.75 -92.93 184.75 -92.25 184.75 C-92.25 184.09 -92.25 183.43 -92.25 182.75 C-90.265625 181.33984375 -90.265625 181.33984375 -87.5 179.6875 C-74.98174879 171.94425183 -60.02949666 162.33666474 -53.25 148.75 C-51.6040349 147.06288577 -49.93762851 145.3954378 -48.25 143.75 C-47.59 142.76 -46.93 141.77 -46.25 140.75 C-57.635 140.255 -57.635 140.255 -69.25 139.75 C-69.34269411 122.54714996 -69.41402856 105.34440004 -69.45724869 88.14135742 C-69.47785217 80.15323369 -69.50593019 72.16526823 -69.55175781 64.17724609 C-69.59169366 57.21285995 -69.61744891 50.24858846 -69.62635398 43.284091 C-69.63155738 39.59821563 -69.64374044 35.9126682 -69.67292023 32.22689819 C-69.70527197 28.10684821 -69.7059551 23.98736417 -69.70410156 19.8671875 C-69.71848267 18.65230148 -69.73286377 17.43741547 -69.74768066 16.18571472 C-69.70854775 8.14314898 -68.78057606 2.48232326 -63.0625 -3.5625 C-55.53569711 -8.07858173 -47.82125583 -8.81825429 -39.1875 -9.0625 C-38.08929932 -9.09746582 -36.99109863 -9.13243164 -35.85961914 -9.16845703 C-9.77685711 -9.77685711 -9.77685711 -9.77685711 0 0 Z " fill="#1D221B" transform="translate(440.25,176.25)"/>
<path d="M0 0 C0.33 0 0.66 0 1 0 C0.99948859 0.76010974 0.99897718 1.52021948 0.99845028 2.30336285 C0.9901751 16.69818755 0.99441721 31.09275764 1.0438472 45.48750842 C1.09402363 60.10971119 1.10188943 74.73148785 1.07515812 89.3537569 C1.06104954 97.71109281 1.06438335 106.0677904 1.10620117 114.42504883 C1.1431006 121.80999276 1.14832587 129.19417346 1.11582941 136.5791499 C1.09982368 140.46062366 1.0990307 144.34065533 1.13676643 148.22200966 C1.17162052 151.85360265 1.16387977 155.48268846 1.12437057 159.11421013 C1.11392456 161.06345453 1.14770853 163.01278248 1.1832428 164.96173096 C1.06331501 171.77324006 0.20070068 175.52715171 -4.41358948 180.67912292 C-5.92515654 182.13749437 -7.45185883 183.58051377 -9 185 C-10.49745763 186.79741785 -11.98141422 188.60640621 -13.4375 190.4375 C-17.34696941 195.26804859 -21.45527831 199.87113095 -25.66015625 204.4453125 C-27.65834848 206.62697815 -29.62148889 208.83011309 -31.5625 211.0625 C-39.07001815 219.685654 -46.81217378 228.01719288 -54.875 236.125 C-55.79152344 237.06214844 -56.70804687 237.99929688 -57.65234375 238.96484375 C-63.59091779 244.93682749 -69.71713549 250.68451375 -77 255 C-77.99 255 -78.98 255 -80 255 C-80 256.65 -80 258.3 -80 260 C-84.62 259.34 -89.24 258.68 -94 258 C-94 257.67 -94 257.34 -94 257 C-95.65 256.67 -97.3 256.34 -99 256 C-99 256.66 -99 257.32 -99 258 C-103.29 258.99 -107.58 259.98 -112 261 C-112.66 263.64 -113.32 266.28 -114 269 C-114.66 269 -115.32 269 -116 269 C-118.12046792 265.46588679 -118.53199289 262.05606165 -119 258 C-126.41591972 258.93934983 -132.55769357 260.11030555 -139 264 C-140.20272819 266.40545638 -140.10071472 267.94996953 -140.0625 270.625 C-140.04896484 271.85089844 -140.04896484 271.85089844 -140.03515625 273.1015625 C-140.02355469 273.72804688 -140.01195312 274.35453125 -140 275 C-142.375 274.125 -142.375 274.125 -145 272 C-146.9013544 267.30550551 -147.27436899 263.24521309 -146.1875 258.3125 C-141.27520321 250.87387915 -134.13665162 247.47910962 -126.24291992 243.77001953 C-120.182556 240.81170122 -115.77456713 236.66826879 -111 232 C-109.94855776 231.13225801 -108.88768837 230.27563896 -107.8125 229.4375 C-105.58826857 227.50983276 -103.82903133 225.71908919 -101.9375 223.5 C-94.34591988 214.6347773 -85.97748472 206.513298 -76.8359375 199.26171875 C-72.98671043 196.19188063 -69.24875134 192.99754439 -65.50195312 189.80419922 C-64.0052684 188.53145384 -62.50274985 187.26557846 -61 186 C-59.63488281 184.84951172 -59.63488281 184.84951172 -58.2421875 183.67578125 C-56 182 -56 182 -54 182 C-54.15597656 181.08863281 -54.31195313 180.17726563 -54.47265625 179.23828125 C-58.80870001 150.37918205 -58.80870001 150.37918205 -52.95703125 141.2890625 C-50.77193754 138.64193785 -48.5253548 136.31652739 -46 134 C-45.67 133.34 -45.34 132.68 -45 132 C-47.31 131.34 -49.62 130.68 -52 130 C-53.03038433 126.0585998 -52.87693282 123.16384848 -52.0625 119.1875 C-51.86785156 118.21167969 -51.67320312 117.23585938 -51.47265625 116.23046875 C-51.23869141 115.12638672 -51.23869141 115.12638672 -51 114 C-50.34 114 -49.68 114 -49 114 C-48.81667114 112.67947632 -48.81667114 112.67947632 -48.62963867 111.33227539 C-48.03392721 108.17955508 -47.17801357 105.62570834 -45.92578125 102.68359375 C-45.50844727 101.68400635 -45.09111328 100.68441895 -44.66113281 99.65454102 C-44.21608398 98.59291748 -43.77103516 97.53129395 -43.3125 96.4375 C-37.5693888 82.30084605 -32.96722056 68.50761697 -30.5859375 53.4140625 C-30.46375854 52.65675339 -30.34157959 51.89944427 -30.21569824 51.1191864 C-29.60671967 47.3257699 -29.03546142 43.5335055 -28.53027344 39.72485352 C-27.2436789 30.8730906 -25.21734381 25.68647367 -18 20 C-16.86950227 18.77376229 -15.76123696 17.5262339 -14.6875 16.25 C-11.5546174 12.61556543 -8.35601419 9.047086 -5.125 5.5 C-4.63604248 4.95891602 -4.14708496 4.41783203 -3.64331055 3.86035156 C-2.44991474 2.55403002 -1.22755352 1.27427701 0 0 Z " fill="#4B5052" transform="translate(363,139)"/>
<path d="M0 0 C1.32 0 2.64 0 4 0 C8.455 9.405 8.455 9.405 13 19 C16.33365749 19 18.5779963 16.46787061 21.125 14.5 C21.96998047 13.85611328 21.96998047 13.85611328 22.83203125 13.19921875 C24.2246171 12.137077 25.61273644 11.06908385 27 10 C30.67056937 11.47797262 32.41085783 13.47615477 34.75 16.625 C35.36359375 17.44226563 35.9771875 18.25953125 36.609375 19.1015625 C37.06828125 19.72804688 37.5271875 20.35453125 38 21 C37.443125 22.13953125 36.88625 23.2790625 36.3125 24.453125 C29.07772552 39.40148101 22.50854819 54.46016482 17.86328125 70.421875 C16.71376343 73.85482413 15.28308341 76.20138162 13 79 C12.59394531 79.52464844 12.18789063 80.04929687 11.76953125 80.58984375 C9.2224778 82.61961483 6.96161597 82.60513509 3.75 82.9375 C-3.76889816 83.98978369 -3.76889816 83.98978369 -10 88 C-12.0034909 91.55094423 -13.57249157 95.18453968 -15 99 C-17.41946095 98.03221562 -18.76042655 97.35257979 -20.2421875 95.171875 C-21.09704387 92.72187427 -21.20109118 90.83709998 -21.125 88.25 C-21.10695313 87.45078125 -21.08890625 86.6515625 -21.0703125 85.828125 C-21.04710937 85.22484375 -21.02390625 84.6215625 -21 84 C-21.680625 84.165 -22.36125 84.33 -23.0625 84.5 C-26 85 -26 85 -29.1875 84.8125 C-34.78700038 85.08788526 -40.25809434 86.89929722 -44.75390625 90.34375 C-46.36442933 92.48438256 -46.49523086 94.03418593 -46.6875 96.6875 C-46.75324219 97.49574219 -46.81898438 98.30398438 -46.88671875 99.13671875 C-46.92410156 99.75160156 -46.96148437 100.36648438 -47 101 C-50.51104082 99.1021401 -53.18963824 97.62072351 -55 94 C-55.240143 90.98255102 -55.17421398 88.01970898 -55 85 C-55.78246094 85.01160156 -56.56492187 85.02320313 -57.37109375 85.03515625 C-58.88896484 85.04869141 -58.88896484 85.04869141 -60.4375 85.0625 C-61.44683594 85.07410156 -62.45617187 85.08570313 -63.49609375 85.09765625 C-66 85 -66 85 -67 84 C-71.23689737 83.46601087 -74.86819179 83.45981881 -78.75 85.3125 C-82.16753875 89.39456017 -84.01240303 94.09444152 -86 99 C-89.80726834 95.43836187 -90.90159494 93.50067721 -91.25 88.1875 C-91.15393295 83.41034778 -89.93508654 80.05334183 -86.59375 76.5078125 C-83.2816782 73.49257733 -79.7395307 71.18940984 -75.875 68.9375 C-71.96445514 66.65585879 -69.06218423 64.37625441 -66 61 C-60.87369889 55.74676191 -55.74830485 50.57518141 -50 46 C-49.34 46 -48.68 46 -48 46 C-48 45.34 -48 44.68 -48 44 C-46.015625 42.58984375 -46.015625 42.58984375 -43.25 40.9375 C-30.74921023 33.20505272 -15.75147774 23.58630707 -9 10 C-7.35511706 8.31183067 -5.68662458 6.64646685 -4 5 C-3.319375 4.071875 -2.63875 3.14375 -1.9375 2.1875 C-0.9784375 1.1046875 -0.9784375 1.1046875 0 0 Z " fill="#4B5053" transform="translate(396,315)"/>
<path d="M0 0 C3.48654476 1.4841373 5.64191072 3.46214052 8.25 6.1875 C11.73304157 9.75619013 15.31881213 13.0758191 19.1015625 16.3203125 C21.55679876 18.49264088 23.83080336 20.81793999 26.12573242 23.15698242 C27.93255954 24.93368398 29.79362885 26.59452305 31.71484375 28.24609375 C35.93292917 31.91403623 40.00689798 35.71663762 44.0625 39.5625 C45.55835778 40.97551027 47.05445617 42.38826585 48.55078125 43.80078125 C49.29537598 44.50412598 50.0399707 45.2074707 50.80712891 45.93212891 C54.11179667 49.04842104 57.4297852 52.150292 60.75 55.25 C61.35473145 55.81710693 61.95946289 56.38421387 62.58251953 56.96850586 C65.62889234 59.81909319 68.69964874 62.63362779 71.82421875 65.3984375 C72.43233398 65.94209961 73.04044922 66.48576172 73.66699219 67.04589844 C74.81692944 68.07151815 75.97476646 69.08837308 77.14160156 70.09472656 C78.68359375 71.4765625 78.68359375 71.4765625 81 74 C81 78 81 78 79.73413086 79.70410156 C79.15026611 80.2606543 78.56640137 80.81720703 77.96484375 81.390625 C77.32417969 82.01324219 76.68351562 82.63585937 76.0234375 83.27734375 C75.33507812 83.92832031 74.64671875 84.57929687 73.9375 85.25 C72.53858435 86.60754291 71.14142101 87.96689408 69.74609375 89.328125 C69.11372803 89.9355957 68.4813623 90.54306641 67.82983398 91.16894531 C65.95699252 93.04303617 64.22557119 94.99003136 62.5 97 C60.21776958 99.64784751 57.87820351 102.17678529 55.39453125 104.63671875 C54.72679687 105.30123047 54.0590625 105.96574219 53.37109375 106.65039062 C52.02616778 107.98128037 50.67861933 109.30952661 49.328125 110.63476562 C46.59932519 113.32714408 44.04618956 115.94143132 41.66796875 118.95703125 C41.11753906 119.63121094 40.56710937 120.30539063 40 121 C39.34 121 38.68 121 38 121 C36.82826003 118.65652006 36.68758704 116.87147962 36.42749023 114.26245117 C36.32746201 113.27770309 36.22743378 112.29295502 36.12437439 111.27836609 C36.02016678 110.21068497 35.91595917 109.14300385 35.80859375 108.04296875 C35.69902847 106.94785477 35.5894632 105.85274078 35.47657776 104.72444153 C35.24526899 102.40364043 35.01590833 100.08264449 34.78833008 97.76147461 C34.43992715 94.21222589 34.08471876 90.66370782 33.72851562 87.11523438 C33.50480175 84.8620195 33.28148157 82.60876549 33.05859375 80.35546875 C32.95236191 79.29386032 32.84613007 78.23225189 32.73667908 77.13847351 C32.59136497 75.64716667 32.59136497 75.64716667 32.44311523 74.12573242 C32.35730698 73.25462326 32.27149872 72.3835141 32.18309021 71.48600769 C31.99859781 68.98096096 31.9680969 66.51085278 32 64 C34.97120324 65.3699906 37.36654562 66.96280365 39.890625 69.0390625 C40.95410156 69.90917969 40.95410156 69.90917969 42.0390625 70.796875 C42.76867187 71.40015625 43.49828125 72.0034375 44.25 72.625 C44.99507813 73.23601562 45.74015625 73.84703125 46.5078125 74.4765625 C48.34135497 75.9810076 50.17194246 77.48889893 52 79 C48.94146829 82.95614428 45.8900837 85.90561524 42 89 C42.66 90.65 43.32 92.3 44 94 C46.03898371 92.70698594 48.02373761 91.38466974 50 90 C50.64582031 89.55269531 51.29164063 89.10539062 51.95703125 88.64453125 C55.26168853 86.13406859 56.79166961 84.66175535 58.0625 80.625 C56.34847592 74.77715313 51.80784575 72.43975956 47 69 C45.15856439 67.53093226 43.32482379 66.05215207 41.5 64.5625 C38.4096803 62.03030455 38.4096803 62.03030455 35 60 C35 59.34 35 58.68 35 58 C34.443125 57.731875 33.88625 57.46375 33.3125 57.1875 C30.8138209 55.90439451 28.40858711 54.44515227 26 53 C25.67 78.74 25.34 104.48 25 131 C17.41 131 9.82 131 2 131 C1.17125629 111.7662397 0.75728088 92.55921665 0.52727509 73.31190491 C0.44424539 66.46435909 0.35216223 59.61692932 0.2578125 52.76953125 C0.24769764 52.03099285 0.23758278 51.29245445 0.22716141 50.5315361 C0.03958113 37.02550006 -0.27340161 23.52554192 -0.78320312 10.02758789 C-0.82638672 8.80676514 -0.86957031 7.58594238 -0.9140625 6.328125 C-0.9548291 5.3062207 -0.9955957 4.28431641 -1.03759766 3.23144531 C-1 1 -1 1 0 0 Z " fill="#1E221B" transform="translate(305,28)"/>
<path d="M0 0 C0.33877161 11.28631572 -0.58608677 22.35600923 -1.65405273 33.58032227 C-1.93987025 36.58743762 -2.21578834 39.59534309 -2.49023438 42.60351562 C-2.66870148 44.5286987 -2.84771782 46.45383095 -3.02734375 48.37890625 C-3.1508445 49.7179879 -3.1508445 49.7179879 -3.27684021 51.0841217 C-3.66259711 55.11175975 -4.08619209 59.04964752 -5 63 C-4.42032471 62.98428955 -3.84064941 62.9685791 -3.2434082 62.95239258 C-0.59987261 62.88977209 2.04350655 62.85092482 4.6875 62.8125 C5.59951172 62.78736328 6.51152344 62.76222656 7.45117188 62.73632812 C16.17320802 62.64117864 16.17320802 62.64117864 20 66 C21.76523245 68.92674519 22.28006531 71.21765505 22.4140625 74.61328125 C22.45281494 75.52134521 22.49156738 76.42940918 22.53149414 77.36499023 C22.57777954 78.82400757 22.57777954 78.82400757 22.625 80.3125 C22.68192017 81.81695679 22.68192017 81.81695679 22.73999023 83.35180664 C23.11303185 94.23261003 23.09891717 105.11454545 23 116 C20.80588642 113.80588642 19.80336768 111.83908475 18.4375 109.0625 C17.78587891 107.74958984 17.78587891 107.74958984 17.12109375 106.41015625 C16 104 16 104 15 101 C14.34 101 13.68 101 13 101 C12.46375 100.4225 11.9275 99.845 11.375 99.25 C3.70050941 91.97942997 -4.80056846 92.40247829 -14.75 92.375 C-16.86652246 92.35860406 -18.9826097 92.33651567 -21.09893799 92.30337524 C-23.00819684 92.27494416 -24.91770045 92.26465 -26.82714844 92.25537109 C-29.84607975 92.01238847 -31.53491331 91.71363403 -34 90 C-36.2611445 85.20053845 -36.41300773 80.33647672 -36.625 75.125 C-36.66367187 74.34125 -36.70234375 73.5575 -36.7421875 72.75 C-36.83566622 70.83368633 -36.91888495 68.91687681 -37 67 C-39.94381488 65.32871068 -42.17383394 64.72268241 -45.546875 64.5859375 C-46.39121094 64.54726562 -47.23554688 64.50859375 -48.10546875 64.46875 C-48.97816406 64.4378125 -49.85085938 64.406875 -50.75 64.375 C-51.63816406 64.33632812 -52.52632813 64.29765625 -53.44140625 64.2578125 C-55.6273998 64.16379127 -57.81339062 64.07813857 -60 64 C-58.5311002 60.94306823 -56.96973277 58.64507077 -54.6875 56.125 C-52.53422082 53.72206527 -50.41183727 51.31490008 -48.375 48.8125 C-46.04373969 46.051797 -43.58955777 43.51762561 -41 41 C-39.28960219 39.28960219 -39.70698458 37.14906044 -39.625 34.8125 C-39.57601563 33.87019531 -39.52703125 32.92789063 -39.4765625 31.95703125 C-40.2118901 27.80297906 -42.13448333 26.0508261 -45 23 C-44.40799805 22.69408936 -43.81599609 22.38817871 -43.20605469 22.07299805 C-31.42089889 15.97491791 -19.68174516 9.82146009 -8.12207031 3.3034668 C-7.3431543 2.8681665 -6.56423828 2.43286621 -5.76171875 1.984375 C-5.08069092 1.59991211 -4.39966309 1.21544922 -3.69799805 0.81933594 C-2 0 -2 0 0 0 Z " fill="#4B5053" transform="translate(431,69)"/>
<path d="M0 0 C-2.63286996 11.38175306 -9.14536587 16.08128003 -18.80273438 22.12890625 C-28.92284836 28.26546047 -39.5895356 33.22947119 -50.375 38.0625 C-51.02063904 38.35216644 -51.66627808 38.64183289 -52.33148193 38.9402771 C-64.03560026 44.17184108 -64.03560026 44.17184108 -68 45 C-68.77142672 43.77120566 -69.54210904 42.54194398 -70.3125 41.3125 C-70.74175781 40.62800781 -71.17101562 39.94351563 -71.61328125 39.23828125 C-72.07089844 38.49964844 -72.52851562 37.76101563 -73 37 C-73.49757813 36.20722656 -73.99515625 35.41445313 -74.5078125 34.59765625 C-77.85488525 28.77094583 -80.49050698 22.3176399 -82.1875 15.8125 C-82.455625 14.884375 -82.72375 13.95625 -83 13 C-83.66 12.67 -84.32 12.34 -85 12 C-85.90979128 8.7146426 -86.40545619 5.35492581 -87 2 C-73.02350554 1.20304744 -59.05917512 0.75390689 -45.06274414 0.49731445 C-41.80542078 0.43736972 -38.54822717 0.37235651 -35.29101562 0.30664062 C-23.52586567 0.07637081 -11.76736651 -0.06358556 0 0 Z " fill="#721C25" transform="translate(98,221)"/>
<path d="M0 0 C17.21937218 -0.08798487 34.43025531 0.17217032 51.6463623 0.46356201 C55.30784051 0.52515408 58.96935131 0.5847455 62.63085938 0.64453125 C69.75393836 0.76112004 76.87698034 0.8798365 84 1 C83.45447367 7.00852496 82.50926615 12.50833586 80.78515625 18.28125 C80.5693541 19.02080933 80.35355194 19.76036865 80.13121033 20.52233887 C79.67852274 22.06612092 79.22207258 23.60880438 78.76196289 25.15039062 C78.05688034 27.51887734 77.36862379 29.89183319 76.68164062 32.265625 C76.23797057 33.77112585 75.79334419 35.27634529 75.34765625 36.78125 C75.14237808 37.49156372 74.93709991 38.20187744 74.7256012 38.93371582 C74.20970717 40.64152843 73.61200682 42.32422609 73 44 C71 45 71 45 68.68774414 44.24658203 C67.72989014 43.83778809 66.77203613 43.42899414 65.78515625 43.0078125 C64.71547607 42.55446533 63.6457959 42.10111816 62.54370117 41.6340332 C61.39490479 41.13605225 60.2461084 40.63807129 59.0625 40.125 C57.88985596 39.62121826 56.71721191 39.11743652 55.5090332 38.59838867 C6.65683727 17.47608664 6.65683727 17.47608664 0 2 C0 1.34 0 0.68 0 0 Z " fill="#721C24" transform="translate(234,221)"/>
<path d="M0 0 C10.22129053 0.40772686 20.3410038 1.29255151 30.5 2.5 C31.61624756 2.63059814 32.73249512 2.76119629 33.88256836 2.89575195 C34.9216333 3.02296631 35.96069824 3.15018066 37.03125 3.28125 C37.96517578 3.39533203 38.89910156 3.50941406 39.86132812 3.62695312 C42 4 42 4 43 5 C43.326012 6.4042863 43.59861894 7.8210504 43.84790039 9.2409668 C44.00799088 10.14247971 44.16808136 11.04399261 44.33302307 11.9728241 C44.50285202 12.95503433 44.67268097 13.93724457 44.84765625 14.94921875 C45.02380966 15.95459183 45.19996307 16.9599649 45.38145447 17.99580383 C45.75412147 20.12990818 46.12471045 22.26437625 46.4934082 24.39916992 C47.05727266 27.65729536 47.63072885 30.9136305 48.20507812 34.16992188 C48.5656901 36.24208562 48.92573435 38.31434825 49.28515625 40.38671875 C49.45700943 41.35880783 49.62886261 42.33089691 49.80592346 43.33244324 C50.59490887 47.94390812 51.2155691 52.30020081 51 57 C50.33170166 56.7733667 49.66340332 56.5467334 48.97485352 56.31323242 C45.84144804 55.25872872 42.70308904 54.22041684 39.5625 53.1875 C38.42989746 52.81367188 37.29729492 52.43984375 36.13037109 52.0546875 C28.82666746 49.71220485 21.71526507 47.86482456 14.04125977 47.36401367 C12.1328125 47.15625 12.1328125 47.15625 9 46 C6.64678147 40.738297 5.34451286 35.58333398 4.39453125 29.921875 C4.26559982 29.18801575 4.1366684 28.45415649 4.00382996 27.69805908 C3.73563235 26.16262142 3.47112512 24.62653484 3.21020508 23.08984375 C2.81090246 20.7406011 2.39956741 18.39370224 1.98632812 16.046875 C1.72586116 14.54699663 1.4660714 13.04700046 1.20703125 11.546875 C1.08519974 10.84890808 0.96336823 10.15094116 0.83784485 9.43182373 C0.29447441 6.21128922 0 3.28166943 0 0 Z " fill="#E7E575" transform="translate(92,169)"/>
<path d="M0 0 C-2.44385855 15.04623202 -5.07044515 30.04057099 -8 45 C-8.57218262 45.12004395 -9.14436523 45.24008789 -9.73388672 45.36376953 C-21.55706197 47.87286023 -33.04140541 50.74685071 -44.4453125 54.765625 C-46.9830707 55.64686851 -49.39971339 56.38153029 -52 57 C-51.27881545 50.74332336 -50.26843432 44.57245135 -49.15234375 38.375 C-48.97619034 37.38749756 -48.80003693 36.39999512 -48.61854553 35.38256836 C-48.06013187 32.25469609 -47.49886146 29.12734443 -46.9375 26 C-46.5564512 23.86852344 -46.17558989 21.73701335 -45.79492188 19.60546875 C-44.86544988 14.40325601 -43.93363718 9.20146674 -43 4 C-37.68012347 3.42697885 -32.35989231 2.85741453 -27.03930664 2.29101562 C-25.23028631 2.0979498 -23.42136555 1.90394861 -21.61254883 1.70898438 C-19.00888424 1.42851267 -16.40487723 1.15143406 -13.80078125 0.875 C-12.99538406 0.78750488 -12.18998688 0.70000977 -11.36018372 0.60986328 C-7.55385401 0.20899801 -3.83433076 -0.10753601 0 0 Z " fill="#E7E575" transform="translate(244,169)"/>
<path d="M0 0 C5.67520563 -0.22731131 10.6660278 0.6129651 16.1875 1.875 C22.71954348 3.3163667 29.2291864 4.61223414 35.84765625 5.60546875 C38 6 38 6 40 7 C40.60817631 9.77898013 41.09182471 12.4953235 41.5078125 15.3046875 C41.70333206 16.55706711 41.70333206 16.55706711 41.90280151 17.83474731 C42.17748826 19.60452157 42.44788331 21.37496636 42.71435547 23.14599609 C43.1224223 25.85786946 43.54239795 28.56767679 43.96484375 31.27734375 C44.22986503 32.99468404 44.49421029 34.71212882 44.7578125 36.4296875 C44.94526535 37.64856155 44.94526535 37.64856155 45.13650513 38.89205933 C45.59656193 41.95724331 46 44.89564722 46 48 C31.94061497 47.45870655 17.99378852 46.4603447 4 45 C0.94852849 30.12130568 -0.40830331 15.17527316 0 0 Z " fill="#E7E575" transform="translate(86,113)"/>
<path d="M0 0 C-0.50553544 15.44497921 -2.07751833 30.67078584 -4 46 C-8.21277048 46.43433005 -12.4262139 46.86122745 -16.64038086 47.28173828 C-18.06896448 47.42528709 -19.49735818 47.57074098 -20.92553711 47.71826172 C-29.29771799 48.58161534 -37.57066009 49.24195846 -46 49 C-45.37623997 40.00815005 -43.96327756 31.18579371 -42.4375 22.3125 C-42.20078918 20.91738259 -41.96445859 19.5222006 -41.72851562 18.12695312 C-41.15671441 14.75054824 -40.57981045 11.3750399 -40 8 C-35.46975683 6.36807436 -30.96106468 5.32394444 -26.23046875 4.4921875 C-25.14805656 4.29666794 -25.14805656 4.29666794 -24.04377747 4.09719849 C-21.7590734 3.68565246 -19.47331075 3.28034883 -17.1875 2.875 C-15.63339388 2.59543907 -14.07935664 2.31549492 -12.52539062 2.03515625 C-1.1962106 0 -1.1962106 0 0 0 Z " fill="#E7E575" transform="translate(250,112)"/>
<path d="M0 0 C8.59358568 -0.51994804 16.50785834 0.21276795 24.9375 1.8125 C25.8246167 1.97782227 26.7117334 2.14314453 27.62573242 2.31347656 C30.11990635 2.81301691 32.55174641 3.3069537 35 4 C36.2080127 4.32049316 37.41602539 4.64098633 38.66064453 4.97119141 C42 7 42 7 42.8787384 8.91905212 C43.4919801 11.48509073 43.88160436 14.01165818 44.21484375 16.62890625 C44.36031143 17.57434799 44.50577911 18.51978973 44.65565491 19.49388123 C45.11290717 22.51318564 45.52543046 25.53673225 45.9375 28.5625 C46.23995428 30.60394503 46.54525998 32.64496978 46.85351562 34.68554688 C49 49.0808642 49 49.0808642 49 52 C45.70577022 51.37855037 42.51692632 50.61695821 39.3046875 49.66015625 C38.4286084 49.40314941 37.5525293 49.14614258 36.64990234 48.88134766 C34.77748405 48.32881458 32.90542128 47.77507548 31.03369141 47.22021484 C25.35078141 45.5690658 19.90069712 44.29615035 13.9609375 44.0078125 C11.07034317 42.52220824 10.6301169 40.20954259 9.66601562 37.24658203 C9.44623047 36.50520996 9.22644531 35.76383789 9 35 C8.79052734 34.33210449 8.58105469 33.66420898 8.36523438 32.97607422 C7.74048596 30.94863587 7.14730427 28.9142991 6.5625 26.875 C6.35149658 26.14579346 6.14049316 25.41658691 5.9230957 24.6652832 C5.49147817 23.17222069 5.06104969 21.6788139 4.63183594 20.18505859 C4.027619 18.09551393 3.41057258 16.01023828 2.7890625 13.92578125 C2.24378906 12.07533203 2.24378906 12.07533203 1.6875 10.1875 C1.36136719 9.08792969 1.03523438 7.98835937 0.69921875 6.85546875 C0 4 0 4 0 0 Z " fill="#E6E475" transform="translate(105,235)"/>
<path d="M0 0 C-2.56324499 12.62021208 -5.92305987 24.78719259 -10 37 C-10.58394531 38.75570312 -10.58394531 38.75570312 -11.1796875 40.546875 C-11.45039063 41.35640625 -11.72109375 42.1659375 -12 43 C-12.56283691 43.09498779 -13.12567383 43.18997559 -13.70556641 43.2878418 C-24.32371091 45.11090818 -34.42693278 47.08747531 -44.48046875 51.046875 C-47 52 -47 52 -49 52 C-48.00132798 42.21038612 -46.66902409 32.51157365 -45 22.8125 C-44.8340332 21.83337646 -44.66806641 20.85425293 -44.49707031 19.84545898 C-44.03548228 17.22125391 -43.53070122 14.61098541 -43 12 C-42.65195313 10.25009766 -42.65195313 10.25009766 -42.296875 8.46484375 C-41 6 -41 6 -38.015625 4.609375 C-36.77296875 4.32578125 -35.5303125 4.0421875 -34.25 3.75 C-33.58186279 3.5943457 -32.91372559 3.43869141 -32.2253418 3.27832031 C-21.50620273 0.86963849 -10.99151668 -0.36235769 0 0 Z " fill="#E7E575" transform="translate(231,235)"/>
<path d="M0 0 C0.33 0 0.66 0 1 0 C1.06429115 9.60015248 1.06010135 19.19844789 1.00921631 28.79858398 C1.00018863 30.95494459 0.99859733 33.1112007 0.99853516 35.26757812 C0.99485269 39.30432543 0.93733328 43.33873105 0.875 47.375 C0.87765869 48.60814941 0.88031738 49.84129883 0.88305664 51.11181641 C0.70499748 59.14722155 -0.81581677 63.86624642 -6 70 C-6.44069824 70.56783203 -6.88139648 71.13566406 -7.33544922 71.72070312 C-8.48326166 73.19350692 -9.67783213 74.62952634 -10.875 76.0625 C-11.65617187 77.00222656 -12.43734375 77.94195312 -13.2421875 78.91015625 C-14.11230469 79.94462891 -14.11230469 79.94462891 -15 81 C-19.56570745 79.43121427 -21.82605918 75.7632386 -24.625 72.0625 C-25.11484375 71.42892578 -25.6046875 70.79535156 -26.109375 70.14257812 C-32.0268332 62.45473284 -32.0268332 62.45473284 -31.80322266 58.6652832 C-31.60502139 57.2915576 -31.39087722 55.92007335 -31.1640625 54.55078125 C-30.98851334 53.45361031 -30.98851334 53.45361031 -30.80941772 52.33427429 C-30.5553519 50.78397764 -30.29430755 49.23481103 -30.02685547 47.68676758 C-29.63009414 45.34259754 -29.28119755 42.99446641 -28.93359375 40.64257812 C-27.46242947 31.56174068 -25.48845047 25.80117697 -18 20 C-16.86878957 18.77441973 -15.76051238 17.52684317 -14.6875 16.25 C-11.5546174 12.61556543 -8.35601419 9.047086 -5.125 5.5 C-4.63604248 4.95891602 -4.14708496 4.41783203 -3.64331055 3.86035156 C-2.44991474 2.55403002 -1.22755352 1.27427701 0 0 Z " fill="#1D221B" transform="translate(363,139)"/>
<path d="M0 0 C-0.64694916 5.53500948 -2.48714032 10.3492076 -4.5 15.5 C-4.85312256 16.41273682 -5.20624512 17.32547363 -5.57006836 18.26586914 C-6.70388302 21.18107293 -7.84971782 24.09125708 -9 27 C-9.37785645 27.9576123 -9.75571289 28.91522461 -10.14501953 29.90185547 C-14.63088946 41.21546918 -19.38086391 52.19974511 -25 63 C-26.03349683 65.06547455 -27.05769903 67.13541309 -28.08178711 69.20556641 C-31.22948926 75.56284923 -34.44962984 81.85512856 -38 88 C-38.33 88 -38.66 88 -39 88 C-39.52683749 60.06545511 -36.56655399 32.65247431 -33 5 C-28.69252924 3.19646171 -24.46354733 2.17298606 -19.875 1.375 C-18.75363647 1.17716919 -18.75363647 1.17716919 -17.60961914 0.9753418 C-11.71058744 -0.00624388 -5.9806293 -0.3487624 0 0 Z " fill="#E6E475" transform="translate(213,293)"/>
<path d="M0 0 C6.77724246 -0.17801725 13.1916622 0.26111037 19.875 1.375 C21.11636719 1.56449219 21.11636719 1.56449219 22.3828125 1.7578125 C29.90647079 2.97130577 29.90647079 2.97130577 33 5 C33.77539062 6.72460938 33.77539062 6.72460938 34.15625 8.84375 C34.30320313 9.65328125 34.45015625 10.4628125 34.6015625 11.296875 C35.34714891 16.35516714 35.96800698 21.41474066 36.5 26.5 C36.69009644 28.29945068 36.69009644 28.29945068 36.8840332 30.13525391 C37.86893898 39.86954115 38.5887253 49.61028044 39.1875 59.375 C39.2302002 60.05570557 39.27290039 60.73641113 39.31689453 61.43774414 C39.88498008 70.64184392 40.10478656 79.78057376 40 89 C35.05729036 83.17999826 31.94213221 76.47354046 28.5625 69.6875 C28.2122879 68.98725708 27.86207581 68.28701416 27.50125122 67.56555176 C16.6388415 45.76119037 7.64371378 23.1257086 0 0 Z " fill="#E7E575" transform="translate(122,293)"/>
<path d="M0 0 C3.59963445 0.71992689 6.26931254 1.38719889 9.57495117 2.73413086 C10.44903122 3.08797348 11.32311127 3.4418161 12.22367859 3.80638123 C13.15404434 4.18867386 14.0844101 4.57096649 15.04296875 4.96484375 C16.49018059 5.55489952 16.49018059 5.55489952 17.96662903 6.15687561 C20.00071628 6.98769563 22.03387549 7.82079093 24.06616211 8.65600586 C27.1838285 9.93599263 30.3055329 11.20573136 33.42773438 12.47460938 C35.40389716 13.28324023 37.37981719 14.09246467 39.35546875 14.90234375 C40.2919072 15.28261215 41.22834564 15.66288055 42.19316101 16.05467224 C43.05778458 16.41166702 43.92240814 16.7686618 44.81323242 17.13647461 C45.57536545 17.44878525 46.33749847 17.76109589 47.12272644 18.08287048 C49 19 49 19 51 21 C50.08935791 21.46784912 49.17871582 21.93569824 48.24047852 22.41772461 C44.01382009 24.58968965 39.78803914 26.76335833 35.5625 28.9375 C34.8082373 29.32549774 34.05397461 29.71349548 33.27685547 30.11325073 C23.97155058 34.90149348 14.67280246 39.69850557 5.45922852 44.66186523 C1.09994418 47 1.09994418 47 0 47 C0 31.49 0 15.98 0 0 Z " fill="#4B5053" transform="translate(456,225)"/>
<path d="M0 0 C0.12060791 0.92897095 0.12060791 0.92897095 0.24365234 1.87670898 C0.61661609 4.73086593 0.99577134 7.58416898 1.375 10.4375 C1.50132812 11.41138672 1.62765625 12.38527344 1.7578125 13.38867188 C2.55524809 19.34950292 3.60829145 25.1487732 5 31 C-7.16551141 36.65874509 -24.83758986 34.12228812 -38 34.0625 C-39.95051967 34.05746954 -41.90104061 34.0529094 -43.8515625 34.04882812 C-48.56774052 34.03795747 -53.28385566 34.02078019 -58 34 C-45.37303062 21.07712864 -19.10773589 0 0 0 Z " fill="#701C24" transform="translate(301,131)"/>
<path d="M0 0 C0.66 0.33 1.32 0.66 2 1 C-2.62 30.04 -7.24 59.08 -12 89 C-12.66 89 -13.32 89 -14 89 C-15.57251695 82.37780578 -16.64751355 75.8121317 -17.5 69.0625 C-18.28398683 62.88106541 -19.20699321 56.79556084 -20.47363281 50.69458008 C-21.53460584 45.26324461 -22.31262829 39.78547831 -23.125 34.3125 C-23.30675781 33.12849609 -23.48851562 31.94449219 -23.67578125 30.72460938 C-24.51432964 25.09750834 -25.24998532 19.6913325 -25 14 C-21.2087859 11.85336633 -17.41695268 9.70782868 -13.625 7.5625 C-12.54476562 6.95083984 -11.46453125 6.33917969 -10.3515625 5.70898438 C-9.3203125 5.12568359 -8.2890625 4.54238281 -7.2265625 3.94140625 C-6.27346191 3.40201416 -5.32036133 2.86262207 -4.33837891 2.30688477 C-2.90865767 1.50783509 -1.46494593 0.73247296 0 0 Z " fill="#E7E575" transform="translate(211,385)"/>
<path d="M0 0 C3.59747227 1.36641579 6.92958192 2.9671386 10.30078125 4.8203125 C11.76547852 5.62275391 11.76547852 5.62275391 13.25976562 6.44140625 C14.26716797 6.99699219 15.27457031 7.55257813 16.3125 8.125 C17.33923828 8.68832031 18.36597656 9.25164062 19.42382812 9.83203125 C21.95062147 11.21882946 24.47567676 12.60871348 27 14 C26.36047146 22.59827524 25.1494562 31.05607622 23.78515625 39.56640625 C23.56708685 40.93593477 23.34910653 42.30547748 23.13121033 43.67503357 C22.67748584 46.52020366 22.22066424 49.3648568 21.76196289 52.20922852 C21.17437387 55.85630093 20.59787372 59.50503595 20.02396488 63.15428257 C19.57912256 65.97152558 19.12693034 68.78755203 18.67263603 71.60328484 C18.45668886 72.94929848 18.24340974 74.29574299 18.03285408 75.64261055 C17.73934469 77.51500218 17.4345232 79.3856101 17.12915039 81.25610352 C16.95895889 82.31990738 16.7887674 83.38371124 16.61341858 84.47975159 C16 87 16 87 14 89 C11.95255732 80.3970682 10.69400402 71.72303857 9.41210938 62.97851562 C9.24388672 61.85251953 9.07566406 60.72652344 8.90234375 59.56640625 C8.67792603 58.03415405 8.67792603 58.03415405 8.44897461 56.47094727 C8.12056391 54.00770406 8.12056391 54.00770406 7 52 C6.81864052 50.31594764 6.67895471 48.62728162 6.5625 46.9375 C6.27607584 43.47355781 5.89612232 40.18606534 5.0625 36.8125 C2.61136131 26.58722742 1.85777228 15.85211025 1.34375 5.37890625 C1.2303125 4.59386719 1.116875 3.80882812 1 3 C0.34 2.67 -0.32 2.34 -1 2 C-0.67 1.34 -0.34 0.68 0 0 Z " fill="#E6E575" transform="translate(123,385)"/>
<path d="M0 0 C-8.17969083 17.40607196 -26.53366317 31.04358093 -43 40 C-45.5625 40.6875 -45.5625 40.6875 -48 40 C-49.44267594 38.42312164 -50.87084683 36.82806434 -52.1875 35.14453125 C-55.05207163 31.75519973 -58.40261952 28.93963385 -61.73046875 26.015625 C-65.63246985 22.55016447 -65.63246985 22.55016447 -67 21 C-67 20.34 -67 19.68 -67 19 C-65.99324219 18.75354736 -64.98648438 18.50709473 -63.94921875 18.25317383 C-60.13089963 17.31701324 -56.31426474 16.37412966 -52.49804688 15.42944336 C-50.86176412 15.02533013 -49.22505913 14.62292185 -47.58789062 14.22241211 C-32.90208237 10.62763656 -18.51924221 6.5803396 -4.4765625 0.91796875 C-2 0 -2 0 0 0 Z " fill="#711C24" transform="translate(112,286)"/>
<path d="M0 0 C4.47566664 1.32333413 8.94468159 2.65635128 13.3828125 4.1015625 C30.91534256 9.77492818 48.78673328 14.17892336 67 17 C65.63917829 20.07884863 64.13251195 22.07086911 61.6640625 24.34765625 C61.01179688 24.95287109 60.35953125 25.55808594 59.6875 26.18164062 C59.006875 26.80232422 58.32625 27.42300781 57.625 28.0625 C56.95210938 28.68705078 56.27921875 29.31160156 55.5859375 29.95507812 C49.15274369 35.88805312 49.15274369 35.88805312 46 38 C33.37896484 37.33254141 18.6764507 21.91734916 9.9375 13.3125 C9.40141113 12.79026855 8.86532227 12.26803711 8.31298828 11.72998047 C4.75380324 8.12779096 2.35271983 4.48540111 0 0 Z " fill="#711C25" transform="translate(220,288)"/>
<path d="M0 0 C5.54473155 2.97557583 10.33995311 6.45307345 15.25 10.375 C22.72900766 16.28391187 30.33593502 21.98430778 38.06933594 27.55615234 C38.83149414 28.10996582 39.59365234 28.6637793 40.37890625 29.234375 C41.0551001 29.72131836 41.73129395 30.20826172 42.42797852 30.70996094 C44 32 44 32 45 34 C39.7530145 34.02488901 34.50606408 34.04294884 29.2590332 34.05493164 C27.47745158 34.05993201 25.69587401 34.06673446 23.91430664 34.07543945 C21.3399963 34.08769464 18.76574064 34.09327142 16.19140625 34.09765625 C15.40665421 34.10281754 14.62190216 34.10797882 13.81336975 34.11329651 C0.22929268 34.11464634 0.22929268 34.11464634 -4 32 C-4.51300317 21.56893556 -3.31955395 9.95866185 0 0 Z " fill="#721C24" transform="translate(42,130)"/>
<path d="M0 0 C6.44004172 5.28102115 12.31548273 11.09547572 18.20922852 16.96899414 C19.95083711 18.70076174 21.70282764 20.4215873 23.45507812 22.14257812 C24.56315358 23.24413461 25.67059903 24.34632527 26.77734375 25.44921875 C27.30222885 25.96175705 27.82711395 26.47429535 28.36790466 27.00236511 C32 30.65726796 32 30.65726796 32 34 C20.08784126 38.60055786 9.72202587 39.622273 -3 39 C-3.2417432 30.33641614 -2.48986692 21.91364093 -1.5 13.3125 C-1.35691406 12.02666016 -1.21382812 10.74082031 -1.06640625 9.41601562 C-0.71629677 6.27670062 -0.36072434 3.13810991 0 0 Z " fill="#E3E173" transform="translate(215,68)"/>
<path d="M0 0 C0.1341533 1.67056981 0.26825683 3.34114361 0.40234375 5.01171875 C0.48766357 6.07455078 0.5729834 7.13738281 0.66088867 8.23242188 C0.84539567 10.53704941 1.02915139 12.84173722 1.2121582 15.14648438 C1.78214021 22.33460403 1.78214021 22.33460403 2.390625 29.51953125 C2.48859375 30.66808594 2.5865625 31.81664063 2.6875 33 C2.77386719 33.969375 2.86023438 34.93875 2.94921875 35.9375 C2.96597656 36.618125 2.98273438 37.29875 3 38 C0.68482329 40.31517671 -5.20337632 39.36662635 -8.41552734 39.40039062 C-17.11789235 39.28401682 -24.85806135 36.88575041 -33 34 C-31.68809387 31.10221359 -30.2835028 29.03448517 -28.03491211 26.79199219 C-27.4376683 26.19167175 -26.8404245 25.59135132 -26.2250824 24.97283936 C-25.58232864 24.33727112 -24.93957489 23.70170288 -24.27734375 23.046875 C-23.61666397 22.38665344 -22.95598419 21.72643188 -22.27528381 21.04620361 C-20.88144496 19.65538059 -19.4851817 18.26698355 -18.08666992 16.88085938 C-15.93673425 14.74924078 -13.79496884 12.60966748 -11.65429688 10.46875 C-10.2999514 9.11931755 -8.94514948 7.77034301 -7.58984375 6.421875 C-6.94506577 5.77820984 -6.30028778 5.13454468 -5.63597107 4.47137451 C-1.11605796 0 -1.11605796 0 0 0 Z " fill="#E5E375" transform="translate(121,68)"/>
<path d="M0 0 C0.02891546 4.45831982 0.04676981 8.91661569 0.0625 13.375 C0.07087891 14.64601563 0.07925781 15.91703125 0.08789062 17.2265625 C0.09111328 18.43828125 0.09433594 19.65 0.09765625 20.8984375 C0.10289307 22.01911621 0.10812988 23.13979492 0.11352539 24.29443359 C0 27 0 27 -1 29 C-5.73208844 28.36467331 -10.03441582 27.0695971 -14.5 25.4375 C-15.21470459 25.18081543 -15.92940918 24.92413086 -16.66577148 24.65966797 C-19.11262129 23.77883322 -21.55636569 22.88971479 -24 22 C-26.00125162 21.27460034 -28.00255581 20.54934572 -30.00390625 19.82421875 C-35.33828309 17.88922484 -40.66998578 15.94697603 -46 14 C-46 13.34 -46 12.68 -46 12 C-45.15928955 11.77860352 -44.3185791 11.55720703 -43.45239258 11.32910156 C-40.2666052 10.48876898 -37.08147455 9.6460248 -33.89672852 8.80175781 C-32.53076464 8.4401462 -31.16456168 8.07943619 -29.7980957 7.71972656 C-21.65808669 5.57620083 -13.59327791 3.31757804 -5.58081055 0.72558594 C-3 0 -3 0 0 0 Z " fill="#1D221C" transform="translate(509,340)"/>
<path d="M0 0 C0.05789006 3.45826342 0.09355821 6.91640293 0.125 10.375 C0.14175781 11.35984375 0.15851563 12.3446875 0.17578125 13.359375 C0.18544922 14.77089844 0.18544922 14.77089844 0.1953125 16.2109375 C0.21102295 17.51490479 0.21102295 17.51490479 0.22705078 18.84521484 C0 21 0 21 -2 23 C-7.89071562 21.18788227 -13.78057951 19.3730312 -19.66967773 17.55566406 C-21.67237662 16.93805318 -23.67530447 16.32118421 -25.6784668 15.70507812 C-28.56099276 14.81836709 -31.44267944 13.92897386 -34.32421875 13.0390625 C-35.21711105 12.76502594 -36.11000336 12.49098938 -37.029953 12.20864868 C-41.09127992 10.95173641 -45.0855206 9.67309579 -49 8 C-49 7.67 -49 7.34 -49 7 C-42.66521938 5.99881539 -36.32970311 5.00239178 -29.99365234 4.00927734 C-27.83820633 3.67085642 -25.68293121 3.33134524 -23.52783203 2.99072266 C-20.43045605 2.50136293 -17.33248706 2.01592494 -14.234375 1.53125 C-13.27070007 1.37813354 -12.30702515 1.22501709 -11.31414795 1.06726074 C-10.41351624 0.92711548 -9.51288452 0.78697021 -8.58496094 0.64257812 C-7.79442322 0.51822388 -7.0038855 0.39386963 -6.18939209 0.26574707 C-4 0 -4 0 0 0 Z " fill="#1E231C" transform="translate(508,385)"/>
<path d="M0 0 C16.69999395 2.83614532 33.37510877 5.74769887 50 9 C49.47588939 13.46321565 48.694099 17.30099267 46.9375 21.4375 C46.57527344 22.30246094 46.21304688 23.16742188 45.83984375 24.05859375 C45.56269531 24.69925781 45.28554688 25.33992188 45 26 C41.19583844 25.31317728 38.274749 23.59801188 34.94140625 21.68359375 C34.35640854 21.34884537 33.77141083 21.01409698 33.16868591 20.66920471 C31.92763298 19.95777893 30.68791991 19.2440114 29.44946289 18.52807617 C27.60272413 17.46074766 25.75201944 16.40061421 23.90039062 15.34179688 C17.7514512 11.81506475 11.64390013 8.22257417 5.58984375 4.53515625 C4.51468506 3.88039307 3.43952637 3.22562988 2.33178711 2.55102539 C1.56229736 2.03918701 0.79280762 1.52734863 0 1 C0 0.67 0 0.34 0 0 Z " fill="#1E231C" transform="translate(454,419)"/>
<path d="M0 0 C6.65461541 2.52875386 12.12429031 5.75580105 16 12 C16 12.66 16 13.32 16 14 C14.71416016 14.14695312 14.71416016 14.14695312 13.40234375 14.296875 C3.96769362 15.37617134 3.96769362 15.37617134 -4 20 C-6.0034909 23.55094423 -7.57249157 27.18453968 -9 31 C-11.42131148 30.03147541 -12.75573155 29.36836625 -14.21484375 27.16796875 C-15.70215048 23.0612263 -15.81111797 19.28194837 -15 15 C-11.5658822 8.47621998 -6.05605131 4.01115087 0 0 Z " fill="#1E231C" transform="translate(390,383)"/>
<path d="M0 0 C4.48738548 1.03555049 6.4384054 3.29010437 9 7 C10.60901836 9.73533121 11 10.75885515 11 14 C9.91332031 14.25523437 9.91332031 14.25523437 8.8046875 14.515625 C0.80452704 16.49854285 0.80452704 16.49854285 -6 21 C-7.39619529 23.93798554 -7.39619529 23.93798554 -8 27 C-8.20625 27.78375 -8.4125 28.5675 -8.625 29.375 C-8.74875 29.91125 -8.8725 30.4475 -9 31 C-14.875 26.25 -14.875 26.25 -16 24 C-16.09499503 22.50243129 -16.12987198 21.00057068 -16.125 19.5 C-16.12757813 18.7059375 -16.13015625 17.911875 -16.1328125 17.09375 C-16 15 -16 15 -15 13 C-14.34 13 -13.68 13 -13 13 C-12.75121094 12.41476562 -12.50242187 11.82953125 -12.24609375 11.2265625 C-10.82558144 8.68834301 -9.2779547 7.24802874 -7.0625 5.375 C-6.02802734 4.48941406 -6.02802734 4.48941406 -4.97265625 3.5859375 C-3 2 -3 2 0 0 Z " fill="#1E231C" transform="translate(357,385)"/>
<path d="M0 0 C3.05405518 1.89562045 4.20980984 3.91961969 5.8125 7.125 C6.12874101 10.15893716 6.0554736 13.08782996 5.8125 16.125 C4.81669922 16.05539062 4.81669922 16.05539062 3.80078125 15.984375 C-0.22748582 15.81971591 -3.3073198 15.71424924 -7 17.4375 C-10.3441091 21.54597689 -12.20865724 26.24104766 -14.1875 31.125 C-17.99476834 27.56336187 -19.08909494 25.62567721 -19.4375 20.3125 C-19.34043963 15.48595242 -18.09867669 12.10037642 -14.67578125 8.5625 C-5.49961861 0.31426392 -5.49961861 0.31426392 0 0 Z " fill="#1E231C" transform="translate(324.1875,382.875)"/>
<path d="M0 0 C0 4.95 0 9.9 0 15 C-3.25520833 15.91145833 -6.51041667 16.82291667 -9.765625 17.734375 C-13.16155322 19.06321648 -14.84165835 20.07989071 -17 23 C-17.47922359 25.35524661 -17.47922359 25.35524661 -17.25 27.75 C-17.19585937 28.94882812 -17.19585937 28.94882812 -17.140625 30.171875 C-17.09421875 30.77515625 -17.0478125 31.3784375 -17 32 C-19.375 31.125 -19.375 31.125 -22 29 C-23.9013544 24.30550551 -24.27436899 20.24521309 -23.1875 15.3125 C-18.88875063 8.80296525 -8.30668871 0 0 0 Z " fill="#1F231C" transform="translate(240,382)"/>
<path d="M0 0 C2.48546948 1.16190646 3.02007532 2.24736596 4.171875 4.7109375 C4.50703125 5.39800781 4.8421875 6.08507812 5.1875 6.79296875 C5.921875 8.8984375 5.921875 8.8984375 5.921875 12.8984375 C1.631875 13.8884375 -2.658125 14.8784375 -7.078125 15.8984375 C-7.738125 18.5384375 -8.398125 21.1784375 -9.078125 23.8984375 C-9.738125 23.8984375 -10.398125 23.8984375 -11.078125 23.8984375 C-13.56155104 20.17329844 -13.73971982 16.21974035 -13.078125 11.8984375 C-10.85288712 7.44796173 -5.65354788 -0.27630121 0 0 Z " fill="#1E231C" transform="translate(258.078125,384.1015625)"/>
<path d="M0 0 C6.6 0 13.2 0 20 0 C19.07041397 4.64793016 17.58784798 8.17787052 15.4375 12.3125 C14.9434668 13.28026367 14.9434668 13.28026367 14.43945312 14.26757812 C13.63175745 15.84785228 12.81662387 17.42432105 12 19 C8.55751941 15.85214612 6.14078806 12.34193723 3.75 8.375 C3.38648438 7.78976563 3.02296875 7.20453125 2.6484375 6.6015625 C0 2.26051457 0 2.26051457 0 0 Z " fill="#1F241E" transform="translate(332,228)"/>
<path d="M0 0 C2.20043475 1.4669565 4.40042913 2.93448966 6.59765625 4.40625 C8.03321394 5.35861998 9.47619692 6.30014836 10.93359375 7.21875 C12.32109527 8.09716823 13.6660123 9.04226524 15 10 C15 10.66 15 11.32 15 12 C8.4 14.97 1.8 17.94 -5 21 C-2.75 9.75 -2.75 9.75 -1.375 4.875 C-1.11460937 3.94429688 -0.85421875 3.01359375 -0.5859375 2.0546875 C-0.39257812 1.37664062 -0.19921875 0.69859375 0 0 Z " fill="#1F241D" transform="translate(288,351)"/>
<path d="M0 0 C-0.68416434 4.17576168 -2.01365009 7.88080407 -3.5625 11.8125 C-4.01753906 12.97394531 -4.47257812 14.13539063 -4.94140625 15.33203125 C-5.29074219 16.21246094 -5.64007813 17.09289062 -6 18 C-10.04376689 16.6520777 -11.66425623 13.915447 -14.125 10.625 C-14.58003906 10.03460938 -15.03507812 9.44421875 -15.50390625 8.8359375 C-17.4705742 6.24483788 -18.964438 4.10668599 -20 1 C-17.60429729 0.8312461 -15.20846637 0.66493164 -12.8125 0.5 C-12.13896484 0.45230469 -11.46542969 0.40460938 -10.77148438 0.35546875 C-7.17363248 0.10976179 -3.60627694 -0.05601984 0 0 Z " fill="#1F241D" transform="translate(352,287)"/>
<path d="M0 0 C4.94515667 2.62711448 8.87775489 6.26645294 13 10 C9.6883681 13.71304183 6.0522696 15.88899839 1.75 18.25 C1.1003125 18.61351562 0.450625 18.97703125 -0.21875 19.3515625 C-1.80918426 20.24033459 -3.40414448 21.12099936 -5 22 C-3.77048326 14.52164523 -2.11170763 7.2783523 0 0 Z " fill="#1E231C" transform="translate(326,310)"/>
<path d="M0 0 C6.87480916 0.5221374 13.30710662 1.35420654 20 3 C16.12442226 7.79833434 12.07516114 12.42907477 7 16 C6.34 16 5.68 16 5 16 C3.35 10.72 1.7 5.44 0 0 Z " fill="#1E231C" transform="translate(396,344)"/>
<path d="M0 0 C4.11018964 3.35973367 7.94640442 6.60282237 11 11 C11 11.66 11 12.32 11 13 C5.72 14.65 0.44 16.3 -5 18 C-3.85440314 11.65515584 -2.43143813 5.96807541 0 0 Z " fill="#1E231D" transform="translate(309,333)"/>
<path d="M0 0 C6.20583158 1.97010526 12.09851546 4.25155448 18 7 C15.1398269 9.8601731 11.60815162 10.77745477 7.875 12.125 C7.12089844 12.40214844 6.36679687 12.67929687 5.58984375 12.96484375 C3.72836879 13.64817 1.86441398 14.32473389 0 15 C0 10.05 0 5.1 0 0 Z " fill="#E3E174" transform="translate(394,38)"/>
<path d="M0 0 C4.95 0 9.9 0 15 0 C13.83672541 5.40091774 12.57704144 10.70564659 11 16 C10.34 16 9.68 16 9 16 C7.3633245 13.73701547 5.85434489 11.48732888 4.375 9.125 C3.95476562 8.47402344 3.53453125 7.82304687 3.1015625 7.15234375 C0 2.26838981 0 2.26838981 0 0 Z " fill="#1E231C" transform="translate(335,259)"/>
<path d="M0 0 C2.62728858 0.61642534 5.25153582 1.24267787 7.875 1.875 C8.62136719 2.04902344 9.36773437 2.22304688 10.13671875 2.40234375 C15.7734375 3.7734375 15.7734375 3.7734375 18 6 C15.3773768 7.33819498 12.75213401 8.6707151 10.125 10 C9.37863281 10.3815625 8.63226563 10.763125 7.86328125 11.15625 C7.14785156 11.5171875 6.43242187 11.878125 5.6953125 12.25 C5.03547363 12.58515625 4.37563477 12.9203125 3.69580078 13.265625 C2 14 2 14 0 14 C0 9.38 0 4.76 0 0 Z " fill="#E7E575" transform="translate(430,40)"/>
<path d="M0 0 C3.83804889 0.76760978 6.76220144 1.59504326 10.3125 3.0625 C11.19550781 3.42472656 12.07851563 3.78695312 12.98828125 4.16015625 C13.65214844 4.43730469 14.31601562 4.71445312 15 5 C11.07168569 9.17383395 6.83520017 12.89394426 2 16 C1.34 16 0.68 16 0 16 C0 10.72 0 5.44 0 0 Z " fill="#DDDB71" transform="translate(358,38)"/>
<path d="M0 0 C5.11365014 1.0681847 10.07227969 2.23107476 15 4 C13.49650623 7.66786393 11.36271208 9.68910393 8.375 12.25 C7.55773437 12.95640625 6.74046875 13.6628125 5.8984375 14.390625 C4.95871094 15.18726563 4.95871094 15.18726563 4 16 C1.33068994 10.87447606 -0.35375916 5.83702609 0 0 Z " fill="#1E231D" transform="translate(391,365)"/>
<path d="M0 0 C9.10714286 5.89285714 9.10714286 5.89285714 13 10 C11.02237345 11.16927543 9.04285742 12.33535573 7.0625 13.5 C5.96035156 14.1496875 4.85820312 14.799375 3.72265625 15.46875 C1 17 1 17 0 17 C0 11.39 0 5.78 0 0 Z " fill="#E1DF72" transform="translate(313,49)"/>
<path d="M0 0 C0.66 0 1.32 0 2 0 C4.00691802 4.93367347 5 7.55520605 5 13 C0.38 12.34 -4.24 11.68 -9 11 C-8.071875 9.9275 -7.14375 8.855 -6.1875 7.75 C-4.44361555 5.72709404 -2.80913318 3.73414979 -1.25 1.5625 C-0.8375 1.046875 -0.425 0.53125 0 0 Z " fill="#1F241D" transform="translate(278,386)"/>
<path d="M0 0 C3.63 1.65 7.26 3.3 11 5 C7.84778899 9.41309542 4.44536093 12.00793014 0 15 C0 10.05 0 5.1 0 0 Z " fill="#E3E173" transform="translate(313,85)"/>
<path d="M0 0 C0.99 0 1.98 0 3 0 C3.67154933 1.28913487 4.33708859 2.58140204 5 3.875 C5.37125 4.59429687 5.7425 5.31359375 6.125 6.0546875 C7 8 7 8 7 10 C4.69 10.33 2.38 10.66 0 11 C-1.5625 9.3125 -1.5625 9.3125 -3 7 C-2.75925978 3.62963689 -2.41201979 2.41201979 0 0 Z " fill="#701E1D" transform="translate(146,357)"/>
<path d="M0 0 C4.05281712 1.22527029 7.44360764 2.69880494 11 5 C9.33784732 6.33895632 7.67036393 7.67130142 6 9 C5.278125 9.5775 4.55625 10.155 3.8125 10.75 C2 12 2 12 0 12 C0 8.04 0 4.08 0 0 Z " fill="#E3E173" transform="translate(313,125)"/>
<path d="M0 0 C2.28459758 2.28459758 2.97129748 4.12537344 4.125 7.125 C4.47820312 8.03507812 4.83140625 8.94515625 5.1953125 9.8828125 C5.46085938 10.58148438 5.72640625 11.28015625 6 12 C4.71283353 13.00578589 3.42011342 14.00446798 2.125 15 C1.04605469 15.8353125 1.04605469 15.8353125 -0.0546875 16.6875 C-2 18 -2 18 -4 18 C-2.66666667 12 -1.33333333 6 0 0 Z " fill="#6C1D1D" transform="translate(140,340)"/>
<path d="M0 0 C1.65 0.99 3.3 1.98 5 3 C5.5625 6 5.5625 6 5 9 C3.375 10.9375 3.375 10.9375 1 12 C-2.25 11.6875 -2.25 11.6875 -5 11 C-3.35 7.37 -1.7 3.74 0 0 Z " fill="#711D1C" transform="translate(187,356)"/>
<path d="M0 0 C1.87787986 2.81681979 2.65143573 4.79458015 3.5625 8 C4.33440823 10.68768048 5.11548701 13.34646102 6 16 C2.4213696 14.34832443 -0.74820188 12.21713508 -4 10 C-3.52449439 8.51965236 -3.04448784 7.04074979 -2.5625 5.5625 C-2.29566406 4.73878906 -2.02882812 3.91507812 -1.75390625 3.06640625 C-1 1 -1 1 0 0 Z " fill="#701E1D" transform="translate(194,342)"/>
<path d="" fill="#394931" transform="translate(0,0)"/>
<path d="" fill="#394931" transform="translate(0,0)"/>
<path d="" fill="#394931" transform="translate(0,0)"/>
</svg>
