<svg xmlns="http://www.w3.org/2000/svg" width="456" height="487"><path d="m19.96 25.914 2.416.012c34.699.225 69.191 1.977 103.749 5.074l2.847.254c26.65 2.392 26.65 2.392 36.028 4.746 2.06.149 4.124.271 6.188.375 4.96.35 9.14 1.135 13.78 2.867 5.196 1.938 10.515 2.853 15.97 3.696 4.504.717 8.576 1.806 12.859 3.34 4.886 1.602 10.003 2.368 15.07 3.183l2.883.477 2.61.402c2.64.66 2.64.66 5.288 2.05 4.586 2.203 9.297 3.232 14.227 4.422 10.922 2.739 21.321 6.082 31.582 10.766 3.749 1.505 7.257 2.281 11.23 2.984C304.541 71.96 304.541 71.96 308 74v2l2.105.34c13.557 3.092 28.52 11.304 39.813 19.293 2.34 1.537 4.743 2.724 7.27 3.93 4.203 2.033 7.463 4.176 10.812 7.437v2l1.605.703c25.906 14.03 47.78 41.548 56.118 69.563 8.008 28.823 7.609 58.832 7.644 88.502.004 2.697.01 5.394.017 8.09.025 9.459.038 18.917.042 28.375.003 8.741.033 17.481.075 26.222.035 7.58.05 15.16.05 22.739.002 4.494.01 8.989.039 13.483.137 22.714-.067 44.55-10.59 65.323l-1.484 2.965c-9.779 18.09-25.75 30.664-45.425 36.577-6.25 1.68-12.133 1.885-18.575 1.857l-3.667.02c-3.327.015-6.654.017-9.981.014-3.6 0-7.2.016-10.8.03-6.226.023-12.452.035-18.679.04-9.002.006-18.004.029-27.006.056-14.608.043-29.215.073-43.823.095-14.185.02-28.37.048-42.554.084l-2.652.006-13.174.034c-36.394.093-72.787.164-109.18.222l-.875 2.355c-1.264 2.972-2.67 4.573-5.125 6.645h-2a651.927 651.927 0 0 1-2-3.875l-1.125-2.18C64 475 64 475 64 473l-1.89-.364C32.04 466.746 32.04 466.746 20 457v3l-9 1 3-13-2-1c-5.448-10.664-4.543-22.848-4.412-34.464.037-3.33.041-6.66.04-9.991.108-32.422.108-32.422 5.372-42.545 2.102-1.195 2.102-1.195 4-2 1.48 4.753 2.89 9.504 4.102 14.332C25.69 390.576 31.068 408.807 44 423v2l1.727.813c3.149 1.644 5.961 3.702 8.859 5.75 4.868 2.898 9.605 3.717 15.206 4.029l1.962.112c7.854.424 15.716.633 23.578.831l4.938.13c3.44.09 6.88.179 10.32.265 3.447.087 6.896.177 10.344.27 34.241.93 68.386.993 102.627.053 2.425-.067 4.849-.132 7.273-.196a3902.796 3902.796 0 0 0 69.554-2.463l6.207-.275c7.572-.338 15.14-.717 22.709-1.132 3.843-.194 7.686-.338 11.532-.48 2.523-.12 5.047-.24 7.57-.363l3.489-.094c6.879-.382 10.7-1.596 15.604-6.531 12.134-13.893 14.653-30.38 14.669-48.156l.01-3.975c.006-2.78.008-5.561.007-8.342 0-2.802.007-5.604.02-8.406.066-13.59.08-27.16-1.03-40.715l-.21-2.697A113.623 113.623 0 0 0 380 306l-.426-2.743-.585-2.702-.495-2.43c-2.588-3.681-6.204-4.317-10.494-5.125-4.908-.414-9.802-.421-14.724-.404l-4.419-.02c-3.977-.019-7.954-.018-11.932-.012-3.33.003-6.66-.003-9.99-.009-7.859-.014-15.719-.012-23.579-.001-8.088.011-16.176-.003-24.265-.03-6.964-.022-13.928-.028-20.892-.022-4.15.003-8.301 0-12.452-.017-3.905-.015-7.81-.011-11.714.008-1.426.003-2.852 0-4.278-.01-7.534-.051-13.782.276-20.65 3.544-6.475 2.993-13.895 3.392-20.914 3.973l-2.776.245c-2.95.258-5.901.507-8.852.755l-6.125.524c-4.01.343-8.018.68-12.027 1.017-4.474.376-8.945.78-13.415 1.197-13.133 1.186-25.845 1.295-38.996.262l-.332 2.527c-.961 6.821-2.261 13.018-4.668 19.473l-4-1c-2.158-8.43-3.509-16.857-4.438-25.5l-.354-2.858c-.734-7.544-.734-7.544 1.632-11.298L96 283h2l-1-2c-.238-3.098-.185-6.206-.188-9.313l-.037-2.591c-.019-8.36-.019-8.36 2.225-12.096 2.731-.91 4.299-1.122 7.104-1.114h2.487l2.67.016 2.746.005c2.893.005 5.787.018 8.68.03 1.962.006 3.924.01 5.885.014 4.81.011 9.619.028 14.428.049v-7l-3.33.124c-4.118.15-8.237.283-12.356.413-1.775.058-3.55.12-5.324.187-18.4.683-18.4.683-26.99-1.724-1.511-.34-3.023-.675-4.535-1.008C73.988 243.027 60.095 236.868 47 226l-1.973-1.516c-24.868-19.713-36.76-55.49-40.663-85.74-1.202-12.358-.822-24.857-.697-37.258.028-3.176.036-6.352.044-9.528.01-3.837.03-7.675.05-11.513l.011-2.158C3.817 70.47 4.091 62.77 5 55c.166-2.112.322-4.226.465-6.34l.236-3.28c.16-2.238.313-4.478.461-6.718l.24-3.252.203-2.933C7 30 7 30 9 27c3.701-1.234 7.109-1.121 10.96-1.086Zm183.032 83.246c-5.752 8.2-7.724 14.766-7.452 24.76l.032 3.477c.04 3.763.117 7.524.194 11.287.034 2.624.066 5.248.096 7.872.073 6.184.171 12.367.28 18.55.158 9.087.28 18.175.4 27.263.087 6.52.179 13.038.29 19.557l.11 7.06.063 3.263.044 2.978.044 2.589C197 240 197 240 196 243c-4.887 3.291-9.257 4.79-15 6v7c2.397.109 4.79.188 7.188.25l2.04.102c3.662.071 5.594-.237 8.698-2.243 3.074-3.126 3.197-4.79 3.174-9.059l-.009-3.173-.025-3.496-.014-3.671c-.01-2.64-.023-5.28-.038-7.92-.023-4.183-.036-8.365-.048-12.548-.033-11.897-.074-23.793-.137-35.689-.035-6.567-.059-13.134-.07-19.701-.007-3.472-.02-6.944-.046-10.415-.029-3.885-.034-7.769-.038-11.654l-.037-3.44c.02-8.146.54-17.128 5.674-23.843 5.866-5.456 11.712-6.522 19.438-7.063l3.547-.253L233 102c-10.286-6.857-22.732-.946-30.008 7.16ZM235 102l2.633.113c12.185.695 12.185.695 16.367 3.887 2.82 4.598 3.531 8.648 3.688 13.938l.094 2.466c.103 3.199.164 6.396.218 9.596l.04 2.257c.09 5.207.152 10.414.19 15.622.013 1.788.031 3.577.054 5.366.03 2.545.04 5.089.044 7.634l.037 2.346c-.011 2.887-.052 5.201-1.452 7.77-2.969 1.56-5.516 1.305-8.847 1.22l-2.043-.052c-1.425-.04-2.85-.088-4.274-.144a352.73 352.73 0 0 0-6.524-.165c-1.387-.044-2.773-.09-4.159-.14l-3.814-.12C224 173 224 173 221.59 171.464c-2.226-3.452-2.144-6.614-2.085-10.589l-.005-2.375c.002-1.655.014-3.309.034-4.963.03-2.529.021-5.055.008-7.584.006-1.61.015-3.219.025-4.828l-.008-2.286c.056-3.151.264-5.496 1.725-8.316 2.929-2.598 6.508-2.056 10.217-1.96l2.34-.022c5.59.063 5.59.063 7.884 1.656 1.737 2.454 1.634 4.102 1.604 7.092l-.016 3.102-.062 3.234-.016 3.258c-.08 7.963-.08 7.963-1.234 9.117-3.5.125-3.5.125-7 0-1.583-1.583-1.347-3.38-1.563-5.563l-.253-2.503L233 146h-2c-1.734 3.468-1.458 7.208-1 11 1.25 2.75 1.25 2.75 4 4 4.737.658 7.964.69 12-2 1.803-5.408 1.27-11.215 1.313-16.875l.087-3.879.026-3.738.044-3.418c-.582-3.824-1.66-5.458-4.47-8.09-2.309-.726-2.309-.726-4.809-.594l-2.763.008-2.865.086-2.854-.008c-6.906.063-6.906.063-12.709 3.508-2.41 4.508-2.322 8.825-2.336 13.809l-.02 2.558c-.01 1.781-.015 3.562-.015 5.343a659.65 659.65 0 0 1-.078 8.144c-.006 1.735-.01 3.47-.012 5.205l-.043 2.443c.042 5.275.928 8.366 4.504 12.498 3.576 2.812 7.918 2.254 12.266 2.195l2.404-.008c2.527-.011 5.053-.037 7.58-.062 1.716-.01 3.432-.02 5.148-.027 4.201-.022 8.401-.057 12.602-.098-.038 8.268-.098 16.535-.184 24.803-.04 3.84-.071 7.68-.087 11.52-.015 3.716-.05 7.431-.097 11.147a429.923 429.923 0 0 0-.024 4.224c-.022 17.902-6.236 31.68-17.608 45.306l2 1a80.028 80.028 0 0 0 5.375-2.25c6.087-2.646 12.152-4.338 18.625-5.75l-1.473-3.492c-1.574-4.218-1.968-8.158-1.96-12.639l-.03-2.335c-.03-2.53-.04-5.061-.049-7.593a3140.047 3140.047 0 0 1-.158-19.51c-.029-4.706-.076-9.413-.121-14.12a4377.176 4377.176 0 0 1-.196-48.52 543.533 543.533 0 0 0-.45-22.603l-.12-3.46c-.169-4.41-.349-8.452-1.443-12.728-.037-1.93-.071-3.86-.084-5.79-.07-6.382-.07-6.382-2.01-12.37-4.74-4.148-11.653-3.311-17.578-3.211-3.46.128-3.46.128-6.328 2.371Zm-80 147v7h14v-7h-14Zm192.416 13.372c-2.648.065-5.296.125-7.943.185A874.287 874.287 0 0 0 306 264v3c15.94.165 31.824-.356 47.75-1l7.387-.29c5.954-.232 11.909-.47 17.863-.71v-3c-10.534-.069-21.054.112-31.584.372ZM274 264l-1 3-2 1h24l-1-4h-20ZM16 452l1 2Z" fill="#E7DD02"/><path d="M320 82c7.456.91 7.456.91 10.867 2.637l1.98.99 2.028 1.06 2.133 1.09a109.35 109.35 0 0 1 12.91 7.856c2.34 1.537 4.743 2.724 7.27 3.93 4.203 2.033 7.463 4.176 10.812 7.437v2l1.605.703c25.906 14.03 47.78 41.548 56.118 69.563 8.008 28.823 7.609 58.832 7.644 88.502.004 2.697.01 5.394.017 8.09.025 9.459.038 18.917.042 28.375.003 8.741.033 17.481.075 26.222.035 7.58.05 15.16.05 22.739.002 4.494.01 8.989.039 13.483.137 22.714-.067 44.55-10.59 65.323l-1.484 2.965c-9.779 18.09-25.75 30.664-45.425 36.577-6.25 1.68-12.133 1.885-18.575 1.857l-3.667.02c-3.327.015-6.654.017-9.981.014-3.6 0-7.2.016-10.8.03-6.226.023-12.452.035-18.679.04-9.002.006-18.004.029-27.006.056-14.608.043-29.215.073-43.823.095-14.185.02-28.37.048-42.554.084l-2.652.006-13.174.034c-36.394.093-72.787.164-109.18.222l-.875 2.355c-1.264 2.972-2.67 4.573-5.125 6.645h-2a651.927 651.927 0 0 1-2-3.875l-1.125-2.18C64 475 64 475 64 473l-1.89-.364C32.04 466.746 32.04 466.746 20 457v3l-9 1 3-13-2-1c-5.448-10.664-4.543-22.848-4.412-34.464.037-3.33.041-6.66.04-9.991.108-32.422.108-32.422 5.372-42.545 2.102-1.195 2.102-1.195 4-2 1.48 4.753 2.89 9.504 4.102 14.332C25.69 390.576 31.068 408.807 44 423v2l1.727.813c3.149 1.644 5.961 3.702 8.859 5.75 4.868 2.898 9.605 3.717 15.206 4.029l1.962.112c7.854.424 15.716.633 23.578.831l4.938.13c3.44.09 6.88.179 10.32.265 3.447.087 6.896.177 10.344.27 34.241.93 68.386.993 102.627.053 2.425-.067 4.849-.132 7.273-.196a3902.796 3902.796 0 0 0 69.554-2.463l6.207-.275c7.572-.338 15.14-.717 22.709-1.132 3.843-.194 7.686-.338 11.532-.48 2.523-.12 5.047-.24 7.57-.363l3.489-.094c6.879-.382 10.7-1.596 15.604-6.531 12.134-13.893 14.653-30.38 14.669-48.156l.01-3.975c.006-2.78.008-5.561.007-8.342 0-2.802.007-5.604.02-8.406.868-27.67.868-27.67-3.265-54.798-1.309-4.887-1.171-9.688-1.1-14.718l.016-3.048c.017-3.196.048-6.392.082-9.589.027-3.185.052-6.37.07-9.556.013-1.975.03-3.95.054-5.924.065-9.13-.46-18.004-2.875-26.832l-.957-3.602c-1.44-4.417-3.267-8.568-5.23-12.773l-.044 2.535c-.062 3.139-.136 6.277-.218 9.416-.05 2.012-.084 4.025-.119 6.037-.191 6.923-.39 12.804-3.619 19.012-2.688 1-2.688 1-5 1-3.981-8.136-4.141-15.95-3.895-24.875.024-2.515.038-5.03.051-7.545.021-1.72.062-3.44.122-5.16.562-10.455.562-10.455-3.819-19.506A57.866 57.866 0 0 0 343 191l-3.394-1.719L337 188l-.06 2.322c-.398 14.863-.89 29.723-1.7 44.57-.076 1.439-.148 2.878-.216 4.318-.096 2.026-.212 4.05-.329 6.075l-.187 3.496c-.595 3.769-1.738 7.45-4.508 10.219-2.438.25-2.438.25-5 0-2.28-3.42-2.24-4.6-2.211-8.614l.01-3.49.04-3.779c.009-1.962.017-3.924.024-5.887.014-2.754.036-5.508.058-8.262.038-4.793.066-9.587.088-14.38.012-2.55.03-5.1.053-7.65.03-5.54-.096-10.895-.807-16.386-.638-6.385-.631-12.843-.79-19.255l-.13-4.932c-.091-3.45-.179-6.9-.265-10.349a6469.1 6469.1 0 0 0-.34-12.985c-.545-20.349-.88-40.674-.73-61.031ZM16 452l1 2Z" fill="#A36D02"/><path d="M272 63c3.797.617 6.891 1.765 10.375 3.375 6.064 2.61 11.907 3.851 18.375 4.95 2.798.581 4.809 1.24 7.25 2.675v2l1.938.25c4.267 1.045 8.093 2.89 12.062 4.75l-2 1c.37 13.665.743 27.33 1.122 40.996.175 6.345.35 12.691.52 19.037.166 6.127.335 12.255.507 18.382.064 2.334.128 4.668.19 7.003.087 3.276.179 6.553.272 9.83l.074 2.905c.147 4.985.502 9.874 1.1 14.824.3 2.816.327 5.599.313 8.429l-.01 3.558-.026 3.75-.017 5.922c-.01 3.434-.028 6.868-.045 10.302-.02 4.127-.04 8.254-.051 12.382-.008 2.563-.02 5.126-.037 7.689l-.01 3.49-.016 3.081c-.05 2.431-.05 2.431 1.114 4.42h5c2.492-4.404 3.43-7.781 3.695-12.82l.114-1.966c.118-2.113.217-4.226.316-6.339.078-1.468.158-2.935.238-4.403.584-10.968 1-21.946 1.296-32.926l.095-3.288.072-2.87C336 191 336 191 337 188c7.262 2.124 14.534 5.657 19 12 2.12 5.987 1.46 12.57 1.188 18.813a899.383 899.383 0 0 0-.114 7.507c-.02 1.62-.048 3.24-.082 4.86-.113 7.083-.212 15.38 3.008 21.82l5-1c1.588-4.945 2.284-9.228 2.414-14.465l.059-2.055c.059-2.139.106-4.278.152-6.417.038-1.462.077-2.924.117-4.385.096-3.56.18-7.119.258-10.678 10.424 13.365 11.23 31.768 11 48-10.526.891-21.027 1.267-31.584 1.503-2.648.06-5.296.124-7.943.19-11.16.268-22.31.36-33.473.307v3l1.654-.076c50.553-2.31 50.553-2.31 71.346-1.924.05 4.093.086 8.187.11 12.28.01 1.393.024 2.786.04 4.179.025 2 .035 4.001.045 6.002l.032 3.65C379 294 379 294 377 296l-3.58-1.475c-6.613-2.186-13.251-1.953-20.144-1.93a2012.737 2012.737 0 0 0-16.35-.032c-3.33.004-6.66-.002-9.99-.008-7.86-.014-15.72-.012-23.58-.001-8.088.011-16.176-.003-24.265-.03-6.964-.022-13.928-.028-20.892-.022-4.15.003-8.301 0-12.452-.017-3.905-.015-7.81-.011-11.714.008-1.426.003-2.852 0-4.278-.01-7.534-.051-13.782.276-20.65 3.544-6.475 2.993-13.895 3.392-20.914 3.973l-2.776.245c-2.95.258-5.901.507-8.852.755l-6.125.524c-4.01.343-8.018.68-12.027 1.017-4.474.376-8.945.78-13.415 1.197-13.133 1.186-25.845 1.295-38.996.262l-.332 2.527c-.961 6.821-2.261 13.018-4.668 19.473l-4-1c-2.158-8.43-3.509-16.857-4.438-25.5l-.354-2.858c-.734-7.544-.734-7.544 1.632-11.298L96 283h2l-1-2c-.238-3.098-.185-6.206-.188-9.313l-.037-2.591c-.019-8.36-.019-8.36 2.225-12.096 3.496-1.165 6.613-1.125 10.247-1.098l2.229.005c1.599.004 3.198.01 4.797.018 2.546.013 5.092.02 7.638.024 6.336.013 12.672.037 19.007.061 5.337.02 10.674.036 16.01.046 2.482.006 4.963.019 7.444.032 4.544.016 9.085-.021 13.628-.088l2.273-.02c2.193-.03 4.38-.095 6.572-.171l3.818-.104c4.458-.942 5.834-1.867 8.337-5.705.695-3.992.6-7.917.52-11.96l-.012-3.672a844.022 844.022 0 0 0-.071-7.895c-.058-4.17-.08-8.34-.097-12.511-.035-7.358-.1-14.715-.172-22.073a6922.069 6922.069 0 0 1-.247-33.16c-.022-4.135-.06-8.27-.11-12.406-.036-3.196-.052-6.392-.072-9.587l-.057-3.427c-.027-9.48.858-18.84 7.705-25.942 8.864-7.511 22.703-6.748 33.675-6.117 5.623.545 9.837 1.431 13.75 5.75 6.442 10.85 3.37 30.467 3.474 42.827.018 1.78.042 3.56.073 5.341.042 2.538.058 5.075.067 7.613l.053 2.33c-.014 3.356-.247 5.526-2.068 8.38-3.289 2.058-5.543 1.953-9.407 1.857l-2.032-.049c-1.415-.04-2.83-.09-4.244-.15a267.834 267.834 0 0 0-6.464-.159 972.691 972.691 0 0 1-4.135-.142l-3.78-.125c-4.319-.932-5.802-2.124-8.349-5.723-.488-2.931-.68-5.267-.629-8.188l-.007-2.364c0-1.644.014-3.288.04-4.931.033-2.51.02-5.015 0-7.525.007-1.601.017-3.203.03-4.804l-.015-2.261c.08-3.6.5-5.791 2.368-8.9 2.332-2.136 3.096-2.66 6.182-2.656l2.23-.006 2.301.073 2.3-.034c5.517.073 5.517.073 8.42 2.297 2.161 2.791 2.272 4.156 2.24 7.65l-.01 3.079-.075 3.195-.004 3.219c-.09 7.875-.09 7.875-2.371 10.156-3.5.25-3.5.25-7 0-2-2-2-2-2.195-4.164l.07-2.461.055-2.477L233 146h-2a286.15 286.15 0 0 0-.188 5.313l-.105 2.988c.082 2.689.082 2.689 1.52 4.539 2.261 1.48 3.651 1.498 6.335 1.41l2.38-.047c2.12-.085 2.12-.085 4.058-1.203 1.807-5.422 1.227-11.264 1.25-16.938l.063-3.904.015-3.748.028-3.433c-.398-3.328-.891-4.717-3.356-6.977-2.242-.58-2.242-.58-4.746-.46l-2.787.01-2.905.075-2.892.004c-6.172-.078-6.172-.078-11.67 2.371-2.578 4.339-2.306 8.947-2.3 13.844l-.014 2.566c-.005 1.785-.006 3.57-.002 5.355.003 2.726-.02 5.45-.045 8.176-.003 1.739-.003 3.477-.002 5.215l-.028 2.46c.037 4.589.332 7.714 3.391 11.384 3.576 2.754 7.937 2.349 12.266 2.414l2.404.059c2.526.06 5.053.106 7.58.152l5.148.117c4.2.096 8.401.18 12.602.258.093 8.268.164 16.535.207 24.803.021 3.84.05 7.68.095 11.52.044 3.716.067 7.431.078 11.147.007 1.408.021 2.816.043 4.224.266 17.928-6.053 31.682-17.423 45.306l3.402-1.242 4.536-1.633 2.228-.816c10.008-3.584 18.741-4.587 29.397-4.434l3.634.027c2.935.024 5.869.056 8.803.098v-3h-20l.016-7.273c.095-46.508.046-93.012-.422-139.519l-.091-9.62c-.047-5.049-.1-10.098-.156-15.148-.02-1.85-.039-3.702-.056-5.553a2592.08 2592.08 0 0 0-.086-7.598l-.017-2.205C273.12 72.321 272.66 67.718 272 63Z" fill="#E7DD02"/><path d="m317.16 295.566 4.074-.015c2.832-.01 5.663-.007 8.495.003 3.61.011 7.219-.009 10.829-.038 2.8-.018 5.599-.018 8.398-.012 1.972 0 3.944-.017 5.916-.034 7.185.055 12.05.59 18.128 4.53 6.669 6.844 7.068 14.93 7.002 24.073-.063 3.927-.174 7.85-.299 11.775-.077 2.449-.145 4.897-.21 7.345-.789 27.902-.789 27.902-6.493 35.807l-1.313 1.93c-4.557 6.033-11.33 9.548-18.687 11.07-1.72.095-3.442.138-5.164.145l-3.115.02-3.346.003-3.452.01c-2.407.005-4.814.007-7.222.007-3.687.002-7.373.02-11.06.04-2.339.003-4.677.005-7.016.005l-3.346.022-3.115-.01-2.736.005c-2.613-.266-4.222-.84-6.428-2.247-4.432-8.865-.891-26.02-.25-35.625l.187-3.264c.581-7.793 1.804-16.462 7.75-22.111 8.012-4.837 17.267-4.343 26.334-4.316 2.173.004 4.344-.02 6.516-.045 1.398-.003 2.796-.003 4.193-.002l3.794-.01c3.83.41 6.22 1.343 9.476 3.373 3.275 4.912 2.369 10.415 2.375 16.188l.074 3.658c.024 7.212-.498 12.058-4.449 18.154-4.266 4.156-8.324 6.15-14.285 6.117-1.593-.068-3.186-.15-4.777-.242l-2.432-.07c-3.679-.196-5.949-.45-9.096-2.457-1.949-3.245-1.559-5.093-.91-8.786l.531-3.37c1.092-3.596 2.258-5.596 4.969-8.192 2.36-.488 2.36-.488 4.75-.313l2.422.137L336 349c1.055 1.871 1.055 1.871 2 4-.875 2.063-.875 2.063-2 4v3l3 1c1.067-3.462 1.102-6.64 1.063-10.25l-.028-3.266L340 345c-2.419-.135-4.83-.234-7.25-.313l-2.066-.126c-2.297-.108-2.297-.108-5.684.439-3.916 3.872-5.093 6.867-5.535 12.227l-.264 3.125-.264 3.273-.275 3.297c-.224 2.692-.445 5.385-.662 8.078 4.02.1 8.04.172 12.06.22 1.366.02 2.732.047 4.097.082 1.97.049 3.942.069 5.913.089l3.587.063c5.381-.73 8.421-3.49 12.093-7.329 5.026-6.98 4.623-14.35 4.62-22.603.005-2.148.041-4.295.08-6.444.005-1.372.01-2.745.01-4.117.01-1.24.017-2.48.026-3.756-.25-3.238-.25-3.238-2.14-5.578-5.062-3.511-11.522-2.8-17.471-2.83l-2.622-.017c-1.822-.01-3.644-.016-5.466-.02-2.778-.01-5.556-.041-8.334-.072-1.776-.007-3.552-.012-5.328-.016l-2.5-.038c-5.618.022-9.919.903-14.234 4.83-4.246 5.483-5.74 9.407-6.391 16.286l-.244 2.415c-.944 9.913-1.496 19.862-2.059 29.803l-.118 2.048c-.107 1.85-.21 3.702-.314 5.553-.271 3.509-.73 6.954-1.265 10.431 8.433-.015 16.865-.057 25.298-.132 3.916-.034 7.833-.06 11.75-.064 3.786-.004 7.572-.033 11.36-.077 1.437-.013 2.874-.018 4.312-.013 10.99.027 19.663-1.689 27.842-9.526C375.94 381 375.94 381 377 381c.707 13.31-2.172 25.522-10.664 36.066-8.78 9.282-20.527 14.332-33.214 15.11-3.199.061-6.392.06-9.591.035l-3.662-.004c-3.293-.005-6.585-.02-9.878-.037-3.488-.017-6.977-.02-10.465-.026-6.63-.011-13.26-.032-19.891-.057-11.775-.044-23.55-.077-35.326-.1a4059 4059 0 0 1-10.341-.032c-14.786-.065-29.549.04-44.327.512l-2.043.065c-7.291.237-14.569.549-21.848 1.03-7.87.457-15.744.72-23.625.875l-3.735.141c-8.54.104-8.54.104-11.094-1.945-1.116-1.66-1.116-1.66-2.296-4.633l-1 5H75c1.236-9.887 4.026-15.185 11.719-21.457 8.564-5.793 17.207-6.072 27.281-5.543-1.607-3.169-1.607-3.169-4.063-3.432l-2.507-.08-2.715-.107-2.84-.068-2.863-.104A646.387 646.387 0 0 0 92 402c-.05-3.951-.086-7.902-.11-11.853-.015-2.006-.04-4.012-.066-6.018l-.02-3.809-.031-3.523C92 374 92 374 94 372c14.941-3.265 28.803 4.033 42.26 9.635 6 2.496 12.066 4.782 18.178 6.99l2.612.963 2.446.889 2.068.752c6.671 2.112 12.548 3.071 19.514 3.09l2.634.03c2.846.03 5.692.048 8.538.065a5833.203 5833.203 0 0 0 21.556.187c5.316.04 10.632.091 15.948.141 10.415.097 20.83.181 31.246.258l-.017-3.918-.013-5.159-.012-2.574a159.728 159.728 0 0 1 1.23-20.161l.396-3.294C264.452 345.37 267.208 330.525 273 317h2l.563-2.063c4.26-8.704 13.437-14.124 22.228-17.495 6.366-2.078 12.732-1.89 19.37-1.876ZM115 408l1 2Zm1 2 1 2Zm1 2 1 2Zm1 2 1 2Zm1 2 1 2Zm1 2 1 2Zm1 2 1 2Zm1 2 1 2Zm1 2 1 2Z" fill="#AE980D"/><path d="M254 105c8.842 9.757 5.18 32.311 5.286 44.827.018 1.78.042 3.56.073 5.341.042 2.538.058 5.075.067 7.613l.053 2.33c-.014 3.356-.247 5.526-2.068 8.38-3.289 2.058-5.543 1.953-9.407 1.857l-2.032-.049c-1.415-.04-2.83-.09-4.244-.15a267.834 267.834 0 0 0-6.464-.159 972.691 972.691 0 0 1-4.135-.142l-3.78-.125c-4.319-.932-5.802-2.124-8.349-5.723-.488-2.931-.68-5.267-.629-8.188l-.007-2.364c0-1.644.014-3.288.04-4.931.033-2.51.02-5.015 0-7.525.007-1.601.017-3.203.03-4.804l-.015-2.261c.08-3.6.5-5.791 2.368-8.9 2.332-2.136 3.096-2.66 6.182-2.656l2.23-.006 2.301.073 2.3-.034c5.517.073 5.517.073 8.42 2.297 2.161 2.791 2.272 4.156 2.24 7.65l-.01 3.079-.075 3.195-.004 3.219c-.09 7.875-.09 7.875-2.371 10.156-3.5.25-3.5.25-7 0-2-2-2-2-2.195-4.164l.07-2.461.055-2.477L233 146h-2a286.15 286.15 0 0 0-.188 5.313l-.105 2.988c.082 2.689.082 2.689 1.52 4.539 2.261 1.48 3.651 1.498 6.335 1.41.786-.015 1.57-.03 2.38-.047 2.12-.085 2.12-.085 4.058-1.203 1.807-5.422 1.227-11.264 1.25-16.938l.063-3.904.015-3.748.028-3.433c-.398-3.328-.891-4.717-3.356-6.977-2.242-.58-2.242-.58-4.746-.46l-2.787.01-2.905.075-2.892.004c-6.172-.078-6.172-.078-11.67 2.371-2.578 4.339-2.306 8.947-2.3 13.844l-.014 2.566c-.005 1.785-.006 3.57-.002 5.355.003 2.726-.02 5.45-.045 8.176-.003 1.739-.003 3.477-.002 5.215l-.028 2.46c.037 4.589.332 7.714 3.391 11.384 3.576 2.754 7.937 2.349 12.266 2.414l2.404.059c2.526.06 5.053.106 7.58.152l5.148.117c4.2.096 8.401.18 12.602.258.093 8.268.164 16.535.207 24.803.021 3.84.05 7.68.095 11.52.044 3.716.067 7.431.078 11.147.007 1.408.021 2.816.043 4.224.278 18.727-6.656 33.71-19.423 47.306-14.831 13.843-31.813 21.344-51.809 23l-2.776.245c-2.95.258-5.901.507-8.852.755l-6.125.524c-4.01.343-8.018.68-12.027 1.017-4.474.376-8.945.78-13.415 1.197-13.133 1.186-25.845 1.295-38.996.262l-.332 2.527c-.961 6.821-2.261 13.018-4.668 19.473l-4-1c-2.158-8.43-3.509-16.857-4.438-25.5l-.354-2.858c-.734-7.544-.734-7.544 1.632-11.298L96 283h2l-1-2c-.238-3.098-.185-6.206-.188-9.313l-.037-2.591c-.019-8.36-.019-8.36 2.225-12.096 3.496-1.165 6.613-1.125 10.247-1.098l2.229.005c1.599.004 3.198.01 4.797.018 2.546.013 5.092.02 7.638.024 6.336.013 12.672.037 19.007.061 5.337.02 10.674.036 16.01.046 2.482.006 4.963.019 7.444.032 4.544.016 9.085-.021 13.628-.088l2.273-.02c2.193-.03 4.38-.095 6.572-.171l3.818-.104c4.458-.942 5.834-1.867 8.337-5.705.695-3.992.6-7.917.52-11.96l-.012-3.672a844.022 844.022 0 0 0-.071-7.895c-.058-4.17-.08-8.34-.097-12.511-.035-7.358-.1-14.715-.172-22.073a6922.069 6922.069 0 0 1-.247-33.16c-.022-4.135-.06-8.27-.11-12.406-.036-3.196-.052-6.392-.072-9.587l-.057-3.427c-.027-9.48.858-18.84 7.705-25.942C219.067 98.315 242.51 98.214 254 105Z" fill="#AE980E"/><path d="M4 81c3.378.575 6.183 1.4 9.252 2.918l2.437 1.193 2.592 1.291 2.7 1.327c2.843 1.397 5.681 2.803 8.519 4.209 2.839 1.4 5.678 2.8 8.518 4.197 1.766.87 3.53 1.74 5.293 2.615 6.641 3.278 11.471 5.616 19.002 5l2.278-.154c1.76-.12 3.519-.243 5.278-.37 5.72-.412 11.441-.784 17.164-1.152 2.031-.133 4.062-.272 6.093-.413 9.31-.61 18.547-.765 27.874-.661 2.329 4.604 4.638 9.216 6.926 13.84a533.34 533.34 0 0 0 2.058 4.097 442.417 442.417 0 0 1 2.578 5.188l1.504 3.008c1.17 3.592 1.172 5.286-.066 8.867-1.867 2.383-4.036 4.326-6.313 6.313l-1.885 1.697c-5.665 5.032-11.622 9.61-17.802 13.99-4.764-2.49-8.158-5.888-11.875-9.688l-1.87-1.897A884.738 884.738 0 0 1 89 141l-2.469-2.559C82 133.53 82 133.53 82 129c1.772-1.572 1.772-1.572 4.234-3.05l2.68-1.616 2.836-1.647 2.79-1.705c6.837-4.048 6.837-4.048 9.665-3.75 2.568 1.099 3.24 2.585 4.545 5.018l1.297 2.328c1.043 2.65 1.133 4.6.953 7.422l-4 1-5-7-8 5c1.124 4.495 3.022 6.54 6.188 9.688l1.423 1.51c2.353 2.365 4.275 3.762 7.436 4.86 3.838-.076 5.147-1.183 8.016-3.683l2.585-2.246L122 139l1.79-1.473c1.577-1.293 1.577-1.293 3.21-3.527-.363-3.722-1.593-6.398-3.504-9.574l-1.494-2.522-1.564-2.591a1303.27 1303.27 0 0 1-3.067-5.137l-1.377-2.284C115 110 115 110 115 108l-54 3 7.813 18.563 2.448 5.818 1.946 4.623 1 2.378a711.36 711.36 0 0 0 1.926 4.53 79.882 79.882 0 0 1 1.573 4.092c1.166 3.183 2.064 4.831 4.847 6.829l3.04 1.335 3.376 1.518 3.531 1.501 3.438 1.538c2.256.997 4.525 1.967 6.806 2.907a96.554 96.554 0 0 1 6.188 2.851c5.22 2.457 5.22 2.457 10.717 1.56 2.764-1.695 5.219-3.55 7.726-5.606a9834.95 9834.95 0 0 1 5.148-3.94l2.248-1.808c2.318-1.757 4.711-3.236 7.229-4.689.152 17.026-.256 33.99-1 51h-1l-3-13c-4.332.86-4.332.86-8 3-.673 7.854.263 14.637 3 22 4.65.27 4.65.27 9-1 3.295 6.59 2.063 16.661 2.027 23.965l-.006 2.355c-.005 1.893-.013 3.787-.021 5.68-5.228.194-10.457.372-15.686.537-1.775.058-3.55.12-5.324.187-18.4.683-18.4.683-26.99-1.724-1.511-.34-3.023-.675-4.535-1.008C73.988 243.027 60.095 236.868 47 226l-1.973-1.516c-25.104-19.9-36.58-55.618-40.666-86.05-1.115-10.598-.763-21.295-.611-31.934.02-2.492.038-4.984.055-7.477.043-6.008.11-12.015.195-18.023Z" fill="#374A2D"/><path d="M320 82c7.456.91 7.456.91 10.867 2.637l1.98.99 2.028 1.06 2.133 1.09a109.35 109.35 0 0 1 12.91 7.856c3.05 2.003 6.306 3.493 9.625 4.996 3.205 1.788 6.14 3.499 8.457 6.371.47 3.09.578 5.323.367 8.371l-.093 2.424c-.104 2.55-.25 5.095-.399 7.642-.078 1.71-.154 3.418-.227 5.127a851.48 851.48 0 0 1-.461 9.438A159.02 159.02 0 0 0 367 150l1.645.672C379.068 156.549 386.2 167.9 392 178l1.559 2.688c5.396 9.991 6.923 20.928 8.186 32.086.164 1.427.332 2.854.508 4.28 2.347 19.389 2.194 38.901 2.349 58.401.031 3.85.068 7.699.104 11.548.089 9.458.165 18.917.235 28.375.04 5.367.088 10.734.146 16.101.062 5.745.11 11.49.143 17.234.013 1.942.03 3.883.054 5.824.271 23.994-2.507 50.075-19.846 68.264-7.594 6.851-14.29 9.398-24.438 9.199l2.063-2a639.66 639.66 0 0 0 2.937-3l1.715-1.727c12.378-13.163 14.438-30.45 14.453-47.71l.01-3.975c.006-2.78.008-5.561.007-8.342 0-2.802.007-5.604.02-8.406.868-27.67.868-27.67-3.265-54.798-1.309-4.887-1.171-9.688-1.1-14.718l.016-3.048c.017-3.196.048-6.392.082-9.589.027-3.185.052-6.37.07-9.556.013-1.975.03-3.95.054-5.924.065-9.13-.46-18.004-2.875-26.832l-.957-3.602c-1.44-4.417-3.267-8.568-5.23-12.773l-.044 2.535c-.062 3.139-.136 6.277-.218 9.416-.05 2.012-.084 4.025-.119 6.037-.191 6.923-.39 12.804-3.619 19.012-2.688 1-2.688 1-5 1-3.981-8.136-4.141-15.95-3.895-24.875.024-2.515.038-5.03.051-7.545.021-1.72.062-3.44.122-5.16.562-10.455.562-10.455-3.819-19.506A57.866 57.866 0 0 0 343 191l-3.394-1.719L337 188l-.06 2.322c-.398 14.863-.89 29.723-1.7 44.57-.076 1.439-.148 2.878-.216 4.318-.096 2.026-.212 4.05-.329 6.075l-.187 3.496c-.595 3.769-1.738 7.45-4.508 10.219-2.438.25-2.438.25-5 0-2.28-3.42-2.24-4.6-2.211-8.614l.01-3.49.04-3.779c.009-1.962.017-3.924.024-5.887.014-2.754.036-5.508.058-8.262.038-4.793.066-9.587.088-14.38.012-2.55.03-5.1.053-7.65.03-5.54-.096-10.895-.807-16.386-.638-6.385-.631-12.843-.79-19.255l-.13-4.932c-.091-3.45-.179-6.9-.265-10.349a6469.1 6469.1 0 0 0-.34-12.985c-.545-20.349-.88-40.674-.73-61.031ZM19.96 25.914l2.416.012c9.084.059 18.167.229 27.249.449l2.66.064c12.209.303 24.4.757 36.59 1.498l3.862.227 3.63.238 3.097.203c4.88.545 9.705 1.517 14.536 2.395v55l20-5h2l-1.133-1.864c-1.681-2.786-3.337-5.585-4.992-8.386l-1.785-2.934-1.66-2.832c-.514-.858-1.027-1.717-1.555-2.602C124 60 124 60 124.66 57.75 126 56 126 56 129 55c14.44 14.85 15.501 29.212 15.334 48.97-.073 4.958-.217 9.914-.373 14.87-.145 5.102-.207 10.205-.277 15.308-.15 9.954-.387 19.902-.684 29.852h-1l-1-8-1.541 1.13c-2.338 1.71-4.68 3.415-7.022 5.12l-2.423 1.777-2.393 1.739-2.174 1.587L123 169l-1.6 1.173c-3.395 2.276-4.68 2.969-8.838 2.151L109 170.687l-1.938-.862A325.585 325.585 0 0 1 101 167c-1.353-.613-2.707-1.224-4.063-1.832-3.675-1.667-7.324-3.37-10.937-5.168l-1.848-.803c-5.475-2.626-7.114-6.138-9.265-11.654l-1.032-2.488a693.575 693.575 0 0 1-3.168-7.868c-.72-1.754-1.441-3.507-2.166-5.26-2.83-6.909-5.598-13.703-7.521-20.927 2.948-1.474 6.013-1.357 9.254-1.535l2.223-.13c1.565-.09 3.13-.179 4.694-.265 2.33-.13 4.66-.268 6.991-.408 10.29-.594 20.533-.773 30.838-.662 2.208 3.739 4.387 7.492 6.563 11.25l1.904 3.223 1.787 3.105 1.666 2.857c1.08 2.565 1.08 2.565.852 4.781C125.119 139.35 117.658 144.752 112 148c-5.179.03-7.689-2.045-11.197-5.514l-1.74-1.798-1.823-1.764-1.705-1.725-1.55-1.567C93 134 93 134 93.212 131.892c1.134-2.723 2.759-3.328 5.35-4.642l2.504-1.297L103 125l4 7h3c-.466-5.707-1.938-9.16-5-14-3.676.568-6.279 1.534-9.426 3.504l-2.412 1.494-2.475 1.564-2.533 1.577C86.1 127.419 84.047 128.706 82 130c1.365 3.023 2.93 5.229 5.195 7.645l1.922 2.052 2.008 2.115 1.938 2.08c4.403 4.674 9.031 8.967 13.937 13.108 6.436-3.986 11.95-8.494 17.473-13.676a74.109 74.109 0 0 1 6.152-5.074c2.983-2.826 3.13-4.195 3.375-8.25-.92-3.115-.92-3.115-2.492-6.203l-1.637-3.469-1.746-3.578c-.576-1.208-1.15-2.416-1.723-3.625A644.6 644.6 0 0 0 121 102c-12.759-.247-25.346.532-38.063 1.5-2.887.216-5.775.43-8.662.642-1.78.13-3.558.264-5.336.4-2.312.172-4.625.32-6.939.458l-3.625.242c-4.113-.295-7.263-1.656-10.898-3.46l-2.135-1.02a857.13 857.13 0 0 1-6.717-3.262c-1.462-.704-2.924-1.408-4.387-2.11a2512.375 2512.375 0 0 1-8.76-4.23C18.348 87.71 11.173 84.36 4 81l-.063-7.375-.027-2.255c-.018-4.593.314-9.07.811-13.635.308-3.022.532-6.044.744-9.075l.236-3.28c.16-2.238.313-4.478.461-6.718l.24-3.252.203-2.933C7 30 7 30 9 27c3.701-1.234 7.109-1.121 10.96-1.086Z" fill="#AD980E"/><path d="M366 132c5.323 2.419 9.538 6.284 14 10l2.523 2.07c15.61 13.345 24.588 30.204 29.477 49.93l.95 3.04c5.872 20.626 4.514 43.445 4.486 64.69-.003 3.633.003 7.267.009 10.9.014 8.576.013 17.151.001 25.727-.011 8.795.003 17.59.03 26.386.022 7.613.028 15.226.022 22.84-.003 4.52 0 9.041.017 13.562.015 4.244.011 8.489-.008 12.734-.003 1.543 0 3.086.01 4.628.123 19.372-4.855 41.289-17.517 56.493-19.038 17.797-44.78 18.599-69.24 18.486-2.72 0-5.44.006-8.161.011-6.585.01-13.17 0-19.754-.02-7.691-.02-15.382-.02-23.073-.019-13.738.001-27.475-.017-41.212-.046-13.287-.029-26.573-.043-39.859-.041H193.747c-15.187.001-30.374-.01-45.561-.028-5.342-.006-10.685-.008-16.027-.01-6.525 0-13.05-.01-19.576-.028-3.32-.01-6.64-.014-9.96-.013-53.79.015-53.79.015-69.623-15.292-1.634-2.157-3.088-4.213-4.5-6.5l-1.159-1.85c-9.793-15.958-13.504-31.626-13.591-50.212l-.063-3.366c-.027-5.848.02-10.141 3.313-15.072 2.239 2.239 2.42 3.105 3.043 6.121l.554 2.557.59 2.76C25.313 390.61 31.246 409 44 423v2l1.727.813c3.149 1.644 5.961 3.702 8.859 5.75 4.868 2.898 9.605 3.717 15.206 4.029l1.962.112c7.854.424 15.716.633 23.578.831l4.938.13c3.44.09 6.88.179 10.32.265 3.447.087 6.896.177 10.344.27 34.24.93 68.385.993 102.626.053 2.427-.067 4.854-.132 7.281-.196 32.942-.883 65.852-2.254 98.764-3.891 4.115-.201 8.23-.389 12.345-.575 3.328-.152 6.655-.315 9.983-.483 1.424-.07 2.849-.137 4.273-.199 13.235-.584 22.56-3.17 31.856-12.909 15.11-18.773 16.294-44.011 16.125-67l-.026-6.175c-.026-5.435-.067-10.87-.111-16.306-.045-5.584-.078-11.167-.109-16.751-.047-8.47-.108-16.94-.182-25.41-.04-4.736-.078-9.471-.105-14.207-.13-21.9-.736-43.413-3.654-65.151l-.466-3.684-.492-3.727-.44-3.371c-1.02-5.453-3.168-10.262-5.602-15.218l-1.379-2.84C386.4 169.016 377.461 155.23 367 150c-1.574-5.824-1.087-12.016-1-18Z" fill="#374A2D"/><path d="m317.16 295.566 4.074-.015c2.832-.01 5.663-.007 8.495.003 3.61.011 7.219-.009 10.829-.038 2.8-.018 5.599-.018 8.398-.012 1.972 0 3.944-.017 5.916-.034 7.185.055 12.05.59 18.128 4.53 6.669 6.844 7.068 14.93 7.002 24.073-.063 3.927-.174 7.85-.299 11.775-.077 2.449-.145 4.897-.21 7.345-.789 27.902-.789 27.902-6.493 35.807l-1.313 1.93c-4.557 6.033-11.33 9.548-18.687 11.07-1.72.095-3.442.138-5.164.145l-3.115.02-3.346.003-3.452.01c-2.407.005-4.814.007-7.222.007-3.687.002-7.373.02-11.06.04-2.339.003-4.677.005-7.016.005l-3.346.022-3.115-.01-2.736.005c-2.613-.266-4.222-.84-6.428-2.247-4.432-8.865-.891-26.02-.25-35.625l.187-3.264c.581-7.793 1.804-16.462 7.75-22.111 8.012-4.837 17.267-4.343 26.334-4.316 2.173.004 4.344-.02 6.516-.045 1.398-.003 2.796-.003 4.193-.002l3.794-.01c3.83.41 6.22 1.343 9.476 3.373 3.275 4.912 2.369 10.415 2.375 16.188l.074 3.658c.024 7.212-.498 12.058-4.449 18.154-4.266 4.156-8.324 6.15-14.285 6.117-1.593-.068-3.186-.15-4.777-.242l-2.432-.07c-3.679-.196-5.949-.45-9.096-2.457-1.949-3.245-1.559-5.093-.91-8.786l.531-3.37c1.092-3.596 2.258-5.596 4.969-8.192 2.36-.488 2.36-.488 4.75-.313l2.422.137L336 349c1.055 1.871 1.055 1.871 2 4-.875 2.063-.875 2.063-2 4v3l3 1c1.067-3.462 1.102-6.64 1.063-10.25l-.028-3.266L340 345c-2.419-.135-4.83-.234-7.25-.313l-2.066-.126c-2.297-.108-2.297-.108-5.684.439-3.916 3.872-5.093 6.867-5.535 12.227l-.264 3.125-.264 3.273-.275 3.297c-.224 2.692-.445 5.385-.662 8.078 4.02.1 8.04.172 12.06.22 1.366.02 2.732.047 4.097.082 1.97.049 3.942.069 5.913.089l3.587.063c5.381-.73 8.421-3.49 12.093-7.329 5.026-6.98 4.623-14.35 4.62-22.603.005-2.148.041-4.295.08-6.444.005-1.372.01-2.745.01-4.117.01-1.24.017-2.48.026-3.756-.25-3.238-.25-3.238-2.14-5.578-5.062-3.511-11.522-2.8-17.471-2.83l-2.622-.017c-1.822-.01-3.644-.016-5.466-.02-2.778-.01-5.556-.041-8.334-.072-1.776-.007-3.552-.012-5.328-.016l-2.5-.038c-5.618.022-9.919.903-14.234 4.83-4.246 5.483-5.74 9.407-6.391 16.286l-.244 2.417c-.94 9.884-1.494 19.802-2.059 29.713-.37 6.408-.775 12.765-1.697 19.12-3.267-.566-4.709-1.38-6.797-3.941l-1.465-1.768-1.488-1.853-1.535-1.866A651.816 651.816 0 0 1 277 381c-4.181 4.043-7.65 8.346-11.133 12.988L264 396h-3c-.8-26.231 1.558-54.615 12-79h2l.563-2.063c4.26-8.704 13.437-14.124 22.228-17.495 6.366-2.078 12.732-1.89 19.37-1.876Z" fill="#364A2D"/><path d="M114 31c27.775 1.157 27.775 1.157 36.625 2.438l2.844.369c4.745.648 8.995 1.6 13.531 3.193l-.016 2.504c-.11 20.63.08 41.245.453 61.871.576 31.831.852 63.665 1.125 95.5l.034 3.905c.138 16.073.273 32.147.404 48.22l-13 1-1 7c-1.812.027-3.625.046-5.438.063l-3.058.035C144 257 144 257 143 256c-.232-2.735-.404-5.45-.535-8.191l-.13-2.485c-.137-2.628-.267-5.257-.398-7.887-.09-1.778-.183-3.556-.275-5.333-.226-4.368-.445-8.736-.662-13.104h-9c-3.125-5.843-4.15-10.527-4.25-17.125l-.078-3.133C128 196 128 196 129.316 194.145c2.516-1.71 4.727-1.342 7.684-1.145l3 8c1.55-24.384 2.552-48.75 2.734-73.184.036-4.8.094-9.597.206-14.396.11-4.77.165-9.537.182-14.308.015-1.778.048-3.556.102-5.333.39-13.494-2.944-21.36-11.046-32.085-1.465-2.107-2.392-4.257-3.178-6.694l-4 3c1.963 5.49 4.983 10.36 7.898 15.38C136 78.794 136 78.794 136 81c-2.353.651-4.707 1.296-7.063 1.938l-1.99.552-1.982.537-1.793.492c-3.024.67-6.106 1.043-9.172 1.481V31Z" fill="#E8DE02"/><path d="M320 82c7.456.91 7.456.91 10.867 2.637l1.98.99 2.028 1.06 2.133 1.09a109.35 109.35 0 0 1 12.91 7.856c3.05 2.003 6.306 3.493 9.625 4.996 3.202 1.787 6.137 3.506 8.457 6.371.46 3.049.556 5.226.332 8.23l-.1 2.396c-.11 2.523-.263 5.041-.42 7.561-.13 2.503-.25 5.005-.365 7.509a329.175 329.175 0 0 1-.254 4.658c-.259 4.75.032 9.232.564 13.954.46 5.094.385 10.198.376 15.31l.004 3.634c.002 3.874-.004 7.749-.012 11.623l-.006 3.987c-.024 15.415-.048 30.834-.383 46.246-.032 1.499-.06 2.998-.082 4.497-.033 2.036-.087 4.071-.142 6.106l-.08 3.353c-.482 3.277-1.552 5.238-3.432 7.936l-5-1c-3.003-7.809-3.123-15.619-2.895-23.875.024-2.515.038-5.03.051-7.545.021-1.72.062-3.44.122-5.16.562-10.455.562-10.455-3.819-19.506A57.866 57.866 0 0 0 343 191l-3.394-1.719L337 188l-.06 2.322c-.398 14.863-.89 29.723-1.7 44.57-.076 1.439-.148 2.878-.216 4.318-.096 2.026-.212 4.05-.329 6.075l-.187 3.496c-.595 3.769-1.738 7.45-4.508 10.219-2.438.25-2.438.25-5 0-2.28-3.42-2.24-4.6-2.211-8.614l.01-3.49.04-3.779c.009-1.962.017-3.924.024-5.887.014-2.754.036-5.508.058-8.262.038-4.793.066-9.587.088-14.38.012-2.55.03-5.1.053-7.65.03-5.54-.096-10.895-.807-16.386-.638-6.385-.631-12.843-.79-19.255l-.13-4.932c-.091-3.45-.179-6.9-.265-10.349a6469.1 6469.1 0 0 0-.34-12.985c-.545-20.349-.88-40.674-.73-61.031Z" fill="#E7DD02"/><path d="M367 109c3.107.596 4.991 1.524 7.434 3.52l1.946 1.58 2.058 1.713 2.143 1.769c28.533 23.747 44.887 49.287 50.106 86.356l.363 2.558c1.837 14.134 2.102 28.373 2.127 42.605l.02 4.895c.02 5.281.031 10.563.041 15.844l.013 5.498c.019 8.6.033 17.199.041 25.799.01 9.884.036 19.768.077 29.652.03 7.678.045 15.355.048 23.033.002 4.571.011 9.142.036 13.713.024 4.292.028 8.584.018 12.876 0 1.568.005 3.136.02 4.704.124 15.094-3.792 25.872-14.116 37.01C414.57 426.781 408.869 429.87 403 433l-1-2a140.213 140.213 0 0 1 3.688-7.375c3.457-6.692 6.411-13.304 8.312-20.625l.505-1.92c1.862-8.005 1.784-15.98 1.77-24.149l.015-4.818c.013-4.342.014-8.684.012-13.026-.001-3.646.003-7.293.008-10.94.011-8.626.012-17.252.006-25.878-.006-8.834.006-17.668.027-26.502.018-7.63.024-15.262.02-22.893-.001-4.536.001-9.072.015-13.609.18-56.43.18-56.43-25.378-105.265l-1.45-1.844c-3.67-4.629-8.054-8.185-12.671-11.847L374 138l-1.891-1.195c-3.122-2.168-4.86-3.63-5.665-7.439-.133-3.11-.056-6.134.118-9.241l.096-3.242c.082-2.63.197-5.255.342-7.883Z" fill="#AC970E"/><path d="M254 105c8.842 9.757 5.18 32.311 5.286 44.827.018 1.78.042 3.56.073 5.341.042 2.538.058 5.075.067 7.613l.053 2.33c-.014 3.356-.247 5.526-2.068 8.38-3.289 2.058-5.543 1.953-9.407 1.857l-2.032-.049c-1.415-.04-2.83-.09-4.244-.15a267.834 267.834 0 0 0-6.464-.159 972.691 972.691 0 0 1-4.135-.142l-3.78-.125c-4.319-.932-5.802-2.124-8.349-5.723-.488-2.931-.68-5.267-.629-8.188l-.007-2.364c0-1.644.014-3.288.04-4.931.033-2.51.02-5.015 0-7.525.007-1.601.017-3.203.03-4.804l-.015-2.261c.08-3.6.5-5.791 2.368-8.9 2.332-2.136 3.096-2.66 6.182-2.656l2.23-.006 2.301.073 2.3-.034c5.517.073 5.517.073 8.42 2.297 2.161 2.791 2.272 4.156 2.24 7.65l-.01 3.079-.075 3.195-.004 3.219c-.09 7.875-.09 7.875-2.371 10.156-3.5.25-3.5.25-7 0-2-2-2-2-2.195-4.164l.07-2.461.055-2.477L233 146h-2a286.15 286.15 0 0 0-.188 5.313l-.105 2.988c.082 2.689.082 2.689 1.52 4.539 2.261 1.48 3.651 1.498 6.335 1.41l2.38-.047c2.12-.085 2.12-.085 4.058-1.203 1.807-5.422 1.227-11.264 1.25-16.938l.063-3.904.015-3.748.028-3.433c-.398-3.328-.891-4.717-3.356-6.977-2.242-.58-2.242-.58-4.746-.46l-2.787.01-2.905.075-2.892.004c-6.172-.078-6.172-.078-11.67 2.371-2.578 4.339-2.306 8.947-2.3 13.844l-.014 2.566c-.005 1.785-.006 3.57-.002 5.355.003 2.726-.02 5.45-.045 8.176-.003 1.739-.003 3.477-.002 5.215l-.028 2.46c.037 4.589.332 7.714 3.391 11.384 3.577 2.754 7.937 2.35 12.266 2.414l2.132.054c2.617.062 5.235.109 7.852.157L259 178v49c-4.5-5.624-4.5-5.624-6.167-8.473l-1.132-1.921-1.178-2.024-1.246-2.117a2827.708 2827.708 0 0 1-3.902-6.653c-1.306-2.23-2.613-4.458-3.923-6.685-.814-1.381-1.624-2.765-2.431-4.15-1.52-2.582-2.893-4.849-5.021-6.977l-.971 1.35A5724.503 5724.503 0 0 1 221 206l-1.91 2.637c-1.858 2.562-3.723 5.12-5.59 7.675l-1.74 2.404-1.666 2.272-1.448 1.986c-2.048 2.52-4.339 4.742-6.646 7.026-.132-10.13-.263-20.259-.391-30.388-.06-4.706-.12-9.413-.182-14.12-.128-9.8-.248-19.6-.347-29.402-.052-4.97-.127-9.94-.217-14.91l-.082-6.621-.07-2.845c-.072-8.904 1.305-17.74 7.676-24.347C219.067 98.315 242.51 98.214 254 105Z" fill="#364A2D"/><path d="m19.96 25.914 2.416.012c9.084.059 18.167.229 27.249.449l2.66.064c12.209.303 24.4.757 36.59 1.498l3.862.227 3.63.238 3.097.203c4.88.545 9.705 1.517 14.536 2.395v55l20-5h2l-1.133-1.864c-1.681-2.786-3.337-5.585-4.992-8.386l-1.785-2.934-1.66-2.832c-.514-.858-1.027-1.717-1.555-2.602C124 60 124 60 124.66 57.75 126 56 126 56 129 55c2.375 3.41 4.692 6.857 7 10.313l2.023 2.9C142.495 74.989 144 79.896 143 88c-2.894.657-5.79 1.3-8.688 1.938l-2.416.552c-2.623.57-5.253 1.044-7.896 1.51l-2.851.644c-11.224 1.85-20.03-3.279-29.899-7.957-1.887-.868-3.776-1.734-5.666-2.597a2427.543 2427.543 0 0 1-11.72-5.396c-8.348-3.854-16.778-7.52-25.208-11.19-4.085-1.779-8.166-3.565-12.246-5.356l-2.3-1.01C25.045 55.154 16.021 51.079 7 47l-.092-6.167a839.477 839.477 0 0 0-.088-4.752l-.015-2.07-.032-2.11C7 30 7 30 9 27c3.701-1.234 7.109-1.121 10.96-1.086Z" fill="#3A4C2C"/><path d="M102.886 371.076c11.665.423 22.736 6.13 33.375 10.56 6 2.495 12.065 4.781 18.176 6.989l2.613.963c10.302 3.742 19.543 4.791 30.45 5.037l4.227.117c3.424.094 6.848.18 10.273.258-2.614 3.154-5.577 4.233-9.348 5.7l-1.856.726c-1.29.504-2.582 1.004-3.875 1.5-1.983.761-3.961 1.535-5.939 2.31C171.306 409 171.306 409 169 409v2l2.499.755c4.023 1.43 7.722 3.23 11.524 5.16l2.262 1.134c2.365 1.188 4.728 2.382 7.09 3.576l4.832 2.43c3.933 1.977 7.864 3.96 11.793 5.945-2.802 2.802-4.638 2.298-8.563 2.379l-1.995.05c-2.147.053-4.294.093-6.442.133-2.953.07-5.906.144-8.86.22l-2.187.052c-5.079.127-10.135.378-15.203.728-7.869.47-15.744.72-23.625.875l-3.735.141c-8.54.104-8.54.104-11.094-1.945-1.116-1.66-1.116-1.66-2.296-4.633l-1 5H75c1.236-9.887 4.026-15.185 11.719-21.457 8.564-5.793 17.207-6.072 27.281-5.543-1.607-3.169-1.607-3.169-4.063-3.432l-2.507-.08-2.715-.107-2.84-.069-2.863-.103A646.387 646.387 0 0 0 92 402c-.05-3.951-.086-7.902-.11-11.853-.015-2.006-.04-4.012-.066-6.018l-.02-3.809-.031-3.523c.512-6.311 5.902-5.605 11.113-5.72ZM115 408l1 2Zm1 2 1 2Zm1 2 1 2Zm1 2 1 2Zm1 2 1 2Zm1 2 1 2Zm1 2 1 2Zm1 2 1 2Zm1 2 1 2ZM108.503 255.87l1.987-.005c2.168-.004 4.335-.001 6.502.002a4882.03 4882.03 0 0 1 14.012.002c4.048.006 8.095.003 12.142-.003 3.116-.004 6.232-.002 9.348 0 1.492 0 2.984 0 4.476-.002 2.09-.003 4.178.001 6.268.007l3.6.002c2.845.114 5.397.472 8.162 1.127-5.403 6.638-11.477 12.572-17.561 18.577A982.279 982.279 0 0 0 153 280l2.555.738c3.826 1.402 7.13 3.306 10.57 5.45 1.316.808 2.632 1.615 3.95 2.421l1.981 1.217a218.554 218.554 0 0 0 5.589 3.252l3.292 1.86 2.965 1.652L186 298v2c-8.775.817-17.55 1.62-26.328 2.402-3.484.31-6.966.626-10.448.952-14.567 1.367-28.628 1.793-43.224.646l-.332 2.527c-.961 6.821-2.261 13.018-4.668 19.473l-4-1c-2.158-8.43-3.509-16.857-4.438-25.5l-.354-2.858c-.734-7.544-.734-7.544 1.632-11.298L96 283h2l-1-2c-.238-3.098-.185-6.206-.188-9.313l-.037-2.591c-.019-8.36-.019-8.36 2.225-12.096 3.38-1.126 5.94-1.127 9.503-1.13Z" fill="#A46E02"/><path d="m305 265 1 2 1.654-.076c50.553-2.31 50.553-2.31 71.346-1.924.05 4.093.086 8.187.11 12.28.01 1.393.024 2.786.04 4.179.025 2 .035 4.001.045 6.002l.032 3.65C379 294 379 294 377 296l-3.581-1.473c-6.604-2.184-13.234-1.968-20.118-1.96a2200.186 2200.186 0 0 0-16.3-.074c-4.153-.009-8.305-.035-12.457-.06a9050.35 9050.35 0 0 0-23.554-.094c-8.943-.028-17.887-.071-26.83-.117-18.386-.092-36.773-.164-55.16-.222 19.349-15.545 37.774-26.265 63.313-24.688l3.724.186c2.989.151 5.976.319 8.963.502l.77 1.715 1.043 2.223 1.019 2.214c1.104 2.178 1.104 2.178 4.168 2.848l3-12Z" fill="#364A2D"/><path d="M308 180c2.13.369 4.254.771 6.375 1.188l3.586.667C321 183 321 183 322.375 185.366c1.982 8.355 1.745 16.803 1.688 25.349l-.018 5.92c-.01 3.435-.028 6.869-.045 10.303-.02 4.127-.04 8.254-.051 12.382-.008 2.563-.02 5.126-.037 7.689l-.01 3.49-.016 3.081c-.05 2.431-.05 2.431 1.114 4.42h5c2.492-4.404 3.43-7.781 3.695-12.82l.114-1.966c.118-2.113.217-4.226.316-6.339.078-1.468.158-2.935.238-4.403.584-10.968 1-21.946 1.296-32.926l.095-3.288.072-2.87C336 191 336 191 337 188c7.262 2.124 14.534 5.657 19 12 2.12 5.987 1.46 12.57 1.188 18.813a899.383 899.383 0 0 0-.114 7.507c-.02 1.62-.048 3.24-.082 4.86-.113 7.083-.212 15.38 3.008 21.82l5-1c1.588-4.945 2.284-9.228 2.414-14.465l.059-2.055c.059-2.139.106-4.278.152-6.417.038-1.462.077-2.924.117-4.385.096-3.56.18-7.119.258-10.678 10.424 13.365 11.23 31.768 11 48-10.526.891-21.027 1.267-31.584 1.503-2.648.06-5.296.124-7.943.19-11.16.268-22.31.36-33.473.307l.199-3.674c.83-16.187 1.106-32.374 1.333-48.577.051-3.595.107-7.19.161-10.784.106-6.988.208-13.977.307-20.965ZM182 41c13.89 13.829 14.41 25.74 14.486 44.774.024 3.693.097 7.385.163 11.077.113 6.755.188 13.51.244 20.265.07 8.656.173 17.312.293 25.967.19 13.913.364 27.826.52 41.74l.09 7.62c.086 7.314.162 14.627.221 21.94.02 2.256.043 4.513.07 6.769.036 3.105.06 6.21.08 9.315l.04 2.77.009 2.539.02 2.194c-.283 2.431-.931 3.962-2.236 6.03-5.031 3.522-8.883 4.684-15 5-5.02-5.02-2.19-24.622-2.19-31.66l.002-3.153v-3.271c.008-19.435.566-38.832 1.263-58.253.884-24.864 1.277-49.723 1.55-74.6l.031-2.819c.125-11.414.24-22.83.344-34.244Z" fill="#374B2D"/><path d="M447 17v2c-1.508 1.375-3.085 2.674-4.688 3.938l-3.054 2.44-1.624 1.298c-2.693 2.182-5.315 4.445-7.947 6.699-4.957 4.224-10.022 8.283-15.164 12.28-4.848 3.782-9.599 7.674-14.336 11.595-5.005 4.142-10.026 8.245-15.18 12.203-5.427 4.182-10.75 8.499-16.023 12.875l-2.146 1.771a727.362 727.362 0 0 0-4.217 3.509l-1.984 1.634-1.76 1.465C356.564 92.3 354.744 93.313 352 94c-2.72-.995-2.72-.995-5.64-2.727l-3.247-1.878-3.363-2.02c-2.19-1.288-4.383-2.571-6.578-3.852l-3.166-1.848c-3.894-2.17-7.877-4.003-12.006-5.675 10.47-22.543 60.507-36.091 82-44 9.974-3.59 20.011-7.003 30.059-10.383l2.12-.715C443.87 17 443.87 17 447 17Z" fill="#A46E02"/><path d="M257 58a565979799.575 565979799.575 0 0 0 9.082 2.246A89.613 89.613 0 0 1 272 62c2.22 5.458 2.302 11.664 2.319 17.482l.03 2.433c.031 2.661.048 5.322.065 7.983a5039.687 5039.687 0 0 1 .187 21.252c.024 3.227.05 6.453.079 9.68.135 15.723.236 31.446.32 47.17.01 1.668.01 1.668.018 3.37.08 14.899.135 29.799.163 44.699.006 2.989.017 5.978.028 8.967.016 4.692.022 9.385.02 14.077.001 1.714.005 3.428.013 5.141.01 2.341.007 4.682 0 7.024l.005 3.958c-.274 4.18-1.12 7.738-2.247 11.764-2.25.75-2.25.75-5 1-3.148-2.36-4.342-4.194-5-8a203.132 203.132 0 0 1-.205-7.677l-.03-2.333a2804.42 2804.42 0 0 1-.081-7.658l-.063-5.386c-.044-3.778-.085-7.557-.124-11.336-.048-4.767-.102-9.534-.158-14.301-.2-17.177-.373-34.352-.332-51.53.012-7.54-.138-15.058-.445-22.591l-.119-3.46c-.169-4.41-.35-8.452-1.443-12.728-.12-1.474-.2-2.952-.246-4.43l-.096-2.625-.096-2.82c-.299-7.806-.835-15.542-1.625-23.313C256.94 77.85 256.793 68.005 257 58Z" fill="#E9DE02"/><path d="m210 46 3.285.621a84386.86 84386.86 0 0 0 6.49 1.225c4.108.773 8.22 1.494 12.35 2.154 4.101.735 7.153 2.101 10.875 4 3.114.868 6.241 1.623 9.39 2.352C255 57 255 57 257 58c.395 2.598.395 2.598.598 6.063l.238 3.833.226 4.104.25 4.124c.164 2.714.323 5.428.477 8.143.18 3.169.366 6.338.559 9.506.226 3.742.443 7.484.652 11.227l-2.962-1.973c-4.26-2.423-7.822-2.564-12.64-2.453l-2.422.01c-2.534.016-5.067.06-7.601.103-1.708.012-3.417.022-5.125.03-1.638.013-3.276.028-4.914.045l-2.308.022c-3.788.068-7.343.313-11.028 1.216-.926-3.145-1.121-5.954-1.114-9.228V89.62l.016-3.385.005-3.48c.005-3.668.018-7.336.03-11.004.006-2.487.01-4.974.014-7.46.011-6.097.028-12.194.049-18.29Z" fill="#AF990D"/><path d="M402 7c-3.502 2.335-7.193 4.084-10.98 5.895-1.645.791-3.288 1.583-4.932 2.376l-2.61 1.256c-26.012 12.544-51.354 25.889-75.521 41.766l-2.358 1.548a417.888 417.888 0 0 0-4.286 2.872C294.894 66.988 294.894 66.988 291 67c-2.871-.835-5.571-2-8.313-3.188C274.272 60.336 265.882 57.949 257 56v-2c39.538-18.807 80.508-36.17 123.563-45l3.043-.63C389.806 7.178 395.692 6.752 402 7Z" fill="#A46E02"/><path d="M352 98c3.862.445 6.48 1.661 9.688 3.813l2.324 1.519c2.194 1.84 2.941 3.024 3.988 5.668.135 2.375.135 2.375-.023 5l-.157 2.921-.195 3.079c-.111 2.087-.22 4.174-.328 6.262l-.162 3.02c-.319 6.426-.371 12.715.365 19.104.614 6.082.644 12.123.633 18.231l.004 3.635c.002 3.874-.004 7.749-.012 11.623l-.006 3.987c-.024 15.415-.048 30.834-.383 46.246-.032 1.499-.06 2.998-.082 4.497-.033 2.036-.087 4.071-.142 6.106l-.08 3.353c-.482 3.277-1.552 5.238-3.432 7.936l-5-1c-3.44-8.942-3.202-18.505-3.446-27.96-.055-2.154-.116-4.307-.177-6.46-.152-5.343-.296-10.686-.44-16.029a8091.18 8091.18 0 0 0-.377-13.593c-.059-2.111-.113-4.222-.167-6.333l-.112-3.915-.092-3.423c-.2-3.473-.68-6.847-1.189-10.287a86.521 86.521 0 0 1-.19-4.156l-.05-2.226-.041-2.333-.056-2.468c-.058-2.585-.111-5.17-.163-7.755-.068-3.405-.142-6.81-.219-10.214l-.04-2.327c-.083-3.62-.279-7.162-.75-10.754-.394-3.019-.62-5.853-.624-8.888l-.004-2.643.012-2.674-.012-2.755.004-2.616.004-2.368C351 99 351 99 352 98Z" fill="#E8DE02"/><path d="m19.84 25.91 2.395.012c8.863.057 17.724.236 26.585.45 2.799.067 5.598.126 8.397.185 1.783.041 3.566.084 5.35.127l2.53.05c5.789.152 5.789.152 6.903 1.266a245.7 245.7 0 0 1 .098 8.848l-.005 2.686c-.005 2.843-.018 5.686-.03 8.529-.006 1.922-.01 3.845-.014 5.767-.011 4.723-.028 9.447-.049 14.17-4.792-.584-8.825-2.035-13.18-4.027l-2.067-.924c-1.458-.652-2.914-1.308-4.37-1.966-3.805-1.72-7.62-3.419-11.434-5.118l-2.303-1.028c-7.857-3.496-15.788-6.802-23.749-10.054l-2.745-1.125-2.375-.965C8 42 8 42 7 41a84.925 84.925 0 0 1-.188-5.375l-.042-2.96C7 30 7 30 9 27c3.667-1.222 7.024-1.124 10.84-1.09Z" fill="#AE980E"/><path d="M199 317c7.03-.247 13.841.048 20.828.767 16.446 1.665 32.694 1.002 49.172.233l-.601 1.94c-1.87 6.11-3.36 12.21-4.653 18.47L263 341c-3.196 1.598-6.678 1.221-10.191 1.281l-2.483.056c-2.63.059-5.259.112-7.888.163-2.605.052-5.21.105-7.814.163-1.62.036-3.241.069-4.862.097-3.866.086-7.65.311-11.49.779-3.332.398-6.394.48-9.745.121l-2.783-.283-2.806-.315-2.913-.302A983.06 983.06 0 0 1 193 342c1.167-7.373 2.904-14.336 5.195-21.445.855-2.268.855-2.268.805-3.555Z" fill="#364A2D"/><path d="M275 180h19v84h-20l1-84Z" fill="#384B2D"/><path d="M193 344c6.395-.125 6.395-.125 9.392.496 2.776.537 5.317.633 8.143.637l3.205.004 3.322-.012 3.24.012c6.316-.008 12.517-.335 18.803-.914 4.55-.35 9.084-.33 13.645-.286L262 344l-3 22c-23.035 1.85-45.897 2.245-69 2-1.06-6.223-.935-11.045.938-17.063l.591-2.044c.476-1.636.971-3.265 1.471-4.893ZM219.228 294.722l2.198.012 2.313-.008c2.525-.003 5.049.01 7.573.024l2.603.005c18.733.046 37.397 1.01 56.085 2.245-2.11 2.158-4.191 3.866-6.688 5.563-3.557 2.529-5.388 5.067-7.687 8.75-2.644 3.39-3.993 4.535-8.219 5.55-3.866.345-7.717.295-11.594.196-3.105-.065-6.202-.036-9.308.004-10.89.118-21.664.039-32.504-1.063-2.437-.193-4.875-.38-7.313-.562l-3.3-.254L201 315c1.509-4.37 3.846-7.945 6.5-11.687l1.223-1.76c4.747-6.777 4.747-6.777 10.505-6.83ZM258 369c.076 7.822-.131 15.182-1 23h-69c-1.437-2.874-.892-5.129-.625-8.313l.273-3.425c.304-2.814.776-5.495 1.352-8.262 7.415-.433 14.831-.86 22.247-1.282 2.517-.144 5.034-.29 7.55-.436 26.824-1.566 26.824-1.566 39.203-1.282Z" fill="#364A2D"/><path d="M167 138c.757 24.412 1.241 48.818 1.532 73.24.052 4.285.107 8.571.161 12.858.106 8.3.207 16.601.307 24.902h-14c-.824-9.32-1.158-18.52-1.125-27.875l.004-2.097c.024-12.159.253-24.311.559-36.465l.059-2.42c.115-4.608.26-9.214.43-13.82a467.7 467.7 0 0 0 .156-7.303c.045-1.62.092-3.24.14-4.86l.01-2.254c.148-3.951.641-5.75 3.144-8.869C164.487 138 164.487 138 167 138Z" fill="#384C2D"/><path d="M79 28c9.637-.293 18.3.707 28 2v51c-5.627 1.125-5.627 1.125-9.758-.8l-2.644-1.214-2.723-1.299-2.746-1.263C85.577 74.774 82.265 73.177 79 71c-.36-1.873-.36-1.873-.34-4.174v-2.609l.047-2.819.013-2.883c.017-3.047.054-6.093.093-9.14.015-2.062.028-4.125.04-6.188.034-5.062.085-10.125.147-15.187Z" fill="#AD970E"/><path d="M337 88c11 6 11 6 15 9 .438 2.233.438 2.233.355 4.824l-.052 2.87-.115 2.993c-.053 1.942-.102 3.883-.145 5.825l-.093 2.608c.052 2.967.412 5.832.806 8.77.406 3.506.48 7.01.56 10.536l.063 2.385c.043 1.661.084 3.323.124 4.984.058 2.473.124 4.945.19 7.418.29 11.264.357 22.52.307 33.787-5.69-2.276-11.343-4.643-17-7V88Z" fill="#AE9A0E"/><path d="M274 98c13.487 1.226 13.487 1.226 17 4 .988 3.266.988 3.266 1.313 7.25l.363 3.89L293 118l.261 3.244c.768 10.08.857 20.09.801 30.194-.005 1.617-.01 3.235-.013 4.853-.01 3.903-.03 7.806-.049 11.709h-20V98Z" fill="#AC990E"/><path d="M114 31c24 1 24 1 33 2v1h-5l.092 2.117c.582 13.634 1.08 27.236.908 40.883-3.95-3.526-6.501-7.658-9.25-12.125l-1.39-2.207C129 57.259 129 57.259 129 55l-4 3c1.963 5.49 4.983 10.36 7.898 15.38C136 78.794 136 78.794 136 81c-2.353.651-4.707 1.296-7.063 1.938l-1.99.552-1.982.537-1.793.492c-3.024.67-6.106 1.043-9.172 1.481V31Z" fill="#AE980D"/><path d="m292 1-2.379 2.344c-7.553 7.464-7.553 7.464-14.656 15.351a335.163 335.163 0 0 1-4.961 5.672C263.032 32.226 256.754 40.204 251 49l-2 3c-6.266-1.253-12.173-2.984-18.203-5.098-4.514-1.456-9.123-2.141-13.797-2.902 9.49-19.572 45.106-32.88 63.813-40.875l2.388-1.03C288.619-.127 288.619-.127 292 1ZM449 70c-4.03 9.464-16.95 15.357-25.173 20.783-17.385 11.13-17.385 11.13-32.386 25.037C390 117 390 117 388.117 116.926c-2.734-1.196-4.707-2.82-6.992-4.739-2.84-2.351-5.601-4.58-8.75-6.5L370 104v-3c16.678-15.706 56.624-31 79-31Z" fill="#A46E02"/><path d="m74 244 3.625.813C84.075 246.246 90.538 247.62 97 249v2l-12 6 6.836.684C94 258 94 258 96 259c.087 3.292.14 6.583.188 9.875l.076 2.84.029 2.715.048 2.507L96 279c-2.861 1.908-4.353 2.428-7.625 3.063-2.973.408-2.973.408-5.375 1.937a365.713 365.713 0 0 0-1.719 10.479c-.76 4.664-1.905 8.36-4.281 12.521h-4c-2.947-2.947-2.955-6.466-3.563-10.438l-.391-2.472C68.114 288.075 67.31 282.083 67 276l-.16-2.934C66.557 263.8 66.557 263.8 70 260c2.688-1.813 2.688-1.813 5-3l-1-3a99.155 99.155 0 0 1-.063-5.188l.028-2.73L74 244Z" fill="#374A2D"/><path d="M157 35c8 1 8 1 10 3 .211 2.64.211 2.64.16 6.11l-.017 1.966a823.62 823.62 0 0 1-.05 4.341 1320.97 1320.97 0 0 0-.09 12.442l-.011 2.815c-.03 12.768.24 25.533.471 38.298.423 23.345.69 46.68.537 70.028h-1l-1-35-9 7h-1l1-111Z" fill="#AF9C0E"/><path d="M114 406c1.276 2.497 2.546 4.998 3.813 7.5l1.08 2.11c2.374 4.705 4.491 9.366 6.107 14.39l-1 3H75c1.236-9.887 4.026-15.185 11.719-21.457 8.564-5.793 17.207-6.072 27.281-5.543Z" fill="#364A2D"/><path d="m182 41 4 4 2.324 2.293c9.145 11.2 7.876 24.85 7.699 38.58-.05 4.305.082 8.547.395 12.846.867 13.485.867 13.485-2.73 18.511-2.796 2.338-5.48 4.063-8.688 5.77l-4 3 1-85Z" fill="#AF9A0E"/><path d="M89 373c.248 4.02.43 8.035.55 12.06.05 1.367.118 2.733.204 4.097.276 4.438.342 8.519-.754 12.843-2.961 2.91-6.257 4.302-10 6-3.783 3.681-4.925 7.248-6.25 12.313l-1.016 3.8L71 427h-4c-3.368-8.98-3.236-18.148-3.313-27.625l-.087-3.64c-.08-11.056-.08-11.056 4.4-15.735 5.325-4.115 14.318-7 21-7Z" fill="#364A2D"/><path d="M220 3a1147.246 1147.246 0 0 1-7.188 27.938l-.793 2.96-.75 2.754-.668 2.469C210 41 210 41 209 42c-7.026-.508-13.718-1.945-20.563-3.563l-3.056-.708A2057.98 2057.98 0 0 1 178 36c1.776-10.68 14.65-18.242 23.004-24.281C213.497 3 213.497 3 220 3Z" fill="#A46E02"/><path d="M307 106c5.784.578 8.281 2.14 14 5v60l-13-1c-.145-6.221-.287-12.443-.427-18.665-.048-2.108-.096-4.216-.146-6.324-.303-13.006-.501-26.001-.427-39.011Z" fill="#AD980E"/><path d="M239 53c16 4 16 4 18 5 .395 2.598.395 2.598.598 6.063l.238 3.833.226 4.104.25 4.124c.164 2.714.323 5.428.477 8.143.18 3.169.366 6.338.559 9.506.226 3.742.443 7.484.652 11.227l-2.75-1.938c-5.27-2.873-5.27-2.873-16.25-3.062l-2-47Z" fill="#AF990D"/><path d="M226 49c1.822.228 3.634.533 5.438.875l2.996.555C237 51 237 51 239 52c4.782 14.346 2.103 33.104 2 48-5.076 1.692-9.915 1.335-15 0-.603-13.186-1.1-26.361-1.125-39.563l-.014-3.132.006-2.871.004-2.53C225 50 225 50 226 49Z" fill="#E8DD02"/><path d="M111.548 349.574c2.246-.011 4.49-.06 6.735-.111 1.433-.01 2.866-.017 4.299-.022l3.945-.04c4.346.75 5.747 2.208 8.473 5.599 3.517 6.782 5.75 13.352 5 21-4.534 2.624-8.021 2.222-13 1-3.217-1.173-5.675-2.458-8-5-.92-2.664-1.358-5.09-1.648-7.89L117 362c-3.591-1.796-7.785-1.809-11.738-2.305-3.36-.716-5.498-1.682-8.262-3.695-.937-2.062-.937-2.062-1-4 3.763-3.763 10.41-2.413 15.548-2.426Z" fill="#374A2D"/><path d="m434.375 118.813 3.586-.043C441 119 441 119 444 121c-4.976 4.574-9.975 9.038-15.313 13.188-4.967 3.922-9.17 7.863-11.687 13.812-2.939-1.303-4.777-2.581-6.813-5.063l-1.527-1.859L407 139l-1.941-2.39C400 130.272 400 130.272 400 128l-3-1c2.17-2.471 3.706-3.447 6.914-4.133l2.309-.504 2.402-.488 2.332-.512c7.78-1.655 15.458-2.507 23.418-2.55Z" fill="#A46E02"/><path d="M337 88c11 6 11 6 15 9 .481 1.955.481 1.955.454 4.196v2.547l-.063 2.737-.018 2.813c-.022 2.965-.072 5.93-.123 8.894-.02 2.01-.038 4.02-.055 6.03-.044 4.928-.113 9.855-.195 14.783l-15-6V88Z" fill="#AE980D"/><path d="m105.563 282.375 2.115.133c5.192.362 5.192.362 6.322 1.492.087 1.489.107 2.981.098 4.473l-.01 2.724-.025 2.865-.014 2.877c-.012 2.354-.028 4.707-.049 7.061h-8l-.332 2.527c-.961 6.821-2.261 13.018-4.668 19.473l-4-1c-2.158-8.43-3.509-16.857-4.438-25.5l-.354-2.858c-.734-7.543-.734-7.543 1.632-11.236 3.673-4.091 6.58-3.413 11.722-3.031Z" fill="#374A2D"/><path d="M173 1c-.141 3.459-.289 6.917-.438 10.375l-.119 2.926A276.042 276.042 0 0 1 171 33c-9.09-.574-18.002-1.61-27-3 1.32-5.242 3.819-8.504 7.5-12.313l1.607-1.7C167.439 1 167.439 1 173 1Z" fill="#A46E02"/><path d="M272 63c5 1 5 1 17 6l1 32c-11-2-11-2-16-3l-.076-2.352c-.117-3.55-.239-7.099-.361-10.648l-.12-3.7c-.216-6.16-.536-12.201-1.443-18.3Z" fill="#AE980D"/><path d="M275 142h19v26h-19v-26Z" fill="#374A2D"/><path d="M114 32h1v27l11-3-1 4c.865 2.25.865 2.25 2.309 4.477l1.513 2.53 1.615 2.618c1.044 1.72 2.085 3.44 3.122 5.164l1.415 2.303C136 79 136 79 136 81c-2.353.651-4.707 1.296-7.063 1.938l-1.99.552-1.982.537-1.793.492c-3.024.67-6.106 1.043-9.172 1.481V32Z" fill="#AA940E"/><path d="M157 35c8 1 8 1 10 3 .203 1.91.203 1.91.135 4.266l-.06 2.67c-.05 1.427-.05 1.427-.098 2.884l-.076 2.951c-.083 3.118-.18 6.236-.276 9.354-.058 2.11-.116 4.221-.172 6.332-.14 5.181-.293 10.362-.453 15.543l-8 2-1-49ZM308 76c5.07.654 9.42 2.855 14 5l-2 1v29l-13-5c-.027-4.25-.047-8.5-.063-12.75l-.025-3.656-.01-3.516-.016-3.237c.099-2.465.398-4.493 1.114-6.841Z" fill="#AE980E"/><path d="M24 203c2.884 2.733 5.127 5.5 7.313 8.813 2.787 4.084 5.757 7.48 9.402 10.812C42 224 42 224 42 226c-3.354.649-6.708 1.293-10.063 1.938l-2.857.552c-5.016.961-10.016 1.843-15.08 2.51.642-5.972 2.838-11.26 5-16.813l1.117-2.927c2.741-7.118 2.741-7.118 3.883-8.26ZM98 1c.861 3.028 1.182 5.843 1.316 8.984l.127 2.832.12 2.934.13 2.98c.106 2.424.208 4.847.307 7.27-8.745.106-17.3.013-26-1 3.208-7.02 15.843-24 24-24Z" fill="#A46E02"/><path d="M418 155c12.932-.57 25.778-.362 37 7-3.176 1.656-6.423 2.99-9.75 4.313-4.556 1.869-8.596 3.95-12.629 6.769C431 174 431 174 428 174l-3.875-7.25-1.105-2.066c-1.714-3.21-3.42-6.417-5.02-9.684Z" fill="#A56E02"/><path d="M274 98c13.206.805 13.206.805 17 4 .937 2.993.986 5.88 1 9l.043 2.813c.017 2.397.002 4.79-.043 7.187-2.625-.14-5.25-.287-7.875-.438l-2.262-.119c-5.636-.33-5.636-.33-7.863-1.443V98Z" fill="#394C2D"/><path d="m45 227 1.914 1.25C54.457 233.12 62.177 237.603 70 242v2a5458.426 5458.426 0 0 1-11.875 5l-3.418 1.445-3.262 1.368-3.015 1.269C46 254 46 254 44 254c-.102-9.063-.07-17.982 1-27Z" fill="#A46E02"/><path d="M337 156c13.277 4.426 13.277 4.426 17 9 1.404 6.21.62 12.727 0 19-5.697-2.262-11.344-4.638-17-7v-21Z" fill="#384B2D"/><path d="M141 179h1v40h-10c-3.125-5.843-4.15-10.527-4.25-17.125l-.078-3.133C128 196 128 196 129.316 194.145c2.516-1.71 4.727-1.342 7.684-1.145l3 8 1-22Z" fill="#A8970F"/><path d="M135 4v24c-11.25 0-11.25 0-16.625-1l-3.102-.563L113 26c1.692-4.22 4.689-7.171 7.75-10.438l1.555-1.697C131.468 4 131.468 4 135 4Z" fill="#A56F02"/><path d="M61 1c.228 14.766.228 14.766-1 22-1 1-1 1-2.858 1.114l-2.396-.016-2.588-.01-2.72-.026-2.733-.013C44.47 24.037 42.235 24.02 40 24c2.575-8.888 10.71-23 21-23Z" fill="#A46E02"/><path d="M308 145c11 3 11 3 13 4v22l-13-1v-25Z" fill="#364A2D"/><path d="M84.938 194.688C88 195 88 195 89.668 196.202c2.71 3.656 1.755 8.47 1.332 12.797-1.975 9.765-1.975 9.765-6 13-2.5.438-2.5.438-5 0-3.42-3.649-3.44-6.388-3.297-11.191 1.63-15.419 1.63-15.419 8.234-16.121Z" fill="#A9950F"/><path d="M437 242c9.104 4.552 9.104 4.552 13.438 8.5l2.558 2.281c2.048 2.268 2.422 3.328 3.004 6.219a2435.686 2435.686 0 0 1-8.375 4.5l-2.406 1.3-2.305 1.231-2.126 1.143C439 268 439 268 437 268v-26ZM431 183c3.67.734 5.742 1.183 8.883 2.777l2.097 1.057 2.145 1.103 2.168 1.092c3.035 1.54 5.868 3.078 8.707 4.971v2l-2.344.953c-4.835 1.987-9.63 3.966-14.281 6.36C435 205 435 205 433 205l-2-22ZM437 274c3.89.615 6.37 2.495 9.5 4.813l2.844 2.082c2.405 1.906 4.541 3.885 6.656 6.105-1.334 4.003-3.866 5.118-7.313 7.188l-1.763 1.115C443.58 297.343 442.022 298 438 298c-1.034-8.013-1.105-15.93-1-24ZM10 175c2.961 1.48 3.19 3.582 4.375 6.625 1.456 3.634 2.912 7.085 4.938 10.438C21 195 21 195 21 198H0c.734-3.672 1.278-5.948 2.813-9.172l1.07-2.262L5 184.25l1.117-2.363C8.852 176.148 8.852 176.148 10 175ZM32 4v20H12c3.61-7.22 10.068-20 20-20Z" fill="#A46E02"/><path d="M107 197c3.5-.375 3.5-.375 7 0 2.856 4.284 2.33 8.026 2.313 13.063l.048 2.798.002 2.674.01 2.45L116 220c-3.435 2.29-4.985 2.178-9 2-1.623-2.866-2.255-4.935-2.266-8.223l-.007-2.38.023-2.46-.023-2.47.007-2.377.007-2.16C105 200 105 200 107 197Z" fill="#AB960E"/><path d="M231 204c4.161 1.545 5.996 4.291 8.563 7.813l2.316 3.144c1.817 2.607 3.486 5.318 5.121 8.043l-26-1c1.713-4.283 3.685-7.946 6.125-11.813l1.129-1.81c.912-1.461 1.828-2.92 2.746-4.377Z" fill="#394C2D"/><path d="M354 172h1v27c-4.042-2.425-7.926-4.948-11.816-7.598-2.424-1.611-2.424-1.611-6.184-3.402v-11c6.678.783 11.216 3.685 17 7v-12Z" fill="#AA960F"/><path d="M307 106c5.898.983 8.886 2.266 14 5v16l-14-3v-18Z" fill="#3F512B"/><path d="M436 212c3.84 2.189 7.253 4.659 10.688 7.438l2.886 2.308c2.217 2.06 3.343 3.473 4.426 6.254a1241.572 1241.572 0 0 1-6.813 4l-1.947 1.156C440.34 236 440.34 236 437 236c-1.034-8.013-1.105-15.93-1-24Z" fill="#A46E02"/><path d="M275 168h19v12h-19v-12Z" fill="#AC970E"/><path d="M115 39c8.62 1.231 8.62 1.231 13 5 1.984 3.65 2.238 5.19 1.063 9.188-2.639 3.597-4.837 4.5-9.063 5.812h-5V39Z" fill="#CF8605"/><path d="M337 118c6.438 1.073 9.5 2.75 15 6v15l-15-6v-15Z" fill="#384B2D"/><path d="M182 41c5.974 5.618 12.848 13.518 13.582 22.031-.017 3.37-.17 6.626-.582 9.969-1.624.503-3.25 1.003-4.875 1.5l-2.742.844C185 76 185 76 183 76c-.375-2.75-.375-2.75 0-6 3-2.375 3-2.375 6-4-1.736-5.951-1.736-5.951-4.625-11.375-2.23-4.257-2.134-8.883-2.375-13.625Z" fill="#3B4D2C"/><path d="M107 39v20c-8.538-1.22-8.538-1.22-13-6-1.125-3-1.125-3-1-6 3.233-5.56 7.63-8 14-8Z" fill="#CF8605"/><path d="M438 304c5.978 3.25 11.471 7.04 17 11-1.506 4.254-4.167 5.594-8 7.75l-3.25 1.86C441 326 441 326 439 326c-.708-7.356-1.147-14.61-1-22ZM431 417h2c1.67 2.22 3.19 4.418 4.688 6.75l1.298 1.922c1.213 1.875 1.213 1.875 3.014 5.328l-1 4h-17a148.93 148.93 0 0 1 7-18Z" fill="#A46E02"/><path d="M231 232c4.379 1.545 6.591 4.973 9.25 8.563l1.39 1.826C245 246.843 245 246.843 245 248h-22c1.5-4.502 2.705-7.482 5.125-11.375l1.633-2.648L231 232Z" fill="#394C2C"/><path d="m74 244 3.625.813C84.075 246.246 90.538 247.62 97 249v2a506.494 506.494 0 0 1-6.563 3.5l-1.845 1.012C84.24 257.768 81.004 258.36 76 258c-1.906-3.212-2.223-5.539-2.125-9.25l.055-2.703L74 244Z" fill="#A46E02"/><path d="M321 149h1v35l-14-4v-10l13 1v-22Z" fill="#A49310"/><path d="m404 459 3 1 2 17c-6.623-1.866-12.788-4.044-19-7 2.448-2.642 5.159-4.593 8.125-6.625 3.079-2.013 3.079-2.013 5.875-4.375ZM420 440h2l8 18-7.188-.438-2.235-.13c-3.604-.23-7.058-.619-10.577-1.432l1.172-1.469c3.607-4.643 6.352-9.198 8.828-14.531Z" fill="#A46E02"/><path d="M439 334c4.168 1.042 6.302 2.385 9.75 4.875l2.984 2.117L454 343v3a1834.283 1834.283 0 0 1-6.375 3l-3.586 1.688C441 352 441 352 439 352v-18Z" fill="#A46F02"/><path d="M435 391c10.085 8.146 10.085 8.146 13 13l-1 3c-1.561.34-3.124.671-4.688 1l-2.636.563c-2.613.427-5.034.513-7.676.437.307-2.813.62-5.625.938-8.438l.263-2.431c.686-6.018.686-6.018 1.799-7.131ZM438 362c3.884 1.55 6.03 4.005 8.75 7.125l2.422 2.758L451 374c-2.382 2.681-4.855 4.114-8.063 5.688l-2.66 1.324C438 382 438 382 436 382c.141-2.584.288-5.167.438-7.75l.119-2.21c.204-3.467.528-6.693 1.443-10.04Z" fill="#A46E02"/><path d="M278 358c2.681 2.382 4.114 4.855 5.688 8.063l1.324 2.66C286 371 286 371 286 373h-16c1.525-3.813 3.008-6.86 5.125-10.313l1.633-2.675L278 358Z" fill="#A39110"/><path d="M383 473c-.99 4.836-1.957 9.476-4 14-3.643-1.475-5.408-3.445-7.75-6.563l-1.86-2.44C368 476 368 476 368 475c1.561-.34 3.124-.671 4.688-1l2.636-.563c2.613-.427 5.034-.513 7.676-.437Z" fill="#A46F02"/><path d="M181 39c2.147.475 4.292.955 6.438 1.438l3.62.808C194 42 194 42 195 43c.073 2.697.092 5.367.063 8.063l-.014 2.298c-.012 1.88-.03 3.76-.049 5.639-3.811-4.606-6.979-9.52-10.195-14.55L183 42h-2v-3Z" fill="#AC970E"/><path d="M368 181c6.752 6.186 8.428 14.136 9 23a2737.92 2737.92 0 0 1-3.375-2.875l-1.898-1.617A75.822 75.822 0 0 1 368 196a93.85 93.85 0 0 1-.125-7.625l.027-2.14c.024-1.746.06-3.49.098-5.235Z" fill="#43532A"/><path d="M282 333c1.682 2.523 2.901 4.81 4.125 7.563l1.07 2.378C288 345 288 345 288 347h-14c5.75-10.625 5.75-10.625 8-14Z" fill="#A7940F"/><path d="M324 475h15c-4.821 9.375-4.821 9.375-9 11-4-5.75-4-5.75-4-8h-2v-3Z" fill="#A46F03"/><path d="M346 475h15c-4.821 9.375-4.821 9.375-9 11a782.74 782.74 0 0 1-3-4.375l-1.688-2.46C346 477 346 477 346 475Z" fill="#A46E02"/><path d="M276 475h15c-4.352 7.954-4.352 7.954-7 10h-2l-2-5h-2l-2-5Z" fill="#A46F02"/><path d="M226 475h15l-2.75 3.875-1.547 2.18c-1.778 2.03-3.23 2.924-5.703 3.945-.839-1.288-1.67-2.58-2.5-3.875l-1.406-2.18C226 477 226 477 226 475ZM252 475h14c-1.706 4.265-3.098 6.614-6 10-3.303-1.101-3.785-1.69-5.688-4.438l-1.324-1.87C252 477 252 477 252 475ZM179 475h14c-2.314 4.38-3.856 7.17-8 10a720348394.56 720348394.56 0 0 0-4.688-6.934C179 476 179 476 179 475Z" fill="#A46E02"/><path d="M302 475h12c-1.482 3.705-2.909 6.673-5 10-4.427-1.476-4.914-3.9-7-8v-2Z" fill="#A46F02"/><path d="M203 475h12c-1.482 3.705-2.909 6.673-5 10-4.427-1.476-4.914-3.9-7-8v-2ZM131 475h13c-3.625 7.75-3.625 7.75-7 10a720348394.56 720348394.56 0 0 0-4.688-6.934C131 476 131 476 131 475Z" fill="#A46E02"/><path d="M25 462c3.565 1.783 6.715 3.76 10 6-2.357 2.73-4.581 3.889-8 5h-3l1-11Z" fill="#A26E04"/><path d="M155 475h12c-1.526 3.814-2.527 5.966-5 9-4.026-1.342-4.883-3.423-7-7v-2Z" fill="#A46E02"/><path d="M108 475h13c-4.492 7.031-4.492 7.031-6 9h-2l-5-9Z" fill="#A36E03"/><path d="m44 470 11 2c-2.011 4.022-3.404 5.483-7 8h-2c-1.316-3.62-2-6.096-2-10Z" fill="#A26E04"/><path d="M88 475h12l-6 8c-4.875-4.625-4.875-4.625-6-8Z" fill="#A36E03"/><path d="M166 75v7l-8 2v-6c6.875-3 6.875-3 8-3Z" fill="#3A4D2C"/></svg>