<?xml version="1.0" encoding="UTF-8"?>
<svg version="1.1" xmlns="http://www.w3.org/2000/svg" width="434" height="471">
<path d="M0 0 C1.47598352 -0.00299629 2.95196627 -0.0063999 4.427948 -0.01017761 C8.42002672 -0.01897615 12.41208398 -0.02135404 16.40417147 -0.0219934 C18.90491105 -0.02270651 21.40564527 -0.0248458 23.90638351 -0.02749062 C32.64983209 -0.03673187 41.39326546 -0.04082722 50.13671875 -0.04003906 C58.25502307 -0.03943931 66.37326072 -0.04997422 74.49154818 -0.06578273 C81.4863534 -0.07891247 88.48113698 -0.08422066 95.47595441 -0.08358365 C99.64244711 -0.08333017 103.80888057 -0.0860979 107.97536087 -0.0967617 C111.90049736 -0.10653409 115.8255191 -0.10646015 119.75065994 -0.09924507 C121.17996389 -0.09821033 122.60927533 -0.10049489 124.03856659 -0.10660553 C140.04947374 -0.17054603 157.39105795 0.41811824 169.61474609 12.13354492 C183.19604982 27.78090827 182.66141679 48.00221983 182.61962891 67.51489258 C182.62234347 69.65344359 182.62590701 71.79199367 182.63024902 73.93054199 C182.6393232 79.70774672 182.63584846 85.48487955 182.62949085 91.26208544 C182.62440109 97.33369155 182.62913091 103.40529182 182.63226318 109.47689819 C182.63589585 119.67674861 182.63112385 129.87657001 182.62158203 140.07641602 C182.61071638 151.8261831 182.61421217 163.57588066 182.62523484 175.32564604 C182.63434866 185.45011886 182.63557254 195.57457089 182.6303575 205.69904649 C182.62725797 211.72958855 182.6267721 217.76009808 182.63343048 223.79063797 C182.63926252 229.46902928 182.63510131 235.14733222 182.62364197 240.82571411 C182.62102565 242.89471669 182.62170773 244.96372686 182.6261673 247.03272629 C182.64546968 256.90841249 182.48321257 266.69013193 181.48138428 276.52157593 C181.40548388 277.27474047 181.32958348 278.02790502 181.25138307 278.80389273 C179.6744905 292.57441576 174.84621306 303.73681346 164.29833984 312.89526367 C149.4566448 323.77412517 130.52834867 323.44673592 113.00146484 323.37573242 C111.04237905 323.3745377 109.08329268 323.37408808 107.12420654 323.37434387 C103.03947305 323.37278827 98.95482835 323.36456789 94.87011719 323.35107422 C89.6495947 323.33404069 84.42916901 323.33026178 79.20862198 323.3310194 C75.17133674 323.33074686 71.1340724 323.32525288 67.09679413 323.31801796 C65.17197579 323.3148502 63.24715509 323.31286834 61.32233429 323.31212425 C58.63102725 323.30994303 55.93982044 323.30116194 53.24853516 323.29052734 C52.46393417 323.29098053 51.67933319 323.29143372 50.87095642 323.29190063 C45.95023709 323.26363617 41.23707363 322.80441909 36.36083984 322.14526367 C34.09037753 322.10421577 31.81877936 322.10297376 29.54833984 322.14526367 C25.39354597 322.18036225 21.36346419 322.11327777 17.23583984 321.64526367 C10.91961499 320.96345229 4.60836356 321.093829 -1.73535156 321.18237305 C-2.56856934 321.19075195 -3.40178711 321.19913086 -4.26025391 321.20776367 C-5.00718506 321.21936523 -5.75411621 321.2309668 -6.52368164 321.24291992 C-8.63916016 321.14526367 -8.63916016 321.14526367 -10.51977539 320.64135742 C-13.3647756 319.97541566 -16.00821009 320.09121282 -18.92822266 320.14526367 C-26.66246833 320.20141065 -34.30499501 319.72619872 -42.01416016 319.14526367 C-43.3474602 319.04844997 -44.68079356 318.95209397 -46.01416016 318.85620117 C-49.22284806 318.62368756 -52.43112986 318.38665238 -55.63916016 318.14526367 C-52.59388485 316.11508014 -51.03039513 315.68289447 -47.50268555 315.07627869 C-45.90636795 314.79665535 -45.90636795 314.79665535 -44.27780151 314.51138306 C-43.10927643 314.31442841 -41.94075134 314.11747375 -40.73681641 313.91455078 C-39.50512726 313.70128647 -38.27343811 313.48802216 -37.00442505 313.26829529 C-33.61491038 312.6837774 -30.22438714 312.1061258 -26.83294296 311.53296733 C-24.69820189 311.17202269 -22.56374119 310.80946163 -20.42935181 310.44644356 C-13.70766348 309.30380996 -6.98496747 308.16737998 -0.26080227 307.03941244 C6.65847795 305.87863802 13.57533626 304.70538658 20.48876953 303.51025391 C29.37906916 301.97440581 38.2730506 300.46203209 47.17333984 298.98510742 C47.89367779 298.86553287 48.61401573 298.74595832 49.3561821 298.6227603 C68.9082322 295.39042519 88.06309314 292.95231966 107.92333984 293.37011719 C117.31917203 293.40166853 126.187838 290.44065433 133.38427734 284.31713867 C144.42855946 272.18152433 142.51307516 255.81209929 142.52197266 240.55029297 C142.52660892 238.6865072 142.53163465 236.82272236 142.53701782 234.9589386 C142.55005532 229.92629011 142.5565683 224.8936549 142.56102848 219.86099219 C142.56396977 216.71421429 142.56807624 213.56743994 142.57253265 210.42066383 C142.58617705 200.56636692 142.59586188 190.71207823 142.59973454 180.85777253 C142.6042253 169.49571876 142.62183301 158.13378469 142.65073514 146.77176732 C142.6723365 137.97406985 142.68243779 129.17640614 142.68377566 120.37868243 C142.68482365 115.12929179 142.6907317 109.88001414 142.70859528 104.63065147 C142.72505191 99.70002636 142.72724321 94.76959959 142.71845627 89.83895683 C142.71768494 88.0305605 142.72204122 86.22215357 142.73191452 84.41378403 C142.74460732 81.9442542 142.73877233 79.47543004 142.72833252 77.00590515 C142.73638892 76.29160534 142.74444533 75.57730553 142.75274587 74.84136027 C142.70704027 70.21515267 141.7927234 67.07448892 139.36083984 63.14526367 C134.78834 59.11599742 130.85657053 58.5803172 124.96875 58.69116211 C123.73848587 58.69028595 123.73848587 58.69028595 122.48336792 58.68939209 C119.78843992 58.69216562 117.09463569 58.7232221 114.39990234 58.75463867 C112.52518315 58.76210368 110.65045612 58.76779539 108.77572632 58.77178955 C103.85347765 58.78702541 98.93170486 58.82628955 94.00964355 58.87060547 C88.98224321 58.9116024 83.9547656 58.92981 78.92724609 58.94995117 C69.07156884 58.9927858 59.21624399 59.0610123 49.36083984 59.14526367 C49.03083984 59.80526367 48.70083984 60.46526367 48.36083984 61.14526367 C47.02750651 62.47859701 45.69417318 63.81193034 44.36083984 65.14526367 C42.87239106 68.12216125 43.1949238 70.84390188 43.15551758 74.1652832 C43.14561798 74.88733948 43.13571838 75.60939575 43.1255188 76.35333252 C43.09387954 78.74488015 43.06913686 81.13644766 43.04443359 83.52807617 C43.02386615 85.18432131 43.00286974 86.84056118 42.98146057 88.49679565 C42.92621817 92.85988091 42.87681848 97.22301371 42.82861328 101.58618164 C42.77841407 106.03690837 42.72271977 110.4875659 42.66748047 114.93823242 C42.55987238 123.67385104 42.45843332 132.40952746 42.36083984 141.14526367 C37.31404463 141.91169763 32.53201596 142.2529732 27.42333984 142.20776367 C26.73949219 142.20325195 26.05564453 142.19874023 25.35107422 142.1940918 C23.68762381 142.18245928 22.02421935 142.16453062 20.36083984 142.14526367 C19.49767577 136.96962588 19.23695941 131.9682855 19.29492188 126.71899414 C19.30193115 125.50055817 19.30193115 125.50055817 19.30908203 124.25750732 C19.31953048 122.50549827 19.33217475 120.75350119 19.34680557 119.00152206 C19.36893368 116.2271784 19.38294323 113.45290405 19.39450073 110.67849731 C19.42800389 102.79443946 19.46984998 94.9104974 19.53222656 87.02661133 C19.56988 82.19453344 19.59289612 77.3625715 19.60653305 72.5303688 C19.61458079 70.69235106 19.62818048 68.85434884 19.64746475 67.01641464 C19.67395444 64.44837847 19.68183742 61.88090002 19.68554688 59.31274414 C19.70408218 58.17801163 19.70408218 58.17801163 19.72299194 57.02035522 C19.70593764 52.54135588 19.10467346 49.71773245 16.36083984 46.14526367 C11.64809401 42.7005563 5.08285809 43.73480482 -0.48364258 43.71972656 C-2.56727303 43.70781733 -4.64795002 43.65859924 -6.73095703 43.6081543 C-8.0503125 43.60106445 -9.36966797 43.59397461 -10.72900391 43.58666992 C-11.93419678 43.57321533 -13.13938965 43.55976074 -14.38110352 43.54589844 C-18.70046851 44.34050624 -19.94885893 45.70150221 -22.63916016 49.14526367 C-23.11866334 52.13995965 -23.29533156 54.5573986 -23.23852539 57.54394531 C-23.24246811 58.37705734 -23.24641083 59.21016937 -23.25047302 60.06852722 C-23.25717096 62.81477526 -23.22804903 65.55935056 -23.19775391 68.30541992 C-23.19350246 70.2168292 -23.19117508 72.12824365 -23.19068909 74.03965759 C-23.18452728 78.04197654 -23.16184351 82.04373504 -23.1262207 86.04589844 C-23.08091802 91.17629951 -23.06619289 96.30619354 -23.06248379 101.43677616 C-23.05805543 105.38216655 -23.04275246 109.32745053 -23.02360725 113.27279472 C-23.0147281 115.16462771 -23.00799662 117.05647204 -23.00344658 118.94832039 C-22.9944043 121.59106662 -22.97201439 124.23335454 -22.94555664 126.87597656 C-22.94489197 127.65790375 -22.94422729 128.43983093 -22.94354248 129.24545288 C-22.88296913 134.51377542 -22.88296913 134.51377542 -20.63916016 139.14526367 C-17.13799483 141.0337347 -14.08325966 141.44114528 -10.13916016 141.45776367 C-8.76244141 141.48290039 -8.76244141 141.48290039 -7.35791016 141.50854492 C-3.91918314 141.04905985 -2.30347356 140.40169261 0.36083984 138.14526367 C0.84257666 135.14986146 0.99223931 132.72825026 0.91943359 129.73510742 C0.9171022 128.89420059 0.91477081 128.05329376 0.91236877 127.18690491 C0.90261214 125.39712455 0.88078096 123.60737599 0.84790039 121.81787109 C0.79946048 119.14460857 0.78647307 116.47321754 0.78076172 113.79956055 C0.69513595 100.88116631 0.11714809 87.80758605 -2.63916016 75.14526367 C-4.28916016 75.14526367 -5.93916016 75.14526367 -7.63916016 75.14526367 C-8.08470914 97.54048394 -8.08470914 97.54048394 -5.08447266 119.67260742 C-4.58814614 122.42852572 -4.47075477 125.0334935 -4.45166016 127.83276367 C-4.43748047 128.78538086 -4.42330078 129.73799805 -4.40869141 130.71948242 C-4.63916016 133.14526367 -4.63916016 133.14526367 -6.63916016 135.14526367 C-9.20556641 135.37573242 -9.20556641 135.37573242 -12.20166016 135.33276367 C-13.68859375 135.3230957 -13.68859375 135.3230957 -15.20556641 135.31323242 C-17.63916016 135.14526367 -17.63916016 135.14526367 -18.63916016 134.14526367 C-18.76077768 131.64678688 -18.81775503 129.17544463 -18.83203125 126.67553711 C-18.84429749 125.50230644 -18.84429749 125.50230644 -18.85681152 124.30537415 C-18.88171579 121.70513688 -18.8981958 119.10495446 -18.91259766 116.50463867 C-18.91792133 115.61815895 -18.92324501 114.73167923 -18.92873001 113.81833649 C-18.95548566 109.12474938 -18.97485128 104.43118908 -18.98925781 99.73754883 C-19.00589612 94.88717793 -19.05065978 90.03748778 -19.10162926 85.18737411 C-19.13528055 81.46072607 -19.14683302 77.73423982 -19.15248489 74.00745392 C-19.15920514 72.21965595 -19.17444733 70.43186891 -19.1983757 68.64421844 C-19.22998099 66.13977145 -19.23007144 63.63716226 -19.22265625 61.13256836 C-19.23906158 60.39470596 -19.25546692 59.65684357 -19.27236938 58.8966217 C-19.22439615 54.93479314 -18.7684487 53.30305751 -16.2225647 50.19586182 C-10.62751439 45.75474561 -3.50347171 46.67705241 3.36083984 47.14526367 C7.05063898 47.99723767 9.60720489 49.34138639 12.23583984 52.14526367 C14.20048602 55.63796798 14.48884785 58.43013382 14.50128174 62.36058044 C14.50699188 63.44120255 14.51270203 64.52182465 14.51858521 65.63519287 C14.52026199 67.41412933 14.52026199 67.41412933 14.52197266 69.22900391 C14.52693756 70.47813065 14.53190247 71.72725739 14.53701782 73.01423645 C14.5491321 76.44452283 14.55658723 79.87474818 14.56102848 83.3050487 C14.56396249 85.45213314 14.56806813 87.59921226 14.57253265 89.74629402 C14.58621271 96.47496943 14.59587433 103.20363266 14.59973454 109.93232101 C14.60420313 117.67776745 14.62169273 125.42303634 14.65073514 133.16842884 C14.67243891 139.16693235 14.6824436 145.16538626 14.68377566 151.16392857 C14.68481839 154.74026478 14.69061046 158.31643424 14.70859528 161.89272881 C14.72832515 165.89425048 14.72375263 169.89540747 14.71728516 173.89697266 C14.72649994 175.06471222 14.73571472 176.23245178 14.74520874 177.43557739 C14.6709519 192.1825421 10.58852754 204.3493711 0.36083984 215.14526367 C-0.29916016 215.14526367 -0.95916016 215.14526367 -1.63916016 215.14526367 C-2.29916016 215.80526367 -2.95916016 216.46526367 -3.63916016 217.14526367 C-10.03248876 219.48376306 -16.27584271 220.31984383 -23.06103516 220.23120117 C-24.29950195 220.21879395 -25.53796875 220.20638672 -26.81396484 220.19360352 C-27.7462793 220.17765137 -28.67859375 220.16169922 -29.63916016 220.14526367 C-29.60773926 221.8388501 -29.60773926 221.8388501 -29.57568359 223.56665039 C-29.50271548 227.79715043 -29.45715603 232.02759604 -29.41943359 236.25854492 C-29.39944651 238.0818826 -29.3722473 239.90515723 -29.33740234 241.72827148 C-29.09288021 254.86054842 -29.24761434 265.3857149 -38.70556641 275.45385742 C-44.5593206 280.57441412 -50.9683318 282.27482424 -58.60107422 282.25878906 C-59.80201721 282.25871353 -61.00296021 282.258638 -62.24029541 282.25856018 C-64.17796783 282.25081825 -64.17796783 282.25081825 -66.15478516 282.24291992 C-67.4942825 282.24105384 -68.83378053 282.23963083 -70.17327881 282.2386322 C-73.69138487 282.23482202 -77.20944937 282.22500458 -80.72753906 282.21392822 C-84.32046954 282.20368184 -87.91340676 282.19912767 -91.50634766 282.1940918 C-98.55063545 282.18338092 -105.59489508 282.16632255 -112.63916016 282.14526367 C-113.1389718 280.88978992 -113.63143715 279.63139017 -114.12084961 278.37182617 C-114.39588821 277.67138184 -114.67092682 276.9709375 -114.95429993 276.24926758 C-115.95395313 273.1781676 -115.92694933 270.35451708 -115.82666016 267.14526367 C-115.79958984 266.01088867 -115.77251953 264.87651367 -115.74462891 263.70776367 C-115.70982422 262.86213867 -115.67501953 262.01651367 -115.63916016 261.14526367 C-114.97916016 261.14526367 -114.31916016 261.14526367 -113.63916016 261.14526367 C-113.54634766 260.30995117 -113.54634766 260.30995117 -113.45166016 259.45776367 C-112.28750498 256.14439895 -110.24457572 254.44051072 -107.63916016 252.14526367 C-104.86625174 251.22096087 -103.11634094 251.00203337 -100.24707031 250.95581055 C-98.92021713 250.93073425 -98.92021713 250.93073425 -97.56655884 250.90515137 C-96.13683243 250.88478821 -96.13683243 250.88478821 -94.67822266 250.86401367 C-93.69550385 250.84560425 -92.71278503 250.82719482 -91.70028687 250.80822754 C-88.55497241 250.74945119 -85.4096033 250.69666294 -82.26416016 250.64526367 C-78.13123564 250.57750043 -73.99847912 250.50378279 -69.86572266 250.42651367 C-68.44206894 250.40615051 -68.44206894 250.40615051 -66.98965454 250.38537598 C-65.65334488 250.36029968 -65.65334488 250.36029968 -64.29003906 250.3347168 C-63.51077057 250.32218872 -62.73150208 250.30966064 -61.92861938 250.29675293 C-59.43179319 250.13154259 -57.08023624 249.68463038 -54.63916016 249.14526367 C-54.63916016 248.48526367 -54.63916016 247.82526367 -54.63916016 247.14526367 C-53.97916016 247.14526367 -53.31916016 247.14526367 -52.63916016 247.14526367 C-51.14083632 240.73084626 -51.41487266 234.26123932 -51.38916016 227.70776367 C-51.36853516 226.39743164 -51.34791016 225.08709961 -51.32666016 223.73706055 C-51.32150391 222.47055664 -51.31634766 221.20405273 -51.31103516 219.89916992 C-51.30168945 218.74747314 -51.29234375 217.59577637 -51.28271484 216.40917969 C-51.6822131 212.75103433 -52.81891504 210.31687558 -54.63916016 207.14526367 C-55.29916016 207.14526367 -55.95916016 207.14526367 -56.63916016 207.14526367 C-56.63916016 206.48526367 -56.63916016 205.82526367 -56.63916016 205.14526367 C-61.55095518 205.21418111 -66.46190218 205.3021662 -71.37304688 205.40771484 C-73.04319849 205.44093637 -74.71346162 205.46897701 -76.38378906 205.49169922 C-78.78710379 205.52529702 -81.18939914 205.57761314 -83.59228516 205.63354492 C-84.33722229 205.63993484 -85.08215942 205.64632477 -85.84967041 205.65290833 C-88.93121804 205.73999361 -91.30382926 205.97769886 -94.07958984 207.36474609 C-97.03503622 210.73889613 -96.75468503 214.78659989 -96.77978516 219.08666992 C-96.79912109 219.9999707 -96.81845703 220.91327148 -96.83837891 221.85424805 C-96.87229877 223.76028341 -96.89046745 225.66666266 -96.89306641 227.57299805 C-97.07539992 234.36252218 -97.07539992 234.36252218 -99.52978516 237.77026367 C-104.08727283 239.78563511 -108.21158457 239.68782202 -113.13916016 239.58276367 C-114.54488281 239.59339844 -114.54488281 239.59339844 -115.97900391 239.60424805 C-124.778758 239.52311556 -124.778758 239.52311556 -128.63916016 236.14526367 C-131.9225981 231.14569765 -130.97277558 224.90279547 -130.95483398 219.14819336 C-130.9517011 217.04771692 -130.97504956 214.94868836 -131.00048828 212.84838867 C-131.08686829 194.91368884 -131.08686829 194.91368884 -124.95166016 188.20776367 C-117.56576204 183.60899692 -111.52046714 182.70920383 -103.00048828 182.8046875 C-101.44791824 182.80403038 -101.44791824 182.80403038 -99.86398315 182.80335999 C-96.46592906 182.80543867 -93.06837735 182.82872669 -89.67041016 182.85229492 C-87.30530059 182.85789413 -84.94018754 182.8621627 -82.57507324 182.86515808 C-76.36737363 182.87658115 -70.1598865 182.9060267 -63.95227051 182.93927002 C-57.61095046 182.97002553 -51.26959589 182.98367513 -44.92822266 182.9987793 C-32.4984421 183.03089866 -20.06881884 183.08206445 -7.63916016 183.14526367 C-7.77804521 179.87409635 -7.92646508 176.60342967 -8.07666016 173.33276367 C-8.11597656 172.40399414 -8.15529297 171.47522461 -8.19580078 170.51831055 C-8.23769531 169.62563477 -8.27958984 168.73295898 -8.32275391 167.81323242 C-8.35941162 166.99105225 -8.39606934 166.16887207 -8.43383789 165.32177734 C-8.57343787 162.9662119 -8.57343787 162.9662119 -9.63916016 160.14526367 C-20.19916016 160.14526367 -30.75916016 160.14526367 -41.63916016 160.14526367 C-41.66421631 157.29474365 -41.68927246 154.44422363 -41.71508789 151.50732422 C-41.79878958 142.05972989 -41.88744508 132.61218664 -41.97849941 123.16466045 C-42.0335222 117.44003296 -42.08690764 111.7154002 -42.13647461 105.99072266 C-42.18442459 100.45990171 -42.23677559 94.92913791 -42.29210091 89.398386 C-42.31238656 87.29463956 -42.33112107 85.19087753 -42.34823418 83.08710289 C-42.35968884 65.17606877 -42.35968884 65.17606877 -44.70166016 47.45776367 C-46.78863757 35.29953918 -47.26334405 22.10258821 -40.45166016 11.33276367 C-35.12493939 4.55039249 -27.61472117 1.95519009 -19.33535767 0.60746765 C-12.9176147 -0.16144479 -6.45343463 -0.00262157 0 0 Z " fill="#E5D9BF" transform="translate(231.63916015625,147.854736328125)"/>
<path d="M0 0 C1.29027351 -0.01226624 1.29027351 -0.01226624 2.60661316 -0.02478027 C5.46657606 -0.04968727 8.32648912 -0.0661649 11.18652344 -0.08056641 C12.16126366 -0.08589008 13.13600388 -0.09121376 14.14028168 -0.09669876 C19.30070714 -0.12345502 24.46110822 -0.14282086 29.62158203 -0.15722656 C34.95619762 -0.17386901 40.29019476 -0.21863641 45.62457657 -0.26959801 C49.72180908 -0.3032364 53.81889434 -0.31480037 57.91625214 -0.32045364 C59.88267486 -0.32717694 61.84908753 -0.3424269 63.81537628 -0.36634445 C66.56883717 -0.3979223 69.32062474 -0.39804385 72.07421875 -0.390625 C72.88688705 -0.40703033 73.69955536 -0.42343567 74.53684998 -0.44033813 C78.81033337 -0.39320906 80.32922835 -0.18443673 83.77850342 2.6043396 C86.29453915 5.83267994 86.91946101 7.37264273 87.0012207 11.3671875 C87.03113853 12.65829941 87.03113853 12.65829941 87.06166077 13.97549438 C87.07837326 14.90574432 87.09508575 15.83599426 87.11230469 16.79443359 C87.13308578 17.74603363 87.15386688 18.69763367 87.17527771 19.67807007 C87.24077977 22.72459541 87.29966124 25.77120853 87.35839844 28.81787109 C87.40158303 30.88038025 87.4451973 32.94288046 87.48925781 35.00537109 C87.59646184 40.06778064 87.69772745 45.13027865 87.79589844 50.19287109 C88.84777344 49.55349609 89.89964844 48.91412109 90.98339844 48.25537109 C98.03560546 44.24336019 106.11216645 44.64182813 114.04589844 44.13037109 C114.72709747 44.08551575 115.40829651 44.0406604 116.11013794 43.9944458 C129.34378402 43.1369122 142.5352916 42.95944132 155.79589844 43.19287109 C157.23782882 48.03144794 155.56928463 50.44744378 153.25292969 54.78662109 C150.17448 59.87060235 146.43802962 63.2766756 140.79589844 65.19287109 C135.3500389 65.43256562 130.81825981 64.28683256 125.85839844 62.13037109 C120.55149004 60.05012374 115.67671413 59.78184236 110.04589844 59.75537109 C109.241604 59.74562256 108.43730957 59.73587402 107.60864258 59.72583008 C102.29450832 59.80115718 98.54332901 60.80011531 93.79589844 63.19287109 C93.72373263 65.50918412 93.72373263 65.50918412 94.79589844 68.19287109 C97.04863389 70.35118051 99.62967236 71.98675437 102.23339844 73.69287109 C103.78499685 74.74765963 105.33574985 75.80369263 106.88574219 76.86083984 C108.09593018 77.6775415 108.09593018 77.6775415 109.33056641 78.51074219 C113.37226243 81.26844526 117.33427004 84.13433609 121.29589844 87.00537109 C122.05177246 87.55161133 122.80764648 88.09785156 123.58642578 88.66064453 C136.94935467 98.34632732 136.94935467 98.34632732 139.79589844 101.19287109 C139.88302816 103.33407021 139.89991735 105.47814494 139.89013672 107.62109375 C139.88734892 109.0138039 139.88467918 110.40651428 139.8821106 111.79922485 C139.8790604 112.54143909 139.87601021 113.28365334 139.87286758 114.04835892 C139.86155144 117.972881 139.88202611 121.8972855 139.89746094 125.82177734 C139.91573167 130.81889914 139.92452225 135.81540564 139.89550781 140.8125 C139.87291553 144.84712209 139.88447145 148.88040228 139.91851425 152.91492844 C139.925269 154.44981878 139.91964295 155.98481747 139.90115738 157.51961136 C139.57577207 165.99177929 139.57577207 165.99177929 142.41204834 173.73553467 C144.1213832 175.45972723 145.76070029 176.87727815 147.79589844 178.19287109 C147.46589844 178.85287109 147.13589844 179.51287109 146.79589844 180.19287109 C144.80363675 180.48207037 142.80867662 180.76551661 140.80371094 180.94677734 C138.59260575 181.1503774 138.59260575 181.1503774 135.79589844 182.19287109 C133.54890732 182.39611652 131.2980011 182.55755162 129.04589844 182.69287109 C127.79421875 182.77923828 126.54253906 182.86560547 125.25292969 182.95458984 C123.33397455 183.08685681 121.41484125 183.21680847 119.49511719 183.33740234 C114.16958174 183.84515849 111.44154365 186.54722588 107.79589844 190.19287109 C106.70349325 191.04156384 105.59718394 191.87243809 104.48339844 192.69287109 C101.83226663 194.66062158 99.19884427 196.64756622 96.58886719 198.66943359 C96.02530518 199.10578125 95.46174316 199.54212891 94.88110352 199.99169922 C93.76646253 200.85604324 92.65296019 201.72185827 91.54077148 202.58935547 C84.59301286 207.96991055 84.59301286 207.96991055 80.79589844 210.19287109 C79.80589844 209.86287109 78.81589844 209.53287109 77.79589844 209.19287109 C77.79589844 208.53287109 77.79589844 207.87287109 77.79589844 207.19287109 C76.58933594 206.75974609 76.58933594 206.75974609 75.35839844 206.31787109 C72.79589844 205.19287109 72.79589844 205.19287109 71.79589844 203.19287109 C70.80589844 202.86287109 69.81589844 202.53287109 68.79589844 202.19287109 C68.13589844 201.53287109 67.47589844 200.87287109 66.79589844 200.19287109 C65.2323819 198.80307861 63.6537503 197.42823324 62.02246094 196.11865234 C59.79589844 194.19287109 59.79589844 194.19287109 57.56933594 191.61083984 C48.43578156 182.41148176 37.74656718 183.08429301 25.5168457 183.03930664 C21.9420594 183.04681035 18.36968696 183.10533931 14.79589844 183.19287109 C15.90610463 180.69490716 16.95619586 179.02226167 18.84762573 177.00915527 C21.35864963 173.37939807 21.26836887 171.20800663 21.21826172 166.81982422 C21.21563324 166.09560776 21.21300476 165.3713913 21.21029663 164.62522888 C21.19735723 162.24098613 21.15651633 159.85804415 21.11621094 157.47412109 C21.10366172 155.81174104 21.09318432 154.14934417 21.08468628 152.48693848 C21.05811548 148.11562544 21.0092724 143.74487426 20.95397949 139.37384033 C20.86765801 132.37813751 20.80821915 125.38228574 20.76189804 118.38621521 C20.74149786 115.94594277 20.70739376 113.50613365 20.67190552 111.06604004 C20.65824491 109.56600353 20.64502754 108.06596289 20.63232422 106.56591797 C20.61581818 105.25973511 20.59931213 103.95355225 20.58230591 102.60778809 C20.79079449 99.27447293 21.20120479 97.11052499 22.79589844 94.19287109 C25.86621094 92.22802734 25.86621094 92.22802734 27.7578125 91.25195312 C29.92830508 90.12406659 31.97155822 88.87220646 34.03808594 87.56396484 C34.78662842 87.09192627 35.5351709 86.6198877 36.30639648 86.13354492 C37.92183718 85.10656832 39.53519246 84.07630587 41.14672852 83.04321289 C45.32498847 80.36779102 49.51511583 77.75425977 53.81542969 75.27880859 C54.60127441 74.811604 55.38711914 74.34439941 56.19677734 73.86303711 C57.68765165 72.97784044 59.19363365 72.11746862 60.71533203 71.28637695 C62.76237546 70.04569235 64.28225473 69.0509161 65.79589844 67.19287109 C66.38943198 64.09834127 66.24410409 61.29966413 65.79589844 58.19287109 C43.91838848 57.35958979 43.91838848 57.35958979 22.79589844 62.19287109 C19.68656473 63.22931566 17.18003252 63.23237334 13.92871094 63.13037109 C11.72941777 63.12719112 11.72941777 63.12719112 9.37402344 63.73583984 C3.58323916 64.76238797 -2.95178745 63.12184641 -8.14160156 60.44287109 C-13.18412061 56.73816322 -15.80586165 52.2519107 -17.20410156 46.19287109 C-17.35460149 42.8517726 -17.3229737 39.53449899 -17.20410156 36.19287109 C-11.03804829 32.76728594 -6.08398003 32.96065406 0.79589844 34.19287109 C1.45589844 34.52287109 2.11589844 34.85287109 2.79589844 35.19287109 C17.3414098 36.82682046 32.16838271 36.5090358 46.78112793 36.72509766 C50.17411595 36.77607985 53.567034 36.83135793 56.95996094 36.88623047 C63.57188373 36.99231798 70.18386021 37.09425514 76.79589844 37.19287109 C76.70874827 35.25453114 76.6005688 33.31712819 76.48339844 31.38037109 C76.42539063 30.30142578 76.36738281 29.22248047 76.30761719 28.11083984 C75.76294024 25.00493388 75.32577709 23.99809178 72.79589844 22.19287109 C70.73475765 21.85560556 70.73475765 21.85560556 68.48730469 22.08349609 C67.24303711 22.15890625 67.24303711 22.15890625 65.97363281 22.23583984 C65.11060547 22.30416016 64.24757813 22.37248047 63.35839844 22.44287109 C62.49923828 22.49572266 61.64007813 22.54857422 60.75488281 22.60302734 C56.96728577 22.85572971 53.47428625 23.2445481 49.79589844 24.19287109 C48.37987204 24.23545835 46.96197889 24.23362161 45.54589844 24.19287109 C42.52734795 24.15328355 39.66038789 24.27410993 36.67089844 24.69287109 C32.98797506 25.16808701 29.50227541 25.19287109 25.79589844 25.19287109 C24.87808594 25.35658203 23.96027344 25.52029297 23.01464844 25.68896484 C19.59410913 26.2244619 16.38051566 26.29067331 12.92089844 26.25537109 C11.76847656 26.24634766 10.61605469 26.23732422 9.42871094 26.22802734 C8.55988281 26.21642578 7.69105469 26.20482422 6.79589844 26.19287109 C6.79589844 25.53287109 6.79589844 24.87287109 6.79589844 24.19287109 C5.90902344 24.11037109 5.02214844 24.02787109 4.10839844 23.94287109 C0.21904703 23.06226323 -1.42962558 22.04233292 -4.20410156 19.19287109 C-7.28118886 13.60852747 -8.54730416 7.52001938 -9.20410156 1.19287109 C-7.15263869 -0.85859178 -2.8224527 0.01464914 0 0 Z " fill="#E4D9BF" transform="translate(17.2041015625,-0.19287109375)"/>
<path d="M0 0 C1.09696198 -0.00287018 2.19392395 -0.00574036 3.3241272 -0.00869751 C5.63536091 -0.01073112 7.9466121 -0.00525067 10.2578125 0.00732422 C13.77123055 0.02335613 17.28349289 0.00746662 20.796875 -0.01171875 C23.05208584 -0.00973559 25.30729598 -0.00589042 27.5625 0 C29.12078018 -0.00910904 29.12078018 -0.00910904 30.71054077 -0.0184021 C37.73794211 0.04842116 45.7347933 0.32146449 51.35995483 5.02578735 C56.71821282 10.62036635 57.65870172 17.20018778 57.70458984 24.76733398 C57.71130707 25.46751648 57.71802429 26.16769897 57.72494507 26.88909912 C57.74380095 29.18265047 57.74784253 31.47590742 57.75 33.76953125 C57.75643527 35.37704077 57.76316416 36.98454915 57.77017212 38.59205627 C57.78211289 41.95340693 57.78585612 45.31465504 57.78466797 48.67602539 C57.78446466 52.96762871 57.81179282 57.25857073 57.84621239 61.55001736 C57.86852537 64.86760945 57.87250421 68.18504329 57.87144852 71.50270271 C57.87379685 73.08424221 57.88257685 74.66578658 57.89811325 76.24725151 C58.03848703 92.00759551 58.03848703 92.00759551 53.4140625 98.3984375 C49.51751008 101.80262607 45.67320263 101.80188378 40.70703125 101.69140625 C39.61893913 101.68503899 39.61893913 101.68503899 38.50886536 101.67854309 C36.20604359 101.66183293 33.90411697 101.6241971 31.6015625 101.5859375 C30.0345179 101.57088066 28.4674595 101.557194 26.90039062 101.54492188 C23.07127293 101.51195481 19.24281916 101.46022742 15.4140625 101.3984375 C16.01267992 103.75014881 16.68330602 106.0843753 17.4140625 108.3984375 C20.39248514 109.88764882 23.45474744 109.57539117 26.72265625 109.609375 C28.20639133 109.63743887 29.69011515 109.66610331 31.17382812 109.6953125 C33.51537823 109.73661228 35.85671703 109.77349541 38.19848633 109.79980469 C40.45698529 109.82738505 42.7145256 109.87324816 44.97265625 109.921875 C45.672733 109.92512787 46.37280975 109.92838074 47.09410095 109.93173218 C49.9524151 110.00413579 51.95073741 110.0808276 54.34545898 111.72241211 C57.25833153 116.29103674 56.19488387 123.24287721 55.4140625 128.3984375 C53.54033226 131.69844002 51.37002849 134.03818914 48.4140625 136.3984375 C47.26779928 135.41977412 46.12206462 134.44049163 44.9765625 133.4609375 C44.33847656 132.91566406 43.70039063 132.37039063 43.04296875 131.80859375 C42.14415101 131.03048055 41.25469722 130.23907222 40.4140625 129.3984375 C39.02465605 129.29185102 37.63001331 129.25225591 36.23657227 129.24072266 C35.34797012 129.23046051 34.45936798 129.22019836 33.5438385 129.20962524 C32.57417648 129.20232391 31.60451447 129.19502258 30.60546875 129.1875 C28.55793511 129.15940267 26.51040919 129.13073806 24.46289062 129.1015625 C21.23088025 129.06049937 17.99900957 129.0236219 14.7668457 128.99707031 C11.65024729 128.96923711 8.53430809 128.92333375 5.41796875 128.875 C4.46652481 128.87174713 3.51508087 128.86849426 2.5348053 128.86514282 C-5.21854944 128.72506684 -14.47959578 127.60678779 -20.5859375 122.3984375 C-24.55771876 116.52634614 -25.19393147 111.10703482 -25.22705078 104.16210938 C-25.24702621 103.16917374 -25.26700165 102.1762381 -25.2875824 101.1532135 C-25.34736091 97.89116534 -25.37823762 94.62965239 -25.40625 91.3671875 C-25.43649568 89.08848979 -25.4675858 86.80980315 -25.4994812 84.53112793 C-25.56124972 79.76346751 -25.60779019 74.99594359 -25.64453125 70.22802734 C-25.69347034 64.12773472 -25.78794518 58.02910561 -25.89482307 51.92958832 C-25.97087184 47.2267608 -26.01882319 42.52395414 -26.05877304 37.82069397 C-26.08196761 35.57198733 -26.11473488 33.32335773 -26.15738297 31.07493591 C-26.21363288 27.92768565 -26.23099571 24.78245961 -26.23876953 21.63476562 C-26.26340775 20.71297012 -26.28804596 19.79117462 -26.31343079 18.84144592 C-26.27511088 12.93017954 -24.95894676 9.57733868 -21.23201752 4.98144722 C-15.45240643 -0.57671547 -7.52208947 -0.04380023 0 0 Z " fill="#E4D9BF" transform="translate(307.5859375,211.6015625)"/>
<path d="M0 0 C2.47840476 2.21547835 4.78960217 4.51801745 7 7 C5.07619505 9.02656011 3.4864111 10.31689528 1.0625 11.8125 C-3.14541253 14.81815181 -5.37198036 18.11594108 -7 23 C-7.10918541 25.81826802 -7.16404811 28.61104851 -7.16796875 31.4296875 C-7.17129715 32.257034 -7.17462555 33.08438049 -7.17805481 33.9367981 C-7.18311614 35.68686365 -7.18546338 37.43693885 -7.18530273 39.18701172 C-7.18748603 41.85791022 -7.20564115 44.52839349 -7.22460938 47.19921875 C-7.22754414 48.90104026 -7.22952838 50.60286372 -7.23046875 52.3046875 C-7.24124702 53.49866653 -7.24124702 53.49866653 -7.25224304 54.71676636 C-7.23813802 58.1585314 -7.17723115 60.57190996 -5.84521484 63.78930664 C-5 66 -5 66 -5.79858398 68.06469727 C-6.27626221 68.72526123 -6.75394043 69.3858252 -7.24609375 70.06640625 C-7.75333984 70.79923828 -8.26058594 71.53207031 -8.78320312 72.28710938 C-9.32912109 73.03798828 -9.87503906 73.78886719 -10.4375 74.5625 C-11.50995772 76.05577941 -12.57170351 77.55682714 -13.62109375 79.06640625 C-14.33930298 80.0555603 -14.33930298 80.0555603 -15.07202148 81.06469727 C-16.19643442 82.96701685 -16.19643442 82.96701685 -15.7487793 85.12963867 C-14.75284015 87.61737581 -13.32886826 88.92437792 -11.375 90.75 C-8.61014139 93.40662571 -5.99076038 96.08454776 -3.5 99 C-0.43863789 102.58214555 2.85697021 105.82919617 6.30078125 109.04296875 C8 111 8 111 10 116 C6.37 118.31 2.74 120.62 -1 123 C3.29 126.3 7.58 129.6 12 133 C8.24722133 140.50555733 -0.19451201 145.25220549 -8 148 C-24.20427367 150.96928175 -44.02999713 151.72572256 -58.1875 142.4375 C-61.73612066 139.36202877 -61.92799187 137.94410658 -62.28125 133.3125 C-62.39730006 131.14356444 -62.50123856 128.97421964 -62.60546875 126.8046875 C-62.77370125 123.66048016 -62.99885537 121.00343388 -64 118 C-74.395 117.505 -74.395 117.505 -85 117 C-85.495 114.03 -85.495 114.03 -86 111 C-85.26885986 110.98541748 -84.53771973 110.97083496 -83.78442383 110.95581055 C-80.45992629 110.8811709 -77.13641533 110.78456199 -73.8125 110.6875 C-72.66201172 110.66494141 -71.51152344 110.64238281 -70.32617188 110.61914062 C-69.21435547 110.58369141 -68.10253906 110.54824219 -66.95703125 110.51171875 C-65.42526245 110.47244263 -65.42526245 110.47244263 -63.86254883 110.43237305 C-60.48245986 109.92182827 -58.607474 109.22520179 -56 107 C-55.31054068 104.20587825 -55.31054068 104.20587825 -55.51171875 101.01953125 C-55.53045044 99.44715698 -55.53045044 99.44715698 -55.54956055 97.84301758 C-55.59508057 96.51294678 -55.64060059 95.18287598 -55.6875 93.8125 C-55.790625 89.584375 -55.89375 85.35625 -56 81 C-66.89 80.67 -77.78 80.34 -89 80 C-89 76.37 -89 72.74 -89 69 C-88.17798096 68.98541748 -87.35596191 68.97083496 -86.5090332 68.95581055 C-82.77638677 68.88123667 -79.04462541 68.78460488 -75.3125 68.6875 C-74.01892578 68.66494141 -72.72535156 68.64238281 -71.39257812 68.61914062 C-70.14541016 68.58369141 -68.89824219 68.54824219 -67.61328125 68.51171875 C-65.89298706 68.47244263 -65.89298706 68.47244263 -64.13793945 68.43237305 C-60.65023998 67.95180697 -58.77063033 67.1522161 -56 65 C-54.21630371 62.09248149 -53.74277681 59.88201583 -53.70947266 56.49438477 C-53.69671295 55.60989151 -53.68395325 54.72539825 -53.67080688 53.81410217 C-53.66858124 52.86611252 -53.66635559 51.91812286 -53.6640625 50.94140625 C-53.6574057 49.96010239 -53.6507489 48.97879852 -53.64389038 47.96775818 C-53.63377358 45.89413323 -53.62907306 43.82047578 -53.62939453 41.74682617 C-53.62502059 38.5774162 -53.58868814 35.40939811 -53.55078125 32.24023438 C-53.54491304 30.22396309 -53.54094368 28.2076852 -53.5390625 26.19140625 C-53.52469147 25.24544083 -53.51032043 24.2994754 -53.49551392 23.32484436 C-53.52513337 19.05205653 -53.60456595 16.64902874 -55.86767578 12.93457031 C-58.29815367 10.72949741 -60.08219851 9.97945037 -63.25 9.1875 C-64.14203125 8.95417969 -65.0340625 8.72085937 -65.953125 8.48046875 C-66.96632813 8.24263672 -66.96632813 8.24263672 -68 8 C-65.8832669 3.98934781 -63.61074516 1.70805887 -60 -1 C-59.566875 -1.47050781 -59.13375 -1.94101562 -58.6875 -2.42578125 C-41.72147138 -18.25288665 -16.66510182 -12.41511449 0 0 Z M-32 85 C-35.96 93.91 -35.96 93.91 -40 103 C-37.421875 102.38125 -34.84375 101.7625 -32.1875 101.125 C-30.97549927 100.83906982 -30.97549927 100.83906982 -29.73901367 100.54736328 C-26.35762195 99.71845356 -23.92154933 98.94769955 -21 97 C-22.64232261 94.99702215 -24.28861244 92.99756092 -25.9375 91 C-26.40607422 90.42765625 -26.87464844 89.8553125 -27.35742188 89.265625 C-28.54934328 87.82502935 -29.77232588 86.41025129 -31 85 C-31.33 85 -31.66 85 -32 85 Z M-17 116 C-19.64 120.62 -22.28 125.24 -25 130 C-18.4 130 -11.8 130 -5 130 C-7.26723846 126.22126924 -9.23551858 123.40218136 -12.125 120.1875 C-13.18074219 119.00220703 -13.18074219 119.00220703 -14.2578125 117.79296875 C-14.83273438 117.20128906 -15.40765625 116.60960937 -16 116 C-16.33 116 -16.66 116 -17 116 Z M-49 117 C-50.00508801 118.78881736 -51.00392736 120.58114696 -52 122.375 C-52.556875 123.37273437 -53.11375 124.37046875 -53.6875 125.3984375 C-55.15014268 127.81195509 -55.15014268 127.81195509 -55 130 C-49.06 130 -43.12 130 -37 130 C-38.32 128.02 -39.64 126.04 -41 124 C-41.66 124 -42.32 124 -43 124 C-43.28875 123.401875 -43.5775 122.80375 -43.875 122.1875 C-45.04742026 119.80672208 -45.04742026 119.80672208 -47 117 C-47.66 117 -48.32 117 -49 117 Z " fill="#E5D9BF" transform="translate(107,322)"/>
<path d="M0 0 C1.01106812 -0.00204437 2.02213623 -0.00408875 3.06384277 -0.00619507 C6.3934158 -0.00919242 9.72248798 0.00926101 13.05200195 0.02832031 C15.38922504 0.03138326 17.72644995 0.0332553 20.06367493 0.03399658 C24.96520984 0.03859512 29.86658008 0.05299138 34.76806641 0.07519531 C40.99184152 0.1032731 47.21548623 0.11438802 53.43931866 0.11887741 C59.43522925 0.12408927 65.43110858 0.13859476 71.42700195 0.15332031 C73.10208611 0.1561414 73.10208611 0.1561414 74.81101036 0.15901947 C89.10327342 0.19007603 103.33300748 0.54224068 117.6027832 1.35644531 C116.2104738 13.47492043 112.33947959 23.61974892 103.6027832 32.35644531 C102.9427832 32.35644531 102.2827832 32.35644531 101.6027832 32.35644531 C100.6127832 33.34644531 100.6127832 33.34644531 99.6027832 34.35644531 C93.2094546 36.6949447 86.96610065 37.53102547 80.1809082 37.44238281 C78.32320801 37.42377197 78.32320801 37.42377197 76.42797852 37.40478516 C75.49566406 37.38883301 74.56334961 37.37288086 73.6027832 37.35644531 C73.6342041 39.05003174 73.6342041 39.05003174 73.66625977 40.77783203 C73.73922788 45.00833207 73.78478733 49.23877768 73.82250977 53.46972656 C73.84249685 55.29306424 73.86969606 57.11633887 73.90454102 58.93945312 C74.14906315 72.07173006 73.99432902 82.59689654 64.53637695 92.66503906 C58.68262276 97.78559576 52.27361156 99.48600588 44.64086914 99.4699707 C43.43992615 99.46989517 42.23898315 99.46981964 41.00164795 99.46974182 C39.06397552 99.46199989 39.06397552 99.46199989 37.0871582 99.45410156 C35.74766086 99.45223548 34.40816283 99.45081247 33.06866455 99.44981384 C29.55055849 99.44600366 26.03249399 99.43618622 22.5144043 99.42510986 C18.92147382 99.41486348 15.32853659 99.41030931 11.7355957 99.40527344 C4.69130791 99.39456256 -2.35295172 99.37750419 -9.3972168 99.35644531 C-9.89702844 98.10097156 -10.38949379 96.84257181 -10.87890625 95.58300781 C-11.15394485 94.88256348 -11.42898346 94.18211914 -11.71235657 93.46044922 C-12.71200977 90.38934924 -12.68500597 87.56569872 -12.5847168 84.35644531 C-12.55764648 83.22207031 -12.53057617 82.08769531 -12.50268555 80.91894531 C-12.46788086 80.07332031 -12.43307617 79.22769531 -12.3972168 78.35644531 C-11.7372168 78.35644531 -11.0772168 78.35644531 -10.3972168 78.35644531 C-10.3353418 77.79957031 -10.2734668 77.24269531 -10.2097168 76.66894531 C-9.04556162 73.35558059 -7.00263236 71.65169236 -4.3972168 69.35644531 C-1.62430838 68.43214251 0.12560242 68.21321501 2.99487305 68.16699219 C3.87944183 68.15027466 4.76401062 68.13355713 5.67538452 68.11633301 C6.62853546 68.10275757 7.5816864 68.08918213 8.5637207 68.07519531 C9.54643951 68.05678589 10.52915833 68.03837646 11.54165649 68.01940918 C14.68697095 67.96063283 17.83234006 67.90784458 20.9777832 67.85644531 C25.11070772 67.78868207 29.24346424 67.71496443 33.3762207 67.63769531 C34.32532318 67.62411987 35.27442566 67.61054443 36.25228882 67.59655762 C37.14316193 67.57984009 38.03403503 67.56312256 38.9519043 67.54589844 C40.12080704 67.52710632 40.12080704 67.52710632 41.31332397 67.50793457 C43.81015017 67.34272423 46.16170712 66.89581202 48.6027832 66.35644531 C48.6027832 65.69644531 48.6027832 65.03644531 48.6027832 64.35644531 C49.2627832 64.35644531 49.9227832 64.35644531 50.6027832 64.35644531 C52.10110704 57.9420279 51.82707069 51.47242096 51.8527832 44.91894531 C51.8734082 43.60861328 51.8940332 42.29828125 51.9152832 40.94824219 C51.92043945 39.68173828 51.9255957 38.41523438 51.9309082 37.11035156 C51.94025391 35.95865479 51.94959961 34.80695801 51.95922852 33.62036133 C51.55973026 29.96221597 50.42302832 27.52805722 48.6027832 24.35644531 C47.9427832 24.35644531 47.2827832 24.35644531 46.6027832 24.35644531 C46.6027832 23.69644531 46.6027832 23.03644531 46.6027832 22.35644531 C41.69098818 22.42536275 36.78004118 22.51334784 31.86889648 22.61889648 C30.19874487 22.65211801 28.52848174 22.68015865 26.8581543 22.70288086 C24.45483957 22.73647866 22.05254422 22.78879478 19.6496582 22.84472656 C18.90472107 22.85111649 18.15978394 22.85750641 17.39227295 22.86408997 C14.31072532 22.95117526 11.9381141 23.18888051 9.16235352 24.57592773 C6.20690714 27.95007777 6.48725833 31.99778153 6.4621582 36.29785156 C6.44282227 37.21115234 6.42348633 38.12445313 6.40356445 39.06542969 C6.36964459 40.97146505 6.35147591 42.8778443 6.34887695 44.78417969 C6.16654344 51.57370382 6.16654344 51.57370382 3.7121582 54.98144531 C-0.84532947 56.99681675 -4.96964121 56.89900366 -9.8972168 56.79394531 C-11.30293945 56.80458008 -11.30293945 56.80458008 -12.73706055 56.81542969 C-21.53681464 56.7342972 -21.53681464 56.7342972 -25.3972168 53.35644531 C-28.68065474 48.35687929 -27.73083223 42.11397711 -27.71289062 36.359375 C-27.70975774 34.25889856 -27.7331062 32.15987 -27.75854492 30.05957031 C-27.84492493 12.12487049 -27.84492493 12.12487049 -21.7097168 5.41894531 C-14.41289683 0.87564232 -8.41714092 -0.08262058 0 0 Z " fill="#DEA65A" transform="translate(128.397216796875,330.6435546875)"/>
<path d="M0 0 C0 37.62 0 75.24 0 114 C-5.94 114.495 -5.94 114.495 -12 115 C-13.32 115.33 -14.64 115.66 -16 116 C-17.66222222 116.04232233 -19.32601948 116.03683318 -20.98828125 115.99609375 C-26.02386206 115.94861185 -30.93321571 116.29196538 -35.94360352 116.76293945 C-47.68977941 117.84765066 -59.28499155 118.14239692 -71.0625 117.8125 C-71.73832123 117.79784698 -72.41414246 117.78319397 -73.11044312 117.76809692 C-85.57746724 117.47442646 -94.89308098 115.92243252 -104.625 107.8125 C-113.00933074 97.88368728 -113.31152553 84.74454678 -113.1953125 72.33203125 C-113.1924826 71.17120529 -113.18965271 70.01037933 -113.18673706 68.81437683 C-113.17564091 65.14697474 -113.15055629 61.4798269 -113.125 57.8125 C-113.11495654 55.30924835 -113.10583309 52.80599282 -113.09765625 50.30273438 C-113.07573629 44.20173779 -113.0423656 38.10088707 -113 32 C-109.06287813 33.82075671 -106.36663961 36.37649498 -103.359375 39.4453125 C-102.56880707 40.24012527 -102.56880707 40.24012527 -101.76226807 41.05099487 C-100.08674325 42.73767825 -98.41832278 44.43119564 -96.75 46.125 C-95.61244149 47.27259388 -94.47442564 48.41973461 -93.3359375 49.56640625 C-90.55196535 52.37238137 -87.7743424 55.18450464 -85 58 C-81.87526564 56.51160662 -79.73992348 54.98534464 -77.3125 52.5 C-76.71050781 51.8915625 -76.10851562 51.283125 -75.48828125 50.65625 C-73.91687598 49.0547309 -73.91687598 49.0547309 -73 47 C-72.34 47 -71.68 47 -71 47 C-71 46.34 -71 45.68 -71 45 C-70.34 45 -69.68 45 -69 45 C-69 44.34 -69 43.68 -69 43 C-68.34 43 -67.68 43 -67 43 C-67 42.34 -67 41.68 -67 41 C-66.34 41 -65.68 41 -65 41 C-65 40.34 -65 39.68 -65 39 C-64.34 39 -63.68 39 -63 39 C-63 38.34 -63 37.68 -63 37 C-62.34 37 -61.68 37 -61 37 C-61 36.34 -61 35.68 -61 35 C-60.34 35 -59.68 35 -59 35 C-59 34.34 -59 33.68 -59 33 C-58.34 33 -57.68 33 -57 33 C-57 32.34 -57 31.68 -57 31 C-55.28515625 29.2734375 -55.28515625 29.2734375 -53.0625 27.375 C-52.33160156 26.74335938 -51.60070312 26.11171875 -50.84765625 25.4609375 C-49 24 -49 24 -48 24 C-47.98541748 25.31605225 -47.97083496 26.63210449 -47.95581055 27.98803711 C-47.89753701 32.90285477 -47.82030677 37.81722815 -47.73754883 42.73168945 C-47.70443565 44.85270947 -47.676362 46.97381473 -47.65356445 49.0949707 C-47.61976731 52.15612884 -47.56743951 55.21651538 -47.51171875 58.27734375 C-47.50532883 59.21521225 -47.4989389 60.15308075 -47.49235535 61.11936951 C-47.3635132 66.9792125 -46.83696335 72.7545842 -44 78 C-38.67368675 80.66315662 -31.67874529 81.06381627 -25.90625 79.39453125 C-22.27002937 77.99576951 -22.27002937 77.99576951 -20 75 C-19.34 75 -18.68 75 -18 75 C-17.99857498 74.24324478 -17.99714996 73.48648956 -17.99568176 72.70680237 C-17.97778318 65.54249937 -17.9359689 58.37890902 -17.86790943 51.214921 C-17.83375347 47.53260363 -17.80854743 43.8506961 -17.80444336 40.16821289 C-17.80013557 36.60813128 -17.77147158 33.04897236 -17.72656822 29.48917961 C-17.707435 27.48372588 -17.71292643 25.4780854 -17.71894836 23.47254944 C-17.58290978 14.8807068 -16.27716062 8.84548774 -10.52229309 2.32594299 C-7.1787592 -0.5863315 -4.50019365 0 0 0 Z " fill="#E4D9BF" transform="translate(184,192)"/>
<path d="M0 0 C1.29027351 -0.01226624 1.29027351 -0.01226624 2.60661316 -0.02478027 C5.46657606 -0.04968727 8.32648912 -0.0661649 11.18652344 -0.08056641 C12.16126366 -0.08589008 13.13600388 -0.09121376 14.14028168 -0.09669876 C19.30070714 -0.12345502 24.46110822 -0.14282086 29.62158203 -0.15722656 C34.95619762 -0.17386901 40.29019476 -0.21863641 45.62457657 -0.26959801 C49.72180908 -0.3032364 53.81889434 -0.31480037 57.91625214 -0.32045364 C59.88267486 -0.32717694 61.84908753 -0.3424269 63.81537628 -0.36634445 C66.56883717 -0.3979223 69.32062474 -0.39804385 72.07421875 -0.390625 C72.88688705 -0.40703033 73.69955536 -0.42343567 74.53684998 -0.44033813 C78.81033337 -0.39320906 80.32922835 -0.18443673 83.77850342 2.6043396 C86.29453915 5.83267994 86.91946101 7.37264273 87.0012207 11.3671875 C87.03113853 12.65829941 87.03113853 12.65829941 87.06166077 13.97549438 C87.07837326 14.90574432 87.09508575 15.83599426 87.11230469 16.79443359 C87.13308578 17.74603363 87.15386688 18.69763367 87.17527771 19.67807007 C87.24077977 22.72459541 87.29966124 25.77120853 87.35839844 28.81787109 C87.40158303 30.88038025 87.4451973 32.94288046 87.48925781 35.00537109 C87.59646184 40.06778064 87.69772745 45.13027865 87.79589844 50.19287109 C88.84777344 49.55349609 89.89964844 48.91412109 90.98339844 48.25537109 C98.03560546 44.24336019 106.11216645 44.64182813 114.04589844 44.13037109 C114.72709747 44.08551575 115.40829651 44.0406604 116.11013794 43.9944458 C129.34378402 43.1369122 142.5352916 42.95944132 155.79589844 43.19287109 C157.23782882 48.03144794 155.56928463 50.44744378 153.25292969 54.78662109 C150.17448 59.87060235 146.43802962 63.2766756 140.79589844 65.19287109 C135.3500389 65.43256562 130.81825981 64.28683256 125.85839844 62.13037109 C120.55149004 60.05012374 115.67671413 59.78184236 110.04589844 59.75537109 C109.241604 59.74562256 108.43730957 59.73587402 107.60864258 59.72583008 C102.33533504 59.80057846 98.36206768 60.46153688 93.79589844 63.19287109 C93.46589844 64.84287109 93.13589844 66.49287109 92.79589844 68.19287109 C84.54589844 68.19287109 76.29589844 68.19287109 67.79589844 68.19287109 C65.80034684 64.2017679 65.60043779 62.49300544 65.79589844 58.19287109 C43.91838848 57.35958979 43.91838848 57.35958979 22.79589844 62.19287109 C19.68656473 63.22931566 17.18003252 63.23237334 13.92871094 63.13037109 C11.72941777 63.12719112 11.72941777 63.12719112 9.37402344 63.73583984 C3.58323916 64.76238797 -2.95178745 63.12184641 -8.14160156 60.44287109 C-13.18412061 56.73816322 -15.80586165 52.2519107 -17.20410156 46.19287109 C-17.35460149 42.8517726 -17.3229737 39.53449899 -17.20410156 36.19287109 C-11.03804829 32.76728594 -6.08398003 32.96065406 0.79589844 34.19287109 C1.45589844 34.52287109 2.11589844 34.85287109 2.79589844 35.19287109 C17.3414098 36.82682046 32.16838271 36.5090358 46.78112793 36.72509766 C50.17411595 36.77607985 53.567034 36.83135793 56.95996094 36.88623047 C63.57188373 36.99231798 70.18386021 37.09425514 76.79589844 37.19287109 C76.70874827 35.25453114 76.6005688 33.31712819 76.48339844 31.38037109 C76.42539063 30.30142578 76.36738281 29.22248047 76.30761719 28.11083984 C75.76294024 25.00493388 75.32577709 23.99809178 72.79589844 22.19287109 C70.73475765 21.85560556 70.73475765 21.85560556 68.48730469 22.08349609 C67.24303711 22.15890625 67.24303711 22.15890625 65.97363281 22.23583984 C65.11060547 22.30416016 64.24757813 22.37248047 63.35839844 22.44287109 C62.49923828 22.49572266 61.64007813 22.54857422 60.75488281 22.60302734 C56.96728577 22.85572971 53.47428625 23.2445481 49.79589844 24.19287109 C48.37987204 24.23545835 46.96197889 24.23362161 45.54589844 24.19287109 C42.52734795 24.15328355 39.66038789 24.27410993 36.67089844 24.69287109 C32.98797506 25.16808701 29.50227541 25.19287109 25.79589844 25.19287109 C24.87808594 25.35658203 23.96027344 25.52029297 23.01464844 25.68896484 C19.59410913 26.2244619 16.38051566 26.29067331 12.92089844 26.25537109 C11.76847656 26.24634766 10.61605469 26.23732422 9.42871094 26.22802734 C8.55988281 26.21642578 7.69105469 26.20482422 6.79589844 26.19287109 C6.79589844 25.53287109 6.79589844 24.87287109 6.79589844 24.19287109 C5.90902344 24.11037109 5.02214844 24.02787109 4.10839844 23.94287109 C0.21904703 23.06226323 -1.42962558 22.04233292 -4.20410156 19.19287109 C-7.28118886 13.60852747 -8.54730416 7.52001938 -9.20410156 1.19287109 C-7.15263869 -0.85859178 -2.8224527 0.01464914 0 0 Z " fill="#DD5C48" transform="translate(17.2041015625,-0.19287109375)"/>
<path d="M0 0 C2.80881509 1.28721504 4.92788567 2.65863741 7.1640625 4.78515625 C7.72867188 5.31560547 8.29328125 5.84605469 8.875 6.39257812 C9.4525 6.94365234 10.03 7.49472656 10.625 8.0625 C14.49326309 11.96570729 14.49326309 11.96570729 19 15 C19 15.66 19 16.32 19 17 C19.53246338 17.22751953 20.06492676 17.45503906 20.61352539 17.68945312 C26.6216011 20.98882401 33.50080373 26.33129618 35.67218018 33.09326172 C36.48224933 37.74583419 36.41195859 42.36297705 36.17993164 47.06640625 C36.06122208 49.52648293 36.03638484 51.97479669 36.02539062 54.4375 C35.99234738 56.0105386 35.95412617 57.5834789 35.91015625 59.15625 C35.89239891 60.24999939 35.89239891 60.24999939 35.87428284 61.36584473 C35.66257519 65.12872096 35.31090373 66.69761717 32.56811523 69.36523438 C31.72063721 69.90470703 30.87315918 70.44417969 30 71 C29.34 71.66 28.68 72.32 28 73 C26.90759481 73.84869275 25.80128551 74.67956699 24.6875 75.5 C22.03636819 77.46775048 19.40294584 79.45469513 16.79296875 81.4765625 C16.22940674 81.91291016 15.66584473 82.34925781 15.08520508 82.79882812 C13.97056409 83.66317214 12.85706176 84.52898718 11.74487305 85.39648438 C4.79711442 90.77703946 4.79711442 90.77703946 1 93 C0.01 92.67 -0.98 92.34 -2 92 C-2 91.34 -2 90.68 -2 90 C-2.804375 89.71125 -3.60875 89.4225 -4.4375 89.125 C-7 88 -7 88 -8 86 C-9.485 85.505 -9.485 85.505 -11 85 C-11.66 84.34 -12.32 83.68 -13 83 C-14.3921875 81.7625 -14.3921875 81.7625 -15.8125 80.5 C-16.42367676 79.95512939 -17.03485352 79.41025879 -17.66455078 78.84887695 C-20.05868526 76.86703133 -20.05868526 76.86703133 -23.20654297 75.11010742 C-31.93120678 69.79788389 -31.93120678 69.79788389 -33.74728394 65.04376221 C-34.69525784 60.46101873 -34.63797894 55.9061362 -34.42016602 51.24926758 C-34.31202785 48.80181391 -34.31751357 46.37324801 -34.33789062 43.92382812 C-34.23006322 32.84566064 -34.23006322 32.84566064 -31.40771484 28.61083984 C-29.37149433 26.84644852 -27.26631526 25.45237265 -25 24 C-23.63365489 22.72190178 -22.3002509 21.40778124 -21 20.0625 C-20.34 19.39476562 -19.68 18.72703125 -19 18.0390625 C-18.34 17.36617187 -17.68 16.69328125 -17 16 C-12.34163887 11.25065525 -7.6142931 6.68429485 -2.56640625 2.34765625 C-1.68751602 1.59150381 -0.81982149 0.81982149 0 0 Z " fill="#575138" transform="translate(97,117)"/>
<path d="M0 0 C6 0 6 0 8.1171875 1.53125 C8.98730469 2.50578125 8.98730469 2.50578125 9.875 3.5 C10.76832031 4.47453125 10.76832031 4.47453125 11.6796875 5.46875 C12.33324219 6.22671875 12.33324219 6.22671875 13 7 C16.44086718 5.4707257 19.09239931 3.37237071 22 1 C22.09309011 8.53707979 22.16396136 16.0740992 22.20724869 23.61162472 C22.2280352 27.11246632 22.25618599 30.61291173 22.30175781 34.11352539 C22.35393628 38.14733466 22.37301886 42.18073428 22.390625 46.21484375 C22.41127014 47.45894516 22.43191528 48.70304657 22.45318604 49.98484802 C22.45498519 57.01502105 22.00940861 63.02822514 18 69 C13.49910314 72.67420152 9.85876381 74.10701406 4.1171875 74.18945312 C3.12605957 74.20617065 2.13493164 74.22288818 1.11376953 74.2401123 C0.04497559 74.25368774 -1.02381836 74.26726318 -2.125 74.28125 C-3.22344238 74.29965942 -4.32188477 74.31806885 -5.45361328 74.33703613 C-10.16103292 74.41578292 -14.86859771 74.48347077 -19.57617188 74.55224609 C-23.00918677 74.60395956 -26.44207854 74.66121571 -29.875 74.71875 C-30.94379395 74.73232544 -32.01258789 74.74590088 -33.11376953 74.7598877 C-34.10489746 74.77660522 -35.09602539 74.79332275 -36.1171875 74.81054688 C-36.98972168 74.82307495 -37.86225586 74.83560303 -38.76123047 74.84851074 C-41.17105379 74.91731857 -41.17105379 74.91731857 -44 76 C-45.69154098 75.91274913 -47.3800979 75.75857852 -49.0625 75.5625 C-54.39831696 75.00757504 -59.64010521 74.89535997 -65 75 C-67.23891142 80.45126259 -68.47606294 85.13190493 -69 91 C-70.37562854 89.71034824 -71.70766393 88.37310707 -73 87 C-73 86.34 -73 85.68 -73 85 C-73.66 84.67 -74.32 84.34 -75 84 C-76.27368421 76.82105263 -76.27368421 76.82105263 -75 73 C-76.1446875 72.5978125 -76.1446875 72.5978125 -77.3125 72.1875 C-79.87380884 71.05575888 -81.19692938 70.08776599 -83 68 C-86.37797179 70.61025093 -87.23121744 73.96460076 -88 78 C-88.22160074 81.15252627 -88.19116682 84.279307 -88.125 87.4375 C-88.11597656 88.26443359 -88.10695312 89.09136719 -88.09765625 89.94335938 C-88.07431512 91.96236708 -88.03845288 93.98122356 -88 96 C-91.5852716 93.60981893 -92.0974124 92.00190623 -93.6875 88.0625 C-94.12449219 87.00160156 -94.56148437 85.94070313 -95.01171875 84.84765625 C-96 82 -96 82 -96 79 C-96.66 78.67 -97.32 78.34 -98 78 C-99.16573238 73.45228823 -98.91304463 69.55369706 -98.25 64.9375 C-98.09015625 63.75027344 -97.9303125 62.56304687 -97.765625 61.33984375 C-96.72033394 56.78002817 -95.4267143 53.90474565 -91.4375 51.375 C-90.633125 50.92125 -89.82875 50.4675 -89 50 C-88.34 49.01 -87.68 48.02 -87 47 C-84.22170601 46.68397858 -81.66137215 46.56261576 -78.87841797 46.56762695 C-78.03931885 46.5574353 -77.20021973 46.54724365 -76.33569336 46.53674316 C-73.55445799 46.50648164 -70.77356624 46.49732729 -67.9921875 46.48828125 C-66.06689294 46.47144429 -64.14160943 46.4532954 -62.21633911 46.43388367 C-57.14304052 46.38627067 -52.06978674 46.35653454 -46.99633789 46.33044434 C-40.91227524 46.29546752 -34.82838481 46.2384229 -28.74446106 46.18505096 C-19.49632874 46.10640469 -10.24842389 46.05589919 -1 46 C-0.67 30.82 -0.34 15.64 0 0 Z " fill="#DDA65A" transform="translate(341,341)"/>
<path d="M0 0 C0.86768005 0.00091141 1.73536011 0.00182281 2.6293335 0.00276184 C3.5223114 -0.00152328 4.41528931 -0.00580841 5.33532715 -0.01022339 C7.22840527 -0.01597394 9.1215055 -0.01646163 11.0145874 -0.01213074 C13.90088112 -0.00898452 16.78613639 -0.03237256 19.67230225 -0.05778503 C21.51214471 -0.06005944 23.35198992 -0.06076087 25.1918335 -0.05973816 C26.48120819 -0.07355278 26.48120819 -0.07355278 27.79663086 -0.08764648 C34.11147621 -0.03932138 38.17569798 1.08014295 43.01800537 5.38581848 C45.40355025 9.58335189 45.25040777 13.23469869 45.2074585 17.98713684 C45.2112854 18.92026199 45.2151123 19.85338715 45.21905518 20.81478882 C45.22177161 22.78411439 45.21442922 24.75347621 45.19769287 26.72273254 C45.17630342 29.72770694 45.19749103 32.73028402 45.2230835 35.73518372 C45.2204397 37.65250668 45.21531365 39.56982815 45.2074585 41.48713684 C45.21555542 42.38105637 45.22365234 43.27497589 45.23199463 44.19598389 C45.14998695 49.68738711 44.45427253 53.02326283 40.6762085 57.30354309 C37.0339394 60.19877376 32.37987212 59.62735494 27.93011475 59.63948059 C26.65792336 59.64946579 26.65792336 59.64946579 25.36003113 59.65965271 C23.56887985 59.66976331 21.77769102 59.67447022 19.98651123 59.67414856 C17.25158468 59.6785225 14.51827163 59.71485933 11.78363037 59.75276184 C10.04079733 59.75863027 8.29795665 59.76259949 6.55511475 59.76448059 C5.740392 59.77885162 4.92566925 59.79322266 4.08625793 59.80802917 C0.08734171 59.77596963 -1.85809949 59.59982002 -5.31622314 57.3997345 C-8.28490762 54.29999901 -8.45124216 52.61154285 -8.46905518 48.42658997 C-8.47543503 47.41213806 -8.48181488 46.39768616 -8.48838806 45.35249329 C-8.48950089 44.25352722 -8.49061371 43.15456116 -8.49176025 42.02229309 C-8.49508865 40.89786804 -8.49841705 39.77344299 -8.50184631 38.61494446 C-8.50691562 36.2342927 -8.50925464 33.85363383 -8.50909424 31.47297668 C-8.51128241 27.81872446 -8.52944297 24.16477317 -8.54840088 20.51057434 C-8.55133438 18.20198163 -8.55331946 15.89338748 -8.55426025 13.58479309 C-8.56144577 12.48582703 -8.56863129 11.38686096 -8.57603455 10.2545929 C-8.57295792 9.24014099 -8.56988129 8.22568909 -8.56671143 7.18049622 C-8.56813644 6.28496033 -8.56956146 5.38942444 -8.57102966 4.4667511 C-7.98771142 -0.63698649 -4.25606121 0.05062664 0 0 Z " fill="#DDA65A" transform="translate(8.32379150390625,330.6964569091797)"/>
<path d="M0 0 C-2.95858104 3.97878139 -6.12732492 7.02120639 -10 10.125 C-23.77983561 21.17469415 -36.98741923 33.69197617 -48.40234375 47.1796875 C-51.42434712 50.62285026 -54.72395671 53.80053954 -58 57 C-60.83867455 55.71330694 -62.84840678 54.38607744 -65.00512695 52.14257812 C-65.56283279 51.56858276 -66.12053864 50.9945874 -66.69514465 50.40319824 C-67.28687973 49.78545532 -67.87861481 49.1677124 -68.48828125 48.53125 C-69.76453434 47.2248308 -71.04124132 45.91885489 -72.31835938 44.61328125 C-74.31820124 42.55771775 -76.3138991 40.49854474 -78.30151367 38.43115234 C-80.22750275 36.43236283 -82.16905413 34.44978196 -84.11328125 32.46875 C-84.69894363 31.85100708 -85.28460602 31.23326416 -85.88801575 30.59680176 C-89.78529089 26.65257316 -92.61429844 25.23465023 -98 24 C-99.1875 22 -99.1875 22 -100 20 C-101.78228936 18.85790183 -101.78228936 18.85790183 -104 18 C-106 17 -108 16 -110 15 C-110 14.34 -110 13.68 -110 13 C-110.886875 12.773125 -111.77375 12.54625 -112.6875 12.3125 C-116.49785801 10.80273551 -118.26950506 9.01791547 -121 6 C-122.3284937 4.66184453 -123.66102897 3.3276717 -125 2 C-120.50200327 1.77496553 -116.00710791 1.61306678 -111.50512695 1.50561523 C-109.97915503 1.4607668 -108.45356057 1.39965662 -106.92895508 1.32104492 C-98.66963675 0.90631709 -92.54180684 0.71327335 -85.84375 6.1796875 C-84.20151806 7.75818872 -82.5836519 9.36273444 -81 11 C-79.80109274 12.0403064 -78.59071057 13.0677232 -77.36328125 14.07421875 C-76.8528125 14.51161377 -76.34234375 14.94900879 -75.81640625 15.3996582 C-74.22493422 16.76248531 -72.62354892 18.11290543 -71.01953125 19.4609375 C-69.19424454 20.99578402 -67.37669781 22.53999449 -65.57421875 24.1015625 C-64.54748047 24.94847656 -64.54748047 24.94847656 -63.5 25.8125 C-62.9328125 26.29332031 -62.365625 26.77414063 -61.78125 27.26953125 C-59.93015966 28.23293933 -59.93015966 28.23293933 -57.59765625 27.41015625 C-54.62463302 25.79622935 -52.41328285 23.92858775 -49.9375 21.625 C-49.10089844 20.85414063 -48.26429687 20.08328125 -47.40234375 19.2890625 C-45.83857517 17.7990326 -44.30732012 16.27386331 -42.81640625 14.7109375 C-41 13 -41 13 -39 13 C-39 12.34 -39 11.68 -39 11 C-33.8459176 4.7919367 -28.7640006 1.63646024 -20.87036133 0.65625 C-13.90742091 0.04586015 -6.98699321 -0.04881133 0 0 Z " fill="#585238" transform="translate(159,188)"/>
<path d="M0 0 C4.04135587 1.59930434 6.67907152 4.48660409 9.625 7.5625 C12.96402902 11.22714016 12.96402902 11.22714016 17 14 C17 14.66 17 15.32 17 16 C17.58789307 16.26119629 18.17578613 16.52239258 18.78149414 16.79150391 C21.13027788 18.07096682 22.63717037 19.42263833 24.49609375 21.3359375 C25.13740234 21.98820312 25.77871094 22.64046875 26.43945312 23.3125 C27.09880859 23.993125 27.75816406 24.67375 28.4375 25.375 C34.41881444 31.51534695 34.41881444 31.51534695 41 37 C39.68692628 39.89852365 38.27315362 41.98277217 36.03125 44.234375 C35.46019531 44.80800781 34.88914063 45.38164062 34.30078125 45.97265625 C33.70652344 46.55917969 33.11226562 47.14570313 32.5 47.75 C31.90574219 48.35199219 31.31148437 48.95398438 30.69921875 49.57421875 C30.12816406 50.14269531 29.55710938 50.71117187 28.96875 51.296875 C28.44732422 51.81604492 27.92589844 52.33521484 27.38867188 52.87011719 C26 54 26 54 24 54 C24 65.55 24 77.1 24 89 C13.44 89 2.88 89 -8 89 C-6 85 -6 85 -3.90139771 82.71081543 C-1.40720344 79.15485222 -1.52833196 76.94486492 -1.57763672 72.62695312 C-1.5802652 71.90273666 -1.58289368 71.1785202 -1.58560181 70.43235779 C-1.59854121 68.04811504 -1.63938211 65.66517306 -1.6796875 63.28125 C-1.69223671 61.61886995 -1.70271412 59.95647308 -1.71121216 58.29406738 C-1.73778296 53.92275435 -1.78662604 49.55200316 -1.84191895 45.18096924 C-1.92824042 38.18526642 -1.98767928 31.18941465 -2.0340004 24.19334412 C-2.05440058 21.75307168 -2.08850468 19.31326255 -2.12399292 16.87316895 C-2.13765353 15.37313243 -2.1508709 13.8730918 -2.16357422 12.37304688 C-2.18008026 11.06686401 -2.1965863 9.76068115 -2.21359253 8.41491699 C-2.00852271 5.13626104 -1.42371258 2.93319997 0 0 Z " fill="#DC5E4A" transform="translate(40,94)"/>
<path d="M0 0 C0.99 0.33 1.98 0.66 3 1 C2.9969838 1.86142105 2.99396759 2.7228421 2.99085999 3.61036682 C2.96857295 11.74654306 2.97987001 19.88184099 3.02846622 28.01791477 C3.05227495 32.20042626 3.06330189 36.3821424 3.04467773 40.56469727 C3.02716593 44.60470404 3.04380463 48.64328524 3.08367729 52.68311882 C3.09293919 54.22077924 3.09009654 55.75856384 3.07469368 57.296175 C2.76870714 65.78645184 2.76870714 65.78645184 5.61837769 73.54489136 C7.32707651 75.26844258 8.96530052 76.68532239 11 78 C10.67 78.66 10.34 79.32 10 80 C8.00773831 80.28919928 6.01277818 80.57264551 4.0078125 80.75390625 C1.79670732 80.9575063 1.79670732 80.9575063 -1 82 C-2.62567079 82.14715199 -4.25586857 82.24721867 -5.88671875 82.31640625 C-6.82451172 82.35830078 -7.76230469 82.40019531 -8.72851562 82.44335938 C-9.70498047 82.48267578 -10.68144531 82.52199219 -11.6875 82.5625 C-12.67556641 82.60568359 -13.66363281 82.64886719 -14.68164062 82.69335938 C-17.12095546 82.79941654 -19.56037113 82.90147714 -22 83 C-21.96221436 82.00782471 -21.92442871 81.01564941 -21.88549805 79.9934082 C-20.10451452 59.19582365 -20.10451452 59.19582365 -27.62231445 40.98706055 C-30.29884101 38.70220324 -32.98130519 36.81749766 -36 35 C-36.66 34.34 -37.32 33.68 -38 33 C-36.74316406 32.22076172 -36.74316406 32.22076172 -35.4609375 31.42578125 C-31.46077673 28.75705229 -28.08987987 25.50437585 -24.625 22.1875 C-23.29250207 20.92750135 -21.95917782 19.66837597 -20.625 18.41015625 C-19.99464844 17.81477051 -19.36429688 17.21938477 -18.71484375 16.60595703 C-16.14967184 14.20366477 -13.51410979 11.89073112 -10.8515625 9.59765625 C-7.19545062 6.44290993 -3.60504772 3.21283188 0 0 Z " fill="#DC5C48" transform="translate(154,100)"/>
<path d="M0 0 C-1.29603412 2.82868857 -2.69189598 4.9701021 -4.8203125 7.234375 C-5.35527344 7.80800781 -5.89023437 8.38164062 -6.44140625 8.97265625 C-6.99699219 9.55917969 -7.55257812 10.14570313 -8.125 10.75 C-8.68832031 11.35199219 -9.25164062 11.95398438 -9.83203125 12.57421875 C-11.21724146 14.05334151 -12.6080729 15.52719641 -14 17 C-9.64316269 20.60813035 -5.03701779 23.54651611 -0.23046875 26.51171875 C0.50558594 27.00285156 1.24164063 27.49398438 2 28 C2 28.33 2 28.66 2 29 C-3.4077115 29.02485162 -8.81538921 29.04293147 -14.22314453 29.05493164 C-16.06006449 29.05993819 -17.89698051 29.0667454 -19.73388672 29.07543945 C-22.38510108 29.08766697 -25.03626243 29.09326523 -27.6875 29.09765625 C-28.90518066 29.10539818 -28.90518066 29.10539818 -30.14746094 29.11329651 C-35.19225003 29.11378489 -40.00239264 28.68458995 -45 28 C-47.27046231 27.95895209 -49.54206048 27.95771009 -51.8125 28 C-55.96729388 28.03509858 -59.99737566 27.9680141 -64.125 27.5 C-70.44122485 26.81818862 -76.75247629 26.94856533 -83.09619141 27.03710938 C-84.34601807 27.04967773 -84.34601807 27.04967773 -85.62109375 27.0625 C-86.3680249 27.07410156 -87.11495605 27.08570313 -87.88452148 27.09765625 C-90 27 -90 27 -91.88061523 26.49609375 C-94.72561545 25.83015199 -97.36904993 25.94594915 -100.2890625 26 C-108.02330817 26.05614697 -115.66583486 25.58093505 -123.375 25 C-124.70830005 24.9031863 -126.04163341 24.8068303 -127.375 24.7109375 C-130.58368791 24.47842388 -133.7919697 24.24138871 -137 24 C-133.89378844 21.9291923 -132.25602193 21.52316594 -128.64146423 20.92428589 C-127.52956223 20.73642517 -126.41766022 20.54856445 -125.27206421 20.35501099 C-124.05169464 20.15648529 -122.83132507 19.95795959 -121.57397461 19.75341797 C-120.2892778 19.53854736 -119.00458099 19.32367676 -117.68095398 19.10229492 C-114.15738929 18.51317869 -110.6323849 17.93313338 -107.10704112 17.35477209 C-103.42091279 16.74855132 -99.73611882 16.13432496 -96.05116272 15.52102661 C-89.86392012 14.49242857 -83.67580818 13.46920891 -77.48706055 12.44970703 C-68.75262238 11.01082276 -60.0199162 9.56163446 -51.28747547 8.11068511 C-45.2451576 7.10713672 -39.20240972 6.10618162 -33.15959477 5.10563135 C-31.69259318 4.86270051 -30.22560612 4.61968191 -28.75863338 4.3765769 C-23.93837389 3.57782512 -19.11763204 2.78205615 -14.29663086 1.98779297 C-13.07423706 1.78521881 -11.85184326 1.58264465 -10.59240723 1.37393188 C-9.48332504 1.19171082 -8.37424286 1.00948975 -7.23155212 0.82174683 C-6.26387877 0.6621089 -5.29620543 0.50247097 -4.29920864 0.33799553 C-2 0 -2 0 0 0 Z " fill="#595239" transform="translate(313,442)"/>
<path d="M0 0 C1.22125328 -0.00945648 1.22125328 -0.00945648 2.46717834 -0.019104 C3.34224533 -0.01505554 4.21731232 -0.01100708 5.11889648 -0.00683594 C6.01994614 -0.00874939 6.92099579 -0.01066284 7.84934998 -0.01263428 C9.75324788 -0.0139949 11.65715509 -0.010307 13.56103516 -0.00195312 C16.48222573 0.00876059 19.40280304 -0.00185893 22.32397461 -0.01464844 C24.17228326 -0.01332707 26.02059153 -0.01076514 27.86889648 -0.00683594 C28.7459877 -0.0108844 29.62307892 -0.01493286 30.52674866 -0.019104 C36.69756512 0.02886395 36.69756512 0.02886395 38.92749023 2.25878906 C39.40714817 5.8630758 39.2978745 9.50120427 39.30249023 13.13378906 C39.32698242 14.14054687 39.35147461 15.14730469 39.37670898 16.18457031 C39.40604668 23.54833301 39.40604668 23.54833301 37.15405273 26.89160156 C32.58467275 29.6973612 27.88620739 29.39160955 22.66186523 29.35644531 C21.86846741 29.35503036 21.07506958 29.35361542 20.25762939 29.35215759 C17.73087752 29.34657322 15.2042152 29.3340236 12.67749023 29.32128906 C10.96134568 29.31627204 9.24519974 29.31170949 7.52905273 29.30761719 C3.32849755 29.2966089 -0.87199094 29.27935503 -5.07250977 29.25878906 C-7.98927667 24.30776049 -7.40210315 19.22674321 -7.38500977 13.63378906 C-7.40112305 12.57160156 -7.41723633 11.50941406 -7.43383789 10.41503906 C-7.43448242 9.40183594 -7.43512695 8.38863281 -7.43579102 7.34472656 C-7.43877197 6.41708496 -7.44175293 5.48944336 -7.44482422 4.53369141 C-7.32196045 3.78297363 -7.19909668 3.03225586 -7.07250977 2.25878906 C-4.02447435 0.22676545 -3.42452631 0.00761397 0 0 Z " fill="#DEA65A" transform="translate(12.072509765625,402.7412109375)"/>
<path d="M0 0 C17.49 0 34.98 0 53 0 C51.90408024 9.86327787 50.90004837 13.79350782 43.62109375 19.8984375 C42 21 42 21 40 21 C39.67 21.66 39.34 22.32 39 23 C33.91245312 24.69584896 28.50077657 24.22531736 23.17602539 24.24023438 C21.07332953 24.24994996 18.97160764 24.2809913 16.86914062 24.3125 C15.52865162 24.31902974 14.18815565 24.32428033 12.84765625 24.328125 C11.0224646 24.34214355 11.0224646 24.34214355 9.16040039 24.35644531 C5.74547189 23.97129308 4.38360494 23.43095661 2 21 C-0.22361068 14.32916797 0.39004712 7.02084808 0 0 Z " fill="#DEA75A" transform="translate(136,433)"/>
<path d="M0 0 C8.87838957 1.12107386 15.86426261 5.82454095 21.46484375 12.72265625 C25.49536394 18.70177398 28.01658039 24.86497688 29 32 C16.31595119 32.79541627 3.70832863 33.12807946 -9 33 C-6.32466784 21.89512964 -3.30203829 10.9346186 0 0 Z " fill="#E7A978" transform="translate(383,151)"/>
<path d="M0 0 C-2.856384 3.59663915 -5.63329106 6.89685545 -9.39453125 9.5703125 C-16.06426898 14.41622607 -16.06426898 14.41622607 -19.6875 21.59863281 C-20.494309 27.72323759 -20.40564085 33.84532988 -20 40 C-21.65 39.34 -23.3 38.68 -25 38 C-25 37.34 -25 36.68 -25 36 C-25.66 36 -26.32 36 -27 36 C-28.36176922 34.35648543 -29.68962066 32.68477344 -31 31 C-32.64488294 29.31183067 -34.31337542 27.64646685 -36 26 C-37.1054726 24.89714081 -38.20963159 23.7929634 -39.3125 22.6875 C-40.199375 21.800625 -41.08625 20.91375 -42 20 C-41.34351288 17.99663555 -40.67410198 15.99750619 -40 14 C-39.64550781 12.79601562 -39.29101562 11.59203125 -38.92578125 10.3515625 C-32.72225816 -5.47209741 -14.0561747 -1.1553716 0 0 Z " fill="#585138" transform="translate(134,388)"/>
<path d="M0 0 C14.19 0 28.38 0 43 0 C41.32895771 3.34208459 39.58189039 6.22805994 37.5 9.3125 C36.448125 10.87677734 36.448125 10.87677734 35.375 12.47265625 C34.99601562 13.03484863 34.61703125 13.59704102 34.2265625 14.17626953 C31.97319834 17.52671345 29.73805308 20.88931836 27.5 24.25 C26.63548885 25.54692312 25.77091164 26.84380221 24.90625 28.140625 C24.2771875 29.08421875 23.648125 30.0278125 23 31 C18.47097007 26.72878961 14.73019526 21.98938408 10.9375 17.0625 C10.32583984 16.27681641 9.71417969 15.49113281 9.08398438 14.68164062 C0 2.94611486 0 2.94611486 0 0 Z " fill="#E8AB7C" transform="translate(276,148)"/>
<path d="M0 0 C6.23060811 0.58276335 12.13473723 1.5427634 18.1875 3.125 C19.00323486 3.33729248 19.81896973 3.54958496 20.65942383 3.76831055 C28.32927509 5.88395056 35.08550315 9.08592103 42 13 C39.45684821 16.07114178 36.80976111 16.97855667 33.0625 18.1875 C31.50208984 18.70376953 31.50208984 18.70376953 29.91015625 19.23046875 C27 20 27 20 23 20 C23 20.66 23 21.32 23 22 C22.071875 21.979375 21.14375 21.95875 20.1875 21.9375 C16.97713989 21.84230396 16.97713989 21.84230396 14 23 C12.61558472 23.09134073 11.22726731 23.13065596 9.83984375 23.1328125 C9.04642578 23.13410156 8.25300781 23.13539063 7.43554688 23.13671875 C6.19901367 23.13091797 6.19901367 23.13091797 4.9375 23.125 C3.69516602 23.13080078 3.69516602 23.13080078 2.42773438 23.13671875 C1.23954102 23.13478516 1.23954102 23.13478516 0.02734375 23.1328125 C-0.69718994 23.13168457 -1.42172363 23.13055664 -2.16821289 23.12939453 C-4 23 -4 23 -6 22 C-5.80664062 21.39414062 -5.61328125 20.78828125 -5.4140625 20.1640625 C-3.75406275 14.82247914 -2.42273736 9.53657906 -1.4296875 4.03125 C-1 2 -1 2 0 0 Z " fill="#DC5D49" transform="translate(249,335)"/>
<path d="M0 0 C13.53 0 27.06 0 41 0 C39.22020575 4.44948562 37.17954508 7.77704973 34.375 11.5625 C29.73624352 17.93038651 25.32054321 24.41056818 21 31 C16.9966083 27.26064661 14.02413902 23.34454584 11.0625 18.75 C10.19154215 17.41787989 9.32044874 16.08584839 8.44921875 14.75390625 C7.82345947 13.79121826 7.82345947 13.79121826 7.18505859 12.80908203 C5.16021013 9.71799692 3.05850037 6.67876435 0.9609375 3.63671875 C0 2 0 2 0 0 Z " fill="#E8AB7C" transform="translate(225,148)"/>
<path d="M0 0 C13.53 0 27.06 0 41 0 C31.7972973 16.10472973 31.7972973 16.10472973 27.5 23.375 C27.05914062 24.12265625 26.61828125 24.8703125 26.1640625 25.640625 C25.11021711 27.42758023 24.05524376 29.21387019 23 31 C19.51100029 29.8370001 19.09087224 29.07220925 17.109375 26.09765625 C16.56756592 25.29376465 16.02575684 24.48987305 15.4675293 23.66162109 C14.90074463 22.80391113 14.33395996 21.94620117 13.75 21.0625 C12.58506952 19.32653153 11.41970848 17.59085191 10.25390625 15.85546875 C9.69461426 15.01806152 9.13532227 14.1806543 8.55908203 13.31787109 C6.12855831 9.70443668 3.60591679 6.16033875 1.07421875 2.6171875 C0 1 0 1 0 0 Z " fill="#E7A97A" transform="translate(327,149)"/>
<path d="M0 0 C4.36458355 3.74107162 8.30503603 7.2283732 12.25 11.3125 C16.74546828 15.90961866 21.50043447 19.98708179 26.58984375 23.9296875 C29.09537594 26.08192747 31.02057315 28.36382595 33 31 C31.13872594 32.86127406 28.50070864 32.46118139 26.0078125 32.71875 C23.79861215 32.9662595 23.79861215 32.9662595 21 34 C19.37432921 34.14715199 17.74413143 34.24721867 16.11328125 34.31640625 C15.26805908 34.35451416 14.42283691 34.39262207 13.55200195 34.43188477 C12.48296631 34.47498779 11.41393066 34.51809082 10.3125 34.5625 C5.2078125 34.7790625 5.2078125 34.7790625 0 35 C0 23.45 0 11.9 0 0 Z " fill="#DDA55A" transform="translate(132,148)"/>
<path d="M0 0 C1.54300781 -0.02416992 1.54300781 -0.02416992 3.1171875 -0.04882812 C8.66441682 -0.05240237 12.89216695 0.05966658 17.625 3.3125 C18.85191067 5.76632134 18.82675931 7.51234103 18.875 10.25 C18.90078125 11.12527344 18.9265625 12.00054687 18.953125 12.90234375 C18.625 15.3125 18.625 15.3125 17.49682617 16.93603516 C13.28951869 20.02991798 6.69910641 18.7774951 1.6875 18.75 C-0.24512695 18.7799707 -0.24512695 18.7799707 -2.21679688 18.81054688 C-3.45365234 18.80990234 -4.69050781 18.80925781 -5.96484375 18.80859375 C-7.09784912 18.81044678 -8.23085449 18.8122998 -9.39819336 18.81420898 C-13.00432209 18.20643448 -14.1505937 17.15481517 -16.375 14.3125 C-18.02591315 9.94937239 -17.06167287 6.56934106 -15.375 2.3125 C-10.77702241 -0.79819738 -5.33131385 -0.01657747 0 0 Z " fill="#DEA65A" transform="translate(25.375,439.6875)"/>
<path d="M0 0 C0 11.22 0 22.44 0 34 C-10.56 34 -21.12 34 -32 34 C-27.20336509 24.40673017 -18.03570939 16.87736554 -10.5 9.375 C-9.59507813 8.46621094 -8.69015625 7.55742187 -7.7578125 6.62109375 C-6.89929688 5.76386719 -6.04078125 4.90664062 -5.15625 4.0234375 C-3.99319336 2.86207275 -3.99319336 2.86207275 -2.80664062 1.67724609 C-1 0 -1 0 0 0 Z " fill="#DEA559" transform="translate(64,149)"/>
<path d="M0 0 C0 12.87 0 25.74 0 39 C-3.38661407 37.30669297 -5.14887971 36.1252225 -7.78515625 33.59375 C-8.48060547 32.93246094 -9.17605469 32.27117187 -9.89257812 31.58984375 C-10.96668945 30.55537109 -10.96668945 30.55537109 -12.0625 29.5 C-13.48903847 28.13348598 -14.91735301 26.76882301 -16.34765625 25.40625 C-16.97679932 24.80103516 -17.60594238 24.19582031 -18.25415039 23.57226562 C-20.12072398 21.81506939 -20.12072398 21.81506939 -23 20 C-21.43029115 15.7235496 -18.17400912 13.34690115 -14.75 10.5625 C-14.18925781 10.09779297 -13.62851562 9.63308594 -13.05078125 9.15429688 C-11.92856556 8.22516449 -10.80293194 7.30014402 -9.67382812 6.37939453 C-8.54133776 5.44611411 -7.4204173 4.49864421 -6.31054688 3.53857422 C-2.20734634 0 -2.20734634 0 0 0 Z " fill="#E7AB7C" transform="translate(414,247)"/>
<path d="M0 0 C0 12.87 0 25.74 0 39 C-7.875 32.25 -7.875 32.25 -11.18359375 28.9140625 C-11.88291016 28.21152344 -12.58222656 27.50898438 -13.30273438 26.78515625 C-14.35944336 25.71587891 -14.35944336 25.71587891 -15.4375 24.625 C-16.53481445 23.52091797 -16.53481445 23.52091797 -17.65429688 22.39453125 C-19.43852723 20.59863926 -21.22036124 18.80044015 -23 17 C-18.95293613 12.71440585 -14.53440101 9.20435478 -9.8125 5.6875 C-9.08869141 5.13771484 -8.36488281 4.58792969 -7.61914062 4.02148438 C-6.92626953 3.50263672 -6.23339844 2.98378906 -5.51953125 2.44921875 C-4.89151611 1.97830811 -4.26350098 1.50739746 -3.61645508 1.0222168 C-2 0 -2 0 0 0 Z " fill="#E7AB7C" transform="translate(414,304)"/>
<path d="M0 0 C2.75 1.8125 2.75 1.8125 3.75 3.8125 C3.92369832 5.76589423 4.01696102 7.72692704 4.0625 9.6875 C4.09988281 10.73679687 4.13726562 11.78609375 4.17578125 12.8671875 C3.64410554 16.54501765 2.35573316 17.26961384 -0.25 19.8125 C-2.41816418 25.32836421 -2.49700718 30.42650348 -2.375 36.25 C-2.36597656 37.07693359 -2.35695312 37.90386719 -2.34765625 38.75585938 C-2.32431512 40.77486708 -2.28845288 42.79372356 -2.25 44.8125 C-5.8352716 42.42231893 -6.3474124 40.81440623 -7.9375 36.875 C-8.37449219 35.81410156 -8.81148437 34.75320313 -9.26171875 33.66015625 C-10.25 30.8125 -10.25 30.8125 -10.25 27.8125 C-10.91 27.4825 -11.57 27.1525 -12.25 26.8125 C-13.41573238 22.26478823 -13.16304463 18.36619706 -12.5 13.75 C-12.26023438 11.96916016 -12.26023438 11.96916016 -12.015625 10.15234375 C-10.98142286 5.64090075 -9.43120062 2.83407891 -5.9375 -0.1875 C-3.25 -1.1875 -3.25 -1.1875 0 0 Z " fill="#5B543A" transform="translate(255.25,392.1875)"/>
<path d="M0 0 C0 10.89 0 21.78 0 33 C-3.63494784 31.18252608 -5.75115069 29.58911353 -8.6875 26.875 C-12.85284232 23.04387534 -17.08447415 19.31000917 -21.3828125 15.62890625 C-23 14 -23 14 -23 12 C-19.54565686 9.99304709 -16.0858937 7.99563221 -12.625 6 C-11.64015625 5.42765625 -10.6553125 4.8553125 -9.640625 4.265625 C-8.69960938 3.72421875 -7.75859375 3.1828125 -6.7890625 2.625 C-5.91975098 2.12226563 -5.05043945 1.61953125 -4.15478516 1.1015625 C-2 0 -2 0 0 0 Z " fill="#E7AB7C" transform="translate(414,198)"/>
<path d="M0 0 C-0.13743337 7.4089083 -1.05588343 14.16864886 -3.375 21.1875 C-3.58406982 21.83468994 -3.79313965 22.48187988 -4.00854492 23.14868164 C-5.23750147 26.66675145 -5.80235258 27.86823505 -9 30 C-9.37809814 29.47567383 -9.75619629 28.95134766 -10.14575195 28.41113281 C-11.86761352 26.02380858 -13.59005109 23.6369005 -15.3125 21.25 C-15.90740234 20.425 -16.50230469 19.6 -17.11523438 18.75 C-17.69208984 17.95078125 -18.26894531 17.1515625 -18.86328125 16.328125 C-19.39219971 15.5949707 -19.92111816 14.86181641 -20.46606445 14.10644531 C-21.98729847 11.96456977 -21.98729847 11.96456977 -23.75854492 9.91699219 C-24.1682251 9.28438477 -24.57790527 8.65177734 -25 8 C-24.67 7.01 -24.34 6.02 -24 5 C-21.79101562 4.20043945 -21.79101562 4.20043945 -18.90625 3.61328125 C-17.87628906 3.39736328 -16.84632813 3.18144531 -15.78515625 2.95898438 C-14.70105469 2.74564453 -13.61695313 2.53230469 -12.5 2.3125 C-11.41589844 2.08755859 -10.33179688 1.86261719 -9.21484375 1.63085938 C-1.29352679 0 -1.29352679 0 0 0 Z " fill="#E7A978" transform="translate(413,420)"/>
<path d="M0 0 C10.56 0 21.12 0 32 0 C32.495 11.385 32.495 11.385 33 23 C31.02 22.67 29.04 22.34 27 22 C25.875 20.0625 25.875 20.0625 25 18 C23.21771064 16.85790183 23.21771064 16.85790183 21 16 C19 15 17 14 15 13 C15 12.34 15 11.68 15 11 C14.113125 10.773125 13.22625 10.54625 12.3125 10.3125 C8.50214199 8.80273551 6.73049494 7.01791547 4 4 C2.68 2.68 1.36 1.36 0 0 Z " fill="#DEA65B" transform="translate(34,190)"/>
<path d="M0 0 C26.1255344 2.96268947 26.1255344 2.96268947 33 11 C27.94782677 13.82134349 23.82513649 15.39739967 18 16 C15.5679089 16.50718484 13.14451296 17.04374244 10.72265625 17.59765625 C7.18434799 18.12053394 3.57673404 18 0 18 C0 12.06 0 6.12 0 0 Z " fill="#DD5F4A" transform="translate(249,314)"/>
<path d="M0 0 C0 7.59 0 15.18 0 23 C-10.1280321 23 -10.1280321 23 -12.87109375 20.69921875 C-13.46470703 20.21646484 -14.05832031 19.73371094 -14.66992188 19.23632812 C-15.25322266 18.72521484 -15.83652344 18.21410156 -16.4375 17.6875 C-17.04787109 17.18798828 -17.65824219 16.68847656 -18.28710938 16.17382812 C-20.97378379 13.93740124 -23.052033 11.92195051 -25 9 C-22.34367585 7.47865071 -19.67737739 5.983472 -17 4.5 C-16.25621094 4.07074219 -15.51242188 3.64148438 -14.74609375 3.19921875 C-14.00488281 2.79316406 -13.26367188 2.38710938 -12.5 1.96875 C-11.8296875 1.59169922 -11.159375 1.21464844 -10.46875 0.82617188 C-8 0 -8 0 0 0 Z " fill="#595339" transform="translate(134,435)"/>
<path d="M0 0 C0 12.21 0 24.42 0 37 C-3.61844902 35.19077549 -4.80865017 34.37067516 -7.25 31.4375 C-7.84425781 30.73496094 -8.43851562 30.03242188 -9.05078125 29.30859375 C-9.69402344 28.54675781 -10.33726562 27.78492188 -11 27 C-12.47452034 25.32922126 -13.95361962 23.6624713 -15.4375 22 C-16.11683594 21.236875 -16.79617188 20.47375 -17.49609375 19.6875 C-17.99238281 19.130625 -18.48867188 18.57375 -19 18 C-17.62626924 14.88609666 -16.07437421 12.86503021 -13.59375 10.546875 C-12.93246094 9.928125 -12.27117187 9.309375 -11.58984375 8.671875 C-10.55537109 7.72054688 -10.55537109 7.72054688 -9.5 6.75 C-8.46552734 5.77546875 -8.46552734 5.77546875 -7.41015625 4.78125 C-2.25725446 0 -2.25725446 0 0 0 Z " fill="#E7AB7D" transform="translate(414,360)"/>
<path d="M0 0 C-3.74905623 5.04183424 -8.16621226 8.69985795 -13.06640625 12.609375 C-16.87765364 15.71521176 -20.48920426 19.01448658 -24.1015625 22.34765625 C-26 24 -26 24 -27 24 C-27 16.74 -27 9.48 -27 2 C-22.8234375 1.505 -22.8234375 1.505 -18.5625 1 C-17.27581421 0.84337891 -17.27581421 0.84337891 -15.96313477 0.68359375 C-10.60762192 0.06965574 -5.39039276 -0.08633262 0 0 Z " fill="#DEA75B" transform="translate(159,188)"/>
<path d="M0 0 C3 1 3 1 4.07495117 2.53466797 C4.55411987 3.50364014 4.55411987 3.50364014 5.04296875 4.4921875 C5.39423828 5.19730469 5.74550781 5.90242187 6.10742188 6.62890625 C6.64206055 7.74072266 6.64206055 7.74072266 7.1875 8.875 C7.55552734 9.60847656 7.92355469 10.34195313 8.30273438 11.09765625 C11 16.59227157 11 16.59227157 11 20 C3.41 20 -4.18 20 -12 20 C-7.75 9.375 -7.75 9.375 -5 8 C-4.67 7.01 -4.34 6.02 -4 5 C-3.34 5 -2.68 5 -2 5 C-1.34 3.35 -0.68 1.7 0 0 Z " fill="#DEA85D" transform="translate(210,124)"/>
<path d="M0 0 C0.0809723 2.43816585 0.14046972 4.87364384 0.1875 7.3125 C0.22520508 8.34793945 0.22520508 8.34793945 0.26367188 9.40429688 C0.33867774 14.57970186 0.33867774 14.57970186 -1.41015625 16.75 C-1.93480469 17.1625 -2.45945312 17.575 -3 18 C-5.64345417 23.09486252 -6.49468293 28.34044884 -7 34 C-8.37562854 32.71034824 -9.70766393 31.37310707 -11 30 C-11 29.34 -11 28.68 -11 28 C-11.66 27.67 -12.32 27.34 -13 27 C-14.70776844 20.03755942 -13.75343004 13.61008625 -11 7 C-8.29210381 3.69173884 -4.49826153 0 0 0 Z " fill="#5A5339" transform="translate(279,398)"/>
<path d="M0 0 C3.30111531 1.10037177 3.65501001 1.54505712 5.48046875 4.30859375 C5.92197266 4.97310547 6.36347656 5.63761719 6.81835938 6.32226562 C7.49608398 7.36930664 7.49608398 7.36930664 8.1875 8.4375 C8.65091797 9.13166016 9.11433594 9.82582031 9.59179688 10.54101562 C13 15.72610226 13 15.72610226 13 18 C4.42 18 -4.16 18 -13 18 C-11.02101399 14.04202797 -8.64598898 10.77185721 -5.9375 7.3125 C-5.47794922 6.71888672 -5.01839844 6.12527344 -4.54492188 5.51367188 C-1.17900989 1.17900989 -1.17900989 1.17900989 0 0 Z " fill="#DCA65B" transform="translate(267,126)"/>
<path d="M0 0 C9.02799377 0.43683841 15.88958714 3.43532906 23 9 C22.67 9.99 22.34 10.98 22 12 C14.84131489 15.18518876 7.77611241 16.52719406 0 16 C0 10.72 0 5.44 0 0 Z " fill="#DD5E49" transform="translate(249,295)"/>
<path d="M0 0 C3.375 1.125 3.375 1.125 5.3125 2.6875 C7.32504914 7.3045245 6.97616434 11.46295742 5.3125 16.0625 C3.375 18.125 3.375 18.125 -0.0625 19.1875 C-3.625 19.125 -3.625 19.125 -6 17.75 C-8.3412928 13.96791164 -9.06089841 10.56045748 -8.625 6.125 C-6.84655298 1.87034206 -4.71899146 0.16272384 0 0 Z " fill="#96EBD0" transform="translate(55.625,125.875)"/>
<path d="M0 0 C6.75 2.25 6.75 2.25 9.6484375 3.7265625 C10.56689453 4.190625 10.56689453 4.190625 11.50390625 4.6640625 C12.12136719 4.98117187 12.73882812 5.29828125 13.375 5.625 C14.01566406 5.94984375 14.65632812 6.2746875 15.31640625 6.609375 C16.87947501 7.40257407 18.44000622 8.20077031 20 9 C17.2300764 12.22818302 13.6505383 14.11911098 10 16.1875 C9.3709375 16.55552734 8.741875 16.92355469 8.09375 17.30273438 C3.369782 20 3.369782 20 0 20 C0 13.4 0 6.8 0 0 Z " fill="#DEA960" transform="translate(126,279)"/>
<path d="M0 0 C2.90835651 1.0748274 3.97375704 1.70215008 5.875 4.0625 C7.10579618 8.22227948 7.24531578 11.95155265 5.875 16.0625 C3.875 18.0625 3.875 18.0625 0.4375 19.125 C-3.125 19.0625 -3.125 19.0625 -5.5 17.6875 C-7.83913653 13.90889484 -8.56822522 10.49475217 -8.125 6.0625 C-6.42037089 2.15280021 -4.4438297 0.08887659 0 0 Z " fill="#95ECD1" transform="translate(142.125,125.9375)"/>
<path d="M0 0 C10.125 5.625 10.125 5.625 13.5625 8.3125 C14.22378906 8.82425781 14.88507813 9.33601563 15.56640625 9.86328125 C16.03949219 10.23839844 16.51257813 10.61351562 17 11 C15.89498736 14.31503791 15.44200165 14.65932363 12.65625 16.48046875 C11.98722656 16.92197266 11.31820313 17.36347656 10.62890625 17.81835938 C9.92636719 18.27017578 9.22382813 18.72199219 8.5 19.1875 C7.79746094 19.65091797 7.09492188 20.11433594 6.37109375 20.59179688 C1.16090989 24 1.16090989 24 0 24 C0 16.08 0 8.16 0 0 Z " fill="#DEA75C" transform="translate(417,333)"/>
<path d="M0 0 C10.125 5.625 10.125 5.625 13.5625 8.3125 C14.22378906 8.82425781 14.88507813 9.33601562 15.56640625 9.86328125 C16.03949219 10.23839844 16.51257813 10.61351562 17 11 C15.60659992 15.18020025 12.63813145 16.46557639 9.0625 18.6875 C8.41603516 19.10322266 7.76957031 19.51894531 7.10351562 19.94726562 C2.27628541 23 2.27628541 23 0 23 C0 15.41 0 7.82 0 0 Z " fill="#DEA75C" transform="translate(417,220)"/>
<path d="M0 0 C4.1589169 1.52620804 6.24149447 4.53548422 8.75 8 C9.16121094 8.5465625 9.57242187 9.093125 9.99609375 9.65625 C13 13.72799003 13 13.72799003 13 16 C5.41 16 -2.18 16 -10 16 C-8.92769594 11.71078377 -7.09000568 9.1458572 -4.4375 5.75 C-4.01275391 5.19570312 -3.58800781 4.64140625 -3.15039062 4.0703125 C-2.10601659 2.70910589 -1.05377536 1.35394167 0 0 Z " fill="#DCA559" transform="translate(295,128)"/>
<path d="M0 0 C7.92 3.96 7.92 3.96 16 8 C16 9.32 16 10.64 16 12 C14.3203125 13.4140625 14.3203125 13.4140625 12.125 14.625 C9.7095524 15.98423037 7.9741332 17.0258668 6 19 C1.26923077 22 1.26923077 22 0 22 C0 14.74 0 7.48 0 0 Z " fill="#DDA65B" transform="translate(417,252)"/>
<path d="M0 0 C6.6 0.66 13.2 1.32 20 2 C17.22588295 6.85470483 14.8443072 10.70819407 11.375 14.9375 C10.59898437 15.89527344 9.82296875 16.85304687 9.0234375 17.83984375 C8.02183594 18.90912109 8.02183594 18.90912109 7 20 C6.34 20 5.68 20 5 20 C4.73445313 18.78441406 4.46890625 17.56882813 4.1953125 16.31640625 C3.83898168 14.73167183 3.48218686 13.14704169 3.125 11.5625 C2.86396484 10.35883789 2.86396484 10.35883789 2.59765625 9.13085938 C2.12849487 7.0717622 1.57027241 5.03341657 1 3 C0.34 2.67 -0.32 2.34 -1 2 C-0.67 1.34 -0.34 0.68 0 0 Z " fill="#DDA65C" transform="translate(411,165)"/>
<path d="M0 0 C11.71428571 7.42857143 11.71428571 7.42857143 17 11 C16 14 16 14 14.41772461 15.07495117 C13.75264893 15.39439697 13.08757324 15.71384277 12.40234375 16.04296875 C11.75515381 16.36031982 11.10796387 16.6776709 10.44116211 17.00463867 C9.61495361 17.39498291 8.78874512 17.78532715 7.9375 18.1875 C5.318125 19.445625 2.69875 20.70375 0 22 C0 14.74 0 7.48 0 0 Z " fill="#DCA559" transform="translate(417,278)"/>
<path d="M0 0 C4.85110358 4.41009417 8.348107 9.58004353 12 15 C11.67 15.66 11.34 16.32 11 17 C6.95108506 17.94160813 3.13540852 18 -1 18 C-1.680625 18.185625 -2.36125 18.37125 -3.0625 18.5625 C-5.58770545 19.13270768 -7.49699393 18.55485356 -10 18 C-9.44570313 17.03578125 -8.89140625 16.0715625 -8.3203125 15.078125 C-7.58848403 13.80211639 -6.8567164 12.52607288 -6.125 11.25 C-5.57779297 10.29867188 -5.57779297 10.29867188 -5.01953125 9.328125 C-3.2603169 6.25749632 -1.53126626 3.19148125 0 0 Z " fill="#DEA75D" transform="translate(413,442)"/>
<path d="M0 0 C2.206875 1.2375 4.41375 2.475 6.6875 3.75 C7.37287842 4.13124023 8.05825684 4.51248047 8.7644043 4.90527344 C9.32039307 5.22012695 9.87638184 5.53498047 10.44921875 5.859375 C11.00955811 6.17358398 11.56989746 6.48779297 12.1472168 6.81152344 C14.55884293 8.35847245 16.76270636 10.21016509 19 12 C12.73 14.97 6.46 17.94 0 21 C0 14.07 0 7.14 0 0 Z " fill="#5C563D" transform="translate(298,288)"/>
<path d="M0 0 C0 6.93 0 13.86 0 21 C-3.37627452 19.31186274 -5.20421463 18.05630562 -7.875 15.5625 C-11.10595643 12.6582695 -14.01379281 10.69413806 -18 9 C-18 8.34 -18 7.68 -18 7 C-15.56568361 5.82625827 -13.12795818 4.66084237 -10.6875 3.5 C-9.99720703 3.16613281 -9.30691406 2.83226562 -8.59570312 2.48828125 C-3.33984375 0 -3.33984375 0 0 0 Z " fill="#DEA65B" transform="translate(410,141)"/>
<path d="M0 0 C3.86439646 1.28813215 5.31150766 3.65197095 7.625 6.8125 C8.03234375 7.34681641 8.4396875 7.88113281 8.859375 8.43164062 C11.05735019 11.39017346 12.08877876 13.35511505 13 17 C5.74 16.67 -1.52 16.34 -9 16 C-7.36768634 11.91921584 -5.7416683 8.82515683 -3.375 5.1875 C-2.74335938 4.21167969 -2.11171875 3.23585937 -1.4609375 2.23046875 C-0.73777344 1.12638672 -0.73777344 1.12638672 0 0 Z " fill="#DDA55A" transform="translate(235,128)"/>
<path d="M0 0 C4.88159325 1.62719775 8.62767824 3.40556096 12.875 6.125 C13.46796875 6.49753906 14.0609375 6.87007813 14.671875 7.25390625 C16.1181343 8.16365 17.55958046 9.08103798 19 10 C15.41802871 13.00036255 11.46837551 14.77721493 7.25 16.6875 C4.8575 17.780625 2.465 18.87375 0 20 C0 13.4 0 6.8 0 0 Z " fill="#5C563D" transform="translate(298,257)"/>
<path d="M0 0 C3.12912467 1.25164987 5.71373125 2.30141437 8.55078125 3.9453125 C9.16630859 4.29980469 9.78183594 4.65429688 10.41601562 5.01953125 C11.35477539 5.56673828 11.35477539 5.56673828 12.3125 6.125 C12.95767578 6.49753906 13.60285156 6.87007812 14.26757812 7.25390625 C15.84675945 8.16632213 17.42361864 9.08275509 19 10 C15.66894651 12.66648371 12.12802152 14.6669681 8.375 16.6875 C7.22773438 17.31011719 6.08046875 17.93273437 4.8984375 18.57421875 C2 20 2 20 0 20 C0 13.4 0 6.8 0 0 Z " fill="#5B553C" transform="translate(298,223)"/>
<path d="M0 0 C6.03409511 3.27778006 12.05422551 6.56466363 18 10 C18 10.66 18 11.32 18 12 C15.3773768 13.33819498 12.75213401 14.6707151 10.125 16 C9.37863281 16.3815625 8.63226563 16.763125 7.86328125 17.15625 C7.14785156 17.5171875 6.43242187 17.878125 5.6953125 18.25 C5.03547363 18.58515625 4.37563477 18.9203125 3.69580078 19.265625 C2 20 2 20 0 20 C0 13.4 0 6.8 0 0 Z " fill="#DEA85D" transform="translate(155,279)"/>
<path d="M0 0 C4.42314031 1.50053319 5.6984466 4.44527706 7.8125 8.4375 C8.43769531 9.59121094 9.06289063 10.74492187 9.70703125 11.93359375 C11 15 11 15 10 18 C9.31035156 17.79503906 8.62070312 17.59007812 7.91015625 17.37890625 C1.9050281 15.65727143 -3.77409051 14.51032045 -10 14 C-10 13.01 -10 12.02 -10 11 C-9.34 11 -8.68 11 -8 11 C-7.9071875 10.1646875 -7.9071875 10.1646875 -7.8125 9.3125 C-6.66125177 6.03587043 -4.51840336 4.33412994 -2 2 C-1.34 1.34 -0.68 0.68 0 0 Z " fill="#DDA65C" transform="translate(376,130)"/>
<path d="M0 0 C4.33471656 1.73388663 7.49470951 3.52386802 11.3125 6.125 C12.38113281 6.84945313 13.44976562 7.57390625 14.55078125 8.3203125 C15.76314453 9.15175781 15.76314453 9.15175781 17 10 C16 13 16 13 14.125 14.1875 C12 15 12 15 9 15 C8.67 15.66 8.34 16.32 8 17 C5.09740189 18.3749149 3.23861295 19 0 19 C0 12.73 0 6.46 0 0 Z " fill="#DEA75D" transform="translate(417,307)"/>
<path d="M0 0 C3.81341333 1.90670667 7.24992053 4.09225302 10.75 6.5 C11.35199219 6.90347656 11.95398438 7.30695313 12.57421875 7.72265625 C14.08722202 8.76220271 15.54872163 9.87588843 17 11 C17 11.66 17 12.32 17 13 C14.5472865 14.63514233 12.10780245 16.1481246 9.5625 17.625 C8.50192383 18.25535156 8.50192383 18.25535156 7.41992188 18.8984375 C2.15834263 22 2.15834263 22 1 22 C0.67 14.74 0.34 7.48 0 0 Z " fill="#DEA75C" transform="translate(416,361)"/>
<path d="M0 0 C3.76904401 1.884522 6.92822223 4.08201223 10.25 6.625 C10.80429687 7.04523438 11.35859375 7.46546875 11.9296875 7.8984375 C13.28866663 8.92938719 14.64463835 9.96429911 16 11 C13.4696646 13.78765765 10.60660199 15.67463495 7.4375 17.6875 C6.46683594 18.31011719 5.49617188 18.93273437 4.49609375 19.57421875 C2 21 2 21 0 21 C0 14.07 0 7.14 0 0 Z " fill="#DEA65B" transform="translate(417,192)"/>
<path d="M0 0 C5.11723176 3.19826985 9.52692892 6.95834187 14 11 C10.92486954 14.37368681 7.71481144 16.50901962 3.75 18.75 C2.13351562 19.67039062 2.13351562 19.67039062 0.484375 20.609375 C-0.33546875 21.06828125 -1.1553125 21.5271875 -2 22 C-2.05416741 19.27056463 -2.09375225 16.54221436 -2.125 13.8125 C-2.14175781 13.04357422 -2.15851563 12.27464844 -2.17578125 11.48242188 C-2.21266851 7.1850566 -1.9958504 3.92098169 0 0 Z " fill="#DEA75D" transform="translate(417,416)"/>
<path d="M0 0 C0.99 0 1.98 0 3 0 C5.04296875 2.30078125 5.04296875 2.30078125 7.1875 5.3125 C7.90292969 6.29863281 8.61835938 7.28476563 9.35546875 8.30078125 C11 11 11 11 11 14 C4.07 14 -2.86 14 -10 14 C-9.34 12.68 -8.68 11.36 -8 10 C-7.67 9.01 -7.34 8.02 -7 7 C-5.34997172 5.64613064 -3.6825613 4.31321858 -2 3 C-1.34 2.01 -0.68 1.02 0 0 Z " fill="#DDA65B" transform="translate(323,130)"/>
<path d="M0 0 C4.08078416 1.63231366 7.17484317 3.2583317 10.8125 5.625 C11.78832031 6.25664062 12.76414062 6.88828125 13.76953125 7.5390625 C14.50558594 8.02117187 15.24164063 8.50328125 16 9 C13.4696646 11.78765765 10.60660199 13.67463495 7.4375 15.6875 C6.46683594 16.31011719 5.49617188 16.93273437 4.49609375 17.57421875 C2 19 2 19 0 19 C0 12.73 0 6.46 0 0 Z " fill="#DDA65B" transform="translate(417,390)"/>
<path d="M0 0 C0 3.96 0 7.92 0 12 C-5.13322999 13.78091653 -8.56192653 14.25494003 -14 13 C-14.99 12.34 -15.98 11.68 -17 11 C-15.44555348 9.53308542 -13.88107825 8.07679359 -12.3125 6.625 C-11.44238281 5.81289063 -10.57226562 5.00078125 -9.67578125 4.1640625 C-6.6501202 1.71703152 -3.96422787 0 0 0 Z " fill="#61573B" transform="translate(304,403)"/>
<path d="M0 0 C3.59476701 3.49205938 6.92026191 7.04033675 10 11 C10 11.66 10 12.32 10 13 C3.4 13 -3.2 13 -10 13 C-8.60203109 10.20406217 -7.33762752 7.88561649 -5.5625 5.375 C-5.15128906 4.78460938 -4.74007813 4.19421875 -4.31640625 3.5859375 C-3 2 -3 2 0 0 Z " fill="#DDA45A" transform="translate(349,131)"/>
<path d="" fill="#F1B98B" transform="translate(0,0)"/>
<path d="" fill="#F1B98B" transform="translate(0,0)"/>
<path d="" fill="#F1B98B" transform="translate(0,0)"/>
<path d="" fill="#F1B98B" transform="translate(0,0)"/>
<path d="" fill="#F1B98B" transform="translate(0,0)"/>
<path d="" fill="#F1B98B" transform="translate(0,0)"/>
<path d="" fill="#F1B98B" transform="translate(0,0)"/>
<path d="" fill="#F1B98B" transform="translate(0,0)"/>
<path d="" fill="#F1B98B" transform="translate(0,0)"/>
<path d="" fill="#F1B98B" transform="translate(0,0)"/>
<path d="" fill="#F1B98B" transform="translate(0,0)"/>
<path d="" fill="#F1B98B" transform="translate(0,0)"/>
</svg>
