<svg xmlns="http://www.w3.org/2000/svg" width="464" height="475"><path d="m303.98-.168 3.178-.01c2.218-.005 4.436-.007 6.654-.007 3.32-.002 6.64-.02 9.96-.04C368.894-.345 368.894-.345 387 10c-1.484 3.365-3.449 5.753-5.875 8.5-6.845 8.398-9.565 19.249-9.402 30.012C373.086 60.745 380.878 71.225 390 79c6.185 4.75 11.89 8.345 19.477 10.223C415.42 91.053 420.85 94.567 426 98l-1 3h-2l-1 2c-1 .917-2.033 1.8-3.082 2.66-4.055 3.413-7.844 7.046-11.606 10.778l-1.97 1.908c-4.866 4.826-9.063 9.308-9.654 16.404.19 3.258.19 3.258 1.312 6.25l2.063.063c5.367 1.712 8.751 6.215 11.875 10.75C412 154 412 154 412 156l-2.193-.048c-25.432-.477-48.398 2.372-71.995 12.36-4.907 2.057-8.981 3.227-14.273 3.493-8.687.668-17.236 2.446-23.234 9.066-3.282 3.985-5.845 8.03-8.18 12.629-5.288 10.019-14.42 16.553-23.125 23.5-2.067 1.682-4.127 3.372-6.188 5.063L258 226c-.96-2.882-1.106-4.699-1.063-7.688l.028-2.449L257 214l-1 1a295.73 295.73 0 0 1-5.473.901c-7.738 1.186-14.44 3.056-21.683 6.122-2.817.968-4.431 1.096-7.344.79-6.655-.467-12.3 4.575-17.5 8.187l-2.387 1.645A215.59 215.59 0 0 0 197 236c-3.84-1.564-6.1-4.1-9-7a261.357 261.357 0 0 0-5-3l-1-2a125.84 125.84 0 0 0-6-2l-2.313-1c-3.187-1.186-6.345-1.712-9.699-2.242C162 218 162 218 160.68 216.188c-1.295-4.167.394-7.442 2.32-11.188 6.203-8.994 15.326-15.163 25-20-1.6-1.15-3.206-2.295-4.813-3.438l-2.707-1.933c-2.451-1.762-2.451-1.762-5.48-2.629a282.832 282.832 0 0 1-5-5l-3-2v-2c1.938.145 3.875.29 5.813.438l3.269.246c2.128.171 4.256.35 6.38.57 7.05.713 14.018.897 21.1.871l3.268.012 3.111-.004 2.803-.004c2.291.018 2.291.018 4.256-1.129l-1.193-1.896c-1.774-2.823-3.54-5.651-5.307-8.479l-1.879-2.984-1.777-2.852-1.65-2.634C204 148 204 148 204 146h-2c-1.174-2.434-2.34-4.872-3.5-7.313l-1.012-2.091C195 131.34 195 131.34 195 128c3.866.604 6.14 2.427 9.188 4.813A506.76 506.76 0 0 0 220 144.438l2.212 1.575 2.1 1.483 1.864 1.318c1.881 1.223 3.8 2.221 5.824 3.186l-1-2.313C230 147 230 147 230 144l-2-1a183.896 183.896 0 0 1-2-5.398c-1.692-4.403-3.826-8.606-5.89-12.844L219 122l1-2c4.864.454 7.845 2.882 11.5 5.875 3.698 2.978 7.351 5.787 11.5 8.125-.118-4.598-.118-4.598-2.266-8.544-1.706-1.486-3.458-2.826-5.297-4.144l-1.918-1.443c-4.302-3.173-8.642-5.67-13.519-7.869l-1-2c-1.808-.807-1.808-.807-4-1.438l-2.45-.765L210 107a1527.1 1527.1 0 0 1-6.957-2.45c-2.334-.724-2.334-.724-6.043-.55v-2c-35.188-3.537-65.991-.475-95.563 20.063l-1.77 1.21c-3.874 2.782-6.14 5.725-8.667 9.727-5.263 4-5.263 4-8 4l-1 2c-2.18.598-2.18.598-4.875 1.063-2.836.5-5.386 1.024-8.125 1.937-2.14.195-4.289.312-6.438.375l-3.433.148C56 142 56 142 53.703 139.895c-5.194-8.829-5.5-19.423-3.156-29.168L51 109h2l.793-2.59c1.247-3.523 2.764-6.675 4.52-9.972l1.738-3.317c3.246-5.198 7.46-8.683 12.386-12.246l2.747-2.008C82.525 74 82.525 74 86 74l.734 2.379C88.644 82.365 90.624 87.694 94 93l1.73-.184 2.457-.254 2.766-.308C104 92 104 92 107.172 92.027c9.569-.08 14.06-3.573 20.828-10.027l2.754-2.176c2.302-1.613 2.302-1.613 3.184-3.699.199-2.267.199-2.267-.926-4.797-1.137-3.74-1.21-6.804-1.137-10.703l.055-3.773L132 54c2.06-.986 4.123-1.963 6.188-2.938l3.48-1.652c2.847-1.205 5.292-1.958 8.332-2.41l1.469 2.844c.675 1.22 1.352 2.438 2.031 3.656l.953 1.879c1.104 2.073 1.104 2.073 3.547 4.621 5.756.833 10.552-.423 16-2.25l2.112-.683A82.066 82.066 0 0 0 190 51l3-1c1.984-5.953 1.747-12.344-1-18a169.16 169.16 0 0 1-1-5c6.057-4.521 11.642-7.249 19-9 2.172 2.637 4.179 5.271 6.063 8.125 2.15 3.264 2.15 3.264 4.937 5.875 2.707.4 2.707.4 5.625.25.982-.015 1.965-.03 2.977-.047 2.35.06 2.35.06 3.398-1.203l-3.188.125c-4.662-.153-7.497-.81-10.812-4.125a69.688 69.688 0 0 1-1.625-4.625c-.26-.817-.52-1.635-.79-2.477L216 18h-2l-4-4h-2v-2l-4-1V9l-11-3V4c14.138-5.562 32.082-4.858 46 1 8.982 4.474 8.982 4.474 12 9 .433 4.765-.565 8.515-2 13h3c1.187-3.56 1.351-6.973 1.563-10.688l.13-2.126c.106-1.729.207-3.457.307-5.186 6.122-2.97 12.286-4.302 18.938-5.625l3.17-.656C285.501.806 294.403-.157 303.98-.168Z" fill="#93615A"/><path d="m310.5 204.75 3.217.023c19.07.258 38.869 2.38 53.346 15.977C369 223 369 223 369 225l3 1c10.298 10.838 12.424 20.715 12.21 35.277-.38 11.62-3.013 22.055-11.062 30.715C368.861 295.972 362.126 302 356 302l-1 2c-2.766 1.554-5.594 2.953-8.434 4.367-2.968 1.58-2.968 1.58-4.566 5.633l21 2 1-9c3.357-7.086 10.413-12.609 16.813-16.875 5.451-1.924 11.633-2.976 17.187-1.125a328.896 328.896 0 0 1-3.805 7.434c-8.708 16.726-11.419 31.206-11.187 50.011l.05 7.7c.032 4 .066 8 .113 12 .043 3.892.066 7.783.087 11.675l.056 3.6c.026 8.551-.675 16.508-6.752 23.017l-1.746 1.934c-3.353 3.007-6.671 3.937-11.062 4.664l-3.037.514-3.154.514c-2.062.344-4.123.69-6.184 1.035l-2.764.453c-1.746.3-3.484.644-5.213 1.033-3.277.568-6.15-.01-9.402-.584 0-7.402 1.802-10.748 6.797-16.152 4.612-3.868 9.421-4.26 15.203-4.848l-1.188-3.375-.667-1.898c-1.635-2.466-3.366-2.808-6.145-3.727-2.505-.302-2.505-.302-5.09-.266l-2.877-.007-2.97.023-2.96-.023c-5.161.014-9.226.424-14.103 2.273-3.276-.936-4.551-2.195-6.2-5.152-2.392-5.45-3.59-9.927-2.8-15.848 3.138-6.044 7.5-9.939 14-12 6.14-1.266 12.322-1.327 18.568-1.518 5.143-.206 9.548-.84 14.432-2.482l-3-2v-2c-7.982-.414-14.61-.45-21.914 3.027-2.073.967-3.852 1.495-6.086 1.973-1.191.26-2.382.52-3.61.79-1.38.28-2.76.558-4.14.835l-2.055.445c-5.053 1-9.111.769-14.195-.07l-2.531-.316L295 351l14 5c-.143 2.48-.29 4.958-.438 7.438l-.119 2.083c-.313 5.184-.838 10.32-1.443 15.479l-1.68.168c-2.524.253-5.047.511-7.57.77l-2.645.263-2.558.264-2.349.238c-2.127.287-4.123.758-6.198 1.297-1.999.28-3.999.55-6 .813-17.448 2.775-30.79 11.221-42.227 24.718-2.805 3.906-4.902 8.05-6.773 12.469-6.761-5.972-8.658-17.086-9.258-25.7-.572-14.746 3.79-27.39 13.758-38.488 9.073-8.634 20.343-12.103 32.586-12.046 7.393.442 14.644 1.863 21.914 3.234l-1.438-1.313c-3.898-4.21-3.549-11.247-3.562-16.687 1.204-8.473 4.27-14.03 10.953-19.352a277.782 277.782 0 0 1 3.297-2.273l1.81-1.265a1166.42 1166.42 0 0 1 8.12-5.606c16.7-10.427 16.7-10.427 26.82-26.504 1.352-10.721-.738-20.89-7.125-29.688-1.613-2.018-2.56-3.154-4.875-4.312v-2l-1.828.035-2.422.028-2.39.035c-2.267-.094-4.189-.466-6.36-1.098l-1 2-3.625 1c-9.237 2.866-18.093 9.756-25.375 16-1.527 3.054-1.643 5.71-1 9 2.55 5.407 5.657 9.893 10 14 4.033-.922 5.652-2.573 7.813-5.938C297.48 272.318 298 271.286 298 268l-4 1v2c-3.875-.875-3.875-.875-5-2-.5-2.688-.5-2.688 0-6 4.22-4.853 9.541-7.524 15.188-10.438l2.125-1.11c5.117-2.531 5.117-2.531 7.788-2.16 2.748 1.024 4.063 2.75 5.962 4.958l2.035 2.328c4.766 6.068 4.766 6.068 5.117 9.563C325.48 279.326 318.284 288.007 308 296c-7.28 4.853-19.478 4.579-28 4-5.952-1.518-10.991-4.522-16-8v-2l-1.75-.75c-2.58-1.433-4.311-3.034-6.25-5.25v-2h-2c-.817-1.748-1.628-3.499-2.438-5.25l-1.37-2.953c-4.606-10.811-2.65-23.93.808-34.797h2l.811-1.79c2-3.718 5.031-6.435 8.001-9.398l2.024-2.018c13.55-13.222 27.49-21.222 46.664-21.044ZM132 214c3.373 1.396 5.042 2.924 7 6 2.551 7.653 2.407 18.086-.305 25.629A70.527 70.527 0 0 1 134 253l-1 2c6.953-.858 12.013-2.814 17.871-6.66 3.51-2.209 6.267-2.455 10.316-2.403l2.731.028L166 246c-.298 8.341-3.172 15.336-6.207 22.997-3.136 7.251-3.136 7.251-3.793 15.003 3.765-.96 4.908-1.868 7.168-5.117a179.3 179.3 0 0 0 2.02-3.758l1.037-1.895A241.88 241.88 0 0 0 171 264l2.781.438 3.719.562 3.656.563c8.182.93 13.832.135 21.531-2.563 10.19-3.52 10.19-3.52 14.313-3 2.186 2.186 1.24 7.159 1.25 10.188-.016 12.75-1.14 23.489-9.25 33.812-.877 1.31-1.752 2.623-2.625 3.938C204 311 204 311 200 313l11-1c-1.21 6.054-3.596 11.035-6.245 16.583a456.166 456.166 0 0 0-2.567 5.536c-4.86 10.218-9.782 15.486-20.184 19.916-5.278 1.695-10.5 1.79-16.004 1.965-2.939.17-5.875.368-8.813.563-2.395.148-4.791.292-7.187.437l.035 1.906.028 2.594.035 2.531L150 367l-.023 3.95c-.482 3.535-1.572 5.019-4.301 7.288a171.07 171.07 0 0 1-4.363 3.075c-1.561 1.125-3.121 2.251-4.68 3.378-.782.555-1.564 1.11-2.37 1.68-3.275 2.358-6.424 4.86-9.576 7.379-4.418 3.483-8.844 6.956-13.312 10.375l-2.852 2.195c-4.137 2.754-7.367 2.8-12.273 2.743l-2.984-.028L91 409l-1 2c-8.905.297-17.553-.325-26.4-1.289-11.022-1.37-11.022-1.37-21.436 1.55C37.077 412.998 31.34 412.973 26 413c-2-1-2-1-3-4-.656-6.695 1.264-11.638 5.45-16.781L30 391l3 .75c3.01.64 3.962.27 6.727-1.266 1.9-1.301 3.777-2.639 5.625-4.015C48 385 48 385 50.566 385.12c2.507.905 4.525 1.973 6.746 3.442l2.114 1.378L61 391c4.807-2.545 8.223-5.019 12-9a96.989 96.989 0 0 1 4-3c3.912 1.48 5.227 3.54 7.25 7.125l1.578 2.758L87 391c2.4-.92 4.682-1.898 7-3l2.363-1.113c3.765-2.09 6.141-3.575 7.7-7.7.457-2.08.882-4.167 1.273-6.261.992-4.373 2.576-6.691 5.664-9.926 2.563-.625 2.563-.625 5 0 2.313 1.5 2.313 1.5 4 3 3.068-1.424 5.21-2.908 8-5h-10c-1.073-4.294-.797-5.195 1-9-4.003-.443-4.003-.443-6.25 2l-1.75 2c-3.83-1.453-5.12-3.429-7-7-3.43 1.617-6.563 3.576-9.75 5.625l-2.984 1.914L89 358c-3.938-2.239-6.956-4.721-10.156-7.89-1.827-1.326-1.827-1.326-4.23-1.036-3.228 1.144-5.31 2.79-7.927 4.988l-2.675 2.223L62 358c-1.46-.955-2.918-1.914-4.375-2.875l-2.46-1.617C53 352 53 352 51 350c-4.668.214-7.909 2.718-11.563 5.375A355.973 355.973 0 0 0 29 363a97.393 97.393 0 0 1-1.999-7l-.602-2.41c-.678-3.72-1.108-6.38.856-9.727 1.822-2.074 3.739-3.968 5.746-5.863 4.574-4.84 8.095-9.684 11.375-15.477 2.297-3.567 5.164-6.453 8.184-9.418 1.717-2.038 1.717-2.038 1.254-4.699-1.267-3.75-3.019-6.612-5.813-9.406.878-2.744 1.472-4.575 3.75-6.406 4.866-2.366 9.53-3.947 14.78-5.163 13.66-3.238 21.194-10.218 28.927-21.92a178.633 178.633 0 0 0 2.992-5.054c4.247-7.242 9.533-12.748 15.572-18.507l1.944-1.86 1.77-1.66c1.486-1.361 1.486-1.361 1.265-3.43h2l.746-2.543c1.406-3.877 3.234-7.226 5.317-10.77l1.103-1.916c2.674-4.611 2.674-4.611 3.834-5.771Z" fill="#92605A"/><path d="m377 22-.586 1.836C372.173 37.484 369.761 48.61 376 62c5.325 9.751 12.912 16.582 22.094 22.652L400 86v1c-9.26-.719-18.387-2.028-27.563-3.451A471.787 471.787 0 0 0 361 82l-2.187-.277c-19.527-2.364-39.213-2.076-58.85-2.186a6916.709 6916.709 0 0 1-30.803-.267l-3.058-.031c-16.165-.166-32.324-.396-48.481-.941-2.182-.073-4.364-.14-6.546-.199-2.946-.083-5.891-.19-8.837-.306l-2.487-.06C193.834 77.45 189.247 75.703 184 73c1.84-4.101 4.44-6.161 8.063-8.688l1.878-1.315c25.81-17.656 58.378-27.866 89.11-32.47 3.094-.515 3.094-.515 6.657-1.484 3.948-.995 7.89-1.674 11.92-2.262l2.132-.312c2.267-.329 4.534-.65 6.803-.969l2.359-.334C363.139 18.1 363.139 18.1 377 22Z" fill="#B97F6B"/><path d="M369 225c5.598 1.866 9.317 8.016 12.152 13.043 5.46 12.305 3.983 29.489-.152 41.957-4.613 10.447-12.68 17.354-23 22h-2l-1 2c-2.766 1.554-5.594 2.953-8.434 4.367-2.968 1.58-2.968 1.58-4.566 5.633l21 2 1-9c3.357-7.086 10.413-12.609 16.813-16.875 5.451-1.924 11.633-2.976 17.187-1.125a328.896 328.896 0 0 1-3.805 7.434c-8.708 16.726-11.419 31.206-11.187 50.011l.05 7.7c.032 4 .066 8 .113 12 .043 3.892.066 7.783.087 11.675l.056 3.6c.026 8.551-.675 16.508-6.752 23.017l-1.746 1.934c-3.353 3.007-6.671 3.937-11.062 4.664l-3.037.514-3.154.514c-2.062.344-4.123.69-6.184 1.035l-2.764.453c-1.746.3-3.484.644-5.213 1.033-3.277.568-6.15-.01-9.402-.584 0-7.402 1.802-10.748 6.797-16.152 4.612-3.868 9.421-4.26 15.203-4.848l-1.188-3.375-.667-1.898c-1.635-2.466-3.366-2.808-6.145-3.727-2.505-.302-2.505-.302-5.09-.266l-2.877-.007-2.97.023-2.96-.023c-5.161.014-9.226.424-14.103 2.273-3.276-.936-4.551-2.195-6.2-5.152-2.392-5.45-3.59-9.927-2.8-15.848 3.138-6.044 7.5-9.939 14-12 6.14-1.266 12.322-1.327 18.568-1.518 5.143-.206 9.548-.84 14.432-2.482l-3-2v-2c-7.982-.414-14.61-.45-21.914 3.027-2.047.955-3.882 1.505-6.086 1.973l-2.184.492c-2.345.399-4.438.644-6.816.508-3.758-2.718-5.826-5.519-7-10-.974-9.935 2.962-18.366 9-26 10.289-12.252 25.8-22.286 39.5-30.25 6.694-3.964 10.7-8.504 13.5-15.75 1.301-5.554 1.222-11.01 1.25-16.688l.063-3.146c.044-8.777-1.834-16.137-5.313-24.166Z" fill="#A59673"/><path d="M220 120c4.864.454 7.845 2.882 11.5 5.875 3.698 2.978 7.351 5.787 11.5 8.125v-7c8.44 6.415 13.598 14.52 15.563 25-.761 4.058-2.726 5.112-5.875 7.582-2.353 1.977-3.007 3.42-3.688 6.418a636.049 636.049 0 0 0-.375 5.063c-.283 3.58-.402 4.653-2.688 7.562L244 180l3.375 1.063c1.934.804 1.934.804 3.625 1.937 1.438 3.688 1.438 3.688 2 7l-4 4 3.75 1.063c3.293 1.23 5.009 2.375 6.875 5.375C261 204 261 204 260.438 206L259 208l-1.098 3.523C256 215 256 215 252.445 216.164c-1.437.182-2.877.334-4.32.461-5.77.734-10.72 1.769-16.125 4.063-3.804 1.61-6.388 2.557-10.5 2.125-6.655-.467-12.3 4.575-17.5 8.187l-2.387 1.645A215.59 215.59 0 0 0 197 236c-3.84-1.564-6.1-4.1-9-7a261.357 261.357 0 0 0-5-3l-1-2a125.84 125.84 0 0 0-6-2l-2.313-1c-3.187-1.186-6.345-1.712-9.699-2.242C162 218 162 218 160.68 216.188c-1.295-4.167.394-7.442 2.32-11.188 6.203-8.994 15.326-15.163 25-20-1.6-1.15-3.206-2.295-4.813-3.438l-2.707-1.933c-2.451-1.762-2.451-1.762-5.48-2.629a282.832 282.832 0 0 1-5-5l-3-2v-2a6186.058 6186.058 0 0 1 9.082.684c2.128.171 4.256.35 6.38.57 7.05.713 14.018.897 21.1.871l3.268.012 3.111-.004 2.803-.004c2.291.018 2.291.018 4.256-1.129l-1.193-1.896a4024.47 4024.47 0 0 1-5.307-8.479l-1.879-2.984-1.777-2.852-1.65-2.634C204 148 204 148 204 146h-2c-1.174-2.434-2.34-4.872-3.5-7.313l-1.012-2.091C195 131.34 195 131.34 195 128c3.866.604 6.14 2.427 9.188 4.813A506.76 506.76 0 0 0 220 144.438l2.212 1.575 2.1 1.483 1.864 1.318c1.881 1.223 3.8 2.221 5.824 3.186l-1-2.313C230 147 230 147 230 144l-2-1a183.896 183.896 0 0 1-2-5.398c-1.692-4.403-3.826-8.606-5.89-12.844L219 122l1-2Z" fill="#4E2D17"/><path d="m271.684 88.762 3.975-.03c4.26-.028 8.52-.039 12.779-.044l2.204-.004C315.964 88.656 340.867 89.769 366 93l5.81.73c5.921.75 11.838 1.531 17.752 2.332l2.775.375C410.713 98.953 410.713 98.953 419 102c0 3 0 3-1.68 4.974l-2.336 2.23-2.543 2.472-5.336 5.101c-8.134 7.656-8.134 7.656-11.418 17.973.191 3.258.191 3.258 1.313 6.25-6.162.177-11.432-.288-17.383-1.828l-2.33-.573c-1.633-.402-3.265-.808-4.895-1.218-4.246-1.065-8.5-2.095-12.755-3.12l-2.531-.609c-9.118-2.17-18.305-3.829-27.576-5.2-3.871-.691-7.695-1.587-11.53-2.452l-4.284-.942C254.273 111.968 254.273 111.968 236 97l1-4c1.622-.49 3.248-.966 4.875-1.438l2.742-.808c8.899-1.983 17.989-1.937 27.067-1.992Z" fill="#B97F6A"/><path d="M132 214c3.373 1.396 5.042 2.924 7 6 2.551 7.653 2.407 18.086-.305 25.629A70.527 70.527 0 0 1 134 253l-1 2c6.953-.858 12.013-2.814 17.871-6.66 3.51-2.209 6.267-2.455 10.316-2.403l2.731.028L166 246c-.298 8.34-3.17 15.336-6.207 22.996-3.189 7.256-3.189 7.256-3.793 15.004l1 2-2.633 1.61-3.492 2.14-1.727 1.055c-2.793 1.714-5.524 3.455-8.222 5.32-2.84 1.82-5.456 2.97-8.613 4.125-5.558 2.23-10.016 5.136-14.743 8.785-6.57 5.023-11.965 7.025-20.011 8.84-3.695 1.168-5.672 2.608-8.559 5.125-3.758 1.253-7.255 1.124-11.168 1.098l-2.408-.005a2709.12 2709.12 0 0 1-7.612-.03A5601.649 5601.649 0 0 1 50 324c1.316-2.705 2.686-4.964 4.564-7.313C57.191 313.115 57.73 310.39 58 306c3.875 1.875 3.875 1.875 5 3 4.232.449 6.516-.56 10.063-2.813l2.535-1.582L78 303l2.21-1.418c2.173-1.921 2.616-3.303 3.353-6.082.898-3.347 1.639-5.366 4.437-7.5a79.74 79.74 0 0 1 5.063-1.563c7.104-2.514 11.221-6.677 15.937-12.437l1.407-1.656c9.633-11.677 9.849-22.646 8.593-37.344h2l.746-2.543c1.406-3.877 3.234-7.226 5.317-10.77l1.103-1.916c2.674-4.611 2.674-4.611 3.834-5.771Z" fill="#57391D"/><path d="m136.375 414.75 2.773-.078c6.247.719 10.304 4.348 14.665 8.578 3.597 3.41 7.192 6.611 11.187 9.563 4.55 3.436 7.172 6.702 9 12.187.081 1.554.108 3.112.098 4.668l-.01 2.705-.025 2.815-.014 2.85c-.012 2.32-.028 4.641-.049 6.962-17.008 6.288-36.394 12.276-54.438 7.5-3.441-.672-6.88-.784-10.374-.938-6.906-.33-13.667-1.097-20.188-3.562-1.785-3.57-.946-7.226 0-11 2.724-5.594 6.432-9.655 11.242-13.508 2.46-2.088 4.442-4.486 6.531-6.937 3.07-3.521 6.237-6.945 9.415-10.368l1.838-1.995c5.85-6.285 9.562-9.294 18.349-9.442Z" fill="#92605A"/><path d="M309 356c-.143 2.48-.29 4.958-.438 7.438l-.119 2.083c-.313 5.184-.838 10.32-1.443 15.479l-1.68.168c-2.524.253-5.047.511-7.57.77l-2.645.263-2.558.264-2.349.238c-2.127.287-4.123.758-6.198 1.297-1.999.28-3.999.55-6 .813-17.448 2.775-30.79 11.221-42.227 24.718-2.805 3.906-4.902 8.05-6.773 12.469-6.761-5.972-8.658-17.086-9.258-25.7-.572-14.746 3.79-27.39 13.758-38.488 20.42-19.432 52.19-11.615 75.5-1.812Z" fill="#522726"/><path d="M426 377c13.053 6.765 22.632 19.496 27.563 33.188 2.158 8.201 4.342 20.51.074 28.3-1.776 1.713-3.642 3.066-5.637 4.512a78.325 78.325 0 0 0-3.25 4.25c-3.117 4.378-5.188 6.869-10.5 8.313l-2.691.765c-2.07.544-4.157 1.024-6.247 1.485-4.3 1.541-7.062 4.045-10.312 7.187-2-1-2-1-3.188-3.375C411 459 411 459 412 456l-2-1c-1.228-6.485-1.313-13.422-1-20l2-2-1-3h-2a188.324 188.324 0 0 1-3.438-3.508c-1.78-1.7-3.68-3.068-5.687-4.492-3.178-2.315-5.17-4.377-6.875-8l3.313-.938A169.836 169.836 0 0 0 402 411c-.364-4.972-1.93-7.696-4.941-11.484C396 398 396 398 396 396a164.322 164.322 0 0 1 4.29-2.836c2.835-1.93 5.236-4.3 7.71-6.664 11.312-10.811 11.312-10.811 18-9.5Z" fill="#93615B"/><path d="M146 359c2.864 1.638 3.845 2.46 4.77 5.68.061 4.602-.094 8.429-3.278 12.021-4.113 3.653-8.663 6.697-13.23 9.751-3.322 2.273-6.441 4.774-9.575 7.298-1.127.89-2.256 1.778-3.386 2.664l-1.65 1.294a960.034 960.034 0 0 1-8.276 6.417l-2.852 2.195c-4.137 2.754-7.367 2.8-12.273 2.743l-2.984-.028L91 409l-1 2c-8.905.297-17.553-.325-26.4-1.289-11.022-1.37-11.022-1.37-21.436 1.55C37.077 412.998 31.34 412.973 26 413c-2-1-2-1-3-4-.656-6.695 1.264-11.638 5.45-16.781L30 391l3 .75c3.01.64 3.962.27 6.727-1.266 1.9-1.301 3.777-2.639 5.625-4.015C48 385 48 385 50.566 385.12c2.507.905 4.525 1.973 6.746 3.442l2.114 1.378L61 391c4.807-2.545 8.223-5.019 12-9a96.989 96.989 0 0 1 4-3c3.912 1.48 5.227 3.54 7.25 7.125l1.578 2.758L87 391c2.4-.92 4.682-1.898 7-3l2.363-1.113c3.765-2.09 6.141-3.575 7.7-7.7.457-2.08.882-4.167 1.273-6.261.992-4.373 2.576-6.691 5.664-9.926 2.563-.625 2.563-.625 5 0 2.313 1.5 2.313 1.5 4 3 2.546-1.175 4.556-2.42 6.813-4.125 3.769-2.217 5.888-2.031 10.187-1.875 5.86-2.317 5.86-2.317 9-1Z" fill="#BAA68B"/><path d="M42 120h2l.332 3.516C45.677 139.273 45.677 139.273 51 154c7.318-.97 13.95-2.467 20.82-5.195C74 148 74 148 76 148c-2.058 7.29-4.58 14.315-7.313 21.375C64.605 180.117 60.965 190.895 58 202l-1.031 3.836C54.467 216.514 54.693 227.092 55 238c-4.232-1.892-6.54-4.76-9.313-8.375l-1.469-1.909c-7.767-10.257-12.703-20.67-16.604-32.857-.533-1.615-1.145-3.203-1.77-4.785-1.146-4.174-1.096-8.08-1.032-12.387l.002-2.435c.064-8.787 1.078-16.835 3.623-25.252l.659-2.309c.569-1.917 1.23-3.808 1.904-5.691l2-1 .371-2.043c.877-4.122 2.764-7.545 4.691-11.27A1249.198 1249.198 0 0 1 42 120Z" fill="#572527"/><path d="M421.742 328.063 424 329l1.992.727c3.68 1.755 6.39 3.49 9.133 6.523 3.655 3.934 8.032 6.337 12.725 8.821 6.275 3.363 11.776 6.937 14.15 13.929 1.213 7.778-.785 13.493-5 20a179.902 179.902 0 0 1-8 10c-4.373-1.66-7.138-4.959-10.313-8.25-4.396-4.486-8.81-8.78-13.687-12.75-4.547 1.409-7.296 3.934-10.5 7.313l-2.781 2.863L409 381c-6.534 6.6-6.534 6.6-10 9h-4c-1.626-3.252-1.623-6.491-1-10 1.487-2.596 3.413-4.622 5.5-6.75 4.41-4.316 4.41-4.316 5.5-10.25-1.906-1.732-1.906-1.732-4.375-3.125-2.501-1.532-4.546-2.796-6.625-4.875-.403-3.36-.481-5.27 1.406-8.133 5.048-4.803 10.347-9.213 15.844-13.492l2.076-1.653c4.953-3.738 4.953-3.738 8.416-3.66Z" fill="#92615A"/><path d="M426 277a73.312 73.312 0 0 1 4.313 3c4.326 3.126 8.773 5.873 13.375 8.563 9.208 5.454 16.78 10.843 20.312 21.437.906 8.499-.185 14.882-5 22-1.577 1.888-3.125 3.392-5 5-4.229-1.353-6.272-3.083-9.063-6.5-2.502-3.052-4.358-4.869-7.937-6.5l-5-5c-3.757-3.165-3.757-3.165-8.379-3.893-3.436 1.17-5.062 2.928-7.562 5.55l-2.768 2.847c-.952.998-1.903 1.996-2.853 2.996a955.96 955.96 0 0 1-5.63 5.844l-2.506 2.63c-2.23 1.963-3.402 2.67-6.302 3.026-1.69-3.382-1.826-6.388-1-10 2.806-4.73 6.288-8.894 9.75-13.152 1.489-1.866 1.489-1.866 1.438-4.66-1.54-4.135-3.919-5.847-7.375-8.477-2.067-1.95-2.726-2.87-2.813-5.711 1.875-3.048 4.479-5.474 7-8l1.605-1.64c4.91-4.607 14.521-12.417 21.395-9.36Z" fill="#92615A"/><path d="M278 127c21.652-.92 50.376 1.188 70 11 1.806.297 3.617.566 5.43.82 6.223 1.004 11.814 2.838 17.695 5.055 9.837 3.578 19.6 6.175 29.875 8.125v3l-1.806.088c-20.62 1.111-40.63 4.413-59.627 12.815-4.072 1.762-6.322 2.36-10.567 1.097-2.428-1.364-2.428-1.364-4.95-3.098l-2.821-1.931-2.916-2.034-2.858-1.95C301.934 150.665 289.163 140.08 278 128v-1Z" fill="#B77E69"/><path d="M119.875 47.375 122 50l2.188 2.438c3.08 6.053 4.416 13.222 3.472 20.003-.683 2.066-1.502 3.719-2.66 5.559l-1.156 1.895c-3.992 5.512-9.31 7.678-15.844 9.105-5.533-.178-10.093-1.351-14.313-5C92 82 92 82 92 80l-2-1c-.633-2.504-.633-2.504-1.125-5.563l-.508-3.066L88 68l-2.938-.875C82 66 82 66 81 64l-2.166.496c-2.808.5-5.33.603-8.178.567l-3.027-.024-6.258-.078-3.027-.023-2.744-.036c-2.643.1-5.025.514-7.6 1.098l-5 1c2.456-9.004 11.203-13.75 18.719-18.207 16.603-9.073 42.261-14.549 58.156-1.418Z" fill="#6B353B"/><path d="M43 325h2l1 3c7.363-.108 14.726-.22 22.088-.34 3.42-.054 6.838-.108 10.257-.157 3.932-.057 7.864-.122 11.796-.187l3.715-.05 3.457-.06 3.042-.048c2.36-.141 4.385-.489 6.645-1.158v8c3.734.879 7.168 1.09 11 1 1.641 5.103.627 9.99-1 15-1.807 2.517-3.558 4.036-6 6-3.83-1.453-5.12-3.429-7-7-3.43 1.617-6.563 3.576-9.75 5.625l-2.984 1.914L89 358c-3.938-2.239-6.956-4.721-10.156-7.89-1.827-1.326-1.827-1.326-4.23-1.036-3.228 1.144-5.31 2.79-7.927 4.988l-2.675 2.223L62 358c-1.46-.955-2.918-1.914-4.375-2.875l-2.46-1.617C53 352 53 352 51 350c-4.668.214-7.909 2.718-11.563 5.375A355.973 355.973 0 0 0 29 363a97.393 97.393 0 0 1-1.999-7l-.602-2.41c-.678-3.72-1.108-6.38.856-9.727C29.076 341.79 30.997 339.9 33 338a244.449 244.449 0 0 0 3.75-4.188l1.746-1.98c1.757-2.14 3.093-4.455 4.504-6.832Z" fill="#BAA68B"/><path d="m215.875 426.625 2.473-.113c6.018-.089 6.018-.089 9.117 2.73 1.353 2.43 2.414 4.604 3.222 7.258l.7 2.219c1.915 7.123 3.687 15.855.449 22.765-2.748 3.749-5.958 6.93-9.836 9.516h-2l-1 2c-6.898 2.3-14.203 1.185-21-1l-2-2a588.528 588.528 0 0 0-3.938-2.75c-3.59-2.659-5.505-4.969-7.062-9.25v-2l-2-1a114.607 114.607 0 0 1-3.563-5.313l-1.878-2.925c-2.426-4.298-2.426-4.298-2.559-6.762 1.215-1.922 1.215-1.922 2.938-3.75l1.714-1.86L181 433c4.833.414 6.827 2.464 10 6 3.678-1.565 6.212-3.854 9.125-6.563 5.599-5.191 8.325-5.684 15.75-5.812ZM296.75 427.75l3.29-.063c5.71-.027 10.082-.031 14.96 3.313 4.619 5.097 4.402 10.776 4.781 17.36.13 2.16.302 4.32.563 6.468.464 5.273-.432 7.941-3.844 12.047-5.684 5.615-10.32 8.275-18.375 8.688-7.747-.284-13.851-3.285-19.625-8.375-2.978-3.305-3.903-6.859-4.5-11.188l-.438-2.64c-.85-6.346-.735-11.676 2.438-17.36 6.443-7.916 10.866-8.204 20.75-8.25Z" fill="#93615B"/><path d="M211 312c-.942 6.005-3.646 11.14-6.245 16.583a456.166 456.166 0 0 0-2.567 5.536c-4.862 10.222-9.775 15.448-20.153 19.916-5.27 1.676-10.546 1.758-16.035 1.965-1.42.167-2.837.352-4.25.563-4.279.499-8.45.527-12.75.437 1.69-27.569 1.69-27.569 9.75-35.813 6.006-3.73 13.382-4.222 20.25-5.187l3.64-.513C207.596 312 207.596 312 211 312Z" fill="#B9A48A"/><path d="M46 301c2 3 2 3 1.813 6.305-3.193 14.52-14.843 27.665-24.489 38.574-3.905 4.47-7.039 9.062-10.02 14.207L12 362h-2a651.927 651.927 0 0 1-2-3.875l-1.125-2.18C6 354 6 354 6 352l-2-1C.75 342.415.538 333.626.625 324.562l-.035-3.755.012-3.616.01-3.243c.447-3.4 1.301-5.24 3.388-7.948 4.883-3.447 11.849-3.49 17.644-4.397a638.67 638.67 0 0 0 6.649-1.1c1.42-.226 2.84-.451 4.262-.675l3.89-.628c3.801-.214 6.117.198 9.555 1.8Z" fill="#92605A"/><path d="M419 176c18.11 9.845 33.924 26.828 40.809 46.285 1.203 4.308 1.375 8.292 1.191 12.715a104.61 104.61 0 0 1-10.793-4.078c-4.115-1.719-8.324-3.207-12.512-4.738C435 225 435 225 434 223l-3 1c-7.565-2.849-11.612-7.827-15.973-14.363-3.02-3.929-6.723-6.276-11.027-8.637 1.118-8.691 2.566-16.458 7.938-23.563 2.674-1.863 3.835-1.822 7.062-1.437Z" fill="#92615A"/><path d="M409 217c2.625-.063 2.625-.063 6 1 9.123 9.233 9.58 23.024 9.61 35.248.015 2.147.083 4.29.152 6.436.161 9.788.161 9.788-2.033 13.419-1.814 1.628-3.588 2.734-5.729 3.897l-2.263 1.465c-2.36 1.529-4.756 2.976-7.175 4.41l-2.505 1.508A1230.606 1230.606 0 0 1 399 288c-3.766-3.37-6.224-5.91-7-11 1.006-2.588 1.979-4.649 3.375-7 2.55-4.39 4.298-7.786 3.625-13-3.277-4.866-7.147-7.765-12-11 1.53-5.105 4.696-8.38 8.188-12.25 1.176-1.328 2.35-2.657 3.523-3.988l1.714-1.944c3.017-3.482 5.823-7.125 8.575-10.818Z" fill="#BAA58B"/><path d="M180.953 23.246c4.35 3.728 8.546 8.676 9.484 14.442-.63 4.776-2.933 7.135-6.437 10.312-7.403 5.582-15.646 8.502-25 8-5.633-2.97-7.05-6.759-8.945-12.695C148.817 40.6 147.397 39.68 145 38v-2l-2.117-.805c-4.178-1.732-8.133-3.864-12.14-5.953-2.697-1.448-2.697-1.448-5.743-1.242v-2l-3 1c-2.188-.938-2.188-.938-4-2 12.831-14.767 48.47-12 62.953-1.754Z" fill="#6A343A"/><path d="M120 237c1.44 13.678.564 23.221-7.934 34.309A366.233 366.233 0 0 1 109 275l-1.31 1.614c-5.212 6.31-10.522 9.75-18.221 12.449-2.598.793-2.598.793-4.469 2.937a98.921 98.921 0 0 0-1.125 4.313c-1.494 4.73-3.516 6.354-7.82 8.625L74 306l-3.188 2.313c-3.061 1.837-4.332 2.4-7.812 1.687-2.813-2-2.813-2-5-4l.5 2.813C58 313 58 313 50 324h32v1c-4.876 1.842-9.482 2.594-14.625 3.125l-2.386.257c-6.34.643-12.618.843-18.989.618-1.27-2.652-1.27-2.652-2-6 1.738-2.816 1.738-2.816 4.313-5.563 4.322-4.534 4.322-4.534 5.687-10.437-1.745-3.07-3.507-5.507-6-8 .878-2.744 1.472-4.575 3.75-6.406 4.866-2.366 9.53-3.947 14.78-5.163 13.66-3.238 21.194-10.218 28.927-21.92a178.633 178.633 0 0 0 2.992-5.054C101.491 255.269 113.187 237 120 237Z" fill="#916059"/><path d="M386 416c9.086 2.94 13.998 10.288 19 18 2.7 8.099 3.03 20.47-.469 28.277-2.024 2.35-3.954 4.005-6.531 5.723l-2.219 1.625c-5.13 3.324-9.74 4.39-15.781 3.375-4.244-1.361-5.669-2.53-8.25-6.188-4.284-8.602-5.723-19.297-2.91-28.585 3.967-8.47 10.373-15.864 17.16-22.227Z" fill="#93615B"/><path d="M182.23 359.328c2.388 1.776 4.577 3.661 6.77 5.672l1.914 1.672C198.558 373.743 204.334 383.5 205 394c-.704 8.312-2.186 13.599-7.625 19.875C196 415 196 415 194 415l-.586-1.934-.789-2.503-.773-2.497c-.66-2.244-.66-2.244-2.852-3.066a104.153 104.153 0 0 1-2.813-3.875c-2.41-3.309-4.505-5.231-8.187-7.125l-1-2-3-1v-2c-4.25-1.24-8.501-2.37-12.8-3.426-4.102-1.07-8.149-2.329-12.2-3.574l.586-1.688c1.322-3.874 2.536-7.686 3.414-11.687 1.263-4.58 1.263-4.58 4-6.625 18.624-6.606 18.624-6.606 25.23-2.672Z" fill="#77423E"/><path d="M429 227c5.967 1.608 11.002 3.817 16.438 6.688l2.447 1.24c2.43 1.275 4.772 2.641 7.115 4.072.777.44 1.554.878 2.355 1.33 3.837 2.62 5.413 4.48 6.316 9.114.189 3.49.228 6.883.097 10.371-.08 2.18-.102 4.355-.114 6.537-.115 6.934-.489 12.422-3.654 18.648-2.313 2.063-2.313 2.063-5 3-5.639-.877-9.692-4.492-14-8l-1.926-1.55c-4.318-3.58-8.256-6.997-10.074-12.45-.085-2.95-.116-5.875-.098-8.824l.005-2.61c.005-2.752.018-5.502.03-8.254.006-1.865.01-3.73.014-5.595.011-4.573.028-9.145.049-13.717Z" fill="#92615A"/><path d="m375.625 167.563 2.4.04c9.354.284 19.066 1.488 25.975 8.397.069 8.202-1.593 15.562-5 23l-.992 2.624C396 204 396 204 394.145 204.437c-2.483.144-4.92.124-7.407.051l-2.745-.021c-2.894-.028-5.787-.09-8.68-.155-1.962-.025-3.924-.047-5.885-.068-4.81-.055-9.619-.141-14.428-.244-1.346-11.118-1.06-22.72 6-32 4.923-4.08 8.497-4.617 14.625-4.438Z" fill="#91605A"/><path d="M333.719 395.645 336 397c-4.34 13.852-4.34 13.852-7.836 16.27-2.164.73-2.164.73-4.207.12l-2.144-1.14c-11.618-5.546-26.365-6.59-38.625-2.375-5.615 2.461-10.291 5.905-14.965 9.822C264.275 423 264.275 423 261 423c-.652-10.212 3.348-18.322 10-26h2v-2a92.068 92.068 0 0 1 6.125-4l1.727-1.078c17.449-10.628 36.597-3.538 52.867 5.723Z" fill="#532827"/><path d="m344.938 428.75 3.076-.063 2.95-.015 2.708-.028c2.801.428 3.638 1.123 5.328 3.356 2.368 6.74 3.55 13.886 4 21l.3 2.79c.486 7.06.486 7.06-1.616 10.136-5.383 4.853-11.836 7.793-19.137 7.566-5.264-1.017-10.061-3.616-14.547-6.492-4.982-7.473-4.264-15.662-2.906-24.16 1.213-5.139 3.258-9.024 6.906-12.84 3.879-1.94 8.671-1.228 12.938-1.25Z" fill="#93615B"/><path d="M156 254v25l-6.875 3-2.16.95C142.222 285 142.222 285 140 285l-.313 2.875C139 291 139 291 136 293c-1.82.582-3.657 1.117-5.5 1.625-6.092 1.812-11.898 4.087-17.75 6.563l-2.564 1.082c-3.866 1.435-3.866 1.435-7.186 3.73-1.666.04-3.334.043-5 0 0-8.733 3.37-12.616 9-19a916.6 916.6 0 0 0 3.563-4.688c9.465-11.78 20.693-25.027 36.136-28.085 3.086-.304 6.2-.227 9.301-.227Z" fill="#92605A"/><path d="m87 441 3 2-.871 2.164c-3.597 8.667-3.597 8.667-5.567 17.774C83 466 83 466 81 468.313c-6.587 3.705-13.743 3.938-21.125 4.437l-2.315.173c-7.204.397-13.046-1.576-19.685-4.298l-3.008-1.21c-4.831-2.384-7.356-3.956-9.18-9.165L25 455l3.219.465c7.833 1.13 7.833 1.13 15.308-.676 2.008-1.815 3.73-3.72 5.473-5.789 11.881-11.815 22.496-14.863 38-8Z" fill="#612743"/><path d="M359 166c-1.094 3.5-2.72 6.07-4.938 8.938-5.097 6.693-6.924 11.628-6.062 20.062.913 2.786.913 2.786 2 5v4c-6.218 1.348-11.269.45-17.438-.875-9.63-1.993-18.702-3.286-28.562-3.188l-2.637.014c-2.12.012-4.242.03-6.363.049v-5h2l.625-2c2.713-5.92 6.312-11.271 12.375-14 3.729-.494 7.475-.436 11.23-.44 6.838-.166 10.859-2.109 16.145-6.56 6.854-5.222 13.104-6.64 21.625-6Z" fill="#92605A"/><path d="M260 428c4.018 1.71 5.736 4.517 7.813 8.313 1.269 3.942 1.914 7.584 2.187 11.687l.371 2.79c.551 6.559-.391 10.034-4.558 15.21-3.017 3.361-6.117 6.392-9.813 9-6.496.25-11.087-3.122-16-7l-2.23-1.5c-2.958-4.178-2.426-8.702-2.395-13.688l-.098-3.04c-.011-8.956 3.043-14.011 9.196-20.3 4.841-2.82 10.124-2.247 15.527-1.472Z" fill="#93615B"/><path d="M217 260c2.186 2.186 1.24 7.159 1.25 10.188-.016 12.75-1.14 23.489-9.25 33.812-.877 1.31-1.752 2.623-2.625 3.938-2.196 2.83-3.104 3.938-6.375 5.062l-2.563 1.188C195 315 195 315 192 314l3-1c3.855-7.482 4.28-15.278 4.125-23.5l-.027-2.781c-.024-2.24-.056-4.48-.098-6.719-13.064-3.512-25.548-.035-38 4 1.658-4.493 3.85-8.612 6.125-12.813l1.129-2.1c.913-1.696 1.83-3.392 2.746-5.087l2.781.438 3.719.562 3.656.563c8.182.93 13.832.135 21.531-2.563 10.19-3.52 10.19-3.52 14.313-3Z" fill="#663B35"/><path d="m51.707 412.902 2.198.005c2.303.005 4.605.018 6.907.03A4577.056 4577.056 0 0 1 77 413c-4.366 5.59-9.463 9.608-15 14l-2.11 1.844C54.642 433.269 49.728 434.22 43 435l-3.563.625c-12.312 1.343-23.42-.655-33.62-8.113C3.431 425.527 1.56 423.695 0 421c.414-2.148.414-2.148 1-4l1.941.105 2.622.082 2.566.106c3.019-.147 3.019-.147 6.047-1.797 4.702-2.168 9.367-1.785 14.449-1.621 1.846.044 3.693.083 5.54.117l2.45.074c2.391.006 2.391.006 4.706-.56 3.47-.655 6.87-.63 10.386-.604Z" fill="#522827"/><path d="M137 439c10.425 4.354 17.835 15.788 24 25v2c-5.75 3-5.75 3-8 3v2c-10.081 3.6-22.535 4.183-33 2-3.444-1.725-4.834-2.75-7-6-.934-7.867 3.434-14.02 8-20 5.128-5.838 7.914-8.54 16-8Z" fill="#BA7A71"/><path d="M424 329c.249 5.247.43 10.49.55 15.741.05 1.782.117 3.564.204 5.345.706 14.814.706 14.814-2.897 19.998-2.51 2.235-5.071 4.047-7.857 5.916-2.012 2.115-2.012 2.115-3.625 4.188-3.277 3.865-6.894 7.373-11.375 9.812h-4c-1.626-3.252-1.623-6.491-1-10 1.487-2.596 3.413-4.622 5.5-6.75 4.41-4.316 4.41-4.316 5.5-10.25-1.906-1.732-1.906-1.732-4.375-3.125-2.501-1.532-4.546-2.796-6.625-4.875-.403-3.36-.481-5.27 1.406-8.133 5.048-4.803 10.347-9.213 15.844-13.492l2.076-1.653 2.002-1.511 1.778-1.366c2.585-1.153 4.228-.594 6.894.155Z" fill="#BAA68B"/><path d="M194 186c2.965 1.196 5.822 2.586 8.688 4 1.503.73 3.007 1.46 4.511 2.188l1.995.98c1.97.948 1.97.948 4.806 1.832v2c-1.577 1.25-3.215 2.424-4.875 3.563-8.903 6.326-16.506 13.645-23.898 21.664C183 224 183 224 180.94 223.863L179 223l-3.688-1.438-2.082-.812c-3.06-1.029-6.16-1.544-9.347-2.027C162 218 162 218 160.69 216.19c-1.314-4.165.382-7.442 2.309-11.191 6.064-8.792 19.624-21.704 31-19Z" fill="#915F59"/><path d="M423 378c.05 5.086.086 10.172.11 15.259.01 1.726.023 3.452.04 5.178.225 22.812.225 22.812-3.877 29.29l-1.898 1.898-1.914 1.977L414 433l-4-1v-2h-2a188.324 188.324 0 0 1-3.438-3.508c-1.78-1.7-3.68-3.068-5.687-4.492-3.178-2.315-5.17-4.377-6.875-8l3.313-.938A169.836 169.836 0 0 0 402 411c-.364-4.972-1.93-7.696-4.941-11.484C396 398 396 398 396 396a162.408 162.408 0 0 1 4.28-2.832c2.876-1.953 5.327-4.344 7.845-6.73 9.154-8.612 9.154-8.612 14.875-8.438Z" fill="#BAA58B"/><path d="M425 277a620.09 620.09 0 0 1 .122 15.314c.002 1.733.022 3.466.06 5.199.297 14.36.297 14.36-3.224 19.423-2.538 2.26-5.152 4.152-7.958 6.064a99.387 99.387 0 0 0-3.898 3.906l-1.762 1.813a912.078 912.078 0 0 0-3.5 3.656l-1.738 1.781-1.521 1.588c-1.827 1.451-3.305 1.85-5.581 2.256-1.69-3.382-1.826-6.388-1-10 2.806-4.73 6.288-8.894 9.75-13.152 1.489-1.866 1.489-1.866 1.438-4.66-1.54-4.135-3.919-5.847-7.375-8.477-2.067-1.95-2.726-2.87-2.813-5.711 1.875-3.048 4.479-5.474 7-8l1.605-1.64c4.868-4.567 13.703-11.59 20.395-9.36Z" fill="#BAA68B"/><path d="M247.11 9.535c2.764 2.142 3.803 3.89 4.327 7.34-.609 4.353-1.978 5.427-5.437 8.125-6.69 3.782-12.183 6.404-20 6-3.133-.975-4.676-1.676-7-4a69.688 69.688 0 0 1-1.625-4.625c-.26-.817-.52-1.635-.79-2.477L216 18h-2l-4-4h-2v-2l-4-1V9l-11-3V4c17.429-6.857 38.448-4.24 54.11 5.535Z" fill="#6A353A"/><path d="M132 214c3.373 1.396 5.042 2.924 7 6 2.551 7.653 2.407 18.086-.305 25.629A70.527 70.527 0 0 1 134 253l-1 2c6.953-.858 12.013-2.814 17.871-6.66 3.51-2.209 6.267-2.455 10.316-2.403l2.731.028L166 246c-.223 6.238-1.694 11.457-3.875 17.25l-.778 2.076c-1.47 3.787-3.064 7.308-5.347 10.674h-1l1-22-6.813.938-3.832.527c-3.338.439-3.338.439-6.355 1.535l-3.668-.313c-5.474-.07-8.61 2.93-12.644 6.313a605.23 605.23 0 0 1-4.176 3.375l-1.83 1.523C115 269 115 269 112 269l1.531-1.598c7.73-9.678 6.145-20.614 5.469-32.402h2l.746-2.543c1.406-3.877 3.234-7.226 5.317-10.77l1.103-1.916c2.674-4.611 2.674-4.611 3.834-5.771Z" fill="#653A34"/><path d="M158 221c10.082.72 16.519 5.095 24.169 11.383 3.75 3.022 7.33 4.886 11.831 6.617a106.235 106.235 0 0 1-1 7l-.277 2.293c-.55 2.714-1.12 4.43-2.723 6.707-6.23 3.611-12.916 5.195-20 6l-1 2-2-1 .254-2.922.309-3.828.316-3.797c.1-2.848.027-4.796-.879-7.453-3.31-1.001-6.3-1.104-9.75-1.063l-2.984.028L152 243c-1.673-3.346-.099-6.608 1-10 1.58-4.039 3.265-8.026 5-12Z" fill="#92605A"/><path d="m280 37 1 3c-2.115 3.76-4.12 7.007-8 9-2.267.32-4.527.507-6.809.691-2.932.413-4.873 1.498-7.191 3.309-1.575 3.15-1.348 5.52-1 9 2.142 3.78 4.97 6.38 9 8 6.858.988 11.367-.092 17-4 3-2 3-2 5.688-2.063 4.767 1.53 7.768 4.618 11.312 8.063l-1 2-2.625-1.563c-3.938-1.677-5.341-1.754-9.375-.437a62.36 62.36 0 0 0-5.387 3.844c-4.94 3.54-11.867 2.738-17.613 2.156-3.679-1.208-6.771-2.879-10-5l-1.809-1.164c-4.829-3.54-7.602-8.289-8.574-14.14-.27-5.36.743-8.577 4.383-12.696 5.136-4.288 9.101-4.558 15.5-4.563 5.974-.032 10.238-.216 15.5-3.437Z" fill="#6A2C1E"/><path d="M405 212c-1.523 4.484-3.982 8.084-6.75 11.875l-1.356 1.872C388.253 237.582 388.253 237.582 384 239l-.777-1.836C378.59 227.026 370.957 218.626 362 212l-3-1v-2c13.53-5.969 33.054-4.276 46 3Z" fill="#BAA58A"/><path d="M58 97h2l.152 1.769c.235 2.703.479 5.404.723 8.106l.238 2.781.254 2.774.222 2.507c.589 4.389 1.543 8.721 2.411 13.063l30-1c-1.989 4.972-2.76 6.174-7 9a68.913 68.913 0 0 1-4 1l-1 2c-2.18.598-2.18.598-4.875 1.063-2.836.5-5.386 1.024-8.125 1.937-2.14.195-4.289.312-6.438.375l-3.433.148C56 142 56 142 53.703 139.895c-5.194-8.829-5.5-19.423-3.156-29.168L51 109h2l.813-2.625c1.158-3.293 2.57-6.286 4.187-9.375Z" fill="#693838"/><path d="M349 29c1 3 1 3-.11 5.41l-1.64 2.653-1.61 2.66C344 42 344 42 341 44c-3.363.05-6.665-.052-10.02-.254-3.683-.117-5.747.112-8.925 2.047C319.229 48.828 319 50.896 319 55c1.178 2.79 2.145 4.395 4.617 6.145 4.016 1.441 8.248.855 12.451.601 3.662-.117 5.683.099 8.823 2.059 2.42 2.519 3.73 5.001 5.109 8.195l-6-3c-4.653-.305-4.653-.305-9 1-7.064.7-13.406.99-19.281-3.367-4.995-4.746-8.386-9.36-9.094-16.32.055-4.98 2.217-8.565 5.375-12.313 3.135-2.934 5.243-3.389 9.5-3.313l2.844.012c2.721.308 4.266 1.038 6.656 2.301 3.13.665 5.871.695 9 0 3.04-2 5.514-4.355 8-7l1-1Z" fill="#6B2D1F"/><path d="M398 289a328.896 328.896 0 0 1-3.805 7.434c-5.813 11.17-9.68 22.2-12.195 34.566l-1.188-1.625L379 327l-2-2.875c-3.64-4.418-8.958-6.635-14-9.125.29-8.096 3.307-12.329 8.965-17.953 8.338-7.618 15.038-9.604 26.035-8.047Z" fill="#532827"/><path d="M397.813 9.875c11.519 4.066 20.943 10.242 26.812 21.25 2.077 4.563 3.052 7.91 2.375 12.875l-1.328-1.102c-5.083-4.028-10.357-6.866-16.23-9.601C407 32 407 32 406 30h-26c1.478-7.388 5.627-13.468 11.563-18.188C395 10 395 10 397.813 9.876Z" fill="#582728"/><path d="M386 416c8.852 3.348 14.296 9.905 19 18 .73 3.348.73 3.348 1 6-4.117 1.966-7.44 2.246-11.98 2.23h-1.982a601.39 601.39 0 0 1-4.123-.024c-2.106-.019-4.213-.02-6.32-.02-10.3-.038-10.3-.038-12.595-1.186 3.07-10.165 9.215-17.943 17-25Z" fill="#BAA58A"/><path d="m215.875 426.625 2.473-.113c6.052-.09 6.052-.09 9.144 2.886L229 432l1.25 2c.92 2.453.96 4.4.75 7-1 1-1 1-4.662 1.098-1.632-.007-3.264-.02-4.897-.036l-2.604-.011c-3.693-.016-7.386-.044-11.078-.072-2.69-.018-5.379-.03-8.068-.041l-2.544-.026c-4.207-.138-4.207-.138-8.147 1.088-2.374.071-4.75.084-7.125.063l-3.883-.028L175 443c.746-4.815 2.072-6.965 6-10 2.5-.125 2.5-.125 5 1 2.813 2.563 2.813 2.563 5 5 3.678-1.565 6.212-3.854 9.125-6.563 5.599-5.191 8.325-5.684 15.75-5.812Z" fill="#BAA58B"/><path d="m297.125 427.375 3.207.02c6.484.138 11.748.584 16.48 5.48 1.329 2.377 1.815 4.44 2.188 7.125-7.38 3.69-18.367 2.183-26.375 2.188l-3.809.037-3.652.005-3.298.013c-2.826-.24-4.47-.78-6.866-2.243 1.144-4.72 3.93-7.445 7.513-10.5 4.62-2.785 9.367-2.35 14.612-2.125Z" fill="#BAA68B"/><path d="M429 227c7.535 1.774 7.535 1.774 10.273 5.59l1.559 2.127 1.543 2.22 1.613 2.21c2.135 2.962 3.85 5.367 5.012 8.853l-1.723 1.688c-4.461 4.409-8.744 8.87-12.77 13.683C433 265 433 265 430 267c-1-1-1-1-1.114-4.694 0-1.645.006-3.29.016-4.935l.005-2.619c.005-2.771.018-5.543.03-8.315A6730.23 6730.23 0 0 1 429 227Z" fill="#A26261"/><path d="m344.938 428.75 3.076-.063 2.95-.015 2.708-.028c2.792.427 3.634 1.14 5.328 3.356.8 2.191.8 2.191 1.313 4.563l.55 2.378L361 441c-2 2-2 2-5.041 2.243l-3.865-.013h-2.062c-1.44-.004-2.879-.012-4.318-.024-2.205-.018-4.41-.02-6.616-.02-10.803-.038-10.803-.038-13.098-1.186.448-4.929 2.84-8.338 6-12 3.879-1.94 8.671-1.228 12.938-1.25Z" fill="#BAA58A"/><path d="m194 323-2.195 1.137c-7.932 4.19-7.932 4.19-14.805 9.863v3c6.316-.403 10.65-2.712 16-6-1.993 5.67-5.03 9.585-10 13-2.754.557-5.296.625-8.102.66-5.252.616-9.496 3.556-13.898 6.34-.334-5.588-.053-10.932 1-16.438l.563-2.996c1.799-3.212 3.703-3.871 7.146-4.951L172 326l2.275-.617c2.317-.59 4.64-1.12 6.975-1.633l2.39-.563 2.313-.515 2.068-.466c2.23-.232 3.85.134 5.979.794Z" fill="#8F6456"/><path d="M423 91c5.918-.793 10.098-.45 15.125 2.938 8.023 6.281 14.227 13.03 16.875 23.062.25 3.625.25 3.625 0 6l-1.68-1.277-2.195-1.66-2.18-1.653c-1.889-1.45-1.889-1.45-3.945-2.41v-2l-5-1v-2c-5.318-1.242-10.582-2.308-16-3 1.312-3.937 2.92-6.227 6-9-3.175-3.426-3.175-3.426-7-6v-2Z" fill="#582828"/><path d="M139 449c4.016 2.852 7.266 5.9 10 10 .188 2.438.188 2.438-1 5-5.427 3.73-11.53 5.13-18 4-4.023-1.273-7.133-2.582-9.375-6.25.743-5.448 4.74-9.366 8.813-12.813 3.757-1.374 5.72-1.11 9.562.063Z" fill="#7E473F"/><path d="M346 98c1.827.647 3.64 1.338 5.438 2.063 5.1 2.007 8.251 2.14 13.562.937-2.75 4.875-2.75 4.875-5 6-1.875.133-1.875.133-4 .125l-2.125.008C352 107 352 107 350 106c-3.497-.259-6.2-.3-9.5.938-1.888 2.595-1.585 3.618-1.25 6.75.23 1.44.474 2.88.75 4.312 3.202 1.55 5.934 2.132 9.438 2.375 4.438.43 7.149 1.628 10.562 4.625 1.375 2.75 1.375 2.75 2 5l-2.5-1.938c-4.557-2.694-9.487-2.543-14.637-2.47-5.763-.073-7.959-1.653-11.863-5.592-2.863-4.39-3.897-7.797-3-13 4.309-6.284 8.071-10.104 16-9Z" fill="#6C2E20"/><path d="M406 195c2.146-.027 4.292-.047 6.438-.063l3.62-.035c4.329.108 8.64.62 12.942 1.098v25c-6.99-2.33-9.143-4.686-13.25-10.438-3.338-4.387-6.881-7.045-11.75-9.562.506-2.169 1-4 2-6Z" fill="#A26261"/><path d="M260 428c3.532 1.453 5.347 3.64 7.016 7.113.753 1.929 1.38 3.906 1.984 5.887-2.337 2.337-8.188 1.172-11.299 1.186h-2.057c-2.07.001-4.139.02-6.208.039l-3.932.005-3.63.013C239 442 239 442 237 440c5.455-10.7 10.768-13.899 23-12Z" fill="#BAA68B"/><path d="m294.625 91.813 2.914.019C300 92 300 92 302 93c2.374.071 4.75.084 7.125.063l3.883-.028L316 93c-1.634 1.708-2.87 2.935-5 4a329.986 329.986 0 0 1-11.348-.215c-4.782-.109-4.782-.109-9.18 1.574-1.645 1.595-1.645 1.595-2.16 4.016.869 3.315 2.46 4.648 5.282 6.504 3.96 1.845 8.13 2.52 12.418 3.25 3.366.981 4.759 2.219 6.988 4.871-3 0-3 0-5-1a81.639 81.639 0 0 0-4.543-.105l-2.756-.045c-1.906-.025-3.812-.03-5.719-.016-6.005-.14-9.346-1.08-13.733-5.257-1.982-2.502-2.28-4.821-2.687-7.952C279 99 279 99 281.75 96.187c4.618-3.107 7.245-4.458 12.875-4.374Z" fill="#6D2F21"/><path d="M214 234c1.766 1.89 1.766 1.89 3.25 4.25l1.516 2.328c1.304 2.56 1.99 4.559 2.234 7.422-2.485 3.727-3.718 3.927-8 5-2.788.347-5.569.503-8.375.625l-2.23.117c-1.798.094-3.597.177-5.395.258.527-7.373 2.073-13.282 7.625-18.438 3.676-2.418 5.107-2.933 9.375-1.562Z" fill="#B9A58A"/><path d="M424 331c4.634 3.972 8.871 7.773 12.938 12.25l1.494 1.602c3.568 3.9 3.568 3.9 3.568 6.148-1.504 1.48-1.504 1.48-3.563 3.188-3.547 2.999-6.802 6.152-9.992 9.527C427 365 427 365 425 365l-1 2v-36Z" fill="#A06360"/><path d="M411 144c15.746 6.903 15.746 6.903 20 15l1.457 2.707c2.632 5.3 4.2 9.373 3.543 15.293l-1-2-1.688-.813C431 173 431 173 427.938 170.438c-2.74-2.572-2.74-2.572-5.937-3.437v-2l-10-3c0-2 0-2 1.5-3.625L415 157l-.875-1.574-1.125-2.113-1.125-2.075c-.998-2.553-1.027-4.52-.875-7.238Z" fill="#592929"/><path d="M424 277c3.665 1.832 4.849 2.694 7.313 5.688 3.367 3.987 6.947 7.675 10.687 11.312-3.68 4.398-7.454 8.538-11.582 12.52-1.523 1.444-1.523 1.444-2.418 3.48h-2l-1 3h-1v-36Z" fill="#A16461"/><path d="M48 413h29c-4.486 5.607-9.396 9.58-15 14-.789.643-1.578 1.286-2.39 1.95-.697.552-1.393 1.105-2.11 1.675l-1.844 1.477L54 433l-3-1c-.95-2.984-.95-2.984-1.688-6.75-.25-1.232-.502-2.465-.761-3.734C48 418 48 418 48 413Z" fill="#693838"/><path d="M423 380h1l-.004 3.965c.705 6.345 4.53 9.464 9.067 13.598l2.298 2.189A387.841 387.841 0 0 0 441 405c-1.876 4.224-4.735 6.423-8.375 9.125l-1.75 1.34c-2.894 2.187-5.614 3.904-8.875 5.535l1-41Z" fill="#A36362"/><path d="M236 221c1.204 3.754 1.099 7.332 1.063 11.25l-.028 3.828L237 239a300.587 300.587 0 0 1-5.25 2.125l-2.953 1.195c-2.797.68-2.797.68-4.953.11-2.389-1.852-3.59-3.815-5.094-6.43l-1.578-2.688C216 231 216 231 216 229c2.248-1.15 4.498-2.296 6.75-3.438l1.922-.986C231.75 221 231.75 221 236 221Z" fill="#B9A48A"/><path d="M341 255c7.884 1.353 15.394 3.544 23 6-1.562 4.863-4.363 8.377-7.5 12.313l-1.512 1.955c-1.278 1.619-2.628 3.18-3.988 4.732h-2a3255.43 3255.43 0 0 1-4-10.813l-1.156-3.103-1.094-2.979-1.016-2.745C341 258 341 258 341 255Z" fill="#612A40"/><path d="M314 441c-4.768 6.526-9.85 12.774-15 19-4.377-4.246-8.13-8.803-11.914-13.574-2.034-2.586-2.034-2.586-5.086-4.426 4.02-.169 8.042-.335 12.063-.5l3.435-.145c5.505-.224 10.992-.419 16.502-.355Z" fill="#A26361"/><path d="M194 442h32v1l-2.645.598c-4.302 1.798-6.224 4.233-9.042 7.84-5.52 6.843-5.52 6.843-8.313 9.562-1.814-2.79-3.626-5.583-5.438-8.375l-1.564-2.406-1.494-2.305-1.38-2.126C195 444 195 444 194 442Z" fill="#A26462"/><path d="M373 442h28c-3.864 4.508-7.66 8.798-11.875 12.938l-1.508 1.494c-1.203 1.191-2.41 2.38-3.617 3.568a108.517 108.517 0 0 1-7.75-10.688l-1.86-2.886C373 444 373 444 373 442Z" fill="#A06260"/><path d="M240 442h27c-1.959 3.917-4.254 7.273-6.875 10.75l-1.316 1.824c-1.301 1.723-1.301 1.723-3.809 4.426h-4a71.334 71.334 0 0 1-4.625-7.375c-.781-1.384-1.565-2.767-2.352-4.148l-1.033-1.873c-1.015-1.783-1.015-1.783-2.99-3.604Z" fill="#A06360"/><path d="m346 220-7 22c-3 0-3 0-5.156-1.828l-2.344-2.422-2.344-2.39C324 229.716 324 229.716 324 227a1243.76 1243.76 0 0 1 9.313-4.063l2.67-1.181 2.568-1.104 2.364-1.031C343 219 343 219 346 220Z" fill="#622B41"/><path d="M218 221c-2.535 2.63-5.134 4.451-8.25 6.375A207.714 207.714 0 0 0 197 236c-3.838-1.564-6.167-4.025-9-7l-2.313-2.313L184 225c10.78-5.03 22.408-4.214 34-4Z" fill="#915F59"/><path d="M348 233c7.532.442 14.68 1.14 22 3-3.59 7.18-8.797 12.953-14 19-2.123-2.123-2.587-3.269-3.508-6.063l-.8-2.414-.817-2.523-.84-2.523C348 235.28 348 235.28 348 233Z" fill="#622B40"/><path d="M81 412c3.105.613 5.203 1.62 7.785 3.434l2.108 1.466 2.17 1.538 4.285 2.996 1.906 1.345A257.424 257.424 0 0 0 104 426c-.634 3.498-2.052 5.84-4.063 8.75-.547.8-1.095 1.598-1.66 2.422L97 439c-1.96-.84-1.96-.84-4-2-.625-2.563-.625-2.563-1-5l-2-1a183.41 183.41 0 0 1-4.063-7.875l-1.103-2.223c-1.456-2.955-2.79-5.77-3.834-8.902Z" fill="#562B29"/><path d="M429 231c3.548 3.548 6.684 6.937 9.813 10.813l2.394 2.957L443 247c-4.095 4.894-8.264 9.707-13 14h-1v-30Z" fill="#78473F"/><path d="M368 3c2.044.597 4.085 1.203 6.125 1.813l3.445 1.019C380.9 6.966 383.897 8.354 387 10c-2.252 4.727-4.567 9.032-9 12-4.476.391-8.601-.153-13-1l1.277-1.426 1.66-1.887 1.653-1.863c1.61-1.876 1.61-1.876 2.41-4.824a150.052 150.052 0 0 0-4-6V3Z" fill="#683738"/><path d="M331 443h27l-5 5a694.46 694.46 0 0 0-5.313 5.813l-2.675 2.957L343 459c-3-1-3-1-4.605-3.652-.523-1.084-1.045-2.169-1.582-3.286l-1.606-3.277C334 446 334 446 334 444l-3-1Z" fill="#9F6661"/><path d="m185 408-1.253 1.697c-1.875 2.538-3.749 5.077-5.622 7.615l-1.973 2.67-1.894 2.569-1.746 2.364c-1.21 1.668-2.37 3.371-3.512 5.085-3-1-3-1-4.387-3.285l-1.3-2.777-1.325-2.786L161 419c2.892-4.338 6.8-5.586 11.438-7.75l2.642-1.285 2.541-1.2 2.326-1.1C182 407 182 407 185 408Z" fill="#582D2B"/><path d="M254 219a440.93 440.93 0 0 1-.313 6.313l-.175 3.55C253 232 253 232 251.613 233.843c-3.1 2.223-5.81 3.157-9.613 3.157-1.868-5.487-2.236-10.222-2-16 4.89-1.35 8.894-2.117 14-2Z" fill="#B9A489"/><path d="M323 135c1.504.984 2.981 2.009 4.438 3.063 4.167 2.959 6.528 3.58 11.562 2.937l-1 3c-3.127.977-4.499 1.243-7.5-.215l-2.5-1.722c-3.512-2.41-5.687-3.653-10-3.063-2.254 1.873-2.254 1.873-2.5 4.813.585 3.727 1.785 4.825 4.773 7.027L322 152l3.25 2.188L328 156l2 2c-.375 2.125-.375 2.125-1 4l-1.938-2.813c-2.287-2.795-4.098-3.733-7.562-4.687-4.964-1.423-6.784-3.086-9.5-7.5-1.188-3.563-1.188-3.563-1-7 4-4.987 7.93-6.655 14-5Z" fill="#6D2F21"/><path d="M165 33c6.755-.734 11.185 1.724 17 5-3.576 3.938-6.831 6.17-11.688 8.313l-3.449 1.55C164 49 164 49 162 49c.42-5.605.916-10.72 3-16Z" fill="#562426"/><path d="M156 387c2.034 4.067.248 9.55-.313 13.938l-.396 3.365-.404 3.224-.369 2.961C154 413 154 413 152 416l-9-7c1.361-3.403 2.456-5.953 4.348-8.953l1.334-2.125 1.38-2.172 1.393-2.219c3.39-5.376 3.39-5.376 4.545-6.531Z" fill="#552A29"/><path d="M107 62c5.442.34 8.937 3.703 13 7-2.025 4.845-5.41 6.74-10 9-3.5.813-3.5.813-6 1-1.228-3.683-.61-5.346.375-9.063l.836-3.222C106 64 106 64 107 62Z" fill="#562426"/><path d="M77 352c2.375 1.5 2.375 1.5 4 3-1.64 5.233-3.39 10.152-6 15-1.855-.203-1.855-.203-4-1-1.3-2.11-1.3-2.11-2.313-4.75l-1.05-2.61c-.724-3.002-.642-4.728.363-7.64 3.489-2.326 4.897-2.419 9-2Z" fill="#B9A48A"/><path d="M131 394c2 1 2 1 3.07 3.652l1.055 3.286 1.07 3.277C137 407 137 407 137 409a478.951 478.951 0 0 1-4.25 1.5l-2.39.844C128 412 128 412 124 412c-1.074-11.639-1.074-11.639 1.559-14.977 1.941-1.336 1.941-1.336 5.441-3.023Z" fill="#532827"/><path d="M406 201h18c.08 5.817-.004 11.27-1 17h-2a115.012 115.012 0 0 1-3.688-5.25c-3.376-4.796-5.967-7.412-11.312-9.75v-2Z" fill="#77463F"/><path d="M423 395c4.54 3.783 7.49 6.56 11 11-1.443 3.416-3.249 5.36-6.063 7.75l-2.16 1.86C424 417 424 417 423 417v-22Z" fill="#794840"/><path d="M51.125 353.313C54 354 54 354 55 355c-.345 5.745-1.996 9.251-5 14-1.875-.688-1.875-.688-4-2a78.037 78.037 0 0 1-2-5l-2-1c3.755-8.225 3.755-8.225 9.125-7.688ZM87 374c5.672.277 9.463 2.88 14 6-5.59 5.9-5.59 5.9-9 7-2.125-.188-2.125-.188-4-1-2.695-4.042-2.232-6.205-2-11l1-1Z" fill="#B9A489"/><path d="M290 442h18c-5.893 9.107-5.893 9.107-10 13-1.34-1.787-2.671-3.58-4-5.375l-2.25-3.023C290 444 290 444 290 442Z" fill="#7A4A41"/><path d="M425 284c3.581 3.382 6.606 6.672 9 11-.327 3.628-1.978 5.307-4.563 7.75l-1.94 1.86c-.495.458-.988.917-1.497 1.39-4.1-6.15-1.908-14.961-1-22Z" fill="#794840"/><path d="M323 212c-1.413 4.827-3.43 8.716-6 13l-8-6-2.266-1.574L305 216v-2c2.062-.338 4.124-.67 6.188-1l3.48-.563c2.836-.372 5.48-.523 8.332-.437Z" fill="#5E2839"/><path d="M368 187c4.75.875 4.75.875 7 2-.3 3.834-.783 6.6-2.625 10-2.375 2-2.375 2-6.125 1.813L363 200c-.684-1.703-.684-1.703-1-4 1.215-2.36 1.215-2.36 2.938-4.75l1.714-2.422L368 187Z" fill="#692C1E"/><path d="M200 442a710.49 710.49 0 0 1 6.813-.125l3.832-.07C214 442 214 442 217 444l-10 11c-7-8.75-7-8.75-7-13Z" fill="#7A4A41"/><path d="M425 338c4.237 3.39 6.954 5.7 10 10-.202 2.63-.775 3.754-2.559 5.703l-1.878 1.547-1.872 1.578C427 358 427 358 425 358v-20Z" fill="#79473F"/><path d="M114 409c3.936 4.948 3.936 4.948 4.125 8.063-1.806 3.11-4.228 4.809-7.125 6.937h-2l-4-13c6.75-2 6.75-2 9-2Z" fill="#552A28"/><path d="M389 254c2.786.904 4.72 1.74 6.875 3.75 1.602 3.203 1.146 4.847.125 8.25-1.938 3.375-1.938 3.375-4 6h-2c-2.518-6.145-3.401-10.46-2-17l1-1Z" fill="#B9A489"/><path d="M64 127c1.371 3.69.6 5.709-.938 9.25l-1.152 2.703L61 141l2 1c-3.25.313-3.25.313-7 0-2.438-2.375-2.438-2.375-4-5v-2c2.117-1.945 2.117-1.945 4.875-4.125l2.742-2.195C62 127 62 127 64 127Z" fill="#572627"/><path d="M79 450c-1.63 6.01-3.271 12.017-5 18-2.95-3.46-5.259-6.784-7-11 1-3 1-3 2.996-4.168l2.442-1.02 2.433-1.042C77 450 77 450 79 450Z" fill="#8E5141"/><path d="M292 217c2.607 4.536 2.593 8.845 3 14l-15-3c2.93-2.93 5.678-5.67 8.813-8.313l1.832-1.55L292 217Z" fill="#632B43"/><path d="M85.875 308.438C88 310 88 310 90 316H74c1-5 1-5 2.672-6.215 3.364-1.17 5.63-1.891 9.203-1.348Z" fill="#82B4AE"/><path d="M378 443h16c-3.435 4.154-6.633 7.789-11 11a804.91 804.91 0 0 1-2.5-4.375l-1.406-2.46C378 445 378 445 378 443Z" fill="#78473F"/><path d="M410 90c5.967 1.57 10.83 4.75 16 8l-1 3h-2l-1 2-9-2 .75-2.188c.57-2.986.57-2.986-1.688-5.562L410 91v-1Z" fill="#6A3639"/><path d="M337 187c1.58 3.458 2.516 6.183 2 10-3 2-3 2-5.563 1.813C331 198 331 198 329 195c-.375-2.5-.375-2.5 0-5 2.819-2.92 3.8-3 8-3Z" fill="#692B1E"/><path d="M271 54c3.5.188 3.5.188 7 1 2.152 3.228 2.2 4.284 2 8-3.043 1.522-5.654 1.239-9 1-2.15-3.224-2.383-4.267-2-8l2-2Z" fill="#6D2F21"/><path d="m271 14 15 2c-3.724 3.724-6.591 6.355-11 9h-2c-1.971-4.188-2-5.999-2-11Z" fill="#652C43"/><path d="M337 444h15c-2.71 4.064-4.582 6.826-8 10-4.427-1.476-4.914-3.9-7-8v-2Z" fill="#78473F"/><path d="M441 428c2 2 2 2 2.375 4.438C443 435 443 435 441.312 436.875 439 438 439 438 436.375 438c-2.375-1-2.375-1-3.813-3.313C432 432 432 432 432.75 429.75c2.437-3.411 4.506-2.78 8.25-1.75Z" fill="#A36262"/><path d="M60 375c6.223 3.532 6.223 3.532 8 6-.089 2.838-.805 3.805-2.813 5.813C63 388 63 388 60.876 387.938 59 387 59 387 57.625 385.375c-.927-3.523.17-6.012 1.375-9.375l1-1Z" fill="#B8A388"/><path d="M173 237c3.402 1.614 6.103 3.586 9 6-.507 3.719-1.116 6.735-3 10-2 0-2 0-4.125-1.813-2.732-4.644-2.207-8.923-1.875-14.187Z" fill="#6A2D20"/><path d="M446 305.75c3 .25 3 .25 5 2.25.25 3 .25 3 0 6-2 2-2 2-5 2.25-3-.25-3-.25-5-2.25-.25-3-.25-3 0-6 2-2 2-2 5-2.25Z" fill="#A46262"/><path d="M247 443h15c-2.04 4.079-3.96 6.657-7 10h-2c-1.508-1.934-1.508-1.934-3.125-4.438l-1.633-2.496C247 444 247 444 247 443Z" fill="#78473F"/><path d="M58 451c1.316 3.62 2 6.096 2 10-3.155.936-5.966 1.106-9.25 1.063l-2.703-.028L46 462c9.27-11 9.27-11 12-11Z" fill="#8E5040"/><path d="M330.875 47.75C334 48 334 48 335.938 49.125c1.587 2.802.803 4.845.062 7.875-3.375.625-3.375.625-7 1-2-2-2-2-2.188-5.563.238-4.354.238-4.354 4.063-4.687Z" fill="#6B2D1F"/><path d="M100 452c3-.313 3-.313 6 0 2 2 2 2 2.25 5-.25 3-.25 3-2.25 5-3.625-.375-3.625-.375-7-1-.625-2.813-.625-2.813-1-6l2-3ZM121 432c1.938 1.688 1.938 1.688 3 4-.668 2.393-1.221 4.221-3 6a176.79 176.79 0 0 1-7-1c-1.332-5.447-1.332-5.447.125-7.875 2.533-1.52 3.971-1.633 6.875-1.125ZM139 424c2.34.287 4.674.62 7 1 1.332 5.447 1.332 5.447-.125 7.875-2.533 1.52-3.971 1.633-6.875 1.125-1.938-1.688-1.938-1.688-3-4 .668-2.393 1.221-4.221 3-6Z" fill="#854E26"/><path d="M395 305c1.32.565 2.631 1.153 3.938 1.75l2.214.984C403 309 403 309 403.93 310.938c.07 2.062.07 2.062-1.075 3.765l-1.668 1.547-1.644 1.578C398 319 398 319 396 319c-2.208-5.195-1.934-8.583-1-14Z" fill="#B8A389"/><path d="M296 11c10.179.938 10.179.938 14 2v2a1223.098 1223.098 0 0 1-5.375 3l-3.023 1.688C299 21 299 21 297 21l-1-10Z" fill="#672F44"/><path d="m259 257 11 1c-3.625 9.625-3.625 9.625-7 13l-4-14Z" fill="#622942"/><path d="M231 13c4.4.4 7.352 1.532 11 4-2.482 3.078-3.746 3.944-7.688 4.813L231 22c-1-1-1-1-1.125-4.5C230 14 230 14 231 13Z" fill="#572427"/><path d="m155 279 2 7-14 8c1.023-4.093 1.785-5.173 4.563-8.125 2.697-2.53 2.697-2.53 3.437-5.875 2-1 2-1 4-1Z" fill="#653A34"/><path d="M441.625 212.313C444 213 444 213 445 214c.188 2.938.188 2.938 0 6l-2 2c-3.125-.375-3.125-.375-6-1l-1-7c3-2 3-2 5.625-1.688Z" fill="#A36262"/><path d="M393 188v9c-4 2-4 2-6.25 1.625L385 198c-.313-3.313-.313-3.313 0-7 2.843-2.382 4.284-3 8-3Z" fill="#6A2C1E"/><path d="M448 261c2.625.625 2.625.625 5 2 1 1.875 1 1.875 1 4-1.438 2.25-1.438 2.25-3 4-4.75-.75-4.75-.75-7-3 .188-2.5.188-2.5 1-5l3-2Z" fill="#A36262"/><path d="M429 239c6.75 5.625 6.75 5.625 9 9-5.625 5-5.625 5-9 5v-14Z" fill="#5E322C"/><path d="M399 142c3.978.527 5.602 2.349 8.188 5.313l2.105 2.363C411 152 411 152 412 156h-9l-1-5h2c-1.536-3.142-3.057-6.086-5-9Z" fill="#693638"/><path d="M395 361c3.375 1.186 5.647 2.276 8 5-1.584 3.167-2.453 4.733-5.688 6.313L395 373c-1.88-1.88-1.124-4.499-1.133-6.992C394 364 394 364 395 361Z" fill="#B59F85"/><path d="M316.945 186.805 323 187a108.817 108.817 0 0 1-1 7c-2.957 1.478-5.742 1.06-9 1-.125-2.875-.125-2.875 0-6 2-2 2-2 3.945-2.195Z" fill="#6C2E22"/><path d="M446.5 361.75c2.5.25 2.5.25 4.5 2.25.25 2.5.25 2.5 0 5-2 2-2 2-4.5 2.25C444 371 444 371 442 369c-.25-2.5-.25-2.5 0-5 2-2 2-2 4.5-2.25Z" fill="#A46262"/><path d="M20.563 314.938 24 315c-.483 5.155-3.186 8.816-6 13-2-2-2-2-2.23-4.348l.043-2.714.019-2.723c.281-3.71.844-3.21 4.73-3.277Z" fill="#593A20"/><path d="M165.5 451.75c2.5.25 2.5.25 4.5 2.25.313 2.5.313 2.5 0 5-3 2-3 2-5.625 1.688C162 460 162 460 161 459c-.188-2.438-.188-2.438 0-5 2-2 2-2 4.5-2.25Z" fill="#854E26"/><path d="M372 428c-1.45 4.108-3.398 7.503-6 11h-2l-3-9c3.83-1.802 6.781-2.196 11-2Z" fill="#B7A287"/><path d="M34 378c4.75.75 4.75.75 7 3 .188 3.063.188 3.063 0 6-1 1-1 1-3.438 1.25L35 388c-2.567-3.85-1.833-5.586-1-10Z" fill="#B7A288"/><path d="M158.5 436.75c2.5.25 2.5.25 4.5 2.25.313 2.5.313 2.5 0 5-3 2-3 2-5.688 1.625L155 445c-.625-2.875-.625-2.875-1-6 2-2 2-2 4.5-2.25Z" fill="#854E26"/><path d="m269 236 3.375 1.813 1.898 1.019C276 240 276 240 278 243a431.773 431.773 0 0 1-4.375 2.563l-2.46 1.44L269 248l-2-1 2-11Z" fill="#632A43"/><path d="M185 203a141.4 141.4 0 0 1 5 5v2a105.022 105.022 0 0 1-5 4c-2.622-1.049-3.794-1.65-5.25-4.125L179 208l6-5Z" fill="#692B1E"/><path d="M199 193c1.518 2.41 2.023 3.683 1.813 6.563-.872 2.613-1.634 3.781-3.813 5.437h-2l-3-8c4.75-4 4.75-4 7-4Z" fill="#6B2D20"/><path d="m385 9 2 1c-1.555 3.817-4.036 6.192-7 9-5-5.75-5-5.75-5-8h10V9Z" fill="#592728"/><path d="M322 8c2.034.417 4.054.909 6.063 1.438l3.347.87L334 11c-2.463 2.463-4.274 2.768-7.625 3.625-1.003.26-2.006.52-3.04.79L321 16c-.042-2.333-.04-4.667 0-7l1-1Z" fill="#672F44"/><path d="M357.563 235.813C360 236 360 236 361 237c.188 2.438.188 2.438 0 5l-2 2c-2.625-.375-2.625-.375-5-1-.625-2.375-.625-2.375-1-5 2-2 2-2 4.563-2.188Z" fill="#400E06"/><path d="M189 379h2l3 12c-3.104-.776-5.25-1.527-8-3 .557-3.344 1.352-6.033 3-9Z" fill="#5B122C"/><path d="M348 110c3.536.536 3.536.536 5 2 .04 2 .043 4 0 6-2.375.625-2.375.625-5 1-2-2-2-2-2.25-4.5.25-2.5.25-2.5 2.25-4.5Z" fill="#6D3022"/><path d="M176 370c2.799 2.528 4.458 4.204 5 8-3.371 1.498-5.204 2-9 2 .476-1.48.956-2.96 1.438-4.438l.808-2.496C175 371 175 371 176 370Z" fill="#5B102C"/><path d="M392 402c3.161 1.37 3.993 1.99 6 5-.375 2.188-.375 2.188-1 4l-7-1c-.2-3.716-.152-4.772 2-8Z" fill="#B6A086"/><path d="M350.5 261.875C353 262 353 262 354 263c.04 1.666.043 3.334 0 5l-4 2-4-3c1.12-4.956 1.12-4.956 4.5-5.125Z" fill="#3F0D03"/><path d="m233 163 8 4v3c-3.333 3-3.333 3-6 3-1.604-3.508-2.22-6.144-2-10Z" fill="#8B2D42"/><path d="M230 429h11l-6 8c-3.607-2.404-3.855-3.947-5-8Z" fill="#B7A187"/><path d="M308.188 100.313 310 101c.043 2 .04 4 0 6-1 1-1 1-3.563 1.063L304 108c-.688-2.313-.688-2.313-1-5 1.582-2.497 2.212-3.113 5.188-2.688Z" fill="#6D2F21"/><path d="m422 203-3 10c-2.648-2.578-4.944-4.916-7-8 1.29-.336 2.583-.669 3.875-1l2.18-.563C420 203 420 203 422 203Z" fill="#60332F"/><path d="M319 430h9l-.938 2.313A110.556 110.556 0 0 0 325 438h-3c-3-5.75-3-5.75-3-8Z" fill="#B7A186"/><path d="M220 186c6.75.75 6.75.75 9 3-5.75 5-5.75 5-8 5l-1-8Z" fill="#8B2C42"/><path d="M161 365c2.622 1.049 3.794 1.65 5.25 4.125L167 371c-3.371 1.498-5.204 2-9 2 1.875-5.75 1.875-5.75 3-8Z" fill="#5B122C"/><path d="m242 149 8 3c-1.049 2.622-1.65 3.794-4.125 5.25L244 158c-1.858-3.135-2.201-5.375-2-9Z" fill="#892D41"/><path d="M218 203c2.9 2.395 3.502 4.312 4 8l-9-1c1.522-2.629 2.844-4.844 5-7Z" fill="#8C2C43"/><path d="m231 200 7 2v3c-3 2.188-3 2.188-6 4l-1-9Z" fill="#892D41"/><path d="M187 429h10l-2 6c-3 0-3 0-4.387-1.313L187 429Z" fill="#B7A187"/><path d="m391 456 4 2-1 5h-5l-1-5 3-2ZM307 456l4 2-1 5h-5l-1-5 3-2Z" fill="#A36262"/><path d="M334 225c2.063.438 2.063.438 4 1l1 5c-2.375.625-2.375.625-5 1l-2-2c.536-3.536.536-3.536 2-5Z" fill="#400E06"/><path d="m277 429-5 8c-4-4.75-4-4.75-4-7 3.196-1.065 5.657-1.074 9-1Z" fill="#B7A287"/><path d="M248 166h1l1 17-7-3 1.938-1.375c3.044-3.875 2.878-7.817 3.062-12.625Z" fill="#873542"/><path d="M324 145c1.675.286 3.344.618 5 1 .625 1.875.625 1.875 1 4l-2 2c-2.125-.375-2.125-.375-4-1a88.406 88.406 0 0 1-1-5l1-1Z" fill="#6F3223"/><path d="M272 277c1.945 2.918 2.453 4.625 3 8l-9-2 6-6Z" fill="#662E44"/><path d="M372 68h2c3 3.462 3 3.462 3 6h-9c2-4 2-4 4-6Z" fill="#82472A"/><path d="M284 285c4 2 4 2 6 5a90.488 90.488 0 0 1-4 4h-2v-9Z" fill="#6A3346"/><path d="M368 30v7l-8-4c2.633-2.633 4.305-3 8-3Z" fill="#7B431D"/><path d="M343 9c5.75.75 5.75.75 8 3l-9 3 1-6Z" fill="#672F44"/><path d="m198 455-1 5h-4l-1-5c2.49-1.245 3.41-.777 6 0Z" fill="#A26261"/><path d="M295 443h8c-1.37 3.161-1.99 3.993-5 6-3-3.75-3-3.75-3-6Z" fill="#5F332D"/><path d="m425 344 5 4c-1.37 3.161-1.99 3.993-5 6v-10Z" fill="#60352E"/><path d="m220 454 5 1v4l-4 1c-1.063-1.875-1.063-1.875-2-4l1-2Z" fill="#A36262"/><path d="M236 186h2c3 4.385 3 4.385 3 7h-6l1-7Z" fill="#8B2D42"/><path d="m335 457 3 2-1 4-5-1c.375-1.938.375-1.938 1-4l2-1Z" fill="#A36262"/><path d="M205 443h8l-5 6c-3-3.75-3-3.75-3-6Z" fill="#5E322C"/><path d="M252 190c2.764 2.403 3.04 3.163 4 7l-8-2 4-5Z" fill="#8E2C45"/><path d="m374 459 5 1-1 4-5-1 1-4Z" fill="#A36262"/><path d="M381 443h7c-1.37 3.161-1.99 3.993-5 6l-2-6Z" fill="#5E322C"/><path d="m424 403 5 5-4 4-2-1 1-8Z" fill="#60342E"/><path d="m351 457 3 1-1 5h-4v-5l2-1Z" fill="#A36262"/><path d="M340 444h8a105.022 105.022 0 0 1-4 5h-2l-2-5Z" fill="#5F342E"/><path d="M392 130v6l-6-2v-2c3.75-2 3.75-2 6-2Z" fill="#7D4521"/><path d="m425 294 5 3-5 5v-8Z" fill="#5E322C"/><path d="m389 118 7 2c-1.375 2-1.375 2-3 4h-2l-2-6Z" fill="#7B421E"/><path d="M367 48v6l-6-2c3.826-4 3.826-4 6-4Z" fill="#79421B"/><path d="M251 443h7v2c-2 1.625-2 1.625-4 3l-3-5Z" fill="#60342E"/><path d="M338 141v3c-4.75 1.125-4.75 1.125-7 0v-2l7-1Z" fill="#793C2D"/><path d="m347 155 6 3-2 2h-4v-5Z" fill="#814827"/><path d="m247 457 3 3-1 2-4-1v-3l2-1Z" fill="#A36262"/><path d="m399 108 5 2v2l-4 2-1-6Z" fill="#7D4520"/></svg>