<svg xmlns="http://www.w3.org/2000/svg" width="479" height="458"><path d="M282.549 31.465c2.062.755 4.129 1.495 6.197 2.234l3.646 1.339c6.243 1.665 11.583 1.294 17.76-.718l3.354-1.066 3.432-1.129c19.69-6.365 36.504-9.186 56-.062 8.727 4.576 17.255 10.21 23.5 17.937 7.66 9.32 19.731 15.515 29.9 21.714 12.186 7.515 18.369 14.654 21.754 28.82 3.358 15.602 3.203 31.748 3.183 47.624.004 2.247.01 4.493.015 6.74.013 6.038.014 12.078.012 18.117-.001 5.067.003 10.133.008 15.2.012 12.644.011 25.288.005 37.932-.006 10.93.006 21.86.025 32.79.02 11.282.027 22.565.024 33.848-.002 6.31 0 12.621.014 18.931.013 5.937.01 11.873-.002 17.809-.002 2.162 0 4.324.009 6.486.104 29.265-3.698 60.56-24.385 82.989l-2.492 2.77C417.483 429.212 409.163 436.5 399 439l-1 2c-1.762.746-1.762.746-4.043 1.438l-2.506.773-2.638.789-5.106 1.563-2.467.744c-1.858.575-3.7 1.203-5.537 1.845-2.654.833-4.999 1.204-7.765 1.41-2.445.19-4.774.403-7.173.918-14.446 2.717-29.855 1.602-44.468 1.47a10651.175 10651.175 0 0 1-22.708-.191c-6.558-.062-13.115-.109-19.672-.152-5.056-.035-10.112-.08-15.168-.126-2.42-.021-4.839-.04-7.258-.054a2181.86 2181.86 0 0 1-10.101-.092l-3.026-.012-2.777-.038-2.406-.02c-3.746-.455-5.762-1.834-8.368-4.515-2.4-2.346-4.52-3.953-7.313-5.75-3.63-2.335-6.485-4.9-9.5-8l-2-1c-2.876-1.438-4.736-3.736-7-6a113.158 113.158 0 0 0-5-3 163.192 163.192 0 0 1-4-3c.335-2.926.856-3.874 3.11-5.852l2.64-1.773 2.61-1.79c7.866-4.724 16.25-4.832 25.11-2.782 3.464 1.084 6.87 2.27 10.28 3.51 23.675 8.08 48.894 11.963 72.473 1.128C320.229 405.172 327.967 396.978 333 382c.952-3.191 1.129-6.068 1.133-9.395l.004-3.146-.012-3.271.012-3.237c-.007-5.416-.165-10.605-1.137-15.951l-.441-2.555c-.668-2.922-1.552-5.725-2.496-8.57l-1.028-3.133c-.976-2.898-.976-2.898-3.035-5.742-.259-2.378-.259-2.378-.272-5.245l-.03-3.293-.001-3.613-.026-3.804c-.018-2.73-.03-5.46-.037-8.191-.012-4.315-.037-8.63-.064-12.945-.042-6.822-.074-13.644-.103-20.466a21044.39 21044.39 0 0 0-.185-36.672c-.025-4.292-.045-8.584-.06-12.876-.012-3.291-.03-6.582-.048-9.874l-.008-3.619-.021-3.284-.012-2.866c.013-2.288.013-2.288-1.133-4.252-2.527-.656-2.527-.656-5-1l-1 2c-3.546.799-7.195 1-10.812 1.313-1.05.09-2.099.182-3.18.276-7.683.555-13.766.19-21.008-2.589l-2.879-.957a317.49 317.49 0 0 1-6.426-2.227l-3.57-1.253-3.492-1.247c-13.577-4.136-26.722-4.734-40.79-4.609a3257.156 3257.156 0 0 0-20.345.087c-5.021.031-10.043.044-15.064.06-9.812.031-19.623.083-29.434.146l1.563 1.688C164 190 164 190 163.829 192.348c-1.625 5.199-5.462 8.575-9.829 11.652-3.99 1.213-7.718 1.196-11.866 1.101l-3.497.028c-3.792.02-7.58-.026-11.371-.074-2.644-.004-5.287-.005-7.93-.003a1590.69 1590.69 0 0 1-16.583-.098c-6.383-.069-12.765-.088-19.149-.08-6.157.008-12.313-.014-18.47-.05-2.614-.013-5.228-.02-7.842-.02a946.51 946.51 0 0 1-10.943-.094l-3.275.012c-4.846-.097-7.292-.148-11.283-3.079C30 199 30 199 30 196h2l.688-3.75C34.33 184.793 37.524 177.775 41 171c2.163 2.163 2.6 3.348 3.508 6.21l.8 2.524.817 2.641.84 2.617C48.195 188.92 49 191.83 49 196c3.11-.663 3.11-.663 4.135-3.025l1.056-2.631 1.174-2.848 1.198-2.996c.786-1.95 1.58-3.898 2.378-5.844l1.053-2.63C61 174 61 174 63 173c1.506 3.456 3.004 6.915 4.5 10.375l1.3 2.984 1.231 2.852 1.143 2.634C72 194 72 194 72 196h9l.313-2c.581-2.539 1.322-4.613 2.312-7 1.294-3.439 1.938-5.506.375-9-1.884-2.18-3.866-4.047-6-6l-4 6c-3.638-3.25-5.739-7.434-8.184-11.602-1.586-2.537-1.586-2.537-4.039-3.234L60 163l-.805 2.2c-1.196 2.802-2.598 5.105-4.32 7.613l-1.633 2.394L52 177c-3.766-1.68-5.138-3.276-7-7v-2l-2-1c-.625-2.062-.625-2.062-1-4-4.635 1.163-6.152 3.265-8.492 7.152l-1.133 1.973A95.838 95.838 0 0 1 28 179h-3c-1.338-2.456-2.67-4.914-4-7.375l-1.156-2.117C17 164.227 17 164.227 17 162l-5-2v-2h-2a5723.539 5723.539 0 0 1-4.437-10.75l-1.276-3.078-1.22-2.969-1.127-2.73C-3.17 125.022.272 110.71 5.86 98.05 15.333 77.73 31.06 60.817 50 49l2.637-1.75C68.423 37.294 86.824 30.87 105 27l3.254-.738c22.282-4.27 43.52-.538 64.445 7.215 13.028 4.74 23.875 2.572 36.226-2.613 26.74-11.139 46.91-9.238 73.624.601Zm-148.674 146.91-1.707 1.54c-1.432 1.316-2.805 2.697-4.168 4.085v2h11l-3-4 2-4h3l10 13h-44l5-5v-2l4-2v-1H94l1.438 5.25A419.098 419.098 0 0 1 98 196c7.475.076 14.95.129 22.424.165 2.544.015 5.087.035 7.63.061 3.654.037 7.308.054 10.962.067l3.45.047h3.215l2.826.02c2.928-.423 4.304-1.42 6.493-3.36-.613-3.22-1.698-5.272-3.652-7.89l-1.604-2.15-1.681-2.21-1.67-2.258-1.608-2.133-1.472-1.954L142 173c-3.488 0-5.678 3.104-8.125 5.375Z" fill="#655F45"/><path d="M282.549 31.465c2.062.755 4.129 1.495 6.197 2.234l3.646 1.339c6.243 1.665 11.583 1.294 17.76-.718l3.354-1.066 3.432-1.129c19.69-6.365 36.504-9.186 56-.062 8.727 4.576 17.255 10.21 23.5 17.937 7.66 9.32 19.731 15.515 29.9 21.714 11.377 7.015 17.98 13.747 21.345 26.987 4.33 18.771 3.557 38.167 3.317 57.299l-1.61-1.048-2.14-1.37-2.11-1.36c-2.978-1.7-5.807-2.458-9.14-3.222l.324 1.793c.977 6.438.977 6.438-.449 10.082-2.975 3.371-5.421 4.883-9.875 5.625-4.048-.675-5.45-2.367-8-5.5-1.297-3.892-1.13-6.894-1-11l1-2c-11.499.499-20.512 4.613-30.432 10.061-15.588 8.47-30.776 10.16-47.908 5.146-4.55-1.5-9-3.194-13.45-4.969-10.313-4.114-10.313-4.114-21.21-5.238v-2c-21.889-6.145-45.444 3.492-65.537 11.124-17.314 6.158-33.137-2.941-48.533-10.242-26.07-12.356-46.21-16.818-74.167-7.105-4.622 1.656-9.194 3.428-13.763 5.223-10.01 3.865-17.856 3.723-28 0l-2-2c-2.19-.61-2.19-.61-4.687-1-2.994-.521-5.783-1.144-8.696-2.035-11.15-2.974-21.936-.815-32.79 2.256-4.375 1.234-8.23 2.26-12.827 1.779-3.125-1.875-3.125-1.875-6-4l-2.04-.844c-3.413-2.013-4.002-5.147-5.19-8.777-3.96-17.385 2.185-33.835 11.113-48.61C21.573 71.423 34.638 58.584 50 49l2.637-1.75C68.423 37.294 86.824 30.87 105 27l3.254-.738c22.282-4.27 43.52-.538 64.445 7.215 13.028 4.74 23.875 2.572 36.226-2.613 26.74-11.139 46.91-9.238 73.624.601Z" fill="#A48233"/><path d="M313 325c10.957 11.09 15.911 24.79 16.313 40.125-.217 13.33-1.777 25.722-11.688 35.375-15.63 12.858-33.793 16.387-53.625 14.5-4.772-.812-9.262-2.386-13.76-4.135-2.644-1.021-5.307-1.983-7.974-2.943-4.693-1.69-9.373-3.41-14.046-5.153-14.53-5.031-28.142 1.96-41.407 7.793-6.85 3.005-13.578 5.86-20.795 7.863-2.187.589-2.187.589-4.893 1.7-18.105 5.07-40.353-.546-56.438-9.375-14.914-9.281-26.354-24.059-31.124-41.125-1.93-12.438 1.645-23.006 8.73-33.328 8.302-11.17 21.22-17.061 34.644-19.547 17.577-2.338 35.404-.986 52.438 3.75 28.36 7.806 57.114 4.75 84.752-4.413 20.743-6.699 41.97-5.908 58.873 8.913ZM147.813 137.5l2.33-.093c14.674-.003 28.662 7.5 41.607 13.655 25.212 12.03 25.212 12.03 52.178 8.504 1.567-.563 3.131-1.13 4.695-1.702C266.68 151.3 286.64 144.937 306 150l-1 3 2.664-.598c3.578-.431 5.363-.062 8.711 1.16l3.148 1.125c2.467.932 4.93 1.869 7.391 2.813 14.927 5.724 30.188 11 46.086 5.5l2.328-.707c6.092-1.997 11.518-4.774 17.11-7.856 8.623-4.721 16.599-7.656 26.562-7.437l-1 3c-.37 5.642-.118 9.083 3 14 2.448 1.224 3.734 1.016 6.438.75l2.37-.203c2.647-.66 3.596-1.346 5.192-3.547.575-2.17.575-2.17.688-4.5l.199-2.344A98.29 98.29 0 0 0 436 149c1.379.205 2.753.44 4.125.688l2.32.386c3.688 1.336 6.415 2.61 8.555 5.926.98 4.488.974 8.858.938 13.438l.146 3.681c.014 8.674.014 8.674-3.015 12.004A41.79 41.79 0 0 1 442 189l-2.137.975c-15.785 6.794-31.32 4.696-46.863-.975a3118.94 3118.94 0 0 0-6.928-2.449 513.686 513.686 0 0 1-4.402-1.583c-14.658-5.31-33.255-4.986-47.67 1.032-4.885 2.77-9.112 5.952-13 10l-2-1-1 2c-3.546.799-7.195 1-10.813 1.313-1.049.09-2.098.182-3.179.276-7.683.555-13.766.19-21.008-2.589l-2.879-.957a317.49 317.49 0 0 1-6.426-2.227l-3.57-1.254-3.492-1.246c-13.577-4.136-26.722-4.734-40.79-4.609a3257.156 3257.156 0 0 0-20.345.087c-5.021.031-10.043.044-15.064.06-9.812.031-19.623.083-29.434.146l1.563 1.688C164 190 164 190 163.828 192.347c-1.625 5.199-5.462 8.575-9.829 11.652-3.99 1.213-7.718 1.196-11.866 1.101l-3.497.028c-3.792.02-7.58-.026-11.371-.074-2.644-.004-5.287-.005-7.93-.003a1590.69 1590.69 0 0 1-16.583-.098c-6.383-.069-12.765-.088-19.149-.08-6.157.008-12.313-.014-18.47-.05-2.614-.013-5.228-.02-7.842-.02a946.51 946.51 0 0 1-10.943-.094l-3.275.012c-4.846-.097-7.292-.148-11.283-3.079C30 199 30 199 30 196h2l.688-3.75C34.33 184.793 37.523 177.775 41 171c2.163 2.163 2.6 3.348 3.508 6.21l.8 2.524.817 2.641.84 2.617C48.195 188.92 49 191.83 49 196c3.11-.663 3.11-.663 4.135-3.025l1.056-2.631 1.174-2.848 1.197-2.996c.787-1.95 1.58-3.898 2.38-5.844l1.052-2.63C61 174 61 174 63 173c1.506 3.456 3.004 6.915 4.5 10.375l1.3 2.984 1.231 2.852 1.143 2.634C72 194 72 194 72 196h9l.313-2c.581-2.539 1.322-4.613 2.312-7 1.294-3.439 1.938-5.506.375-9-1.884-2.18-3.866-4.047-6-6l-4 6c-3.638-3.25-5.739-7.434-8.184-11.602-1.586-2.537-1.586-2.537-4.039-3.234L60 163l-.805 2.2c-1.196 2.802-2.598 5.105-4.32 7.613l-1.633 2.394L52 177c-3.766-1.68-5.138-3.276-7-7v-2l-2-1c-.625-2.063-.625-2.063-1-4-4.635 1.163-6.152 3.265-8.492 7.152l-1.133 1.973A95.838 95.838 0 0 1 28 179h-3c-1.338-2.456-2.67-4.914-4-7.375l-1.156-2.117C17 164.227 17 164.227 17 162l-5-2v-2h-2a490.122 490.122 0 0 1-2.563-5.75l-1.44-3.234c-.992-3-1.159-4.15.003-7.016l4.492 3.809c3.502 2.767 6.092 2.167 10.352 1.714 2.989-.495 5.848-1.215 8.765-2.028 13.029-3.603 24.546-3.708 37.5.63 3.026 1.068 3.026 1.068 6.891.875l1 2c14.87 5.697 26.074 1.075 40.099-4.347 10.855-4.17 21.012-6.888 32.713-7.153Zm-13.938 40.875-1.707 1.54c-1.432 1.316-2.805 2.697-4.168 4.085v2h11l-3-4 2-4h3l10 13h-44l5-5v-2l4-2v-1H94l1.438 5.25A419.098 419.098 0 0 1 98 196c7.475.076 14.95.129 22.424.165 2.544.015 5.087.035 7.63.061 3.654.037 7.308.054 10.962.067l3.45.047h3.215l2.826.02c2.928-.423 4.304-1.42 6.493-3.36-.613-3.22-1.698-5.272-3.652-7.89l-1.604-2.15-1.681-2.21-1.67-2.258-1.608-2.133-1.472-1.954L142 173c-3.488 0-5.678 3.104-8.125 5.375Z" fill="#795E26"/><path d="M313 325c9.608 9.724 14.59 21.507 16 35l-3.496.34c-13.734 1.577-25.897 5.67-38.757 10.618-11.507 4.363-19.92 5.447-31.747 1.042a297.447 297.447 0 0 1-6.688-3.438c-7.497-3.927-15.063-5.837-23.312-7.562v-2l2.438-1.938c2.86-2.302 3.397-3.59 3.8-7.183.206-5.003.206-5.003-1.988-9.379-4.274-2.85-8.153-2.852-13.25-2.5-4.308 1.582-4.308 1.582-7 5a97.48 97.48 0 0 0-.125 5.438l-.008 2.933c.02 2.74.02 2.74 1.133 5.629l-1.826-.063c-21.878-.657-39.616 3.825-60.044 11.083-2.03.72-4.062 1.44-6.094 2.157a848.953 848.953 0 0 0-5.894 2.107c-15.355 5.447-32.511 7.5-48.142 1.716-10.845-5.523-10.845-5.523-13-11h-2c.791-12.066 4.933-22.849 13-32 17.083-14.679 38.638-16.12 60.154-14.875 8.029.608 15.498 2.228 23.221 4.375 28.36 7.806 57.114 4.75 84.752-4.413 20.743-6.699 41.97-5.908 58.873 8.913Z" fill="#A48233"/><path d="M317.293 227.5C319 229 319 229 321 232c.116 3.208.044 6.347-.078 9.55-.089 3.756-.068 5.23 2.078 8.45.41 4.195.372 8.39.37 12.604.005 2.06.041 4.116.08 6.175.041 14.203.041 14.203-4.45 19.221-6.168 4.2-13.33 3.445-20.563 3.375l-3.654.035-3.537-.012-3.197-.01C285 291 285 291 279 288v-21l-5 1 .048 2.551c.051 3.152.088 6.303.117 9.455.015 1.358.035 2.717.061 4.076.291 15.545.291 15.545-5.538 22.793-4.679 3.699-10.014 3.249-15.795 3.239h-2.072c-2.24 0-4.48-.008-6.72-.016l-4.682-.005c-4.093-.003-8.187-.013-12.28-.024-4.183-.01-8.366-.015-12.55-.02-8.196-.01-16.392-.028-24.589-.049 4.195-12.74 11.53-22.702 20-33l-5-1v-2h-2c-3.392-4.206-4.268-8.713-4-14 1.509-6.517 3.616-11.813 9-16l1.934-1.52c7.72-5.656 15.409-7.26 24.816-8.042 7.259-.846 13.19-3.352 19.813-6.375 19.305-8.78 44.042-13.877 62.73-.563ZM307 264c-1.563 1.563-1.306 3.277-1.5 5.438-.39 4.343-.39 4.343-1.5 6.562-1.96.45-1.96.45-4.375.688l-2.398.261C295 277 295 277 292 276l-2-10h-3a267.995 267.995 0 0 0-.125 4.25l-.07 2.39c.215 2.606.803 4.16 2.195 6.36 2.954 1.477 5.652 1.21 8.938 1.25l3.777.078c3.23-.04 3.23-.04 5.164-1.719 2.236-3.209 2.229-5.354 2.183-9.234l-.027-3.04L309 264h-2Z" fill="#785E26"/><path d="M394.509 188.487c14.231 5.787 28.76 6.238 43.491 1.513 3.83-1.767 7.416-3.783 11-6l2-1v61h-2l-5-5c-9.663-8.59-23.307-11.042-35.895-10.418-8.671.725-16.425 3.421-24.105 7.418-15.282 7.902-32.285 9.43-49.065 5.626-3.454-1.117-6.36-3.052-8.935-5.626-.136-2.751-.21-5.481-.246-8.234l-.1-5.118a2741.25 2741.25 0 0 1-.13-8.09c-.04-2.598-.092-5.195-.145-7.792l-.026-2.431c-.092-4.214-.428-7.486-2.353-11.335 20.026-18.003 48.546-13.907 71.509-4.513Z" fill="#534015"/><path d="M223.251 386.274c6.696 1.769 12.928 3.092 19.874 3.039l2.188-.007c8.06-.146 15.84-1.652 23.592-3.845 2.287-.503 4.344-.59 6.685-.594l2.627-.004 2.72.012 2.71-.012c4.24.007 8.221.05 12.353 1.137v9c4.56 2.28 6.167 2.318 11 1 2.075-2.629 2.943-4.83 4-8 5.027.457 8.149 2.992 12 6-8.705 11.529-22.84 18.713-37 21-12.499 1.173-24.033.425-35.76-4.135-2.644-1.021-5.307-1.983-7.974-2.943-4.693-1.69-9.373-3.41-14.046-5.153-14.53-5.031-28.142 1.96-41.407 7.794-6.85 3.004-13.578 5.858-20.795 7.862-2.187.589-2.187.589-4.893 1.7-18.105 5.07-40.353-.546-56.437-9.375C96.319 405.562 89.306 399.313 84 391l1-2 1.434 1.172C98.72 399.849 110.795 401.032 126 400c14.877-2.202 29.483-9.323 43.332-14.947 18.601-7.548 35.126-3.79 53.92 1.22Z" fill="#534016"/><path d="M330 89c10.005-.046 20.01-.082 30.015-.104 4.645-.01 9.29-.024 13.936-.047 4.48-.022 8.96-.034 13.441-.039 1.712-.003 3.424-.01 5.136-.021 2.393-.015 4.784-.017 7.177-.016l2.16-.022c4.907.02 4.907.02 7.135 2.249-.26 5.362-1.79 9.017-4.504 13.594l-1.075 1.82c-3.89 6.514-8.1 12.81-12.358 19.086a1982.557 1982.557 0 0 0-3.331 4.946 542.071 542.071 0 0 1-3.368 4.915 61.248 61.248 0 0 0-4.222 7.316c-4.874 9.512-4.874 9.512-10.568 11.548-4.182.397-8.144.356-12.328.142a562.298 562.298 0 0 0-4.535-.06c-3.954-.053-7.9-.19-11.851-.346-4.042-.144-8.084-.207-12.128-.277-7.914-.15-15.822-.388-23.732-.684 1.258-4.472 2.615-8.8 4.313-13.125 1.994-5.102 1.994-5.102 3.949-10.219 2.205-5.843 4.566-11.538 7.207-17.196 2.02-4.564 3.857-9.193 5.699-13.831l1.12-2.81c.905-2.272 1.809-4.545 2.712-6.819Z" fill="#775D44"/><path d="M192.164 187.023c1.645.02 3.29.033 4.934.043 4.3.038 8.595.136 12.892.247 4.398.103 8.795.148 13.194.199 8.607.106 17.21.277 25.816.488-1.914 4.039-4.176 6.104-7.614 8.917-2.397 2.01-2.397 2.01-4.338 4.237-7.727 8.17-16.666 9.792-27.236 12.159-1.707.404-3.413.81-5.119 1.22-3.326.797-6.655 1.579-9.986 2.351-5.524 1.293-10.996 2.75-16.47 4.241-5.06 1.368-10.148 2.62-15.237 3.875l-4 1-11.336 2.834-2.198.55L127 234l-2.137.567c-9.008 2.36-14.888-.182-22.988-4.005-1.752-.811-3.505-1.623-5.258-2.433l-2.325-1.092c-3.96-1.792-7.977-3.307-12.105-4.662-.79-.26-1.58-.52-2.394-.79-.592-.192-1.183-.386-1.793-.585v-2l-2.027-.32c-3.662-.837-7.062-2.155-10.535-3.555l-1.999-.777c-3.555-1.423-6.441-2.989-9.439-5.348l3.845-.004c11.949-.017 23.897-.06 35.845-.128 6.143-.034 12.286-.06 18.43-.064 5.926-.004 11.852-.032 17.778-.077 2.263-.013 4.526-.018 6.79-.013 3.165.005 6.329-.021 9.495-.055l2.846.027c5.183-.007 5.183-.007 9.272-2.915L160 203l2.485-2.484c2.545-2.445 2.545-2.445 4.587-5.157 7.34-8.84 14.47-8.693 25.092-8.336Z" fill="#8C8761"/><path d="M274 268c.075 4.002.129 8.003.165 12.006.015 1.358.035 2.717.061 4.076.291 15.545.291 15.545-5.538 22.793-4.679 3.699-10.014 3.249-15.795 3.239h-2.072c-2.24 0-4.48-.008-6.72-.016l-4.682-.005c-4.093-.003-8.187-.013-12.28-.024-4.183-.01-8.366-.015-12.55-.02-8.196-.01-16.392-.028-24.589-.049 2.804-8.515 6.722-15.747 12-23l1.848-2.605c4.825-6.188 4.825-6.188 8.558-6.77 3.406.354 6.352 1.294 9.594 2.375 12.746.93 22.29-2.524 33.76-7.487C261.749 269.958 267.409 268 274 268Z" fill="#565341"/><path d="M317.293 227.305c2.058 2.044 2.804 3.964 3.707 6.695-10.561 9.598-23.096 9.67-36.658 9.13-9.13-.506-17.785-1.827-26.342-5.13l-.48 1.793c-1.602 5.423-3.175 8.567-7.52 12.207l1.563 1.563C253 256 253 256 252.938 259.5c-1.035 3.862-1.659 5.256-4.938 7.5-3.438 1-3.438 1-7 1-3.899-2.304-5.905-5.031-8-9l-1.52.48c-9.33 1.955-19.262 1.51-27.48-3.48l-2-1c.254-3.647.692-5.614 3-8.5 9.397-7.831 17.54-11.047 29.75-12.063 7.259-.845 13.19-3.35 19.813-6.375 19.441-8.841 43.737-13.654 62.73-.757Z" fill="#A48233"/><path d="M138 159c3.29 1.386 4.895 2.825 6.918 5.746l1.601 2.273 1.668 2.418c4.506 6.432 9.105 12.493 14.399 18.301C164 190 164 190 163.827 192.345c-1.62 5.201-5.46 8.577-9.827 11.655-3.99 1.213-7.718 1.196-11.866 1.101l-3.497.028c-3.792.02-7.58-.026-11.371-.074-2.644-.004-5.287-.005-7.93-.003a1590.69 1590.69 0 0 1-16.583-.098c-6.383-.069-12.765-.088-19.149-.08-6.157.008-12.313-.014-18.47-.05-2.614-.013-5.228-.02-7.842-.02a946.51 946.51 0 0 1-10.943-.094l-3.275.012c-4.846-.097-7.292-.148-11.283-3.079C30 199 30 199 30 196h2l.688-3.75C34.33 184.793 37.523 177.775 41 171c2.163 2.163 2.6 3.348 3.508 6.21l.8 2.524.817 2.641.84 2.617C48.195 188.92 49 191.83 49 196c3.11-.663 3.11-.663 4.135-3.025l1.056-2.631 1.174-2.848 1.197-2.996c.787-1.95 1.58-3.898 2.38-5.844l1.052-2.63C61 174 61 174 63 173c1.506 3.456 3.004 6.915 4.5 10.375l1.3 2.984 1.231 2.852 1.143 2.634C72 194 72 194 72 196c10.249-.084 20.497-.18 30.746-.288 4.758-.05 9.517-.096 14.275-.134 4.59-.037 9.181-.083 13.772-.136 1.753-.019 3.506-.034 5.26-.045 2.451-.017 4.903-.046 7.354-.078l2.206-.007c3.675-.061 5.245-.217 8.387-2.312-.606-3.124-1.6-5.134-3.504-7.672l-1.494-2.012-1.565-2.066-1.576-2.113c-1.281-1.717-2.57-3.427-3.861-5.137-3.386 1.612-5.89 3.484-8.688 6l-2.386 2.125c-1.993 1.734-1.993 1.734-2.926 3.875l10-1-3-3c.75-1.938.75-1.938 2-4 2.078-.629 2.078-.629 4-1 1.673 1.953 3.338 3.912 5 5.875l1.445 1.684C151 188.773 151 188.773 151 191h-44c2-4 2-4 5-5v-2c1.416-1.395 1.416-1.395 3.406-3.035 4.96-4.217 9.517-8.777 14.094-13.403l2.492-2.505C133.997 163.04 136 161.02 138 159Z" fill="#B0AB7B"/><path d="M194 429c1.59 1.08 1.59 1.08 3.21 2.184l3.165 2.253 3.21 2.247C206 438 206 438 206.152 440.644L206 443c-15.187.329-30.373.575-45.563.725-7.055.072-14.108.17-21.161.331-6.822.156-13.64.236-20.464.272a397.89 397.89 0 0 0-7.765.152c-17.63.498-28.537-1.873-41.745-13.99C68 429 68 429 68 427c15.542-.355 31.084-.686 46.627-.99 7.217-.141 14.434-.29 21.65-.457 6.292-.146 12.583-.277 18.875-.391 3.33-.061 6.66-.131 9.99-.215 3.72-.091 7.44-.157 11.161-.218l3.335-.1c6.045-.067 9.585.272 14.362 4.371Z" fill="#C88B77"/><path d="m5 142 1.617 1.348c3.882 2.948 6.94 5.193 11.945 4.777 3.747-.631 7.369-1.643 11.032-2.641 13.078-3.518 24.511-3.714 37.515.641 3.026 1.068 3.026 1.068 6.891.875 7.051 11.83 7.051 11.83 6.938 16.652-.776 2.3-1.725 4.248-2.938 6.348-.73 1.52-1.46 3.04-2.188 4.563L74 178c-3.638-3.25-5.739-7.434-8.184-11.602-1.586-2.537-1.586-2.537-4.039-3.234L60 163l-.805 2.2c-1.196 2.802-2.598 5.105-4.32 7.613l-1.633 2.394L52 177c-3.766-1.68-5.138-3.276-7-7v-2l-2-1c-.625-2.063-.625-2.063-1-4-4.635 1.163-6.152 3.265-8.492 7.152l-1.133 1.973A95.838 95.838 0 0 1 28 179h-3c-1.338-2.456-2.67-4.914-4-7.375l-1.156-2.117C17 164.227 17 164.227 17 162l-5-2v-2h-2a774.579 774.579 0 0 1-2.5-5.75l-1.406-3.234C5 146 5 146 5 142Z" fill="#785E26"/><path d="M94 446c15.977-.258 31.954-.451 47.933-.57 7.42-.057 14.84-.134 22.259-.26 6.47-.11 12.94-.18 19.413-.205 3.424-.014 6.845-.047 10.268-.128 23.665-.496 23.665-.496 29.968 5.125 5.159 5.6 5.159 5.6 5.159 8.038-15.899.14-31.798.246-47.697.31-7.383.032-14.766.074-22.148.143-6.437.06-12.874.098-19.311.112-3.407.007-6.813.026-10.22.07-3.808.043-7.616.049-11.425.046l-3.398.066C107.4 458.688 103.333 457.139 98 452l-2.5-2.25C94 448 94 448 94 446Z" fill="#C88B77"/><path d="M333 92h72c-1.28 7.683-3.536 13.475-9 19-5.38 1.787-10.518 1.526-16.094 1.27a643.906 643.906 0 0 0-4.674-.056c-4.08-.05-8.153-.177-12.23-.321-4.17-.134-8.34-.193-12.51-.258-8.167-.14-16.329-.36-24.492-.635.408-1.482.827-2.96 1.25-4.438l.703-2.496C329.362 99.94 331.23 95.984 333 92Z" fill="#C78A76"/><path d="M324 115h69l-7 11-2.032 4.639c-1.755 2.779-2.62 3.28-5.872 4.033-3.879.259-7.704.228-11.584.11a880.669 880.669 0 0 0-4.284-.035c-3.747-.03-7.493-.109-11.24-.198-3.827-.082-7.654-.118-11.482-.158-7.503-.086-15.004-.222-22.506-.391 1-6 1-6 7-19Z" fill="#C78B77"/><path d="M55 239c4.436 4.436 5.848 9.14 6.5 15.25.116 3.771.116 3.771 2.5 5.75 1.1 3.723 1.157 5.57-.188 9.25-2.601 3.947-2.601 3.947-5.812 4.75-3.106-.277-5.998-.718-9-1.563-2.199-.568-2.199-.568-5.313-.312-5.75-.195-9.326-1.795-13.437-5.813-3.053-4.118-5.41-8.37-5.125-13.613 1.17-6.22 3.698-10.686 8.375-15.012 7.051-4.76 14.737-3.21 21.5 1.313Z" fill="#493A2A"/><path d="m93.73 402.906 2.457 2.594c5.054 4.996 10.192 8.405 16.356 11.906L115 419v2a55815.188 55815.188 0 0 1-28.26 1.146c-3.438.14-6.876.278-10.314.416l-3.236.133-3.033.121-2.658.108c-7.929.24-7.929.24-11.311-2.592l-2.07-1.709-2.118-1.81-2.117-1.752C46.064 411.872 42.453 408.58 39 405a41.72 41.72 0 0 1 7.999-1.389l2.348-.182 2.512-.183 2.616-.197c1.826-.137 3.651-.273 5.477-.406 2.774-.204 5.548-.414 8.321-.625l5.336-.397 2.489-.19c14.066-1.015 14.066-1.015 17.632 1.475Z" fill="#C78B76"/><path d="M216.023 101.281c5.727 4.684 9.3 9.26 10.422 16.649.293 5.1.242 9.021-3.007 13.132-3.825 4.073-8.974 5.996-14.446 6.407-1.372.026-2.745.036-4.117.031l-2.09.086c-3.968.015-5.615-.447-8.715-2.992-3.388-4.245-3.316-7.575-3.382-12.844l-.088-2.277c-.06-5.31.847-8.294 4.4-12.473 2.219-1.863 2.219-1.863 4.5-3.313.753-.49 1.506-.982 2.281-1.488 4.476-2.419 9.703-3.792 14.242-.918Z" fill="#795E26"/><path d="M319 248h3c2.132 4.264 1.268 9.839 1.295 14.529a316.7 316.7 0 0 0 .062 4.16c.344 16.075.344 16.075-4.357 21.311-6.168 4.2-13.33 3.445-20.563 3.375l-3.654.035-3.537-.012-3.197-.01C285 291 285 291 279 288v-22h8l.184 1.828.253 2.422.247 2.39c.311 2.656.311 2.656 1.316 6.36h18c.924-3.698 1.096-6.657 1.188-10.438.426-6.185.426-6.185 3.625-9.312L315 257c1.627-2.893 2.848-5.89 4-9Z" fill="#575340"/><path d="M347 258c3.273 1.286 6.543 2.58 9.813 3.875l2.814 1.105 2.705 1.075 2.491.984C367 266 367 266 370 268c-.276 3.647-.574 7.292-.875 10.938l-.238 3.154-.254 2.998-.222 2.777L368 290c-2.405 1.203-4.104 1.203-6.79 1.316l-2.85.127-2.985.12-3.008.13c-2.455.107-4.911.209-7.367.307l-1.36-3.18c-.932-2.18-1.877-4.35-2.843-6.515l-1.047-2.43-1.078-2.445c-1.143-4.134-.13-6.608 1.922-10.29l1.906-2.89 1.906-2.922C346 259 346 259 347 258Z" fill="#565342"/><path d="M69 365c3.125 1.562 3.542 4.688 4.688 7.813 2.42 6.36 5.307 12 8.894 17.796C84 393 84 393 85 396c-3.629.815-7.082 1.18-10.797 1.316l-3.383.128-3.57.118-3.642.13c-9.206.306-18.398.425-27.608.308 1.568-4.042 4.446-6.461 7.625-9.25 1.092-.978 2.184-1.957 3.273-2.938l1.613-1.449c1.977-1.81 3.863-3.7 5.739-5.613 3.19-3.244 6.529-6.253 9.988-9.207A83.68 83.68 0 0 0 69 365ZM159 271c4.344.612 7.594 2.191 11.438 4.273l1.825.984c1.916 1.033 3.826 2.075 5.737 3.118 1.284.693 2.567 1.386 3.852 2.078 5.105 2.76 10.191 5.525 15.148 8.547-1.094 1.819-2.2 3.63-3.313 5.438l-1.863 3.058C190 301 190 301 187 302a135.13 135.13 0 0 1-8.535-2.492l-2.529-.804c-2.669-.852-5.334-1.715-7.999-2.579-1.8-.575-3.6-1.15-5.4-1.723-13.135-4.201-13.135-4.201-15.537-5.402 1.53-4.672 4.108-8.022 7.125-11.813l1.418-1.81A946.629 946.629 0 0 1 159 271Z" fill="#C78B76"/><path d="M369.945 328.488c13.89 10.22 13.89 10.22 15.602 16.527.395 4.694-.54 8.703-2.547 12.985-2.765 2.515-5.388 3.253-9 4-1.356.412-2.71.828-4.063 1.25L367 364a1416.796 1416.796 0 0 1-6.527-7.266 168.247 168.247 0 0 0-4.664-4.968c-4.76-4.963-4.76-4.963-4.997-8.891 3.244-7.852 6.734-10.104 14.313-13.969 2.875-.906 2.875-.906 4.82-.418Z" fill="#565342"/><path d="M409.7-.098c2.992 1.428 4.84 3.253 7.113 5.66l2.394 2.504L421 10c-1 3-1 3-2.567 4.089l-2.047 1.012-2.317 1.161-2.522 1.222-2.583 1.273a1077.32 1077.32 0 0 1-5.427 2.642 925.191 925.191 0 0 0-8.283 4.081c-1.756.857-3.512 1.713-5.27 2.567l-2.497 1.246c-5.76 2.748-5.76 2.748-9.395 2.542-2.556-1.02-4.652-2.317-6.904-3.898l-2.395-1.66L367 25c2.648-3.027 5.91-4.859 9.355-6.836l1.88-1.095c1.982-1.152 3.967-2.298 5.952-3.444 1.963-1.137 3.925-2.276 5.886-3.416a1196.48 1196.48 0 0 1 3.795-2.194 157.886 157.886 0 0 0 9.745-6.117C407 0 407 0 409.7-.098Z" fill="#C68B76"/><path d="M314 138h63l-2 5-1.267 3.276c-3.92 3.907-7.105 3.406-12.487 3.404l-3.98-.094c-1.362-.011-2.724-.02-4.086-.026a880.834 880.834 0 0 1-10.732-.148c-3.653-.061-7.306-.089-10.96-.119A2612.75 2612.75 0 0 1 310 149l4-11Z" fill="#C78B76"/><path d="M397 387c4.553.618 8.285 2.468 12.313 4.563l1.955.998c1.58.807 3.156 1.622 4.732 2.439.027 2.02.047 4.042.063 6.063l.035 3.41c-.1 3.58-.526 6.994-1.098 10.527-2.707.506-5.416 1.005-8.125 1.5l-2.305.434c-4.25.77-8.229 1.232-12.57 1.066-.87-2.224-1.72-4.453-2.563-6.688l-.748-1.896c-1.447-3.893-2.197-6.496-.689-10.416a90.326 90.326 0 0 1 4.563-6.313l1.287-1.666A528.907 528.907 0 0 1 397 387Z" fill="#8B8761"/><path d="M452 150c4.676 3.854 8.94 7.88 13 12.375l1.46 1.594c.996 1.09 1.98 2.19 2.952 3.3 1.59 1.786 1.59 1.786 3.506 3.47 4.118 3.975 5.537 6.734 5.766 12.511a213.724 213.724 0 0 1-.247 6.75l-.095 3.504A381.519 381.519 0 0 1 478 202c-3.347-1.572-5.326-3.182-7.75-6l-1.86-2.125C467 192 467 192 467 190h-2a81.996 81.996 0 0 1-3.813-4.625c-2.22-2.862-4.275-5.458-6.93-7.938-3.76-4.483-2.78-10.29-2.57-15.812l.069-3.387c.059-2.747.14-5.492.244-8.238Z" fill="#C78B75"/><path d="M426.7 14.934c2.857 1.324 4.819 2.972 7.113 5.129l2.394 2.222L438 24c-2.084 2.254-4.039 3.717-6.765 5.116l-2.266 1.172-2.434 1.232-2.514 1.279c-1.753.888-3.507 1.773-5.263 2.655-2.69 1.356-5.367 2.735-8.045 4.114-1.704.86-3.41 1.72-5.115 2.577l-2.428 1.262-2.275 1.124-1.992 1.008C397 46 397 46 394.877 45.186c-2.045-1.292-3.816-2.709-5.627-4.311l-1.86-1.633L386 38c3.398-2.843 6.796-5.143 10.676-7.277l3.26-1.807 3.377-1.854c2.205-1.215 4.41-2.432 6.613-3.652l3.17-1.745c2.548-1.46 4.957-3.02 7.384-4.669 2.438-1.54 3.265-1.99 6.22-2.062Z" fill="#C78B76"/><path d="M442.059 28.055c2.644 1.287 4.536 3.011 6.691 5.008l2.422 2.222L453 37c-2.058 2.228-3.937 3.65-6.658 4.977l-2.195 1.082-2.358 1.136-2.44 1.191c-1.701.828-3.404 1.654-5.109 2.476-2.603 1.257-5.199 2.527-7.795 3.798-1.656.804-3.312 1.608-4.968 2.41l-2.346 1.15c-7.222 3.465-7.222 3.465-11.131 3.78-2.02-1.363-2.02-1.363-3.813-3.313l-1.832-1.925C401 52 401 52 401 50a1264080418.806 1264080418.806 0 0 1 8.18-4.574c2.3-1.286 4.601-2.57 6.903-3.854 7.318-4.087 7.318-4.087 14.554-8.318l1.933-1.149c1.624-.972 3.24-1.958 4.856-2.945C440 28 440 28 442.059 28.055Z" fill="#C68B75"/><path d="M73 147c8.287 10.714 8.287 10.714 7.793 16.371-.758 2.34-1.68 4.437-2.793 6.629l-1.11 2.34A189.169 189.169 0 0 1 74 178c-3.638-3.25-5.739-7.434-8.184-11.602-1.586-2.537-1.586-2.537-4.039-3.234L60 163l-.805 2.2c-1.196 2.802-2.598 5.105-4.32 7.613l-1.633 2.394L52 177c-3.766-1.68-5.138-3.276-7-7v-2l-2-1c-1.176-4.267-1.348-6.302.652-10.309l2.285-3.129 2.278-3.183L50 148c4.092 1.364 4.615 3.348 6.688 7.063l1.886 3.347L60 161c2.363.007 2.363.007 5-1 1.672-2.197 2.987-4.176 4.313-6.563l1.087-1.865A333.786 333.786 0 0 0 73 147Z" fill="#4B3B2A"/><path d="M143 295c5.946 1.26 11.89 2.523 17.834 3.79l6.07 1.29c2.905.615 5.81 1.234 8.713 1.854l2.753.58 2.547.546 2.248.478C185 304 185 304 187 305c-1.875 4.875-1.875 4.875-3 6a73.018 73.018 0 0 1-4.612.114h-2.972l-3.232-.016-3.292-.005c-3.485-.005-6.97-.018-10.454-.03-2.357-.006-4.713-.01-7.069-.014-5.79-.011-11.58-.029-17.369-.049l8-16Z" fill="#C78B76"/><path d="M399.598 281.563c2.568 1.536 4.884 3.184 7.214 5.062l2.395 1.914L411 290c-.644 2.605-1.29 5.209-1.938 7.813l-.552 2.236c-.752 3.022-1.525 5.996-2.51 8.951-2.772-.114-5.542-.24-8.313-.375-.785-.03-1.57-.062-2.38-.094l-2.295-.117-2.11-.095C389 308 389 308 386 306c-1.43-5.174-2.33-10.713-1-16 3.445-4.416 8.57-9.743 14.598-8.438Z" fill="#8B8761"/><path d="M174 256c4.721 1.424 7.51 4.193 10.813 7.688 1.057 1.09 2.117 2.179 3.18 3.265l1.553 1.592c2.468 2.47 5.107 4.724 7.763 6.986 2.354 2.045 4.521 4.231 6.691 6.469-1.293 2.884-2.66 4.872-5 7-3.382-1.276-6.423-2.735-9.512-4.61l-2.549-1.538-2.626-1.602-2.569-1.555c-1.709-1.034-3.417-2.07-5.124-3.107A2728.752 2728.752 0 0 0 164 269c.823-4.112 2.525-5.84 5.563-8.75l2.503-2.422L174 256Z" fill="#C68B75"/><path d="M352 409c5.929 1.167 11.388 2.755 17 5 .46 7.67-1.276 14.53-3 22l-16 1c-6.03-12.182-6.03-12.182-5.906-15.594 1.108-2.942 2.61-5.185 4.469-7.719l1.94-2.675L352 409Z" fill="#565342"/><path d="M288 425c2.968 4.452 2.634 8.778 2 14-2.098 3.617-3.049 4.683-7 6-5.727.567-10.078.244-15-3-2.813-2.625-2.813-2.625-5-5l-1-1c.088-4.557.495-6.472 3.688-9.813 7.385-4.877 14.571-6.047 22.312-1.187Z" fill="#534016"/><path d="M452 128c4.652 1.949 8.184 5.414 11.913 8.715 3.325 2.911 6.518 5.079 10.4 7.222 2.551 1.863 3.541 3.176 4.056 6.31.401 5.933.121 11.832-.369 17.753-2.991-1.332-4.962-2.753-7.172-5.16l-1.753-1.891-3.7-4.08-1.867-2.056c-.6-.663-1.2-1.326-1.82-2.008-1.399-1.496-2.882-2.912-4.383-4.305-3.523-3.333-5.141-5.243-5.782-10.156-.02-3.49.122-6.874.477-10.344Z" fill="#C68B75"/><path d="M452 184a395.045 395.045 0 0 1 17.438 15.625l2.794 2.504c6.472 6.218 6.472 6.218 7.362 11.194.003 2.958-.16 5.754-.594 8.677-2.32.621-2.32.621-5 1-4.424-2.982-7.675-6.764-11.055-10.863-1.915-2.223-1.915-2.223-4.39-4.055-6.152-4.985-6.152-4.985-6.95-9.142-.383-5.01-.07-9.946.395-14.94Z" fill="#C88B77"/><path d="M132.25 65.688c2.83 2.38 4.393 3.879 5.75 7.312-.094 5.27-1.215 8.32-5 12-3.69 2.04-6.82 2.512-11 2-3.77-2.07-7.005-4.121-9-8-.49-3.312-.725-5.737.984-8.715 5.012-6.326 10.757-8.496 18.266-4.597Z" fill="#7A5F26"/><path d="M314 162c3.752 2.015 5.636 3.455 8 7 .545 3.066.534 5.932 0 9-2.488 3.248-5.085 5.695-9 7-3.896.508-5.684.167-9.188-1.688-3.782-3.11-5.487-5.403-6.312-10.25.682-4.176 2.58-6.074 5.5-9.062 3.705-2.47 6.702-2.674 11-2Z" fill="#A38232"/><path d="M434 328c1.174 2.1 2.34 4.205 3.5 6.313l1.012 1.802c1.556 2.843 2.488 4.592 2.488 7.885-2.195 2.078-2.195 2.078-5.125 4.25l-2.883 2.203c-3.63 1.877-5.132 1.706-8.992.547-2.494-1.146-4.658-2.548-7-4 .515-5.853 1.454-11.33 3-17 1.394-.34 2.79-.672 4.188-1l2.355-.563c2.537-.451 4.886-.51 7.457-.437Z" fill="#565342"/><path d="M468 73c3.348 1.738 5.438 3.095 7.438 6.313.759 3.626.522 6.103-.438 9.687-2.538 3.538-4.708 5.244-8.938 6.063-3.327.226-4.267-.165-7.437-1.75-3.699-3.259-4.432-4.823-5.063-9.688.584-4.834 1.988-6.256 5.438-9.625 3.351-1.117 5.483-1.345 9-1Z" fill="#4A3B2A"/><path d="M28 147c4.784 5.921 4.784 5.921 6.813 8.875l1.332 1.867c1.293 3.413.703 5.742-.145 9.258-1.742 3.309-1.742 3.309-3.875 6.438l-2.117 3.183L28 179h-3a737.87 737.87 0 0 1-4.063-7.25l-1.181-2.066-1.104-2.012-1.031-1.84c-.803-2.368-.498-3.512.379-5.832a141.882 141.882 0 0 1 5.063-6.75l1.431-1.824A871.787 871.787 0 0 1 28 147Z" fill="#4B3B2B"/><path d="M131 281c2.926 2.011 4.633 3.392 5.441 6.934.215 3.667-.238 5.706-2.066 8.941-2.829 2.53-4.631 3.464-8.375 4.125-4.064-.63-6.332-1.418-9.438-4.125-2.033-3.741-2.556-6.707-1.562-10.875 4.546-5.775 8.964-6.957 16-5Z" fill="#4B3C2B"/><path d="M79 109c2.875 2.5 2.875 2.5 5 5l1 1c.043 4.217-.31 7.896-2.563 11.5-3.406 2.096-6.449 2.699-10.437 2.5-4.19-1.676-6.185-3.893-8-8-.563-3.857-.356-5.44 1.75-8.75 4.391-4.391 7.12-4.863 13.25-3.25Z" fill="#98EDDA"/><path d="M355 375c1.824 2.555 1.824 2.555 3.688 5.875l1.886 3.305C362 387 362 387 362 389c-2.266 1.98-2.266 1.98-5.25 4.188l-2.953 2.23C351 397 351 397 348.879 396.93c-3.75-1.856-6.56-4.452-8.879-7.93-.6-4.252.656-8.44 3-12 2.059-.828 2.059-.828 4.438-1.25.782-.15 1.564-.3 2.37-.453C352 375 352 375 355 375Z" fill="#8A8661"/><path d="M345.188 193.688c4.426.362 6.397 1.547 9.812 4.312 1.55 3.1 1.29 5.579 1 9-1.535 2.942-2.641 4.566-5.871 5.598-4.172.686-7.41.633-11.129-1.598-2.622-2.441-2.979-3.852-3.5-7.438.623-4.438 2.113-5.753 5.5-8.562 1-1 1-1 4.188-1.313Z" fill="#785D25"/><path d="M224 417c5.051.474 9.457 2.898 14 5l1 10c-7.697 3.622-7.697 3.622-12 3-2.676-1.969-2.676-1.969-5.313-4.5l-2.675-2.531L217 426a1667050846.13 1667050846.13 0 0 0 4.59-6.152C223 418 223 418 224 417Z" fill="#8A8661"/><path d="M61 257c2.678 1.642 2.936 2.796 3.875 5.813.155 3.96-.707 5.898-2.875 9.187-2.739 2.25-4.027 1.998-7.625 1.688-4.918-1.002-4.918-1.002-6.5-3.375-1.144-3.024-1.269-5.098-.875-8.313 4.04-6.059 7.04-6.583 14-5Z" fill="#A28134"/><path d="M247.063 137.59c3.316.702 4.828 1.773 6.937 4.41.922 3.98.597 6.961-1.438 10.5-3.827 2.24-7.242 2.384-11.562 1.5-3.504-2.431-4.754-3.821-5.625-8 1.343-6.445 5.453-8.87 11.688-8.41Z" fill="#795E26"/><path d="M62 173c3.26 3.75 4.858 8.072 6.688 12.625l.97 2.352C72 193.729 72 193.729 72 196H53c1.126-6.754 1.126-6.754 2.594-10.05l.933-2.116.973-2.147.973-2.205c2.374-5.329 2.374-5.329 3.527-6.482ZM41 171c2.163 2.163 2.6 3.348 3.508 6.21l.8 2.524.817 2.641.84 2.617C48.195 188.92 49 191.83 49 196H32c1.631-8.897 4.876-16.962 9-25Z" fill="#4B3C2B"/><path d="M90 172c2.432 3.649 3.68 7.321 5.125 11.438l.84 2.314.793 2.244.723 2.037C98 192 98 192 98 196H81c.736-3.682 1.413-6.296 2.848-9.645l1.084-2.548 1.13-2.62 1.143-2.677c.927-2.172 1.86-4.342 2.795-6.51Z" fill="#4A3B2A"/><path d="M435 108c2.5 1.5 2.5 1.5 4 4 .791 4.021.622 6.964-1.5 10.5-3.536 2.122-6.479 2.291-10.5 1.5-2.5-1.5-2.5-1.5-4-4-.791-4.021-.622-6.964 1.5-10.5 3.536-2.122 6.479-2.291 10.5-1.5Z" fill="#795E26"/><path d="M348 314c1.482 3.235 2.123 6.534 3 10l-9 6-6-3c-.193-4.824.243-8.496 2-13 6.84-1.399 6.84-1.399 10 0Z" fill="#565342"/><path d="M306 264c.054 1.604.093 3.208.125 4.813l.07 2.707C306 274 306 274 304 277c-2.023.582-2.023.582-4.375.813l-2.336.269c-2.628-.094-4.086-.67-6.289-2.082-1.607-3.215-1.057-6.436-1-10l2.555-.184 3.32-.253 3.305-.247c2.556-.286 4.315-1.316 6.82-1.316Z" fill="#585340"/><path d="M179 157c2.5 1.563 2.5 1.563 4 4-.06 3.47-.373 5.92-2.125 8.938-3.06 1.733-5.443 1.483-8.875 1.062-2.438-1.625-2.438-1.625-4-4-.606-3.636-.472-5.283 1.563-8.375 3.372-2.248 5.462-2.193 9.437-1.625Z" fill="#A48232"/><path d="M168 394c2.791 1.983 3.826 3.13 4.5 6.5-.674 3.37-1.709 4.517-4.5 6.5-3 .563-3 .563-6 0-2.438-2.188-2.438-2.188-4-5 .069-2.895.611-4.407 2.188-6.813 2.743-1.797 4.608-1.645 7.812-1.187Z" fill="#765C25"/><path d="M428 198c2.791 1.983 3.826 3.13 4.5 6.5-.5 2.5-.5 2.5-2.063 4.875C428 211 428 211 424.375 210.875 421 210 421 210 419 208c-.55-6.052-.55-6.052 1.125-8.938 2.81-1.592 4.703-1.515 7.875-1.062Z" fill="#775C25"/><path d="M314.172 418.129 316 419c.96 2.882 1.106 4.699 1.063 7.688l-.028 2.449L317 431c-2.125.75-2.125.75-5 1-3.25-1.688-3.25-1.688-6-4-.672-2.145-.672-2.145-1-4a180.625 180.625 0 0 1 3.25-3.063l1.828-1.722C312 418 312 418 314.172 418.129Z" fill="#544117"/><path d="M426 263c1.59 2.217 2.723 4.579 4 7-2.188 2.563-2.188 2.563-5 5-3.446-.08-4.556-.556-7-3-.4-2.323-.74-4.657-1-7 5.625-3.125 5.625-3.125 9-2Z" fill="#565342"/><path d="M400.563 175.25C403 176 403 176 405 178c.375 2.938.375 2.938 0 6-1.75 1.938-1.75 1.938-4 3-2.48-.15-3.746-.833-5.813-2.188C394 183 394 183 394.125 179.938c1.127-3.783 2.393-5.082 6.438-4.687Z" fill="#554116"/><path d="M208 363c1.334 6.425 1.334 6.425-.125 8.938-2.511 1.423-4.03 1.489-6.875 1.062-1.813-1.188-1.813-1.188-3-3-.427-2.845-.36-4.364 1.063-6.875 3.053-1.773 5.601-.817 8.937-.125Z" fill="#544015"/></svg>