<?xml version="1.0" encoding="UTF-8"?>
<svg version="1.1" xmlns="http://www.w3.org/2000/svg" width="479" height="458">
<path d="M0 0 C2.06217603 0.75529439 4.12943949 1.49515871 6.19750977 2.23413086 C7.40076904 2.67587646 8.60402832 3.11762207 9.84375 3.57275391 C16.08644811 5.23767055 21.42681643 4.86679001 27.60375977 2.85522461 C28.71041992 2.50331055 29.81708008 2.15139648 30.95727539 1.78881836 C32.0897168 1.4162793 33.2221582 1.04374023 34.38891602 0.65991211 C54.07898802 -5.70478278 70.89367474 -8.52618866 90.38891602 0.59741211 C99.11628247 5.173487 107.64455263 10.80751242 113.88891602 18.53491211 C121.55025589 27.85527692 133.62072175 34.0494411 143.7902832 40.2487793 C155.97573874 47.76374364 162.15797165 54.90294698 165.54306507 69.06848907 C168.90169415 84.67103858 168.74674934 100.81654352 168.72607422 116.69311523 C168.73043392 118.93944974 168.7356212 121.18578277 168.74156189 123.43211365 C168.75482506 129.47135285 168.75554507 135.51052899 168.75299859 141.54977989 C168.75192061 146.61648758 168.75683298 151.68318293 168.76160401 156.74988794 C168.77328356 169.39399686 168.77249928 182.03806763 168.7660472 194.68217593 C168.76087777 205.61202474 168.77214393 216.54178442 168.79114542 227.47161561 C168.81060695 238.75439584 168.81847549 250.03713526 168.81502217 261.31993628 C168.81321979 267.63044194 168.81574056 273.94086589 168.82973671 280.25135803 C168.8424135 286.1875961 168.84027881 292.12365696 168.82732582 298.05989265 C168.82498213 300.22201157 168.8276141 302.38414336 168.83594894 304.54624748 C168.94051839 333.81083945 165.13884663 365.10499181 144.45141602 387.53491211 C143.62899414 388.44885742 142.80657227 389.36280273 141.95922852 390.30444336 C134.93434821 397.74674409 126.61472469 405.03535128 116.45141602 407.53491211 C116.12141602 408.19491211 115.79141602 408.85491211 115.45141602 409.53491211 C113.68896484 410.28100586 113.68896484 410.28100586 111.40844727 410.97241211 C110.58151367 411.22764648 109.75458008 411.48288086 108.90258789 411.74584961 C108.03182617 412.00624023 107.16106445 412.26663086 106.26391602 412.53491211 C104.56199052 413.05541014 102.86016532 413.57623628 101.15844727 414.09741211 C100.34448486 414.34305908 99.53052246 414.58870605 98.69189453 414.84179688 C96.83321082 415.41679993 94.99117684 416.04530376 93.15454102 416.68725586 C90.50056792 417.51949887 88.15552499 417.89134139 85.38891602 418.09741211 C82.94407603 418.28666513 80.61527526 418.49971775 78.2164917 419.01493835 C63.77061887 421.73149139 48.36181898 420.61668741 33.74829102 420.48413086 C31.29209556 420.46486096 28.83589841 420.44580648 26.37969971 420.42695618 C21.2663558 420.38624237 16.15307465 420.34104706 11.03979492 420.29296875 C4.48283408 420.23195377 -2.07414476 420.18523747 -8.63124466 420.14213848 C-13.68752687 420.10685073 -18.74370129 420.06261431 -23.79988861 420.01578712 C-26.21922049 419.99474281 -28.63858181 419.97684018 -31.05796051 419.96213341 C-34.42511419 419.94062376 -37.79192254 419.90672683 -41.15893555 419.86962891 C-42.1573497 419.86589767 -43.15576385 419.86216644 -44.18443298 419.85832214 C-45.55895378 419.83940918 -45.55895378 419.83940918 -46.96124268 419.82011414 C-47.75532658 419.81328456 -48.54941048 419.80645498 -49.36755753 419.79941845 C-53.11332671 419.34514625 -55.12975721 417.96570537 -57.73608398 415.28491211 C-60.13563541 412.93868405 -62.25557423 411.33207261 -65.04858398 409.53491211 C-68.67770722 407.19975487 -71.53394215 404.63568656 -74.54858398 401.53491211 C-75.20858398 401.20491211 -75.86858398 400.87491211 -76.54858398 400.53491211 C-79.42451254 399.09694783 -81.2845197 396.7989764 -83.54858398 394.53491211 C-85.19001362 393.49400551 -86.85570614 392.48986884 -88.54858398 391.53491211 C-89.89490223 390.55246366 -91.23299696 389.55814647 -92.54858398 388.53491211 C-92.21346732 385.60908586 -91.69262319 384.66134652 -89.43920898 382.68334961 C-88.56780273 382.09811523 -87.69639648 381.51288086 -86.79858398 380.90991211 C-85.93749023 380.31952148 -85.07639648 379.72913086 -84.18920898 379.12084961 C-76.32272196 374.39630267 -67.93794716 374.28765516 -59.07788086 376.33813477 C-55.61472431 377.42149397 -52.20895517 378.6082132 -48.79858398 379.84741211 C-25.12406618 387.92875348 0.09591143 391.81127567 23.67407227 380.97631836 C37.68075725 373.70702615 45.418415 365.51263803 50.45141602 350.53491211 C51.4038049 347.34353559 51.58023721 344.46656805 51.58422852 341.14038086 C51.58616211 339.58287109 51.58616211 339.58287109 51.58813477 337.99389648 C51.58426758 336.91430664 51.58040039 335.8347168 51.57641602 334.72241211 C51.5802832 333.65442383 51.58415039 332.58643555 51.58813477 331.48608398 C51.58143577 326.06994479 51.42344962 320.88109695 50.45141602 315.53491211 C50.30575195 314.69186523 50.16008789 313.84881836 50.01000977 312.98022461 C49.34237569 310.05757474 48.45868981 307.25492903 47.51391602 304.40991211 C47.17489258 303.37608398 46.83586914 302.34225586 46.48657227 301.27709961 C45.51016591 298.37917596 45.51016591 298.37917596 43.45141602 295.53491211 C43.1924963 293.15671444 43.1924963 293.15671444 43.17967224 290.29026794 C43.16995392 289.2036084 43.1602356 288.11694885 43.15022278 286.99736023 C43.14933907 285.2088842 43.14933907 285.2088842 43.1484375 283.38427734 C43.13999817 282.12884125 43.13155884 280.87340515 43.12286377 279.57992554 C43.10458396 276.84947081 43.09254626 274.11908459 43.08532524 271.38857841 C43.07384761 267.07367874 43.04839599 262.75893091 43.02101135 258.44410706 C42.97935705 251.6219574 42.94694334 244.79980049 42.9185372 237.97758394 C42.86755867 225.75377548 42.8054763 213.53003015 42.73319679 201.30632931 C42.70824319 197.0142212 42.68882586 192.7221332 42.67381465 188.42997921 C42.66124041 185.13868487 42.64255528 181.84742332 42.625 178.55615234 C42.62107994 176.76463997 42.62107994 176.76463997 42.61708069 174.93693542 C42.61018219 173.8530957 42.60328369 172.76925598 42.59617615 171.65257263 C42.59232123 170.70702231 42.58846632 169.761472 42.58449459 168.78726864 C42.5976085 166.49922995 42.5976085 166.49922995 41.45141602 164.53491211 C38.92408367 163.87936092 38.92408367 163.87936092 36.45141602 163.53491211 C36.12141602 164.19491211 35.79141602 164.85491211 35.45141602 165.53491211 C31.90548104 166.33363045 28.25637415 166.53492018 24.63891602 166.84741211 C23.58969971 166.93861328 22.5404834 167.02981445 21.45947266 167.1237793 C13.77635121 167.67899905 7.69351587 167.31399433 0.45141602 164.53491211 C-0.49862305 164.2190918 -1.44866211 163.90327148 -2.42749023 163.57788086 C-4.57749197 162.8594197 -6.71915191 162.11566615 -8.85327148 161.35131836 C-10.03147461 160.9375293 -11.20967773 160.52374023 -12.42358398 160.09741211 C-13.57600586 159.68620117 -14.72842773 159.27499023 -15.91577148 158.85131836 C-29.49259032 154.71513345 -42.63802806 154.11681351 -56.70483398 154.24194336 C-58.58768369 154.24755506 -60.47053785 154.25181769 -62.35339355 154.25480652 C-67.2523865 154.26613161 -72.1511025 154.2954889 -77.04998779 154.32891846 C-82.07161719 154.35988904 -87.09329238 154.37336888 -92.11499023 154.38842773 C-101.92630825 154.42037343 -111.73742288 154.47141582 -121.54858398 154.53491211 C-121.03295898 155.09178711 -120.51733398 155.64866211 -119.98608398 156.22241211 C-118.54858398 158.53491211 -118.54858398 158.53491211 -118.71993637 160.88296318 C-120.34438686 166.08174693 -124.18149927 169.4579495 -128.54858398 172.53491211 C-132.53920082 173.74824524 -136.26629835 173.73076036 -140.41479492 173.63598633 C-141.56875259 173.64533203 -142.72271027 173.65467773 -143.91163635 173.66430664 C-147.70348574 173.68343646 -151.49141725 173.6379598 -155.28295898 173.58959961 C-157.92612409 173.58550187 -160.56929608 173.58466553 -163.21246338 173.58694458 C-168.74051504 173.58502399 -174.26745093 173.54807145 -179.79516602 173.48852539 C-186.17862732 173.42005688 -192.5607416 173.40086715 -198.94453406 173.40929401 C-205.10155936 173.41682628 -211.25806153 173.39541021 -217.41498566 173.35974503 C-220.02886764 173.34634772 -222.64279 173.33928455 -225.25670624 173.33864975 C-228.90517767 173.33252094 -232.55182616 173.29366623 -236.19995117 173.24536133 C-237.28057327 173.2491983 -238.36119537 173.25303528 -239.4745636 173.25698853 C-244.32087869 173.16017552 -246.76682144 173.10903872 -250.75787354 170.17800903 C-252.54858398 167.53491211 -252.54858398 167.53491211 -252.54858398 164.53491211 C-251.88858398 164.53491211 -251.22858398 164.53491211 -250.54858398 164.53491211 C-250.32170898 163.29741211 -250.09483398 162.05991211 -249.86108398 160.78491211 C-248.21835047 153.32761103 -245.02446006 146.30965206 -241.54858398 139.53491211 C-239.38602782 141.69746827 -238.94830336 142.88241961 -238.04077148 145.74584961 C-237.64438477 146.99495117 -237.64438477 146.99495117 -237.23999023 148.26928711 C-236.97057617 149.14069336 -236.70116211 150.01209961 -236.42358398 150.90991211 C-236.14643555 151.77358398 -235.86928711 152.63725586 -235.58374023 153.52709961 C-234.35371963 157.45347079 -233.54858398 160.36432546 -233.54858398 164.53491211 C-230.43913869 163.8723204 -230.43913869 163.8723204 -229.41357422 161.50952148 C-229.06496338 160.64133789 -228.71635254 159.7731543 -228.35717773 158.87866211 C-227.96981445 157.93893555 -227.58245117 156.99920898 -227.18334961 156.03100586 C-226.59070313 154.54793945 -226.59070313 154.54793945 -225.98608398 153.03491211 C-225.19908406 151.08457627 -224.40640242 149.13652035 -223.60717773 147.19116211 C-223.25969482 146.32297852 -222.91221191 145.45479492 -222.55419922 144.56030273 C-221.54858398 142.53491211 -221.54858398 142.53491211 -219.54858398 141.53491211 C-218.04272876 144.99072526 -216.54490109 148.44995964 -215.04858398 151.90991211 C-214.61932617 152.89475586 -214.19006836 153.87959961 -213.74780273 154.89428711 C-213.34174805 155.83530273 -212.93569336 156.77631836 -212.51733398 157.74584961 C-212.1402832 158.61516113 -211.76323242 159.48447266 -211.37475586 160.38012695 C-210.54858398 162.53491211 -210.54858398 162.53491211 -210.54858398 164.53491211 C-207.57858398 164.53491211 -204.60858398 164.53491211 -201.54858398 164.53491211 C-201.44545898 163.87491211 -201.34233398 163.21491211 -201.23608398 162.53491211 C-200.6543007 159.99622142 -199.91383368 157.92236344 -198.92358398 155.53491211 C-197.6291395 152.0959402 -196.985513 150.02883548 -198.54858398 146.53491211 C-200.4320926 144.35482893 -202.41425555 142.48759557 -204.54858398 140.53491211 C-205.86858398 142.51491211 -207.18858398 144.49491211 -208.54858398 146.53491211 C-212.18633742 143.28415372 -214.2875608 139.10068318 -216.73217773 134.93334961 C-218.31818581 132.39592311 -218.31818581 132.39592311 -220.77124023 131.69897461 C-221.65102539 131.61776367 -221.65102539 131.61776367 -222.54858398 131.53491211 C-222.81413086 132.2606543 -223.07967773 132.98639648 -223.35327148 133.73413086 C-224.54931347 136.53662138 -225.95187506 138.83970563 -227.67358398 141.34741211 C-228.48182617 142.53270508 -228.48182617 142.53270508 -229.30639648 143.74194336 C-229.9212793 144.62946289 -229.9212793 144.62946289 -230.54858398 145.53491211 C-234.31450286 143.8542541 -235.68654738 142.25898532 -237.54858398 138.53491211 C-237.54858398 137.87491211 -237.54858398 137.21491211 -237.54858398 136.53491211 C-238.20858398 136.20491211 -238.86858398 135.87491211 -239.54858398 135.53491211 C-240.17358398 133.47241211 -240.17358398 133.47241211 -240.54858398 131.53491211 C-245.18396991 132.69785345 -246.70042805 134.8000416 -249.04077148 138.68725586 C-249.60151367 139.6637207 -249.60151367 139.6637207 -250.17358398 140.65991211 C-251.55448058 143.04382482 -252.96820586 145.26792776 -254.54858398 147.53491211 C-255.53858398 147.53491211 -256.52858398 147.53491211 -257.54858398 147.53491211 C-258.88697131 145.07921036 -260.21944631 142.62061295 -261.54858398 140.15991211 C-261.93014648 139.46124023 -262.31170898 138.76256836 -262.70483398 138.04272461 C-265.54858398 132.76147461 -265.54858398 132.76147461 -265.54858398 130.53491211 C-267.19858398 129.87491211 -268.84858398 129.21491211 -270.54858398 128.53491211 C-270.54858398 127.87491211 -270.54858398 127.21491211 -270.54858398 126.53491211 C-271.20858398 126.53491211 -271.86858398 126.53491211 -272.54858398 126.53491211 C-274.03223106 122.95341758 -275.50971755 119.36941333 -276.98608398 115.78491211 C-277.61740234 114.26124023 -277.61740234 114.26124023 -278.26147461 112.70678711 C-278.66430664 111.72709961 -279.06713867 110.74741211 -279.48217773 109.73803711 C-279.8539917 108.83730469 -280.22580566 107.93657227 -280.60888672 107.00854492 C-285.71940392 93.5557623 -282.27630061 79.24534898 -276.68774414 66.5847168 C-267.21643801 46.26632672 -251.48896309 29.35180272 -232.54858398 17.53491211 C-231.6784668 16.95741211 -230.80834961 16.37991211 -229.91186523 15.78491211 C-214.12585853 5.82935751 -195.72491465 -0.59465629 -177.54858398 -4.46508789 C-175.93790039 -4.83053711 -175.93790039 -4.83053711 -174.29467773 -5.20336914 C-152.01279241 -9.47382174 -130.77413679 -5.74116059 -109.84936523 2.01147461 C-96.82177806 6.75243475 -85.97493389 4.58410011 -73.62329102 -0.60083008 C-46.8832052 -11.73991031 -26.71359382 -9.83957399 0 0 Z M-148.67358398 146.90991211 C-149.2369043 147.41780273 -149.80022461 147.92569336 -150.38061523 148.44897461 C-151.8123444 149.76630411 -153.18542787 151.14674396 -154.54858398 152.53491211 C-154.54858398 153.19491211 -154.54858398 153.85491211 -154.54858398 154.53491211 C-150.91858398 154.53491211 -147.28858398 154.53491211 -143.54858398 154.53491211 C-144.53858398 153.21491211 -145.52858398 151.89491211 -146.54858398 150.53491211 C-145.88858398 149.21491211 -145.22858398 147.89491211 -144.54858398 146.53491211 C-143.55858398 146.53491211 -142.56858398 146.53491211 -141.54858398 146.53491211 C-138.24858398 150.82491211 -134.94858398 155.11491211 -131.54858398 159.53491211 C-146.06858398 159.53491211 -160.58858398 159.53491211 -175.54858398 159.53491211 C-173.89858398 157.88491211 -172.24858398 156.23491211 -170.54858398 154.53491211 C-170.54858398 153.87491211 -170.54858398 153.21491211 -170.54858398 152.53491211 C-169.22858398 151.87491211 -167.90858398 151.21491211 -166.54858398 150.53491211 C-166.54858398 150.20491211 -166.54858398 149.87491211 -166.54858398 149.53491211 C-173.80858398 149.53491211 -181.06858398 149.53491211 -188.54858398 149.53491211 C-188.07420898 151.26741211 -187.59983398 152.99991211 -187.11108398 154.78491211 C-186.22318661 158.02766774 -185.35824283 161.27183419 -184.54858398 164.53491211 C-177.07387804 164.61092315 -169.59927163 164.6634956 -162.12426758 164.69970703 C-159.58093542 164.71480147 -157.03762932 164.73527899 -154.49438477 164.76123047 C-150.84051078 164.79758388 -147.1869807 164.81463208 -143.53295898 164.82788086 C-141.82496124 164.85110664 -141.82496124 164.85110664 -140.0824585 164.87480164 C-139.02166077 164.87502823 -137.96086304 164.87525482 -136.86791992 164.87548828 C-135.46893463 164.88548103 -135.46893463 164.88548103 -134.04168701 164.89567566 C-131.11356486 164.47196283 -129.73710236 163.47560907 -127.54858398 161.53491211 C-128.16134528 158.31399884 -129.24638032 156.26247759 -131.20092773 153.64428711 C-131.73008789 152.93530273 -132.25924805 152.22631836 -132.80444336 151.49584961 C-133.35938477 150.76624023 -133.91432617 150.03663086 -134.48608398 149.28491211 C-135.0371582 148.53983398 -135.58823242 147.79475586 -136.15600586 147.02709961 C-136.68645508 146.32327148 -137.2169043 145.61944336 -137.76342773 144.89428711 C-138.24932373 144.24943359 -138.73521973 143.60458008 -139.23583984 142.94018555 C-139.66904541 142.47644531 -140.10225098 142.01270508 -140.54858398 141.53491211 C-144.03705392 141.53491211 -146.22622482 144.6385811 -148.67358398 146.90991211 Z " fill="#655F45" transform="translate(282.548583984375,31.465087890625)"/>
<path d="M0 0 C2.06217603 0.75529439 4.12943949 1.49515871 6.19750977 2.23413086 C7.40076904 2.67587646 8.60402832 3.11762207 9.84375 3.57275391 C16.08644811 5.23767055 21.42681643 4.86679001 27.60375977 2.85522461 C28.71041992 2.50331055 29.81708008 2.15139648 30.95727539 1.78881836 C32.0897168 1.4162793 33.2221582 1.04374023 34.38891602 0.65991211 C54.07898802 -5.70478278 70.89367474 -8.52618866 90.38891602 0.59741211 C99.11628247 5.173487 107.64455263 10.80751242 113.88891602 18.53491211 C121.55025589 27.85527692 133.62072175 34.0494411 143.7902832 40.2487793 C155.16592624 47.26431939 161.76974241 53.99610548 165.13476562 67.23583984 C169.46412317 86.00690645 168.69157952 105.403118 168.45141602 124.53491211 C167.92032227 124.18920166 167.38922852 123.84349121 166.84204102 123.48730469 C166.13563477 123.03508545 165.42922852 122.58286621 164.70141602 122.11694336 C164.00532227 121.66810791 163.30922852 121.21927246 162.59204102 120.75683594 C159.6130889 119.05637342 156.78436865 118.29871375 153.45141602 117.53491211 C153.6119043 118.42243164 153.6119043 118.42243164 153.77563477 119.32788086 C154.75235645 125.7658421 154.75235645 125.7658421 153.32641602 129.40991211 C150.35182679 132.78111324 147.90508889 134.2926333 143.45141602 135.03491211 C139.40376365 134.36030338 138.0011624 132.66745766 135.45141602 129.53491211 C134.15420152 125.64326863 134.32107609 122.64061985 134.45141602 118.53491211 C134.78141602 117.87491211 135.11141602 117.21491211 135.45141602 116.53491211 C123.95261424 117.03377553 114.93962458 121.14816022 105.01928711 126.59594727 C89.43182014 135.06592228 74.24342311 136.7557115 57.11157227 131.74194336 C52.56102144 130.24128145 48.11224667 128.54765693 43.66235352 126.77319336 C33.34831941 122.65866242 33.34831941 122.65866242 22.45141602 121.53491211 C22.45141602 120.87491211 22.45141602 120.21491211 22.45141602 119.53491211 C0.56282518 113.39014947 -22.99253119 123.02674185 -43.08520508 130.65869141 C-60.39954896 136.81738122 -76.22240441 127.71774581 -91.61828613 120.41687012 C-117.68949677 108.06079314 -137.82889634 103.59869589 -165.78588867 113.31225586 C-170.40764126 114.96744031 -174.97948996 116.74027924 -179.54858398 118.53491211 C-189.5576647 122.40009025 -197.40412873 122.25796135 -207.54858398 118.53491211 C-208.20858398 117.87491211 -208.86858398 117.21491211 -209.54858398 116.53491211 C-211.73947573 115.92485423 -211.73947573 115.92485423 -214.23608398 115.53491211 C-217.22960068 115.01349085 -220.01905323 114.39094635 -222.93139648 113.49975586 C-234.08145335 110.52560462 -244.86792048 112.68449291 -255.72119141 115.75585938 C-260.0962361 116.99022971 -263.95204884 118.01658495 -268.54858398 117.53491211 C-271.67358398 115.65991211 -271.67358398 115.65991211 -274.54858398 113.53491211 C-275.22147461 113.25647461 -275.89436523 112.97803711 -276.58764648 112.69116211 C-280.0015065 110.67820879 -280.59095462 107.54438111 -281.77905273 103.91381836 C-285.73844386 86.52867459 -279.59330616 70.07896767 -270.6652832 55.3034668 C-260.97580142 39.95790361 -247.91019053 27.11900877 -232.54858398 17.53491211 C-231.6784668 16.95741211 -230.80834961 16.37991211 -229.91186523 15.78491211 C-214.12585853 5.82935751 -195.72491465 -0.59465629 -177.54858398 -4.46508789 C-175.93790039 -4.83053711 -175.93790039 -4.83053711 -174.29467773 -5.20336914 C-152.01279241 -9.47382174 -130.77413679 -5.74116059 -109.84936523 2.01147461 C-96.82177806 6.75243475 -85.97493389 4.58410011 -73.62329102 -0.60083008 C-46.8832052 -11.73991031 -26.71359382 -9.83957399 0 0 Z " fill="#A48233" transform="translate(282.548583984375,31.465087890625)"/>
<path d="M0 0 C10.95740913 11.09011131 15.91146611 24.78946413 16.3125 40.125 C16.09641962 53.4544583 14.53576245 65.84721835 4.625 75.5 C-11.00547691 88.35827912 -29.16817767 91.88734071 -49 90 C-53.7719927 89.18846537 -58.26211448 87.6140762 -62.75976562 85.86523438 C-65.40415017 84.84390713 -68.06719175 83.88206097 -70.734375 82.921875 C-75.42696854 81.23205505 -80.10740726 79.51216147 -84.78027344 77.76855469 C-99.31033588 72.73768837 -112.92190393 79.72878683 -126.1875 85.5625 C-133.03766503 88.56724062 -139.76524282 91.42138114 -146.98217773 93.42504883 C-149.16920355 94.01357402 -149.16920355 94.01357402 -151.875 95.125 C-169.9803421 100.19449579 -192.22834375 94.57891423 -208.3125 85.75 C-223.22653175 76.46882164 -234.66705389 61.691103 -239.4375 44.625 C-241.3675126 32.18714105 -237.79213501 21.61875247 -230.70703125 11.296875 C-222.40496321 0.12612899 -209.48679056 -5.76402027 -196.0625 -8.25 C-178.48595103 -10.58797326 -160.65863345 -9.23606335 -143.625 -4.5 C-115.26411039 3.30572331 -86.51144973 0.24964925 -58.87280273 -8.91308594 C-38.12977317 -15.61151386 -16.90215753 -14.8214968 0 0 Z " fill="#795E26" transform="translate(313,325)"/>
<path d="M0 0 C0.76924805 -0.03077637 1.53849609 -0.06155273 2.33105469 -0.09326172 C17.0044421 -0.09627721 30.99254104 7.40767098 43.9375 13.5625 C69.1497425 25.59222908 69.1497425 25.59222908 96.1159668 22.06591797 C97.68205166 21.50254037 99.24673953 20.93526536 100.81005859 20.36425781 C118.86773921 13.79985143 138.82767987 7.43728553 158.1875 12.5 C157.8575 13.49 157.5275 14.48 157.1875 15.5 C158.50621094 15.20416016 158.50621094 15.20416016 159.8515625 14.90234375 C163.42901383 14.47087128 165.2149131 14.83952771 168.5625 16.0625 C169.60148437 16.43375 170.64046875 16.805 171.7109375 17.1875 C174.17715994 18.11856825 176.64048302 19.05556226 179.1015625 20 C194.02853836 25.72416138 209.28902971 31.00087072 225.1875 25.5 C225.95578125 25.26667969 226.7240625 25.03335938 227.515625 24.79296875 C233.60795946 22.79563155 239.03322674 20.01903449 244.625 16.9375 C253.2480299 12.21600021 261.2242486 9.28118774 271.1875 9.5 C270.8575 10.49 270.5275 11.48 270.1875 12.5 C269.81755446 18.14166944 270.06962173 21.5833458 273.1875 26.5 C275.63527839 27.7238892 276.92140541 27.516364 279.625 27.25 C280.40746094 27.18296875 281.18992187 27.1159375 281.99609375 27.046875 C284.64253328 26.38644446 285.59161458 25.70053765 287.1875 23.5 C287.76204542 21.33093572 287.76204542 21.33093572 287.875 19 C287.97361328 17.83984375 287.97361328 17.83984375 288.07421875 16.65625 C288.1644128 14.93945285 288.1875 13.21916474 288.1875 11.5 C289.56626798 11.70528323 290.94054994 11.9407301 292.3125 12.1875 C293.07820313 12.31511719 293.84390625 12.44273437 294.6328125 12.57421875 C298.3201403 13.91045222 301.04734737 15.18403732 303.1875 18.5 C304.16827608 22.98789871 304.16132495 27.35813459 304.125 31.9375 C304.17333984 33.15244141 304.22167969 34.36738281 304.27148438 35.61914062 C304.28574287 44.29305733 304.28574287 44.29305733 301.25610352 47.62255859 C298.95037561 49.18713434 296.74092453 50.39228016 294.1875 51.5 C293.48222168 51.82178223 292.77694336 52.14356445 292.05029297 52.47509766 C276.26586658 59.26920796 260.73019785 57.17083866 245.1875 51.5 C242.87928812 50.68033513 240.56941335 49.8654938 238.25927734 49.05126953 C236.78982707 48.53011805 235.32255418 48.00277165 233.85791016 47.46826172 C219.19970727 42.15824028 200.60240317 42.4821278 186.1875 48.5 C181.30281257 51.26966813 177.07542664 54.45212701 173.1875 58.5 C172.5275 58.17 171.8675 57.84 171.1875 57.5 C170.8575 58.16 170.5275 58.82 170.1875 59.5 C166.64156503 60.29871834 162.99245813 60.50000807 159.375 60.8125 C158.32578369 60.90370117 157.27656738 60.99490234 156.19555664 61.08886719 C148.5124352 61.64408694 142.42959985 61.27908222 135.1875 58.5 C134.23746094 58.18417969 133.28742188 57.86835938 132.30859375 57.54296875 C130.15859201 56.82450759 128.01693208 56.08075404 125.8828125 55.31640625 C124.70460938 54.90261719 123.52640625 54.48882812 122.3125 54.0625 C121.16007812 53.65128906 120.00765625 53.24007812 118.8203125 52.81640625 C105.24349366 48.68022134 92.09805593 48.0819014 78.03125 48.20703125 C76.14840029 48.21264295 74.26554613 48.21690558 72.38269043 48.21989441 C67.48369749 48.2312195 62.58498149 48.26057679 57.68609619 48.29400635 C52.66446679 48.32497693 47.64279161 48.33845677 42.62109375 48.35351562 C32.80977573 48.38546132 22.9986611 48.43650371 13.1875 48.5 C13.703125 49.056875 14.21875 49.61375 14.75 50.1875 C16.1875 52.5 16.1875 52.5 16.01614761 54.84805107 C14.39169712 60.04683482 10.55458471 63.42303739 6.1875 66.5 C2.19688316 67.71333313 -1.53021437 67.69584825 -5.67871094 67.60107422 C-6.83266861 67.61041992 -7.98662628 67.61976563 -9.17555237 67.62939453 C-12.96740176 67.64852436 -16.75533327 67.6030477 -20.546875 67.5546875 C-23.1900401 67.55058976 -25.8332121 67.54975342 -28.47637939 67.55203247 C-34.00443106 67.55011188 -39.53136695 67.51315934 -45.05908203 67.45361328 C-51.44254333 67.38514477 -57.82465762 67.36595504 -64.20845008 67.3743819 C-70.36547538 67.38191417 -76.52197755 67.3604981 -82.67890167 67.32483292 C-85.29278366 67.31143561 -87.90670601 67.30437244 -90.52062225 67.30373764 C-94.16909369 67.29760883 -97.81574217 67.25875412 -101.46386719 67.21044922 C-102.54448929 67.21428619 -103.62511139 67.21812317 -104.73847961 67.22207642 C-109.58479471 67.12526341 -112.03073746 67.07412661 -116.02178955 64.14309692 C-117.8125 61.5 -117.8125 61.5 -117.8125 58.5 C-117.1525 58.5 -116.4925 58.5 -115.8125 58.5 C-115.585625 57.2625 -115.35875 56.025 -115.125 54.75 C-113.48226648 47.29269892 -110.28837608 40.27473995 -106.8125 33.5 C-104.64994383 35.66255617 -104.21221937 36.8475075 -103.3046875 39.7109375 C-102.90830078 40.96003906 -102.90830078 40.96003906 -102.50390625 42.234375 C-102.23449219 43.10578125 -101.96507812 43.9771875 -101.6875 44.875 C-101.41035156 45.73867187 -101.13320312 46.60234375 -100.84765625 47.4921875 C-99.61763565 51.41855869 -98.8125 54.32941335 -98.8125 58.5 C-95.7030547 57.83740829 -95.7030547 57.83740829 -94.67749023 55.47460938 C-94.32887939 54.60642578 -93.98026855 53.73824219 -93.62109375 52.84375 C-93.23373047 51.90402344 -92.84636719 50.96429688 -92.44726562 49.99609375 C-91.85461914 48.51302734 -91.85461914 48.51302734 -91.25 47 C-90.46300007 45.04966416 -89.67031843 43.10160824 -88.87109375 41.15625 C-88.52361084 40.28806641 -88.17612793 39.41988281 -87.81811523 38.52539062 C-86.8125 36.5 -86.8125 36.5 -84.8125 35.5 C-83.30664477 38.95581315 -81.80881711 42.41504753 -80.3125 45.875 C-79.88324219 46.85984375 -79.45398438 47.8446875 -79.01171875 48.859375 C-78.60566406 49.80039063 -78.19960937 50.74140625 -77.78125 51.7109375 C-77.40419922 52.58024902 -77.02714844 53.44956055 -76.63867188 54.34521484 C-75.8125 56.5 -75.8125 56.5 -75.8125 58.5 C-72.8425 58.5 -69.8725 58.5 -66.8125 58.5 C-66.709375 57.84 -66.60625 57.18 -66.5 56.5 C-65.91821672 53.96130931 -65.1777497 51.88745133 -64.1875 49.5 C-62.89305552 46.06102809 -62.24942902 43.99392338 -63.8125 40.5 C-65.69600862 38.31991682 -67.67817157 36.45268346 -69.8125 34.5 C-71.1325 36.48 -72.4525 38.46 -73.8125 40.5 C-77.45025344 37.24924161 -79.55147681 33.06577107 -81.99609375 28.8984375 C-83.58210183 26.361011 -83.58210183 26.361011 -86.03515625 25.6640625 C-86.62167969 25.60992187 -87.20820312 25.55578125 -87.8125 25.5 C-88.07804687 26.22574219 -88.34359375 26.95148438 -88.6171875 27.69921875 C-89.81322948 30.50170928 -91.21579107 32.80479352 -92.9375 35.3125 C-93.74574219 36.49779297 -93.74574219 36.49779297 -94.5703125 37.70703125 C-94.98023438 38.29871094 -95.39015625 38.89039063 -95.8125 39.5 C-99.57841888 37.81934199 -100.9504634 36.22407321 -102.8125 32.5 C-102.8125 31.84 -102.8125 31.18 -102.8125 30.5 C-103.4725 30.17 -104.1325 29.84 -104.8125 29.5 C-105.4375 27.4375 -105.4375 27.4375 -105.8125 25.5 C-110.44788592 26.66294135 -111.96434407 28.76512949 -114.3046875 32.65234375 C-114.67851563 33.30332031 -115.05234375 33.95429688 -115.4375 34.625 C-116.8183966 37.00891271 -118.23212187 39.23301565 -119.8125 41.5 C-120.8025 41.5 -121.7925 41.5 -122.8125 41.5 C-124.15088733 39.04429825 -125.48336232 36.58570084 -126.8125 34.125 C-127.1940625 33.42632812 -127.575625 32.72765625 -127.96875 32.0078125 C-130.8125 26.7265625 -130.8125 26.7265625 -130.8125 24.5 C-133.2875 23.51 -133.2875 23.51 -135.8125 22.5 C-135.8125 21.84 -135.8125 21.18 -135.8125 20.5 C-136.4725 20.5 -137.1325 20.5 -137.8125 20.5 C-138.6805908 18.58959948 -139.53151783 16.67139263 -140.375 14.75 C-140.85066406 13.68265625 -141.32632813 12.6153125 -141.81640625 11.515625 C-142.8071154 8.51630163 -142.97411779 7.36578759 -141.8125 4.5 C-140.31510417 5.76953125 -138.81770833 7.0390625 -137.3203125 8.30859375 C-133.81832569 11.07570768 -131.2281771 10.47630762 -126.96875 10.0234375 C-123.97958731 9.52771002 -121.12003995 8.80759847 -118.203125 7.99487305 C-105.17499616 4.39225457 -93.65737832 4.28683145 -80.703125 8.625 C-77.67778496 9.6931468 -77.67778496 9.6931468 -73.8125 9.5 C-73.3175 10.49 -73.3175 10.49 -72.8125 11.5 C-57.94157798 17.197471 -46.73826011 12.57536534 -32.71386719 7.15332031 C-21.85807913 2.98365136 -11.70110629 0.26542731 0 0 Z M-13.9375 40.875 C-14.50082031 41.38289063 -15.06414062 41.89078125 -15.64453125 42.4140625 C-17.07626042 43.731392 -18.44934388 45.11183185 -19.8125 46.5 C-19.8125 47.16 -19.8125 47.82 -19.8125 48.5 C-16.1825 48.5 -12.5525 48.5 -8.8125 48.5 C-9.8025 47.18 -10.7925 45.86 -11.8125 44.5 C-11.1525 43.18 -10.4925 41.86 -9.8125 40.5 C-8.8225 40.5 -7.8325 40.5 -6.8125 40.5 C-3.5125 44.79 -0.2125 49.08 3.1875 53.5 C-11.3325 53.5 -25.8525 53.5 -40.8125 53.5 C-39.1625 51.85 -37.5125 50.2 -35.8125 48.5 C-35.8125 47.84 -35.8125 47.18 -35.8125 46.5 C-34.4925 45.84 -33.1725 45.18 -31.8125 44.5 C-31.8125 44.17 -31.8125 43.84 -31.8125 43.5 C-39.0725 43.5 -46.3325 43.5 -53.8125 43.5 C-53.338125 45.2325 -52.86375 46.965 -52.375 48.75 C-51.48710263 51.99275563 -50.62215885 55.23692208 -49.8125 58.5 C-42.33779406 58.57601104 -34.86318764 58.6285835 -27.38818359 58.66479492 C-24.84485143 58.67988936 -22.30154533 58.70036688 -19.75830078 58.72631836 C-16.1044268 58.76267177 -12.45089671 58.77971997 -8.796875 58.79296875 C-7.08887726 58.81619453 -7.08887726 58.81619453 -5.34637451 58.83988953 C-4.28557678 58.84011612 -3.22477905 58.84034271 -2.13183594 58.84057617 C-0.73285065 58.85056892 -0.73285065 58.85056892 0.69439697 58.86076355 C3.62251912 58.43705072 4.99898163 57.44069697 7.1875 55.5 C6.57473871 52.27908673 5.48970366 50.22756548 3.53515625 47.609375 C3.00599609 46.90039062 2.47683594 46.19140625 1.93164062 45.4609375 C1.37669922 44.73132813 0.82175781 44.00171875 0.25 43.25 C-0.30107422 42.50492188 -0.85214844 41.75984375 -1.41992188 40.9921875 C-1.95037109 40.28835937 -2.48082031 39.58453125 -3.02734375 38.859375 C-3.51323975 38.21452148 -3.99913574 37.56966797 -4.49975586 36.90527344 C-4.93296143 36.4415332 -5.36616699 35.97779297 -5.8125 35.5 C-9.30096994 35.5 -11.49014083 38.60366899 -13.9375 40.875 Z " fill="#795E26" transform="translate(147.8125,137.5)"/>
<path d="M0 0 C9.60750549 9.72385936 14.58990897 21.50688759 16 35 C14.84628906 35.11214844 13.69257813 35.22429687 12.50390625 35.33984375 C-1.22962828 36.91739261 -13.39280706 41.01079472 -26.25292969 45.95849609 C-37.75989028 50.32115996 -46.1721153 51.40465498 -58 47 C-60.24395957 45.88341435 -62.47248284 44.73545227 -64.6875 43.5625 C-72.18480657 39.63494317 -79.75144634 37.72469758 -88 36 C-88 35.34 -88 34.68 -88 34 C-87.195625 33.360625 -86.39125 32.72125 -85.5625 32.0625 C-82.70232302 29.76040634 -82.16540332 28.47236071 -81.76171875 24.87890625 C-81.55578583 19.87633599 -81.55578583 19.87633599 -83.75 15.5 C-88.02377996 12.65081336 -91.90322299 12.64849814 -97 13 C-101.30843924 14.58227602 -101.30843924 14.58227602 -104 18 C-104.09632897 19.81041793 -104.12981533 21.62452753 -104.125 23.4375 C-104.12757813 24.40558594 -104.13015625 25.37367188 -104.1328125 26.37109375 C-104.11213973 29.11017829 -104.11213973 29.11017829 -103 32 C-103.60247559 31.97905273 -104.20495117 31.95810547 -104.82568359 31.93652344 C-126.70402454 31.28046387 -144.44200173 35.7619363 -164.86962891 43.01953125 C-166.90038019 43.74070201 -168.93188673 44.45974928 -170.96411133 45.17675781 C-172.93129478 45.87219315 -174.89615186 46.57425893 -176.8581543 47.28417969 C-192.21313032 52.7308402 -209.36916763 54.78320577 -225 49 C-235.84516698 43.47736884 -235.84516698 43.47736884 -238 38 C-238.66 38 -239.32 38 -240 38 C-239.20876289 25.933634 -235.06677442 15.15148752 -227 6 C-209.91739289 -8.6789435 -188.362041 -10.11906629 -166.84570312 -8.87548828 C-158.81747582 -8.26734812 -151.34784301 -6.64727374 -143.625 -4.5 C-115.26411039 3.30572331 -86.51144973 0.24964925 -58.87280273 -8.91308594 C-38.12977317 -15.61151386 -16.90215753 -14.8214968 0 0 Z " fill="#A48233" transform="translate(313,325)"/>
<path d="M0 0 C1.70703125 1.5 1.70703125 1.5 3.70703125 4.5 C3.82263414 7.70798011 3.75096203 10.84681704 3.62890625 14.05078125 C3.54002339 17.80608188 3.56062125 19.280385 5.70703125 22.5 C6.11770808 26.69477051 6.07863196 30.8908731 6.07763672 35.10424805 C6.08198053 37.16345786 6.11821962 39.22047047 6.15625 41.27929688 C6.19804236 55.48173517 6.19804236 55.48173517 1.70703125 60.5 C-4.46080964 64.70044076 -11.62356551 63.94479853 -18.85546875 63.875 C-20.06138672 63.88660156 -21.26730469 63.89820313 -22.50976562 63.91015625 C-24.26063477 63.90435547 -24.26063477 63.90435547 -26.046875 63.8984375 C-27.10205322 63.89505371 -28.15723145 63.89166992 -29.24438477 63.88818359 C-32.29296875 63.5 -32.29296875 63.5 -38.29296875 60.5 C-38.29296875 53.57 -38.29296875 46.64 -38.29296875 39.5 C-39.94296875 39.83 -41.59296875 40.16 -43.29296875 40.5 C-43.2772583 41.34183838 -43.26154785 42.18367676 -43.24536133 43.05102539 C-43.19394624 46.20253182 -43.15647995 49.35382299 -43.12817383 52.50561523 C-43.11317466 53.86441117 -43.09276837 55.22315941 -43.06665039 56.58178711 C-42.77550007 72.12693083 -42.77550007 72.12693083 -48.60546875 79.375 C-53.28365369 83.07402996 -58.6191947 82.62395988 -64.39990234 82.61352539 C-65.08352844 82.61367142 -65.76715454 82.61381744 -66.47149658 82.6139679 C-68.71149974 82.61327608 -70.95141778 82.60551822 -73.19140625 82.59765625 C-74.75224767 82.59578947 -76.31308967 82.59436679 -77.87393188 82.59336853 C-81.96740355 82.58956383 -86.06083932 82.57975116 -90.15429688 82.56866455 C-94.33723465 82.55840628 -98.52017826 82.55386147 -102.703125 82.54882812 C-110.89975599 82.53812694 -119.0963579 82.52107528 -127.29296875 82.5 C-123.09764594 69.75925056 -115.76332701 59.79771981 -107.29296875 49.5 C-108.94296875 49.17 -110.59296875 48.84 -112.29296875 48.5 C-112.29296875 47.84 -112.29296875 47.18 -112.29296875 46.5 C-112.95296875 46.5 -113.61296875 46.5 -114.29296875 46.5 C-117.68508577 42.29377489 -118.56140344 37.78735004 -118.29296875 32.5 C-116.78417347 25.9827186 -114.6765987 20.68726774 -109.29296875 16.5 C-108.65488281 15.99855469 -108.01679688 15.49710938 -107.359375 14.98046875 C-99.63822889 9.32380021 -91.94992917 7.7196752 -82.54296875 6.9375 C-75.28403374 6.09223075 -69.35314968 3.58641075 -62.73046875 0.5625 C-43.42514762 -8.21703992 -18.68748275 -13.31353131 0 0 Z M-10.29296875 36.5 C-11.85602366 38.06305491 -11.59936843 39.77678218 -11.79296875 41.9375 C-12.18337971 46.28082192 -12.18337971 46.28082192 -13.29296875 48.5 C-15.25390625 48.94921875 -15.25390625 48.94921875 -17.66796875 49.1875 C-18.45945312 49.27386719 -19.2509375 49.36023438 -20.06640625 49.44921875 C-22.29296875 49.5 -22.29296875 49.5 -25.29296875 48.5 C-25.95296875 45.2 -26.61296875 41.9 -27.29296875 38.5 C-28.28296875 38.5 -29.27296875 38.5 -30.29296875 38.5 C-30.34743922 39.91623216 -30.38597383 41.33308191 -30.41796875 42.75 C-30.44117188 43.53890625 -30.464375 44.3278125 -30.48828125 45.140625 C-30.27259266 47.74614317 -29.68508655 49.29986977 -28.29296875 51.5 C-25.33908739 52.97694068 -22.64134993 52.70930797 -19.35546875 52.75 C-17.48568359 52.78867187 -17.48568359 52.78867187 -15.578125 52.828125 C-12.3475944 52.78862811 -12.3475944 52.78862811 -10.4140625 51.109375 C-8.17843985 47.90004911 -8.18535592 45.75470339 -8.23046875 41.875 C-8.23949219 40.87210937 -8.24851562 39.86921875 -8.2578125 38.8359375 C-8.26941406 38.06507813 -8.28101563 37.29421875 -8.29296875 36.5 C-8.95296875 36.5 -9.61296875 36.5 -10.29296875 36.5 Z " fill="#785E26" transform="translate(317.29296875,227.5)"/>
<path d="M0 0 C14.23161465 5.78733328 28.75937005 6.23873519 43.49121094 1.51342773 C47.32052671 -0.25394878 50.90724195 -2.26982108 54.49121094 -4.48657227 C55.15121094 -4.81657227 55.81121094 -5.14657227 56.49121094 -5.48657227 C56.49121094 14.64342773 56.49121094 34.77342773 56.49121094 55.51342773 C55.83121094 55.51342773 55.17121094 55.51342773 54.49121094 55.51342773 C52.82454427 53.84676107 51.1578776 52.1800944 49.49121094 50.51342773 C39.82775389 41.92368814 26.18415568 39.47151394 13.59667969 40.09545898 C4.92519174 40.82062207 -2.8292516 43.51641616 -10.50878906 47.51342773 C-25.79075114 55.41512466 -42.79417639 56.94351039 -59.57397461 53.13916016 C-63.02763208 52.02222336 -65.93459644 50.08762036 -68.50878906 47.51342773 C-68.64437522 44.76203939 -68.71941822 42.03225478 -68.75488281 39.27905273 C-68.78783501 37.5733187 -68.82104641 35.86758966 -68.85449219 34.16186523 C-68.9018278 31.46496185 -68.94622119 28.7680767 -68.9855957 26.07104492 C-69.02542231 23.47349147 -69.07695735 20.87636774 -69.12988281 18.27905273 C-69.13829697 17.4767926 -69.14671112 16.67453247 -69.15538025 15.84796143 C-69.24799856 11.63398262 -69.58374637 8.36255036 -71.50878906 4.51342773 C-51.48315705 -13.48941317 -22.96232162 -9.39390265 0 0 Z " fill="#534015" transform="translate(394.5087890625,188.486572265625)"/>
<path d="M0 0 C6.69544924 1.76931617 12.92713355 3.09260229 19.87353516 3.03881836 C20.59565186 3.0368042 21.31776855 3.03479004 22.06176758 3.03271484 C30.1216177 2.88585233 37.90084893 1.3800656 45.65380859 -0.8125 C47.94072512 -1.31599479 49.99776423 -1.40313153 52.33837891 -1.40649414 C53.6387207 -1.40842773 53.6387207 -1.40842773 54.96533203 -1.41040039 C56.31208008 -1.40459961 56.31208008 -1.40459961 57.68603516 -1.39868164 C58.58 -1.40254883 59.47396484 -1.40641602 60.39501953 -1.41040039 C64.63567613 -1.40410394 68.61692813 -1.36049267 72.74853516 -0.27368164 C72.74853516 2.69631836 72.74853516 5.66631836 72.74853516 8.72631836 C77.30925524 11.0066784 78.91574044 11.04435328 83.74853516 9.72631836 C85.82374984 7.09771309 86.69197053 4.89601225 87.74853516 1.72631836 C92.77545579 2.18331114 95.89749777 4.71873584 99.74853516 7.72631836 C91.04312655 19.25510272 76.90860229 26.43950388 62.74853516 28.72631836 C50.24986947 29.89912512 38.71522238 29.15120188 26.98876953 24.59155273 C24.34438499 23.57022549 21.68134341 22.60837933 19.01416016 21.64819336 C14.32156662 19.95837341 9.6411279 18.23847983 4.96826172 16.49487305 C-9.56180072 11.46400673 -23.17336878 18.45510519 -36.43896484 24.28881836 C-43.28912987 27.29355898 -50.01670766 30.14769949 -57.23364258 32.15136719 C-59.42066839 32.73989238 -59.42066839 32.73989238 -62.12646484 33.85131836 C-80.23180694 38.92081415 -102.4798086 33.30523259 -118.56396484 24.47631836 C-126.93227908 19.28841466 -133.94511376 13.03960172 -139.25146484 4.72631836 C-138.92146484 4.06631836 -138.59146484 3.40631836 -138.25146484 2.72631836 C-137.77837891 3.11303711 -137.30529297 3.49975586 -136.81787109 3.89819336 C-124.5299708 13.57521425 -112.45621496 14.75868191 -97.25146484 13.72631836 C-82.37407817 11.5240215 -67.76806614 4.40290263 -53.91992188 -1.22045898 C-35.31833066 -8.76873414 -18.79355455 -5.01067534 0 0 Z " fill="#534016" transform="translate(223.25146484375,386.273681640625)"/>
<path d="M0 0 C10.00499195 -0.0462752 20.00995858 -0.08184462 30.01503563 -0.10362434 C34.66045274 -0.11407582 39.30579681 -0.12825979 43.95117188 -0.15087891 C48.43153225 -0.1725588 52.91182222 -0.18455834 57.39223099 -0.18975449 C59.10431655 -0.19345899 60.81639812 -0.20069266 62.52845383 -0.21146011 C64.92058486 -0.22591068 67.31242242 -0.22798067 69.70458984 -0.22705078 C70.41740616 -0.23424133 71.13022247 -0.24143188 71.86463928 -0.24884033 C76.77189568 -0.22810432 76.77189568 -0.22810432 79 2 C78.73964457 7.36193648 77.21089005 11.01650455 74.49609375 15.59375 C74.14131454 16.19473511 73.78653534 16.79572021 73.42100525 17.41491699 C69.53185354 23.92781539 65.32013753 30.22452911 61.0625 36.5 C59.95025352 38.14715097 58.83931308 39.79512314 57.73202515 41.44561195 C56.62076462 43.09192286 55.49281595 44.72693556 54.36352539 46.3609314 C52.76739681 48.73394959 51.40127046 51.11004034 50.14221191 53.67666626 C45.26842271 63.18905603 45.26842271 63.18905603 39.57359314 65.22491455 C35.39246361 65.62198844 31.43025896 65.58128764 27.24609375 65.3671875 C25.73447397 65.34103017 24.22273435 65.32112311 22.71095276 65.30715942 C18.75715518 65.25403679 14.81071682 65.11689331 10.85980225 64.96130371 C6.81835533 64.81731183 2.77570177 64.75398762 -1.26757812 64.68359375 C-9.18174027 64.53404817 -17.0899517 64.29559446 -25 64 C-23.74225241 59.5280819 -22.38535255 55.19982311 -20.6875 50.875 C-18.69251798 45.77346781 -18.69251798 45.77346781 -16.73828125 40.65625 C-14.53330184 34.81340234 -12.17203934 29.11784969 -9.53125 23.46044922 C-7.51163473 18.89635055 -5.67386021 14.26705851 -3.83203125 9.62890625 C-3.46259399 8.70178833 -3.09315674 7.77467041 -2.71252441 6.81945801 C-1.80711783 4.54679233 -0.90297884 2.27363112 0 0 Z " fill="#775D44" transform="translate(330,89)"/>
<path d="M0 0 C1.64476187 0.01868549 3.28957996 0.03290393 4.93441772 0.0428772 C9.2332729 0.08079524 13.52866976 0.1787747 17.82617188 0.28991699 C22.22348248 0.3928007 26.62136023 0.43800944 31.01953125 0.48828125 C39.62657525 0.59505948 48.23082449 0.76538762 56.8359375 0.9765625 C54.92178535 5.01507059 52.66019226 7.08052572 49.22192383 9.89379883 C46.82536324 11.90408737 46.82536324 11.90408737 44.88354492 14.13085938 C37.15696534 22.30121018 28.21784049 23.92295638 17.6484375 26.2890625 C15.94136871 26.69306499 14.23497975 27.09995128 12.52929688 27.50976562 C9.20329525 28.30622636 5.87442271 29.088339 2.54272461 29.8605957 C-2.98069494 31.15335893 -8.45346923 32.61088629 -13.92626953 34.1015625 C-18.98661391 35.46909939 -24.07471925 36.72220317 -29.1640625 37.9765625 C-30.49749649 38.30949294 -31.83080449 38.64292802 -33.1640625 38.9765625 C-36.94270833 39.92122396 -40.72135417 40.86588542 -44.5 41.81054688 C-45.22541992 41.99190186 -45.95083984 42.17325684 -46.69824219 42.36010742 C-52.85351562 43.89892578 -59.00878906 45.43774414 -65.1640625 46.9765625 C-65.86914948 47.16373337 -66.57423645 47.35090424 -67.3006897 47.54374695 C-76.3086552 49.90435237 -82.18884857 47.36183702 -90.2890625 43.5390625 C-92.04130321 42.7270798 -93.79389663 41.9158577 -95.546875 41.10546875 C-96.31402832 40.74525635 -97.08118164 40.38504395 -97.87158203 40.01391602 C-101.83146374 38.222059 -105.84873239 36.7069694 -109.9765625 35.3515625 C-110.76675781 35.09117187 -111.55695313 34.83078125 -112.37109375 34.5625 C-112.96277344 34.36914062 -113.55445312 34.17578125 -114.1640625 33.9765625 C-114.1640625 33.3165625 -114.1640625 32.6565625 -114.1640625 31.9765625 C-114.83308594 31.87085938 -115.50210938 31.76515625 -116.19140625 31.65625 C-119.85278501 30.8190885 -123.25335497 29.50177399 -126.7265625 28.1015625 C-127.7155957 27.71677734 -127.7155957 27.71677734 -128.72460938 27.32421875 C-132.28039942 25.90190273 -135.16614981 24.33561618 -138.1640625 21.9765625 C-136.89508118 21.97513748 -135.62609985 21.97371246 -134.31866455 21.97224426 C-122.37022423 21.95558784 -110.42212508 21.91285555 -98.47386551 21.84447193 C-92.33083445 21.81015479 -86.18805334 21.78508456 -80.04492188 21.78100586 C-74.11841324 21.77673313 -68.19246889 21.74835495 -62.26613617 21.70313072 C-60.00311314 21.69012299 -57.7400227 21.68585956 -55.47696686 21.69040871 C-52.31117016 21.69529123 -49.14703769 21.66932521 -45.98144531 21.63598633 C-45.04205109 21.64461197 -44.10265686 21.65323761 -43.13479614 21.66212463 C-37.95230075 21.65566701 -37.95230075 21.65566701 -33.86297607 18.74784851 C-33.02201385 17.37606194 -33.02201385 17.37606194 -32.1640625 15.9765625 C-31.34400726 15.15674896 -30.52395203 14.33693542 -29.67904663 13.49227905 C-27.13440577 11.04728584 -27.13440577 11.04728584 -25.09170532 8.33511353 C-17.75160896 -0.50398676 -10.62273209 -0.35702112 0 0 Z " fill="#8C8761" transform="translate(192.1640625,187.0234375)"/>
<path d="M0 0 C0.07468157 4.00178342 0.12885021 8.00329167 0.16479492 12.00561523 C0.17979409 13.36441117 0.20020038 14.72315941 0.22631836 16.08178711 C0.51746868 31.62693083 0.51746868 31.62693083 -5.3125 38.875 C-9.99068494 42.57402996 -15.32622595 42.12395988 -21.10693359 42.11352539 C-21.79055969 42.11367142 -22.47418579 42.11381744 -23.17852783 42.1139679 C-25.41853099 42.11327608 -27.65844903 42.10551822 -29.8984375 42.09765625 C-31.45927892 42.09578947 -33.02012092 42.09436679 -34.58096313 42.09336853 C-38.6744348 42.08956383 -42.76787057 42.07975116 -46.86132812 42.06866455 C-51.0442659 42.05840628 -55.22720951 42.05386147 -59.41015625 42.04882812 C-67.60678724 42.03812694 -75.80338915 42.02107528 -84 42 C-81.19603726 33.48466321 -77.2779856 26.2526592 -72 19 C-71.39027344 18.14019531 -70.78054687 17.28039062 -70.15234375 16.39453125 C-65.32685971 10.20678333 -65.32685971 10.20678333 -61.59375 9.625 C-58.18792356 9.9788521 -55.24152352 10.91949216 -52 12 C-39.25412467 12.92957296 -29.70994116 9.47645202 -18.23925781 4.51342773 C-12.25224832 1.95825262 -6.59160002 0 0 0 Z " fill="#565341" transform="translate(274,268)"/>
<path d="M0 0 C2.05798226 2.04385423 2.80440866 3.96430056 3.70703125 6.6953125 C-6.85407373 16.29349321 -19.38918739 16.36536354 -32.95068359 15.82519531 C-42.0816601 15.31887058 -50.73594581 13.99802311 -59.29296875 10.6953125 C-59.53080078 11.58283203 -59.53080078 11.58283203 -59.7734375 12.48828125 C-61.37460263 17.91101176 -62.94786123 21.05481701 -67.29296875 24.6953125 C-66.77734375 25.2109375 -66.26171875 25.7265625 -65.73046875 26.2578125 C-64.29296875 28.6953125 -64.29296875 28.6953125 -64.35546875 32.1953125 C-65.38998272 36.05749798 -66.01387185 37.45171989 -69.29296875 39.6953125 C-72.73046875 40.6953125 -72.73046875 40.6953125 -76.29296875 40.6953125 C-80.19160848 38.39157084 -82.19837201 35.6640221 -84.29296875 31.6953125 C-84.79441406 31.85386719 -85.29585937 32.01242187 -85.8125 32.17578125 C-95.14206082 34.12984674 -105.07515694 33.68612992 -113.29296875 28.6953125 C-113.95296875 28.3653125 -114.61296875 28.0353125 -115.29296875 27.6953125 C-115.03850408 24.04798549 -114.60145565 22.08092113 -112.29296875 19.1953125 C-102.89562017 11.36418869 -94.75347847 8.14809879 -82.54296875 7.1328125 C-75.28403374 6.28754325 -69.35314968 3.78172325 -62.73046875 0.7578125 C-43.28876372 -8.08375114 -18.99268858 -12.89670505 0 0 Z " fill="#A48233" transform="translate(317.29296875,227.3046875)"/>
<path d="M0 0 C3.28908961 1.38587966 4.89528566 2.82475097 6.91796875 5.74609375 C7.44632324 6.49608643 7.97467773 7.2460791 8.51904297 8.01879883 C9.06963379 8.81697021 9.62022461 9.6151416 10.1875 10.4375 C14.69297142 16.86887214 19.29163043 22.92950971 24.5859375 28.73828125 C26 31 26 31 25.82718277 33.34487724 C24.20672127 38.54629627 20.36787663 41.92247942 16 45 C12.00938316 46.21333313 8.28228563 46.19584825 4.13378906 46.10107422 C2.97983139 46.11041992 1.82587372 46.11976563 0.63694763 46.12939453 C-3.15490176 46.14852436 -6.94283327 46.1030477 -10.734375 46.0546875 C-13.3775401 46.05058976 -16.0207121 46.04975342 -18.66387939 46.05203247 C-24.19193106 46.05011188 -29.71886695 46.01315934 -35.24658203 45.95361328 C-41.63004333 45.88514477 -48.01215762 45.86595504 -54.39595008 45.8743819 C-60.55297538 45.88191417 -66.70947755 45.8604981 -72.86640167 45.82483292 C-75.48028366 45.81143561 -78.09420601 45.80437244 -80.70812225 45.80373764 C-84.35659369 45.79760883 -88.00324217 45.75875412 -91.65136719 45.71044922 C-92.73198929 45.71428619 -93.81261139 45.71812317 -94.92597961 45.72207642 C-99.77229471 45.62526341 -102.21823746 45.57412661 -106.20928955 42.64309692 C-108 40 -108 40 -108 37 C-107.34 37 -106.68 37 -106 37 C-105.773125 35.7625 -105.54625 34.525 -105.3125 33.25 C-103.66976648 25.79269892 -100.47587608 18.77473995 -97 12 C-94.83744383 14.16255617 -94.39971937 15.3475075 -93.4921875 18.2109375 C-93.09580078 19.46003906 -93.09580078 19.46003906 -92.69140625 20.734375 C-92.42199219 21.60578125 -92.15257812 22.4771875 -91.875 23.375 C-91.59785156 24.23867187 -91.32070312 25.10234375 -91.03515625 25.9921875 C-89.80513565 29.91855869 -89 32.82941335 -89 37 C-85.8905547 36.33740829 -85.8905547 36.33740829 -84.86499023 33.97460938 C-84.51637939 33.10642578 -84.16776855 32.23824219 -83.80859375 31.34375 C-83.22754883 29.93416016 -83.22754883 29.93416016 -82.63476562 28.49609375 C-82.23966797 27.50738281 -81.84457031 26.51867187 -81.4375 25.5 C-80.65050007 23.54966416 -79.85781843 21.60160824 -79.05859375 19.65625 C-78.71111084 18.78806641 -78.36362793 17.91988281 -78.00561523 17.02539062 C-77 15 -77 15 -75 14 C-73.49414477 17.45581315 -71.99631711 20.91504753 -70.5 24.375 C-70.07074219 25.35984375 -69.64148438 26.3446875 -69.19921875 27.359375 C-68.79316406 28.30039063 -68.38710937 29.24140625 -67.96875 30.2109375 C-67.40317383 31.51490479 -67.40317383 31.51490479 -66.82617188 32.84521484 C-66 35 -66 35 -66 37 C-55.75136396 36.91569229 -45.50288518 36.82084641 -35.25447369 36.71247292 C-30.49593215 36.66248568 -25.73741307 36.61615589 -20.97875977 36.578125 C-16.38806117 36.54130281 -11.79754943 36.4949513 -7.20701027 36.44193649 C-5.45392948 36.42337621 -3.70080862 36.40827431 -1.94766808 36.39665604 C0.5042403 36.37982144 2.95571923 36.3507936 5.4074707 36.31884766 C6.13539322 36.31668747 6.86331573 36.31452728 7.61329651 36.31230164 C11.28752448 36.25097599 12.85794412 36.09470392 16 34 C15.39386998 30.87586715 14.39972557 28.86630076 12.49609375 26.328125 C12.00302734 25.66425781 11.50996094 25.00039062 11.00195312 24.31640625 C10.48568359 23.63449219 9.96941406 22.95257813 9.4375 22.25 C8.91736328 21.55261719 8.39722656 20.85523438 7.86132812 20.13671875 C6.57985819 18.42025444 5.29067202 16.70955569 4 15 C0.61358313 16.61185776 -1.88972495 18.48431467 -4.6875 21 C-5.47511719 21.70125 -6.26273437 22.4025 -7.07421875 23.125 C-9.06668353 24.85930579 -9.06668353 24.85930579 -10 27 C-6.7 26.67 -3.4 26.34 0 26 C-0.99 25.01 -1.98 24.02 -3 23 C-2.25 21.0625 -2.25 21.0625 -1 19 C1.078125 18.37109375 1.078125 18.37109375 3 18 C4.67268922 19.95346205 6.33821581 21.91229814 8 23.875 C8.47695312 24.43058594 8.95390625 24.98617187 9.4453125 25.55859375 C13 29.7734375 13 29.7734375 13 32 C-1.52 32 -16.04 32 -31 32 C-29 28 -29 28 -26 27 C-26 26.34 -26 25.68 -26 25 C-24.58398438 23.60522461 -24.58398438 23.60522461 -22.59375 21.96484375 C-17.63418911 17.74768627 -13.07671635 13.18766693 -8.5 8.5625 C-7.26636719 7.32209961 -7.26636719 7.32209961 -6.0078125 6.05664062 C-4.00287887 4.04005041 -2.00033747 2.02114764 0 0 Z " fill="#B0AB7B" transform="translate(138,159)"/>
<path d="M0 0 C1.58941406 1.08087891 1.58941406 1.08087891 3.2109375 2.18359375 C4.25507813 2.92738281 5.29921875 3.67117188 6.375 4.4375 C7.43460938 5.17871094 8.49421875 5.91992188 9.5859375 6.68359375 C12 9 12 9 12.15087891 11.64477539 C12.10108887 12.42199951 12.05129883 13.19922363 12 14 C-3.18665926 14.32895592 -18.37315352 14.57484131 -33.56258869 14.72537041 C-40.61773501 14.79716585 -47.6706518 14.89479006 -54.72436523 15.05615234 C-61.5456786 15.21212203 -68.36468765 15.2922252 -75.18767357 15.3282814 C-77.77642206 15.35393809 -80.3650596 15.40403902 -82.9528141 15.48022079 C-100.58338911 15.97810217 -111.4897417 13.60668486 -124.69839764 1.49051094 C-126 0 -126 0 -126 -2 C-110.45805207 -2.35486676 -94.91573366 -2.68617663 -79.37270164 -2.98955154 C-72.15557062 -3.13096596 -64.93875101 -3.28004591 -57.72216797 -3.44726562 C-51.4311961 -3.5930179 -45.14011597 -3.72429237 -38.84848559 -3.83828807 C-35.51792176 -3.89913637 -32.1879821 -3.9693161 -28.85789108 -4.05252838 C-25.13760744 -4.14426159 -21.41768746 -4.21039458 -17.69677734 -4.27050781 C-16.59626038 -4.30359039 -15.49574341 -4.33667297 -14.36187744 -4.37075806 C-8.31696256 -4.4380374 -4.77655582 -4.09948604 0 0 Z " fill="#C88B77" transform="translate(194,429)"/>
<path d="M0 0 C0.53367187 0.44472656 1.06734375 0.88945312 1.6171875 1.34765625 C5.49907411 4.29600957 8.55685312 6.54142903 13.5625 6.125 C17.30899976 5.49382771 20.93075032 4.48241535 24.59399414 3.48388672 C37.67162998 -0.03429443 49.1051756 -0.22989468 62.109375 4.125 C65.13471504 5.1931468 65.13471504 5.1931468 69 5 C76.05112443 16.83040687 76.05112443 16.83040687 75.9375 21.65234375 C75.16159773 23.95176245 74.21280209 25.8996838 73 28 C72.26932552 29.52010949 71.54009869 31.04091589 70.8125 32.5625 C70.214375 33.696875 69.61625 34.83125 69 36 C65.36224656 32.74924161 63.26102319 28.56577107 60.81640625 24.3984375 C59.23039817 21.861011 59.23039817 21.861011 56.77734375 21.1640625 C56.19082031 21.10992187 55.60429688 21.05578125 55 21 C54.73445313 21.72574219 54.46890625 22.45148438 54.1953125 23.19921875 C52.99927052 26.00170928 51.59670893 28.30479352 49.875 30.8125 C49.33617187 31.60269531 48.79734375 32.39289063 48.2421875 33.20703125 C47.83226562 33.79871094 47.42234375 34.39039063 47 35 C43.23408112 33.31934199 41.8620366 31.72407321 40 28 C40 27.34 40 26.68 40 26 C39.34 25.67 38.68 25.34 38 25 C37.375 22.9375 37.375 22.9375 37 21 C32.36461408 22.16294135 30.84815593 24.26512949 28.5078125 28.15234375 C27.94707031 29.12880859 27.94707031 29.12880859 27.375 30.125 C25.9941034 32.50891271 24.58037813 34.73301565 23 37 C22.01 37 21.02 37 20 37 C18.66161267 34.54429825 17.32913768 32.08570084 16 29.625 C15.6184375 28.92632812 15.236875 28.22765625 14.84375 27.5078125 C12 22.2265625 12 22.2265625 12 20 C9.525 19.01 9.525 19.01 7 18 C7 17.34 7 16.68 7 16 C6.34 16 5.68 16 5 16 C4.15787744 14.08717875 3.32661136 12.16957527 2.5 10.25 C2.0359375 9.18265625 1.571875 8.1153125 1.09375 7.015625 C0 4 0 4 0 0 Z " fill="#785E26" transform="translate(5,142)"/>
<path d="M0 0 C15.97731472 -0.25759198 31.95395044 -0.45124026 47.93284321 -0.56993389 C55.35315399 -0.62652466 62.77217066 -0.70359408 70.19165039 -0.82983398 C76.66275618 -0.93988462 83.13292448 -1.01053478 89.60494012 -1.03497344 C93.02870001 -1.04924908 96.44977942 -1.08249509 99.87267494 -1.16303062 C123.53795737 -1.65851112 123.53795737 -1.65851112 129.84130383 3.96187878 C135 9.56202263 135 9.56202263 135 12 C119.10105663 12.1403485 103.20228131 12.24605781 87.3028717 12.31087303 C79.91996515 12.34177194 72.53744417 12.38387543 65.15478516 12.45263672 C58.71777455 12.51256161 52.28104325 12.55117799 45.84376144 12.56453097 C42.43713539 12.57233302 39.03130819 12.59058349 35.62493896 12.63438034 C31.8158854 12.67799051 28.00848213 12.68393163 24.19921875 12.68115234 C23.07784012 12.702724 21.95646149 12.72429565 20.80110168 12.746521 C13.39903395 12.68815029 9.33270487 11.13857224 4 6 C3.175 5.2575 2.35 4.515 1.5 3.75 C0 2 0 2 0 0 Z " fill="#C88B77" transform="translate(94,446)"/>
<path d="M0 0 C23.76 0 47.52 0 72 0 C70.71956135 7.68263193 68.46401597 13.47480059 63 19 C57.62043203 20.78653334 52.48248476 20.52576102 46.90625 20.26953125 C45.34834501 20.24525068 43.79034 20.22676161 42.2322998 20.21379089 C38.15247213 20.1644029 34.0787677 20.03698252 30.00134277 19.89263916 C25.8324673 19.75907483 21.66259072 19.70016028 17.4921875 19.63476562 C9.32532998 19.49579268 1.16342871 19.27427995 -7 19 C-6.59173486 17.51849242 -6.17276672 16.03993475 -5.75 14.5625 C-5.40195312 13.32693359 -5.40195312 13.32693359 -5.046875 12.06640625 C-3.63826863 7.94045101 -1.77067422 3.98401699 0 0 Z " fill="#C78A76" transform="translate(333,92)"/>
<path d="M0 0 C22.77 0 45.54 0 69 0 C65.535 5.445 65.535 5.445 62 11 C61.3294458 12.53076172 60.6588916 14.06152344 59.96801758 15.63867188 C58.2134861 18.4175626 57.34865219 18.91930477 54.09603882 19.67211914 C50.21733087 19.93088922 46.39209087 19.9001983 42.51171875 19.78125 C41.08400141 19.76631831 39.65624292 19.75493565 38.22846985 19.74694824 C34.48071988 19.71648386 30.73547309 19.63798068 26.9887085 19.54931641 C23.16143663 19.46729546 19.33375785 19.43090276 15.50585938 19.390625 C8.00276821 19.3049718 0.50173556 19.16854505 -7 19 C-6 13 -6 13 0 0 Z " fill="#C78B77" transform="translate(324,115)"/>
<path d="M0 0 C4.43589028 4.43589028 5.84808673 9.13969426 6.5 15.25 C6.61644977 19.02141651 6.61644977 19.02141651 9 21 C10.09998591 24.72302922 10.15690897 26.57056492 8.8125 30.25 C6.21088435 34.19727891 6.21088435 34.19727891 3 35 C-0.10556312 34.72271758 -2.99796928 34.28182114 -6 33.4375 C-8.19874136 32.86907065 -8.19874136 32.86907065 -11.3125 33.125 C-17.06306013 32.93006576 -20.63932977 31.32974591 -24.75 27.3125 C-27.80316811 23.19427324 -30.15982172 18.94171851 -29.875 13.69921875 C-28.70426944 7.47971266 -26.17675357 3.01349705 -21.5 -1.3125 C-14.44861778 -6.072183 -6.76256863 -4.52311235 0 0 Z " fill="#493A2A" transform="translate(55,239)"/>
<path d="M0 0 C1.21623047 1.28390625 1.21623047 1.28390625 2.45703125 2.59375 C7.51013977 7.59008202 12.64866089 10.99830793 18.8125 14.5 C19.62332031 15.0259375 20.43414062 15.551875 21.26953125 16.09375 C21.26953125 16.75375 21.26953125 17.41375 21.26953125 18.09375 C14.24037244 18.37998998 7.21115131 18.66466011 0.18188477 18.94824219 C-2.20908038 19.04488615 -4.60003107 19.14188865 -6.9909668 19.23925781 C-10.42883621 19.37920016 -13.86675568 19.51785046 -17.3046875 19.65625 C-18.37257004 19.69999756 -19.44045258 19.74374512 -20.54069519 19.78881836 C-21.54135513 19.82885986 -22.54201508 19.86890137 -23.57299805 19.91015625 C-24.45013962 19.94568604 -25.32728119 19.98121582 -26.23100281 20.01782227 C-34.16038201 20.25869764 -34.16038201 20.25869764 -37.54296875 17.42578125 C-38.22617187 16.86181641 -38.909375 16.29785156 -39.61328125 15.71679688 C-40.31195313 15.11931641 -41.010625 14.52183594 -41.73046875 13.90625 C-42.42914063 13.32810547 -43.1278125 12.74996094 -43.84765625 12.15429688 C-47.66612164 8.96623851 -51.2780506 5.67428523 -54.73046875 2.09375 C-52.04698748 1.36433968 -49.50288747 0.91373635 -46.73144531 0.70483398 C-45.95673889 0.64484726 -45.18203247 0.58486053 -44.3838501 0.52305603 C-43.14003571 0.43236595 -43.14003571 0.43236595 -41.87109375 0.33984375 C-41.00788513 0.27467056 -40.14467651 0.20949738 -39.25531006 0.14234924 C-37.42977313 0.00539587 -35.60410529 -0.12982195 -33.77832031 -0.26342773 C-31.0041726 -0.46701048 -28.23060465 -0.67742477 -25.45703125 -0.88867188 C-23.67841608 -1.02124538 -21.8997711 -1.15341959 -20.12109375 -1.28515625 C-19.29998108 -1.34764053 -18.47886841 -1.41012482 -17.63287354 -1.47450256 C-3.56650842 -2.48992291 -3.56650842 -2.48992291 0 0 Z " fill="#C78B76" transform="translate(93.73046875,402.90625)"/>
<path d="M0 0 C5.72648525 4.68337084 9.29877456 9.25961883 10.421875 16.6484375 C10.71443968 21.74923908 10.66312277 25.66983861 7.4140625 29.78125 C3.58985953 33.85418161 -1.55922588 35.7763227 -7.03125 36.1875 C-8.40343646 36.21363689 -9.77601194 36.22393875 -11.1484375 36.21875 C-11.83808594 36.24710938 -12.52773437 36.27546875 -13.23828125 36.3046875 C-17.20644684 36.31986213 -18.85393373 35.85796909 -21.953125 33.3125 C-25.34161368 29.06729908 -25.26952337 25.737604 -25.3359375 20.46875 C-25.36494141 19.71722656 -25.39394531 18.96570313 -25.42382812 18.19140625 C-25.48405958 12.88177215 -24.57630425 9.89751037 -21.0234375 5.71875 C-18.8046875 3.85546875 -18.8046875 3.85546875 -16.5234375 2.40625 C-15.770625 1.91511719 -15.0178125 1.42398438 -14.2421875 0.91796875 C-9.76632886 -1.50120133 -4.53930546 -2.87430925 0 0 Z " fill="#795E26" transform="translate(216.0234375,101.28125)"/>
<path d="M0 0 C0.99 0 1.98 0 3 0 C5.13216599 4.26433197 4.26818561 9.83862332 4.29516602 14.52880859 C4.30663404 15.91563156 4.32700338 17.30241221 4.35668945 18.68896484 C4.70080278 34.76424764 4.70080278 34.76424764 0 40 C-6.16784089 44.20044076 -13.33059676 43.44479853 -20.5625 43.375 C-21.76841797 43.38660156 -22.97433594 43.39820313 -24.21679688 43.41015625 C-25.96766602 43.40435547 -25.96766602 43.40435547 -27.75390625 43.3984375 C-28.80908447 43.39505371 -29.8642627 43.39166992 -30.95141602 43.38818359 C-34 43 -34 43 -40 40 C-40 32.74 -40 25.48 -40 18 C-37.36 18 -34.72 18 -32 18 C-31.93941406 18.60328125 -31.87882812 19.2065625 -31.81640625 19.828125 C-31.73261719 20.62734375 -31.64882813 21.4265625 -31.5625 22.25 C-31.44068359 23.43335938 -31.44068359 23.43335938 -31.31640625 24.640625 C-31.00488803 27.29618363 -31.00488803 27.29618363 -30 31 C-24.06 31 -18.12 31 -12 31 C-11.07556629 27.30226515 -10.90427943 24.34293861 -10.8125 20.5625 C-10.38593878 14.37736237 -10.38593878 14.37736237 -7.1875 11.25 C-6.135625 10.5075 -5.08375 9.765 -4 9 C-2.37280899 6.10666643 -1.15177208 3.10978462 0 0 Z " fill="#575340" transform="translate(319,248)"/>
<path d="M0 0 C3.27308959 1.28600025 6.54305296 2.57977013 9.8125 3.875 C10.74126953 4.23980469 11.67003906 4.60460937 12.62695312 4.98046875 C13.51962891 5.33496094 14.41230469 5.68945312 15.33203125 6.0546875 C16.15421143 6.37937012 16.9763916 6.70405273 17.82348633 7.03857422 C20 8 20 8 23 10 C22.72358551 13.64716025 22.42632886 17.29232033 22.125 20.9375 C22.00705078 22.49887695 22.00705078 22.49887695 21.88671875 24.09179688 C21.76103516 25.57583008 21.76103516 25.57583008 21.6328125 27.08984375 C21.52283936 28.46450806 21.52283936 28.46450806 21.41064453 29.86694336 C21.27513184 30.57085205 21.13961914 31.27476074 21 32 C18.59458071 33.20270964 16.89633409 33.20316663 14.2109375 33.31640625 C13.26992188 33.35830078 12.32890625 33.40019531 11.359375 33.44335938 C10.37453125 33.48267578 9.3896875 33.52199219 8.375 33.5625 C7.38242187 33.60568359 6.38984375 33.64886719 5.3671875 33.69335938 C2.91160162 33.79961069 0.45591297 33.90164964 -2 34 C-2.44859375 32.95070313 -2.8971875 31.90140625 -3.359375 30.8203125 C-4.29180359 28.64062355 -5.23671779 26.46969066 -6.203125 24.3046875 C-6.54859375 23.50289063 -6.8940625 22.70109375 -7.25 21.875 C-7.60578125 21.06804687 -7.9615625 20.26109375 -8.328125 19.4296875 C-9.47113698 15.2962372 -8.45817382 12.82201774 -6.40625 9.140625 C-5.7771875 8.18671875 -5.148125 7.2328125 -4.5 6.25 C-3.55640625 4.80367188 -3.55640625 4.80367188 -2.59375 3.328125 C-1 1 -1 1 0 0 Z " fill="#565342" transform="translate(347,258)"/>
<path d="M0 0 C3.12463388 1.56231694 3.54154431 4.68792951 4.6875 7.8125 C7.10835068 14.17343595 9.99464808 19.81254392 13.58203125 25.609375 C15 28 15 28 16 31 C12.37105776 31.8152272 8.91789829 32.17978955 5.203125 32.31640625 C4.08655518 32.35838135 2.96998535 32.40035645 1.81958008 32.44360352 C0.64161865 32.48283936 -0.53634277 32.5220752 -1.75 32.5625 C-3.55271362 32.62618774 -3.55271362 32.62618774 -5.3918457 32.69116211 C-14.59820506 32.99777342 -23.78974995 33.11691432 -33 33 C-31.43242296 28.95829534 -28.5543623 26.53853719 -25.375 23.75 C-24.28252506 22.77231646 -23.19138204 21.79314263 -22.1015625 20.8125 C-21.56950195 20.33425781 -21.03744141 19.85601562 -20.48925781 19.36328125 C-18.5121325 17.55340129 -16.62633116 15.66370828 -14.75 13.75 C-11.55941673 10.50612932 -8.22113759 7.49715806 -4.76171875 4.54296875 C-3.10184189 3.08919634 -1.54066019 1.57858414 0 0 Z " fill="#C78B76" transform="translate(69,365)"/>
<path d="M0 0 C4.34413113 0.61177824 7.59429835 2.19133302 11.4375 4.2734375 C12.04005615 4.59784821 12.6426123 4.92225891 13.26342773 5.25650024 C15.17898226 6.28991599 17.08941775 7.33242584 19 8.375 C20.28354428 9.06828237 21.56739571 9.76099639 22.8515625 10.453125 C27.95702098 13.212906 33.04324325 15.97817832 38 19 C36.90630138 20.81883578 35.79968608 22.62990978 34.6875 24.4375 C34.07261719 25.44683594 33.45773438 26.45617187 32.82421875 27.49609375 C31 30 31 30 28 31 C25.0983437 30.25709539 22.30689312 29.43653365 19.46484375 28.5078125 C18.63038223 28.24241669 17.79592072 27.97702087 16.93617249 27.70358276 C14.26723115 26.85229394 11.60247871 25.98860384 8.9375 25.125 C7.13761662 24.55000804 5.33748906 23.97577983 3.53710938 23.40234375 C-9.59802511 19.20098745 -9.59802511 19.20098745 -12 18 C-10.46906512 13.32800909 -7.89242605 9.97829995 -4.875 6.1875 C-4.40707031 5.59001953 -3.93914062 4.99253906 -3.45703125 4.37695312 C-2.30994435 2.91383208 -1.15568766 1.45633703 0 0 Z " fill="#C78B76" transform="translate(159,271)"/>
<path d="M0 0 C13.88944219 10.21903827 13.88944219 10.21903827 15.6015625 16.52636719 C15.99709481 21.22106604 15.06236928 25.23008441 13.0546875 29.51171875 C10.28963247 32.02641668 7.66707403 32.76453131 4.0546875 33.51171875 C2.69898458 33.92335945 1.34461186 34.33943114 -0.0078125 34.76171875 C-0.9771875 35.00921875 -1.9465625 35.25671875 -2.9453125 35.51171875 C-5.12829072 33.09608752 -7.30636874 30.67673013 -9.47265625 28.24609375 C-10.99626922 26.56121369 -12.54611692 24.89913385 -14.13671875 23.27734375 C-18.89711622 18.31499002 -18.89711622 18.31499002 -19.1328125 14.38671875 C-15.88973958 6.53506852 -12.39898854 4.28309353 -4.8203125 0.41796875 C-1.9453125 -0.48828125 -1.9453125 -0.48828125 0 0 Z " fill="#565342" transform="translate(369.9453125,328.48828125)"/>
<path d="M0 0 C2.99267067 1.42774271 4.84107653 3.25229752 7.11328125 5.66015625 C7.90347656 6.48644531 8.69367188 7.31273437 9.5078125 8.1640625 C10.09949219 8.80214844 10.69117188 9.44023437 11.30078125 10.09765625 C10.30078125 13.09765625 10.30078125 13.09765625 8.73358154 14.1864624 C8.05805237 14.52034973 7.38252319 14.85423706 6.68652344 15.19824219 C5.9219281 15.58163757 5.15733276 15.96503296 4.36956787 16.36004639 C3.12122162 16.96492889 3.12122162 16.96492889 1.84765625 17.58203125 C0.99528381 18.00188293 0.14291138 18.42173462 -0.73529053 18.85430908 C-2.54188265 19.7402043 -4.35107015 20.6208232 -6.16259766 21.49658203 C-8.93249815 22.83954938 -11.68896822 24.20759158 -14.4453125 25.578125 C-16.20106449 26.43514926 -17.95755215 27.29066835 -19.71484375 28.14453125 C-20.53897766 28.55588318 -21.36311157 28.96723511 -22.21221924 29.39105225 C-27.9719107 32.13887302 -27.9719107 32.13887302 -31.60717773 31.93286133 C-34.16334399 30.91236363 -36.25893863 29.61546469 -38.51171875 28.03515625 C-39.30191406 27.48730469 -40.09210938 26.93945312 -40.90625 26.375 C-41.49792969 25.95347656 -42.08960938 25.53195313 -42.69921875 25.09765625 C-40.05073422 22.07098431 -36.78984872 20.23900911 -33.34375 18.26171875 C-32.41304939 17.71987442 -32.41304939 17.71987442 -31.46354675 17.16708374 C-29.48212459 16.0145337 -27.49712234 14.86833176 -25.51171875 13.72265625 C-23.54923513 12.58550266 -21.5875404 11.44701554 -19.62667847 10.30706787 C-18.36281463 9.57319841 -17.09762978 8.8415989 -15.83108521 8.11236572 C-12.49634195 6.18423411 -9.27105924 4.16039108 -6.0859375 1.99609375 C-2.69921875 0.09765625 -2.69921875 0.09765625 0 0 Z " fill="#C68B76" transform="translate(409.69921875,-0.09765625)"/>
<path d="M0 0 C20.79 0 41.58 0 63 0 C62.34 1.65 61.68 3.3 61 5 C60.58202148 6.08104004 60.16404297 7.16208008 59.73339844 8.27587891 C55.81259422 12.18337564 52.62799946 11.68177655 47.24639893 11.67977905 C45.93274353 11.64881134 44.61908813 11.61784363 43.265625 11.5859375 C41.90372589 11.57474139 40.54180255 11.56620315 39.17987061 11.56021118 C35.60191674 11.53734395 32.02543341 11.47844379 28.44805908 11.4119873 C24.79500218 11.35051638 21.1417067 11.32318621 17.48828125 11.29296875 C10.324774 11.22869362 3.1627807 11.12319124 -4 11 C-2.68 7.37 -1.36 3.74 0 0 Z " fill="#C78B76" transform="translate(314,138)"/>
<path d="M0 0 C4.55315948 0.61811534 8.28459767 2.46765893 12.3125 4.5625 C13.28026367 5.0565332 13.28026367 5.0565332 14.26757812 5.56054688 C15.84785228 6.36824255 17.42432105 7.18337613 19 8 C19.02734857 10.02075566 19.0465517 12.04162221 19.0625 14.0625 C19.07410156 15.18785156 19.08570313 16.31320312 19.09765625 17.47265625 C18.9985415 21.05268113 18.57153313 24.46729524 18 28 C15.29273634 28.5064814 12.58442876 29.005351 9.875 29.5 C9.11445313 29.64308594 8.35390625 29.78617187 7.5703125 29.93359375 C3.31957086 30.70312456 -0.65859197 31.16644376 -5 31 C-5.86979461 28.77585391 -6.72083184 26.54727408 -7.5625 24.3125 C-7.9327832 23.37374023 -7.9327832 23.37374023 -8.31054688 22.41601562 C-9.75770233 18.52296362 -10.5076861 15.91998387 -9 12 C-7.53440099 9.79190471 -6.07678821 7.75355543 -4.4375 5.6875 C-4.01275391 5.13771484 -3.58800781 4.58792969 -3.15039062 4.02148438 C-2.10818741 2.6748173 -1.05516157 1.33653799 0 0 Z " fill="#8B8761" transform="translate(397,387)"/>
<path d="M0 0 C4.67552603 3.85419657 8.93963783 7.88037449 13 12.375 C13.48210937 12.9009375 13.96421875 13.426875 14.4609375 13.96875 C15.4558926 15.05846273 16.43939769 16.15872751 17.41186523 17.26855469 C19.00161812 19.05500463 19.00161812 19.05500463 20.91821289 20.73925781 C25.03605286 24.71380967 26.45513064 27.47290069 26.68359375 33.25 C26.63752017 35.5010234 26.5546869 37.7515569 26.4375 40 C26.40591797 41.15628906 26.37433594 42.31257813 26.34179688 43.50390625 C26.25980124 46.33861265 26.14511113 49.16794107 26 52 C22.65348179 50.42844028 20.67414986 48.81781522 18.25 46 C17.32960938 44.948125 17.32960938 44.948125 16.390625 43.875 C15 42 15 42 15 40 C14.34 40 13.68 40 13 40 C11.66735577 38.51143934 10.40780521 36.95696355 9.1875 35.375 C6.96606886 32.51334983 4.91160471 29.917397 2.2578125 27.4375 C-1.50221452 22.95380695 -0.52387077 17.146655 -0.3125 11.625 C-0.28994141 10.50738281 -0.26738281 9.38976562 -0.24414062 8.23828125 C-0.18543378 5.4908011 -0.10336846 2.74610239 0 0 Z " fill="#C78B75" transform="translate(452,150)"/>
<path d="M0 0 C2.8580203 1.32468513 4.81980846 2.97235721 7.11328125 5.12890625 C7.90347656 5.86238281 8.69367188 6.59585937 9.5078125 7.3515625 C10.09949219 7.91746094 10.69117188 8.48335937 11.30078125 9.06640625 C9.21635758 11.32069029 7.26216887 12.783192 4.53540039 14.18286133 C3.78774918 14.56948441 3.04009796 14.95610748 2.26979065 15.35444641 C1.46661911 15.76083847 0.66344757 16.16723053 -0.1640625 16.5859375 C-0.99378067 17.00816086 -1.82349884 17.43038422 -2.67835999 17.86540222 C-4.43095636 18.75366076 -6.18526977 19.63853845 -7.94116211 20.52026367 C-10.63116893 21.87610897 -13.30855548 23.25494943 -15.98632812 24.63476562 C-17.69067822 25.49493364 -19.39573359 26.35370592 -21.1015625 27.2109375 C-21.90270981 27.62745071 -22.70385712 28.04396393 -23.52928162 28.47309875 C-24.28008499 28.84396103 -25.03088837 29.2148233 -25.80444336 29.59692383 C-26.46157822 29.9298494 -27.11871307 30.26277496 -27.79576111 30.60578918 C-29.69921875 31.06640625 -29.69921875 31.06640625 -31.82252502 30.25248718 C-33.86732292 28.96016347 -35.63776775 27.54384367 -37.44921875 25.94140625 C-38.0628125 25.40257813 -38.67640625 24.86375 -39.30859375 24.30859375 C-39.7675 23.89867188 -40.22640625 23.48875 -40.69921875 23.06640625 C-37.30145752 20.2231448 -33.90295431 17.92323163 -30.0234375 15.7890625 C-28.40985352 14.89477539 -28.40985352 14.89477539 -26.76367188 13.98242188 C-25.64927734 13.37076172 -24.53488281 12.75910156 -23.38671875 12.12890625 C-21.18123372 10.91337593 -18.97678323 9.69596637 -16.7734375 8.4765625 C-15.72720215 7.9005127 -14.6809668 7.32446289 -13.60302734 6.73095703 C-11.05537784 5.2705674 -8.64578336 3.7114701 -6.21875 2.0625 C-3.78088253 0.52292816 -2.95428233 0.07268133 0 0 Z " fill="#C78B76" transform="translate(426.69921875,14.93359375)"/>
<path d="M0 0 C2.64456292 1.28769462 4.53686103 3.01168973 6.69140625 5.0078125 C7.490625 5.74128906 8.28984375 6.47476563 9.11328125 7.23046875 C9.7165625 7.79636719 10.31984375 8.36226562 10.94140625 8.9453125 C8.88365905 11.17306921 7.00456874 12.5948421 4.28369141 13.92236328 C3.55928864 14.27928253 2.83488586 14.63620178 2.08853149 15.00393677 C0.92129044 15.56659744 0.92129044 15.56659744 -0.26953125 16.140625 C-1.47725693 16.72999344 -1.47725693 16.72999344 -2.7093811 17.33126831 C-4.41089269 18.15960463 -6.11392648 18.98482043 -7.81835938 19.80712891 C-10.42112526 21.0642901 -13.01742228 22.33411803 -15.61328125 23.60546875 C-17.26915786 24.40962349 -18.92539623 25.21303382 -20.58203125 26.015625 C-21.35614349 26.39478058 -22.13025574 26.77393616 -22.92782593 27.1645813 C-30.14970229 30.62985171 -30.14970229 30.62985171 -34.05859375 30.9453125 C-36.078125 29.58203125 -36.078125 29.58203125 -37.87109375 27.6328125 C-38.47566406 26.99730469 -39.08023437 26.36179687 -39.703125 25.70703125 C-41.05859375 23.9453125 -41.05859375 23.9453125 -41.05859375 21.9453125 C-40.37458496 21.56310547 -39.69057617 21.18089844 -38.98583984 20.78710938 C-36.94954755 19.6489497 -34.91351868 18.51031867 -32.87768555 17.37133789 C-30.57787495 16.0852242 -28.27725292 14.80056043 -25.97583008 13.51733398 C-18.65756882 9.43000482 -18.65756882 9.43000482 -11.421875 5.19921875 C-10.7839502 4.82023437 -10.14602539 4.44125 -9.48876953 4.05078125 C-7.86434784 3.07858603 -6.24822887 2.09255504 -4.6328125 1.10546875 C-2.05859375 -0.0546875 -2.05859375 -0.0546875 0 0 Z " fill="#C68B75" transform="translate(442.05859375,28.0546875)"/>
<path d="M0 0 C8.28690431 10.71413368 8.28690431 10.71413368 7.79296875 16.37109375 C7.03489126 18.71018847 6.11348354 20.80831938 5 23 C4.63390625 23.77214844 4.2678125 24.54429687 3.890625 25.33984375 C2.9660428 27.24595706 1.98809639 29.12602409 1 31 C-2.63775344 27.74924161 -4.73897681 23.56577107 -7.18359375 19.3984375 C-8.76960183 16.861011 -8.76960183 16.861011 -11.22265625 16.1640625 C-11.80917969 16.10992187 -12.39570312 16.05578125 -13 16 C-13.26554687 16.72574219 -13.53109375 17.45148438 -13.8046875 18.19921875 C-15.00072948 21.00170928 -16.40329107 23.30479352 -18.125 25.8125 C-18.93324219 26.99779297 -18.93324219 26.99779297 -19.7578125 28.20703125 C-20.16773438 28.79871094 -20.57765625 29.39039063 -21 30 C-24.76591888 28.31934199 -26.1379634 26.72407321 -28 23 C-28 22.34 -28 21.68 -28 21 C-28.66 20.67 -29.32 20.34 -30 20 C-31.17612898 15.73323611 -31.34838666 13.69759692 -29.34765625 9.69140625 C-28.59355469 8.65886719 -27.83945312 7.62632812 -27.0625 6.5625 C-25.93521484 4.98662109 -25.93521484 4.98662109 -24.78515625 3.37890625 C-24.19605469 2.59386719 -23.60695313 1.80882812 -23 1 C-18.90810238 2.36396587 -18.38452673 4.34848983 -16.3125 8.0625 C-15.68988281 9.16722656 -15.06726562 10.27195313 -14.42578125 11.41015625 C-13.72001953 12.69212891 -13.72001953 12.69212891 -13 14 C-10.6374992 14.0067557 -10.6374992 14.0067557 -8 13 C-6.32791221 10.80264903 -5.01269184 8.82385114 -3.6875 6.4375 C-3.32849609 5.82197266 -2.96949219 5.20644531 -2.59960938 4.57226562 C-1.71841217 3.05660643 -0.85720523 1.52935624 0 0 Z " fill="#4B3B2A" transform="translate(73,147)"/>
<path d="M0 0 C5.94556842 1.2599503 11.89036675 2.52345107 17.83447266 3.7902832 C19.85770102 4.22095435 21.88113822 4.65064564 23.90478516 5.0793457 C26.80947123 5.6948659 29.71339395 6.31387845 32.6171875 6.93359375 C33.52556366 7.12529648 34.43393982 7.31699921 35.36984253 7.51451111 C36.21056305 7.69462234 37.05128357 7.87473358 37.91748047 8.06030273 C39.03000687 8.29679787 39.03000687 8.29679787 40.16500854 8.53807068 C42 9 42 9 44 10 C42.125 14.875 42.125 14.875 41 16 C39.4651703 16.09319449 37.92607918 16.117458 36.38842773 16.11352539 C35.40748642 16.11344986 34.4265451 16.11337433 33.4158783 16.11329651 C32.3492244 16.10813522 31.2825705 16.10297394 30.18359375 16.09765625 C28.55430687 16.09553383 28.55430687 16.09553383 26.8921051 16.09336853 C23.40720925 16.08775048 19.92237658 16.07519492 16.4375 16.0625 C14.08138113 16.05748733 11.72526126 16.05292402 9.36914062 16.04882812 C3.57940257 16.03777518 -2.21028799 16.02049846 -8 16 C-5.36 10.72 -2.72 5.44 0 0 Z " fill="#C78B76" transform="translate(143,295)"/>
<path d="M0 0 C2.56802979 1.53664221 4.88448322 3.18429897 7.21484375 5.0625 C8.40013672 6.00996094 8.40013672 6.00996094 9.609375 6.9765625 C10.20105469 7.45867187 10.79273438 7.94078125 11.40234375 8.4375 C10.75795442 11.04203175 10.11189335 13.6461291 9.46484375 16.25 C9.28244141 16.98798828 9.10003906 17.72597656 8.91210938 18.48632812 C8.16008225 21.50810984 7.38748802 24.48206718 6.40234375 27.4375 C3.6306398 27.32363541 0.86056329 27.19689222 -1.91015625 27.0625 C-2.69583984 27.0315625 -3.48152344 27.000625 -4.29101562 26.96875 C-5.04833984 26.93007813 -5.80566406 26.89140625 -6.5859375 26.8515625 C-7.63068237 26.80443115 -7.63068237 26.80443115 -8.6965332 26.75634766 C-10.59765625 26.4375 -10.59765625 26.4375 -13.59765625 24.4375 C-15.02724707 19.26345791 -15.92820372 13.72436561 -14.59765625 8.4375 C-11.15231685 4.02195302 -6.02761955 -1.3052289 0 0 Z " fill="#8B8761" transform="translate(399.59765625,281.5625)"/>
<path d="M0 0 C4.72129651 1.42415708 7.51008059 4.19311046 10.8125 7.6875 C11.87042782 8.77795443 12.93032404 9.86650265 13.9921875 10.953125 C14.50491211 11.47841797 15.01763672 12.00371094 15.54589844 12.54492188 C18.01379316 15.01447401 20.65260362 17.26894525 23.30859375 19.53125 C25.66285302 21.57559523 27.83014011 23.76233199 30 26 C28.70700306 28.88437779 27.34058637 30.87219421 25 33 C21.6181803 31.723954 18.57658538 30.26522727 15.48828125 28.390625 C14.64716797 27.88273437 13.80605469 27.37484375 12.93945312 26.8515625 C11.63911133 26.05878906 11.63911133 26.05878906 10.3125 25.25 C9.46494141 24.73695313 8.61738281 24.22390625 7.74414062 23.6953125 C6.03516681 22.66083101 4.32699213 21.62502817 2.61962891 20.58789062 C-1.57788991 18.04356049 -5.78882123 15.52163694 -10 13 C-9.1768522 8.8880543 -7.47549767 7.15963157 -4.4375 4.25 C-3.61121094 3.45078125 -2.78492188 2.6515625 -1.93359375 1.828125 C-1.29550781 1.22484375 -0.65742188 0.6215625 0 0 Z " fill="#C68B75" transform="translate(174,256)"/>
<path d="M0 0 C5.92863717 1.16651426 11.38798394 2.75519358 17 5 C17.46023681 12.67061356 15.72383261 19.5300587 14 27 C8.72 27.33 3.44 27.66 -2 28 C-8.02956004 15.81782768 -8.02956004 15.81782768 -7.90625 12.40625 C-6.79822598 9.46425519 -5.29541992 7.22102716 -3.4375 4.6875 C-2.79683594 3.80449219 -2.15617187 2.92148437 -1.49609375 2.01171875 C-0.75552734 1.01591797 -0.75552734 1.01591797 0 0 Z " fill="#565342" transform="translate(352,409)"/>
<path d="M0 0 C2.96828383 4.45242574 2.63369224 8.77776513 2 14 C-0.09780939 17.61691275 -1.04874226 18.68291409 -5 20 C-10.7269548 20.56724124 -15.07835594 20.24381086 -20 17 C-22.8125 14.375 -22.8125 14.375 -25 12 C-25.33 11.67 -25.66 11.34 -26 11 C-25.91237114 6.44329934 -25.50462082 4.52809156 -22.3125 1.1875 C-14.92655413 -3.69001142 -7.74057436 -4.86036064 0 0 Z " fill="#534016" transform="translate(288,425)"/>
<path d="M0 0 C4.65229847 1.94878362 8.18407103 5.41369852 11.9128418 8.71508789 C15.2382655 11.62606154 18.43136894 13.79363713 22.3125 15.9375 C24.86448577 17.80026334 25.85417268 19.1126909 26.36914062 22.24609375 C26.77031822 28.1799953 26.49024963 34.07929292 26 40 C23.00896293 38.66781316 21.03771259 37.24693831 18.828125 34.83984375 C17.96018311 33.90386353 17.96018311 33.90386353 17.07470703 32.94897461 C15.84119883 31.58921089 14.60780338 30.22934489 13.37451172 28.86938477 C12.75850098 28.19061279 12.14249023 27.51184082 11.5078125 26.8125 C10.90743164 26.14992187 10.30705078 25.48734375 9.68847656 24.8046875 C8.28928805 23.30919856 6.80620759 21.89271429 5.3046875 20.5 C1.78186309 17.16657475 0.16389931 15.25745702 -0.4765625 10.34375 C-0.49750048 6.85408694 -0.35537738 3.46986529 0 0 Z " fill="#C68B75" transform="translate(452,128)"/>
<path d="M0 0 C5.97865427 5.03551951 11.76718359 10.24452697 17.4375 15.625 C18.35982422 16.45128906 19.28214844 17.27757812 20.23242188 18.12890625 C26.70442435 24.34701077 26.70442435 24.34701077 27.59423828 29.32324219 C27.59727846 32.28090106 27.43476966 35.07690811 27 38 C24.6796875 38.62109375 24.6796875 38.62109375 22 39 C17.57577286 36.01845562 14.32498759 32.23627979 10.9453125 28.13671875 C9.03024724 25.91421679 9.03024724 25.91421679 6.5546875 24.08203125 C0.40264929 19.09675891 0.40264929 19.09675891 -0.39550781 14.94042969 C-0.77759457 9.93061062 -0.464456 4.99433556 0 0 Z " fill="#C88B77" transform="translate(452,184)"/>
<path d="M0 0 C2.83044742 2.38014897 4.39263239 3.8791584 5.75 7.3125 C5.65589344 12.5824671 4.53516919 15.6324744 0.75 19.3125 C-2.94088207 21.35219799 -6.06992127 21.82434637 -10.25 21.3125 C-14.02062132 19.24235496 -17.255306 17.19107167 -19.25 13.3125 C-19.7406896 10.0003452 -19.97519669 7.57583868 -18.265625 4.59765625 C-13.25445655 -1.72817059 -7.50913503 -3.89897396 0 0 Z " fill="#7A5F26" transform="translate(132.25,65.6875)"/>
<path d="M0 0 C3.75212276 2.01502889 5.63644095 3.45466142 8 7 C8.54543879 10.06594015 8.53376742 12.93218522 8 16 C5.51220146 19.24795921 2.91512108 21.69495964 -1 23 C-4.8960857 23.50818509 -6.68419875 23.1671889 -10.1875 21.3125 C-13.96964642 18.20273517 -15.67503103 15.9091927 -16.5 11.0625 C-15.81810234 6.88587681 -13.91995301 4.98785889 -11 2 C-7.29519659 -0.46986894 -4.29780299 -0.67432448 0 0 Z " fill="#A38232" transform="translate(314,162)"/>
<path d="M0 0 C1.17441535 2.10016623 2.33964012 4.20458755 3.5 6.3125 C3.83386719 6.90740234 4.16773438 7.50230469 4.51171875 8.11523438 C6.06825114 10.95828844 7 12.70660988 7 16 C4.8046875 18.078125 4.8046875 18.078125 1.875 20.25 C0.44800781 21.34054687 0.44800781 21.34054687 -1.0078125 22.453125 C-4.63737783 24.32950603 -6.13964353 24.15915595 -10 23 C-12.49391592 21.8542711 -14.65800553 20.45203657 -17 19 C-16.48517081 13.147205 -15.54642808 7.6702363 -14 2 C-12.60582227 1.65980848 -11.20955342 1.32818221 -9.8125 1 C-8.64654297 0.7215625 -8.64654297 0.7215625 -7.45703125 0.4375 C-4.92009775 -0.01422743 -2.57120097 -0.07307143 0 0 Z " fill="#565342" transform="translate(434,328)"/>
<path d="M0 0 C3.34768735 1.73822228 5.43753452 3.09516422 7.4375 6.3125 C8.19653674 9.93900889 7.96006591 12.41575392 7 16 C4.46190087 19.53795636 2.29199062 21.24415028 -1.9375 22.0625 C-5.26467911 22.28892429 -6.2048563 21.89757185 -9.375 20.3125 C-13.07387212 17.0539698 -13.8068372 15.490113 -14.4375 10.625 C-13.85406422 5.79081782 -12.44960332 4.36937999 -9 1 C-5.64870516 -0.11709828 -3.51689744 -0.34479387 0 0 Z " fill="#4A3B2A" transform="translate(468,73)"/>
<path d="M0 0 C4.78392942 5.921009 4.78392942 5.921009 6.8125 8.875 C7.25207031 9.49117187 7.69164063 10.10734375 8.14453125 10.7421875 C9.43777081 14.15539511 8.84790491 16.48402096 8 20 C6.2578125 23.30859375 6.2578125 23.30859375 4.125 26.4375 C3.07699219 28.01337891 3.07699219 28.01337891 2.0078125 29.62109375 C1.34523438 30.40613281 0.68265625 31.19117188 0 32 C-0.99 32 -1.98 32 -3 32 C-4.36936501 29.59087645 -5.72041993 27.17425815 -7.0625 24.75 C-7.45244141 24.06808594 -7.84238281 23.38617188 -8.24414062 22.68359375 C-8.60830078 22.01972656 -8.97246094 21.35585937 -9.34765625 20.671875 C-9.68804932 20.0644043 -10.02844238 19.45693359 -10.37915039 18.83105469 C-11.18168194 16.46417046 -10.87742827 15.31990196 -10 13 C-8.36128243 10.68058436 -6.7063324 8.46408182 -4.9375 6.25 C-4.46505859 5.64800781 -3.99261719 5.04601562 -3.50585938 4.42578125 C-2.34309599 2.94590057 -1.1723234 1.47231904 0 0 Z " fill="#4B3B2B" transform="translate(28,147)"/>
<path d="M0 0 C2.92555806 2.01132117 4.6328744 3.39179493 5.44140625 6.93359375 C5.6563175 10.6009503 5.20348117 12.63999486 3.375 15.875 C0.54638012 18.40587042 -1.25636933 19.33935929 -5 20 C-9.06416036 19.36935443 -11.33214647 18.58223128 -14.4375 15.875 C-16.47063871 12.13402478 -16.99356239 9.16791004 -16 5 C-11.45388393 -0.77479609 -7.03578271 -1.95742593 0 0 Z " fill="#4B3C2B" transform="translate(131,281)"/>
<path d="M0 0 C2.875 2.5 2.875 2.5 5 5 C5.33 5.33 5.66 5.66 6 6 C6.04277245 10.21736315 5.68972646 13.89643766 3.4375 17.5 C0.03091001 19.59636307 -3.01193884 20.19860862 -7 20 C-11.18930246 18.32427902 -13.18528883 16.1069779 -15 12 C-15.5625426 8.14256502 -15.3564248 6.56009611 -13.25 3.25 C-8.85866619 -1.14133381 -6.13092456 -1.6134012 0 0 Z " fill="#98EDDA" transform="translate(79,109)"/>
<path d="M0 0 C1.82421875 2.5546875 1.82421875 2.5546875 3.6875 5.875 C4.31011719 6.96554687 4.93273437 8.05609375 5.57421875 9.1796875 C7 12 7 12 7 14 C4.734375 15.98046875 4.734375 15.98046875 1.75 18.1875 C0.77546875 18.92355469 -0.1990625 19.65960938 -1.203125 20.41796875 C-4 22 -4 22 -6.12109375 21.9296875 C-9.87191023 20.07377415 -12.68146187 17.4778072 -15 14 C-15.60058654 9.74847948 -14.3435071 5.56061885 -12 2 C-9.94140625 1.171875 -9.94140625 1.171875 -7.5625 0.75 C-6.78003906 0.60046875 -5.99757813 0.4509375 -5.19140625 0.296875 C-3 0 -3 0 0 0 Z " fill="#8A8661" transform="translate(355,375)"/>
<path d="M0 0 C4.42610196 0.36279524 6.39743509 1.54792364 9.8125 4.3125 C11.36274464 7.41298928 11.10242015 9.89144218 10.8125 13.3125 C9.27745899 16.25466193 8.17126017 17.87849101 4.94140625 18.91015625 C0.76982369 19.59621992 -2.46919827 19.54348104 -6.1875 17.3125 C-8.80936654 14.87145184 -9.16601434 13.46021393 -9.6875 9.875 C-9.06459284 5.43678648 -7.5747511 4.12143994 -4.1875 1.3125 C-3.1875 0.3125 -3.1875 0.3125 0 0 Z " fill="#785D25" transform="translate(345.1875,193.6875)"/>
<path d="M0 0 C5.05126517 0.47355611 9.45661524 2.8978369 14 5 C14.33 8.3 14.66 11.6 15 15 C7.30299539 18.62211982 7.30299539 18.62211982 3 18 C0.32421875 16.03125 0.32421875 16.03125 -2.3125 13.5 C-3.19550781 12.6646875 -4.07851562 11.829375 -4.98828125 10.96875 C-5.65214844 10.3190625 -6.31601563 9.669375 -7 9 C-6.02180976 7.68677212 -5.0424189 6.37443848 -4.0625 5.0625 C-3.51722656 4.33160156 -2.97195312 3.60070312 -2.41015625 2.84765625 C-1 1 -1 1 0 0 Z " fill="#8A8661" transform="translate(224,417)"/>
<path d="M0 0 C2.67836558 1.64157891 2.9364948 2.79587613 3.875 5.8125 C4.0302769 9.77206096 3.1678379 11.71086663 1 15 C-1.73877876 17.24971112 -3.02677393 16.9976919 -6.625 16.6875 C-11.54285714 15.68571429 -11.54285714 15.68571429 -13.125 13.3125 C-14.26899617 10.28908155 -14.393644 8.2147593 -14 5 C-9.96091487 -1.05862769 -6.95908012 -1.58290552 0 0 Z " fill="#A28134" transform="translate(61,257)"/>
<path d="M0 0 C3.31608099 0.70199295 4.8280299 1.77331863 6.9375 4.41015625 C7.85931634 8.39109762 7.53484778 11.37129054 5.5 14.91015625 C1.67223876 17.15079698 -1.74238354 17.29416585 -6.0625 16.41015625 C-9.56618509 13.97902782 -10.81695216 12.58878587 -11.6875 8.41015625 C-10.34483903 1.96538359 -6.23480762 -0.46052556 0 0 Z " fill="#795E26" transform="translate(247.0625,137.58984375)"/>
<path d="M0 0 C3.25949696 3.75092881 4.85806118 8.07240903 6.6875 12.625 C7.00783203 13.40101563 7.32816406 14.17703125 7.65820312 14.9765625 C10 20.7286947 10 20.7286947 10 23 C3.73 23 -2.54 23 -9 23 C-7.8743619 16.24617143 -7.8743619 16.24617143 -6.40625 12.94921875 C-6.09816406 12.25119141 -5.79007813 11.55316406 -5.47265625 10.83398438 C-5.15167969 10.12564453 -4.83070312 9.41730469 -4.5 8.6875 C-4.01853516 7.59598633 -4.01853516 7.59598633 -3.52734375 6.48242188 C-1.15334821 1.15334821 -1.15334821 1.15334821 0 0 Z " fill="#4B3C2B" transform="translate(62,173)"/>
<path d="M0 0 C2.16255617 2.16255617 2.60028063 3.3475075 3.5078125 6.2109375 C3.77207031 7.04367188 4.03632812 7.87640625 4.30859375 8.734375 C4.57800781 9.60578125 4.84742188 10.4771875 5.125 11.375 C5.40214844 12.23867187 5.67929687 13.10234375 5.96484375 13.9921875 C7.19486435 17.91855869 8 20.82941335 8 25 C2.39 25 -3.22 25 -9 25 C-7.36882336 16.10267287 -4.12377137 8.03753586 0 0 Z " fill="#4B3C2B" transform="translate(41,171)"/>
<path d="M0 0 C2.43237153 3.6485573 3.68031191 7.32117579 5.125 11.4375 C5.40214844 12.20126953 5.67929688 12.96503906 5.96484375 13.75195312 C6.22652344 14.49251953 6.48820312 15.23308594 6.7578125 15.99609375 C7.11576904 17.00434204 7.11576904 17.00434204 7.48095703 18.03295898 C8 20 8 20 8 24 C2.39 24 -3.22 24 -9 24 C-8.26360436 20.3180218 -7.58734405 17.70380278 -6.15234375 14.35546875 C-5.79462891 13.51435547 -5.43691406 12.67324219 -5.06835938 11.80664062 C-4.50858398 10.51016602 -4.50858398 10.51016602 -3.9375 9.1875 C-3.37192383 7.86202148 -3.37192383 7.86202148 -2.79492188 6.50976562 C-1.86751446 4.33798876 -0.93576366 2.16818633 0 0 Z " fill="#4A3B2A" transform="translate(90,172)"/>
<path d="M0 0 C2.5 1.5 2.5 1.5 4 4 C4.791013 8.02098277 4.62153384 10.96411027 2.5 14.5 C-1.03588973 16.62153384 -3.97901723 16.791013 -8 16 C-10.5 14.5 -10.5 14.5 -12 12 C-12.791013 7.97901723 -12.62153384 5.03588973 -10.5 1.5 C-6.96411027 -0.62153384 -4.02098277 -0.791013 0 0 Z " fill="#795E26" transform="translate(435,108)"/>
<path d="M0 0 C1.48181006 3.23454807 2.12260457 6.53428806 3 10 C-1.455 12.97 -1.455 12.97 -6 16 C-7.98 15.01 -9.96 14.02 -12 13 C-12.19294408 8.17639811 -11.75747614 4.50353262 -10 0 C-3.16062176 -1.39896373 -3.16062176 -1.39896373 0 0 Z " fill="#565342" transform="translate(348,314)"/>
<path d="M0 0 C0.05416188 1.60379341 0.09286638 3.20811406 0.125 4.8125 C0.14820313 5.70582031 0.17140625 6.59914063 0.1953125 7.51953125 C0 10 0 10 -2 13 C-4.0234375 13.58203125 -4.0234375 13.58203125 -6.375 13.8125 C-7.14585937 13.90144531 -7.91671875 13.99039062 -8.7109375 14.08203125 C-11.3392521 13.9878425 -12.79686893 13.41213908 -15 12 C-16.60725635 8.78548731 -16.05748185 5.56387464 -16 2 C-15.15695312 1.93941406 -14.31390625 1.87882812 -13.4453125 1.81640625 C-12.34960938 1.73261719 -11.25390625 1.64882813 -10.125 1.5625 C-9.03445313 1.48128906 -7.94390625 1.40007812 -6.8203125 1.31640625 C-4.26398303 1.02961583 -2.50524575 0 0 0 Z " fill="#585340" transform="translate(306,264)"/>
<path d="M0 0 C2.5 1.5625 2.5 1.5625 4 4 C3.93913078 7.46954545 3.6274029 9.91947278 1.875 12.9375 C-1.18452459 14.6712306 -3.56817525 14.42145216 -7 14 C-9.4375 12.375 -9.4375 12.375 -11 10 C-11.60605429 6.36367425 -11.47161336 4.71685231 -9.4375 1.625 C-6.06489221 -0.62340519 -3.97487617 -0.56783945 0 0 Z " fill="#A48232" transform="translate(179,157)"/>
<path d="M0 0 C2.7912125 1.98322993 3.82597224 3.12986121 4.5 6.5 C3.82597224 9.87013879 2.7912125 11.01677007 0 13 C-3 13.5625 -3 13.5625 -6 13 C-8.4375 10.8125 -8.4375 10.8125 -10 8 C-9.93107581 5.10518392 -9.38861317 3.59314642 -7.8125 1.1875 C-5.06937448 -0.60972017 -3.20418874 -0.45774125 0 0 Z " fill="#765C25" transform="translate(168,394)"/>
<path d="M0 0 C2.7912125 1.98322993 3.82597224 3.12986121 4.5 6.5 C4 9 4 9 2.4375 11.375 C0 13 0 13 -3.625 12.875 C-7 12 -7 12 -9 10 C-9.55021834 3.94759825 -9.55021834 3.94759825 -7.875 1.0625 C-5.06487736 -0.52990283 -3.17235276 -0.45319325 0 0 Z " fill="#775C25" transform="translate(428,198)"/>
<path d="M0 0 C0.60328125 0.28746094 1.2065625 0.57492187 1.828125 0.87109375 C2.78882934 3.75320677 2.93394383 5.56959419 2.890625 8.55859375 C2.88160156 9.36683594 2.87257813 10.17507813 2.86328125 11.0078125 C2.85167969 11.62269531 2.84007812 12.23757813 2.828125 12.87109375 C0.703125 13.62109375 0.703125 13.62109375 -2.171875 13.87109375 C-5.421875 12.18359375 -5.421875 12.18359375 -8.171875 9.87109375 C-8.84375 7.7265625 -8.84375 7.7265625 -9.171875 5.87109375 C-8.10294282 4.83519037 -7.01609012 3.81775433 -5.921875 2.80859375 C-5.31859375 2.24011719 -4.7153125 1.67164063 -4.09375 1.0859375 C-2.171875 -0.12890625 -2.171875 -0.12890625 0 0 Z " fill="#544117" transform="translate(314.171875,418.12890625)"/>
<path d="M0 0 C1.58965571 2.21701147 2.72327486 4.57862473 4 7 C1.8125 9.5625 1.8125 9.5625 -1 12 C-4.44616056 11.91985673 -5.5556104 11.4443896 -8 9 C-8.40047444 6.67724823 -8.7397104 4.34260643 -9 2 C-3.375 -1.125 -3.375 -1.125 0 0 Z " fill="#565342" transform="translate(426,263)"/>
<path d="M0 0 C2.4375 0.75 2.4375 0.75 4.4375 2.75 C4.8125 5.6875 4.8125 5.6875 4.4375 8.75 C2.6875 10.6875 2.6875 10.6875 0.4375 11.75 C-2.04241444 11.59970215 -3.30801266 10.91673308 -5.375 9.5625 C-6.5625 7.75 -6.5625 7.75 -6.4375 4.6875 C-5.31039351 0.90364248 -4.04478927 -0.39461359 0 0 Z " fill="#554116" transform="translate(400.5625,175.25)"/>
<path d="M0 0 C1.33359073 6.42548263 1.33359073 6.42548263 -0.125 8.9375 C-2.63647631 10.36066991 -4.15503228 10.42674516 -7 10 C-8.8125 8.8125 -8.8125 8.8125 -10 7 C-10.42674516 4.15503228 -10.36066991 2.63647631 -8.9375 0.125 C-5.88430685 -1.64782183 -3.33588292 -0.69235306 0 0 Z " fill="#544015" transform="translate(208,363)"/>
<path d="" fill="#907548" transform="translate(0,0)"/>
<path d="" fill="#907548" transform="translate(0,0)"/>
</svg>
