<svg xmlns="http://www.w3.org/2000/svg" width="505" height="477"><path d="m235.988 80.797 2.232-.022c30.802-.228 30.802-.228 44.78 3.225l2.513.602c42.854 10.536 80.207 37.137 103.55 74.687 8.698 14.53 14.92 30.28 18.937 46.711l.969 3.832c8.5 38.282.125 81.427-20.396 114.466-20.289 31.156-47.1 51.78-80.777 66.89-1.471.665-2.93 1.358-4.386 2.058-8.588 3.88-18.2 5.073-27.41 6.754v15h-2v3h2v7l2 1c.526 2.802.83 5.6 1.145 8.434.597 2.779.597 2.779 3.222 3.812L285 439c2.008.985 4.01 1.982 6 3v3l1.64-.559c2.953-.552 5.174-.098 8.11.497 1.477.291 1.477.291 2.984.59L306 446v2c4.342-.185 4.342-.185 8-2a98.712 98.712 0 0 1 5.348-.098l3.271.01 3.443.026 3.456.013c2.827.012 5.655.028 8.482.049v2h3v-2h23v2h7v-2h18v2h4l1-4h17v2l5-2v-2l1.977-.953c4.92-2.41 9.556-4.873 14.023-8.047l1 3 4-1-2-6 2.813-2.125c3.088-2.548 4.631-5.159 6.187-8.875l4 2 2-4-4-2c2.75-5.875 2.75-5.875 5-7 .653-2.282.653-2.282 1.063-4.938.85-4.89.85-4.89 1.937-7.062h2l-.91-1.729c-1.049-2.185-1.811-4.294-2.527-6.607l-.774-2.476-.789-2.563c-.52-1.675-1.041-3.35-1.563-5.023l-.742-2.39A391.72 391.72 0 0 0 446 366h-2v-2h-17l-1-2h-3l-.75 2.375c-1.472 3.092-2.2 3.318-5.25 4.625-2.698 1.49-2.698 1.49-5 4-.69 2.898-1.098 5.324-1.313 8.25l-.22 2.258c-.176 1.829-.324 3.66-.467 5.492h-2v3h2l.332 2.012c1.335 7.656 1.335 7.656 5.668 13.988 2.027.462 2.027.462 4.375.75l2.398.36c2.32.12 2.32.12 3.891-1.594L428 406h2l1-3h2v-3h-2v-8h2l-2-9-4-1 1 2c.043 2.676.045 5.327 0 8 0 2.012.001 4.026.105 6.035.219 5.402.219 5.402-1.293 8.027-2.55 1.32-4.13.736-6.812-.062v-2l-1.813-.313c-2.578-.81-3.5-1.592-5.187-3.687-.477-2.191-.477-2.191-.625-4.563-.204-3.345-.204-3.345-1.375-6.437 1.124-5.747 2.925-12.625 7-17 4.597-3.024 8.453-5 14-5v2l2.625-1.313C438 367 438 367 441.188 369c3.626 3.197 5.595 6.91 6.097 11.744.12 3.32.124 6.622.09 9.943l.035 3.397c-.051 14.769-4.2 23.854-14.113 34.643-6.36 6.295-13.965 8.327-22.735 8.523-5.09-.085-9.645-.96-14.562-2.25v-2l-2.688-.625c-4.09-1.698-5.67-3.876-8.312-7.375l-1.547-1.379c-1.869-2.085-2.313-3.924-3.015-6.621-.858-3.256-1.535-5.146-3.438-8-.327-5.345-.327-5.345 1-8l-2-1v-14h2l-1-3v-3l-.313-2.875c0-6.923 3.348-15.102 7.625-20.5 3.44-3.36 7.005-6.536 10.688-9.625l-.617-2.352L394 342c1.614-2.044 3.006-3.378 5-5l1.883-1.66C407.543 329.748 416.1 324 425 324v4c2.51-.703 2.51-.703 5-2l1-4h29v2l8 1 2-3c7.333 1.222 14.173 7.504 18.625 13.188 1.987 2.92 3.093 5.237 3.375 8.812.445 4.5.445 4.5 3 8h2c3.448 8.868 5.167 16.485 5 26h-3v4h5c.93 3.157 1.129 5.996 1.133 9.281l.004 3.051-.012 3.168.012 3.168-.004 3.05-.004 2.78c-.12 2.313-.477 4.287-1.129 6.502h-4c-.366 4.628-.366 4.628 1.125 8.855 1.663 4.077-.837 7.812-2.426 11.665-6.517 13.349-6.517 13.349-11.808 15.23L485 449c-2.217.65-2.217.65-4 2l-.25 2.25c-1.404 5.147-6.507 7.331-10.813 10.055-4.76 2.696-7.631 3.021-12.937 1.695l-1 4h-3l-1 2a94.773 94.773 0 0 1-6.563 1.625c-1.796.39-1.796.39-3.628.79-.927.192-1.854.386-2.809.585l-1-3-2 1v2c-3.56 1.187-6.973 1.351-10.688 1.563l-2.126.13c-1.729.106-3.457.207-5.186.307l-1-2-2 .563c-3.893.567-7.114.03-11-.563v3h-12v-3h-3v3h-11l-1-3h-7v2c-3.125.058-6.25.094-9.375.125l-2.695.05-2.578.02-2.38.032C351 476 351 476 349 474v3h-14v-3h-6v3h-20v-3h-3v3h-20v-3h-9l-1 3c-3.812.03-7.625.047-11.438.063l-3.24.025c-6.198.019-12.177-.267-18.322-1.088l3-6c-3.895-.362-5.506-.368-8.707 2.016L235 474c-6.317-3.799-12.164-7.38-17-13v-2l4-1-2-6-6 1c-7-20.038-7-20.038-7-29l4-1v-8h-2c-2.296-9.41-2.296-9.41-2-14l9-1-3.383-.559c-12.574-2.266-23.787-6.387-35.445-11.565-2.046-.825-4.021-1.4-6.172-1.876v-2l-2.563-.754c-3.744-1.357-7.046-3.128-10.437-5.183l-1.972-1.195C141.733 368.014 125.77 355.858 116 342v-2h-2v-2l-2-1a60.273 60.273 0 0 1-2.496-3.605l-1.443-2.233c-.495-.775-.99-1.55-1.499-2.35l-1.486-2.29C98 315.51 98 315.51 98 312l-2-1c-3.638-7.378-6.627-15.126-9-23l-1.188-3.75c-.73-2.921-.993-5.262-.812-8.25l-2-1v-9l-2-1c-1.926-8.006-1.035-16.847-.75-25l.07-2.08c.772-21.576 5.82-40.534 12.68-60.92h2l.313-2.125c1.693-7.081 6.198-13.53 9.687-19.875h2l.746-2.176c6.264-14.108 22.018-27.924 34.254-37.199l2.244-1.702c26.09-19.486 58.86-32.915 91.744-33.126Z" fill="#BDB0A7"/><path d="M431 322h29v2l8 1 2-3c7.333 1.222 14.173 7.504 18.625 13.188 1.987 2.92 3.093 5.237 3.375 8.812.445 4.5.445 4.5 3 8h2c3.448 8.868 5.167 16.485 5 26h-3v4h5c.93 3.157 1.129 5.996 1.133 9.281l.004 3.051-.012 3.168.012 3.168-.004 3.05-.004 2.78c-.12 2.313-.477 4.287-1.129 6.502h-4c-.366 4.628-.366 4.628 1.125 8.855 1.663 4.077-.837 7.812-2.426 11.665-6.517 13.349-6.517 13.349-11.808 15.23L485 449c-2.217.65-2.217.65-4 2l-.25 2.25c-1.404 5.147-6.507 7.331-10.813 10.055-4.76 2.696-7.631 3.021-12.937 1.695l-1 4h-3l-1 2a94.773 94.773 0 0 1-6.563 1.625c-1.197.26-2.395.52-3.628.79-.927.192-1.854.386-2.809.585l-1-3-2 1v2c-3.56 1.187-6.973 1.351-10.688 1.563l-2.126.13c-1.729.106-3.457.207-5.186.307l-1-2-2 .563c-3.893.567-7.114.03-11-.563v3h-12v-3h-3v3h-11l-1-3h-7v2c-3.125.058-6.25.094-9.375.125l-2.695.05-2.578.02-2.38.032C351 476 351 476 349 474v3h-14v-3h-6v3h-20v-3h-3v3h-20v-3h-9l-1 3c-3.812.03-7.625.047-11.438.063l-3.24.025c-6.198.019-12.177-.267-18.322-1.088l3-6c-3.895-.362-5.506-.368-8.707 2.016L235 474c-6.317-3.799-12.164-7.38-17-13v-2l4-1-2-6-6 1c-7-20.038-7-20.038-7-29l4-1v-8h-2c-.34-1.394-.672-2.79-1-4.188l-.563-2.355C207 406 207 406 207 401h69v14h-2v3h2v7l2 1c.526 2.802.83 5.6 1.145 8.434.597 2.779.597 2.779 3.222 3.812L285 439c2.008.985 4.01 1.982 6 3v3l1.64-.559c2.953-.552 5.174-.098 8.11.497l2.984.59L306 446v2c4.342-.185 4.342-.185 8-2a98.712 98.712 0 0 1 5.348-.098l3.271.01 3.443.026 3.456.013c2.827.012 5.655.028 8.482.049v2h3v-2h23v2h7v-2h18v2h4l1-4h17v2l5-2v-2l1.977-.953c4.92-2.41 9.556-4.873 14.023-8.047l1 3 4-1-2-6 2.813-2.125c3.088-2.548 4.631-5.159 6.187-8.875l4 2 2-4-4-2c2.75-5.875 2.75-5.875 5-7 .653-2.282.653-2.282 1.063-4.938.85-4.89.85-4.89 1.937-7.062h2l-.91-1.729c-1.049-2.185-1.811-4.294-2.527-6.607l-.774-2.476-.789-2.563c-.52-1.675-1.041-3.35-1.563-5.023l-.742-2.39A391.72 391.72 0 0 0 446 366h-2v-2h-17l-1-2h-3l-.75 2.375c-1.472 3.092-2.2 3.318-5.25 4.625-2.698 1.49-2.698 1.49-5 4-.69 2.898-1.098 5.324-1.313 8.25l-.22 2.258c-.176 1.829-.324 3.66-.467 5.492h-2v3h2l.332 2.012c1.335 7.656 1.335 7.656 5.668 13.988 2.027.462 2.027.462 4.375.75l2.398.36c2.32.12 2.32.12 3.891-1.594L428 406h2l1-3h2v-3h-2v-8h2l-2-9-4-1 1 2c.043 2.676.045 5.327 0 8 0 2.012.001 4.026.105 6.035.219 5.402.219 5.402-1.293 8.027-2.55 1.32-4.13.736-6.812-.062v-2l-1.813-.313c-2.578-.81-3.5-1.592-5.187-3.687-.477-2.191-.477-2.191-.625-4.563-.204-3.345-.204-3.345-1.375-6.437 1.124-5.747 2.925-12.625 7-17 4.597-3.024 8.453-5 14-5v2l2.625-1.313C438 367 438 367 441.188 369c3.626 3.197 5.595 6.91 6.097 11.744.12 3.32.124 6.622.09 9.943l.035 3.397c-.051 14.769-4.2 23.854-14.113 34.643-6.36 6.295-13.965 8.327-22.735 8.523-5.09-.085-9.645-.96-14.562-2.25v-2l-2.688-.625c-4.09-1.698-5.67-3.876-8.312-7.375l-1.547-1.379c-1.869-2.085-2.313-3.924-3.015-6.621-.858-3.256-1.535-5.146-3.438-8-.327-5.345-.327-5.345 1-8l-2-1v-14h2l-1-3v-3l-.313-2.875c0-6.923 3.348-15.102 7.625-20.5 3.44-3.36 7.005-6.536 10.688-9.625l-.617-2.352L394 342c1.614-2.044 3.006-3.378 5-5l1.883-1.66C407.543 329.748 416.1 324 425 324v4c2.51-.703 2.51-.703 5-2l1-4Z" fill="#6B424B"/><path d="m333.688-.25 2.224-.002C348.16-.234 359.977.505 372 3l2.265.456c8.897 1.852 17.518 4.435 26.13 7.314l2.26.75a759.91 759.91 0 0 1 11.217 3.822c9.245 3.168 18.96 6.234 28.378 2.033 3.53-2.055 6.718-4.566 9.957-7.047C457.409 6.475 462.722 6.288 469 7c7.636 1.795 12.781 5.379 17 12 3.706 7.584 3.951 14.577 1.5 22.563-2.18 5.595-5.402 9.27-10.5 12.437-1.332.338-2.665.672-4 1l-1 2c-2.376.082-4.749.14-7.125.188l-2.016.076c-5.553.081-9.498-1.097-13.617-4.877l-1.367-1.7-1.508-1.855c-1.194-1.6-2.29-3.275-3.367-4.957-5.677-8.16-14.986-12.116-24.563-14.063-6.562-.43-12.368 3.606-17.21 7.68-3.304 3.533-4.308 6.745-4.227 11.508 2.97 9.99 9.871 18.2 16.875 25.652C416 77 416 77 417.313 78.942c6.116 8.993 20.896 12.4 30.968 14.523 3.986.573 7.947.894 11.96 1.19 18.628 1.387 18.628 1.387 25.38 7.911 4.615 5.635 5.676 12.384 5.317 19.496-.696 5.142-2.447 9.082-5.938 12.938-6.56 4.963-13.037 5.613-21 5-5.13-1.191-8.138-3.61-11-8-1.333-4.12-2.12-8.368-2.979-12.607-1.507-6.776-3.412-10.985-9.38-14.967-2.534-1.18-5.067-2.337-7.641-3.426l-2.332-1.012c-5.27-2.04-10.164-2.622-15.668-.988l-1 2a101.785 101.785 0 0 1-4.563 2.063c-6.47 3.128-11.318 7.838-14.632 14.25-3.44 11.484-.472 24.494 4.82 34.874 13.045 15.448 29.347 26.931 49.554 29.811 7.444 1.108 12.069 3.48 16.696 9.377 4.086 6.397 4.883 13.192 4.125 20.625-2.193 9.045-7.304 15.02-15 20-2.438 1.313-2.438 1.313-5 2l-1.813.578c-7.975 1.818-14.49-2.758-21.187-6.578v-2h-2c-5.946-5.834-7.653-11.907-8.289-19.942-.507-5.8-2.197-10.516-4.688-15.8C411 188 411 188 411 186l-2-1a74.647 74.647 0 0 1-2.25-4.5c-2.181-4.531-4.708-8.59-7.613-12.688C398 166 398 166 398 164h-2l-1.563-2.938c-2.285-4.043-5.108-7.557-8.046-11.144C385 148 385 148 385 146h-2a282.352 282.352 0 0 1-4-6c-11.709-14.17-25.742-25.754-41.852-34.559l-3.023-1.754-2.867-1.613C328.1 99.173 328.186 97.237 328 93c.003-3.75.115-7.495.303-11.24.146-6.345-1.351-11.612-5.775-16.33L321 64c-4.884-4.651-4.884-4.651-6-8h-2l-5-5-2.813-1.688L303 48v-2l-2.21-.82c-2.698-1.141-4.96-2.47-7.415-4.055-3.615-2.23-7.028-3.804-11.063-5.125-4.38-1.483-6.927-3.19-10.226-6.344-2.861-2.272-6.015-3.855-9.274-5.468-.606-.303-1.213-.605-1.839-.916-2.944-1.424-5.752-2.656-8.973-3.272v-2c20.737-7.102 20.737-7.102 30.39-9.324 2.755-.714 5.331-1.652 7.985-2.676C304.418.696 318.848-.238 333.688-.25ZM154.875-.25l2.219-.003c14.81.014 28.963.945 42.972 6.19C204.322 7.48 208.66 8.723 213 10c3.438 1.019 6.875 2.04 10.313 3.063l2.626.775C230.042 15.06 234.062 16.303 238 18c-3.056 3.306-6.669 4.92-10.688 6.813-5.31 2.562-9.985 5.199-14.574 8.933C208.964 36.47 204.661 38 200 38l-1 2a144.336 144.336 0 0 1-5.188 2.875C182.577 49.316 172.168 58.13 165 69l-1.738 2.531c-1.58 4.342-1.19 7.716-.913 12.277.623 13.654.623 13.654-3.038 18.366-4.48 3.734-9.647 6.175-14.904 8.63-3.412 1.695-6.32 3.819-9.282 6.196l-3.074 2.445c-25.977 21.753-55.278 56.895-59.863 91.618-1.13 7.095-3.812 12.174-9.407 16.753-6.645 4.597-13.54 7.838-21.781 7.184-8.666-3.1-14.276-8.303-18.813-16.125-3.685-8.922-2.455-17.06.813-25.875 2.043-4.867 5.342-6.774 10-9 2.967-.877 5.945-1.349 9-1.813 9.664-1.733 17.528-5.333 26-10.187l2.758-1.559c2.08-1.337 3.558-2.65 5.242-4.441a507.944 507.944 0 0 1 3.75-3.188C83.867 159.23 87.758 155.409 91 151v-2h2a117.959 117.959 0 0 0 1.5-8.688C95 137 95 137 96 135c.232-2.546.419-5.074.563-7.625l.13-2.14c.106-1.745.207-3.49.307-5.235l-2-1a128.606 128.606 0 0 1-2-7h-2v-2h-2c-1.625-1.375-1.625-1.375-3-3v-2l-2.688-.813C80 103 80 103 77.689 101.5c-5.053-2.82-9.13-4.154-14.88-2.684-12.419 4.445-12.419 4.445-21.011 13.895-1.458 4.187-2.213 8.529-2.988 12.887-1.078 4.533-2.703 8.118-5.746 11.652-5.79 3.308-11.735 4.449-18.301 3.07-6.03-2.177-10.634-4.857-13.828-10.535-2.558-7.631-2.157-16.05 1.066-23.41 3.285-5.64 7.933-8.353 14-10.375a96.927 96.927 0 0 1 4.438-.36c18.115-1.245 40.21-3.192 53.25-17.328A343.386 343.386 0 0 0 78 73l2.52-2.984C85.016 64.95 85.016 64.95 88 59h2l1-6h2c.077-4.516.102-8.59-1-13h-2v-2h-2l-1.875-1.938C83.965 33.966 82.912 33.416 80 33v-2c-7.982-1.596-13.557-.145-21 3l-2.191.89c-5.086 2.59-7.596 6.493-10.684 11.11-3.462 5.097-6.438 9.123-12.352 11.492-7.188 1.316-14.896-.05-21.273-3.617C8.544 51.01 5.36 47.274 3 43v-3l-2-1c-.52-9.041.318-17.06 6.063-24.375C12.265 9.225 18.578 6.892 26 6.437c8.491.374 14.802 5.23 21 10.563 11.375 5.384 22.917.52 34.003-3.272C97.13 8.228 113.09 3.438 130 1l2.086-.317c7.554-1.005 15.182-.926 22.789-.933Z" fill="#BDB0A7"/><path d="M312 245c6.595 4.84 10.174 11.313 11.582 19.305 1.495 13.22 1.345 26.38-6.77 37.57-8.007 9.243-17.828 14.576-29.812 17.125-1.514.078-3.03.108-4.547.098l-2.558-.01-2.645-.026-2.691-.013c-2.187-.012-4.373-.028-6.559-.049l.105 2.57c.26 11.233.086 24.759-8.105 33.43-2.282 1.68-4.411 2.779-7 4l-2 1c-12.646.984-12.646.984-18-3-7.152-6.595-9.722-13.511-11-23a207.341 207.341 0 0 1-.063-7.875l.014-2.086c.012-1.68.03-3.36.049-5.039l-3.7.14c-15.922.427-29.079-2.003-41.363-12.984-9.845-10.354-11.533-22.853-11.277-36.523.45-9.083 3.712-17.046 10.399-23.266 7.092-4.995 13.48-5.338 21.941-4.367 10.884 3.22 17.758 11.573 23.13 21.17C229.594 279.256 233 296.965 233 315h24v-12c.443-3.327.932-6.484 1.625-9.75l.536-2.58c3.736-17.032 10.732-35.666 25.964-45.608 9.39-5.308 17.438-5.19 26.875-.062Z" fill="#BF533F"/><path d="M125 356c3.484 1.363 5.777 3.588 8.413 6.188C146.41 374.994 161.784 383.872 178 392c-.872 2.933-1.674 4.7-3.941 6.79-4.635 1.834-9.057 1.654-13.996 1.585l-3.118-.03c-11.864-.241-23.502-1.407-32.945-9.345-2.185-2.495-3.66-4.974-5-8l-.879-1.867c-2.33-6.418.305-12.14 2.879-18.133 1.225-2.446 2.53-4.689 4-7ZM365 356h2c.984 1.914 1.962 3.831 2.938 5.75l1.652 3.234c3.031 6.483 3.238 12.259.91 19.079-2.797 6.423-6.94 9.346-13.219 12.152-8.893 3.432-17.393 4.007-26.844 4.098l-3.076.087c-6.054.052-9.875-.138-14.361-4.4-.647-2.14-.647-2.14-1-4l3.559-1.766c18.27-9.103 18.27-9.103 34.025-21.894C353 367 353 367 355 367v-2c1.68-1.656 1.68-1.656 3.875-3.5 2.115-1.79 4.165-3.54 6.125-5.5Z" fill="#BCAFA7"/><path d="m392.688 25.813 2.635-.002c7.051.057 13.757.775 20.677 2.189-2.874 2.249-5.824 4.084-9 5.875-5.157 3.09-8.186 5.479-10 11.375 0 11.507 9.584 21.489 16.941 29.441 2.351 2.637 4.234 5.294 6.059 8.309-3.875-1.375-6.84-3.164-10.125-5.625l-2.934-2.168c-1.852-1.39-3.7-2.788-5.539-4.195-5.286-3.98-10.667-7.353-16.464-10.512C366.5 50.395 366.5 50.395 364 42c-.5-3.563-.5-3.563 0-7 3.885-5.028 8.346-7.582 14.594-8.566 4.698-.533 9.369-.625 14.094-.622ZM85.95 26.664l2.339-.02a766.97 766.97 0 0 1 4.9-.015c2.473-.004 4.945-.04 7.418-.078 9.182-.065 17.112-.032 24.456 6.199 1.435 3.445 1.542 6.626.937 10.25-4.355 9.278-15.063 14.373-23.625 19.188-8.409 4.831-15.993 10.08-23.379 16.351C76.401 80.671 74.006 82.51 71 84l-2-1 1.652-1.8C80.872 71.07 80.872 71.07 88 59h2l1-6h2c.077-4.516.102-8.59-1-13h-2v-2h-2l-1.875-1.938C83.965 33.966 82.912 33.416 80 33v-2l-6-2c3.773-2.457 7.6-2.323 11.95-2.336Z" fill="#9F958C"/><path d="m104.813 88.813 2.81.001c3.975.026 7.535.085 11.377 1.186.802 17.745-4.43 28.387-14 43a6802.775 6802.775 0 0 0-3.543 5.473c-3.14 4.85-6.294 9.691-9.457 14.527l-1-4h2a117.959 117.959 0 0 0 1.5-8.688C95 137 95 137 96 135c.232-2.546.419-5.074.563-7.625l.13-2.14c.106-1.745.207-3.49.307-5.235l-2-1a128.606 128.606 0 0 1-2-7h-2v-2h-2c-1.625-1.375-1.625-1.375-3-3v-2l-2.688-.813c-3.103-1.112-5.501-2.5-8.312-4.187a124.952 124.952 0 0 0-6-2l1-3a62.692 62.692 0 0 1 7-2.063l3.875-.972 2.034-.474c1.411-.331 2.817-.682 4.219-1.05 5.944-1.489 11.574-1.71 17.684-1.629Z" fill="#9E948C"/><path d="m419 95 3 2-3.438.875L415 99l-1 2a101.785 101.785 0 0 1-4.563 2.063c-6.47 3.128-11.318 7.838-14.632 14.25-2.887 9.64-.97 20.015 2.418 29.21C398 149 398 149 397 151a1603.31 1603.31 0 0 1-10-15l-1.587-2.398C375.843 119.073 370.143 108.636 371 91c13.194-7.394 34.853-.827 48 4Z" fill="#9F958C"/><path d="M56.188 192.563c4.096 3.55 7.232 7.253 8.226 12.71.245 6.525-1.546 11.514-5.789 16.54-4.602 3.835-8.526 4.65-14.414 4.503-4.674-.668-7.415-3.431-10.461-6.816-3.406-4.865-4.473-8.47-3.75-14.5 2.145-6.662 5.236-10.436 11.313-13.875 5.705-1.74 9.552-1.171 14.874 1.438ZM451.438 192.188c4.04 2.857 6.617 6.293 8.562 10.812 1.047 6.383.052 11.618-3.39 17.082-3.26 3.885-6.936 5.48-11.88 6.29-4.662.261-8.291-.477-12.226-3.024-2.67-2.393-3.955-5.131-5.504-8.348l-1-2c-.824-6.336-.27-11.089 3.531-16.305 5.973-6.893 13.581-7.383 21.906-4.507Z" fill="#BF543F"/><path d="M325 401c4.146-.088 8.291-.14 12.438-.188l3.529-.076c6.199-.052 11.293.292 17.082 2.549 3.821 1.4 7.91 1.516 11.935 1.895 4.216 1.146 5.637 2.1 8.016 5.82.316 4.332-.174 8.51-.688 12.813l-.357 3.544A528.885 528.885 0 0 1 376 436h-2l-1.063-3.5c-1.968-5.31-5.762-10.912-10.937-13.5l-1 19h-2l-1.137-2.414c-4.487-10.092-4.487-10.092-12.675-16.961L343 418v-2l-1.793-.297c-5.004-.947-8.643-1.815-12.207-5.703-1.188-3.188-1.188-3.188-2-6l-2-1v-2ZM147.055 400.805l3.36.02 3.46.05 3.531.027c2.865.024 5.73.057 8.594.098-1.028 5.815-3.41 9.248-8 13-2.432.887-4.614 1.344-7.18 1.648L149 416l-1 2-2.625 1.438c-6.204 3.956-9.891 11.854-12.375 18.562h-2l-1-18c-6.625 3.313-10.002 9.339-13 16h-1l-.184-3.07-.254-4.055-.119-2.016c-.196-3.083-.48-6.076-1.013-9.12-.599-3.816.04-6.212 1.57-9.739 4.533-3.553 10.22-3.777 15.781-4.473 3.201-.423 3.201-.423 6.042-1.548 3.277-1.01 5.816-1.21 9.232-1.174Z" fill="#6D434D"/><path d="M465 343c3.966 3.654 6.604 7.286 9.188 12l1.037 1.828c5.74 10.255 5.74 10.255 4.775 15.172a44.106 44.106 0 0 1-5.813 4.813l-1.768 1.294c-1.205.88-2.416 1.752-3.63 2.618a344.53 344.53 0 0 0-5.031 3.666c-7.29 5.375-7.29 5.375-9.758 6.609l-.519-1.665a6377.51 6377.51 0 0 0-2.356-7.522l-.816-2.62c-1.298-4.13-2.608-8.206-4.309-12.193l1.363-1.441c6.501-7.075 12.049-14.762 17.637-22.559Z" fill="#312722"/><path d="M432 367v2l2.625-1.313C438 367 438 367 441.188 369c3.772 3.723 5.696 6.834 5.988 12.273.01 3.243-.077 6.486-.176 9.727l-14 1-2-9-4-1 1 2c.043 2.676.045 5.327 0 8 0 2.012.001 4.026.105 6.035.219 5.402.219 5.402-1.293 8.027-2.55 1.32-4.13.736-6.812-.062v-2l-1.813-.313c-2.578-.81-3.5-1.592-5.187-3.687-.477-2.191-.477-2.191-.625-4.563-.204-3.345-.204-3.345-1.375-6.437 1.124-5.747 2.925-12.625 7-17 4.597-3.024 8.453-5 14-5Z" fill="#6B434C"/><path d="M431 322h29l1 3h-2l-.012 1.851c-.347 7.329-2.65 11.815-6.863 17.712l-1.645 2.439c-4.038 5.85-4.038 5.85-7.48 6.998l-5-2c-2.664-.456-5.308-.726-8-1-.169-9.717.375-19.307 1-29Z" fill="#302722"/><path d="M389 354v2l1.797.8c2.283 1.244 3.677 2.504 5.453 4.387 4.557 4.695 9.297 9.178 14.75 12.813l-1 15-33-9c-.378-8.536 2.29-17.066 7.688-23.813C387 354 387 354 389 354Z" fill="#312823"/><path d="M227 100h38c-1.423 3.557-2.702 6.372-4.645 9.582l-1.552 2.576-1.615 2.654-1.58 2.62a1122.782 1122.782 0 0 1-3.11 5.113 416.485 416.485 0 0 0-2.93 4.874l-1.33 2.218-1.166 1.971L246 133h-2l-1.13-2.092-5.12-9.47-1.777-3.292c-3.619-6.693-3.619-6.693-7.395-13.298C227 102 227 102 227 100ZM101 199c7.205 3.163 12.246 10.18 17.258 16.047 2.342 2.625 4.876 5.022 7.457 7.41C127 224 127 224 127 227c-6.125 2.188-6.125 2.188-8.015 2.86-3.314 1.18-6.624 2.371-9.926 3.585l-3.746 1.368-3.45 1.269C99 237 99 237 96 237c.773-29.545.773-29.545 5-38ZM391 201c2.308 5.8 2.89 11.725 3.625 17.875l.406 3.184c.699 5.694 1.121 11.205.969 16.941-4.243-.6-8.034-1.595-12.055-3.066l-3.36-1.221-3.46-1.275-3.531-1.288c-2.867-1.045-5.731-2.095-8.594-3.15.852-4.373 2.899-6.173 6.125-9.25 1.007-.975 2.012-1.951 3.016-2.93l1.486-1.448c2.43-2.429 4.64-5.04 6.877-7.645C388.333 201 388.333 201 391 201Z" fill="#9F958C"/><path d="M473 106c4.152 1.715 6.797 4.083 9 8 .802 5.306.645 9.61-1.625 14.5-3.621 3.812-6.602 5.274-11.813 5.938-4.992-.614-8.604-2.112-11.89-6.016-2.627-4.107-3.386-7.51-2.672-12.422 4.542-8.579 9.542-11.28 19-10Z" fill="#BF5540"/><path d="M467 19c4.692 2.073 7.713 5.426 10 10 .591 5.683.272 10.148-3 15-3.409 3.076-5.652 4.87-10.25 5.313-4.462-.372-6.347-1.452-9.75-4.313-3.914-5.41-3.788-10.54-3-17 3.421-7.223 8.08-9.849 16-9ZM26 106c4.724 1.951 7.725 5.45 10 10 .664 5.53-.44 8.806-3.516 13.266-3.122 3.648-6.277 4.58-10.922 5.172-5.32-.654-8.764-2.524-12.5-6.5C7.383 123.294 7.223 118.867 8 114c3.974-7.705 10.077-8.813 18-8ZM30 19c4.363 2.223 7.234 4.39 9 9 .686 6.234.709 11.701-3 17-2.83 3.04-5.87 3.708-9.98 4.05-3.438-.086-5.258-1.024-8.02-3.05-3.168-3.645-5.293-7.23-5.5-12.125.729-5.65 2.312-8.604 6.188-12.75C22.718 18.539 25.343 17.996 30 19Z" fill="#BF5440"/><path d="M141 302c-2.672 10.868-6.406 21.411-10 32-4.027 0-4.745-1.312-7.563-4.125-4.07-4.19-7.646-8.577-11.062-13.313l-1.326-1.826C108 310.382 108 310.382 108 307c3.895-.718 7.791-1.43 11.688-2.136 1.974-.36 3.947-.723 5.92-1.087l3.779-.683 3.475-.635c2.776-.406 5.34-.55 8.138-.459ZM351 304c11.084 1.268 22.032 2.964 33 5-1.33 4.85-3.467 8.42-6.563 12.313l-1.325 1.697c-4.003 5.036-8.413 9.597-13.112 13.99-2-1-2-1-3.145-3.836l-1.238-3.754-.664-1.999a887.42 887.42 0 0 1-1.376-4.194 1105.12 1105.12 0 0 0-2.12-6.426C351 306.311 351 306.311 351 304Z" fill="#9F958C"/><path d="M263 432c2.313 2.75 2.313 2.75 4 6-.34 3.418-1.651 4.965-4.125 7.25-3.302 3.146-6.271 6.459-9.2 9.953-1.747 1.874-3.586 3.322-5.675 4.797-5.803-5.347-11.027-10.56-14-18v-3a20577.862 20577.862 0 0 1 16.016-4.59l2.602-.746L255 433l2.062-.588C259 432 259 432 263 432Z" fill="#312723"/><path d="M230 145h32c-5.169 10.43-10.468 20.76-16 31h-2c-1.996-4.253-3.99-8.507-5.981-12.762l-2.038-4.345c-.974-2.077-1.947-4.155-2.918-6.233-.307-.65-.613-1.302-.928-1.973C230 146.114 230 146.114 230 145Z" fill="#9F958C"/><path d="M161 117c2.552 2.552 2.445 3.938 2.852 7.488l.39 3.33.383 3.495.406 3.458c.547 4.77 1.052 9.424.969 14.229-7.327-2.097-14.477-4.549-21.625-7.188l-3.043-1.115c-2.445-.896-4.889-1.795-7.332-2.697 3.791-4.192 8.352-7.251 12.938-10.5 7.155-5.084 7.155-5.084 14.062-10.5Z" fill="#A0958C"/><path d="M224 423a1866.92 1866.92 0 0 1 3 10.57l1 3.555 1 3.57a82.414 82.414 0 0 0 3 8.305c-2.436.671-4.874 1.337-7.313 2l-2.091.578c-2.954.8-5.522 1.422-8.596 1.422-7-20.038-7-20.038-7-29 5.71-.74 11.242-1.105 17-1Z" fill="#312723"/><path d="M330 119c6.516 4.25 12.82 8.735 19.063 13.375l2.623 1.941c2.106 1.56 4.21 3.12 6.314 4.684-2.784 1.856-4.98 2.8-8.113 3.875-1.001.345-2.002.69-3.033 1.047L343.688 145l-3.131 1.078A1282.262 1282.262 0 0 1 326 151a459.884 459.884 0 0 1 2-22.188l.251-2.25c.629-5.321.629-5.321 1.749-7.562Z" fill="#9F958C"/><path d="M488 417c4.72 1.543 9.417 3.078 14 5-1.96 10.19-6.547 19.712-14 27h-3c-.949-1.356-1.886-2.722-2.75-4.133-2.39-3.571-5.374-6.683-8.25-9.867 1.914-4.563 5.273-7.335 8.809-10.684 2.174-2.298 3.674-4.551 5.191-7.316Z" fill="#322824"/><path d="M504 382c.93 3.157 1.129 5.996 1.133 9.281l.004 3.051-.012 3.168.012 3.168-.004 3.05-.004 2.78c-.12 2.313-.477 4.287-1.129 6.502-5.903-.628-10.113-2.038-16-4v-26c11-1 11-1 16-1Z" fill="#312722"/><path d="m441.813 390.938 2.957.027L447 391c.473 11.023-.05 21.032-7 30l-2 3c-2.625 1.188-2.625 1.188-5 2-.983-2.248-1.961-4.499-2.938-6.75l-.841-1.922c-1.328-3.072-2.565-6.038-3.221-9.328l1.938-.813c2.393-1.074 2.393-1.074 3.062-4.187h2v-3h-2v-8c3.674-.853 7.045-1.108 10.813-1.063Z" fill="#322823"/><path d="M309 159c4.964.582 8.735 2.818 13 5.25l2.117 1.16 2.07 1.168 1.856 1.044c2.621 1.846 4.738 4.074 6.957 6.378a4232.312 4232.312 0 0 1-10.999 6.836c-1.248.774-2.495 1.55-3.742 2.328-1.79 1.116-3.582 2.227-5.376 3.336l-3.27 2.031C309 190 309 190 307 190c.14-3.667.288-7.333.438-11l.119-3.121c.235-5.681.638-11.25 1.443-16.879ZM183 157l2 31c-5.797-2.319-10.936-5.29-16.313-8.438l-3.11-1.775-2.94-1.72-2.697-1.565L158 173v-3c2.492-1.867 2.492-1.867 5.875-3.875l1.777-1.059C179.349 157 179.349 157 183 157Z" fill="#9F958C"/><path d="m425 324 1 14a1940.66 1940.66 0 0 1-11.75 6.063c-1.667.87-1.667.87-3.367 1.76l-3.242 1.65-2.984 1.539c-2.86 1.064-3.897 1.176-6.657-.012-2.313-1.813-2.313-1.813-4-4-.095-2.954 1.05-4.059 2.938-6.313C404.277 331.853 414.664 324 425 324Z" fill="#312823"/><path d="m258 458 3.29 1.242 4.335 1.633 2.16.816c4.046 1.522 8.102 2.973 12.215 4.309a1222.77 1222.77 0 0 1-1.438 4.938l-.808 2.777C277 476 277 476 276 477c-1.675.1-3.354.13-5.031.133l-3.149.004-3.32-.012-3.227.012c-6.174-.008-12.151-.327-18.273-1.137 1.427-3.065 2.972-5.086 5.426-7.43 3.365-3.357 6.439-7 9.574-10.57Z" fill="#312722"/><path d="M467 438c1.621 1.61 1.621 1.61 3.438 3.75l1.808 2.11C474 446 474 446 475.536 448.202c1.43 2.083 1.43 2.083 4.464 2.797.688 2.063.688 2.063 1 4-5.064 4.733-10.352 8.762-17 11-2.207-.176-2.207-.176-4-1-1.5-3.125-1.5-3.125-2.207-5.023-.824-2.053-1.835-3.838-2.98-5.727C453 451 453 451 453 448c1.863-1.719 1.863-1.719 4.313-3.5 3.33-2.432 3.33-2.432 6.355-5.219C465 438 465 438 467 438Z" fill="#312723"/><path d="m266.125 400.938 2.898.013c2.326.012 4.652.03 6.977.049v14h-31v-13c7.085-.817 13.997-1.128 21.125-1.063Z" fill="#322823"/><path d="M207 401c4.254-.025 8.508-.043 12.762-.055 1.449-.005 2.897-.012 4.345-.02 2.078-.013 4.155-.018 6.233-.023l3.793-.016C237 401 237 401 238 402v13h-29c-2.25-10.125-2.25-10.125-2-14Z" fill="#332824"/><path d="M470 322c8.282 2.07 15.021 8.24 19.977 15.043 1.198 2.292 1.627 4.412 2.023 6.957a403.365 403.365 0 0 1-5.25 3.063l-2.953 1.722C481 350 481 350 478.852 349.941c-2.486-1.263-3.598-2.81-5.227-5.066-3.053-4.122-6.253-8.01-9.625-11.875l6-11Z" fill="#322924"/><path d="M318.247 445.773c.91.01 1.822.02 2.76.032l2.99.02 3.128.05 3.152.027c2.575.024 5.149.06 7.723.098v18h-23l-.625-7.875-.213-2.476c-.133-1.88-.15-3.765-.162-5.649 2-2 2-2 4.247-2.227ZM407 454c5.652-1.014 11.476-2.002 17 0 5.749 4.984 9.62 12.86 12 20-3.56 1.187-6.973 1.351-10.688 1.563l-2.126.13c-1.729.106-3.457.207-5.186.307l-.953-1.574c-1.954-3.185-3.872-6.21-6.235-9.113C407.83 461.507 407 458.836 407 454Z" fill="#322723"/><path d="M280 437c3.791 1.45 7.387 3.152 11 5v3h-2l-.313 2.875c-.678 4.86-2.196 9.463-3.687 14.125-8.128-1.23-15.415-3.885-23-7 3.347-4.288 6.925-7.794 11.063-11.32 2.44-2.116 4.689-4.362 6.937-6.68Z" fill="#322823"/><path d="m395 413 2.938 2.688c4.007 3.457 8.368 5.906 13.062 8.312l-1.313 2.371-1.687 3.067-1.688 3.058c-1.39 2.18-1.39 2.18-1.312 3.504l-9-1v-2l-2.688-.625c-4.09-1.698-5.67-3.876-8.312-7.375l-1.875-1.625C382 422 382 422 382.051 420.085c1.468-3.225 3.779-3.61 7.012-4.835l3.347-1.297L395 413Z" fill="#362B27"/><path d="M346 221h2c4.212 8.57 8 16.287 8 26l-26-3c2.5-5.002 5.694-9.255 9-13.75l1.945-2.691 1.868-2.543 1.707-2.335L346 221Z" fill="#A0958C"/><path d="M444 418c4.21 1.73 7.351 4.682 10.75 7.625l1.824 1.563c1.479 1.267 2.953 2.539 4.426 3.812-.532 3.951-2.3 5.556-5.25 8.125l-2.328 2.07c-2.414 1.799-4.588 2.83-7.422 3.805-1.462-1.914-2.92-3.83-4.375-5.75l-1.25-1.633c-2.092-2.766-3.97-5.438-5.375-8.617l2.813-2.125c3.088-2.548 4.631-5.159 6.187-8.875Z" fill="#312723"/><path d="M145 219c3.919 3.634 7.004 7.796 10.188 12.063l1.654 2.181 1.576 2.104 1.43 1.906C161 239 161 239 162 242l-26 3c1.13-11.3 1.13-11.3 3.375-16.375l1.273-2.96c1.252-2.468 2.614-4.521 4.352-6.665Z" fill="#9F958C"/><path d="M497 352c3.686 8.402 4.637 15.843 5 25h-14l-2.832-7.129c-1.347-3.31-2.753-6.59-4.168-9.871 2.289-1.339 4.58-2.671 6.875-4l1.973-1.156C494.773 352 494.773 352 497 352Z" fill="#312723"/><path d="M467 408c6.182.538 11.327 2.546 17 5-1.073 7.355-6.42 13.3-12 18h-4c-2.14-2.188-2.14-2.188-4.25-5l-2.14-2.813L460 421l1.277-2.336 1.66-3.039 1.653-3.023A157.118 157.118 0 0 0 467 408Z" fill="#312722"/><path d="M290 458h15l1 19h-20l4-19Z" fill="#302722"/><path d="M437 367c3.945 2.286 6.591 4.043 9 8 1.196 5.301 1 10.578 1 16l-14 1-1.465-6.738c-.534-2.407-.534-2.407-1.535-5.262a78.985 78.985 0 0 1 3.438-6.688l1.025-1.837A522.851 522.851 0 0 1 437 367Z" fill="#322924"/><path d="M234.293 453.633c2.636 2.11 4.584 4.754 6.707 7.367l3 2c-1.364 2.992-2.95 5.29-5.125 7.75l-1.633 1.86L236 474c-7.132-3.038-12.676-7.349-18-13v-2a478.043 478.043 0 0 1 6.75-3.125l1.922-.918c4.735-2.12 4.735-2.12 7.621-1.324Z" fill="#312823"/><path d="M206 9c11.178 1.855 21.417 4.997 32 9-2.055 2.225-3.934 3.648-6.652 4.973l-2.104 1.037-2.181 1.052-2.17 1.065c-1.338.656-2.677 1.31-4.018 1.96A560.446 560.446 0 0 0 215 31l-.262-2.125c-.997-6.733-2.717-11.41-6.738-16.875l-2-3Z" fill="#352B27"/><path d="M371 446h18l-.188 7.313-.02 2.29c-.085 1.823-.085 1.823-.792 5.397-4.589 4.072-9.19 3.232-15 3l-2-18Z" fill="#312723"/><path d="m284 10-2.313 2.563C277.043 18.18 275.623 23.904 275 31l-1.73-1.137c-6.78-4.278-13.726-7.19-21.27-9.863v-2c3.31-1.133 6.623-2.255 9.938-3.375l2.806-.96C280.628 8.313 280.628 8.313 284 10Z" fill="#342A25"/><path d="M341 446h23v12h-23v-12Z" fill="#302722"/><path d="M132 363c4.875 1.75 4.875 1.75 6 4l-1.938 1.875c-2.665 2.746-3.009 3.644-3.437 7.5.019 3.714.019 3.714 2.563 6 2.718 1.57 4.715 2.271 7.812 2.625l-1-7c4.375 2.386 8.643 5.285 12 9v3c-3.043.136-6.08.234-9.125.313l-2.594.126c-4.318.083-7.327.025-10.781-2.744-3.579-3.858-5.121-7.47-6-12.632.743-4.55 3.217-8.78 6.5-12.063ZM358 363c3.738 1.201 5.496 3.513 7.3 6.938 1.293 3.812.784 7.246-.3 11.062-2.314 4.463-4.442 6.912-9 9-3.115.353-6.183.284-9.313.188l-2.533-.042A565.36 565.36 0 0 1 338 390c.82-4.289 2.583-5.607 6.063-8.25l2.785-2.14L349 378c1.044 3.133.934 3.99 0 7 1.482-.254 2.96-.53 4.438-.813l2.496-.457L358 383c1.206-3.62 1.323-6.192 1-10-1.904-3.273-1.904-3.273-4-6v-2l3-2Z" fill="#A0968D"/><path d="M422 349c.249 2.437.475 4.872.688 7.313l.22 2.091c.422 5.132.422 5.132-1.197 7.409L420 367l-1.535 1.387C414.222 372 414.222 372 412 372c-1.621-1.793-1.621-1.793-3.438-4.188l-1.808-2.355c-1.726-2.418-3.262-4.889-4.754-7.457 2.228-1.128 4.457-2.252 6.688-3.375l1.896-.96C419.864 349 419.864 349 422 349Z" fill="#312723"/><path d="m451 456 6 12-4 1-1 2a94.773 94.773 0 0 1-6.563 1.625c-1.197.26-2.395.52-3.628.79L439 474a1637.86 1637.86 0 0 1-2.5-5.875l-1.406-3.305C434 462 434 462 434 460c2.458-.67 4.916-1.336 7.375-2l2.117-.578C448.773 456 448.773 456 451 456Z" fill="#332924"/><path d="M249 419c2.98 5.246 2.98 5.246 3.05 8-1.74 3.313-5.083 4.032-8.425 5.25l-2.078.813C238.57 434.197 236.21 435 233 435a498.676 498.676 0 0 1-1.5-4.688l-.844-2.636c-.655-2.67-.774-4.94-.656-7.676 6.347-.584 12.624-1.145 19-1Z" fill="#312723"/><path d="M392 455h11l1 22h-12v-22Z" fill="#302722"/><path d="M354 462h15l1 14h-19l3-14Z" fill="#312723"/><path d="m410 392 .402 2.047.536 2.703.527 2.672c.492 2.53.492 2.53 1.164 4.781C413 406 413 406 412 408c-2.066.852-2.066.852-4.563 1.625-1.239.39-1.239.39-2.503.79L403 411c-4.212-4.655-6.842-8.368-7.125-14.875L396 394c2.249-1.124 3.944-1.305 6.438-1.563l2.37-.253C407 392 407 392 410 392Z" fill="#312823"/><path d="m454 395 10 1c-1.3 14.3-1.3 14.3-6 19-2.82.195-2.82.195-6.125.125l-3.32-.055L446 415c2.75-6.875 2.75-6.875 5-8 .653-2.282.653-2.282 1.063-4.938.85-4.89.85-4.89 1.937-7.062Z" fill="#332924"/><path d="m378 384 1 3 5.762-.098C387 387 387 387 392 388v12h-16v-14h2v-2Z" fill="#332824"/><path d="M481 387c.904 3.837 1.106 7.375 1.063 11.313l-.028 3.238L482 404l-11 1c-.847-5.08-1.09-9.848-1-15 6.5-3 6.5-3 11-3Z" fill="#322823"/><path d="M428 422c1.7 2.188 2.735 4.515 4 7-4.53 5.006-9.548 6.71-16 8-1-1-1-1-1.098-3.723l.036-3.34.027-3.347L415 424c1.412-.534 2.83-1.052 4.25-1.563l2.39-.878c2.629-.623 3.895-.645 6.36.441Z" fill="#342A26"/><path d="M309 468h19v9h-19v-9ZM447 391v13c-12.625-2.875-12.625-2.875-16-4v-8c5.391-1.252 10.481-1.066 16-1Z" fill="#302722"/><path d="M276 418v7c-2.77.503-5.541 1.003-8.313 1.5l-2.38.434-2.295.41-2.11.38C259 428 259 428 256 428l-1-9a13854.584 13854.584 0 0 1 11.338-.645l2.432-.136 2.237-.127c1.663-.077 3.328-.092 4.993-.092Z" fill="#312723"/><path d="M336 466h13v11h-14l1-11Z" fill="#302722"/><path d="M298 25c2.563 1.75 2.563 1.75 4 4 .063 2.063.063 2.063-1 4-3.099 2.643-4.58 3.021-8.688 2.813C289 35 289 35 287 33c-.313-3-.313-3 0-6 3.678-2.452 6.727-2.704 11-2Z" fill="#CC7E84"/><path d="M377 403h15c2 4 2 4 2 7l-2.555.621-3.32.817-3.305.808c-2.745.633-2.745.633-4.82 1.754-2.995-4.242-3-5.342-3-11Z" fill="#352926"/><path d="m196 24.75 2.063-.016C200 25 200 25 203 27c.5 2.938.5 2.938 0 6-2.063 1.938-2.063 1.938-5 3-6.321-.321-6.321-.321-9-3-.313-3-.313-3 0-6 2.997-1.998 3.633-2.276 7-2.25Z" fill="#CC7D84"/><path d="M428 356c11.522-.369 11.522-.369 17 2l-3 6h-15l1-8Z" fill="#312723"/><path d="M394 444h17v7h-17v-7Z" fill="#362A26"/><path d="M420.938 408.438c2.34.246 2.34.246 4.062.562a240.8 240.8 0 0 1-.813 4.375l-.457 2.46C423 418 423 418 420 420c-2.191.266-2.191.266-4.563.25l-2.378.016C411 420 411 420 409 418c5.953-9.648 5.953-9.648 11.938-9.563Z" fill="#332824"/><path d="M431 382h2v2l2.809-.254 3.628-.308 3.622-.317L446 383c1 1 1 1 1 8l-14 1-2-10Z" fill="#6A424B"/><path d="M432 367c-.423 3.42-.941 6.715-2 10-2.655 1.887-3.933 2.094-7.125 1.813-2.21-.959-3.406-1.904-4.875-3.813v-3a485.856 485.856 0 0 1 4.75-2.5l2.672-1.406C428 367 428 367 432 367Z" fill="#342925"/><path d="m278 426 1 9c-2.813 2.063-2.813 2.063-6 4-4.427-1.476-4.914-3.9-7-8v-2a664.623 664.623 0 0 1 4.313-1.5l2.425-.844C275 426 275 426 278 426Z" fill="#332824"/><path d="m295 445 11 1-1 8h-12c0-6 0-6 2-9Z" fill="#312823"/><path d="m431 433 3 3c-1.47 3.806-3.385 5.173-6.875 7.188l-2.617 1.542c-2.211 1.12-4.089 1.803-6.508 2.27l-2-5 2.012-.953c4.745-2.3 9.034-4.488 12.988-8.047Z" fill="#352A26"/><path d="m388 466 1 11h-11l-2-7 3.813-.875c2.657-.61 5.86-3.125 8.187-3.125Z" fill="#312823"/><path d="M165 407h1c.097 6.115-.23 11.933-1 18h-2a804.91 804.91 0 0 1-2.5-4.375l-1.406-2.46C158 416 158 416 158 414a381.113 381.113 0 0 1 6-5l1-2Z" fill="#372D29"/><path d="m326 407 2.313 2.375c2.596 2.698 2.596 2.698 5.687 4.625-1.258 4.508-2.904 7.491-6 11-1.858-1.858-1.73-4.81-2.125-7.313l-.57-3.488c-.27-2.827-.23-4.56.695-7.199Z" fill="#372C28"/><path d="M264 330c-.58 5.806-1.778 10.333-5.563 14.875C257 346 257 346 255 346c.164-6.711 1.15-10.268 6-15 2-1 2-1 3-1Z" fill="#3A2A26"/><path d="M227 331c4.24 1.514 5.936 4.094 8 8 .25 3.875.25 3.875 0 7-4.27-1.75-5.362-3.909-7.25-7.957-.897-2.443-1.073-4.463-.75-7.043Z" fill="#372925"/><path d="M299 9.875C302 10 302 10 303 11c.188 2.938.188 2.938 0 6l-2 2c-3.297-.33-4.623-.623-7-3 .725-5.947.725-5.947 5-6.125ZM190.938 9.813C194 10 194 10 196 12c-.375 3.125-.375 3.125-1 6-2.313.625-2.313.625-5 1l-3-2c-.25-3.063-.25-3.063 0-6 1-1 1-1 3.938-1.188Z" fill="#CC7E84"/><path d="m434 400 12 3-1 6c-1.44-.453-2.876-.912-4.313-1.375l-2.425-.773C436 406 436 406 433 404l1-4Z" fill="#69414A"/><path d="m416 378 4 2-1 10-6-1c-.37-7.508-.37-7.508 1.5-10l1.5-1Z" fill="#342925"/><path d="M131 417h1l1 7 5 2c-1.59 4.035-3.282 8.018-5 12h-2c-.711-7.18-1.258-13.87 0-21Z" fill="#3A2E2A"/><path d="M360 417h1v21h-2c-.838-1.622-1.67-3.248-2.5-4.875l-1.406-2.742C354 428 354 428 354 426l6-1v-8Z" fill="#392D29"/><path d="M415.848 393.902 422 394l-3 10c-4-2-4-2-6-4-.188-2.563-.188-2.563 0-5 1-1 1-1 2.848-1.098Z" fill="#322824"/><path d="M376 422v14h-2l-1.375-3.75c-1.063-2.842-2.177-5.577-3.625-8.25 5.875-2 5.875-2 7-2Z" fill="#362C28"/><path d="m116 422 7 2-6 12h-1v-14Z" fill="#342925"/><path d="M285 13c2.125.375 2.125.375 4 1 .625 2.375.625 2.375 1 5l-2 2c-2.125-.375-2.125-.375-4-1-.625-2.375-.625-2.375-1-5l2-2Z" fill="#CC7E85"/><path d="M202 13c2.125.375 2.125.375 4 1 .625 2.375.625 2.375 1 5l-2 2c-2.125-.375-2.125-.375-4-1-.625-2.375-.625-2.375-1-5l2-2Z" fill="#CC7E84"/><path d="m426 383 2 1v8h-2c-1.125-2.813-1.125-2.813-2-6l2-3Z" fill="#372C28"/></svg>