<?xml version="1.0" encoding="UTF-8"?>
<svg version="1.1" xmlns="http://www.w3.org/2000/svg" width="505" height="477">
<path d="M0 0 C0.73646759 -0.00705963 1.47293518 -0.01411926 2.23171997 -0.02139282 C33.03322742 -0.2496182 33.03322742 -0.2496182 47.01171875 3.203125 C47.8409082 3.40180176 48.67009766 3.60047852 49.52441406 3.80517578 C92.3783156 14.34107975 129.73183155 40.94224621 153.07543945 78.49194336 C161.77258412 93.02119091 167.9944442 108.77200498 172.01171875 125.203125 C172.49125 127.09998047 172.49125 127.09998047 172.98046875 129.03515625 C181.48132297 167.31730497 173.10577766 210.46188612 152.58447266 243.50097656 C132.2958252 274.65684536 105.48504058 295.28103005 71.80810547 310.39111328 C70.33644474 311.05634073 68.87720782 311.74899074 67.421875 312.44921875 C58.83353016 316.32831299 49.22255225 317.52192432 40.01171875 319.203125 C40.01171875 324.153125 40.01171875 329.103125 40.01171875 334.203125 C39.35171875 334.203125 38.69171875 334.203125 38.01171875 334.203125 C38.01171875 335.193125 38.01171875 336.183125 38.01171875 337.203125 C38.67171875 337.203125 39.33171875 337.203125 40.01171875 337.203125 C40.01171875 339.513125 40.01171875 341.823125 40.01171875 344.203125 C40.67171875 344.533125 41.33171875 344.863125 42.01171875 345.203125 C42.53785971 348.00471316 42.84232287 350.80398806 43.15625 353.63671875 C43.75374031 356.41608138 43.75374031 356.41608138 46.37890625 357.44921875 C47.68214844 357.82240234 47.68214844 357.82240234 49.01171875 358.203125 C51.0192369 359.18794522 53.02106334 360.18465014 55.01171875 361.203125 C55.01171875 362.193125 55.01171875 363.183125 55.01171875 364.203125 C55.553125 364.01878906 56.09453125 363.83445312 56.65234375 363.64453125 C59.60435125 363.0922517 61.82587793 363.54646674 64.76171875 364.140625 C66.23898437 364.43259766 66.23898437 364.43259766 67.74609375 364.73046875 C68.49375 364.88644531 69.24140625 365.04242188 70.01171875 365.203125 C70.01171875 365.863125 70.01171875 366.523125 70.01171875 367.203125 C74.35356077 367.01848134 74.35356077 367.01848134 78.01171875 365.203125 C79.79243121 365.11586277 81.57655015 365.09613459 83.359375 365.10546875 C84.43896484 365.10869141 85.51855469 365.11191406 86.63085938 365.11523438 C87.76716797 365.12361328 88.90347656 365.13199219 90.07421875 365.140625 C91.78448242 365.14739258 91.78448242 365.14739258 93.52929688 365.15429688 C96.35682226 365.16612753 99.18424515 365.1826109 102.01171875 365.203125 C102.01171875 365.863125 102.01171875 366.523125 102.01171875 367.203125 C103.00171875 367.203125 103.99171875 367.203125 105.01171875 367.203125 C105.01171875 366.543125 105.01171875 365.883125 105.01171875 365.203125 C112.60171875 365.203125 120.19171875 365.203125 128.01171875 365.203125 C128.01171875 365.863125 128.01171875 366.523125 128.01171875 367.203125 C130.32171875 367.203125 132.63171875 367.203125 135.01171875 367.203125 C135.01171875 366.543125 135.01171875 365.883125 135.01171875 365.203125 C140.95171875 365.203125 146.89171875 365.203125 153.01171875 365.203125 C153.01171875 365.863125 153.01171875 366.523125 153.01171875 367.203125 C154.33171875 367.203125 155.65171875 367.203125 157.01171875 367.203125 C157.34171875 365.883125 157.67171875 364.563125 158.01171875 363.203125 C163.62171875 363.203125 169.23171875 363.203125 175.01171875 363.203125 C175.01171875 363.863125 175.01171875 364.523125 175.01171875 365.203125 C176.66171875 364.543125 178.31171875 363.883125 180.01171875 363.203125 C180.01171875 362.543125 180.01171875 361.883125 180.01171875 361.203125 C180.66398437 360.88859375 181.31625 360.5740625 181.98828125 360.25 C186.9082773 357.8407984 191.54493615 355.37689159 196.01171875 352.203125 C196.34171875 353.193125 196.67171875 354.183125 197.01171875 355.203125 C198.33171875 354.873125 199.65171875 354.543125 201.01171875 354.203125 C200.35171875 352.223125 199.69171875 350.243125 199.01171875 348.203125 C200.40390625 347.15125 200.40390625 347.15125 201.82421875 346.078125 C204.9126717 343.52996878 206.45598062 340.91961053 208.01171875 337.203125 C209.33171875 337.863125 210.65171875 338.523125 212.01171875 339.203125 C212.67171875 337.883125 213.33171875 336.563125 214.01171875 335.203125 C212.69171875 334.543125 211.37171875 333.883125 210.01171875 333.203125 C212.76171875 327.328125 212.76171875 327.328125 215.01171875 326.203125 C215.66495761 323.92072606 215.66495761 323.92072606 216.07421875 321.265625 C216.92562603 316.37531043 216.92562603 316.37531043 218.01171875 314.203125 C218.67171875 314.203125 219.33171875 314.203125 220.01171875 314.203125 C219.56119141 313.34726807 219.56119141 313.34726807 219.1015625 312.47412109 C218.05288893 310.28891465 217.29039094 308.18007976 216.57421875 305.8671875 C216.19136719 304.64128906 216.19136719 304.64128906 215.80078125 303.390625 C215.54039062 302.545 215.28 301.699375 215.01171875 300.828125 C214.49130191 299.15351634 213.97047764 297.47903424 213.44921875 295.8046875 C213.08183594 294.62181152 213.08183594 294.62181152 212.70703125 293.41503906 C211.84288275 290.66602732 210.936281 287.93236165 210.01171875 285.203125 C209.35171875 285.203125 208.69171875 285.203125 208.01171875 285.203125 C208.01171875 284.543125 208.01171875 283.883125 208.01171875 283.203125 C202.40171875 283.203125 196.79171875 283.203125 191.01171875 283.203125 C190.68171875 282.543125 190.35171875 281.883125 190.01171875 281.203125 C189.02171875 281.203125 188.03171875 281.203125 187.01171875 281.203125 C186.64046875 282.37875 186.64046875 282.37875 186.26171875 283.578125 C184.78955669 286.66966532 184.06090396 286.89633134 181.01171875 288.203125 C178.31336932 289.69222194 178.31336932 289.69222194 176.01171875 292.203125 C175.32218054 295.10093117 174.91372546 297.52756358 174.69921875 300.453125 C174.62638672 301.19820313 174.55355469 301.94328125 174.47851562 302.7109375 C174.30266038 304.53983204 174.15442712 306.37134591 174.01171875 308.203125 C173.35171875 308.203125 172.69171875 308.203125 172.01171875 308.203125 C172.01171875 309.193125 172.01171875 310.183125 172.01171875 311.203125 C172.67171875 311.203125 173.33171875 311.203125 174.01171875 311.203125 C174.12128906 311.86699219 174.23085938 312.53085937 174.34375 313.21484375 C175.67921402 320.87138503 175.67921402 320.87138503 180.01171875 327.203125 C182.03836195 327.66537695 182.03836195 327.66537695 184.38671875 327.953125 C185.17820312 328.07171875 185.9696875 328.1903125 186.78515625 328.3125 C189.10565983 328.4322134 189.10565983 328.4322134 190.67578125 326.71875 C191.11664063 326.21859375 191.5575 325.7184375 192.01171875 325.203125 C192.67171875 325.203125 193.33171875 325.203125 194.01171875 325.203125 C194.34171875 324.213125 194.67171875 323.223125 195.01171875 322.203125 C195.67171875 322.203125 196.33171875 322.203125 197.01171875 322.203125 C197.01171875 321.213125 197.01171875 320.223125 197.01171875 319.203125 C196.35171875 319.203125 195.69171875 319.203125 195.01171875 319.203125 C195.01171875 316.563125 195.01171875 313.923125 195.01171875 311.203125 C195.67171875 311.203125 196.33171875 311.203125 197.01171875 311.203125 C196.35171875 308.233125 195.69171875 305.263125 195.01171875 302.203125 C193.69171875 301.873125 192.37171875 301.543125 191.01171875 301.203125 C191.34171875 301.863125 191.67171875 302.523125 192.01171875 303.203125 C192.05487688 305.87892935 192.05711555 308.52975782 192.01171875 311.203125 C192.01171875 313.21515092 192.01305718 315.22895172 192.1171875 317.23828125 C192.3357665 322.64030522 192.3357665 322.64030522 190.82421875 325.265625 C188.2744321 326.58448016 186.69425777 326.0006366 184.01171875 325.203125 C184.01171875 324.543125 184.01171875 323.883125 184.01171875 323.203125 C183.41359375 323.1 182.81546875 322.996875 182.19921875 322.890625 C179.62078495 322.08026009 178.69805658 321.29812966 177.01171875 319.203125 C176.53515625 317.01171875 176.53515625 317.01171875 176.38671875 314.640625 C176.18299694 311.29537242 176.18299694 311.29537242 175.01171875 308.203125 C176.13585302 302.45638252 177.93696563 295.57765559 182.01171875 291.203125 C186.60882074 288.17932169 190.46427728 286.203125 196.01171875 286.203125 C196.01171875 286.863125 196.01171875 287.523125 196.01171875 288.203125 C196.87796875 287.77 197.74421875 287.336875 198.63671875 286.890625 C202.01171875 286.203125 202.01171875 286.203125 205.19921875 288.203125 C208.82530473 291.39967463 210.79470956 295.11336554 211.29663086 299.94677734 C211.41654198 303.26663924 211.42051865 306.56884601 211.38671875 309.890625 C211.39832031 311.01146484 211.40992188 312.13230469 211.421875 313.28710938 C211.37044567 328.05589888 207.22238735 337.1411474 197.30859375 347.9296875 C190.94806329 354.22531458 183.34348308 356.25743709 174.57421875 356.453125 C169.4830035 356.36779737 164.92883248 355.49285975 160.01171875 354.203125 C160.01171875 353.543125 160.01171875 352.883125 160.01171875 352.203125 C159.12484375 351.996875 158.23796875 351.790625 157.32421875 351.578125 C153.23291918 349.87984971 151.65419693 347.70262313 149.01171875 344.203125 C148.50125 343.74808594 147.99078125 343.29304688 147.46484375 342.82421875 C145.59569462 340.73901206 145.15162573 338.90036781 144.44921875 336.203125 C143.59148758 332.94665413 142.91461733 331.05747287 141.01171875 328.203125 C140.68444602 322.85767045 140.68444602 322.85767045 142.01171875 320.203125 C141.35171875 319.873125 140.69171875 319.543125 140.01171875 319.203125 C140.01171875 314.583125 140.01171875 309.963125 140.01171875 305.203125 C140.67171875 305.203125 141.33171875 305.203125 142.01171875 305.203125 C141.68171875 304.213125 141.35171875 303.223125 141.01171875 302.203125 C141.01171875 301.213125 141.01171875 300.223125 141.01171875 299.203125 C140.90859375 298.254375 140.80546875 297.305625 140.69921875 296.328125 C140.69921875 289.40486729 144.04633786 281.22640326 148.32421875 275.828125 C151.76355612 272.46877222 155.3285833 269.29220634 159.01171875 266.203125 C158.70621094 265.03910156 158.70621094 265.03910156 158.39453125 263.8515625 C158.26820313 262.97757812 158.141875 262.10359375 158.01171875 261.203125 C159.62563332 259.15883322 161.01805964 257.82469566 163.01171875 256.203125 C163.63304687 255.65527344 164.254375 255.10742188 164.89453125 254.54296875 C171.55509479 248.95153626 180.11143775 243.203125 189.01171875 243.203125 C189.01171875 244.523125 189.01171875 245.843125 189.01171875 247.203125 C191.52137489 246.49972934 191.52137489 246.49972934 194.01171875 245.203125 C194.34171875 243.883125 194.67171875 242.563125 195.01171875 241.203125 C204.58171875 241.203125 214.15171875 241.203125 224.01171875 241.203125 C224.01171875 241.863125 224.01171875 242.523125 224.01171875 243.203125 C226.65171875 243.533125 229.29171875 243.863125 232.01171875 244.203125 C232.67171875 243.213125 233.33171875 242.223125 234.01171875 241.203125 C241.34467133 242.42528376 248.18499046 248.70710781 252.63671875 254.390625 C254.62358318 257.31114493 255.72950726 259.62844611 256.01171875 263.203125 C256.45693696 267.70315566 256.45693696 267.70315566 259.01171875 271.203125 C259.67171875 271.203125 260.33171875 271.203125 261.01171875 271.203125 C264.45945538 280.07102433 266.17864259 287.68846611 266.01171875 297.203125 C265.02171875 297.203125 264.03171875 297.203125 263.01171875 297.203125 C263.01171875 298.523125 263.01171875 299.843125 263.01171875 301.203125 C264.66171875 301.203125 266.31171875 301.203125 268.01171875 301.203125 C268.94124834 304.36001793 269.14049089 307.19898867 269.14453125 310.484375 C269.14582031 311.49113281 269.14710938 312.49789063 269.1484375 313.53515625 C269.14457031 314.58058594 269.14070313 315.62601562 269.13671875 316.703125 C269.14058594 317.74855469 269.14445312 318.79398437 269.1484375 319.87109375 C269.14650391 321.38123047 269.14650391 321.38123047 269.14453125 322.921875 C269.14340332 323.83904297 269.14227539 324.75621094 269.14111328 325.70117188 C269.02150419 328.01391515 268.66382618 329.98842051 268.01171875 332.203125 C266.69171875 332.203125 265.37171875 332.203125 264.01171875 332.203125 C263.6460285 336.83142082 263.6460285 336.83142082 265.13671875 341.05859375 C266.80004727 345.13523373 264.29981517 348.87017204 262.7109375 352.72265625 C256.19370155 366.07175334 256.19370155 366.07175334 250.90234375 367.953125 C250.2784375 368.035625 249.65453125 368.118125 249.01171875 368.203125 C246.79437761 368.8533242 246.79437761 368.8533242 245.01171875 370.203125 C244.92921875 370.945625 244.84671875 371.688125 244.76171875 372.453125 C243.35809987 377.59972757 238.25470784 379.78426448 233.94921875 382.5078125 C229.18832297 385.20441363 226.31767407 385.52961383 221.01171875 384.203125 C220.68171875 385.523125 220.35171875 386.843125 220.01171875 388.203125 C219.02171875 388.203125 218.03171875 388.203125 217.01171875 388.203125 C216.68171875 388.863125 216.35171875 389.523125 216.01171875 390.203125 C213.84704414 390.82981699 211.65307351 391.35739874 209.44921875 391.828125 C207.65291016 392.21871094 207.65291016 392.21871094 205.8203125 392.6171875 C204.89347656 392.81054688 203.96664063 393.00390625 203.01171875 393.203125 C202.68171875 392.213125 202.35171875 391.223125 202.01171875 390.203125 C201.35171875 390.533125 200.69171875 390.863125 200.01171875 391.203125 C200.01171875 391.863125 200.01171875 392.523125 200.01171875 393.203125 C196.45085217 394.39008053 193.03840851 394.55407918 189.32421875 394.765625 C188.62232422 394.80880859 187.92042969 394.85199219 187.19726562 394.89648438 C185.46896669 395.0022986 183.74036765 395.10319081 182.01171875 395.203125 C181.68171875 394.543125 181.35171875 393.883125 181.01171875 393.203125 C180.35171875 393.38875 179.69171875 393.574375 179.01171875 393.765625 C175.11841761 394.33339808 171.89796396 393.79594207 168.01171875 393.203125 C168.01171875 394.193125 168.01171875 395.183125 168.01171875 396.203125 C164.05171875 396.203125 160.09171875 396.203125 156.01171875 396.203125 C156.01171875 395.213125 156.01171875 394.223125 156.01171875 393.203125 C155.02171875 393.203125 154.03171875 393.203125 153.01171875 393.203125 C153.01171875 394.193125 153.01171875 395.183125 153.01171875 396.203125 C149.38171875 396.203125 145.75171875 396.203125 142.01171875 396.203125 C141.68171875 395.213125 141.35171875 394.223125 141.01171875 393.203125 C138.70171875 393.203125 136.39171875 393.203125 134.01171875 393.203125 C134.01171875 393.863125 134.01171875 394.523125 134.01171875 395.203125 C130.88679624 395.26104344 127.76201109 395.29669246 124.63671875 395.328125 C123.74726563 395.34488281 122.8578125 395.36164063 121.94140625 395.37890625 C121.090625 395.38535156 120.23984375 395.39179688 119.36328125 395.3984375 C118.57775879 395.40891113 117.79223633 395.41938477 116.98291016 395.43017578 C115.01171875 395.203125 115.01171875 395.203125 113.01171875 393.203125 C113.01171875 394.193125 113.01171875 395.183125 113.01171875 396.203125 C108.39171875 396.203125 103.77171875 396.203125 99.01171875 396.203125 C99.01171875 395.213125 99.01171875 394.223125 99.01171875 393.203125 C97.03171875 393.203125 95.05171875 393.203125 93.01171875 393.203125 C93.01171875 394.193125 93.01171875 395.183125 93.01171875 396.203125 C86.41171875 396.203125 79.81171875 396.203125 73.01171875 396.203125 C73.01171875 395.213125 73.01171875 394.223125 73.01171875 393.203125 C72.02171875 393.203125 71.03171875 393.203125 70.01171875 393.203125 C70.01171875 394.193125 70.01171875 395.183125 70.01171875 396.203125 C63.41171875 396.203125 56.81171875 396.203125 50.01171875 396.203125 C50.01171875 395.213125 50.01171875 394.223125 50.01171875 393.203125 C47.04171875 393.203125 44.07171875 393.203125 41.01171875 393.203125 C40.68171875 394.193125 40.35171875 395.183125 40.01171875 396.203125 C36.1992353 396.23249002 32.38678149 396.25004535 28.57421875 396.265625 C27.50494141 396.27400391 26.43566406 396.28238281 25.33398438 396.29101562 C19.13547647 396.30997131 13.15677065 396.02375759 7.01171875 395.203125 C8.01171875 393.203125 9.01171875 391.203125 10.01171875 389.203125 C6.11719399 388.84084363 4.50595653 388.83512111 1.3046875 391.21875 C0.54800781 391.87359375 -0.20867187 392.5284375 -0.98828125 393.203125 C-7.30485285 389.40419048 -13.15196822 385.82370501 -17.98828125 380.203125 C-17.98828125 379.543125 -17.98828125 378.883125 -17.98828125 378.203125 C-16.66828125 377.873125 -15.34828125 377.543125 -13.98828125 377.203125 C-14.64828125 375.223125 -15.30828125 373.243125 -15.98828125 371.203125 C-17.96828125 371.533125 -19.94828125 371.863125 -21.98828125 372.203125 C-28.98828125 352.16495706 -28.98828125 352.16495706 -28.98828125 343.203125 C-27.66828125 342.873125 -26.34828125 342.543125 -24.98828125 342.203125 C-24.98828125 339.563125 -24.98828125 336.923125 -24.98828125 334.203125 C-25.64828125 334.203125 -26.30828125 334.203125 -26.98828125 334.203125 C-29.28440881 324.79310222 -29.28440881 324.79310222 -28.98828125 320.203125 C-26.01828125 319.873125 -23.04828125 319.543125 -19.98828125 319.203125 C-21.66277344 318.92662109 -21.66277344 318.92662109 -23.37109375 318.64453125 C-35.94501931 316.3777708 -47.15814414 312.25734129 -58.81616211 307.0793457 C-60.86178641 306.25415231 -62.83752152 305.67879438 -64.98828125 305.203125 C-64.98828125 304.543125 -64.98828125 303.883125 -64.98828125 303.203125 C-66.25671875 302.82994141 -66.25671875 302.82994141 -67.55078125 302.44921875 C-71.29506472 301.09191599 -74.59740058 299.32063643 -77.98828125 297.265625 C-78.96450439 296.67454956 -78.96450439 296.67454956 -79.96044922 296.0715332 C-94.25577236 287.21686423 -110.21699484 275.06058572 -119.98828125 261.203125 C-119.98828125 260.543125 -119.98828125 259.883125 -119.98828125 259.203125 C-120.64828125 259.203125 -121.30828125 259.203125 -121.98828125 259.203125 C-121.98828125 258.543125 -121.98828125 257.883125 -121.98828125 257.203125 C-122.64828125 256.873125 -123.30828125 256.543125 -123.98828125 256.203125 C-124.86771499 255.03554176 -125.69219151 253.82611042 -126.484375 252.59765625 C-127.19883789 251.49260742 -127.19883789 251.49260742 -127.92773438 250.36523438 C-128.42208984 249.58986328 -128.91644531 248.81449219 -129.42578125 248.015625 C-130.16151367 246.88157227 -130.16151367 246.88157227 -130.91210938 245.72460938 C-137.98828125 234.71404774 -137.98828125 234.71404774 -137.98828125 231.203125 C-138.64828125 230.873125 -139.30828125 230.543125 -139.98828125 230.203125 C-143.62637265 222.8256026 -146.61521832 215.07666491 -148.98828125 207.203125 C-149.38015625 205.965625 -149.77203125 204.728125 -150.17578125 203.453125 C-150.90613273 200.5317191 -151.16938736 198.19137584 -150.98828125 195.203125 C-151.64828125 194.873125 -152.30828125 194.543125 -152.98828125 194.203125 C-152.98828125 191.233125 -152.98828125 188.263125 -152.98828125 185.203125 C-153.64828125 184.873125 -154.30828125 184.543125 -154.98828125 184.203125 C-156.91419614 176.19701229 -156.02376487 167.35592317 -155.73828125 159.203125 C-155.7149472 158.51648773 -155.69161316 157.82985046 -155.66757202 157.12240601 C-154.8959456 135.54730463 -149.84739194 116.58891275 -142.98828125 96.203125 C-142.32828125 96.203125 -141.66828125 96.203125 -140.98828125 96.203125 C-140.88515625 95.501875 -140.78203125 94.800625 -140.67578125 94.078125 C-138.98240666 86.99674033 -134.47709078 80.54846789 -130.98828125 74.203125 C-130.32828125 74.203125 -129.66828125 74.203125 -128.98828125 74.203125 C-128.74207031 73.48511719 -128.49585938 72.76710938 -128.2421875 72.02734375 C-121.97840263 57.91919279 -106.22432146 44.10314573 -93.98828125 34.828125 C-93.24771484 34.26649658 -92.50714844 33.70486816 -91.74414062 33.1262207 C-65.654392 13.63967383 -32.88518291 0.21100984 0 0 Z " fill="#BDB0A7" transform="translate(235.98828125,80.796875)"/>
<path d="M0 0 C9.57 0 19.14 0 29 0 C29 0.66 29 1.32 29 2 C32.96 2.495 32.96 2.495 37 3 C37.66 2.01 38.32 1.02 39 0 C46.33295258 1.22215876 53.17327171 7.50398281 57.625 13.1875 C59.61186443 16.10801993 60.71778851 18.42532111 61 22 C61.44521821 26.50003066 61.44521821 26.50003066 64 30 C64.66 30 65.32 30 66 30 C69.44773663 38.86789933 71.16692384 46.48534111 71 56 C70.01 56 69.02 56 68 56 C68 57.32 68 58.64 68 60 C69.65 60 71.3 60 73 60 C73.92952959 63.15689293 74.12877214 65.99586367 74.1328125 69.28125 C74.13410156 70.28800781 74.13539063 71.29476562 74.13671875 72.33203125 C74.13285156 73.37746094 74.12898438 74.42289062 74.125 75.5 C74.12886719 76.54542969 74.13273437 77.59085937 74.13671875 78.66796875 C74.13478516 80.17810547 74.13478516 80.17810547 74.1328125 81.71875 C74.13168457 82.63591797 74.13055664 83.55308594 74.12939453 84.49804688 C74.00978544 86.81079015 73.65210743 88.78529551 73 91 C71.68 91 70.36 91 69 91 C68.63430975 95.62829582 68.63430975 95.62829582 70.125 99.85546875 C71.78832852 103.93210873 69.28809642 107.66704704 67.69921875 111.51953125 C61.1819828 124.86862834 61.1819828 124.86862834 55.890625 126.75 C55.26671875 126.8325 54.6428125 126.915 54 127 C51.78265886 127.6501992 51.78265886 127.6501992 50 129 C49.9175 129.7425 49.835 130.485 49.75 131.25 C48.34638112 136.39660257 43.24298909 138.58113948 38.9375 141.3046875 C34.17660422 144.00128863 31.30595532 144.32648883 26 143 C25.67 144.32 25.34 145.64 25 147 C24.01 147 23.02 147 22 147 C21.67 147.66 21.34 148.32 21 149 C18.83532539 149.62669199 16.64135476 150.15427374 14.4375 150.625 C13.23996094 150.88539063 12.04242188 151.14578125 10.80859375 151.4140625 C9.88175781 151.60742188 8.95492187 151.80078125 8 152 C7.67 151.01 7.34 150.02 7 149 C6.34 149.33 5.68 149.66 5 150 C5 150.66 5 151.32 5 152 C1.43913342 153.18695553 -1.97331024 153.35095418 -5.6875 153.5625 C-6.38939453 153.60568359 -7.09128906 153.64886719 -7.81445312 153.69335938 C-9.54275206 153.7991736 -11.2713511 153.90006581 -13 154 C-13.33 153.34 -13.66 152.68 -14 152 C-14.66 152.185625 -15.32 152.37125 -16 152.5625 C-19.89330114 153.13027308 -23.11375479 152.59281707 -27 152 C-27 152.99 -27 153.98 -27 155 C-30.96 155 -34.92 155 -39 155 C-39 154.01 -39 153.02 -39 152 C-39.99 152 -40.98 152 -42 152 C-42 152.99 -42 153.98 -42 155 C-45.63 155 -49.26 155 -53 155 C-53.33 154.01 -53.66 153.02 -54 152 C-56.31 152 -58.62 152 -61 152 C-61 152.66 -61 153.32 -61 154 C-64.12492251 154.05791844 -67.24970766 154.09356746 -70.375 154.125 C-71.26445312 154.14175781 -72.15390625 154.15851563 -73.0703125 154.17578125 C-73.92109375 154.18222656 -74.771875 154.18867188 -75.6484375 154.1953125 C-76.43395996 154.20578613 -77.21948242 154.21625977 -78.02880859 154.22705078 C-80 154 -80 154 -82 152 C-82 152.99 -82 153.98 -82 155 C-86.62 155 -91.24 155 -96 155 C-96 154.01 -96 153.02 -96 152 C-97.98 152 -99.96 152 -102 152 C-102 152.99 -102 153.98 -102 155 C-108.6 155 -115.2 155 -122 155 C-122 154.01 -122 153.02 -122 152 C-122.99 152 -123.98 152 -125 152 C-125 152.99 -125 153.98 -125 155 C-131.6 155 -138.2 155 -145 155 C-145 154.01 -145 153.02 -145 152 C-147.97 152 -150.94 152 -154 152 C-154.33 152.99 -154.66 153.98 -155 155 C-158.81248345 155.02936502 -162.62493726 155.04692035 -166.4375 155.0625 C-167.50677734 155.07087891 -168.57605469 155.07925781 -169.67773438 155.08789062 C-175.87624228 155.10684631 -181.8549481 154.82063259 -188 154 C-187 152 -186 150 -185 148 C-188.89452476 147.63771863 -190.50576222 147.63199611 -193.70703125 150.015625 C-194.84205078 150.99789062 -194.84205078 150.99789062 -196 152 C-202.3165716 148.20106548 -208.16368697 144.62058001 -213 139 C-213 138.34 -213 137.68 -213 137 C-211.68 136.67 -210.36 136.34 -209 136 C-209.66 134.02 -210.32 132.04 -211 130 C-212.98 130.33 -214.96 130.66 -217 131 C-224 110.96183206 -224 110.96183206 -224 102 C-222.02 101.505 -222.02 101.505 -220 101 C-220 98.36 -220 95.72 -220 93 C-220.66 93 -221.32 93 -222 93 C-222.34019152 91.60582227 -222.67181779 90.20955342 -223 88.8125 C-223.185625 88.03519531 -223.37125 87.25789063 -223.5625 86.45703125 C-224 84 -224 84 -224 79 C-201.23 79 -178.46 79 -155 79 C-155 83.62 -155 88.24 -155 93 C-155.66 93 -156.32 93 -157 93 C-157 93.99 -157 94.98 -157 96 C-156.34 96 -155.68 96 -155 96 C-155 98.31 -155 100.62 -155 103 C-154.34 103.33 -153.68 103.66 -153 104 C-152.47385904 106.80158816 -152.16939588 109.60086306 -151.85546875 112.43359375 C-151.25797844 115.21295638 -151.25797844 115.21295638 -148.6328125 116.24609375 C-147.76398438 116.49488281 -146.89515625 116.74367188 -146 117 C-143.99248185 117.98482022 -141.99065541 118.98152514 -140 120 C-140 120.99 -140 121.98 -140 123 C-139.45859375 122.81566406 -138.9171875 122.63132812 -138.359375 122.44140625 C-135.4073675 121.8891267 -133.18584082 122.34334174 -130.25 122.9375 C-129.26515625 123.13214844 -128.2803125 123.32679688 -127.265625 123.52734375 C-126.14414062 123.76130859 -126.14414062 123.76130859 -125 124 C-125 124.66 -125 125.32 -125 126 C-120.65815798 125.81535634 -120.65815798 125.81535634 -117 124 C-115.21928754 123.91273777 -113.4351686 123.89300959 -111.65234375 123.90234375 C-110.57275391 123.90556641 -109.49316406 123.90878906 -108.38085938 123.91210938 C-106.67639648 123.92467773 -106.67639648 123.92467773 -104.9375 123.9375 C-103.22723633 123.94426758 -103.22723633 123.94426758 -101.48242188 123.95117188 C-98.65489649 123.96300253 -95.8274736 123.9794859 -93 124 C-93 124.66 -93 125.32 -93 126 C-92.01 126 -91.02 126 -90 126 C-90 125.34 -90 124.68 -90 124 C-82.41 124 -74.82 124 -67 124 C-67 124.66 -67 125.32 -67 126 C-64.69 126 -62.38 126 -60 126 C-60 125.34 -60 124.68 -60 124 C-54.06 124 -48.12 124 -42 124 C-42 124.66 -42 125.32 -42 126 C-40.68 126 -39.36 126 -38 126 C-37.67 124.68 -37.34 123.36 -37 122 C-31.39 122 -25.78 122 -20 122 C-20 122.66 -20 123.32 -20 124 C-17.525 123.01 -17.525 123.01 -15 122 C-15 121.34 -15 120.68 -15 120 C-14.34773437 119.68546875 -13.69546875 119.3709375 -13.0234375 119.046875 C-8.10344145 116.6376734 -3.4667826 114.17376659 1 111 C1.33 111.99 1.66 112.98 2 114 C3.32 113.67 4.64 113.34 6 113 C5.34 111.02 4.68 109.04 4 107 C4.928125 106.29875 5.85625 105.5975 6.8125 104.875 C9.90095295 102.32684378 11.44426187 99.71648553 13 96 C14.32 96.66 15.64 97.32 17 98 C17.99 96.02 17.99 96.02 19 94 C17.68 93.34 16.36 92.68 15 92 C17.75 86.125 17.75 86.125 20 85 C20.65323886 82.71760106 20.65323886 82.71760106 21.0625 80.0625 C21.91390728 75.17218543 21.91390728 75.17218543 23 73 C23.66 73 24.32 73 25 73 C24.54947266 72.14414307 24.54947266 72.14414307 24.08984375 71.27099609 C23.04117018 69.08578965 22.27867219 66.97695476 21.5625 64.6640625 C21.30726563 63.84679687 21.05203125 63.02953125 20.7890625 62.1875 C20.52867187 61.341875 20.26828125 60.49625 20 59.625 C19.47958316 57.95039134 18.95875889 56.27590924 18.4375 54.6015625 C18.19257813 53.81297852 17.94765625 53.02439453 17.6953125 52.21191406 C16.831164 49.46290232 15.92456225 46.72923665 15 44 C14.34 44 13.68 44 13 44 C13 43.34 13 42.68 13 42 C7.39 42 1.78 42 -4 42 C-4.33 41.34 -4.66 40.68 -5 40 C-5.99 40 -6.98 40 -8 40 C-8.2475 40.78375 -8.495 41.5675 -8.75 42.375 C-10.22216206 45.46654032 -10.95081479 45.69320634 -14 47 C-16.69834943 48.48909694 -16.69834943 48.48909694 -19 51 C-19.68953821 53.89780617 -20.09799329 56.32443858 -20.3125 59.25 C-20.38533203 59.99507813 -20.45816406 60.74015625 -20.53320312 61.5078125 C-20.70905837 63.33670704 -20.85729163 65.16822091 -21 67 C-21.66 67 -22.32 67 -23 67 C-23 67.99 -23 68.98 -23 70 C-22.34 70 -21.68 70 -21 70 C-20.89042969 70.66386719 -20.78085937 71.32773437 -20.66796875 72.01171875 C-19.33250473 79.66826003 -19.33250473 79.66826003 -15 86 C-12.9733568 86.46225195 -12.9733568 86.46225195 -10.625 86.75 C-9.43777344 86.92789063 -9.43777344 86.92789063 -8.2265625 87.109375 C-5.90605892 87.2290884 -5.90605892 87.2290884 -4.3359375 85.515625 C-3.89507812 85.01546875 -3.45421875 84.5153125 -3 84 C-2.34 84 -1.68 84 -1 84 C-0.67 83.01 -0.34 82.02 0 81 C0.66 81 1.32 81 2 81 C2 80.01 2 79.02 2 78 C1.34 78 0.68 78 0 78 C0 75.36 0 72.72 0 70 C0.66 70 1.32 70 2 70 C1.01 65.545 1.01 65.545 0 61 C-1.32 60.67 -2.64 60.34 -4 60 C-3.67 60.66 -3.34 61.32 -3 62 C-2.95684187 64.67580435 -2.9546032 67.32663282 -3 70 C-3 72.01202592 -2.99866157 74.02582672 -2.89453125 76.03515625 C-2.67595225 81.43718022 -2.67595225 81.43718022 -4.1875 84.0625 C-6.73728665 85.38135516 -8.31746098 84.7975116 -11 84 C-11 83.34 -11 82.68 -11 82 C-11.598125 81.896875 -12.19625 81.79375 -12.8125 81.6875 C-15.3909338 80.87713509 -16.31366217 80.09500466 -18 78 C-18.4765625 75.80859375 -18.4765625 75.80859375 -18.625 73.4375 C-18.82872181 70.09224742 -18.82872181 70.09224742 -20 67 C-18.87586573 61.25325752 -17.07475312 54.37453059 -13 50 C-8.40289801 46.97619669 -4.54744147 45 1 45 C1 45.66 1 46.32 1 47 C1.86625 46.566875 2.7325 46.13375 3.625 45.6875 C7 45 7 45 10.1875 47 C13.81358598 50.19654963 15.78299081 53.91024054 16.28491211 58.74365234 C16.40482323 62.06351424 16.4087999 65.36572101 16.375 68.6875 C16.38660156 69.80833984 16.39820313 70.92917969 16.41015625 72.08398438 C16.35872692 86.85277388 12.2106686 95.9380224 2.296875 106.7265625 C-4.06365546 113.02218958 -11.66823567 115.05431209 -20.4375 115.25 C-25.52871525 115.16467237 -30.08288627 114.28973475 -35 113 C-35 112.34 -35 111.68 -35 111 C-35.886875 110.79375 -36.77375 110.5875 -37.6875 110.375 C-41.77879957 108.67672471 -43.35752182 106.49949813 -46 103 C-46.51046875 102.54496094 -47.0209375 102.08992188 -47.546875 101.62109375 C-49.41602413 99.53588706 -49.86009302 97.69724281 -50.5625 95 C-51.42023117 91.74352913 -52.09710142 89.85434787 -54 87 C-54.32727273 81.65454545 -54.32727273 81.65454545 -53 79 C-53.66 78.67 -54.32 78.34 -55 78 C-55 73.38 -55 68.76 -55 64 C-54.34 64 -53.68 64 -53 64 C-53.33 63.01 -53.66 62.02 -54 61 C-54 60.01 -54 59.02 -54 58 C-54.103125 57.05125 -54.20625 56.1025 -54.3125 55.125 C-54.3125 48.20174229 -50.96538089 40.02327826 -46.6875 34.625 C-43.24816263 31.26564722 -39.68313545 28.08908134 -36 25 C-36.30550781 23.83597656 -36.30550781 23.83597656 -36.6171875 22.6484375 C-36.74351562 21.77445312 -36.86984375 20.90046875 -37 20 C-35.38608543 17.95570822 -33.99365911 16.62157066 -32 15 C-31.37867188 14.45214844 -30.75734375 13.90429688 -30.1171875 13.33984375 C-23.45662396 7.74841126 -14.900281 2 -6 2 C-6 3.32 -6 4.64 -6 6 C-3.49034386 5.29660434 -3.49034386 5.29660434 -1 4 C-0.67 2.68 -0.34 1.36 0 0 Z " fill="#6B424B" transform="translate(431,322)"/>
<path d="M0 0 C0.73415131 -0.00067474 1.46830261 -0.00134949 2.22470093 -0.00204468 C14.47297323 0.01578784 26.28924324 0.75503547 38.3125 3.25 C39.05983398 3.40033691 39.80716797 3.55067383 40.57714844 3.70556641 C49.47402502 5.55763994 58.09557255 8.14090065 66.70703125 11.01953125 C67.45268845 11.26726288 68.19834564 11.51499451 68.96659851 11.77023315 C72.71553724 13.01794811 76.45528981 14.28577977 80.18432617 15.59179688 C89.42902349 18.75956816 99.14404551 21.82578678 108.5625 17.625 C112.09311576 15.5697559 115.2809226 13.05876141 118.51953125 10.578125 C123.72100462 6.72518176 129.03465485 6.53826756 135.3125 7.25 C142.94813867 9.04528409 148.09354253 12.62858063 152.3125 19.25 C156.01868156 26.83443583 156.26372931 33.82693961 153.8125 41.8125 C151.6333738 47.40818477 148.41089535 51.08341851 143.3125 54.25 C141.98029369 54.58780946 140.64717597 54.92208392 139.3125 55.25 C138.9825 55.91 138.6525 56.57 138.3125 57.25 C135.93679457 57.3316082 133.56394159 57.39077222 131.1875 57.4375 C130.52234375 57.46263672 129.8571875 57.48777344 129.171875 57.51367188 C123.61828636 57.5953423 119.67355193 56.41692099 115.5546875 52.63671875 C115.10351562 52.07597656 114.65234375 51.51523437 114.1875 50.9375 C113.68992187 50.32519531 113.19234375 49.71289062 112.6796875 49.08203125 C111.48501298 47.4811674 110.38926057 45.80743839 109.3125 44.125 C103.63536977 35.96412529 94.32638645 32.00877998 84.75 30.0625 C78.18789495 29.63219803 72.38133995 33.66784832 67.5390625 37.7421875 C64.23562989 41.27475994 63.23177612 44.48729087 63.3125 49.25 C66.28217271 59.24056561 73.18383621 67.44943179 80.1875 74.90234375 C82.3125 77.25 82.3125 77.25 83.625 79.19140625 C89.74170833 88.18538198 104.52188011 91.59110351 114.59375 93.71484375 C118.57910338 94.28836624 122.54046046 94.60887354 126.55419922 94.90576172 C145.1814843 96.29207881 145.1814843 96.29207881 151.93359375 102.81640625 C156.54825992 108.4507437 157.60997469 115.20027284 157.25 122.3125 C156.55432932 127.45406604 154.80349061 131.39388027 151.3125 135.25 C144.75271446 140.21299564 138.27597381 140.86257491 130.3125 140.25 C125.1821902 139.05886774 122.17403216 136.63920272 119.3125 132.25 C117.97996216 128.12986486 117.19298898 123.88178135 116.33398438 119.64257812 C114.82651501 112.86657945 112.92166441 108.65810142 106.953125 104.67578125 C104.41954784 103.49592914 101.88668317 102.3389295 99.3125 101.25 C98.54292969 100.91613281 97.77335938 100.58226563 96.98046875 100.23828125 C91.70959326 98.19824013 86.81697031 97.61586038 81.3125 99.25 C80.9825 99.91 80.6525 100.57 80.3125 101.25 C78.81101586 101.97879055 77.28551244 102.65844203 75.75 103.3125 C69.2791177 106.44117623 64.43126059 111.15095991 61.1171875 117.5625 C57.67841662 129.04732702 60.64572087 142.05747171 65.9375 152.4375 C78.9823783 167.88538219 95.28488957 179.36818678 115.49145508 182.24804688 C122.9354487 183.35589289 127.56048502 185.72886091 132.1875 191.625 C136.27335134 198.02203998 137.07095994 204.81709257 136.3125 212.25 C134.11937937 221.29462159 129.0086497 227.2692257 121.3125 232.25 C118.875 233.5625 118.875 233.5625 116.3125 234.25 C115.714375 234.44078125 115.11625 234.6315625 114.5 234.828125 C106.52437733 236.64609781 100.00992737 232.07029641 93.3125 228.25 C93.3125 227.59 93.3125 226.93 93.3125 226.25 C92.6525 226.25 91.9925 226.25 91.3125 226.25 C85.36626957 220.4159626 83.65979222 214.34279985 83.02392578 206.30810547 C82.51619853 200.5084568 80.82682001 195.79193899 78.3359375 190.5078125 C77.3125 188.25 77.3125 188.25 77.3125 186.25 C76.6525 185.92 75.9925 185.59 75.3125 185.25 C74.50698789 183.77906484 73.76706864 182.27186827 73.0625 180.75 C70.88144585 176.21861585 68.35468843 172.16089552 65.44921875 168.0625 C64.3125 166.25 64.3125 166.25 64.3125 164.25 C63.6525 164.25 62.9925 164.25 62.3125 164.25 C61.796875 163.280625 61.28125 162.31125 60.75 161.3125 C58.46403079 157.26872775 55.64158652 153.75462032 52.703125 150.16796875 C51.3125 148.25 51.3125 148.25 51.3125 146.25 C50.6525 146.25 49.9925 146.25 49.3125 146.25 C47.95098219 144.26907924 46.62298422 142.26504563 45.3125 140.25 C33.60391337 126.08062568 19.5702176 114.49634154 3.4609375 105.69140625 C2.46320313 105.11261719 1.46546875 104.53382812 0.4375 103.9375 C-0.98175781 103.13892578 -0.98175781 103.13892578 -2.4296875 102.32421875 C-5.58793278 99.4227858 -5.50157754 97.4873025 -5.6875 93.25 C-5.6840479 89.49972261 -5.57219833 85.75524289 -5.38476562 82.00976562 C-5.23848282 75.66542631 -6.73591736 70.39838745 -11.15942383 65.67993164 C-11.66368896 65.2080542 -12.1679541 64.73617676 -12.6875 64.25 C-17.57122093 59.59883721 -17.57122093 59.59883721 -18.6875 56.25 C-19.3475 56.25 -20.0075 56.25 -20.6875 56.25 C-22.35416667 54.58333333 -24.02083333 52.91666667 -25.6875 51.25 C-26.615625 50.693125 -27.54375 50.13625 -28.5 49.5625 C-29.221875 49.129375 -29.94375 48.69625 -30.6875 48.25 C-30.6875 47.59 -30.6875 46.93 -30.6875 46.25 C-31.41710937 45.97929688 -32.14671875 45.70859375 -32.8984375 45.4296875 C-35.59556807 44.28888437 -37.85668369 42.96019247 -40.3125 41.375 C-43.92762882 39.14450323 -47.34047648 37.57079312 -51.375 36.25 C-55.75546593 34.76747462 -58.30216469 33.06079619 -61.6015625 29.90625 C-64.4628237 27.63438718 -67.61617686 26.05127022 -70.875 24.4375 C-71.48190674 24.13545654 -72.08881348 23.83341309 -72.71411133 23.5222168 C-75.65831285 22.09833827 -78.46610136 20.86550297 -81.6875 20.25 C-81.6875 19.59 -81.6875 18.93 -81.6875 18.25 C-60.9509353 11.14839683 -60.9509353 11.14839683 -51.296875 8.92578125 C-48.54249641 8.21244668 -45.96617276 7.27388819 -43.3125 6.25 C-29.26921952 0.94566396 -14.8393719 0.01225073 0 0 Z " fill="#BDB0A7" transform="translate(333.6875,-0.25)"/>
<path d="M0 0 C0.73221771 -0.00100708 1.46443542 -0.00201416 2.21884155 -0.00305176 C17.02939932 0.01071176 31.18191994 0.94213851 45.19140625 6.1875 C49.44719403 7.7288772 53.78394074 8.97221847 58.125 10.25 C61.56308796 11.26886023 65.00034388 12.29050149 68.4375 13.3125 C69.30439453 13.56837891 70.17128906 13.82425781 71.06445312 14.08789062 C75.16659129 15.31067357 79.1873377 16.55315171 83.125 18.25 C80.06927704 21.5562398 76.45604693 23.16918142 72.4375 25.0625 C67.12745073 27.6246461 62.4524868 30.26164046 57.86328125 33.99609375 C54.08869605 36.71888442 49.7858758 38.25 45.125 38.25 C44.795 38.91 44.465 39.57 44.125 40.25 C42.41852645 41.24818243 40.68354476 42.19777412 38.9375 43.125 C27.70213374 49.56625289 17.29340609 58.38002401 10.125 69.25 C9.55136719 70.0853125 8.97773438 70.920625 8.38671875 71.78125 C6.80760151 76.12260017 7.19731839 79.49740843 7.47363281 84.05834961 C8.09678095 97.71232932 8.09678095 97.71232932 4.43554688 102.42431641 C-0.04332669 106.15773362 -5.21093971 108.59949673 -10.46777344 111.05419922 C-13.87968298 112.74908085 -16.78732003 114.87304741 -19.75 117.25 C-20.76449219 118.05695313 -21.77898437 118.86390625 -22.82421875 119.6953125 C-48.80112033 141.44805723 -78.10150724 176.58998343 -82.6875 211.3125 C-83.81694533 218.40796706 -86.49948559 223.48659472 -92.09375 228.06640625 C-98.73871966 232.66251026 -105.63476176 235.90361663 -113.875 235.25 C-122.54113611 232.14991879 -128.15067768 226.94710744 -132.6875 219.125 C-136.37259311 210.20319562 -135.14286122 202.06423117 -131.875 193.25 C-129.83197162 188.38264402 -126.53268702 186.47562884 -121.875 184.25 C-118.90818993 183.37313984 -115.93009787 182.90144106 -112.875 182.4375 C-103.21139479 180.70390894 -95.34674553 177.10381185 -86.875 172.25 C-85.50988281 171.47849609 -85.50988281 171.47849609 -84.1171875 170.69140625 C-82.03656791 169.35386508 -80.55913285 168.04054784 -78.875 166.25 C-77.6303566 165.18123012 -76.3799406 164.11915999 -75.125 163.0625 C-71.00774386 159.47896225 -67.11739117 155.6576255 -63.875 151.25 C-63.875 150.59 -63.875 149.93 -63.875 149.25 C-63.215 149.25 -62.555 149.25 -61.875 149.25 C-61.26112606 146.35602285 -60.77285222 143.4966601 -60.375 140.5625 C-59.875 137.25 -59.875 137.25 -58.875 135.25 C-58.64327173 132.70384991 -58.45605471 130.17603775 -58.3125 127.625 C-58.24772461 126.56539062 -58.24772461 126.56539062 -58.18164062 125.484375 C-58.07555249 123.73981463 -57.97477111 121.99493303 -57.875 120.25 C-58.535 119.92 -59.195 119.59 -59.875 119.25 C-60.60575648 116.9359378 -61.27638258 114.60171131 -61.875 112.25 C-62.535 112.25 -63.195 112.25 -63.875 112.25 C-63.875 111.59 -63.875 110.93 -63.875 110.25 C-64.535 110.25 -65.195 110.25 -65.875 110.25 C-67.5 108.875 -67.5 108.875 -68.875 107.25 C-68.875 106.59 -68.875 105.93 -68.875 105.25 C-69.761875 104.981875 -70.64875 104.71375 -71.5625 104.4375 C-74.875 103.25 -74.875 103.25 -77.1875 101.75 C-82.23971942 98.9301566 -86.31730377 97.59570562 -92.06640625 99.06640625 C-104.48598145 103.51078076 -104.48598145 103.51078076 -113.078125 112.9609375 C-114.53590061 117.1484694 -115.29116537 121.48993576 -116.06640625 125.84765625 C-117.14375179 130.38083483 -118.76908249 133.96570869 -121.8125 137.5 C-127.60163629 140.80807788 -133.54678101 141.94856466 -140.11328125 140.5703125 C-146.14321873 138.39262649 -150.74710441 135.71286189 -153.94140625 130.03515625 C-156.49948892 122.40372134 -156.09832755 113.98474789 -152.875 106.625 C-149.58995077 100.98410117 -144.94160152 98.27220051 -138.875 96.25 C-137.39922526 96.09388151 -135.91888744 95.97880282 -134.4375 95.890625 C-116.32168271 94.6448948 -94.22748437 92.69846933 -81.1875 78.5625 C-79.73205435 76.80638642 -78.29516408 75.03476635 -76.875 73.25 C-76.04355469 72.26515625 -75.21210937 71.2803125 -74.35546875 70.265625 C-69.85907753 65.20082513 -69.85907753 65.20082513 -66.875 59.25 C-66.215 59.25 -65.555 59.25 -64.875 59.25 C-64.545 57.27 -64.215 55.29 -63.875 53.25 C-63.215 53.25 -62.555 53.25 -61.875 53.25 C-61.79845464 48.73382401 -61.77271304 44.65914783 -62.875 40.25 C-63.535 40.25 -64.195 40.25 -64.875 40.25 C-64.875 39.59 -64.875 38.93 -64.875 38.25 C-65.535 38.25 -66.195 38.25 -66.875 38.25 C-67.49375 37.610625 -68.1125 36.97125 -68.75 36.3125 C-70.91020783 34.21582769 -71.96276721 33.66603326 -74.875 33.25 C-74.875 32.59 -74.875 31.93 -74.875 31.25 C-82.85726726 29.65354655 -88.43230025 31.10548488 -95.875 34.25 C-96.59816406 34.54390625 -97.32132813 34.8378125 -98.06640625 35.140625 C-103.15232791 37.72982148 -105.66159215 41.63340571 -108.75 46.25 C-112.21242988 51.3467706 -115.18823726 55.3731266 -121.1015625 57.7421875 C-128.28953625 59.05829537 -135.99829969 57.69204309 -142.375 54.125 C-146.33103015 51.26028851 -149.51464523 47.52367266 -151.875 43.25 C-151.875 42.26 -151.875 41.27 -151.875 40.25 C-152.535 39.92 -153.195 39.59 -153.875 39.25 C-154.39438425 30.20886682 -153.55656373 22.19055286 -147.8125 14.875 C-142.60853595 9.47424739 -136.29643857 7.14187379 -128.875 6.6875 C-120.38373844 7.06132913 -114.0733503 11.91653579 -107.875 17.25 C-96.50037283 22.63425013 -84.95786148 17.77079203 -73.87207031 13.97814941 C-57.74376658 8.47713057 -41.78546872 3.68823738 -24.875 1.25 C-24.18647949 1.14526367 -23.49795898 1.04052734 -22.78857422 0.93261719 C-15.23535593 -0.07211173 -7.6065664 0.00725217 0 0 Z " fill="#BDB0A7" transform="translate(154.875,-0.24999999999999997)"/>
<path d="M0 0 C6.59532047 4.83991198 10.1744864 11.31285565 11.58203125 19.3046875 C13.07726595 32.52423912 12.9265342 45.68518074 4.8125 56.875 C-3.19485232 66.11815933 -13.01557343 71.45109943 -25 74 C-26.51395696 74.07818636 -28.03093507 74.10789909 -29.546875 74.09765625 C-30.39121094 74.09443359 -31.23554688 74.09121094 -32.10546875 74.08789062 C-33.41451172 74.07532227 -33.41451172 74.07532227 -34.75 74.0625 C-35.63816406 74.05798828 -36.52632813 74.05347656 -37.44140625 74.04882812 C-39.62767329 74.037074 -41.81380179 74.02064249 -44 74 C-43.94779297 75.27230469 -43.94779297 75.27230469 -43.89453125 76.5703125 C-43.63531549 87.80299523 -43.80922789 101.32870259 -52 110 C-54.28189557 111.68061855 -56.41133176 112.77893008 -59 114 C-59.99 114.495 -59.99 114.495 -61 115 C-73.64594274 115.9844147 -73.64594274 115.9844147 -79 112 C-86.15245575 105.40487846 -88.7217692 98.48884848 -90 89 C-90.06656312 86.36410042 -90.09567411 83.75851404 -90.0625 81.125 C-90.05798828 80.43664062 -90.05347656 79.74828125 -90.04882812 79.0390625 C-90.03716336 77.35933665 -90.01923271 75.67965625 -90 74 C-91.22074219 74.04640625 -92.44148438 74.0928125 -93.69921875 74.140625 C-109.62199786 74.56724388 -122.77861775 72.13729626 -135.0625 61.15625 C-144.90798787 50.80151276 -146.59593514 38.30255566 -146.33984375 24.6328125 C-145.89039008 15.55049155 -142.62830471 7.58680872 -135.94140625 1.3671875 C-128.84864784 -3.62771279 -122.46007654 -3.97113461 -114 -3 C-103.11599341 0.22047318 -96.24227393 8.57288687 -90.86987305 18.1706543 C-82.40648058 34.25467281 -79 51.96364779 -79 70 C-71.08 70 -63.16 70 -55 70 C-55 66.04 -55 62.08 -55 58 C-54.55679074 54.67332345 -54.06783457 51.5158398 -53.375 48.25 C-53.1982373 47.39873535 -53.02147461 46.5474707 -52.83935547 45.67041016 C-49.1034243 28.63774352 -42.10710631 10.00406557 -26.875 0.0625 C-17.48430855 -5.24607801 -9.43705723 -5.12817579 0 0 Z " fill="#BF533F" transform="translate(312,245)"/>
<path d="M0 0 C3.48409771 1.36334258 5.77714248 3.58824616 8.41333008 6.18847656 C21.4098888 18.99410025 36.78413691 27.87154204 53 36 C52.12789875 38.93343147 51.32586894 40.69970226 49.05859375 42.7890625 C44.42439147 44.62380414 40.00173702 44.44424722 35.0625 44.375 C34.03358643 44.36484863 33.00467285 44.35469727 31.94458008 44.34423828 C20.08122069 44.10385921 8.44295739 42.93781808 -1 35 C-3.18543674 32.50457223 -4.65956615 30.0260438 -6 27 C-6.29003906 26.38382812 -6.58007812 25.76765625 -6.87890625 25.1328125 C-9.20908046 18.71484695 -6.57441593 12.99330588 -4 7 C-2.77518803 4.55448617 -1.4706654 2.31104563 0 0 Z " fill="#BCAFA7" transform="translate(125,356)"/>
<path d="M0 0 C0.66 0 1.32 0 2 0 C2.98414433 1.91411557 3.96213349 3.8313967 4.9375 5.75 C5.48277344 6.81734375 6.02804687 7.8846875 6.58984375 8.984375 C9.62113519 15.46680435 9.82800141 21.24258397 7.5 28.0625 C4.70262444 34.48574215 0.56059608 37.40898652 -5.71875 40.21484375 C-14.61155027 43.64736693 -23.11246451 44.22215549 -32.5625 44.3125 C-33.57763672 44.34150391 -34.59277344 44.37050781 -35.63867188 44.40039062 C-41.69329827 44.45180156 -45.51383135 44.26223344 -50 40 C-50.64672852 37.8605957 -50.64672852 37.8605957 -51 36 C-49.82566406 35.41734375 -48.65132813 34.8346875 -47.44140625 34.234375 C-29.17037199 25.13099401 -29.17037199 25.13099401 -13.41601562 12.33959961 C-12 11 -12 11 -10 11 C-10 10.34 -10 9.68 -10 9 C-8.3203125 7.34375 -8.3203125 7.34375 -6.125 5.5 C-4.00964496 3.71066742 -1.95980876 1.95980876 0 0 Z " fill="#BCAFA7" transform="translate(365,356)"/>
<path d="M0 0 C1.30469238 -0.0009668 1.30469238 -0.0009668 2.63574219 -0.00195312 C9.68690506 0.0553946 16.39284385 0.77326371 23.3125 2.1875 C20.43845283 4.43617579 17.48859491 6.27110501 14.3125 8.0625 C9.15593711 11.15339999 6.12671242 13.54130964 4.3125 19.4375 C4.3125 30.94476213 13.89697106 40.92646872 21.25390625 48.87890625 C23.60459424 51.51506678 25.48757661 54.17240918 27.3125 57.1875 C23.43742164 55.81247219 20.47261793 54.02388686 17.1875 51.5625 C16.21941406 50.84707031 15.25132812 50.13164063 14.25390625 49.39453125 C12.40126421 48.00443463 10.55408463 46.60699861 8.71484375 45.19921875 C3.4280929 41.22020114 -1.95226058 37.84646405 -7.75 34.6875 C-26.18699006 24.58206908 -26.18699006 24.58206908 -28.6875 16.1875 C-29.1875 12.625 -29.1875 12.625 -28.6875 9.1875 C-24.80256296 4.15993442 -20.34175204 1.6058332 -14.09375 0.62109375 C-9.39539309 0.08896089 -4.72496167 -0.00364721 0 0 Z " fill="#9F958C" transform="translate(392.6875,25.8125)"/>
<path d="M0 0 C0.77205276 -0.0066568 1.54410553 -0.0133136 2.33955383 -0.02017212 C3.97268296 -0.03028323 5.60585328 -0.03498962 7.23901367 -0.03466797 C9.71278951 -0.03901768 12.18474551 -0.07528499 14.65820312 -0.11328125 C23.84021575 -0.17834876 31.77013696 -0.14460917 39.11328125 6.0859375 C40.54855923 9.53060465 40.65597711 12.71179948 40.05078125 16.3359375 C35.69581065 25.61391834 24.98797384 30.70941996 16.42578125 35.5234375 C8.01706234 40.35489625 0.43235906 45.60309658 -6.953125 51.875 C-9.54809684 54.00646318 -11.9425192 55.84579818 -14.94921875 57.3359375 C-15.60921875 57.0059375 -16.26921875 56.6759375 -16.94921875 56.3359375 C-16.40394531 55.74167969 -15.85867187 55.14742187 -15.296875 54.53515625 C-5.07812108 44.40566363 -5.07812108 44.40566363 2.05078125 32.3359375 C2.71078125 32.3359375 3.37078125 32.3359375 4.05078125 32.3359375 C4.38078125 30.3559375 4.71078125 28.3759375 5.05078125 26.3359375 C5.71078125 26.3359375 6.37078125 26.3359375 7.05078125 26.3359375 C7.12732661 21.81976151 7.15306821 17.74508533 6.05078125 13.3359375 C5.39078125 13.3359375 4.73078125 13.3359375 4.05078125 13.3359375 C4.05078125 12.6759375 4.05078125 12.0159375 4.05078125 11.3359375 C3.39078125 11.3359375 2.73078125 11.3359375 2.05078125 11.3359375 C1.43203125 10.6965625 0.81328125 10.0571875 0.17578125 9.3984375 C-1.98442658 7.30176519 -3.03698596 6.75197076 -5.94921875 6.3359375 C-5.94921875 5.6759375 -5.94921875 5.0159375 -5.94921875 4.3359375 C-7.92921875 3.6759375 -9.90921875 3.0159375 -11.94921875 2.3359375 C-8.17616589 -0.12141867 -4.34951343 0.01310693 0 0 Z " fill="#9F958C" transform="translate(85.94921875,26.6640625)"/>
<path d="M0 0 C0.92748047 0.00064453 1.85496094 0.00128906 2.81054688 0.00195312 C6.7853346 0.02774483 10.34597375 0.08670535 14.1875 1.1875 C14.98904342 18.93278074 9.75785807 29.57433459 0.1875 44.1875 C-0.99438372 46.01113958 -2.17533325 47.83538486 -3.35546875 49.66015625 C-6.49598889 54.51035904 -9.64983535 59.35171262 -12.8125 64.1875 C-13.1425 62.8675 -13.4725 61.5475 -13.8125 60.1875 C-13.1525 60.1875 -12.4925 60.1875 -11.8125 60.1875 C-11.19862606 57.29352285 -10.71035222 54.4341601 -10.3125 51.5 C-9.8125 48.1875 -9.8125 48.1875 -8.8125 46.1875 C-8.58077173 43.64134991 -8.39355471 41.11353775 -8.25 38.5625 C-8.20681641 37.85609375 -8.16363281 37.1496875 -8.11914062 36.421875 C-8.01305249 34.67731463 -7.91227111 32.93243303 -7.8125 31.1875 C-8.4725 30.8575 -9.1325 30.5275 -9.8125 30.1875 C-10.54325648 27.8734378 -11.21388258 25.53921131 -11.8125 23.1875 C-12.4725 23.1875 -13.1325 23.1875 -13.8125 23.1875 C-13.8125 22.5275 -13.8125 21.8675 -13.8125 21.1875 C-14.4725 21.1875 -15.1325 21.1875 -15.8125 21.1875 C-17.4375 19.8125 -17.4375 19.8125 -18.8125 18.1875 C-18.8125 17.5275 -18.8125 16.8675 -18.8125 16.1875 C-19.699375 15.919375 -20.58625 15.65125 -21.5 15.375 C-24.60308497 14.26257331 -27.00152071 12.87408758 -29.8125 11.1875 C-31.79701771 10.47606912 -33.79452112 9.79758664 -35.8125 9.1875 C-35.4825 8.1975 -35.1525 7.2075 -34.8125 6.1875 C-32.45109595 5.34112941 -30.2413224 4.69579675 -27.8125 4.125 C-26.53375 3.80402344 -25.255 3.48304687 -23.9375 3.15234375 C-23.26614014 2.99596436 -22.59478027 2.83958496 -21.90307617 2.6784668 C-20.49243803 2.34718182 -19.08621748 1.99657478 -17.68481445 1.62817383 C-11.74014042 0.13952755 -6.1107394 -0.08240174 0 0 Z " fill="#9E948C" transform="translate(104.8125,88.8125)"/>
<path d="M0 0 C0.99 0.66 1.98 1.32 3 2 C1.865625 2.28875 0.73125 2.5775 -0.4375 2.875 C-1.613125 3.24625 -2.78875 3.6175 -4 4 C-4.33 4.66 -4.66 5.32 -5 6 C-6.50148414 6.72879055 -8.02698756 7.40844203 -9.5625 8.0625 C-16.0333823 11.19117623 -20.88123941 15.90095991 -24.1953125 22.3125 C-27.08207241 31.95371755 -25.16568777 42.32813353 -21.77734375 51.5234375 C-21 54 -21 54 -22 56 C-25.36443901 51.02033252 -28.69176714 46.01717022 -32 41 C-32.52368164 40.20867676 -33.04736328 39.41735352 -33.58691406 38.60205078 C-43.15643995 24.07345364 -48.85679308 13.63565764 -48 -4 C-34.80603066 -11.39440202 -13.14729086 -4.82683437 0 0 Z " fill="#9F958C" transform="translate(419,95)"/>
<path d="M0 0 C4.0964614 3.55026655 7.23261867 7.25362328 8.2265625 12.7109375 C8.47150035 19.23519103 6.68089062 24.22493217 2.4375 29.25 C-2.16468486 33.08515405 -6.08807328 33.9006294 -11.9765625 33.75390625 C-16.65056408 33.08501203 -19.3914475 30.32200278 -22.4375 26.9375 C-25.84318217 22.07223976 -26.91010562 18.46674067 -26.1875 12.4375 C-24.04201245 5.77519655 -20.95107758 2.0017892 -14.875 -1.4375 C-9.16921967 -3.17824654 -5.32230847 -2.60897474 0 0 Z " fill="#BF543F" transform="translate(56.1875,192.5625)"/>
<path d="M0 0 C4.04017675 2.85768599 6.61745389 6.2933716 8.5625 10.8125 C9.60982304 17.19565832 8.61498162 22.43005024 5.171875 27.89453125 C1.91194661 31.779543 -1.7630279 33.37519389 -6.70703125 34.18359375 C-11.36900338 34.44568077 -14.99856599 33.7074248 -18.93359375 31.16015625 C-21.60403654 28.76716206 -22.88861214 26.02942093 -24.4375 22.8125 C-24.7675 22.1525 -25.0975 21.4925 -25.4375 20.8125 C-26.26192757 14.47618522 -25.70737219 9.72379684 -21.90625 4.5078125 C-15.93385492 -2.38585629 -8.32515491 -2.87596261 0 0 Z " fill="#BF543F" transform="translate(451.4375,192.1875)"/>
<path d="M0 0 C4.145697 -0.0879568 8.29115012 -0.14071153 12.4375 -0.1875 C13.60216797 -0.21263672 14.76683594 -0.23777344 15.96679688 -0.26367188 C22.16555473 -0.31605574 27.2600527 0.02774695 33.04907227 2.28491211 C36.87035641 3.68555549 40.95934139 3.80051767 44.984375 4.1796875 C49.20021197 5.32648253 50.6208318 6.28058205 53 10 C53.31593295 14.3323555 52.82600005 18.50922497 52.3125 22.8125 C52.19455078 23.98232422 52.07660156 25.15214844 51.95507812 26.35742188 C51.66076311 29.24170899 51.34167268 32.12100319 51 35 C50.34 35 49.68 35 49 35 C48.649375 33.845 48.29875 32.69 47.9375 31.5 C45.96898165 26.19067888 42.17543831 20.58771916 37 18 C36.67 24.27 36.34 30.54 36 37 C35.34 37 34.68 37 34 37 C33.62488281 36.20335937 33.24976563 35.40671875 32.86328125 34.5859375 C28.37604792 24.4938209 28.37604792 24.4938209 20.1875 17.625 C19.1046875 17.315625 19.1046875 17.315625 18 17 C18 16.34 18 15.68 18 15 C17.40832031 14.90203125 16.81664062 14.8040625 16.20703125 14.703125 C11.20290585 13.75617794 7.56361206 12.88757679 4 9 C2.8125 5.8125 2.8125 5.8125 2 3 C1.34 2.67 0.68 2.34 0 2 C0 1.34 0 0.68 0 0 Z " fill="#6D434D" transform="translate(325,401)"/>
<path d="M0 0 C1.10859375 0.00644531 2.2171875 0.01289063 3.359375 0.01953125 C4.50148437 0.03628906 5.64359375 0.05304688 6.8203125 0.0703125 C8.56828125 0.08384766 8.56828125 0.08384766 10.3515625 0.09765625 C13.21635827 0.12113818 16.08072785 0.15398109 18.9453125 0.1953125 C17.91738459 6.01043036 15.53540923 9.44362827 10.9453125 13.1953125 C8.51370281 14.08273276 6.33113262 14.53936774 3.765625 14.84375 C3.16492188 14.95976562 2.56421875 15.07578125 1.9453125 15.1953125 C1.6153125 15.8553125 1.2853125 16.5153125 0.9453125 17.1953125 C0.0790625 17.6696875 -0.7871875 18.1440625 -1.6796875 18.6328125 C-7.8835245 22.58888247 -11.5709873 30.48688696 -14.0546875 37.1953125 C-14.7146875 37.1953125 -15.3746875 37.1953125 -16.0546875 37.1953125 C-16.3846875 31.2553125 -16.7146875 25.3153125 -17.0546875 19.1953125 C-23.67978779 22.50786264 -27.05706011 28.5339183 -30.0546875 35.1953125 C-30.3846875 35.1953125 -30.7146875 35.1953125 -31.0546875 35.1953125 C-31.11527344 34.18210937 -31.17585938 33.16890625 -31.23828125 32.125 C-31.32275454 30.77342736 -31.40739907 29.42186541 -31.4921875 28.0703125 C-31.53150391 27.40515625 -31.57082031 26.74 -31.61132812 26.0546875 C-31.80780959 22.97143985 -32.09259453 19.97851546 -32.625 16.93359375 C-33.22363434 13.11866037 -32.58533441 10.72245538 -31.0546875 7.1953125 C-26.52138756 3.64218552 -20.83537987 3.41789905 -15.2734375 2.72265625 C-12.0722077 2.29929087 -12.0722077 2.29929087 -9.23193359 1.17456055 C-5.95456054 0.16445272 -3.41572313 -0.03521364 0 0 Z " fill="#6D434D" transform="translate(147.0546875,400.8046875)"/>
<path d="M0 0 C3.96580374 3.65435318 6.60380109 7.28588268 9.1875 12 C9.70086914 12.90492188 9.70086914 12.90492188 10.22460938 13.828125 C15.96493558 24.08268831 15.96493558 24.08268831 15 29 C13.08144505 30.86975228 11.35702719 32.29471005 9.1875 33.8125 C8.60379639 34.23974365 8.02009277 34.6669873 7.41870117 35.10717773 C6.2135703 35.98665053 5.00329027 36.8591088 3.78808594 37.72460938 C2.09827055 38.92990642 0.42555355 40.15503206 -1.2421875 41.390625 C-8.53142458 46.76571229 -8.53142458 46.76571229 -11 48 C-11.17128418 47.45061768 -11.34256836 46.90123535 -11.51904297 46.33520508 C-12.30231417 43.82699195 -13.08862912 41.31974297 -13.875 38.8125 C-14.14441406 37.94818359 -14.41382813 37.08386719 -14.69140625 36.19335938 C-15.9891717 32.06266689 -17.29938308 27.98736879 -19 24 C-18.55011719 23.52433594 -18.10023438 23.04867188 -17.63671875 22.55859375 C-11.13560042 15.48423051 -5.58808615 7.79661285 0 0 Z " fill="#312722" transform="translate(465,343)"/>
<path d="M0 0 C0 0.66 0 1.32 0 2 C1.299375 1.3503125 1.299375 1.3503125 2.625 0.6875 C6 0 6 0 9.1875 2 C12.9600168 5.72300871 14.88370653 8.83435711 15.17578125 14.2734375 C15.18633233 17.51613725 15.09922037 20.75880141 15 24 C10.38 24.33 5.76 24.66 1 25 C0.34 22.03 -0.32 19.06 -1 16 C-2.32 15.67 -3.64 15.34 -5 15 C-4.67 15.66 -4.34 16.32 -4 17 C-3.95684187 19.67580435 -3.9546032 22.32663282 -4 25 C-4 27.01202592 -3.99866157 29.02582672 -3.89453125 31.03515625 C-3.67595225 36.43718022 -3.67595225 36.43718022 -5.1875 39.0625 C-7.73728665 40.38135516 -9.31746098 39.7975116 -12 39 C-12 38.34 -12 37.68 -12 37 C-12.598125 36.896875 -13.19625 36.79375 -13.8125 36.6875 C-16.3909338 35.87713509 -17.31366217 35.09500466 -19 33 C-19.4765625 30.80859375 -19.4765625 30.80859375 -19.625 28.4375 C-19.82872181 25.09224742 -19.82872181 25.09224742 -21 22 C-19.87586573 16.25325752 -18.07475312 9.37453059 -14 5 C-9.40289801 1.97619669 -5.54744147 0 0 0 Z " fill="#6B434C" transform="translate(432,367)"/>
<path d="M0 0 C9.57 0 19.14 0 29 0 C29.33 0.99 29.66 1.98 30 3 C29.34 3 28.68 3 28 3 C27.99597168 3.61093506 27.99194336 4.22187012 27.98779297 4.85131836 C27.64133331 12.17957136 25.33857881 16.66645003 21.125 22.5625 C20.58230469 23.36751953 20.03960937 24.17253906 19.48046875 25.00195312 C15.44167314 30.85277562 15.44167314 30.85277562 12 32 C10.33333333 31.33333333 8.66666667 30.66666667 7 30 C4.33597161 29.54444124 1.69171836 29.27373407 -1 29 C-1.16850035 19.28314621 -0.62533962 9.6927641 0 0 Z " fill="#302722" transform="translate(431,322)"/>
<path d="M0 0 C0 0.66 0 1.32 0 2 C0.59296875 2.26425781 1.1859375 2.52851563 1.796875 2.80078125 C4.08029054 4.04370425 5.47426723 5.30401646 7.25 7.1875 C11.80717996 11.88218108 16.54692744 16.36461829 22 20 C21.67 24.95 21.34 29.9 21 35 C4.5 30.5 4.5 30.5 -12 26 C-12.37772033 17.46352051 -9.70949506 8.93374383 -4.3125 2.1875 C-2 0 -2 0 0 0 Z " fill="#312823" transform="translate(389,354)"/>
<path d="M0 0 C12.54 0 25.08 0 38 0 C36.5773208 3.556698 35.29835094 6.37177114 33.35546875 9.58203125 C32.84306641 10.43216797 32.33066406 11.28230469 31.80273438 12.15820312 C31.26970703 13.03412109 30.73667969 13.91003906 30.1875 14.8125 C29.66607422 15.67681641 29.14464844 16.54113281 28.60742188 17.43164062 C27.57529993 19.13895844 26.53876694 20.84361845 25.49755859 22.54541016 C24.5103784 24.16345869 23.53384495 25.78805809 22.56884766 27.41943359 C21.91021729 28.51698975 21.91021729 28.51698975 21.23828125 29.63671875 C20.85325439 30.28729248 20.46822754 30.93786621 20.0715332 31.6081543 C19.71792725 32.06746338 19.36432129 32.52677246 19 33 C18.34 33 17.68 33 17 33 C16.62713867 32.30962646 16.25427734 31.61925293 15.87011719 30.90795898 C14.16427641 27.75067112 12.45714901 24.59408067 10.75 21.4375 C10.16347656 20.35146484 9.57695312 19.26542969 8.97265625 18.14648438 C5.35423214 11.45278851 5.35423214 11.45278851 1.578125 4.84765625 C0 2 0 2 0 0 Z " fill="#9F958C" transform="translate(227,100)"/>
<path d="M0 0 C7.20508086 3.16320623 12.24625015 10.18080663 17.2578125 16.046875 C19.59950521 18.67209104 22.13385986 21.06891209 24.71484375 23.45703125 C26 25 26 25 26 28 C19.875 30.1875 19.875 30.1875 17.98510742 30.86010742 C14.67078883 32.0406804 11.3608689 33.23142291 8.05859375 34.4453125 C6.82238281 34.89648438 5.58617188 35.34765625 4.3125 35.8125 C3.17425781 36.23144531 2.03601563 36.65039062 0.86328125 37.08203125 C-2 38 -2 38 -5 38 C-4.22732124 8.45464248 -4.22732124 8.45464248 0 0 Z " fill="#9F958C" transform="translate(101,199)"/>
<path d="M0 0 C2.3078741 5.79978796 2.89092 11.72520737 3.625 17.875 C3.7590625 18.92558594 3.893125 19.97617188 4.03125 21.05859375 C4.72964622 26.75266091 5.15203198 32.26424806 5 38 C0.75734394 37.39983288 -3.03361377 36.40522383 -7.0546875 34.93359375 C-8.16328125 34.53076172 -9.271875 34.12792969 -10.4140625 33.71289062 C-11.55617188 33.29201172 -12.69828125 32.87113281 -13.875 32.4375 C-15.0403125 32.01275391 -16.205625 31.58800781 -17.40625 31.15039062 C-20.27256331 30.1048911 -23.13703486 29.05462612 -26 28 C-25.14839308 23.62725917 -23.10116687 21.8267259 -19.875 18.75 C-18.86784286 17.77544749 -17.86263681 16.79887463 -16.859375 15.8203125 C-16.36888672 15.34239258 -15.87839844 14.86447266 -15.37304688 14.37207031 C-12.94228001 11.9430323 -10.73222241 9.33269806 -8.49609375 6.7265625 C-2.66742081 0 -2.66742081 0 0 0 Z " fill="#9F958C" transform="translate(391,201)"/>
<path d="M0 0 C4.15235536 1.7151033 6.79673658 4.08308726 9 8 C9.80199874 13.3061533 9.64544218 17.60981685 7.375 22.5 C3.75375204 26.31183995 0.77284522 27.77436515 -4.4375 28.4375 C-9.42992833 27.82439477 -13.04226343 26.32625168 -16.328125 22.421875 C-18.95474828 18.31546396 -19.71439663 14.91147681 -19 10 C-14.45816032 1.42096949 -9.45751547 -1.27972982 0 0 Z " fill="#BF5540" transform="translate(473,106)"/>
<path d="M0 0 C4.69241302 2.0733918 7.71319554 5.42639108 10 10 C10.59106487 15.68331608 10.27243416 20.14777003 7 25 C3.59132439 28.07612189 1.34769509 29.87041393 -3.25 30.3125 C-7.71151398 29.94070717 -9.59734648 28.86132228 -13 26 C-16.9138993 20.58933635 -16.78786547 15.46049685 -16 9 C-12.57876392 1.7773905 -7.92081897 -0.84865918 0 0 Z " fill="#BF5440" transform="translate(467,19)"/>
<path d="M0 0 C4.72403852 1.9512333 7.72471109 5.44942218 10 10 C10.66362382 15.53019848 9.56089195 18.8064038 6.484375 23.265625 C3.36157588 26.91436924 0.20746791 27.84632227 -4.4375 28.4375 C-9.75880856 27.78400597 -13.20163846 25.91438487 -16.9375 21.9375 C-18.61665143 17.29514016 -18.77785918 12.86697213 -18 8 C-14.0258647 0.29535455 -7.92344205 -0.81266072 0 0 Z " fill="#BF5440" transform="translate(26,106)"/>
<path d="M0 0 C4.36339712 2.22286269 7.23431511 4.38960056 9 9 C9.68629371 15.23383454 9.70900579 20.7014203 6 26 C3.16942327 29.04024908 0.13081609 29.70753855 -3.98046875 30.05078125 C-7.41809876 29.96434181 -9.23789739 29.02554192 -12 27 C-15.16815588 23.35536685 -17.29328934 19.77028423 -17.5 14.875 C-16.77106694 9.22576882 -15.18810375 6.27099471 -11.3125 2.125 C-7.28178863 -0.46073937 -4.65640214 -1.00377531 0 0 Z " fill="#BF5440" transform="translate(30,19)"/>
<path d="M0 0 C-2.67243814 10.8679151 -6.40643851 21.41101147 -10 32 C-14.02712662 32 -14.74538981 30.68758834 -17.5625 27.875 C-21.63237786 23.68524356 -25.20851598 19.29757285 -28.625 14.5625 C-29.06271729 13.95970215 -29.50043457 13.3569043 -29.95141602 12.73583984 C-33 8.38177204 -33 8.38177204 -33 5 C-29.10493492 4.28229713 -25.20885554 3.57040815 -21.31176758 2.86376953 C-19.33814901 2.50466687 -17.36535632 2.1410348 -15.39257812 1.77734375 C-14.14541016 1.55175781 -12.89824219 1.32617188 -11.61328125 1.09375 C-9.89298706 0.77954102 -9.89298706 0.77954102 -8.13793945 0.45898438 C-5.36242409 0.05301154 -2.79760186 -0.09164953 0 0 Z " fill="#9F958C" transform="translate(141,302)"/>
<path d="M0 0 C11.08372254 1.26798979 22.03176304 2.9638174 33 5 C31.66933628 9.85001476 29.53327906 13.41957252 26.4375 17.3125 C26.00002441 17.87283936 25.56254883 18.43317871 25.11181641 19.01049805 C21.10870146 24.04641953 16.69922576 28.60724549 12 33 C10 32 10 32 8.85498047 29.16430664 C8.24227295 27.3060022 8.24227295 27.3060022 7.6171875 25.41015625 C7.39805695 24.7504332 7.17892639 24.09071014 6.95315552 23.41099548 C6.49079867 22.01417255 6.03206344 20.61614645 5.57666016 19.21704102 C4.87818614 17.07228347 4.16862247 14.93145246 3.45703125 12.79101562 C0 2.31103352 0 2.31103352 0 0 Z " fill="#9F958C" transform="translate(351,304)"/>
<path d="M0 0 C2.3125 2.75 2.3125 2.75 4 6 C3.65954289 9.41792234 2.34862136 10.96495067 -0.125 13.25 C-3.4270659 16.39611617 -6.39598103 19.70880791 -9.32421875 23.203125 C-11.07157236 25.07674426 -12.9105862 26.52511967 -15 28 C-20.80256399 22.65253907 -26.02677862 17.44052385 -29 10 C-29 9.01 -29 8.02 -29 7 C-25.58364488 6.0197441 -22.16686255 5.04098554 -18.75 4.0625 C-17.78191406 3.78470703 -16.81382812 3.50691406 -15.81640625 3.22070312 C-14.88183594 2.95322266 -13.94726562 2.68574219 -12.984375 2.41015625 C-12.12553711 2.16402588 -11.26669922 1.91789551 -10.38183594 1.66430664 C-9.59583008 1.44508545 -8.80982422 1.22586426 -8 1 C-7.31969727 0.80591553 -6.63939453 0.61183105 -5.93847656 0.41186523 C-4 0 -4 0 0 0 Z " fill="#312723" transform="translate(263,432)"/>
<path d="M0 0 C10.56 0 21.12 0 32 0 C26.83148816 10.42931853 21.53223546 20.75947904 16 31 C15.34 31 14.68 31 14 31 C12.00375597 26.74698389 10.00999161 22.49281796 8.01855469 18.23754883 C7.34020577 16.78898447 6.66117055 15.3407413 5.98144531 13.89282227 C5.00667211 11.81610064 4.03434248 9.73825066 3.0625 7.66015625 C2.75626709 7.00910416 2.45003418 6.35805206 2.13452148 5.68727112 C0 1.11387171 0 1.11387171 0 0 Z " fill="#9F958C" transform="translate(230,145)"/>
<path d="M0 0 C2.55196472 2.55196472 2.44459468 3.93798501 2.8515625 7.48828125 C2.98046875 8.58720703 3.109375 9.68613281 3.2421875 10.81835938 C3.36851562 11.97142578 3.49484375 13.12449219 3.625 14.3125 C3.7590625 15.45396484 3.893125 16.59542969 4.03125 17.77148438 C4.577555 22.54050401 5.08253965 27.19454159 5 32 C-2.32673452 29.9033432 -9.4772579 27.45115246 -16.625 24.8125 C-18.13126953 24.26045898 -18.13126953 24.26045898 -19.66796875 23.69726562 C-22.11294675 22.80077369 -24.55692081 21.90165072 -27 21 C-23.20896487 16.80828636 -18.64806486 13.74856884 -14.0625 10.5 C-6.90665204 5.41562672 -6.90665204 5.41562672 0 0 Z " fill="#A0958C" transform="translate(161,117)"/>
<path d="M0 0 C1.00861934 3.52116216 2.01211694 7.04326126 3 10.5703125 C3.33 11.74335938 3.66 12.91640625 4 14.125 C4.33 15.30320312 4.66 16.48140625 5 17.6953125 C5.86279261 20.54657246 6.84129089 23.25841148 8 26 C5.5636811 26.67126129 3.12611117 27.33716354 0.6875 28 C-0.00279297 28.19078125 -0.69308594 28.3815625 -1.40429688 28.578125 C-4.35787949 29.37716184 -6.92559219 30 -10 30 C-17 9.96183206 -17 9.96183206 -17 1 C-11.29014022 0.25983299 -5.75813575 -0.10469338 0 0 Z " fill="#312723" transform="translate(224,423)"/>
<path d="M0 0 C6.51617225 4.24954907 12.81950444 8.73513208 19.0625 13.375 C19.92810547 14.01566406 20.79371094 14.65632812 21.68554688 15.31640625 C23.79177664 16.87571447 25.89656015 18.43693157 28 20 C25.21628251 21.85581166 23.02040189 22.80037232 19.88671875 23.875 C18.88576172 24.22046875 17.88480469 24.5659375 16.85351562 24.921875 C15.28633789 25.45554688 15.28633789 25.45554688 13.6875 26 C12.13772461 26.53367188 12.13772461 26.53367188 10.55664062 27.078125 C5.71264266 28.74354059 0.8636517 30.39273472 -4 32 C-3.50971536 24.58121931 -2.84852609 17.19814033 -2 9.8125 C-1.9170166 9.07008057 -1.8340332 8.32766113 -1.74853516 7.56274414 C-1.12038886 2.24077772 -1.12038886 2.24077772 0 0 Z " fill="#9F958C" transform="translate(330,119)"/>
<path d="M0 0 C4.72065967 1.54269924 9.41664092 3.07794619 14 5 C12.04030908 15.19039281 7.45345891 24.71217351 0 32 C-0.99 32 -1.98 32 -3 32 C-3.94891489 30.6444073 -4.88578543 29.27828785 -5.75 27.8671875 C-8.14088563 24.29580208 -11.12351761 21.18352265 -14 18 C-12.08596347 13.43735076 -8.72668951 10.66531544 -5.19140625 7.31640625 C-3.01748118 5.01847833 -1.51660681 2.76500341 0 0 Z " fill="#322824" transform="translate(488,417)"/>
<path d="M0 0 C0.92952959 3.15689293 1.12877214 5.99586367 1.1328125 9.28125 C1.13474609 10.79138672 1.13474609 10.79138672 1.13671875 12.33203125 C1.13285156 13.37746094 1.12898438 14.42289062 1.125 15.5 C1.13080078 17.06814453 1.13080078 17.06814453 1.13671875 18.66796875 C1.13542969 19.67472656 1.13414062 20.68148438 1.1328125 21.71875 C1.13168457 22.63591797 1.13055664 23.55308594 1.12939453 24.49804688 C1.00978544 26.81079015 0.65210743 28.78529551 0 31 C-5.9027607 30.37204673 -10.11345602 28.96218133 -16 27 C-16 18.42 -16 9.84 -16 1 C-5 0 -5 0 0 0 Z " fill="#312722" transform="translate(504,382)"/>
<path d="M0 0 C1.46373047 0.01353516 1.46373047 0.01353516 2.95703125 0.02734375 C4.06111328 0.04474609 4.06111328 0.04474609 5.1875 0.0625 C5.66065552 11.08527115 5.13731947 21.09499101 -1.8125 30.0625 C-2.4725 31.0525 -3.1325 32.0425 -3.8125 33.0625 C-6.4375 34.25 -6.4375 34.25 -8.8125 35.0625 C-9.79543267 32.81407909 -10.77394466 30.56390453 -11.75 28.3125 C-12.02779297 27.67828125 -12.30558594 27.0440625 -12.59179688 26.390625 C-13.91970894 23.31882842 -15.15616167 20.35249974 -15.8125 17.0625 C-15.173125 16.794375 -14.53375 16.52625 -13.875 16.25 C-11.48118314 15.17582248 -11.48118314 15.17582248 -10.8125 12.0625 C-10.1525 12.0625 -9.4925 12.0625 -8.8125 12.0625 C-8.8125 11.0725 -8.8125 10.0825 -8.8125 9.0625 C-9.4725 9.0625 -10.1325 9.0625 -10.8125 9.0625 C-10.8125 6.4225 -10.8125 3.7825 -10.8125 1.0625 C-7.13862505 0.20951624 -3.7677607 -0.04539471 0 0 Z " fill="#322823" transform="translate(441.8125,390.9375)"/>
<path d="M0 0 C4.96423737 0.58174657 8.73451854 2.81820337 13 5.25 C13.69867188 5.63285156 14.39734375 6.01570312 15.1171875 6.41015625 C15.80039062 6.79558594 16.48359375 7.18101562 17.1875 7.578125 C18.10595703 8.09487793 18.10595703 8.09487793 19.04296875 8.62207031 C21.66412018 10.46760159 23.78115836 12.695892 26 15 C22.33732513 17.2843305 18.67110802 19.56282695 15.00146484 21.8359375 C13.75307293 22.61037578 12.50567089 23.38641209 11.25927734 24.1640625 C9.46969028 25.2802409 7.67664598 26.39066265 5.8828125 27.5 C4.80402832 28.1703125 3.72524414 28.840625 2.61376953 29.53125 C0 31 0 31 -2 31 C-1.85969417 27.33310028 -1.71174579 23.66654588 -1.5625 20 C-1.52318359 18.97003906 -1.48386719 17.94007813 -1.44335938 16.87890625 C-1.20814561 11.19758925 -0.80518623 5.62953732 0 0 Z " fill="#9F958C" transform="translate(309,159)"/>
<path d="M0 0 C0.66 10.23 1.32 20.46 2 31 C-3.79650583 28.68139767 -8.93588303 25.71003969 -14.3125 22.5625 C-15.33923828 21.97662109 -16.36597656 21.39074219 -17.42382812 20.78710938 C-18.39384766 20.21927734 -19.36386719 19.65144531 -20.36328125 19.06640625 C-21.25313721 18.55021729 -22.14299316 18.03402832 -23.05981445 17.50219727 C-23.70007568 17.00647217 -24.34033691 16.51074707 -25 16 C-25 15.01 -25 14.02 -25 13 C-22.5078125 11.1328125 -22.5078125 11.1328125 -19.125 9.125 C-18.53871826 8.77566406 -17.95243652 8.42632812 -17.34838867 8.06640625 C-3.65075278 0 -3.65075278 0 0 0 Z " fill="#9F958C" transform="translate(183,157)"/>
<path d="M0 0 C0.495 6.93 0.495 6.93 1 14 C-2.90964566 16.03552652 -6.8266574 18.05369472 -10.75 20.0625 C-12.41675781 20.93358398 -12.41675781 20.93358398 -14.1171875 21.82226562 C-15.18710937 22.36689453 -16.25703125 22.91152344 -17.359375 23.47265625 C-18.34389648 23.98062744 -19.32841797 24.48859863 -20.34277344 25.01196289 C-23.20316328 26.07554224 -24.23951337 26.1880623 -27 25 C-29.3125 23.1875 -29.3125 23.1875 -31 21 C-31.09529383 18.04589129 -29.95066085 16.94111134 -28.0625 14.6875 C-20.72231832 7.85208726 -10.33451584 0 0 0 Z " fill="#312823" transform="translate(425,324)"/>
<path d="M0 0 C1.08539063 0.40992188 2.17078125 0.81984375 3.2890625 1.2421875 C4.73435269 1.78651757 6.17966644 2.33078509 7.625 2.875 C8.33785156 3.14441406 9.05070312 3.41382813 9.78515625 3.69140625 C13.83148122 5.2134184 17.88737656 6.66372172 22 8 C21.5247412 9.64696604 21.04468109 11.29254728 20.5625 12.9375 C20.29566406 13.85402344 20.02882813 14.77054687 19.75390625 15.71484375 C19 18 19 18 18 19 C16.32529663 19.09968472 14.64641635 19.13080572 12.96875 19.1328125 C11.92976563 19.13410156 10.89078125 19.13539063 9.8203125 19.13671875 C8.72460938 19.13285156 7.62890625 19.12898438 6.5 19.125 C5.43523437 19.12886719 4.37046875 19.13273437 3.2734375 19.13671875 C-2.90141947 19.12913293 -8.87807743 18.81025446 -15 18 C-13.57335513 14.93464143 -12.0281885 12.91374307 -9.57421875 10.5703125 C-6.20867891 7.21312388 -3.13527631 3.57094745 0 0 Z " fill="#312722" transform="translate(258,458)"/>
<path d="M0 0 C1.62109375 1.609375 1.62109375 1.609375 3.4375 3.75 C4.33275391 4.79414063 4.33275391 4.79414063 5.24609375 5.859375 C7 8 7 8 8.53515625 10.203125 C9.96646388 12.28631889 9.96646388 12.28631889 13 13 C13.6875 15.0625 13.6875 15.0625 14 17 C8.93631119 21.73344823 3.64760431 25.76186187 -3 28 C-5.20703125 27.82421875 -5.20703125 27.82421875 -7 27 C-8.5 23.875 -8.5 23.875 -9.20703125 21.9765625 C-10.03051618 19.92393504 -11.04188024 18.13926767 -12.1875 16.25 C-14 13 -14 13 -14 10 C-12.13671875 8.28125 -12.13671875 8.28125 -9.6875 6.5 C-6.35651927 4.06753514 -6.35651927 4.06753514 -3.33203125 1.28125 C-2 0 -2 0 0 0 Z " fill="#312723" transform="translate(467,438)"/>
<path d="M0 0 C1.43472656 0.00676758 1.43472656 0.00676758 2.8984375 0.01367188 C5.22398622 0.02529962 7.54950207 0.04322792 9.875 0.0625 C9.875 4.6825 9.875 9.3025 9.875 14.0625 C-0.355 14.0625 -10.585 14.0625 -21.125 14.0625 C-21.125 9.7725 -21.125 5.4825 -21.125 1.0625 C-14.04007989 0.24599832 -7.12778101 -0.06507103 0 0 Z " fill="#322823" transform="translate(266.125,400.9375)"/>
<path d="M0 0 C4.25414623 -0.02465622 8.50825498 -0.04283899 12.76245117 -0.05493164 C14.21070073 -0.05997101 15.65894517 -0.06680253 17.10717773 -0.07543945 C19.18474588 -0.08752247 21.26224697 -0.09323211 23.33984375 -0.09765625 C24.59144287 -0.10289307 25.84304199 -0.10812988 27.13256836 -0.11352539 C30 0 30 0 31 1 C31 5.29 31 9.58 31 14 C21.43 14 11.86 14 2 14 C-0.25 3.875 -0.25 3.875 0 0 Z " fill="#332824" transform="translate(207,401)"/>
<path d="M0 0 C8.28222621 2.07055655 15.02134758 8.24028931 19.9765625 15.04296875 C21.17504258 17.33471883 21.60444576 19.45526771 22 22 C20.25877451 23.03572896 18.50663405 24.0531252 16.75 25.0625 C15.28820312 25.91521484 15.28820312 25.91521484 13.796875 26.78515625 C11 28 11 28 8.8515625 27.94140625 C6.36610061 26.67770094 5.25377771 25.1308189 3.625 22.875 C0.57165352 18.75331198 -2.6284737 14.8649204 -6 11 C-4.02 7.37 -2.04 3.74 0 0 Z " fill="#322924" transform="translate(470,322)"/>
<path d="M0 0 C0.91120605 0.01047363 1.82241211 0.02094727 2.76123047 0.03173828 C3.74736328 0.03818359 4.73349609 0.04462891 5.74951172 0.05126953 C7.29832031 0.07640625 7.29832031 0.07640625 8.87841797 0.10205078 C9.91869141 0.11107422 10.95896484 0.12009766 12.03076172 0.12939453 C14.60507794 0.15301211 17.17927634 0.18888394 19.75341797 0.22705078 C19.75341797 6.16705078 19.75341797 12.10705078 19.75341797 18.22705078 C12.16341797 18.22705078 4.57341797 18.22705078 -3.24658203 18.22705078 C-3.45283203 15.62830078 -3.65908203 13.02955078 -3.87158203 10.35205078 C-3.94199707 9.53494629 -4.01241211 8.7178418 -4.08496094 7.87597656 C-4.21787058 5.99692541 -4.23463462 4.11075868 -4.24658203 2.22705078 C-2.24658203 0.22705078 -2.24658203 0.22705078 0 0 Z " fill="#322723" transform="translate(318.24658203125,445.77294921875)"/>
<path d="M0 0 C5.65223633 -1.01382434 11.47584272 -2.00227555 17 0 C22.74858231 4.98400734 26.62000691 12.86002074 29 20 C25.43913342 21.18695553 22.02668976 21.35095418 18.3125 21.5625 C17.2596582 21.62727539 17.2596582 21.62727539 16.18554688 21.69335938 C14.45724794 21.7991736 12.7286489 21.90006581 11 22 C10.68546875 21.48050781 10.3709375 20.96101563 10.046875 20.42578125 C8.09252972 17.2411403 6.17518896 14.21523215 3.8125 11.3125 C0.82973114 7.50689836 0 4.83574546 0 0 Z " fill="#322723" transform="translate(407,454)"/>
<path d="M0 0 C3.7910119 1.44950455 7.3874638 3.15172566 11 5 C11 5.99 11 6.98 11 8 C10.34 8 9.68 8 9 8 C8.896875 8.94875 8.79375 9.8975 8.6875 10.875 C8.0089081 15.73491554 6.4914524 20.33803874 5 25 C-3.12751571 23.77078205 -10.41479291 21.1149283 -18 18 C-14.65348519 13.7122779 -11.07466717 10.20568225 -6.9375 6.6796875 C-4.49654333 4.56353555 -2.24804455 2.31829594 0 0 Z " fill="#322823" transform="translate(280,437)"/>
<path d="M0 0 C0.969375 0.886875 1.93875 1.77375 2.9375 2.6875 C6.94518469 6.14494929 11.30561573 8.59426112 16 11 C15.3503125 12.17369141 15.3503125 12.17369141 14.6875 13.37109375 C14.130625 14.38300781 13.57375 15.39492188 13 16.4375 C12.443125 17.44683594 11.88625 18.45617187 11.3125 19.49609375 C9.92262248 21.67644131 9.92262248 21.67644131 10 23 C7.03 22.67 4.06 22.34 1 22 C1 21.34 1 20.68 1 20 C-0.3303125 19.690625 -0.3303125 19.690625 -1.6875 19.375 C-5.77879957 17.67672471 -7.35752182 15.49949813 -10 12 C-10.61875 11.46375 -11.2375 10.9275 -11.875 10.375 C-13 9 -13 9 -12.94921875 7.0859375 C-11.48127684 3.86008985 -9.17025159 3.47504271 -5.9375 2.25 C-4.83277344 1.82203125 -3.72804688 1.3940625 -2.58984375 0.953125 C-1.73519531 0.63859375 -0.88054687 0.3240625 0 0 Z " fill="#362B27" transform="translate(395,413)"/>
<path d="M0 0 C0.66 0 1.32 0 2 0 C6.21222368 8.57015321 10 16.2871545 10 26 C1.42 25.01 -7.16 24.02 -16 23 C-13.49912557 17.99825113 -10.30644128 13.7449011 -7 9.25 C-6.03707031 7.91775391 -6.03707031 7.91775391 -5.0546875 6.55859375 C-4.43851562 5.71941406 -3.82234375 4.88023437 -3.1875 4.015625 C-2.34251953 2.85981934 -2.34251953 2.85981934 -1.48046875 1.68066406 C-0.99191406 1.12604492 -0.50335938 0.57142578 0 0 Z " fill="#A0958C" transform="translate(346,221)"/>
<path d="M0 0 C4.20953787 1.7296616 7.35143576 4.68206745 10.75 7.625 C11.35199219 8.140625 11.95398438 8.65625 12.57421875 9.1875 C14.05260866 10.45469135 15.52673171 11.72685775 17 13 C16.46846576 16.95107118 14.69938095 18.55649937 11.75 21.125 C10.98171875 21.80820312 10.2134375 22.49140625 9.421875 23.1953125 C7.00828078 24.99382948 4.83413846 26.02513677 2 27 C0.53763907 25.0862931 -0.91994246 23.16924767 -2.375 21.25 C-2.7875 20.71117187 -3.2 20.17234375 -3.625 19.6171875 C-5.71684645 16.85055187 -7.59564418 14.1790912 -9 11 C-8.071875 10.29875 -7.14375 9.5975 -6.1875 8.875 C-3.09904705 6.32684378 -1.55573813 3.71648553 0 0 Z " fill="#312723" transform="translate(444,418)"/>
<path d="M0 0 C3.91855812 3.63391709 7.00379997 7.7958043 10.1875 12.0625 C10.73341797 12.78244141 11.27933594 13.50238281 11.84179688 14.24414062 C12.36193359 14.93830078 12.88207031 15.63246094 13.41796875 16.34765625 C13.89000732 16.97679932 14.3620459 17.60594238 14.84838867 18.25415039 C16 20 16 20 17 23 C8.42 23.99 -0.16 24.98 -9 26 C-7.87000783 14.70007831 -7.87000783 14.70007831 -5.625 9.625 C-5.20476562 8.64789063 -4.78453125 7.67078125 -4.3515625 6.6640625 C-3.09997328 4.19705715 -1.73758175 2.14403362 0 0 Z " fill="#9F958C" transform="translate(145,219)"/>
<path d="M0 0 C3.68647659 8.40173734 4.63735676 15.84325807 5 25 C0.38 25 -4.24 25 -9 25 C-9.94401042 22.62369792 -10.88802083 20.24739583 -11.83203125 17.87109375 C-13.17852697 14.56114607 -14.58457199 11.28103513 -16 8 C-13.71125827 6.66141476 -11.41930344 5.32898986 -9.125 4 C-8.47402344 3.6184375 -7.82304687 3.236875 -7.15234375 2.84375 C-2.2265625 0 -2.2265625 0 0 0 Z " fill="#312723" transform="translate(497,352)"/>
<path d="M0 0 C6.18160604 0.53753096 11.326858 2.54582388 17 5 C15.92740976 12.35490447 10.58065892 18.30049775 5 23 C3.68 23 2.36 23 1 23 C-1.140625 20.8125 -1.140625 20.8125 -3.25 18 C-3.95640625 17.071875 -4.6628125 16.14375 -5.390625 15.1875 C-5.92171875 14.465625 -6.4528125 13.74375 -7 13 C-6.57847656 12.22914063 -6.15695312 11.45828125 -5.72265625 10.6640625 C-5.17480469 9.66117187 -4.62695312 8.65828125 -4.0625 7.625 C-3.51722656 6.62726563 -2.97195313 5.62953125 -2.41015625 4.6015625 C-1.5850241 3.07929654 -0.77435609 1.54871217 0 0 Z " fill="#312722" transform="translate(467,408)"/>
<path d="M0 0 C4.95 0 9.9 0 15 0 C15.33 6.27 15.66 12.54 16 19 C9.4 19 2.8 19 -4 19 C-2.02 9.595 -2.02 9.595 0 0 Z " fill="#302722" transform="translate(290,458)"/>
<path d="M0 0 C3.94505466 2.28604161 6.59137328 4.04297039 9 8 C10.19570584 13.30096255 10 18.57781721 10 24 C5.38 24.33 0.76 24.66 -4 25 C-4.48828125 22.75390625 -4.9765625 20.5078125 -5.46484375 18.26171875 C-5.99886159 15.854599 -5.99886159 15.854599 -7 13 C-5.93430618 10.6682503 -4.83522353 8.52478591 -3.5625 6.3125 C-3.22412109 5.70599609 -2.88574219 5.09949219 -2.53710938 4.47460938 C-1.70042085 2.9779975 -0.85137169 1.48830811 0 0 Z " fill="#322924" transform="translate(437,367)"/>
<path d="M0 0 C2.63558968 2.11088418 4.58412297 4.75437731 6.70703125 7.3671875 C7.69703125 8.0271875 8.68703125 8.6871875 9.70703125 9.3671875 C8.34332826 12.35939018 6.75795042 14.65745279 4.58203125 17.1171875 C4.04320312 17.73078125 3.504375 18.344375 2.94921875 18.9765625 C2.53929687 19.43546875 2.129375 19.894375 1.70703125 20.3671875 C-5.4251956 17.32938718 -10.96899199 13.01845791 -16.29296875 7.3671875 C-16.29296875 6.7071875 -16.29296875 6.0471875 -16.29296875 5.3671875 C-14.05045997 4.30589324 -11.80147786 3.26837517 -9.54296875 2.2421875 C-8.90875 1.93925781 -8.27453125 1.63632812 -7.62109375 1.32421875 C-2.88632001 -0.79656532 -2.88632001 -0.79656532 0 0 Z " fill="#312823" transform="translate(234.29296875,453.6328125)"/>
<path d="M0 0 C11.17779433 1.8548305 21.41713097 4.99742163 32 9 C29.94475326 11.22490619 28.06575058 12.6475461 25.34765625 13.97265625 C24.65349609 14.31490234 23.95933594 14.65714844 23.24414062 15.00976562 C22.52419922 15.35716797 21.80425781 15.70457031 21.0625 16.0625 C20.34642578 16.41376953 19.63035156 16.76503906 18.89257812 17.12695312 C17.55482689 17.78281078 16.21585268 18.43618443 14.87524414 19.08618164 C12.90989866 20.04390695 10.9539936 21.01935113 9 22 C8.91363281 21.29875 8.82726562 20.5975 8.73828125 19.875 C7.74120051 13.14241815 6.02100268 8.46443954 2 3 C1.34 2.01 0.68 1.02 0 0 Z " fill="#352B27" transform="translate(206,9)"/>
<path d="M0 0 C5.94 0 11.88 0 18 0 C17.938125 2.413125 17.87625 4.82625 17.8125 7.3125 C17.80581299 8.06829346 17.79912598 8.82408691 17.79223633 9.6027832 C17.70703125 11.42578125 17.70703125 11.42578125 17 15 C12.41130944 19.071655 7.81057394 18.23242296 2 18 C1.34 12.06 0.68 6.12 0 0 Z " fill="#312723" transform="translate(371,446)"/>
<path d="M0 0 C-0.763125 0.845625 -1.52625 1.69125 -2.3125 2.5625 C-6.95696105 8.18058744 -8.37754374 13.90399869 -9 21 C-9.57105469 20.62488281 -10.14210938 20.24976562 -10.73046875 19.86328125 C-17.50935702 15.58471425 -24.45610003 12.67229059 -32 10 C-32 9.34 -32 8.68 -32 8 C-28.69009373 6.86727048 -25.37664098 5.74527301 -22.0625 4.625 C-21.13630859 4.30789062 -20.21011719 3.99078125 -19.25585938 3.6640625 C-3.3723467 -1.68617335 -3.3723467 -1.68617335 0 0 Z " fill="#342A25" transform="translate(284,10)"/>
<path d="M0 0 C7.59 0 15.18 0 23 0 C23 3.96 23 7.92 23 12 C15.41 12 7.82 12 0 12 C0 8.04 0 4.08 0 0 Z " fill="#302722" transform="translate(341,446)"/>
<path d="M0 0 C4.875 1.75 4.875 1.75 6 4 C5.360625 4.61875 4.72125 5.2375 4.0625 5.875 C1.39705998 8.62121093 1.05340179 9.51938393 0.625 13.375 C0.64388259 17.08852968 0.64388259 17.08852968 3.1875 19.375 C5.90582971 20.9455905 7.90329842 21.64609125 11 22 C10.67 19.69 10.34 17.38 10 15 C14.37497392 17.38634941 18.64266044 20.28467322 22 24 C22 24.99 22 25.98 22 27 C18.95682614 27.13558695 15.91974438 27.23437239 12.875 27.3125 C12.0190625 27.35439453 11.163125 27.39628906 10.28125 27.43945312 C5.96293897 27.52249757 2.9540365 27.46367509 -0.5 24.6953125 C-4.07879619 20.83692286 -5.62135302 17.22455098 -6.5 12.0625 C-5.75735388 7.51379252 -3.28292656 3.28292656 0 0 Z " fill="#A0968D" transform="translate(132,363)"/>
<path d="M0 0 C3.73759438 1.20136962 5.4957279 3.51289284 7.30078125 6.9375 C8.59324849 10.74991734 8.08423725 14.18431892 7 18 C4.68599015 22.46273328 2.5580797 24.91163679 -2 27 C-5.11523056 27.35349102 -8.18256816 27.2838436 -11.3125 27.1875 C-12.56643555 27.16719727 -12.56643555 27.16719727 -13.84570312 27.14648438 C-15.89741498 27.11131217 -17.94879275 27.05751048 -20 27 C-19.17912524 22.71102756 -17.41697766 21.39264126 -13.9375 18.75 C-13.01839844 18.04359375 -12.09929687 17.3371875 -11.15234375 16.609375 C-10.44207031 16.07828125 -9.73179687 15.5471875 -9 15 C-7.95550089 18.13349732 -8.06576355 18.98968256 -9 22 C-7.51793505 21.745504 -6.03931385 21.47088238 -4.5625 21.1875 C-3.73878906 21.03667969 -2.91507812 20.88585937 -2.06640625 20.73046875 C-1.38449219 20.48941406 -0.70257813 20.24835938 0 20 C1.20643566 16.38069302 1.32268559 13.80768995 1 10 C-0.90356987 6.72689447 -0.90356987 6.72689447 -3 4 C-3 3.34 -3 2.68 -3 2 C-2.01 1.34 -1.02 0.68 0 0 Z " fill="#A0968D" transform="translate(358,363)"/>
<path d="M0 0 C0.24878997 2.43694274 0.47463404 4.87238389 0.6875 7.3125 C0.76033203 8.00279297 0.83316406 8.69308594 0.90820312 9.40429688 C1.32968385 14.53644453 1.32968385 14.53644453 -0.2890625 16.8125 C-0.85367187 17.204375 -1.41828125 17.59625 -2 18 C-2.50660156 18.45761719 -3.01320313 18.91523438 -3.53515625 19.38671875 C-7.77777778 23 -7.77777778 23 -10 23 C-11.62109375 21.20703125 -11.62109375 21.20703125 -13.4375 18.8125 C-14.03433594 18.03519531 -14.63117188 17.25789063 -15.24609375 16.45703125 C-16.9721523 14.03901159 -18.50846264 11.56799858 -20 9 C-17.77208002 7.87247351 -15.54274113 6.74791861 -13.3125 5.625 C-12.68666016 5.30789063 -12.06082031 4.99078125 -11.41601562 4.6640625 C-2.13647461 0 -2.13647461 0 0 0 Z " fill="#312723" transform="translate(422,349)"/>
<path d="M0 0 C1.98 3.96 3.96 7.92 6 12 C4.68 12.33 3.36 12.66 2 13 C1.67 13.66 1.34 14.32 1 15 C-1.16467461 15.62669199 -3.35864524 16.15427374 -5.5625 16.625 C-6.76003906 16.88539063 -7.95757812 17.14578125 -9.19140625 17.4140625 C-10.58166016 17.70410156 -10.58166016 17.70410156 -12 18 C-12.83764268 16.04350603 -13.66999059 14.08474444 -14.5 12.125 C-14.9640625 11.03445313 -15.428125 9.94390625 -15.90625 8.8203125 C-17 6 -17 6 -17 4 C-14.5424552 3.33030409 -12.08405076 2.6641232 -9.625 2 C-8.57699219 1.71382813 -8.57699219 1.71382813 -7.5078125 1.421875 C-2.2265625 0 -2.2265625 0 0 0 Z " fill="#332924" transform="translate(451,456)"/>
<path d="M0 0 C2.98086359 5.24631992 2.98086359 5.24631992 3.05078125 8 C1.31028444 11.31276717 -2.03262909 12.03233328 -5.375 13.25 C-6.06078125 13.518125 -6.7465625 13.78625 -7.453125 14.0625 C-10.43036641 15.1977905 -12.78971192 16 -16 16 C-16.508783 14.44033782 -17.00663469 12.87710759 -17.5 11.3125 C-17.7784375 10.44238281 -18.056875 9.57226562 -18.34375 8.67578125 C-18.99850805 6.00608323 -19.11831495 3.73603316 -19 1 C-12.65333314 0.41639845 -6.37625222 -0.14491482 0 0 Z " fill="#312723" transform="translate(249,419)"/>
<path d="M0 0 C3.63 0 7.26 0 11 0 C11.33 7.26 11.66 14.52 12 22 C8.04 22 4.08 22 0 22 C0 14.74 0 7.48 0 0 Z " fill="#302722" transform="translate(392,455)"/>
<path d="M0 0 C4.95 0 9.9 0 15 0 C15.495 6.93 15.495 6.93 16 14 C9.73 14 3.46 14 -3 14 C-2.01 9.38 -1.02 4.76 0 0 Z " fill="#312723" transform="translate(354,462)"/>
<path d="M0 0 C0.13277344 0.67546875 0.26554687 1.3509375 0.40234375 2.046875 C0.57894531 2.93890625 0.75554687 3.8309375 0.9375 4.75 C1.11152344 5.63171875 1.28554688 6.5134375 1.46484375 7.421875 C1.95714779 9.95189512 1.95714779 9.95189512 2.62890625 12.203125 C3 14 3 14 2 16 C-0.06640625 16.8515625 -0.06640625 16.8515625 -2.5625 17.625 C-3.80193359 18.01558594 -3.80193359 18.01558594 -5.06640625 18.4140625 C-5.70449219 18.60742188 -6.34257812 18.80078125 -7 19 C-11.2119815 14.34465203 -13.84206703 10.63245831 -14.125 4.125 C-14.08375 3.42375 -14.0425 2.7225 -14 2 C-11.75135208 0.87567604 -10.05612337 0.69546104 -7.5625 0.4375 C-6.78003906 0.35371094 -5.99757813 0.26992188 -5.19140625 0.18359375 C-3 0 -3 0 0 0 Z " fill="#312823" transform="translate(410,392)"/>
<path d="M0 0 C3.3 0.33 6.6 0.66 10 1 C8.7 15.3 8.7 15.3 4 20 C1.1796875 20.1953125 1.1796875 20.1953125 -2.125 20.125 C-3.22070312 20.10695313 -4.31640625 20.08890625 -5.4453125 20.0703125 C-6.28835938 20.04710937 -7.13140625 20.02390625 -8 20 C-5.25 13.125 -5.25 13.125 -3 12 C-2.34676114 9.71760106 -2.34676114 9.71760106 -1.9375 7.0625 C-1.08609272 2.17218543 -1.08609272 2.17218543 0 0 Z " fill="#332924" transform="translate(454,395)"/>
<path d="M0 0 C0.33 0.99 0.66 1.98 1 3 C3.88085938 2.95117188 3.88085938 2.95117188 6.76171875 2.90234375 C9 3 9 3 14 4 C14 7.96 14 11.92 14 16 C8.72 16 3.44 16 -2 16 C-2 11.38 -2 6.76 -2 2 C-1.34 2 -0.68 2 0 2 C0 1.34 0 0.68 0 0 Z " fill="#332824" transform="translate(378,384)"/>
<path d="M0 0 C0.90413673 3.83724172 1.10576898 7.37502274 1.0625 11.3125 C1.05347656 12.38113281 1.04445313 13.44976562 1.03515625 14.55078125 C1.02355469 15.35902344 1.01195312 16.16726563 1 17 C-2.63 17.33 -6.26 17.66 -10 18 C-10.84681133 12.91913204 -11.09038099 8.15171623 -11 3 C-4.5 0 -4.5 0 0 0 Z " fill="#322823" transform="translate(481,387)"/>
<path d="M0 0 C1.69968841 2.18756193 2.73478913 4.51476437 4 7 C-0.52931865 12.00608904 -5.54772097 13.70954419 -12 15 C-13 14 -13 14 -13.09765625 11.27734375 C-13.08605469 10.17519531 -13.07445312 9.07304687 -13.0625 7.9375 C-13.05347656 6.83277344 -13.04445313 5.72804688 -13.03515625 4.58984375 C-13.02355469 3.73519531 -13.01195312 2.88054687 -13 2 C-11.5882217 1.46605821 -10.17029756 0.94834896 -8.75 0.4375 C-7.96109375 0.14746094 -7.1721875 -0.14257812 -6.359375 -0.44140625 C-3.73128254 -1.06362019 -2.46497932 -1.08626207 0 0 Z " fill="#342A26" transform="translate(428,422)"/>
<path d="M0 0 C6.27 0 12.54 0 19 0 C19 2.97 19 5.94 19 9 C12.73 9 6.46 9 0 9 C0 6.03 0 3.06 0 0 Z " fill="#302722" transform="translate(309,468)"/>
<path d="M0 0 C0 4.29 0 8.58 0 13 C-12.625 10.125 -12.625 10.125 -16 9 C-16 6.36 -16 3.72 -16 1 C-10.6088658 -0.25168929 -5.51858026 -0.06648892 0 0 Z " fill="#302722" transform="translate(447,391)"/>
<path d="M0 0 C0 2.31 0 4.62 0 7 C-2.77029586 7.50314563 -5.5411652 8.00263838 -8.3125 8.5 C-9.09818359 8.64308594 -9.88386719 8.78617187 -10.69335938 8.93359375 C-11.45068359 9.06894531 -12.20800781 9.20429688 -12.98828125 9.34375 C-13.68477783 9.46943359 -14.38127441 9.59511719 -15.09887695 9.72460938 C-17 10 -17 10 -20 10 C-20.33 7.03 -20.66 4.06 -21 1 C-18.06255476 0.83231709 -15.12505096 0.66581142 -12.1875 0.5 C-11.35412109 0.45230469 -10.52074219 0.40460938 -9.66210938 0.35546875 C-8.85966797 0.31035156 -8.05722656 0.26523437 -7.23046875 0.21875 C-6.49207764 0.17685547 -5.75368652 0.13496094 -4.99291992 0.09179688 C-3.33009506 0.01520467 -1.6645879 0 0 0 Z " fill="#312723" transform="translate(276,418)"/>
<path d="M0 0 C4.29 0 8.58 0 13 0 C13 3.63 13 7.26 13 11 C8.38 11 3.76 11 -1 11 C-0.67 7.37 -0.34 3.74 0 0 Z " fill="#302722" transform="translate(336,466)"/>
<path d="M0 0 C2.5625 1.75 2.5625 1.75 4 4 C4.0625 6.0625 4.0625 6.0625 3 8 C-0.09898747 10.64325402 -1.57951501 11.02138059 -5.6875 10.8125 C-9 10 -9 10 -11 8 C-11.3125 5 -11.3125 5 -11 2 C-7.32235984 -0.45176011 -4.27326371 -0.70362977 0 0 Z " fill="#CC7E84" transform="translate(298,25)"/>
<path d="M0 0 C4.95 0 9.9 0 15 0 C17 4 17 4 17 7 C16.15695312 7.20496094 15.31390625 7.40992188 14.4453125 7.62109375 C13.34960938 7.89050781 12.25390625 8.15992188 11.125 8.4375 C9.48917969 8.83775391 9.48917969 8.83775391 7.8203125 9.24609375 C5.07515279 9.8786478 5.07515279 9.8786478 3 11 C0.00533317 6.75755532 0 5.65814459 0 0 Z " fill="#352926" transform="translate(377,403)"/>
<path d="M0 0 C0.680625 -0.00515625 1.36125 -0.0103125 2.0625 -0.015625 C4 0.25 4 0.25 7 2.25 C7.5 5.1875 7.5 5.1875 7 8.25 C4.9375 10.1875 4.9375 10.1875 2 11.25 C-4.32142857 10.92857143 -4.32142857 10.92857143 -7 8.25 C-7.3125 5.25 -7.3125 5.25 -7 2.25 C-4.00261059 0.25174039 -3.36652492 -0.02550398 0 0 Z " fill="#CC7D84" transform="translate(196,24.75)"/>
<path d="M0 0 C11.52164009 -0.3690205 11.52164009 -0.3690205 17 2 C16.01 3.98 15.02 5.96 14 8 C9.05 8 4.1 8 -1 8 C-0.67 5.36 -0.34 2.72 0 0 Z " fill="#312723" transform="translate(428,356)"/>
<path d="M0 0 C5.61 0 11.22 0 17 0 C17 2.31 17 4.62 17 7 C11.39 7 5.78 7 0 7 C0 4.69 0 2.38 0 0 Z " fill="#362A26" transform="translate(394,444)"/>
<path d="M0 0 C2.33984375 0.24609375 2.33984375 0.24609375 4.0625 0.5625 C3.80695946 2.02359063 3.53249628 3.48138096 3.25 4.9375 C3.09917969 5.74960937 2.94835937 6.56171875 2.79296875 7.3984375 C2.0625 9.5625 2.0625 9.5625 -0.9375 11.5625 C-3.12890625 11.828125 -3.12890625 11.828125 -5.5 11.8125 C-6.67755859 11.82023437 -6.67755859 11.82023437 -7.87890625 11.828125 C-9.9375 11.5625 -9.9375 11.5625 -11.9375 9.5625 C-5.98424502 -0.08521868 -5.98424502 -0.08521868 0 0 Z " fill="#332824" transform="translate(420.9375,408.4375)"/>
<path d="M0 0 C0.66 0 1.32 0 2 0 C2 0.66 2 1.32 2 2 C2.92683594 1.91621094 3.85367187 1.83242188 4.80859375 1.74609375 C6.60490234 1.59333984 6.60490234 1.59333984 8.4375 1.4375 C9.63246094 1.33308594 10.82742188 1.22867187 12.05859375 1.12109375 C13.02925781 1.08113281 13.99992187 1.04117187 15 1 C16 2 16 2 16 9 C11.38 9.33 6.76 9.66 2 10 C1.34 6.7 0.68 3.4 0 0 Z " fill="#6A424B" transform="translate(431,382)"/>
<path d="M0 0 C-0.42271306 3.41955937 -0.94126867 6.71521818 -2 10 C-4.65528127 11.88664722 -5.93288218 12.09415745 -9.125 11.8125 C-11.33585303 10.85446369 -12.53125958 9.90936255 -14 8 C-14 7.01 -14 6.02 -14 5 C-12.421924 4.15675328 -10.8372958 3.32576082 -9.25 2.5 C-8.36828125 2.0359375 -7.4865625 1.571875 -6.578125 1.09375 C-4 0 -4 0 0 0 Z " fill="#342925" transform="translate(432,367)"/>
<path d="M0 0 C0.33 2.97 0.66 5.94 1 9 C-1.8125 11.0625 -1.8125 11.0625 -5 13 C-9.42679007 11.52440331 -9.91432696 9.09942632 -12 5 C-12 4.34 -12 3.68 -12 3 C-10.56445975 2.49440092 -9.1264798 1.9957251 -7.6875 1.5 C-6.88699219 1.2215625 -6.08648437 0.943125 -5.26171875 0.65625 C-3 0 -3 0 0 0 Z " fill="#332824" transform="translate(278,426)"/>
<path d="M0 0 C3.63 0.33 7.26 0.66 11 1 C10.67 3.64 10.34 6.28 10 9 C6.04 9 2.08 9 -2 9 C-2 3 -2 3 0 0 Z " fill="#312823" transform="translate(295,445)"/>
<path d="M0 0 C0.99 0.99 1.98 1.98 3 3 C1.5304003 6.80609809 -0.38491469 8.1731926 -3.875 10.1875 C-4.73867188 10.69667969 -5.60234375 11.20585937 -6.4921875 11.73046875 C-8.70317292 12.84973707 -10.58072142 13.53302297 -13 14 C-13.66 12.35 -14.32 10.7 -15 9 C-14.33613281 8.68546875 -13.67226563 8.3709375 -12.98828125 8.046875 C-8.24303558 5.74698951 -3.95396814 3.55857132 0 0 Z " fill="#352A26" transform="translate(431,433)"/>
<path d="M0 0 C0.33 3.63 0.66 7.26 1 11 C-2.63 11 -6.26 11 -10 11 C-10.66 8.69 -11.32 6.38 -12 4 C-10.1128125 3.566875 -10.1128125 3.566875 -8.1875 3.125 C-5.53012827 2.51511141 -2.32754795 0 0 0 Z " fill="#312823" transform="translate(388,466)"/>
<path d="M0 0 C0.33 0 0.66 0 1 0 C1.09706112 6.11485027 0.77040851 11.93303301 0 18 C-0.66 18 -1.32 18 -2 18 C-2.83848804 16.54462432 -3.67063934 15.08559627 -4.5 13.625 C-4.9640625 12.81289063 -5.428125 12.00078125 -5.90625 11.1640625 C-7 9 -7 9 -7 7 C-5.01739574 5.31267723 -3.0167658 3.64633943 -1 2 C-0.67 1.34 -0.34 0.68 0 0 Z " fill="#372D29" transform="translate(165,407)"/>
<path d="M0 0 C1.1446875 1.175625 1.1446875 1.175625 2.3125 2.375 C4.90891805 5.07257717 4.90891805 5.07257717 8 7 C6.74194623 11.50802601 5.09592835 14.4912812 2 18 C0.14210789 16.14210789 0.27036744 13.19056569 -0.125 10.6875 C-0.31320312 9.53636719 -0.50140625 8.38523437 -0.6953125 7.19921875 C-0.96455695 4.37215198 -0.92542797 2.63942484 0 0 Z " fill="#372C28" transform="translate(326,407)"/>
<path d="M0 0 C-0.58059399 5.80593993 -1.77768868 10.33322642 -5.5625 14.875 C-7 16 -7 16 -9 16 C-8.83594462 9.28864336 -7.85033511 5.73203426 -3 1 C-1 0 -1 0 0 0 Z " fill="#3A2A26" transform="translate(264,330)"/>
<path d="M0 0 C4.23910579 1.51396635 5.93638856 4.09387835 8 8 C8.25 11.875 8.25 11.875 8 15 C3.72943339 13.25050318 2.63783868 11.09149779 0.75 7.04296875 C-0.14686826 4.59993699 -0.32251441 2.5801153 0 0 Z " fill="#372925" transform="translate(227,331)"/>
<path d="M0 0 C3 0.125 3 0.125 4 1.125 C4.1875 4.0625 4.1875 4.0625 4 7.125 C3.34 7.785 2.68 8.445 2 9.125 C-1.29714793 8.79528521 -2.6226839 8.5023161 -5 6.125 C-4.27477017 0.17811542 -4.27477017 0.17811542 0 0 Z " fill="#CC7E84" transform="translate(299,9.875)"/>
<path d="M0 0 C3.0625 0.1875 3.0625 0.1875 5.0625 2.1875 C4.6875 5.3125 4.6875 5.3125 4.0625 8.1875 C1.75 8.8125 1.75 8.8125 -0.9375 9.1875 C-1.9275 8.5275 -2.9175 7.8675 -3.9375 7.1875 C-4.1875 4.125 -4.1875 4.125 -3.9375 1.1875 C-2.9375 0.1875 -2.9375 0.1875 0 0 Z " fill="#CC7E84" transform="translate(190.9375,9.8125)"/>
<path d="M0 0 C5.94 1.485 5.94 1.485 12 3 C11.67 4.98 11.34 6.96 11 9 C9.56068883 8.54738642 8.12361001 8.08767021 6.6875 7.625 C5.88699219 7.36976563 5.08648437 7.11453125 4.26171875 6.8515625 C2 6 2 6 -1 4 C-0.67 2.68 -0.34 1.36 0 0 Z " fill="#69414A" transform="translate(434,400)"/>
<path d="M0 0 C1.32 0.66 2.64 1.32 4 2 C3.67 5.3 3.34 8.6 3 12 C0.03 11.505 0.03 11.505 -3 11 C-3.36923077 3.49230769 -3.36923077 3.49230769 -1.5 1 C-1.005 0.67 -0.51 0.34 0 0 Z " fill="#342925" transform="translate(416,378)"/>
<path d="M0 0 C0.33 0 0.66 0 1 0 C1.33 2.31 1.66 4.62 2 7 C4.475 7.99 4.475 7.99 7 9 C5.41037341 13.03520597 3.71767682 17.01811282 2 21 C1.34 21 0.68 21 0 21 C-0.71148265 13.81949816 -1.25818438 7.12971149 0 0 Z " fill="#3A2E2A" transform="translate(131,417)"/>
<path d="M0 0 C0.33 0 0.66 0 1 0 C1 6.93 1 13.86 1 21 C0.34 21 -0.32 21 -1 21 C-1.83819158 19.37750059 -2.6704116 17.75191503 -3.5 16.125 C-3.9640625 15.22007812 -4.428125 14.31515625 -4.90625 13.3828125 C-6 11 -6 11 -6 9 C-4.02 8.67 -2.04 8.34 0 8 C0 5.36 0 2.72 0 0 Z " fill="#392D29" transform="translate(360,417)"/>
<path d="M0 0 C2.05078125 0.03255208 4.1015625 0.06510417 6.15234375 0.09765625 C5.16234375 3.39765625 4.17234375 6.69765625 3.15234375 10.09765625 C-0.84765625 8.09765625 -0.84765625 8.09765625 -2.84765625 6.09765625 C-3.03515625 3.53515625 -3.03515625 3.53515625 -2.84765625 1.09765625 C-1.84765625 0.09765625 -1.84765625 0.09765625 0 0 Z " fill="#322824" transform="translate(415.84765625,393.90234375)"/>
<path d="M0 0 C0 4.62 0 9.24 0 14 C-0.66 14 -1.32 14 -2 14 C-2.45375 12.7625 -2.9075 11.525 -3.375 10.25 C-4.4384007 7.40754505 -5.55192483 4.67336954 -7 2 C-1.125 0 -1.125 0 0 0 Z " fill="#362C28" transform="translate(376,422)"/>
<path d="M0 0 C2.31 0.66 4.62 1.32 7 2 C5.02 5.96 3.04 9.92 1 14 C0.67 14 0.34 14 0 14 C0 9.38 0 4.76 0 0 Z " fill="#342925" transform="translate(116,422)"/>
<path d="M0 0 C2.125 0.375 2.125 0.375 4 1 C4.625 3.375 4.625 3.375 5 6 C4.34 6.66 3.68 7.32 3 8 C0.875 7.625 0.875 7.625 -1 7 C-1.625 4.625 -1.625 4.625 -2 2 C-1.34 1.34 -0.68 0.68 0 0 Z " fill="#CC7E85" transform="translate(285,13)"/>
<path d="M0 0 C2.125 0.375 2.125 0.375 4 1 C4.625 3.375 4.625 3.375 5 6 C4.34 6.66 3.68 7.32 3 8 C0.875 7.625 0.875 7.625 -1 7 C-1.625 4.625 -1.625 4.625 -2 2 C-1.34 1.34 -0.68 0.68 0 0 Z " fill="#CC7E84" transform="translate(202,13)"/>
<path d="M0 0 C0.66 0.33 1.32 0.66 2 1 C2 3.64 2 6.28 2 9 C1.34 9 0.68 9 0 9 C-1.125 6.1875 -1.125 6.1875 -2 3 C-1.34 2.01 -0.68 1.02 0 0 Z " fill="#372C28" transform="translate(426,383)"/>
<path d="" fill="#797272" transform="translate(0,0)"/>
<path d="" fill="#797272" transform="translate(0,0)"/>
<path d="" fill="#797272" transform="translate(0,0)"/>
</svg>
