<?xml version="1.0" encoding="UTF-8"?>
<svg version="1.1" xmlns="http://www.w3.org/2000/svg" width="500" height="479">
<path d="M0 0 C3.3202152 1.04075976 5.77871451 2.50081805 8.46875 4.64453125 C17.88427105 12.11457957 25.82871553 15.48416634 37.54296875 17.81640625 C77.22296426 25.85781981 122.12780137 52.669433 145.68701172 86.01074219 C148.56779318 90.37530286 151.03470186 94.9775801 153.49926758 99.5859375 C156.1953157 104.62710748 159.16472718 109.26628251 162.5234375 113.8984375 C168.26374835 122.06850956 168.26374835 122.06850956 167.61328125 126.83203125 C167.41089844 127.87746094 167.20851562 128.92289063 167 130 C165.56322552 148.81939036 171.82220076 165.38446706 183.90625 179.72265625 C196.48783397 193.40747613 211.09538243 199.2413873 229 203 C226.36364239 186.07193356 222.63396287 169.65397786 217.90625 153.19140625 C214.32241831 140.57075757 214.32241831 140.57075757 216.375 135.8125 C219.27413664 132.70628218 222.22358343 129.67278469 225.29296875 126.734375 C227.0800373 125.09715894 227.0800373 125.09715894 228 123 C227.34128906 122.89945312 226.68257812 122.79890625 226.00390625 122.6953125 C222.13590131 121.79998756 218.60094631 120.38903367 214.9375 118.875 C214.18597656 118.5644165 213.43445313 118.25383301 212.66015625 117.93383789 C206.09647962 115.15533613 200.01150441 111.83355142 194 108 C193.15566406 107.47277344 192.31132812 106.94554688 191.44140625 106.40234375 C187.10146641 103.6159456 183.60179936 100.72222426 180 97 C179.16082031 96.14664063 178.32164062 95.29328125 177.45703125 94.4140625 C165.89821659 82.22352532 153.85503434 67.38569834 153 50 C153.66 50 154.32 50 155 50 C156.57795199 52.22127087 158.04840247 54.44803045 159.5 56.75 C174.91070587 80.43048152 193.98270574 91.5363994 220 101 C218.85144531 100.39414063 217.70289063 99.78828125 216.51953125 99.1640625 C190.34234186 85.13521551 167.88465447 63.91721897 158 35 C158 34.01 158 33.02 158 32 C157.34 31.67 156.68 31.34 156 31 C156.99 29.515 156.99 29.515 158 28 C162.92564304 33.31640386 167.75500172 38.62391461 172.25 44.3125 C175.89584495 48.80711308 179.7552081 53.00483454 183.8125 57.125 C184.34456055 57.67454346 184.87662109 58.22408691 185.42480469 58.7902832 C194.34309507 67.6967491 204.62210752 74.31967288 215.8125 80 C216.9672583 80.59377441 218.1220166 81.18754883 219.31176758 81.79931641 C230.22426246 87.34209081 241.48825983 91.8682656 253 96 C253 94.35 253 92.7 253 91 C258.08338639 91.69084561 262.52184769 93.79045891 267.1875 95.8125 C268.88767589 96.54116995 270.58819385 97.26904231 272.2890625 97.99609375 C273.50770996 98.51792236 273.50770996 98.51792236 274.75097656 99.05029297 C278.23072288 100.51970386 281.7499797 101.88136319 285.28515625 103.2109375 C287 104 287 104 289 106 C289.22705078 107.97119141 289.22705078 107.97119141 289.1953125 110.3515625 C289.18886719 111.20234375 289.18242187 112.053125 289.17578125 112.9296875 C289.15902344 113.81914063 289.14226562 114.70859375 289.125 115.625 C289.11597656 116.5221875 289.10695313 117.419375 289.09765625 118.34375 C289.0740497 120.56276586 289.0411231 122.78125077 289 125 C286.9754262 123.06745228 285.57894208 121.36841312 284 119 C281.43717258 118.27034634 281.43717258 118.27034634 279 118 C278.82114258 118.5576001 278.64228516 119.1152002 278.45800781 119.68969727 C276.9989633 124.16262189 275.4113259 128.52718986 273.60253906 132.86914062 C264.5828397 154.75198513 259.21097081 178.36519043 258 202 C275.05812972 199.94073029 292.0544266 192.82598746 303 179 C304.92121542 176.12803937 306.75193304 173.22673031 308.51953125 170.2578125 C310 168 310 168 312 167 C312.65772428 163.97065509 312.65772428 163.97065509 313 161 C313.66 161 314.32 161 315 161 C320.14450256 144.20002128 320.14450256 144.20002128 317.76171875 127.52734375 C317 125 317 125 318.30859375 121.80078125 C318.99860495 120.62626912 319.70956468 119.46389237 320.4375 118.3125 C320.80931396 117.69383057 321.18112793 117.07516113 321.56420898 116.43774414 C324.26915337 111.99592255 327.23493911 107.76665064 330.2890625 103.55859375 C332.24185332 100.63832437 333.82748288 97.62168479 335.4375 94.5 C338.67635458 88.35337375 342.43541758 83.21784693 347 78 C347.7734375 77.09378906 348.546875 76.18757813 349.34375 75.25390625 C355.04999878 68.74408763 361.12896619 63.24907771 368 58 C368.53157715 57.58282715 369.0631543 57.1656543 369.61083984 56.73583984 C394.44436913 37.279905 425.48287005 21.74076185 456.55224609 15.63745117 C466.37062393 13.68435947 472.85347655 8.59821673 480.33105469 2.15161133 C482.19969623 0.86220492 483.78346449 0.4188467 486 0 C485.63132282 1.4391346 485.25425733 2.87611735 484.875 4.3125 C484.48441406 5.81683594 484.48441406 5.81683594 484.0859375 7.3515625 C483.2596043 10.12780427 482.35204523 12.71501204 481.2890625 15.3984375 C477.37086145 25.63984094 476.47676749 31.69740025 480.4765625 41.8984375 C492.8412487 73.45652343 485.56962124 117.63899061 472.7956543 148.06152344 C467.45096681 160.12030482 459.29385802 169.78838851 450 179 C450.82242187 179.77601563 451.64484375 180.55203125 452.4921875 181.3515625 C464.6401975 193.02074316 474.3251976 205.54319122 480.3046875 221.4765625 C482.23814788 225.4949525 484.46979766 227.93569511 487.6875 230.9375 C488.19861328 231.43056641 488.70972656 231.92363281 489.23632812 232.43164062 C490.48182545 233.6305773 491.73965166 234.81668483 493 236 C488.67622572 238.88251619 485.27409775 239.12329978 480.125 238.625 C475.48148896 238.58143986 473.65440249 240.76108155 470.44140625 243.8671875 C455.09358496 257.27504418 433.71977897 263.94142204 414 267 C414.31453125 267.45246094 414.6290625 267.90492188 414.953125 268.37109375 C427.59397504 288.51268914 428.32487864 323.62370373 423.8737793 346.12255859 C423.47439268 347.84123966 423.01921918 349.54670951 422.55859375 351.25 C421.5685359 356.12413097 423.01814111 359.45970398 425.65234375 363.5390625 C426.44608398 364.78042969 426.44608398 364.78042969 427.25585938 366.046875 C427.81080078 366.89765625 428.36574219 367.7484375 428.9375 368.625 C429.76411133 369.91277344 429.76411133 369.91277344 430.60742188 371.2265625 C432.71323901 374.50170945 434.84013951 377.76020927 437 381 C436.67 381.99 436.34 382.98 436 384 C431.98378723 381.81977021 429.21668937 379.21668937 426 376 C422.78077503 373.45025987 419.91597098 371.30532366 416 370 C414.31288577 368.3540349 412.6454378 366.68762851 411 365 C408.41554095 363.70777048 406.22528564 363.98919644 403.39013672 364.06567383 C386.8411941 364.48746878 371.56479767 361.44012346 356 356 C354.87722656 355.62359375 353.75445312 355.2471875 352.59765625 354.859375 C345.14429432 352.28858865 345.14429432 352.28858865 344 350 C343.1646875 349.7215625 342.329375 349.443125 341.46875 349.15625 C337.17693785 347.72564595 333.43915662 345.70255731 329.5 343.5 C328.71189941 343.06075195 327.92379883 342.62150391 327.11181641 342.16894531 C319.68082513 337.94969183 312.81599177 333.13848084 306 328 C304.69289063 327.02933594 304.69289063 327.02933594 303.359375 326.0390625 C301.56528035 324.7029011 299.78100307 323.35356233 298 322 C298.6290625 322.969375 299.258125 323.93875 299.90625 324.9375 C325.33004898 364.55666964 325.33004898 364.55666964 325.0625 382.75 C325.05347656 383.54921875 325.04445313 384.3484375 325.03515625 385.171875 C325.01775391 386.07679688 325.01775391 386.07679688 325 387 C323 385.625 323 385.625 321 384 C321 383.34 321 382.68 321 382 C320.34 382 319.68 382 319 382 C318.566875 381.525625 318.13375 381.05125 317.6875 380.5625 C315.41773464 378.46086541 314.08852657 378.29414539 311 378 C308.35332403 378.57698684 305.93210386 379.21833373 303.375 380.0625 C302.66714355 380.29219482 301.95928711 380.52188965 301.22998047 380.75854492 C283.95060924 386.58695094 270.37173161 397.521659 262.26171875 413.875 C258.7967633 422.45693301 258.72322869 430.19415084 258.8125 439.375 C258.81314453 440.65761719 258.81378906 441.94023437 258.81445312 443.26171875 C258.51737963 449.31199058 258.51737963 449.31199058 260 455 C262.35906255 455.65869828 262.35906255 455.65869828 265.30249023 456.0715332 C266.47836197 456.25870407 267.6542337 456.44587494 268.86573792 456.63871765 C270.20072428 456.83945368 271.53584896 457.03927148 272.87109375 457.23828125 C273.56022795 457.34363001 274.24936214 457.44897877 274.9593792 457.55751991 C296.45948138 460.83544966 318.08218455 463.25261268 339.67913818 465.78948975 C346.46935791 466.58827428 353.2586914 467.39455154 360.04806423 468.20049763 C365.3233612 468.82669345 370.59879359 469.45162922 375.87477112 470.07206726 C380.43369716 470.60874008 384.99154501 471.15376376 389.54866409 471.70556259 C391.15694972 471.89873867 392.76561447 472.08878937 394.37467575 472.27539444 C396.50528214 472.52256907 398.63438873 472.78000679 400.76342773 473.0402832 C401.93195786 473.17884232 403.10048798 473.31740143 404.3044281 473.4601593 C407 474 407 474 409 476 C363.4074961 478.29811401 363.4074961 478.29811401 348.50415039 478.01367188 C343.60144368 477.93423753 338.74982134 478.0539359 333.85374451 478.33758545 C316.94526449 479.29617644 300.01387685 479.25908622 283.08349609 479.29516602 C278.39074731 479.30638604 273.69845258 479.34105159 269.005867 479.38033772 C265.3650422 479.40642325 261.72432984 479.4148488 258.0834198 479.41844749 C256.35146381 479.42330537 254.61951258 479.43489654 252.88764954 479.45348549 C250.4813549 479.47778782 248.07630114 479.47693328 245.66992188 479.4699707 C244.61025963 479.48918579 244.61025963 479.48918579 243.52919006 479.50878906 C238.74299535 479.45828625 236.37947831 478.35235229 233 475 C227.48561835 467.61109257 227.22880832 459.79468785 227.1875 450.875 C227.15088257 448.96134644 227.15088257 448.96134644 227.11352539 447.0090332 C227.04984404 443.33907462 227.01873997 439.67043049 227 436 C226.99162109 435.04303223 226.98324219 434.08606445 226.97460938 433.10009766 C226.93780025 428.7323605 226.93809597 424.36767294 227 420 C226.34 419.67 225.68 419.34 225 419 C224.25390625 417.109375 224.25390625 417.109375 223.5625 414.75 C222.43006825 411.15824676 221.21904451 408.08736627 219 405 C218.34 404.67 217.68 404.34 217 404 C216.54496094 403.23429687 216.08992187 402.46859375 215.62109375 401.6796875 C210.64240996 393.44986322 201.40049136 388.19369304 193 384 C192.34 384 191.68 384 191 384 C191 383.34 191 382.68 191 382 C187.02022924 381.1558062 183.02992782 380.55312735 179 380 C179 379.34 179 378.68 179 378 C173.24169504 377.5393356 170.49365922 378.38553498 166 382 C164.29671681 383.6292274 162.61838719 385.28641357 161 387 C158.66613572 382.33227143 161.52461047 375.77155484 163 371 C169.22058401 353.58360087 177.29983767 337.10611153 188 322 C186.453125 323.175625 186.453125 323.175625 184.875 324.375 C183.25157495 325.5854485 181.6263243 326.79344967 180 328 C178.98164063 328.76183594 177.96328125 329.52367187 176.9140625 330.30859375 C168.33330755 336.64141144 159.41948683 342.01064961 150 347 C149.09628662 347.48073975 149.09628662 347.48073975 148.17431641 347.97119141 C138.6512262 353 138.6512262 353 135 353 C134.67 353.66 134.34 354.32 134 355 C131.92138672 355.83789062 131.92138672 355.83789062 129.1796875 356.65625 C127.67559326 357.1056897 127.67559326 357.1056897 126.14111328 357.56420898 C125.0632959 357.87302002 123.98547852 358.18183105 122.875 358.5 C121.77784668 358.81461182 120.68069336 359.12922363 119.55029297 359.45336914 C110.06327124 362.10138117 100.65339596 364.58034147 90.72265625 363.6484375 C78.42221677 362.64451045 72.01613103 366.20804846 62.5 373.9609375 C60.58402239 375.58784984 58.77841689 377.22158311 57 379 C55.64141095 379.90026985 54.26457003 380.77332804 52.875 381.625 C52.15054688 382.07101562 51.42609375 382.51703125 50.6796875 382.9765625 C50.12539063 383.31429688 49.57109375 383.65203125 49 384 C49.74438917 380.8614943 50.75837359 377.97990339 52 375 C52.66 375 53.32 375 54 375 C55.07525194 372.34771188 56.09456151 369.71631546 57 367 C57.66 367 58.32 367 59 367 C59.268125 366.278125 59.53625 365.55625 59.8125 364.8125 C61 362 61 362 62.6875 359.875 C64.73566309 355.38854752 64.06122255 350.7555537 63 346 C62.34 345.67 61.68 345.34 61 345 C60.03510969 286.95813645 60.03510969 286.95813645 72 267 C70.8140625 266.78085937 69.628125 266.56171875 68.40625 266.3359375 C47.11322454 262.23848557 25.70509296 254.70509296 10 239 C7.02156352 238.96802292 4.05515065 239.06849906 1.078125 239.16015625 C-2.05780768 238.99699224 -4.17968552 238.33181517 -7 237 C-6.12848385 235.95541681 -5.25253033 234.91453593 -4.375 233.875 C-3.55322266 232.90046875 -3.55322266 232.90046875 -2.71484375 231.90625 C-1.20242546 230.22501964 0.34658912 228.83686693 2.0625 227.375 C5.7861269 223.75748682 6.95393357 219.16495088 8.66796875 214.37109375 C14.16337814 200.46335679 25.39620124 189.20532616 36 179 C34.86111328 177.87851562 34.86111328 177.87851562 33.69921875 176.734375 C31.07768058 174.07869234 28.7014104 171.32888861 26.33203125 168.453125 C25.0420309 166.87220817 25.0420309 166.87220817 23 166 C20.77956361 162.45967572 18.94063265 158.69919221 17 155 C16.42636719 153.99839844 15.85273438 152.99679688 15.26171875 151.96484375 C6.37520122 135.74842706 3.39258504 117.19552353 1.29370117 99.0168457 C1.04387623 96.99976809 1.04387623 96.99976809 0.46508789 95.08862305 C-3.4298723 77.59708267 1.25284564 53.83887825 6.9375 37 C9.14781376 30.38288758 9.02523344 25.87832953 6.24609375 19.41796875 C5.49895335 17.96818847 4.73780353 16.52531717 3.94921875 15.09765625 C2.64981948 12.22614428 2.05141026 9.32459211 1.375 6.25 C0.98441406 4.49429687 0.98441406 4.49429687 0.5859375 2.703125 C0.39257812 1.81109375 0.19921875 0.9190625 0 0 Z " fill="#8FACE0" transform="translate(7,0)"/>
<path d="M0 0 C3.3202152 1.04075976 5.77871451 2.50081805 8.46875 4.64453125 C17.88427105 12.11457957 25.82871553 15.48416634 37.54296875 17.81640625 C77.91753363 25.99857889 123.73499814 53.51693449 147 88 C149.62422352 92.1691116 152.12514564 96.43878716 154 101 C153.67 101.66 153.34 102.32 153 103 C151.64508116 101.50067938 150.29111322 100.00049946 148.9375 98.5 C148.1125 97.58605469 147.2875 96.67210938 146.4375 95.73046875 C144.40245068 93.45082215 142.41462368 91.14202766 140.4375 88.8125 C136.92291215 84.80379776 133.11133184 81.38618355 129 78 C128.46842285 77.5560791 127.9368457 77.1121582 127.38916016 76.65478516 C115.01171009 66.08618131 115.01171009 66.08618131 101 58 C98.35499542 58.16718738 98.35499542 58.16718738 96 59 C94.00889599 59.38290462 92.00899487 59.72604615 90 60 C89 59 89 59 88.90234375 57.15234375 C88.93489583 55.1015625 88.96744792 53.05078125 89 51 C87.97326172 50.81630859 87.97326172 50.81630859 86.92578125 50.62890625 C83.60807311 49.91575403 80.42563463 48.95146135 77.1875 47.9375 C76.02605469 47.57527344 74.86460938 47.21304688 73.66796875 46.83984375 C72.78753906 46.56269531 71.90710938 46.28554688 71 46 C70.87109375 46.62390625 70.7421875 47.2478125 70.609375 47.890625 C69.77250897 50.78746896 68.60675212 51.55180438 66 53 C63.05042889 53.43164455 61.65848131 53.45412504 59.1875 51.75 C58 50 58 50 58 46 C47.97723793 48.96629539 41.24517351 52.49460608 36.10888672 61.87988281 C29.28162023 75.27391595 28.42296237 88.24007191 28 103 C28.79792969 103.12246094 29.59585938 103.24492188 30.41796875 103.37109375 C33 104 33 104 34.3125 106.0625 C34.6528125 107.0215625 34.6528125 107.0215625 35 108 C34.13375 108.556875 33.2675 109.11375 32.375 109.6875 C30.36887958 111.73934396 30.01026774 112.72359255 29.90234375 115.62890625 C31.07045262 124.51765848 34.15923072 132.77893687 37.3046875 141.12060547 C38.26850864 143.72576529 39.14031118 146.35893674 40 149 C38.35 149.99 36.7 150.98 35 152 C35.495 155.465 35.495 155.465 36 159 C40.0284349 159.18311068 42.48375245 158.94158017 46 157 C46.72703125 157.88751953 46.72703125 157.88751953 47.46875 158.79296875 C52.55540185 164.78934872 57.4437257 169.4812419 65 172 C65 172.66 65 173.32 65 174 C63.41775101 175.08591613 61.78079588 176.0924146 60.125 177.0625 C48.26959589 184.44359242 35.69965169 195.71054749 32.3125 209.875 C32.209375 210.57625 32.10625 211.2775 32 212 C32.66 212 33.32 212 34 212 C34.495 215.465 34.495 215.465 35 219 C34.01 219.66 33.02 220.32 32 221 C32.7177106 229.61252721 36.28389709 235.64877454 42 242 C42.5775 241.690625 43.155 241.38125 43.75 241.0625 C47.65137615 239.22018349 47.65137615 239.22018349 50 239 C52.25 240.4375 52.25 240.4375 54 242 C53.835 242.78375 53.67 243.5675 53.5 244.375 C52.9376293 246.88208039 52.9376293 246.88208039 53 249 C65.09760107 254.51476229 76.72999493 257.30661235 90 258 C89.46890625 258.88300781 88.9378125 259.76601563 88.390625 260.67578125 C84.10786257 267.91154481 80.50547103 274.92315259 78 283 C78.78761719 283.29390625 79.57523437 283.5878125 80.38671875 283.890625 C83.43690169 285.18547097 84.46008202 286.08226066 86 289 C86.5625 291.9375 86.5625 291.9375 86 295 C81.38982772 299.9318122 81.38982772 299.9318122 77.29296875 300.1328125 C76.15794922 300.06707031 76.15794922 300.06707031 75 300 C77.00347996 315.25001806 80.12013903 326.51918616 92.265625 336.6875 C93.97294295 338.06277337 93.97294295 338.06277337 96 339 C96.226875 338.360625 96.45375 337.72125 96.6875 337.0625 C98 335 98 335 100.4375 334.0625 C103 334 103 334 104.75 335.0625 C106.40972267 337.63507013 106.6652378 339.9871402 107 343 C109.31 343 111.62 343 114 343 C113.01 341.515 113.01 341.515 112 340 C112.0625 337.5 112.0625 337.5 113 335 C115.48186404 332.98767781 116.95344353 331.94019677 120.1875 332.125 C122 333 122 333 124 336 C124.1875 338.625 124.1875 338.625 124 341 C123.67 341.33 123.34 341.66 123 342 C129.47041644 342.30704522 134.81097408 341.27717166 141 339.4375 C141.91990723 339.1679248 142.83981445 338.89834961 143.78759766 338.62060547 C152.19302091 336.07841343 160.13068637 332.88114467 168 329 C168.65758301 328.67741211 169.31516602 328.35482422 169.99267578 328.02246094 C177.17721216 324.45374003 183.91653986 320.6814102 190.125 315.54296875 C192.62901891 313.48236986 195.2720883 311.74866134 198 310 C196.27460997 315.58362371 194.2197298 320.88077791 191.7890625 326.19311523 C185.79710073 339.35456986 182.22750309 352.73005834 180 367 C181.155 367.12375 182.31 367.2475 183.5 367.375 C187.78350375 367.90278885 191.83352672 368.88398037 196 370 C196.28085449 369.27079346 196.56170898 368.54158691 196.85107422 367.7902832 C197.90925037 365.22039472 199.08100936 362.80886697 200.3828125 360.35546875 C200.82753906 359.51435547 201.27226562 358.67324219 201.73046875 357.80664062 C202.19066406 356.94232422 202.65085938 356.07800781 203.125 355.1875 C203.82689453 353.86202148 203.82689453 353.86202148 204.54296875 352.50976562 C205.69307603 350.33864475 206.84548146 348.1687774 208 346 C208.33 346 208.66 346 209 346 C209 356.23 209 366.46 209 377 C210.65 377.33 212.3 377.66 214 378 C216.29285389 378.97036372 218.56335752 379.99472529 220.8125 381.0625 C221.97394531 381.61035156 223.13539063 382.15820312 224.33203125 382.72265625 C225.65267578 383.35494141 225.65267578 383.35494141 227 384 C227.30550781 382.84371094 227.30550781 382.84371094 227.6171875 381.6640625 C228.81157959 378.49926087 230.12035718 375.92540334 231.8203125 373.0234375 C232.35527344 372.10433594 232.89023438 371.18523437 233.44140625 370.23828125 C234.55560859 368.34336172 235.68566381 366.45766676 236.83203125 364.58203125 C240.9121041 357.47895043 241.77810341 352.11275191 241 344 C240.92620117 343.13391113 240.85240234 342.26782227 240.77636719 341.37548828 C240.51899408 338.86194139 240.18534972 336.37391737 239.8125 333.875 C239.68085449 332.98264648 239.54920898 332.09029297 239.41357422 331.17089844 C236.78284414 314.42557484 232.86170929 296.87263422 218.55078125 286.16796875 C216.39557634 284.72327095 214.22593862 283.33253468 212 282 C214.46348798 280.35767468 216.09457499 279.5363358 218.8125 278.625 C226.64901302 275.70242476 231.1886686 271.39846683 235 264 C237.3614051 258.03921438 238.70033888 252.07735198 239.625 245.75 C239.74979736 244.93168701 239.87459473 244.11337402 240.00317383 243.27026367 C240.99796645 236.52983403 241.6456375 229.8062038 242 223 C242.66 223 243.32 223 244 223 C244.04487549 223.56807373 244.08975098 224.13614746 244.13598633 224.72143555 C245.45841015 241.04201595 245.45841015 241.04201595 249 257 C249.43119141 258.47726562 249.43119141 258.47726562 249.87109375 259.984375 C252.38144337 267.69250247 255.62069978 273.43473741 262.9375 277.3125 C266.54040018 278.92998698 270.1725552 280.0431388 274 281 C273.360625 281.495 272.72125 281.99 272.0625 282.5 C270.5465625 283.7375 270.5465625 283.7375 269 285 C268.29875 285.55945313 267.5975 286.11890625 266.875 286.6953125 C250.86803222 300.05247818 247.34876218 321.16065221 245.3125 340.9375 C245.16516163 342.62177977 245.06870988 344.31068478 245 346 C244.92587891 346.70753418 244.85175781 347.41506836 244.77539062 348.14404297 C244.27036738 355.83652056 246.98484526 360.76937608 250.875 367.25 C251.98079591 369.1485823 253.08249315 371.0495589 254.1796875 372.953125 C254.67194824 373.77973633 255.16420898 374.60634766 255.67138672 375.45800781 C257 378 257 378 259 384 C267.415 380.04 267.415 380.04 276 376 C276.33 366.1 276.66 356.2 277 346 C281.50600282 351.63250353 281.50600282 351.63250353 283.359375 355.13671875 C283.75253906 355.87857422 284.14570313 356.62042969 284.55078125 357.38476562 C285.14439453 358.52461914 285.14439453 358.52461914 285.75 359.6875 C286.16121094 360.45900391 286.57242187 361.23050781 286.99609375 362.02539062 C290 367.73880035 290 367.73880035 290 370 C291.22976563 369.67515625 291.22976563 369.67515625 292.484375 369.34375 C293.56203125 369.0653125 294.6396875 368.786875 295.75 368.5 C296.81734375 368.2215625 297.8846875 367.943125 298.984375 367.65625 C302 367 302 367 306 367 C303.01721149 351.76976175 299.31840961 337.71216313 293.02734375 323.53515625 C292.70040527 322.79773193 292.3734668 322.06030762 292.03662109 321.30053711 C291.40000968 319.87877162 290.75358235 318.46134998 290.09619141 317.04907227 C289.34031824 315.39092568 288.66252998 313.69760077 288 312 C288.33 311.34 288.66 310.68 289 310 C289.72058594 310.64324219 290.44117188 311.28648437 291.18359375 311.94921875 C303.38060362 322.36615613 318.05810634 330.22503669 333 336 C332.97679687 335.30132812 332.95359375 334.60265625 332.9296875 333.8828125 C332.91164063 332.97273438 332.89359375 332.06265625 332.875 331.125 C332.85179687 330.22007812 332.82859375 329.31515625 332.8046875 328.3828125 C333 326 333 326 335 324 C339.0420892 323.44880602 340.74861698 323.85296465 344.3125 325.9375 C347 328 347 328 348 329 C347.66651653 333.50202682 347.41479355 336.00746586 344 339 C359.02985882 344.101043 374.74005564 345.88283611 389.56640625 339.2890625 C392.14912861 337.97331674 392.14912861 337.97331674 395 336 C395.08798769 333.66832622 395.07905064 331.33199388 395 329 C395.28520405 327.32442621 395.59955696 325.65182755 396 324 C398.97 324 401.94 324 405 324 C407.91345714 316.94264508 409.59721052 310.34967241 410.41015625 302.75 C411.05404168 299.7480441 411.77467391 298.97739574 414 297 C414.06546898 294.48952515 414.06546898 294.48952515 413 292 C412.01966797 291.07767578 412.01966797 291.07767578 411.01953125 290.13671875 C408.74305065 287.72814063 408.36708672 286.45486972 407.75 283.25 C405.59530682 274.34232986 401.06969263 265.60453894 396 258 C397.07636719 257.90203125 398.15273438 257.8040625 399.26171875 257.703125 C407.72017377 256.86136195 415.40227549 255.59971711 423.4609375 252.8046875 C426 252 426 252 429 252 C428.938125 250.576875 428.938125 250.576875 428.875 249.125 C429 246 429 246 431 244 C432.91796875 244.234375 432.91796875 244.234375 435.1875 244.75 C437.94149411 245.11690451 439.46573926 245.26554346 441.97265625 244.01953125 C448.03308315 239.05131316 451.93655561 232.50762133 454 225 C454.47889213 217.9302535 454.13651906 210.98147423 453 204 C453.33 203.67 453.66 203.34 454 203 C454.30523962 198.34911285 454.30523962 198.34911285 453 194 C451.5459375 194.556875 451.5459375 194.556875 450.0625 195.125 C448.109375 195.40625 448.109375 195.40625 446 195 C443.56789541 192.8092493 441.61357192 190.38232141 439.5390625 187.8515625 C434.48481007 182.17524823 427.92288851 177.15723181 421 174 C421 173.34 421 172.68 421 172 C421.64066406 171.72027344 422.28132813 171.44054687 422.94140625 171.15234375 C438.34689956 164.01209275 445.15200457 150.39124594 451 135 C455.5603325 122.14135753 457.2368716 109.57565258 458 96 C456.7625 96.103125 455.525 96.20625 454.25 96.3125 C450.88404781 96.30058512 450.25391616 96.21485214 447.5625 93.9375 C445.60699853 90.26115723 444.78636143 88.2015586 445 84 C447.35333049 80.41244999 450.11661632 76.94169184 454 75 C453.61840774 66.41417411 449.34830516 58.77217905 443.0625 53 C436.48463496 47.41370272 430.15397692 46.4665089 421.8125 46.5625 C420.87704346 46.57152344 419.94158691 46.58054688 418.9777832 46.58984375 C411.67229786 46.77240165 405.65073528 47.86402416 399 51 C398.38850098 51.27908203 397.77700195 51.55816406 397.14697266 51.84570312 C379.99385332 59.72584866 363.77638607 70.52841634 350.71875 84.25 C349.08096649 85.91756139 347.38579374 87.35386501 345.5625 88.8125 C340.67096505 92.87745613 336.90888784 98.01860552 333 103 C332.67 102.34 332.34 101.68 332 101 C335.68618715 92.40306183 340.86350719 85.01472275 347 78 C347.7734375 77.09378906 348.546875 76.18757813 349.34375 75.25390625 C355.04999878 68.74408763 361.12896619 63.24907771 368 58 C368.53157715 57.58282715 369.0631543 57.1656543 369.61083984 56.73583984 C394.44436913 37.279905 425.48287005 21.74076185 456.55224609 15.63745117 C466.37062393 13.68435947 472.85347655 8.59821673 480.33105469 2.15161133 C482.19969623 0.86220492 483.78346449 0.4188467 486 0 C485.63132282 1.4391346 485.25425733 2.87611735 484.875 4.3125 C484.48441406 5.81683594 484.48441406 5.81683594 484.0859375 7.3515625 C483.2596043 10.12780427 482.35204523 12.71501204 481.2890625 15.3984375 C477.37086145 25.63984094 476.47676749 31.69740025 480.4765625 41.8984375 C492.8412487 73.45652343 485.56962124 117.63899061 472.7956543 148.06152344 C467.45096681 160.12030482 459.29385802 169.78838851 450 179 C450.82242187 179.77601563 451.64484375 180.55203125 452.4921875 181.3515625 C464.6401975 193.02074316 474.3251976 205.54319122 480.3046875 221.4765625 C482.23814788 225.4949525 484.46979766 227.93569511 487.6875 230.9375 C488.19861328 231.43056641 488.70972656 231.92363281 489.23632812 232.43164062 C490.48182545 233.6305773 491.73965166 234.81668483 493 236 C488.67622572 238.88251619 485.27409775 239.12329978 480.125 238.625 C475.48148896 238.58143986 473.65440249 240.76108155 470.44140625 243.8671875 C455.09358496 257.27504418 433.71977897 263.94142204 414 267 C414.31453125 267.45246094 414.6290625 267.90492188 414.953125 268.37109375 C427.59397504 288.51268914 428.32487864 323.62370373 423.8737793 346.12255859 C423.47439268 347.84123966 423.01921918 349.54670951 422.55859375 351.25 C421.5685359 356.12413097 423.01814111 359.45970398 425.65234375 363.5390625 C426.44608398 364.78042969 426.44608398 364.78042969 427.25585938 366.046875 C427.81080078 366.89765625 428.36574219 367.7484375 428.9375 368.625 C429.76411133 369.91277344 429.76411133 369.91277344 430.60742188 371.2265625 C432.71323901 374.50170945 434.84013951 377.76020927 437 381 C436.67 381.99 436.34 382.98 436 384 C431.98378723 381.81977021 429.21668937 379.21668937 426 376 C422.78077503 373.45025987 419.91597098 371.30532366 416 370 C414.31288577 368.3540349 412.6454378 366.68762851 411 365 C408.41554095 363.70777048 406.22528564 363.98919644 403.39013672 364.06567383 C386.8411941 364.48746878 371.56479767 361.44012346 356 356 C354.87722656 355.62359375 353.75445312 355.2471875 352.59765625 354.859375 C345.14429432 352.28858865 345.14429432 352.28858865 344 350 C343.1646875 349.7215625 342.329375 349.443125 341.46875 349.15625 C337.17693785 347.72564595 333.43915662 345.70255731 329.5 343.5 C328.71189941 343.06075195 327.92379883 342.62150391 327.11181641 342.16894531 C319.68082513 337.94969183 312.81599177 333.13848084 306 328 C304.69289063 327.02933594 304.69289063 327.02933594 303.359375 326.0390625 C301.56528035 324.7029011 299.78100307 323.35356233 298 322 C298.6290625 322.969375 299.258125 323.93875 299.90625 324.9375 C325.33004898 364.55666964 325.33004898 364.55666964 325.0625 382.75 C325.05347656 383.54921875 325.04445313 384.3484375 325.03515625 385.171875 C325.01775391 386.07679688 325.01775391 386.07679688 325 387 C323 385.625 323 385.625 321 384 C321 383.34 321 382.68 321 382 C320.34 382 319.68 382 319 382 C318.566875 381.525625 318.13375 381.05125 317.6875 380.5625 C315.41773464 378.46086541 314.08852657 378.29414539 311 378 C308.35332403 378.57698684 305.93210386 379.21833373 303.375 380.0625 C302.66714355 380.29219482 301.95928711 380.52188965 301.22998047 380.75854492 C283.95060924 386.58695094 270.37173161 397.521659 262.26171875 413.875 C258.7967633 422.45693301 258.72322869 430.19415084 258.8125 439.375 C258.81314453 440.65761719 258.81378906 441.94023437 258.81445312 443.26171875 C258.51737963 449.31199058 258.51737963 449.31199058 260 455 C262.35906255 455.65869828 262.35906255 455.65869828 265.30249023 456.0715332 C266.47836197 456.25870407 267.6542337 456.44587494 268.86573792 456.63871765 C270.20072428 456.83945368 271.53584896 457.03927148 272.87109375 457.23828125 C273.56022795 457.34363001 274.24936214 457.44897877 274.9593792 457.55751991 C296.45948138 460.83544966 318.08218455 463.25261268 339.67913818 465.78948975 C346.46935791 466.58827428 353.2586914 467.39455154 360.04806423 468.20049763 C365.3233612 468.82669345 370.59879359 469.45162922 375.87477112 470.07206726 C380.43369716 470.60874008 384.99154501 471.15376376 389.54866409 471.70556259 C391.15694972 471.89873867 392.76561447 472.08878937 394.37467575 472.27539444 C396.50528214 472.52256907 398.63438873 472.78000679 400.76342773 473.0402832 C401.93195786 473.17884232 403.10048798 473.31740143 404.3044281 473.4601593 C407 474 407 474 409 476 C363.4074961 478.29811401 363.4074961 478.29811401 348.50415039 478.01367188 C343.60144368 477.93423753 338.74982134 478.0539359 333.85374451 478.33758545 C316.94526449 479.29617644 300.01387685 479.25908622 283.08349609 479.29516602 C278.39074731 479.30638604 273.69845258 479.34105159 269.005867 479.38033772 C265.3650422 479.40642325 261.72432984 479.4148488 258.0834198 479.41844749 C256.35146381 479.42330537 254.61951258 479.43489654 252.88764954 479.45348549 C250.4813549 479.47778782 248.07630114 479.47693328 245.66992188 479.4699707 C244.61025963 479.48918579 244.61025963 479.48918579 243.52919006 479.50878906 C238.74299535 479.45828625 236.37947831 478.35235229 233 475 C227.48561835 467.61109257 227.22880832 459.79468785 227.1875 450.875 C227.15088257 448.96134644 227.15088257 448.96134644 227.11352539 447.0090332 C227.04984404 443.33907462 227.01873997 439.67043049 227 436 C226.99162109 435.04303223 226.98324219 434.08606445 226.97460938 433.10009766 C226.93780025 428.7323605 226.93809597 424.36767294 227 420 C226.34 419.67 225.68 419.34 225 419 C224.25390625 417.109375 224.25390625 417.109375 223.5625 414.75 C222.43006825 411.15824676 221.21904451 408.08736627 219 405 C218.34 404.67 217.68 404.34 217 404 C216.54496094 403.23429687 216.08992187 402.46859375 215.62109375 401.6796875 C210.64240996 393.44986322 201.40049136 388.19369304 193 384 C192.34 384 191.68 384 191 384 C191 383.34 191 382.68 191 382 C187.02022924 381.1558062 183.02992782 380.55312735 179 380 C179 379.34 179 378.68 179 378 C173.24169504 377.5393356 170.49365922 378.38553498 166 382 C164.29671681 383.6292274 162.61838719 385.28641357 161 387 C158.66613572 382.33227143 161.52461047 375.77155484 163 371 C169.22058401 353.58360087 177.29983767 337.10611153 188 322 C186.453125 323.175625 186.453125 323.175625 184.875 324.375 C183.25157495 325.5854485 181.6263243 326.79344967 180 328 C178.98164063 328.76183594 177.96328125 329.52367187 176.9140625 330.30859375 C168.33330755 336.64141144 159.41948683 342.01064961 150 347 C149.09628662 347.48073975 149.09628662 347.48073975 148.17431641 347.97119141 C138.6512262 353 138.6512262 353 135 353 C134.67 353.66 134.34 354.32 134 355 C131.92138672 355.83789062 131.92138672 355.83789062 129.1796875 356.65625 C127.67559326 357.1056897 127.67559326 357.1056897 126.14111328 357.56420898 C125.0632959 357.87302002 123.98547852 358.18183105 122.875 358.5 C121.77784668 358.81461182 120.68069336 359.12922363 119.55029297 359.45336914 C110.06327124 362.10138117 100.65339596 364.58034147 90.72265625 363.6484375 C78.42221677 362.64451045 72.01613103 366.20804846 62.5 373.9609375 C60.58402239 375.58784984 58.77841689 377.22158311 57 379 C55.64141095 379.90026985 54.26457003 380.77332804 52.875 381.625 C52.15054688 382.07101562 51.42609375 382.51703125 50.6796875 382.9765625 C50.12539063 383.31429688 49.57109375 383.65203125 49 384 C49.74438917 380.8614943 50.75837359 377.97990339 52 375 C52.66 375 53.32 375 54 375 C55.07525194 372.34771188 56.09456151 369.71631546 57 367 C57.66 367 58.32 367 59 367 C59.268125 366.278125 59.53625 365.55625 59.8125 364.8125 C61 362 61 362 62.6875 359.875 C64.73566309 355.38854752 64.06122255 350.7555537 63 346 C62.34 345.67 61.68 345.34 61 345 C60.03510969 286.95813645 60.03510969 286.95813645 72 267 C70.8140625 266.78085937 69.628125 266.56171875 68.40625 266.3359375 C47.11322454 262.23848557 25.70509296 254.70509296 10 239 C7.02156352 238.96802292 4.05515065 239.06849906 1.078125 239.16015625 C-2.05780768 238.99699224 -4.17968552 238.33181517 -7 237 C-6.12848385 235.95541681 -5.25253033 234.91453593 -4.375 233.875 C-3.55322266 232.90046875 -3.55322266 232.90046875 -2.71484375 231.90625 C-1.20242546 230.22501964 0.34658912 228.83686693 2.0625 227.375 C5.7861269 223.75748682 6.95393357 219.16495088 8.66796875 214.37109375 C14.16337814 200.46335679 25.39620124 189.20532616 36 179 C34.86111328 177.87851562 34.86111328 177.87851562 33.69921875 176.734375 C31.07768058 174.07869234 28.7014104 171.32888861 26.33203125 168.453125 C25.0420309 166.87220817 25.0420309 166.87220817 23 166 C20.77956361 162.45967572 18.94063265 158.69919221 17 155 C16.42636719 153.99839844 15.85273438 152.99679688 15.26171875 151.96484375 C6.37520122 135.74842706 3.39258504 117.19552353 1.29370117 99.0168457 C1.04387623 96.99976809 1.04387623 96.99976809 0.46508789 95.08862305 C-3.4298723 77.59708267 1.25284564 53.83887825 6.9375 37 C9.14781376 30.38288758 9.02523344 25.87832953 6.24609375 19.41796875 C5.49895335 17.96818847 4.73780353 16.52531717 3.94921875 15.09765625 C2.64981948 12.22614428 2.05141026 9.32459211 1.375 6.25 C0.98441406 4.49429687 0.98441406 4.49429687 0.5859375 2.703125 C0.39257812 1.81109375 0.19921875 0.9190625 0 0 Z " fill="#525A80" transform="translate(7,0)"/>
<path d="M0 0 C-0.36867718 1.4391346 -0.74574267 2.87611735 -1.125 4.3125 C-1.38539063 5.31539063 -1.64578125 6.31828125 -1.9140625 7.3515625 C-2.7403957 10.12780427 -3.64795477 12.71501204 -4.7109375 15.3984375 C-8.62913855 25.63984094 -9.52323251 31.69740025 -5.5234375 41.8984375 C6.8412487 73.45652343 -0.43037876 117.63899061 -13.2043457 148.06152344 C-18.54903319 160.12030482 -26.70614198 169.78838851 -36 179 C-35.17757812 179.77601563 -34.35515625 180.55203125 -33.5078125 181.3515625 C-21.3598025 193.02074316 -11.6748024 205.54319122 -5.6953125 221.4765625 C-3.76185212 225.4949525 -1.53020234 227.93569511 1.6875 230.9375 C2.19861328 231.43056641 2.70972656 231.92363281 3.23632812 232.43164062 C4.48182545 233.6305773 5.73965166 234.81668483 7 236 C2.67622572 238.88251619 -0.72590225 239.12329978 -5.875 238.625 C-10.51851104 238.58143986 -12.34559751 240.76108155 -15.55859375 243.8671875 C-30.90641504 257.27504418 -52.28022103 263.94142204 -72 267 C-71.52820313 267.67869141 -71.52820313 267.67869141 -71.046875 268.37109375 C-58.40602496 288.51268914 -57.67512136 323.62370373 -62.1262207 346.12255859 C-62.52560732 347.84123966 -62.98078082 349.54670951 -63.44140625 351.25 C-64.4314641 356.12413097 -62.98185889 359.45970398 -60.34765625 363.5390625 C-59.81849609 364.36664063 -59.28933594 365.19421875 -58.74414062 366.046875 C-58.18919922 366.89765625 -57.63425781 367.7484375 -57.0625 368.625 C-56.51142578 369.48351562 -55.96035156 370.34203125 -55.39257812 371.2265625 C-53.28676099 374.50170945 -51.15986049 377.76020927 -49 381 C-49.33 381.99 -49.66 382.98 -50 384 C-54.01621277 381.81977021 -56.78331063 379.21668937 -60 376 C-63.21922497 373.45025987 -66.08402902 371.30532366 -70 370 C-71.68711423 368.3540349 -73.3545622 366.68762851 -75 365 C-77.58445905 363.70777048 -79.77471436 363.98919644 -82.60986328 364.06567383 C-99.1588059 364.48746878 -114.43520233 361.44012346 -130 356 C-131.68416016 355.43539062 -131.68416016 355.43539062 -133.40234375 354.859375 C-140.85570568 352.28858865 -140.85570568 352.28858865 -142 350 C-142.8353125 349.7215625 -143.670625 349.443125 -144.53125 349.15625 C-148.8230139 347.72566203 -152.56097061 345.70272175 -156.5 343.5 C-157.28737549 343.06075195 -158.07475098 342.62150391 -158.88598633 342.16894531 C-167.88440639 337.05610326 -176.38209191 331.25097081 -184.1875 324.4375 C-186.80981981 321.85097573 -186.80981981 321.85097573 -190 321 C-191.1875 318.9375 -191.1875 318.9375 -192 317 C-191.34 316.67 -190.68 316.34 -190 316 C-188.05798826 317.17697681 -186.17315543 318.44821454 -184.3125 319.75 C-174.52421741 326.37589378 -163.71397438 331.08331313 -153 336 C-153.02320313 335.30132812 -153.04640625 334.60265625 -153.0703125 333.8828125 C-153.08835937 332.97273438 -153.10640625 332.06265625 -153.125 331.125 C-153.14820313 330.22007812 -153.17140625 329.31515625 -153.1953125 328.3828125 C-153 326 -153 326 -151 324 C-146.9579108 323.44880602 -145.25138302 323.85296465 -141.6875 325.9375 C-139 328 -139 328 -138 329 C-138.33348347 333.50202682 -138.58520645 336.00746586 -142 339 C-126.97014118 344.101043 -111.25994436 345.88283611 -96.43359375 339.2890625 C-93.85087139 337.97331674 -93.85087139 337.97331674 -91 336 C-90.91201231 333.66832622 -90.92094936 331.33199388 -91 329 C-90.71479595 327.32442621 -90.40044304 325.65182755 -90 324 C-87.03 324 -84.06 324 -81 324 C-78.08654286 316.94264508 -76.40278948 310.34967241 -75.58984375 302.75 C-74.94595832 299.7480441 -74.22532609 298.97739574 -72 297 C-71.93453102 294.48952515 -71.93453102 294.48952515 -73 292 C-73.98033203 291.07767578 -73.98033203 291.07767578 -74.98046875 290.13671875 C-77.25694935 287.72814063 -77.63291328 286.45486972 -78.25 283.25 C-80.40469318 274.34232986 -84.93030737 265.60453894 -90 258 C-88.92363281 257.90203125 -87.84726562 257.8040625 -86.73828125 257.703125 C-78.27982623 256.86136195 -70.59772451 255.59971711 -62.5390625 252.8046875 C-60 252 -60 252 -57 252 C-57.04125 251.05125 -57.0825 250.1025 -57.125 249.125 C-57 246 -57 246 -55 244 C-53.08203125 244.234375 -53.08203125 244.234375 -50.8125 244.75 C-48.05850589 245.11690451 -46.53426074 245.26554346 -44.02734375 244.01953125 C-37.96691685 239.05131316 -34.06344439 232.50762133 -32 225 C-31.52110787 217.9302535 -31.86348094 210.98147423 -33 204 C-32.67 203.67 -32.34 203.34 -32 203 C-31.69476038 198.34911285 -31.69476038 198.34911285 -33 194 C-33.969375 194.37125 -34.93875 194.7425 -35.9375 195.125 C-37.890625 195.40625 -37.890625 195.40625 -40 195 C-42.43210459 192.8092493 -44.38642808 190.38232141 -46.4609375 187.8515625 C-51.51518993 182.17524823 -58.07711149 177.15723181 -65 174 C-65 173.34 -65 172.68 -65 172 C-64.35933594 171.72027344 -63.71867188 171.44054687 -63.05859375 171.15234375 C-47.65310044 164.01209275 -40.84799543 150.39124594 -35 135 C-30.4396675 122.14135753 -28.7631284 109.57565258 -28 96 C-29.2375 96.103125 -30.475 96.20625 -31.75 96.3125 C-35.11595219 96.30058512 -35.74608384 96.21485214 -38.4375 93.9375 C-40.39300147 90.26115723 -41.21363857 88.2015586 -41 84 C-38.64666951 80.41244999 -35.88338368 76.94169184 -32 75 C-32.38159226 66.41417411 -36.65169484 58.77217905 -42.9375 53 C-49.51536504 47.41370272 -55.84602308 46.4665089 -64.1875 46.5625 C-65.12295654 46.57152344 -66.05841309 46.58054688 -67.0222168 46.58984375 C-74.32770214 46.77240165 -80.34926472 47.86402416 -87 51 C-87.91724854 51.41862305 -87.91724854 51.41862305 -88.85302734 51.84570312 C-106.00614668 59.72584866 -122.22361393 70.52841634 -135.28125 84.25 C-136.91903351 85.91756139 -138.61420626 87.35386501 -140.4375 88.8125 C-145.32903495 92.87745613 -149.09111216 98.01860552 -153 103 C-153.33 102.34 -153.66 101.68 -154 101 C-150.31381285 92.40306183 -145.13649281 85.01472275 -139 78 C-138.2265625 77.09378906 -137.453125 76.18757813 -136.65625 75.25390625 C-130.95000122 68.74408763 -124.87103381 63.24907771 -118 58 C-117.46842285 57.58282715 -116.9368457 57.1656543 -116.38916016 56.73583984 C-91.55610471 37.28027623 -60.51652897 21.73928238 -29.44726562 15.63745117 C-19.59481141 13.67708948 -13.00548534 8.5499767 -5.44189453 2.15161133 C-3.55544738 0.64494502 -2.44050906 0 0 0 Z " fill="#525A80" transform="translate(493,0)"/>
<path d="M0 0 C0.66 0 1.32 0 2 0 C2.06731323 0.8521106 2.06731323 0.8521106 2.13598633 1.72143555 C3.45841015 18.04201595 3.45841015 18.04201595 7 34 C7.28746094 34.98484375 7.57492187 35.9696875 7.87109375 36.984375 C10.38144337 44.69250247 13.62069978 50.43473741 20.9375 54.3125 C24.54040018 55.92998698 28.1725552 57.0431388 32 58 C31.360625 58.495 30.72125 58.99 30.0625 59.5 C29.051875 60.325 28.04125 61.15 27 62 C26.29875 62.55945313 25.5975 63.11890625 24.875 63.6953125 C8.86803222 77.05247818 5.34876218 98.16065221 3.3125 117.9375 C3.16516163 119.62177977 3.06870988 121.31068478 3 123 C2.92587891 123.70753418 2.85175781 124.41506836 2.77539062 125.14404297 C2.27036738 132.83652056 4.98484526 137.76937608 8.875 144.25 C9.98079591 146.1485823 11.08249315 148.0495589 12.1796875 149.953125 C12.67194824 150.77973633 13.16420898 151.60634766 13.67138672 152.45800781 C15 155 15 155 17 161 C22.61 158.36 28.22 155.72 34 153 C34.33 143.1 34.66 133.2 35 123 C39.50600282 128.63250353 39.50600282 128.63250353 41.359375 132.13671875 C41.75253906 132.87857422 42.14570313 133.62042969 42.55078125 134.38476562 C43.14439453 135.52461914 43.14439453 135.52461914 43.75 136.6875 C44.16121094 137.45900391 44.57242188 138.23050781 44.99609375 139.02539062 C48 144.73880035 48 144.73880035 48 147 C48.81984375 146.7834375 49.6396875 146.566875 50.484375 146.34375 C52.10085938 145.92609375 52.10085938 145.92609375 53.75 145.5 C55.35101563 145.08234375 55.35101563 145.08234375 56.984375 144.65625 C60 144 60 144 64 144 C61.01721149 128.76976175 57.31840961 114.71216313 51.02734375 100.53515625 C50.70040527 99.79773193 50.3734668 99.06030762 50.03662109 98.30053711 C49.40000968 96.87877162 48.75358235 95.46134998 48.09619141 94.04907227 C47.34031824 92.39092568 46.66252998 90.69760077 46 89 C46.33 88.34 46.66 87.68 47 87 C47.969375 87.7425 48.93875 88.485 49.9375 89.25 C50.48277344 89.66765625 51.02804687 90.0853125 51.58984375 90.515625 C53 92 53 92 53.44921875 93.86889648 C54.04444657 96.17197432 54.89075625 97.62117111 56.22265625 99.58203125 C56.67463379 100.25830566 57.12661133 100.93458008 57.59228516 101.63134766 C58.07745605 102.35112793 58.56262695 103.0709082 59.0625 103.8125 C83.34140278 140.78461109 83.34140278 140.78461109 83.0625 159.75 C83.05347656 160.54921875 83.04445313 161.3484375 83.03515625 162.171875 C83.01775391 163.07679688 83.01775391 163.07679688 83 164 C81 162.625 81 162.625 79 161 C79 160.34 79 159.68 79 159 C78.34 159 77.68 159 77 159 C76.566875 158.525625 76.13375 158.05125 75.6875 157.5625 C73.41773464 155.46086541 72.08852657 155.29414539 69 155 C66.35332403 155.57698684 63.93210386 156.21833373 61.375 157.0625 C60.66714355 157.29219482 59.95928711 157.52188965 59.22998047 157.75854492 C41.95060924 163.58695094 28.37173161 174.521659 20.26171875 190.875 C16.7967633 199.45693301 16.72322869 207.19415084 16.8125 216.375 C16.81314453 217.65761719 16.81378906 218.94023437 16.81445312 220.26171875 C16.51737963 226.31199058 16.51737963 226.31199058 18 232 C20.35906255 232.65869828 20.35906255 232.65869828 23.30249023 233.0715332 C25.06629784 233.35228951 25.06629784 233.35228951 26.86573792 233.63871765 C28.20072428 233.83945368 29.53584896 234.03927148 30.87109375 234.23828125 C31.90479505 234.39630439 31.90479505 234.39630439 32.9593792 234.55751991 C54.45948138 237.83544966 76.08218455 240.25261268 97.67913818 242.78948975 C104.46935791 243.58827428 111.2586914 244.39455154 118.04806423 245.20049763 C123.3233612 245.82669345 128.59879359 246.45162922 133.87477112 247.07206726 C138.43369716 247.60874008 142.99154501 248.15376376 147.54866409 248.70556259 C149.15694972 248.89873867 150.76561447 249.08878937 152.37467575 249.27539444 C154.50528214 249.52256907 156.63438873 249.78000679 158.76342773 250.0402832 C159.93195786 250.17884232 161.10048798 250.31740143 162.3044281 250.4601593 C165 251 165 251 167 253 C121.4074961 255.29811401 121.4074961 255.29811401 106.50415039 255.01367188 C101.60144368 254.93423753 96.74982134 255.0539359 91.85374451 255.33758545 C74.94526449 256.29617644 58.01387685 256.25908622 41.08349609 256.29516602 C36.39074731 256.30638604 31.69845258 256.34105159 27.005867 256.38033772 C23.3650422 256.40642325 19.72432984 256.4148488 16.0834198 256.41844749 C14.35146381 256.42330537 12.61951258 256.43489654 10.88764954 256.45348549 C8.4813549 256.47778782 6.07630114 256.47693328 3.66992188 256.4699707 C2.61025963 256.48918579 2.61025963 256.48918579 1.52919006 256.50878906 C-3.25700465 256.45828625 -5.62052169 255.35235229 -9 252 C-14.51438165 244.61109257 -14.77119168 236.79468785 -14.8125 227.875 C-14.84911743 225.96134644 -14.84911743 225.96134644 -14.88647461 224.0090332 C-14.95015596 220.33907462 -14.98126003 216.67043049 -15 213 C-15.00837891 212.04303223 -15.01675781 211.08606445 -15.02539062 210.10009766 C-15.06219975 205.7323605 -15.06190403 201.36767294 -15 197 C-15.66 196.67 -16.32 196.34 -17 196 C-17.74609375 194.109375 -17.74609375 194.109375 -18.4375 191.75 C-19.56993175 188.15824676 -20.78095549 185.08736627 -23 182 C-23.66 181.67 -24.32 181.34 -25 181 C-25.45503906 180.23429688 -25.91007812 179.46859375 -26.37890625 178.6796875 C-31.35759004 170.44986322 -40.59950864 165.19369304 -49 161 C-49.66 161 -50.32 161 -51 161 C-51 160.34 -51 159.68 -51 159 C-54.97977076 158.1558062 -58.97007218 157.55312735 -63 157 C-63 156.34 -63 155.68 -63 155 C-68.75830496 154.5393356 -71.50634078 155.38553498 -76 159 C-77.70328319 160.6292274 -79.38161281 162.28641357 -81 164 C-83.33386428 159.33227143 -80.47538953 152.77155484 -79 148 C-62.12342804 100.74895203 -62.12342804 100.74895203 -46 90 C-46.56274528 95.76813916 -48.85644012 100.37468985 -51.25 105.5625 C-56.76896318 117.9243205 -59.91594387 130.64901541 -62 144 C-60.2675 144.185625 -60.2675 144.185625 -58.5 144.375 C-54.21649625 144.90278885 -50.16647328 145.88398037 -46 147 C-45.71914551 146.27079346 -45.43829102 145.54158691 -45.14892578 144.7902832 C-44.09074963 142.22039472 -42.91899064 139.80886697 -41.6171875 137.35546875 C-41.17246094 136.51435547 -40.72773438 135.67324219 -40.26953125 134.80664062 C-39.80933594 133.94232422 -39.34914062 133.07800781 -38.875 132.1875 C-38.40707031 131.30384766 -37.93914062 130.42019531 -37.45703125 129.50976562 C-36.30692397 127.33864475 -35.15451854 125.1687774 -34 123 C-33.67 123 -33.34 123 -33 123 C-33 133.23 -33 143.46 -33 154 C-31.35 154.33 -29.7 154.66 -28 155 C-25.70714611 155.97036372 -23.43664248 156.99472529 -21.1875 158.0625 C-20.02605469 158.61035156 -18.86460937 159.15820312 -17.66796875 159.72265625 C-16.78753906 160.14417969 -15.90710938 160.56570313 -15 161 C-14.79632813 160.22914063 -14.59265625 159.45828125 -14.3828125 158.6640625 C-13.18842041 155.49926087 -11.87964282 152.92540334 -10.1796875 150.0234375 C-9.37724609 148.64478516 -9.37724609 148.64478516 -8.55859375 147.23828125 C-7.44439141 145.34336172 -6.31433619 143.45766676 -5.16796875 141.58203125 C-1.0878959 134.47895043 -0.22189659 129.11275191 -1 121 C-1.07379883 120.13391113 -1.14759766 119.26782227 -1.22363281 118.37548828 C-1.48100592 115.86194139 -1.81465028 113.37391737 -2.1875 110.875 C-2.31914551 109.98264648 -2.45079102 109.09029297 -2.58642578 108.17089844 C-5.21715586 91.42557484 -9.13829071 73.87263422 -23.44921875 63.16796875 C-25.60442366 61.72327095 -27.77406138 60.33253468 -30 59 C-27.53651202 57.35767468 -25.90542501 56.5363358 -23.1875 55.625 C-15.35098698 52.70242476 -10.8113314 48.39846683 -7 41 C-4.6385949 35.03921438 -3.29966112 29.07735198 -2.375 22.75 C-2.25020264 21.93168701 -2.12540527 21.11337402 -1.99682617 20.27026367 C-1.00203355 13.52983403 -0.3543625 6.8062038 0 0 Z " fill="#525A80" transform="translate(249,223)"/>
<path d="M0 0 C4.98544172 3.70712333 8.56657066 8.05196332 12.4375 12.890625 C16.60154653 18.02015234 21.15262578 22.80991766 25.68847656 27.609375 C26.76673787 28.75266919 27.83412476 29.90620962 28.8984375 31.0625 C37.42122197 40.04260461 47.85714802 46.4389812 58.8125 52 C59.9672583 52.59377441 61.1220166 53.18754883 62.31176758 53.79931641 C73.22426246 59.34209081 84.48825983 63.8682656 96 68 C96 66.35 96 64.7 96 63 C100.40958108 63.66607439 104.26572186 65.26624729 108.3125 67.0625 C108.95767578 67.34416016 109.60285156 67.62582031 110.26757812 67.91601562 C111.84698358 68.6062743 113.42376493 69.30253198 115 70 C114.21625 70.94875 113.4325 71.8975 112.625 72.875 C109.88408958 76.66891555 109.06993867 80.18959498 108.359375 84.765625 C108 87 108 87 107 90 C104.84619802 91.35431768 102.61147833 92.41194276 100.32421875 93.5234375 C97.38421338 95.39120561 95.90416432 97.0638792 94 100 C93.61838596 102.8048168 93.46162722 105.20263029 93.50390625 108 C93.50136337 108.78077408 93.4988205 109.56154816 93.49620056 110.36598206 C93.49609059 112.91128996 93.52771419 115.45494727 93.5625 118 C93.57295603 119.7564288 93.5833724 121.51285784 93.59375 123.26928711 C93.73633086 137.39379525 94.84328114 151.27541716 96.72460938 165.27563477 C97.02027495 168.20057461 97.04542667 171.06213854 97 174 C92.71884147 169.22486164 89.96240159 163.63843769 87 158 C86.34 158 85.68 158 85 158 C84.39671875 159.14339844 83.7934375 160.28679687 83.171875 161.46484375 C82.36528017 162.95610628 81.55795013 164.44697132 80.75 165.9375 C80.35425781 166.69224609 79.95851563 167.44699219 79.55078125 168.22460938 C79.15761719 168.94326172 78.76445312 169.66191406 78.359375 170.40234375 C78.00327148 171.06741943 77.64716797 171.73249512 77.28027344 172.41772461 C75.6746419 174.40210638 74.47830334 174.63191251 72 175 C71.86537354 174.13556274 71.86537354 174.13556274 71.72802734 173.25366211 C69.14194016 156.92073414 65.46918134 141.08018501 60.90625 125.19140625 C57.32241831 112.57075757 57.32241831 112.57075757 59.375 107.8125 C62.27413664 104.70628218 65.22358343 101.67278469 68.29296875 98.734375 C70.0800373 97.09715894 70.0800373 97.09715894 71 95 C70.34128906 94.89945312 69.68257813 94.79890625 69.00390625 94.6953125 C65.13590131 93.79998756 61.60094631 92.38903367 57.9375 90.875 C57.18597656 90.5644165 56.43445313 90.25383301 55.66015625 89.93383789 C49.09647962 87.15533613 43.01150441 83.83355142 37 80 C36.15566406 79.47277344 35.31132812 78.94554688 34.44140625 78.40234375 C30.10146641 75.6159456 26.60179936 72.72222426 23 69 C22.16082031 68.14664063 21.32164062 67.29328125 20.45703125 66.4140625 C8.89821659 54.22352532 -3.14496566 39.38569834 -4 22 C-3.34 22 -2.68 22 -2 22 C-0.42204801 24.22127087 1.04840247 26.44803045 2.5 28.75 C17.91070587 52.43048152 36.98270574 63.5363994 63 73 C61.85144531 72.39414063 60.70289063 71.78828125 59.51953125 71.1640625 C33.34234186 57.13521551 10.88465447 35.91721897 1 7 C1 6.01 1 5.02 1 4 C0.34 3.67 -0.32 3.34 -1 3 C-0.67 2.01 -0.34 1.02 0 0 Z " fill="#525A7F" transform="translate(164,28)"/>
<path d="M0 0 C0.66 0 1.32 0 2 0 C3.17333984 1.55712891 3.17333984 1.55712891 4.4609375 3.7265625 C4.93273437 4.51160156 5.40453125 5.29664063 5.890625 6.10546875 C6.38046875 6.93691406 6.8703125 7.76835937 7.375 8.625 C8.34003404 10.24285119 9.30615959 11.86005187 10.2734375 13.4765625 C10.70060059 14.19924316 11.12776367 14.92192383 11.56787109 15.66650391 C13.03340603 18.14100674 13.03340603 18.14100674 15.14819336 20.82666016 C17.37533279 24.64318729 17.45102046 26.90769751 17.35546875 31.296875 C17.34342155 32.30914154 17.34342155 32.30914154 17.33113098 33.34185791 C17.30233663 35.47873642 17.24610337 37.61375026 17.1875 39.75 C17.14495583 41.90028343 17.10812588 44.05052515 17.07600403 46.20098877 C17.04447474 48.14167824 16.99759731 50.08210026 16.94995117 52.02246094 C16.78429937 54.92869734 16.78429937 54.92869734 18 57 C20.35906255 57.65869828 20.35906255 57.65869828 23.30249023 58.0715332 C24.47836197 58.25870407 25.6542337 58.44587494 26.86573792 58.63871765 C28.20072428 58.83945368 29.53584896 59.03927148 30.87109375 59.23828125 C31.56022795 59.34363001 32.24936214 59.44897877 32.9593792 59.55751991 C54.45948138 62.83544966 76.08218455 65.25261268 97.67913818 67.78948975 C104.46935791 68.58827428 111.2586914 69.39455154 118.04806423 70.20049763 C123.3233612 70.82669345 128.59879359 71.45162922 133.87477112 72.07206726 C138.43369716 72.60874008 142.99154501 73.15376376 147.54866409 73.70556259 C149.15694972 73.89873867 150.76561447 74.08878937 152.37467575 74.27539444 C154.50528214 74.52256907 156.63438873 74.78000679 158.76342773 75.0402832 C159.93195786 75.17884232 161.10048798 75.31740143 162.3044281 75.4601593 C165 76 165 76 167 78 C121.4074961 80.29811401 121.4074961 80.29811401 106.50415039 80.01367188 C101.60144368 79.93423753 96.74982134 80.0539359 91.85374451 80.33758545 C74.94526449 81.29617644 58.01387685 81.25908622 41.08349609 81.29516602 C36.39074731 81.30638604 31.69845258 81.34105159 27.005867 81.38033772 C23.3650422 81.40642325 19.72432984 81.4148488 16.0834198 81.41844749 C14.35146381 81.42330537 12.61951258 81.43489654 10.88764954 81.45348549 C8.4813549 81.47778782 6.07630114 81.47693328 3.66992188 81.4699707 C2.96348038 81.48278076 2.25703888 81.49559082 1.52919006 81.50878906 C-3.25704694 81.4582858 -5.62031519 80.3521188 -9 77 C-14.54654311 69.5836887 -14.77047751 61.7054604 -14.8125 52.75 C-14.83763672 51.52925781 -14.86277344 50.30851562 -14.88867188 49.05078125 C-14.93424512 46.58982624 -14.95792659 44.12836848 -14.9597168 41.66699219 C-14.98644922 39.23353168 -15.08375739 36.7997735 -15.25317383 34.37207031 C-15.7574749 25.02936436 -13.46445208 19.7675854 -8.0625 12.25 C-7.40314453 11.280625 -6.74378906 10.31125 -6.06445312 9.3125 C-4.85735768 7.53961726 -3.6369496 5.77566649 -2.39868164 4.02441406 C-0.97156086 2.06019109 -0.97156086 2.06019109 0 0 Z " fill="#181A1D" transform="translate(249,398)"/>
<path d="M0 0 C0 3.64897014 -0.79636443 4.30159192 -3 7.125 C-6.35205922 11.76053607 -8.89193071 16.52757111 -11.3125 21.6875 C-11.64958984 22.39986816 -11.98667969 23.11223633 -12.33398438 23.84619141 C-16.62466848 33.17951284 -19.26529848 43.22875899 -15.8125 53.3125 C-14.59010233 56.01286342 -13.13302257 58.33823258 -11.38671875 60.73046875 C-10.93901123 61.34688232 -10.49130371 61.9632959 -10.0300293 62.59838867 C-9.69011963 63.06092041 -9.35020996 63.52345215 -9 64 C-9.58789307 64.0093457 -10.17578613 64.01869141 -10.78149414 64.02832031 C-48.4224174 64.77710123 -79.0940668 82.38762128 -106 108 C-106 105 -106 105 -104.78515625 103.5625 C-104.21667969 103.046875 -103.64820312 102.53125 -103.0625 102 C-98.23868152 97.36990917 -94.14871285 92.23334365 -90 87 C-89.58814453 86.48630859 -89.17628906 85.97261719 -88.75195312 85.44335938 C-76.98684431 70.74150537 -64.76715428 54.48412616 -64.875 35 C-64.87113281 34.30132812 -64.86726563 33.60265625 -64.86328125 32.8828125 C-64.87036343 29.12925702 -65.10212977 25.64848855 -66 22 C-65.48953125 22.3609375 -64.9790625 22.721875 -64.453125 23.09375 C-57.93817804 27.25222678 -52.62643548 28.10109483 -45 27 C-27.96479071 23.01964027 -12.05623388 12.60555869 0 0 Z " fill="#191C1F" transform="translate(219,215)"/>
<path d="M0 0 C0.67482422 0.51046875 0.67482422 0.51046875 1.36328125 1.03125 C2.75385364 2.07905605 4.14741689 3.12289772 5.54296875 4.1640625 C7.1976848 5.40049579 8.84603768 6.64548557 10.48828125 7.8984375 C23.89261533 17.9467235 37.56764232 27.06378038 55 25 C58.03452044 23.96359456 60.25029832 22.7120784 63 21 C63.99 20.505 63.99 20.505 65 20 C64.84273438 20.66 64.68546875 21.32 64.5234375 22 C62.46328953 33.80741523 63.67133438 44.24372801 69 55 C69.65162109 56.36318359 69.65162109 56.36318359 70.31640625 57.75390625 C76.97063561 70.7779962 86.43372732 82.04200312 96 93 C96.70769531 93.81984375 97.41539062 94.6396875 98.14453125 95.484375 C100.68516812 98.41546764 103.2316045 101.28104014 106 104 C105.67 104.66 105.34 105.32 105 106 C104.34257812 105.35675781 103.68515625 104.71351563 103.0078125 104.05078125 C79.8384189 82.04299681 50.53221641 63.47580505 17.875 62.375 C16.44027344 62.31699219 16.44027344 62.31699219 14.9765625 62.2578125 C12.65121801 62.16479872 10.32585665 62.07896229 8 62 C8.41717285 61.46020508 8.8343457 60.92041016 9.26416016 60.36425781 C9.80862793 59.65108398 10.3530957 58.93791016 10.9140625 58.203125 C11.45498535 57.49833008 11.9959082 56.79353516 12.55322266 56.06738281 C16.85160737 49.92517529 16.81085987 42.20384979 16 35 C13.30232906 24.20931622 7.9946965 12.60733393 1.2578125 3.6953125 C0 2 0 2 0 0 Z " fill="#191C1F" transform="translate(282,217)"/>
<path d="M0 0 C0.66 0 1.32 0 2 0 C2.06731323 0.8521106 2.06731323 0.8521106 2.13598633 1.72143555 C3.45841015 18.04201595 3.45841015 18.04201595 7 34 C7.28746094 34.98484375 7.57492187 35.9696875 7.87109375 36.984375 C10.38144337 44.69250247 13.62069978 50.43473741 20.9375 54.3125 C24.54040018 55.92998698 28.1725552 57.0431388 32 58 C31.360625 58.495 30.72125 58.99 30.0625 59.5 C29.051875 60.325 28.04125 61.15 27 62 C26.29875 62.55945313 25.5975 63.11890625 24.875 63.6953125 C5.95237199 79.48547844 4.43891013 106.07424481 2 129 C1.34 129 0.68 129 0 129 C-0.09498779 128.2157666 -0.18997559 127.4315332 -0.2878418 126.62353516 C-3.57145612 92.92585767 -3.57145612 92.92585767 -21 65 C-23.90395323 62.82782446 -26.88929668 60.86218974 -30 59 C-27.53651202 57.35767468 -25.90542501 56.5363358 -23.1875 55.625 C-15.35098698 52.70242476 -10.8113314 48.39846683 -7 41 C-4.6385949 35.03921438 -3.29966112 29.07735198 -2.375 22.75 C-2.25020264 21.93168701 -2.12540527 21.11337402 -1.99682617 20.27026367 C-1.00203355 13.52983403 -0.3543625 6.8062038 0 0 Z " fill="#1B1D1F" transform="translate(249,223)"/>
<path d="M0 0 C0 3 0 3 -1.43359375 4.65625 C-2.42552734 5.56890625 -2.42552734 5.56890625 -3.4375 6.5 C-6.6518473 9.59028477 -9.52564778 12.76894993 -12.3125 16.25 C-15.57321005 20.31326003 -18.95194924 24.19095452 -22.5 28 C-26.77623968 32.60176657 -30.82314728 37.33354644 -34.7578125 42.234375 C-36.28774623 44.12147095 -37.84658082 45.98540918 -39.4296875 47.828125 C-52.53932436 63.10228134 -64.7711637 80.49470603 -67 101 C-69 100 -69 100 -70.625 96.75 C-73.66072009 91.25410527 -78.46328162 88.85265295 -84.265625 86.90234375 C-88.20831788 85.94966378 -91.89023808 85.58989886 -95.9375 85.375 C-96.62134766 85.33632812 -97.30519531 85.29765625 -98.00976562 85.2578125 C-99.67279513 85.16477588 -101.33635847 85.08136213 -103 85 C-102.61328125 84.56429687 -102.2265625 84.12859375 -101.828125 83.6796875 C-101.04695313 82.78636719 -101.04695313 82.78636719 -100.25 81.875 C-99.73953125 81.29492188 -99.2290625 80.71484375 -98.703125 80.1171875 C-89.09702922 68.17566476 -88.33345703 54.70545504 -88 40 C-87.56429688 40.39832031 -87.12859375 40.79664063 -86.6796875 41.20703125 C-80.74907969 46.48296157 -75.93062653 49.69157333 -67.76953125 49.41015625 C-48.04515626 46.48905699 -30.45137721 28.57385271 -16.50195312 15.40478516 C-14.20148232 13.25314195 -11.85050731 11.15918033 -9.5 9.0625 C-6.22799639 6.13155214 -3.0545751 3.15639427 0 0 Z " fill="#1A1C1F" transform="translate(437,59)"/>
<path d="M0 0 C4.89358733 4.13445391 9.60248873 8.40523006 14.25 12.8125 C20.29327193 18.49100188 26.47921531 23.87118797 33 29 C34.50433594 30.23169922 34.50433594 30.23169922 36.0390625 31.48828125 C46.44362202 39.89650581 58.35009377 48.46089754 72.14453125 48.3515625 C76.62426009 47.8000227 79.54249462 45.77183976 83 43 C84.34964844 41.92492187 84.34964844 41.92492187 85.7265625 40.828125 C86.47679687 40.22484375 87.22703125 39.6215625 88 39 C88.01417969 40.19753906 88.02835937 41.39507812 88.04296875 42.62890625 C88.43508592 58.79915083 91.05516337 72.26720189 103 84 C102.02160156 84.03738281 101.04320312 84.07476562 100.03515625 84.11328125 C90.0558378 84.61371905 80.95720663 85.33815259 73 92 C71.46244333 94.26320223 70.26449912 96.56132313 69 99 C68.34 99.66 67.68 100.32 67 101 C66.85304688 100.06800781 66.70609375 99.13601562 66.5546875 98.17578125 C63.19266683 79.06636494 53.39177167 63.66735156 41 49 C40.16726562 48.00613281 39.33453125 47.01226562 38.4765625 45.98828125 C35.66701291 42.64518248 32.83452924 39.3219186 30 36 C29.49887695 35.41105957 28.99775391 34.82211914 28.48144531 34.21533203 C22.09436895 26.70960371 15.61864554 19.30333301 9 12 C7.68248773 10.54619335 6.3696417 9.08813804 5.0625 7.625 C4.51722656 7.01914063 3.97195312 6.41328125 3.41015625 5.7890625 C1.95631429 3.94457602 1.01821055 2.10839101 0 0 Z " fill="#1A1C1F" transform="translate(63,60)"/>
<path d="M0 0 C0.33 0 0.66 0 1 0 C1.08636719 0.99 1.17273438 1.98 1.26171875 3 C2.2041216 12.35062531 3.58485974 19.0213849 10.765625 25.4921875 C24.58901735 36.72634235 44.30577157 40.95941643 61.08203125 45.734375 C62.16693848 46.0452002 63.2518457 46.35602539 64.36962891 46.67626953 C66.56160225 47.30305455 68.75527271 47.92393801 70.95068359 48.53857422 C71.9608252 48.82748535 72.9709668 49.11639648 74.01171875 49.4140625 C74.92397217 49.6713916 75.83622559 49.9287207 76.77612305 50.19384766 C79 51 79 51 81 53 C79.77410156 52.81824219 78.54820312 52.63648438 77.28515625 52.44921875 C72.56855629 51.75663942 67.84840075 51.09166698 63.12646484 50.43652344 C61.0791868 50.15067828 59.03259669 49.85985115 56.98681641 49.56347656 C22.04461741 44.05752687 22.04461741 44.05752687 -10.5625 54.375 C-14.33462276 57.21021564 -16.70347264 59.90619036 -19 64 C-19.33 64 -19.66 64 -20 64 C-20.02578125 62.865625 -20.0515625 61.73125 -20.078125 60.5625 C-20.21677667 49.10568367 -20.21677667 49.10568367 -25 39 C-25.50015625 38.30132812 -26.0003125 37.60265625 -26.515625 36.8828125 C-32.35983676 29.53943338 -40.13394511 24.90604205 -48 20 C-47.34 19.67 -46.68 19.34 -46 19 C-45.0925 19.309375 -44.185 19.61875 -43.25 19.9375 C-33.26152425 22.94857897 -22.26391622 21.53111722 -13 17 C-6.26152794 12.77303833 -3.02235061 7.22167431 0 0 Z " fill="#1B1D21" transform="translate(369,167)"/>
<path d="M0 0 C1.05584551 1.58376826 2.10125188 3.17785442 3.04296875 4.83203125 C7.68867667 12.87085007 13.09946715 17.3940029 21.9765625 20.3125 C31.00943686 22.36648693 40.07786531 21.0025633 49 19 C46.83518574 21.32089805 44.62888972 22.95448224 41.9375 24.625 C33.34782255 30.3140849 24.81621324 36.66502877 22 47 C21.21914104 52.64157497 21.07258476 58.3119944 21 64 C18.84741719 61.85649982 16.71749047 59.70262155 14.625 57.5 C4.59498428 47.94760408 -7.86774126 46.32080837 -21.3125 46.5625 C-23.262771 46.58014404 -23.262771 46.58014404 -25.25244141 46.59814453 C-36.42002337 46.7933963 -47.33710712 47.94223068 -58.37011719 49.61083984 C-62.40473543 50.20786746 -66.45131801 50.69688961 -70.5 51.1875 C-72.66666667 51.45833333 -74.83333333 51.72916667 -77 52 C-74.4153876 50.27692507 -72.76051881 49.48514057 -69.87426758 48.59887695 C-69.04522415 48.34133133 -68.21618073 48.08378571 -67.36201477 47.81843567 C-66.01686043 47.40750923 -66.01686043 47.40750923 -64.64453125 46.98828125 C-62.7219326 46.38890473 -60.79940912 45.78928705 -58.87695312 45.18945312 C-55.86605444 44.25600888 -52.85435359 43.32535766 -49.84106445 42.3996582 C-40.04784048 39.38404445 -30.3094497 36.37167824 -20.90234375 32.28125 C-20.27101028 32.00763138 -19.63967682 31.73401276 -18.98921204 31.45210266 C-11.55888091 28.08637437 -5.88234411 23.71440661 -2.5 16.1875 C-0.68989109 10.89704532 -0.21147716 5.56184943 0 0 Z " fill="#1A1D20" transform="translate(130,167)"/>
<path d="M0 0 C6.09430732 1.07214666 13.43799817 2.43799817 18 7 C18.08651611 8.41570123 18.10704904 9.835595 18.09765625 11.25390625 C18.09443359 12.10791016 18.09121094 12.96191406 18.08789062 13.84179688 C18.07532227 15.18854492 18.07532227 15.18854492 18.0625 16.5625 C18.05798828 17.46419922 18.05347656 18.36589844 18.04882812 19.29492188 C18.03700225 21.53001314 18.0205222 23.76497437 18 26 C15.9754262 24.06745228 14.57894208 22.36841312 13 20 C10.43717258 19.27034634 10.43717258 19.27034634 8 19 C7.82114258 19.5576001 7.64228516 20.1152002 7.45800781 20.68969727 C5.9989633 25.16262189 4.4113259 29.52718986 2.60253906 33.86914062 C-6.4171603 55.75198513 -11.78902919 79.36519043 -13 103 C-14.98 103.495 -14.98 103.495 -17 104 C-19.48867192 85.79662246 -21.42331783 67.64532778 -21.59912109 49.25686646 C-21.61628569 47.552693 -21.64352589 45.84858936 -21.68115234 44.14474487 C-21.97899495 29.13779051 -21.97899495 29.13779051 -18.1640625 24.515625 C-15.05114983 21.68108701 -11.3303378 19 -7 19 C-6.87044922 17.69675781 -6.87044922 17.69675781 -6.73828125 16.3671875 C-5.88550459 9.37285418 -5.26355637 4.84801244 0 0 Z " fill="#DADABB" transform="translate(278,99)"/>
<path d="M0 0 C0.22042969 1.0209375 0.22042969 1.0209375 0.4453125 2.0625 C3.65000246 15.9126543 8.51665174 28.00845058 16.14453125 39.98828125 C18 43 18 43 19 46 C13.98916329 45.49042339 10.78769313 44.91507725 6 43 C6 46.96 6 50.92 6 55 C1.51862573 52.53963766 -1.93127312 50.2549815 -6 47 C-6 52.28 -6 57.56 -6 63 C-17.00483092 57.25120773 -17.00483092 57.25120773 -20 53 C-20.3665681 49.7008871 -20.34806446 47.25016951 -20 44 C-19.90460938 42.95457031 -19.80921875 41.90914063 -19.7109375 40.83203125 C-18.59668504 31.16425257 -13.17578413 0 0 0 Z " fill="#DAE1CD" transform="translate(273,288)"/>
<path d="M0 0 C7.0544428 2.994665 10.80959892 10.05224254 13.75 16.8125 C17.16030503 25.62993339 19.33157942 34.57355596 20 44 C20.12246094 44.75023437 20.24492187 45.50046875 20.37109375 46.2734375 C20.65093795 48.7963406 20.68067346 50.54610716 20 53 C16.02940341 57.92726485 11.85117794 60.65952882 6 63 C6 57.72 6 52.44 6 47 C4.205625 48.32 2.41125 49.64 0.5625 51 C-4.875 55 -4.875 55 -6 55 C-6 51.04 -6 47.08 -6 43 C-7.216875 43.495 -8.43375 43.99 -9.6875 44.5 C-12.92486738 45.72479441 -15.50099357 46.32803185 -19 46 C-17.57513564 42.02918511 -15.6449999 38.81812362 -13.3125 35.3125 C-6.54232672 24.69924861 -1.80921118 12.4634548 0 0 Z " fill="#DBE1CD" transform="translate(227,288)"/>
<path d="M0 0 C1.62987396 3.06502847 2.77137627 6.14943096 3.875 9.4375 C5.35800595 13.60775733 6.8795598 16.76811551 10 20 C8.7508258 23.45925163 7.32472205 26.14693203 5 29 C6.98 29 8.96 29 11 29 C11 33.67325155 9.92757363 35.82359047 8 40 C11.3 40.33 14.6 40.66 18 41 C16.66666667 44.33333333 15.33333333 47.66666667 14 51 C16.64 52.32 19.28 53.64 22 55 C20.768606 58.69418201 18.79208646 60.35109746 16 63 C16.804375 63.309375 17.60875 63.61875 18.4375 63.9375 C21 65 21 65 22 66 C22.04080783 67.99958364 22.04254356 70.00045254 22 72 C16.69690939 70.96525061 13.96306031 68.57003469 10.66796875 64.50390625 C1.67923766 51.01028417 0.31505265 32.77915736 1 17 C0.34 17 -0.32 17 -1 17 C-0.94779297 18.07701172 -0.94779297 18.07701172 -0.89453125 19.17578125 C-0.48077932 34.9968669 -2.16773703 53.99198727 -12.4375 66.6875 C-15.31443106 69.68430319 -17.84499801 71.1892679 -22 72 C-22.3125 69.1875 -22.3125 69.1875 -22 66 C-19.5 64.125 -19.5 64.125 -17 63 C-18.36983503 59.83884224 -18.9890638 59.0072908 -22 57 C-22 56.34 -22 55.68 -22 55 C-19.36 53.68 -16.72 52.36 -14 51 C-14.28875 50.278125 -14.5775 49.55625 -14.875 48.8125 C-15.91666667 46.20833333 -16.95833333 43.60416667 -18 41 C-13.05 40.505 -13.05 40.505 -8 40 C-8.66 38.741875 -9.32 37.48375 -10 36.1875 C-11.45328458 33.41717626 -12 32.19610552 -12 29 C-9.69 29 -7.38 29 -5 29 C-6.65 26.69 -8.3 24.38 -10 22 C-9.0304409 20.04795434 -8.05422575 18.10252399 -7.03515625 16.17578125 C-4.76009814 11.8175374 -3.05629922 7.4850416 -1.61328125 2.78515625 C-1 1 -1 1 0 0 Z " fill="#D8DECB" transform="translate(250,206)"/>
<path d="M0 0 C10.55808656 1.92710706 10.55808656 1.92710706 15 4 C15.125 11.625 15.125 11.625 14 15 C12.07421875 16.2109375 12.07421875 16.2109375 9.6875 17.375 C5.83655963 19.41985546 3.29375595 21.17707342 1 25 C-0.26063524 29.68110009 -0.33055217 34.49482957 -0.5625 39.3125 C-0.60568359 40.14845703 -0.64886719 40.98441406 -0.69335938 41.84570312 C-0.79885307 43.89696935 -0.89987315 45.9484648 -1 48 C-1.33 48 -1.66 48 -2 48 C-2 44.04 -2 40.08 -2 36 C-3.3921875 36.928125 -3.3921875 36.928125 -4.8125 37.875 C-6.875 39.25 -8.9375 40.625 -11 42 C-10.5317879 37.22423661 -9.75668002 33.95523655 -7 30 C-9.64 30 -12.28 30 -15 30 C-15 29.34 -15 28.68 -15 28 C-12.76084562 26.20415295 -10.4215085 24.58931343 -8.06640625 22.94921875 C-5.61412615 20.63600935 -5.17311614 19.33248578 -5 16 C-6.37168238 13.80961577 -6.37168238 13.80961577 -8 12 C-8 11.34 -8 10.68 -8 10 C-4.17010894 8.19769832 -1.21878192 7.80377759 3 8 C2.01 5.36 1.02 2.72 0 0 Z " fill="#1B1D20" transform="translate(257,103)"/>
<path d="M0 0 C4.88442171 1.61233338 8.69664143 4.38164832 12.8125 7.375 C13.85180664 8.09816406 13.85180664 8.09816406 14.91210938 8.8359375 C15.8934082 9.5475 15.8934082 9.5475 16.89453125 10.2734375 C17.49112549 10.70060059 18.08771973 11.12776367 18.70239258 11.56787109 C20 13 20 13 20 17 C18.79296875 18.74609375 18.79296875 18.74609375 17.1875 20.4375 C15.21679401 22.58904725 13.75897348 24.40458023 12.25 26.9375 C11.8375 27.618125 11.425 28.29875 11 29 C10.34 29 9.68 29 9 29 C8.73445312 28.18015625 8.46890625 27.3603125 8.1953125 26.515625 C7.84210937 25.43796875 7.48890625 24.3603125 7.125 23.25 C6.60292969 21.64898438 6.60292969 21.64898438 6.0703125 20.015625 C5.12356889 17.12335353 5.12356889 17.12335353 3.96875 15.03125 C2.61613034 12.19511201 2.04901717 9.31371442 1.375 6.25 C1.11460938 5.07953125 0.85421875 3.9090625 0.5859375 2.703125 C0.39257812 1.81109375 0.19921875 0.9190625 0 0 Z " fill="#1B1E22" transform="translate(7,0)"/>
<path d="M0 0 C-2.47108733 9.8409969 -5.73693992 19.40090092 -9 29 C-9.66 29 -10.32 29 -11 29 C-12.62109375 26.91796875 -12.62109375 26.91796875 -14.4375 24.1875 C-16.4448038 21.18304744 -18.3356715 18.45248587 -21 16 C-19.60228167 12.66739396 -18.10401673 11.04560571 -15.15625 8.984375 C-14.40472656 8.45585937 -13.65320313 7.92734375 -12.87890625 7.3828125 C-12.09386719 6.84398437 -11.30882812 6.30515625 -10.5 5.75 C-9.71496094 5.19570312 -8.92992187 4.64140625 -8.12109375 4.0703125 C-2.27628541 0 -2.27628541 0 0 0 Z " fill="#1B1D21" transform="translate(493,0)"/>
<path d="M0 0 C13.8630137 3.8630137 13.8630137 3.8630137 17 7 C17.08651611 8.41570123 17.10704904 9.835595 17.09765625 11.25390625 C17.09443359 12.10791016 17.09121094 12.96191406 17.08789062 13.84179688 C17.07951172 14.73962891 17.07113281 15.63746094 17.0625 16.5625 C17.05798828 17.46419922 17.05347656 18.36589844 17.04882812 19.29492188 C17.03700225 21.53001314 17.0205222 23.76497437 17 26 C14.9754262 24.06745228 13.57894208 22.36841312 12 20 C9.11404054 19.41518879 9.11404054 19.41518879 5.875 19.3125 C4.77929688 19.24675781 3.68359375 19.18101563 2.5546875 19.11328125 C1.71164062 19.07589844 0.86859375 19.03851563 0 19 C0.99169609 16.44023743 1.94081001 14.09685635 3.375 11.75 C4.38626964 7.3004136 2.06092336 3.90894142 0 0 Z " fill="#1B1E21" transform="translate(279,99)"/>
<path d="M0 0 C0.66 0.61875 1.32 1.2375 2 1.875 C5.70411034 4.49874482 8.57924515 5.10086342 13 6 C9.25691553 9.97123438 5.29555827 13.09105118 0.8125 16.1875 C-3.80217966 19.33487238 -3.80217966 19.33487238 -8 23 C-9.35858905 23.90026985 -10.73542997 24.77332804 -12.125 25.625 C-12.84945312 26.07101562 -13.57390625 26.51703125 -14.3203125 26.9765625 C-14.87460937 27.31429688 -15.42890625 27.65203125 -16 28 C-15.25561083 24.8614943 -14.24162641 21.97990339 -13 19 C-12.34 19 -11.68 19 -11 19 C-9.92474806 16.34771188 -8.90543849 13.71631546 -8 11 C-7.34 11 -6.68 11 -6 11 C-5.7525 10.29875 -5.505 9.5975 -5.25 8.875 C-3.83911974 5.62997541 -2.02104602 2.89683263 0 0 Z " fill="#1C1E24" transform="translate(72,356)"/>
<path d="M0 0 C4.55351199 4.29844103 7.5349453 9.26908832 10.8125 14.5625 C11.42287109 15.52091797 12.03324219 16.47933594 12.66210938 17.46679688 C13.23380859 18.38654297 13.80550781 19.30628906 14.39453125 20.25390625 C14.91893799 21.09252197 15.44334473 21.9311377 15.98364258 22.79516602 C17 25 17 25 16 28 C11.98378723 25.81977021 9.21668937 23.21668937 6 20 C2.78077503 17.45025987 -0.08402902 15.30532366 -4 14 C-5.70884005 12.37660195 -7.37446717 10.70680947 -9 9 C-9.9976443 7.99764983 -10.99708881 6.99708031 -12 6 C-11.07767578 5.72736328 -11.07767578 5.72736328 -10.13671875 5.44921875 C-8.92435547 5.07216797 -8.92435547 5.07216797 -7.6875 4.6875 C-6.48673828 4.32205078 -6.48673828 4.32205078 -5.26171875 3.94921875 C-2.90035427 2.95817977 -1.66120007 1.91925057 0 0 Z " fill="#1C1E23" transform="translate(427,356)"/>
<path d="M0 0 C4.25310335 0 5.73781585 0.75491482 8.875 3.6875 C11.23404045 7.36482777 11.88584568 8.74794075 11 13 C8.875 16.375 8.875 16.375 6 19 C2.29326397 19.75647674 0.77963477 19.51291762 -2.375 17.4375 C-4.61158898 14.08261653 -4.4109196 11.97222282 -4 8 C-3.0804117 4.51870145 -2.54972745 2.54972745 0 0 Z " fill="#535C82" transform="translate(47,61)"/>
<path d="M0 0 C4.78313793 1.51046461 5.97834362 2.844991 8.5625 7.125 C8.5625 10.375 8.5625 10.375 7.5625 13.125 C4.46469052 15.19020632 3.6084519 15.41977024 0.0625 15.4375 C-1.09765625 15.46263672 -1.09765625 15.46263672 -2.28125 15.48828125 C-4.98561951 15.03265378 -5.84298786 14.33432403 -7.4375 12.125 C-8.1893797 5.35808271 -8.1893797 5.35808271 -5.875 1.5625 C-3.4375 0.125 -3.4375 0.125 0 0 Z " fill="#545D83" transform="translate(441.4375,191.875)"/>
<path d="M0 0 C2.375 2.125 2.375 2.125 4 5 C3.78947368 11.21052632 3.78947368 11.21052632 1 14 C-2.05698097 14.56064323 -4.94013454 14.53262312 -8 14 C-10.82972843 11.58437817 -11.77014622 10.04711168 -12.5625 6.4375 C-11.75808996 2.95172315 -9.9075263 1.93835086 -7 0 C-4.20824656 -1.39587672 -2.93876905 -0.97958968 0 0 Z " fill="#555E84" transform="translate(410,298)"/>
<path d="M0 0 C-1.32 9.24 -2.64 18.48 -4 28 C-4.66 28 -5.32 28 -6 28 C-6.66 26.02 -7.32 24.04 -8 22 C-8.66 22 -9.32 22 -10 22 C-13.3203125 16.921875 -13.3203125 16.921875 -14 15 C-12.80279279 11.06397629 -9.71770813 8.23631881 -7 5.25 C-6.54882812 4.74339844 -6.09765625 4.23679687 -5.6328125 3.71484375 C-2.2483996 0 -2.2483996 0 0 0 Z " fill="#1B1E22" transform="translate(181,92)"/>
<path d="M0 0 C4.03721561 1.56583596 6.47070582 4.44173865 9.25 7.625 C9.70890625 8.140625 10.1678125 8.65625 10.640625 9.1875 C11.76592296 10.4534602 12.88372177 11.72607942 14 13 C12.62712658 16.69876091 10.93644547 19.9514476 8.875 23.3125 C8.33617187 24.19550781 7.79734375 25.07851562 7.2421875 25.98828125 C6.62730469 26.98408203 6.62730469 26.98408203 6 28 C5.34 27.67 4.68 27.34 4 27 C3.4375 24.8046875 3.4375 24.8046875 3 21.875 C2.83757812 20.80507812 2.67515625 19.73515625 2.5078125 18.6328125 C1.64015824 12.42574738 0.79828544 6.21643553 0 0 Z " fill="#1B1D22" transform="translate(319,92)"/>
<path d="M0 0 C2.98992243 2.56279065 4.60505456 5.32909094 6 9 C5.375 11.5625 5.375 11.5625 4 14 C3.62875 14.928125 3.2575 15.85625 2.875 16.8125 C1 19 1 19 -0.97265625 19.3125 C-2.98446939 19.3125 -4.9949113 19.16435153 -7 19 C-5.62642369 5.18223235 -5.62642369 5.18223235 0 0 Z " fill="#8DA9DB" transform="translate(278,99)"/>
<path d="M0 0 C2.6875 0.9375 2.6875 0.9375 3.6875 2.9375 C4.0625 6.3125 4.0625 6.3125 3.6875 9.9375 C1.28986206 12.54064977 -0.62087058 13.69048949 -3.9375 14.875 C-6.3125 14.9375 -6.3125 14.9375 -8.125 13.9375 C-10.02683991 10.73440121 -9.877859 8.58092468 -9.3125 4.9375 C-6.25545152 1.4437303 -4.72022073 -0.08906077 0 0 Z " fill="#545D83" transform="translate(429.3125,49.0625)"/>
<path d="M0 0 C3.22579402 1.18016855 4.59555886 2.0963628 6.5625 4.9375 C6.89473586 7.69558497 6.74884748 10.14228781 6.5625 12.9375 C3.36519021 14.5361549 0.03275813 14.43325116 -3.4375 13.9375 C-5.5 12.375 -5.5 12.375 -6.4375 9.9375 C-6.31460272 6.43492745 -6.05948338 3.93267341 -4.1875 0.9375 C-2.4375 -0.0625 -2.4375 -0.0625 0 0 Z " fill="#545D83" transform="translate(443.4375,226.0625)"/>
<path d="M0 0 C3.42106076 0.25341191 4.30782184 1.30782184 6.8125 3.8125 C9 7 9 7 9.1875 9.1875 C7.31281412 12.04886266 5.16370429 12.84403112 2 14 C-0.75 13.875 -0.75 13.875 -3 13 C-5 10 -5 10 -4.875 7.625 C-3.82167152 4.46501455 -2.19439845 2.47754664 0 0 Z " fill="#545E84" transform="translate(448,59)"/>
<path d="M0 0 C2.4375 0.5 2.4375 0.5 4.25 2.125 C5.77014845 5.1652969 5.86638292 7.14041709 5.4375 10.5 C4.3125 12.375 4.3125 12.375 2.4375 13.5 C-0.71174548 13.89365568 -2.68159116 14.02854531 -5.4375 12.375 C-7.11718045 9.57553259 -7.01992277 7.70195936 -6.5625 4.5 C-4.55523131 1.67495518 -3.41378167 0.66610374 0 0 Z " fill="#545C83" transform="translate(47.5625,114.5)"/>
<path d="M0 0 C6.46153846 0.46153846 6.46153846 0.46153846 9 3 C9.265625 4.875 9.265625 4.875 9.25 7 C9.25515625 7.70125 9.2603125 8.4025 9.265625 9.125 C9 11 9 11 7 13 C3.5 13.25 3.5 13.25 0 13 C-2 11 -2 11 -2.265625 8.90625 C-2.25789063 7.71515625 -2.25789063 7.71515625 -2.25 6.5 C-2.25515625 5.7059375 -2.2603125 4.911875 -2.265625 4.09375 C-2 2 -2 2 0 0 Z " fill="#545D83" transform="translate(452,108)"/>
<path d="M0 0 C4.53086346 3.93436323 5.7761647 9.82899988 6.1875 15.65625 C6.1875 17.77175678 6.10224361 19.88696541 6 22 C4 20.625 4 20.625 2 19 C2 18.34 2 17.68 2 17 C1.34 17 0.68 17 0 17 C-1.02104551 16.02149805 -2.0206121 15.02019573 -3 14 C-3.66 13.67 -4.32 13.34 -5 13 C-4.32116957 9.88452559 -3.25893098 7.14862279 -1.9375 4.25 C-1.57527344 3.45078125 -1.21304687 2.6515625 -0.83984375 1.828125 C-0.56269531 1.22484375 -0.28554688 0.6215625 0 0 Z " fill="#1B1D22" transform="translate(326,365)"/>
<path d="M0 0 C3.15702316 3.90869534 6 7.8614939 6 13 C4.02866014 14.37535339 2.02318078 15.70211044 0 17 C-1.70328319 18.6292274 -3.38161281 20.28641357 -5 22 C-6.54193858 18.91612285 -5.46436244 16.56968426 -4.75 13.25 C-4.49734375 12.03828125 -4.2446875 10.8265625 -3.984375 9.578125 C-3.02287266 6.08314032 -1.73270657 3.17338393 0 0 Z " fill="#1B1D22" transform="translate(173,365)"/>
<path d="M0 0 C3.04854216 1.14320331 3.98697508 2.07071593 5.5 4.9375 C6 7.4375 6 7.4375 5.5 9.9375 C3.25 12.3125 3.25 12.3125 0.5 13.9375 C-1.6875 13.9375 -1.6875 13.9375 -3.5 12.9375 C-5.83973329 9.77886006 -5.90780793 6.77089454 -5.5 2.9375 C-3.8566884 0.25630739 -3.15525569 -0.07888139 0 0 Z " fill="#545D84" transform="translate(49.5,201.0625)"/>
<path d="M0 0 C3.68069887 1.53643852 5.98775204 3.78150945 8.75 6.625 C9.54921875 7.44226563 10.3484375 8.25953125 11.171875 9.1015625 C12.07679688 10.04128906 12.07679688 10.04128906 13 11 C7.40569614 14.7295359 2.34337537 13.98431687 -4 13 C-3.2884375 11.7315625 -3.2884375 11.7315625 -2.5625 10.4375 C-0.94278487 6.87412671 -0.38743857 3.87438575 0 0 Z " fill="#1C1E23" transform="translate(487,225)"/>
<path d="M0 0 C0.12117187 0.60328125 0.24234375 1.2065625 0.3671875 1.828125 C0.53476563 2.62734375 0.70234375 3.4265625 0.875 4.25 C1.11863281 5.43335938 1.11863281 5.43335938 1.3671875 6.640625 C1.99150075 8.96831144 2.84838542 10.89031952 4 13 C2.10590022 13.22354607 0.2095652 13.42819951 -1.6875 13.625 C-3.27111328 13.79902344 -3.27111328 13.79902344 -4.88671875 13.9765625 C-8.13716346 14.0010326 -10.10230796 13.40852563 -13 12 C-2.93659942 0 -2.93659942 0 0 0 Z " fill="#1C1E23" transform="translate(13,225)"/>
<path d="M0 0 C2 2 2 2 2.3125 4.9375 C2 8 2 8 0.875 9.875 C-1.88090884 11.52854531 -3.85075452 11.39365568 -7 11 C-8.875 9.8125 -8.875 9.8125 -10 8 C-10.4375 5.5 -10.4375 5.5 -10 3 C-7.02962719 -0.31310814 -4.3003147 -0.46742551 0 0 Z " fill="#535B81" transform="translate(444,95)"/>
<path d="M0 0 C2 2 2 2 2.375 4.875 C2 8 2 8 0.25 10.4375 C-2 12 -2 12 -4.0625 12 C-6.60961883 10.68535802 -7.66026882 9.53843803 -9 7 C-8.875 4.375 -8.875 4.375 -8 2 C-4.77626323 -0.14915785 -3.73296326 -0.38286803 0 0 Z " fill="#545D83" transform="translate(373,330)"/>
<path d="M0 0 C3.1875 0.3125 3.1875 0.3125 5.625 2 C7.1875 4.3125 7.1875 4.3125 6.9375 7.0625 C6.69 7.805 6.4425 8.5475 6.1875 9.3125 C-0.21346618 10.64100242 -0.21346618 10.64100242 -2.75 9.25 C-4.24659881 6.52090805 -4.07837831 4.37010057 -3.8125 1.3125 C-2.8125 0.3125 -2.8125 0.3125 0 0 Z " fill="#545D83" transform="translate(56.8125,137.6875)"/>
<path d="M0 0 C2.375 0.6875 2.375 0.6875 3.375 1.6875 C3.5625 4.625 3.5625 4.625 3.375 7.6875 C1.375 9.6875 1.375 9.6875 -1.625 9.9375 C-4.625 9.6875 -4.625 9.6875 -6.625 7.6875 C-6.4375 4.6875 -6.4375 4.6875 -5.625 1.6875 C-2.625 -0.3125 -2.625 -0.3125 0 0 Z " fill="#545D84" transform="translate(428.625,239.3125)"/>
<path d="M0 0 C2.5 0.1875 2.5 0.1875 5 1 C7 4 7 4 6.625 6.6875 C6.41875 7.450625 6.2125 8.21375 6 9 C3.69 9.33 1.38 9.66 -1 10 C-3 7 -3 7 -2.75 4.4375 C-2 2 -2 2 0 0 Z " fill="#555F86" transform="translate(93,316)"/>
<path d="M0 0 C0.6875 2.8125 0.6875 2.8125 1 6 C-0.1875 7.9375 -0.1875 7.9375 -2 9 C-4.65694438 8.83394098 -5.76383679 8.21086001 -7.75 6.4375 C-8.1625 5.963125 -8.575 5.48875 -9 5 C-6.96456769 -0.67013285 -5.87860125 -1.3923003 0 0 Z " fill="#545D84" transform="translate(410,282)"/>
<path d="M0 0 C3 0.125 3 0.125 4 1.125 C4.1875 3.5625 4.1875 3.5625 4 6.125 C2 8.125 2 8.125 -0.5 8.375 C-3 8.125 -3 8.125 -5 6.125 C-4.27477017 0.17811542 -4.27477017 0.17811542 0 0 Z " fill="#545E84" transform="translate(407,56.875)"/>
<path d="M0 0 C1.32 0 2.64 0 4 0 C6 3 6 3 5.625 5.6875 C5.41875 6.450625 5.2125 7.21375 5 8 C3.02 8.33 1.04 8.66 -1 9 C-1.625 5.625 -1.625 5.625 -2 2 C-1.34 1.34 -0.68 0.68 0 0 Z " fill="#576188" transform="translate(77,54)"/>
<path d="M0 0 C0.66 0 1.32 0 2 0 C2.69685498 1.6210103 3.38222861 3.24696066 4.0625 4.875 C4.44535156 5.77992188 4.82820312 6.68484375 5.22265625 7.6171875 C6 10 6 10 5 12 C4.34 11.34 3.68 10.68 3 10 C0.38419521 10.3269756 -1.64078137 10.82039068 -4 12 C-3.52309796 10.37433394 -3.04340334 8.74948689 -2.5625 7.125 C-2.29566406 6.22007812 -2.02882812 5.31515625 -1.75390625 4.3828125 C-1 2 -1 2 0 0 Z " fill="#87A3D4" transform="translate(249,165)"/>
<path d="M0 0 C2.51570636 0.97382182 3.73944098 1.46151135 4.9375 3.9375 C5 6 5 6 3.8125 7.8125 C2 9 2 9 -0.1875 8.6875 C-0.785625 8.460625 -1.38375 8.23375 -2 8 C-2.6875 5.6875 -2.6875 5.6875 -3 3 C-1.5625 1.1875 -1.5625 1.1875 0 0 Z " fill="#576187" transform="translate(385,331)"/>
<path d="M0 0 C2.625 0.375 2.625 0.375 5 1 C4.67 3.31 4.34 5.62 4 8 C2.02 8 0.04 8 -2 8 C-2.125 5.125 -2.125 5.125 -2 2 C-1.34 1.34 -0.68 0.68 0 0 Z " fill="#545D83" transform="translate(95,276)"/>
<path d="M0 0 C1.65 0.33 3.3 0.66 5 1 C6.125 4.75 6.125 4.75 5 7 C3.02 7 1.04 7 -1 7 C-1.625 5.1875 -1.625 5.1875 -2 3 C-1.34 2.01 -0.68 1.02 0 0 Z " fill="#545E84" transform="translate(47,228)"/>
<path d="M0 0 C2.125 0.375 2.125 0.375 4 1 C4.625 3.375 4.625 3.375 5 6 C4.34 6.66 3.68 7.32 3 8 C1.68 8 0.36 8 -1 8 C-1.625 5.125 -1.625 5.125 -2 2 C-1.34 1.34 -0.68 0.68 0 0 Z " fill="#566087" transform="translate(94,303)"/>
<path d="M0 0 C1.67542976 0.28604898 3.34385343 0.61781233 5 1 C5.33 2.65 5.66 4.3 6 6 C3.125 6.625 3.125 6.625 0 7 C-0.66 6.34 -1.32 5.68 -2 5 C-1.46428571 1.46428571 -1.46428571 1.46428571 0 0 Z " fill="#565F86" transform="translate(431,180)"/>
<path d="M0 0 C1.9375 0.75 1.9375 0.75 4 2 C4.875 4 4.875 4 5 6 C3 8 3 8 0.375 8.125 C-0.40875 8.08375 -1.1925 8.0425 -2 8 C-2.125 5.125 -2.125 5.125 -2 2 C-1.34 1.34 -0.68 0.68 0 0 Z " fill="#555F85" transform="translate(442,76)"/>
<path d="M0 0 C2.625 0.375 2.625 0.375 5 1 C5.042721 2.66611905 5.04063832 4.33382885 5 6 C4 7 4 7 1.4375 7.0625 C0.2309375 7.0315625 0.2309375 7.0315625 -1 7 C-1.625 4.625 -1.625 4.625 -2 2 C-1.34 1.34 -0.68 0.68 0 0 Z " fill="#555E85" transform="translate(453,208)"/>
<path d="M0 0 C2 0.125 2 0.125 4 1 C5.25 3.0625 5.25 3.0625 6 5 C3 7 3 7 0.8125 6.625 C0.214375 6.41875 -0.38375 6.2125 -1 6 C-1.625 4.125 -1.625 4.125 -2 2 C-1.34 1.34 -0.68 0.68 0 0 Z " fill="#576188" transform="translate(55,190)"/>
<path d="M0 0 C1.65 0 3.3 0 5 0 C5.33 1.65 5.66 3.3 6 5 C3.525 6.485 3.525 6.485 1 8 C0 7 0 7 -0.0625 3.4375 C-0.041875 2.303125 -0.02125 1.16875 0 0 Z " fill="#555E84" transform="translate(41,91)"/>
<path d="M0 0 C-0.33 1.65 -0.66 3.3 -1 5 C-2.32 5 -3.64 5 -5 5 C-5.33 3.35 -5.66 1.7 -6 0 C-3.50907189 -1.24546405 -2.58919267 -0.7767578 0 0 Z " fill="#D3CB36" transform="translate(270,110)"/>
<path d="M0 0 C2.0625 0.4375 2.0625 0.4375 4 1 C3.67 2.65 3.34 4.3 3 6 C1.35 5.67 -0.3 5.34 -2 5 C-1.125 1.125 -1.125 1.125 0 0 Z " fill="#555F85" transform="translate(63,157)"/>
<path d="M0 0 C2.0625 0.4375 2.0625 0.4375 4 1 C4 2.65 4 4.3 4 6 C2.68 6.33 1.36 6.66 0 7 C-0.38133299 5.0085944 -0.71325582 3.00720923 -1 1 C-0.67 0.67 -0.34 0.34 0 0 Z " fill="#545D83" transform="translate(109,64)"/>
<path d="M0 0 C0.33 0.66 0.66 1.32 1 2 C-4.28 2.66 -9.56 3.32 -15 4 C-12.39457984 2.26305323 -10.41657225 1.30899552 -7.5 0.3125 C-6.33984375 -0.09548828 -6.33984375 -0.09548828 -5.15625 -0.51171875 C-3 -1 -3 -1 0 0 Z " fill="#2F3542" transform="translate(68,215)"/>
<path d="M0 0 C0.99 0 1.98 0 3 0 C2.67 1.65 2.34 3.3 2 5 C0.68 4.67 -0.64 4.34 -2 4 C-1.34 2.68 -0.68 1.36 0 0 Z " fill="#545E84" transform="translate(427,202)"/>
</svg>
