<?xml version="1.0" encoding="UTF-8"?>
<svg version="1.1" xmlns="http://www.w3.org/2000/svg" width="467" height="462">
<path d="M0 0 C52.85775052 -0.77967181 102.60071322 4.70203923 150.17358398 29.21069336 C154.51834184 31.39847157 158.84496066 33.04255836 163.5 34.5 C171.11091137 36.89040179 177.97434344 40.22995855 185.01367188 43.95605469 C186.97238648 44.98548729 188.94434514 45.98383855 190.921875 46.9765625 C208.83186499 56.07341206 228.17501682 70.23617991 237.35913086 88.73803711 C238.23728713 93.2077689 236.55767453 95.59298143 234.21484375 99.234375 C233.80214737 99.91244202 233.38945099 100.59050903 232.96424866 101.28912354 C231.64094353 103.45510033 230.29062395 105.60255155 228.9375 107.75 C227.61525692 109.8863224 226.29893793 112.02614091 224.98573303 114.16802979 C224.16853458 115.49671681 223.34530893 116.82172569 222.51463318 118.14202881 C221.30991994 120.07638851 220.15628569 122.03637685 219 124 C218.54291656 124.70402954 218.08583313 125.40805908 217.61489868 126.13342285 C213.05517062 133.86933665 213.30513775 141.67180523 213.40625 150.375 C213.40796515 151.95100818 213.40789132 153.52701922 213.40612793 155.10302734 C213.40777296 158.39123175 213.42631826 161.67874765 213.45800781 164.96679688 C213.49768293 169.15608186 213.50204776 173.34446777 213.49454498 177.53390503 C213.49145773 180.78385477 213.50365775 184.03360697 213.52067566 187.2835083 C213.52764651 188.82707478 213.53083748 190.37066362 213.52998352 191.91424561 C213.36842795 206.32604763 213.36842795 206.32604763 219.375 219 C223.8384383 222.4007149 227.61436305 223.24968561 233.17578125 223.4140625 C234.91118164 223.47207031 234.91118164 223.47207031 236.68164062 223.53125 C237.87982422 223.5621875 239.07800781 223.593125 240.3125 223.625 C242.1387793 223.68300781 242.1387793 223.68300781 244.00195312 223.7421875 C247.00115228 223.83628002 250.00034823 223.92192209 253 224 C253.95027566 284.53255947 241.51623081 340.18417455 198.4375 384.8125 C193.90178116 389.19371747 188.92076961 393.06614491 184 397 C183.15308594 397.71414063 182.30617188 398.42828125 181.43359375 399.1640625 C180.65113281 399.81117188 179.86867188 400.45828125 179.0625 401.125 C178.02802734 401.99511719 178.02802734 401.99511719 176.97265625 402.8828125 C175 404 175 404 172.90625 403.8046875 C170.2193815 402.67047662 168.24476945 400.84186211 166 399 C165.01 398.67 164.02 398.34 163 398 C162.18208984 397.17628906 162.18208984 397.17628906 161.34765625 396.3359375 C158.01065244 393.01559095 154.24158494 390.38599227 150.4375 387.625 C148.72258291 386.37119405 147.0077413 385.11728486 145.29296875 383.86328125 C144.41560059 383.22342285 143.53823242 382.58356445 142.63427734 381.92431641 C138.49576303 378.90116814 134.37349548 375.8560826 130.25 372.8125 C125.76875307 369.50774698 121.2856972 366.20567153 116.7890625 362.921875 C110.95099357 358.65785138 105.14680961 354.36985017 99.46484375 349.8984375 C96.03457315 347.25642242 92.5513363 344.68896555 89.0625 342.125 C88.39863281 341.63580078 87.73476563 341.14660156 87.05078125 340.64257812 C83.65327508 338.11821665 83.65327508 338.11821665 80 336 C80 335.34 80 334.68 80 334 C78.02 334 76.04 334 74 334 C74.33 355.45 74.66 376.9 75 399 C66.42 399 57.84 399 49 399 C43.1829323 400.00295492 43.1829323 400.00295492 37.44140625 401.34375 C35 402 35 402 32 402 C31.67 402.66 31.34 403.32 31 404 C29.88625 404.37125 28.7725 404.7425 27.625 405.125 C17.43032208 408.77246974 7.65932593 417.43035045 1.4375 426.203125 C-0 428 -0 428 -3 429 C-4.47656971 429.11499184 -5.9575251 429.17778848 -7.43826294 429.20773315 C-8.34652328 429.2278949 -9.25478363 429.24805664 -10.19056702 429.26882935 C-11.68202492 429.29407181 -11.68202492 429.29407181 -13.20361328 429.31982422 C-14.25273392 429.34085205 -15.30185455 429.36187988 -16.38276672 429.38354492 C-26.05953788 429.56637953 -35.73749748 429.67254868 -45.41559029 429.75568962 C-51.91697003 429.81233779 -58.41588542 429.89398903 -64.91601562 430.03564453 C-71.2026537 430.1720824 -77.4870558 430.24452248 -83.77508163 430.27234268 C-86.16829035 430.2937988 -88.56140958 430.3378142 -90.95376968 430.405056 C-109.22238449 430.89495724 -109.22238449 430.89495724 -113.91628265 427.6926651 C-117.4479933 424.15867009 -121 419.15899946 -121 414 C-121.66 414 -122.32 414 -123 414 C-123.495 412.515 -123.495 412.515 -124 411 C-123.37296677 411.01189865 -122.74593353 411.0237973 -122.09989929 411.03605652 C-115.52848023 411.14978669 -108.95982423 411.18531975 -102.38745117 411.17700195 C-99.94037533 411.18394516 -97.4932698 411.21032275 -95.04663086 411.25708008 C-79.7627546 412.25708043 -79.7627546 412.25708043 -66.4889679 406.17707825 C-64.46842615 403.92079249 -62.75200001 401.46740548 -61 399 C-59.37139661 397.62043247 -57.70894925 396.27868996 -56 395 C-54.31002677 393.35697047 -52.64783606 391.68528688 -51 390 C-41.54367277 380.37111206 -41.54367277 380.37111206 -37 377 C-32.81582597 378.63873844 -30.01602195 381.71294346 -26.921875 384.84765625 C-26.35043762 385.41955185 -25.77900024 385.99144745 -25.19024658 386.58067322 C-23.98773552 387.78619786 -22.78764828 388.99414454 -21.58984375 390.2043457 C-19.74794101 392.06457948 -17.89808634 393.91661217 -16.046875 395.76757812 C-14.87973386 396.93963188 -13.71305087 398.11214207 -12.546875 399.28515625 C-11.99070496 399.84243912 -11.43453491 400.39972198 -10.86151123 400.97389221 C-7 404.88393472 -7 404.88393472 -7 406 C-20.53 406 -34.06 406 -48 406 C-42 399 -42 399 -39 396 C-36.50638429 397.20381448 -34.31856917 398.45428722 -32 400 C-31.56425342 395.89894693 -31.56425342 395.89894693 -34.375 393.25 C-36.67686401 390.78306954 -36.67686401 390.78306954 -39 391 C-39.66 391.66 -40.32 392.32 -41 393 C-42.05555519 393.92465521 -43.11895264 394.84038989 -44.1875 395.75 C-44.80109375 396.27335937 -45.4146875 396.79671875 -46.046875 397.3359375 C-46.69140625 397.88507813 -47.3359375 398.43421875 -48 399 C-49.31285913 400.12458088 -50.62537658 401.24956081 -51.9375 402.375 C-52.95833333 403.25 -53.97916667 404.125 -55 405 C-54.01 406.485 -54.01 406.485 -53 408 C-50.90752575 408.47517866 -50.90752575 408.47517866 -48.45849609 408.43237305 C-47.04725967 408.46206429 -47.04725967 408.46206429 -45.60751343 408.49235535 C-44.58976837 408.49874527 -43.57202332 408.50513519 -42.5234375 408.51171875 C-41.48305328 408.52966995 -40.44266907 408.54762115 -39.37075806 408.56611633 C-36.03888029 408.62041682 -32.70714734 408.65417853 -29.375 408.6875 C-27.11977142 408.72065561 -24.86456201 408.75514361 -22.609375 408.79101562 C-17.07304654 408.87615434 -11.53669979 408.94442022 -6 409 C-6 408.34 -6 407.68 -6 407 C-5.34 406.34 -4.68 405.68 -4 405 C-14.23 394.77 -24.46 384.54 -35 374 C-43.49690941 378.2484547 -49.99572977 385.9438708 -56.61328125 392.64453125 C-59.34357133 395.33907285 -62.18253245 397.85901328 -65.11328125 400.33203125 C-67.15252348 402.01480146 -67.15252348 402.01480146 -68.89013672 404.58740234 C-73.60307441 408.24364745 -77.85744912 407.52273398 -83.64453125 407.26953125 C-84.7694548 407.24026047 -85.89437836 407.21098969 -87.0533905 407.18083191 C-90.64093683 407.08198466 -94.22615808 406.94771131 -97.8125 406.8125 C-100.2466755 406.73919803 -102.68092176 406.66820693 -105.11523438 406.59960938 C-111.07790312 406.42653083 -117.03905275 406.2243668 -123 406 C-123.01397218 404.39797413 -123.02394567 402.79591305 -123.03222656 401.19384766 C-123.04119965 399.85563461 -123.04119965 399.85563461 -123.050354 398.49038696 C-122.9539134 393.7206687 -121.52654572 389.47920653 -120 385 C-119.76796875 384.23042969 -119.5359375 383.46085937 -119.296875 382.66796875 C-118.02184965 379.29915176 -116.88493606 377.507626 -113.71875 375.69140625 C-107.80190726 373.37057569 -101.71003285 372.26784592 -95.43359375 371.39453125 C-92.99964017 371.12411814 -92.99964017 371.12411814 -91 370 C-91.89203125 369.95875 -92.7840625 369.9175 -93.703125 369.875 C-97.95362699 368.74690468 -99.43488497 366.50090565 -101.75 363 C-104.30557928 358.89899024 -104.30557928 358.89899024 -108 356 C-108.72693904 354.02111039 -109.39816251 352.02045442 -110 350 C-110.66 350 -111.32 350 -112 350 C-112.66 348.35 -113.32 346.7 -114 345 C-110.40082646 346.3206093 -107.12401458 347.99404652 -103.78344727 349.86914062 C-97.03247784 353.64837079 -90.65218647 356.47274449 -83 358 C-82.01719585 356.39805929 -81.03888283 354.79336258 -80.0625 353.1875 C-79.51722656 352.29417969 -78.97195312 351.40085937 -78.41015625 350.48046875 C-76.88990422 347.99296438 -76.88990422 347.99296438 -76 345 C-75.34 345 -74.68 345 -74 345 C-73.79375 344.195625 -73.5875 343.39125 -73.375 342.5625 C-70.83983729 335.9941239 -66.95559903 330.95559903 -62 326 C-60.02 335.405 -60.02 335.405 -58 345 C-54.535 343.02 -54.535 343.02 -51 341 C-50.34 341 -49.68 341 -49 341 C-49 342.65 -49 344.3 -49 346 C-44.28325044 342.56963668 -40.73878328 338.42381422 -37 334 C-35.91760118 332.72837062 -34.83432927 331.45748366 -33.75 330.1875 C-33.29109375 329.64480469 -32.8321875 329.10210937 -32.359375 328.54296875 C-31 327 -31 327 -29.390625 325.48828125 C-27.7475229 323.93695841 -27.7475229 323.93695841 -27 321 C-25.34181493 319.32489468 -23.67390769 317.65939404 -22 316 C-13.47875045 304.83529713 -5.8470018 292.5171437 0.02734375 279.7578125 C1 278 1 278 3 277 C3.19142578 276.02353516 3.19142578 276.02353516 3.38671875 275.02734375 C4.27668777 270.63418459 6.09173905 266.68937685 7.8125 262.5625 C10.73262471 255.43033235 13.2499652 248.40433796 15.2109375 240.9453125 C16.02239743 237.91639769 16.98209383 234.96520492 18 232 C18.66 232 19.32 232 20 232 C26.52592064 243.60758016 29.3424721 255.87063429 31 269 C48.26651813 252.25028188 48.26651813 252.25028188 61 232 C61.66 232 62.32 232 63 232 C63.65135437 234.97805278 64.29618739 237.95728259 64.9375 240.9375 C65.11990234 241.76830078 65.30230469 242.59910156 65.49023438 243.45507812 C67.13941976 251.16127164 68.15325431 258.66687504 68.0625 266.5625 C68.05347656 267.59503906 68.04445312 268.62757813 68.03515625 269.69140625 C68.01775391 270.83416016 68.01775391 270.83416016 68 272 C78.44772414 266.13149112 87.20054379 259.08887428 95.50952148 250.50512695 C96.65730974 249.3213198 97.8266337 248.15845965 99 247 C99.33 247 99.66 247 100 247 C100.67216436 260.16321874 98.21619111 270.52235333 94 283 C96.23045661 281.41845837 98.45938423 279.83483359 100.6875 278.25 C101.31333984 277.8065625 101.93917969 277.363125 102.58398438 276.90625 C106.14473143 274.37084895 109.61522754 271.76994764 113 269 C113.0272616 271.04159095 113.04651345 273.08328963 113.0625 275.125 C113.07410156 276.26195312 113.08570313 277.39890625 113.09765625 278.5703125 C113.005327 281.8129156 112.61389906 284.81932612 112 288 C124.79638885 281.18947749 136.74948088 274.43597259 147 264 C147.82564453 263.26136719 147.82564453 263.26136719 148.66796875 262.5078125 C166.24841987 246.50915004 177.52901564 217.5089166 179.203125 194.16796875 C179.57976952 170.21965437 171.68817602 146.22680814 156 128 C146.86477179 119.83699487 130.50328308 120.39216824 119 121 C112.98202132 121.50436159 106.99014507 122.23934666 101 123 C103.62780925 118.79063888 106.25029481 115.56528812 110 112.25 C110.845625 111.49203125 111.69125 110.7340625 112.5625 109.953125 C114.67132033 108.26336512 116.53616432 107.07222479 119 106 C115.62902617 104.50178941 113.79557881 104 110 104 C110 103.34 110 102.68 110 102 C104.06 101.67 98.12 101.34 92 101 C91.67 101.66 91.34 102.32 91 103 C89.00890447 103.69280809 87.00695438 104.35457101 85 105 C82.90022022 106.00810323 80.81645361 107.05023644 78.75 108.125 C73.22009569 111 73.22009569 111 71 111 C70.67 111.66 70.34 112.32 70 113 C68.33570907 113.9781095 66.64202625 114.90632521 64.9375 115.8125 C50.44147928 124.10332754 37.68975004 136.17368745 26 148 C24.74458443 144.23375329 25.62938042 142.62811066 27 139 C27.66 139 28.32 139 29 139 C29 137.68 29 136.36 29 135 C29.66 135 30.32 135 31 135 C31.24234375 134.14277344 31.4846875 133.28554687 31.734375 132.40234375 C33.13142116 128.64670421 34.94142705 125.83297835 37.25 122.5625 C37.64823975 121.99700439 38.04647949 121.43150879 38.45678711 120.84887695 C41.42378621 116.68335615 44.56660386 112.78553933 48 109 C40.16949483 111.68637769 32.5796778 114.49053952 25.109375 118.08203125 C23 119 23 119 21 119 C20.67 119.66 20.34 120.32 20 121 C19.28807495 121.69633545 19.28807495 121.69633545 18.56176758 122.40673828 C16.96643657 124.03424026 16.05810973 125.4777708 15.01171875 127.4921875 C14.45786499 128.53391113 14.45786499 128.53391113 13.89282227 129.59667969 C13.49506592 130.34852539 13.09730957 131.10037109 12.6875 131.875 C3.97685819 147.90927008 -6.35375896 162.96043758 -18 177 C-18.71414062 177.86753906 -19.42828125 178.73507813 -20.1640625 179.62890625 C-23.56585109 183.65365613 -23.56585109 183.65365613 -25 185 C-25.66 185 -26.32 185 -27 185 C-25.71572804 181.75270867 -24.37992974 178.53736 -22.9765625 175.33984375 C-15.31719821 159.720982 -15.31719821 159.720982 -12 143 C-11.34 143 -10.68 143 -10 143 C-10.33 142.34 -10.66 141.68 -11 141 C-17.61429725 147.02838509 -23.22863641 153.30251063 -28.375 160.625 C-29.10541504 161.6622522 -29.10541504 161.6622522 -29.85058594 162.72045898 C-33.23433671 167.6399031 -36.18375754 172.73738671 -39 178 C-39.33 178 -39.66 178 -40 178 C-40.19393875 175.85473901 -40.37998676 173.70876323 -40.5625 171.5625 C-40.66691406 170.36753906 -40.77132812 169.17257813 -40.87890625 167.94140625 C-40.93884766 166.48541016 -40.93884766 166.48541016 -41 165 C-40.67 164.67 -40.34 164.34 -40 164 C-39.63239269 161.67182036 -39.29758419 159.3381615 -39 157 C-50.31193087 166.0495447 -58.89058623 177.10853859 -67 189 C-67.66 188.67 -68.32 188.34 -69 188 C-65.97199192 175.55313986 -61.82082037 164.41054117 -56 153 C-67.01232655 158.65571339 -78.21848268 166.21848268 -87 175 C-87.33 173.68 -87.66 172.36 -88 171 C-88.59167969 171.67546875 -89.18335937 172.3509375 -89.79296875 173.046875 C-90.97826172 174.38492188 -90.97826172 174.38492188 -92.1875 175.75 C-92.96480469 176.63171875 -93.74210937 177.5134375 -94.54296875 178.421875 C-100.66134766 184.84179563 -100.66134766 184.84179563 -105.0078125 185.35546875 C-106.03648438 185.30003906 -107.06515625 185.24460938 -108.125 185.1875 C-112.6388169 184.9687391 -112.6388169 184.9687391 -117 186 C-120.06722012 186.06816045 -123.120326 185.99764067 -126.1875 185.9375 C-129.08211111 185.86344089 -129.08211111 185.86344089 -132 187 C-133.91906917 187.08266486 -135.84089474 187.10740663 -137.76171875 187.09765625 C-138.87998047 187.09443359 -139.99824219 187.09121094 -141.15039062 187.08789062 C-142.31763672 187.07951172 -143.48488281 187.07113281 -144.6875 187.0625 C-145.86634766 187.05798828 -147.04519531 187.05347656 -148.25976562 187.04882812 C-151.17322789 187.03703273 -154.08658863 187.0205727 -157 187 C-154.06998888 185.04665925 -151.52046644 183.97488892 -148.23046875 182.7578125 C-147.09416016 182.33113281 -145.95785156 181.90445313 -144.78710938 181.46484375 C-142.40021469 180.5763957 -140.01220213 179.69094479 -137.62304688 178.80859375 C-131.95514281 176.67471918 -126.81118016 174.70895327 -122 171 C-121.154375 170.360625 -120.30875 169.72125 -119.4375 169.0625 C-116.96020737 167.0242216 -116.96020737 167.0242216 -114.6875 164.6875 C-112 162 -112 162 -110.01171875 160.44140625 C-104.53016256 156.10225848 -102.66810438 152.69339996 -101 146 C-98.48540131 137.33158441 -94.94459369 129.54787398 -90.8046875 121.56640625 C-89.01416493 118.16703326 -89.01416493 118.16703326 -87.88671875 115.1640625 C-86.77608796 112.45353626 -85.1206554 110.98383892 -83 109 C-82.67 108.34 -82.34 107.68 -82 107 C-97.50812948 112.79635532 -111.26845479 120.31964818 -124 131 C-124.99 130.01 -124.99 130.01 -126 129 C-118.08389844 113.98186406 -118.08389844 113.98186406 -114 109 C-113.34 109 -112.68 109 -112 109 C-112 108.34 -112 107.68 -112 107 C-110.5 105.375 -110.5 105.375 -109 104 C-112.22595936 106.45463975 -115.44308225 108.91860431 -118.640625 111.41015625 C-120.54186238 112.89013284 -122.44216668 114.30737716 -124.421875 115.68359375 C-126.58536205 117.16576491 -126.58536205 117.16576491 -129 120 C-129.2582828 122.33301352 -129.12691281 124.47483594 -128.94921875 126.8125 C-129.0079278 129.34150543 -129.470498 130.45895373 -130.9375 132.5 C-134.82011139 135.66947869 -138.04444206 136.23549139 -143 136 C-143.33 135.67 -143.66 135.34 -144 135 C-145.84104236 137.45264589 -147.67147793 139.91300959 -149.5 142.375 C-150.02464844 143.07367188 -150.54929688 143.77234375 -151.08984375 144.4921875 C-151.58613281 145.1625 -152.08242187 145.8328125 -152.59375 146.5234375 C-153.28500977 147.450354 -153.28500977 147.450354 -153.99023438 148.39599609 C-155.17758392 149.9661943 -155.17758392 149.9661943 -155 152 C-153.741875 151.9175 -152.48375 151.835 -151.1875 151.75 C-147.30272391 151.7706637 -147.30272391 151.7706637 -144.9375 153.5625 C-143.58036117 157.09106096 -144.01484123 159.38775116 -145 163 C-146.6875 165 -146.6875 165 -149 166 C-152.15411935 165.87126043 -154.1994951 165.55207235 -156.8125 163.75 C-158 162 -158 162 -159 157 C-160.65 161.95 -162.3 166.9 -164 172 C-164.33 172 -164.66 172 -165 172 C-166.96484311 161.33597248 -166.05044524 150.93406696 -164.75 140.25 C-164.64075195 139.29230713 -164.53150391 138.33461426 -164.41894531 137.34790039 C-163.42822833 129.80635986 -161.92528379 122.3037296 -156.765625 116.4765625 C-155.93546875 115.86554688 -155.1053125 115.25453125 -154.25 114.625 C-152.81140625 113.53832031 -152.81140625 113.53832031 -151.34375 112.4296875 C-150.81523437 112.04651367 -150.28671875 111.66333984 -149.7421875 111.26855469 C-147.79778392 109.85275858 -145.88291986 108.40170683 -143.96875 106.9453125 C-141.25283642 104.88485613 -138.53150306 102.83244066 -135.796875 100.796875 C-135.17103516 100.33087891 -134.54519531 99.86488281 -133.90039062 99.38476562 C-132.60022917 98.43737152 -131.2854872 97.50975533 -129.95898438 96.59960938 C-128.27498461 95.44365778 -126.63303755 94.2268935 -125 93 C-125 92.34 -125 91.68 -125 91 C-124.34 91 -123.68 91 -123 91 C-122.7525 90.13375 -122.505 89.2675 -122.25 88.375 C-119.71383719 81.52736042 -115.58946096 77.42760671 -110 73 C-111.6045556 73.14148989 -113.20863767 73.28835686 -114.8125 73.4375 C-116.15248047 73.55931641 -116.15248047 73.55931641 -117.51953125 73.68359375 C-120.12743559 73.93489767 -120.12743559 73.93489767 -123 75 C-124.32884944 75.21700969 -125.66303108 75.4029753 -127 75.5625 C-127.680625 75.64628906 -128.36125 75.73007813 -129.0625 75.81640625 C-131 76 -131 76 -134 76 C-134 75.34 -134 74.68 -134 74 C-132.11951658 72.43708166 -130.24832479 71.02527403 -128.25 69.625 C-127.63890381 69.1923584 -127.02780762 68.7597168 -126.39819336 68.31396484 C-115.70147003 60.87861456 -104.32024008 54.4295307 -93 48 C-102.12958259 47.84634644 -111.14767416 48.3230431 -120.25 49 C-121.5924198 49.09674513 -122.93486768 49.19310141 -124.27734375 49.2890625 C-127.51852462 49.52224098 -130.75937131 49.75928953 -134 50 C-134 49.34 -134 48.68 -134 48 C-117.98106728 40.52096188 -101.41518751 35.86869049 -84 33 C-88.35994067 32.975273 -92.71984414 32.95712719 -97.07983398 32.94506836 C-98.56291413 32.94004097 -100.04598933 32.93321815 -101.52905273 32.92456055 C-103.66130801 32.91242518 -105.79349773 32.90675575 -107.92578125 32.90234375 C-109.20880127 32.89710693 -110.49182129 32.89187012 -111.8137207 32.88647461 C-115.0225974 32.85072824 -115.0225974 32.85072824 -118 34 C-118.33 33.01 -118.66 32.02 -119 31 C-100.4362855 20.45456218 -79.99410613 16.61161326 -59 14 C-57.57131592 13.82210938 -57.57131592 13.82210938 -56.11376953 13.640625 C-23.83117958 9.89577769 9.59628215 11.36962426 42 13 C33.82636477 9.31087585 25.80434698 6.71019715 17.0625 4.75 C15.96615234 4.49476563 14.86980469 4.23953125 13.74023438 3.9765625 C9.17164521 2.91863204 4.60183235 1.90336321 0 1 C0 0.67 0 0.34 0 0 Z " fill="#8697A1" transform="translate(171,0)"/>
<path d="M0 0 C55.78027503 -0.82278015 105.94808859 6.36032876 156 32 C152.46839882 33.19957 149.93781946 32.77270983 146.3125 32.0625 C126.8590312 28.9108207 109.45581186 31.8926199 92 41 C92.60247559 41.08975098 93.20495117 41.17950195 93.82568359 41.27197266 C122.24245428 45.60271224 147.49415085 53.44101663 166 77 C174.56621968 89.07129673 180.16708392 102.47895995 183 117 C183.20496094 117.99773437 183.40992188 118.99546875 183.62109375 120.0234375 C187.62863115 143.7370036 186.17176686 170.50697393 181 194 C180.67 194 180.34 194 180 194 C179.90295776 193.0884314 179.90295776 193.0884314 179.80395508 192.15844727 C177.23786706 168.77290518 172.64389467 142.8355037 154.05859375 126.26953125 C139.14377167 117.07158594 117.3885439 120.91891506 101 123 C103.62780925 118.79063888 106.25029481 115.56528812 110 112.25 C110.845625 111.49203125 111.69125 110.7340625 112.5625 109.953125 C114.67132033 108.26336512 116.53616432 107.07222479 119 106 C115.62902617 104.50178941 113.79557881 104 110 104 C110 103.34 110 102.68 110 102 C104.06 101.67 98.12 101.34 92 101 C91.67 101.66 91.34 102.32 91 103 C89.00890447 103.69280809 87.00695438 104.35457101 85 105 C82.90022022 106.00810323 80.81645361 107.05023644 78.75 108.125 C73.22009569 111 73.22009569 111 71 111 C70.67 111.66 70.34 112.32 70 113 C68.33570907 113.9781095 66.64202625 114.90632521 64.9375 115.8125 C50.44147928 124.10332754 37.68975004 136.17368745 26 148 C24.74458443 144.23375329 25.62938042 142.62811066 27 139 C27.66 139 28.32 139 29 139 C29 137.68 29 136.36 29 135 C29.66 135 30.32 135 31 135 C31.24234375 134.14277344 31.4846875 133.28554687 31.734375 132.40234375 C33.13142116 128.64670421 34.94142705 125.83297835 37.25 122.5625 C37.64823975 121.99700439 38.04647949 121.43150879 38.45678711 120.84887695 C41.42378621 116.68335615 44.56660386 112.78553933 48 109 C40.16949483 111.68637769 32.5796778 114.49053952 25.109375 118.08203125 C23 119 23 119 21 119 C20.67 119.66 20.34 120.32 20 121 C19.28807495 121.69633545 19.28807495 121.69633545 18.56176758 122.40673828 C16.96643657 124.03424026 16.05810973 125.4777708 15.01171875 127.4921875 C14.45786499 128.53391113 14.45786499 128.53391113 13.89282227 129.59667969 C13.49506592 130.34852539 13.09730957 131.10037109 12.6875 131.875 C3.97685819 147.90927008 -6.35375896 162.96043758 -18 177 C-18.71414062 177.86753906 -19.42828125 178.73507813 -20.1640625 179.62890625 C-23.56585109 183.65365613 -23.56585109 183.65365613 -25 185 C-25.66 185 -26.32 185 -27 185 C-25.71572804 181.75270867 -24.37992974 178.53736 -22.9765625 175.33984375 C-15.31719821 159.720982 -15.31719821 159.720982 -12 143 C-11.34 143 -10.68 143 -10 143 C-10.33 142.34 -10.66 141.68 -11 141 C-17.61429725 147.02838509 -23.22863641 153.30251063 -28.375 160.625 C-29.10541504 161.6622522 -29.10541504 161.6622522 -29.85058594 162.72045898 C-33.23433671 167.6399031 -36.18375754 172.73738671 -39 178 C-39.33 178 -39.66 178 -40 178 C-40.19393875 175.85473901 -40.37998676 173.70876323 -40.5625 171.5625 C-40.66691406 170.36753906 -40.77132812 169.17257813 -40.87890625 167.94140625 C-40.93884766 166.48541016 -40.93884766 166.48541016 -41 165 C-40.67 164.67 -40.34 164.34 -40 164 C-39.63239269 161.67182036 -39.29758419 159.3381615 -39 157 C-50.31193087 166.0495447 -58.89058623 177.10853859 -67 189 C-67.66 188.67 -68.32 188.34 -69 188 C-65.97199192 175.55313986 -61.82082037 164.41054117 -56 153 C-67.01232655 158.65571339 -78.21848268 166.21848268 -87 175 C-87.33 173.68 -87.66 172.36 -88 171 C-88.59167969 171.67546875 -89.18335937 172.3509375 -89.79296875 173.046875 C-90.97826172 174.38492188 -90.97826172 174.38492188 -92.1875 175.75 C-92.96480469 176.63171875 -93.74210937 177.5134375 -94.54296875 178.421875 C-100.66134766 184.84179563 -100.66134766 184.84179563 -105.0078125 185.35546875 C-106.03648438 185.30003906 -107.06515625 185.24460938 -108.125 185.1875 C-112.6388169 184.9687391 -112.6388169 184.9687391 -117 186 C-120.06722012 186.06816045 -123.120326 185.99764067 -126.1875 185.9375 C-129.08211111 185.86344089 -129.08211111 185.86344089 -132 187 C-133.91906917 187.08266486 -135.84089474 187.10740663 -137.76171875 187.09765625 C-138.87998047 187.09443359 -139.99824219 187.09121094 -141.15039062 187.08789062 C-142.31763672 187.07951172 -143.48488281 187.07113281 -144.6875 187.0625 C-145.86634766 187.05798828 -147.04519531 187.05347656 -148.25976562 187.04882812 C-151.17322789 187.03703273 -154.08658863 187.0205727 -157 187 C-154.06998888 185.04665925 -151.52046644 183.97488892 -148.23046875 182.7578125 C-147.09416016 182.33113281 -145.95785156 181.90445313 -144.78710938 181.46484375 C-142.40021469 180.5763957 -140.01220213 179.69094479 -137.62304688 178.80859375 C-131.95514281 176.67471918 -126.81118016 174.70895327 -122 171 C-121.154375 170.360625 -120.30875 169.72125 -119.4375 169.0625 C-116.96020737 167.0242216 -116.96020737 167.0242216 -114.6875 164.6875 C-112 162 -112 162 -110.01171875 160.44140625 C-104.53016256 156.10225848 -102.66810438 152.69339996 -101 146 C-98.48540131 137.33158441 -94.94459369 129.54787398 -90.8046875 121.56640625 C-89.01416493 118.16703326 -89.01416493 118.16703326 -87.88671875 115.1640625 C-86.77608796 112.45353626 -85.1206554 110.98383892 -83 109 C-82.67 108.34 -82.34 107.68 -82 107 C-97.50812948 112.79635532 -111.26845479 120.31964818 -124 131 C-124.99 130.01 -124.99 130.01 -126 129 C-118.08389844 113.98186406 -118.08389844 113.98186406 -114 109 C-113.34 109 -112.68 109 -112 109 C-112 108.34 -112 107.68 -112 107 C-110.5 105.375 -110.5 105.375 -109 104 C-112.22595936 106.45463975 -115.44308225 108.91860431 -118.640625 111.41015625 C-120.54186238 112.89013284 -122.44216668 114.30737716 -124.421875 115.68359375 C-126.58536205 117.16576491 -126.58536205 117.16576491 -129 120 C-129.2582828 122.33301352 -129.12691281 124.47483594 -128.94921875 126.8125 C-129.0079278 129.34150543 -129.470498 130.45895373 -130.9375 132.5 C-134.82011139 135.66947869 -138.04444206 136.23549139 -143 136 C-143.33 135.67 -143.66 135.34 -144 135 C-145.84104236 137.45264589 -147.67147793 139.91300959 -149.5 142.375 C-150.02464844 143.07367188 -150.54929688 143.77234375 -151.08984375 144.4921875 C-151.58613281 145.1625 -152.08242187 145.8328125 -152.59375 146.5234375 C-153.28500977 147.450354 -153.28500977 147.450354 -153.99023438 148.39599609 C-155.17758392 149.9661943 -155.17758392 149.9661943 -155 152 C-153.741875 151.9175 -152.48375 151.835 -151.1875 151.75 C-147.30272391 151.7706637 -147.30272391 151.7706637 -144.9375 153.5625 C-143.58036117 157.09106096 -144.01484123 159.38775116 -145 163 C-146.6875 165 -146.6875 165 -149 166 C-152.15411935 165.87126043 -154.1994951 165.55207235 -156.8125 163.75 C-158 162 -158 162 -159 157 C-160.65 161.95 -162.3 166.9 -164 172 C-164.33 172 -164.66 172 -165 172 C-166.96484311 161.33597248 -166.05044524 150.93406696 -164.75 140.25 C-164.64075195 139.29230713 -164.53150391 138.33461426 -164.41894531 137.34790039 C-163.42822833 129.80635986 -161.92528379 122.3037296 -156.765625 116.4765625 C-155.93546875 115.86554688 -155.1053125 115.25453125 -154.25 114.625 C-152.81140625 113.53832031 -152.81140625 113.53832031 -151.34375 112.4296875 C-150.81523437 112.04651367 -150.28671875 111.66333984 -149.7421875 111.26855469 C-147.79778392 109.85275858 -145.88291986 108.40170683 -143.96875 106.9453125 C-141.25283642 104.88485613 -138.53150306 102.83244066 -135.796875 100.796875 C-135.17103516 100.33087891 -134.54519531 99.86488281 -133.90039062 99.38476562 C-132.60022917 98.43737152 -131.2854872 97.50975533 -129.95898438 96.59960938 C-128.27498461 95.44365778 -126.63303755 94.2268935 -125 93 C-125 92.34 -125 91.68 -125 91 C-124.34 91 -123.68 91 -123 91 C-122.7525 90.13375 -122.505 89.2675 -122.25 88.375 C-119.71383719 81.52736042 -115.58946096 77.42760671 -110 73 C-111.6045556 73.14148989 -113.20863767 73.28835686 -114.8125 73.4375 C-116.15248047 73.55931641 -116.15248047 73.55931641 -117.51953125 73.68359375 C-120.12743559 73.93489767 -120.12743559 73.93489767 -123 75 C-124.32884944 75.21700969 -125.66303108 75.4029753 -127 75.5625 C-127.680625 75.64628906 -128.36125 75.73007813 -129.0625 75.81640625 C-131 76 -131 76 -134 76 C-134 75.34 -134 74.68 -134 74 C-132.11951658 72.43708166 -130.24832479 71.02527403 -128.25 69.625 C-127.63890381 69.1923584 -127.02780762 68.7597168 -126.39819336 68.31396484 C-115.70147003 60.87861456 -104.32024008 54.4295307 -93 48 C-102.12958259 47.84634644 -111.14767416 48.3230431 -120.25 49 C-121.5924198 49.09674513 -122.93486768 49.19310141 -124.27734375 49.2890625 C-127.51852462 49.52224098 -130.75937131 49.75928953 -134 50 C-134 49.34 -134 48.68 -134 48 C-117.98106728 40.52096188 -101.41518751 35.86869049 -84 33 C-88.35994067 32.975273 -92.71984414 32.95712719 -97.07983398 32.94506836 C-98.56291413 32.94004097 -100.04598933 32.93321815 -101.52905273 32.92456055 C-103.66130801 32.91242518 -105.79349773 32.90675575 -107.92578125 32.90234375 C-109.20880127 32.89710693 -110.49182129 32.89187012 -111.8137207 32.88647461 C-115.0225974 32.85072824 -115.0225974 32.85072824 -118 34 C-118.33 33.01 -118.66 32.02 -119 31 C-100.4362855 20.45456218 -79.99410613 16.61161326 -59 14 C-57.57131592 13.82210938 -57.57131592 13.82210938 -56.11376953 13.640625 C-23.83117958 9.89577769 9.59628215 11.36962426 42 13 C33.82636477 9.31087585 25.80434698 6.71019715 17.0625 4.75 C15.96615234 4.49476563 14.86980469 4.23953125 13.74023438 3.9765625 C9.17164521 2.91863204 4.60183235 1.90336321 0 1 C0 0.67 0 0.34 0 0 Z " fill="#D6D5D8" transform="translate(171,0)"/>
<path d="M0 0 C0.33 0 0.66 0 1 0 C1.98894717 60.13559538 -10.82188411 115.53445188 -53.5625 159.8125 C-58.09821884 164.19371747 -63.07923039 168.06614491 -68 172 C-68.84691406 172.71414063 -69.69382812 173.42828125 -70.56640625 174.1640625 C-71.34886719 174.81117188 -72.13132812 175.45828125 -72.9375 176.125 C-73.62714844 176.70507812 -74.31679688 177.28515625 -75.02734375 177.8828125 C-77 179 -77 179 -79.09375 178.8046875 C-81.7806185 177.67047662 -83.75523055 175.84186211 -86 174 C-86.99 173.67 -87.98 173.34 -89 173 C-89.81791016 172.17628906 -89.81791016 172.17628906 -90.65234375 171.3359375 C-93.98934756 168.01559095 -97.75841506 165.38599227 -101.5625 162.625 C-103.27741709 161.37119405 -104.9922587 160.11728486 -106.70703125 158.86328125 C-107.58439941 158.22342285 -108.46176758 157.58356445 -109.36572266 156.92431641 C-113.50423697 153.90116814 -117.62650452 150.8560826 -121.75 147.8125 C-126.23124693 144.50774698 -130.7143028 141.20567153 -135.2109375 137.921875 C-141.04900643 133.65785138 -146.85319039 129.36985017 -152.53515625 124.8984375 C-155.96542685 122.25642242 -159.4486637 119.68896555 -162.9375 117.125 C-163.60136719 116.63580078 -164.26523437 116.14660156 -164.94921875 115.64257812 C-168.34672492 113.11821665 -168.34672492 113.11821665 -172 111 C-172 110.34 -172 109.68 -172 109 C-170.33952637 108.97812622 -170.33952637 108.97812622 -168.64550781 108.95581055 C-120.8009964 108.27489065 -81.60542712 101.39105375 -46 67 C-45.08605469 66.14921875 -44.17210937 65.2984375 -43.23046875 64.421875 C-30.79729054 52.54009668 -21.66261532 38.41154537 -13.04638672 23.62548828 C-12 22 -12 22 -10 20 C-9.67 20.33 -9.34 20.66 -9 21 C-6.03 14.07 -3.06 7.14 0 0 Z " fill="#A9B8C1" transform="translate(423,225)"/>
<path d="M0 0 C0.66 0 1.32 0 2 0 C8.52592064 11.60758016 11.3424721 23.87063429 13 37 C30.26651813 20.25028188 30.26651813 20.25028188 43 0 C43.66 0 44.32 0 45 0 C45.65135437 2.97805278 46.29618739 5.95728259 46.9375 8.9375 C47.21110352 10.18370117 47.21110352 10.18370117 47.49023438 11.45507812 C49.13941976 19.16127164 50.15325431 26.66687504 50.0625 34.5625 C50.05347656 35.59503906 50.04445313 36.62757813 50.03515625 37.69140625 C50.02355469 38.45324219 50.01195312 39.21507812 50 40 C60.44772414 34.13149112 69.20054379 27.08887428 77.50952148 18.50512695 C78.65730974 17.3213198 79.8266337 16.15845965 81 15 C81.33 15 81.66 15 82 15 C82.67216436 28.16321874 80.21619111 38.52235333 76 51 C78.23045661 49.41845837 80.45938423 47.83483359 82.6875 46.25 C83.31333984 45.8065625 83.93917969 45.363125 84.58398438 44.90625 C88.14473143 42.37084895 91.61522754 39.76994764 95 37 C95.39583553 46.48539204 95.65467877 55.98668011 88.859375 63.453125 C83.70552481 67.74078188 77.35265504 71.88244832 71 74 C71.26041667 72.01432292 71.52083333 70.02864583 71.78125 68.04296875 C72.053233 65.84528294 72.053233 65.84528294 72 63 C71.34628418 63.68513672 70.69256836 64.37027344 70.01904297 65.07617188 C67.53408189 67.67168426 65.02770638 70.24568223 62.51513672 72.81445312 C61.44104699 73.91828097 60.37244746 75.02748416 59.31005859 76.14257812 C49.79732168 86.11430235 39.4530745 94.01390385 26 98 C24.68 98 23.36 98 22 98 C23.47185114 88.85902974 25.68539536 79.95504804 28 71 C27.37996094 71.680625 26.75992188 72.36125 26.12109375 73.0625 C24.21833826 75.14528331 22.31083221 77.2229998 20.3984375 79.296875 C18.02666235 81.87082969 15.68397648 84.46848273 13.3515625 87.078125 C4.32067315 97.08238258 -4.64643258 106.18469502 -18 110 C-19.32 110 -20.64 110 -22 110 C-21.56901343 101.03547936 -19.30110566 92.62647053 -17 84 C-18.12535156 85.32451172 -18.12535156 85.32451172 -19.2734375 86.67578125 C-45.54373823 117.51220292 -45.54373823 117.51220292 -58 120 C-61.68460161 120.22302759 -65.31482897 120.18916277 -69 120 C-68.36919643 115.5770401 -67.31701624 114.16956503 -63.7421875 111.44140625 C-60.42008347 108.69284933 -57.77030683 105.2881795 -55 102 C-53.91781938 100.72818493 -52.83455623 99.45728985 -51.75 98.1875 C-51.29109375 97.64480469 -50.8321875 97.10210937 -50.359375 96.54296875 C-49 95 -49 95 -47.390625 93.48828125 C-45.7475229 91.93695841 -45.7475229 91.93695841 -45 89 C-43.34181493 87.32489468 -41.67390769 85.65939404 -40 84 C-31.47875045 72.83529713 -23.8470018 60.5171437 -17.97265625 47.7578125 C-17 46 -17 46 -15 45 C-14.80857422 44.02353516 -14.80857422 44.02353516 -14.61328125 43.02734375 C-13.72331223 38.63418459 -11.90826095 34.68937685 -10.1875 30.5625 C-7.26737529 23.43033235 -4.7500348 16.40433796 -2.7890625 8.9453125 C-1.97760257 5.91639769 -1.01790617 2.96520492 0 0 Z " fill="#D6D6D9" transform="translate(189,232)"/>
<path d="M0 0 C2.8112966 1.4056483 4.91917224 2.56331158 7.36328125 4.3984375 C8.31062134 5.10794556 8.31062134 5.10794556 9.27709961 5.83178711 C9.94878174 6.34104736 10.62046387 6.85030762 11.3125 7.375 C12.01963135 7.90810791 12.7267627 8.44121582 13.45532227 8.99047852 C18.80798102 13.04653419 24.06302325 17.21442541 29.2890625 21.43164062 C34.60724751 25.71388751 40.01654268 29.86784452 45.45068359 34.00146484 C50.68402459 37.98477008 55.8796059 42.01383426 61.0625 46.0625 C69.2926486 52.48638113 77.62330823 58.76883692 86 65 C84.61862558 68.29442129 83.24051966 69.83058631 80.25756836 71.76708984 C79.48217209 72.27712555 78.70677582 72.78716125 77.90788269 73.31265259 C76.63670341 74.12855362 76.63670341 74.12855362 75.33984375 74.9609375 C74.45464554 75.54007904 73.56944733 76.11922058 72.65742493 76.71591187 C69.7565284 78.61125867 66.84732854 80.49340043 63.9375 82.375 C59.91857076 84.98911788 55.9028117 87.6080901 51.88671875 90.2265625 C50.87972931 90.88164795 49.87273987 91.5367334 48.8352356 92.21166992 C42.51522407 96.33048835 36.24695899 100.51610419 30.01953125 104.7734375 C28.51249322 105.79905267 27.00541443 106.82460796 25.49829102 107.85009766 C23.39208135 109.28415719 21.28963526 110.72244502 19.19747925 112.17694092 C17.29151035 113.50119354 15.3739235 114.80676582 13.453125 116.109375 C12.39254883 116.84124023 11.33197266 117.57310547 10.23925781 118.32714844 C3.52272003 121.79577347 -4.15824984 121.14879543 -11.5546875 121.1328125 C-12.53744659 121.13376923 -13.52020569 121.13472595 -14.53274536 121.13571167 C-16.59507309 121.13638845 -18.657403 121.13456937 -20.71972656 121.13037109 C-23.88611564 121.12498108 -27.05236509 121.13035071 -30.21875 121.13671875 C-32.22656281 121.13605856 -34.23437554 121.13477861 -36.2421875 121.1328125 C-37.19108856 121.13483673 -38.13998962 121.13686096 -39.11764526 121.13894653 C-40.43008713 121.13421829 -40.43008713 121.13421829 -41.76904297 121.12939453 C-42.53989227 121.12859894 -43.31074158 121.12780334 -44.10494995 121.12698364 C-46 121 -46 121 -48 120 C-48 120.99 -48 121.98 -48 123 C-56.91 123 -65.82 123 -75 123 C-75 122.34 -75 121.68 -75 121 C-85.25220258 120.77952253 -95.22226949 121.08311947 -105.41064453 122.28417969 C-110.98121433 122.93156707 -116.38591301 123.18406843 -122 123 C-115.41130029 113.11695043 -101.72114514 106.04861452 -90.3760128 103.58532906 C-87.61199152 103.04476307 -84.84269472 102.54749963 -82.06595993 102.07672501 C-79.75766201 101.68192463 -77.4562087 101.25833856 -75.15444946 100.82711792 C-68.61748492 99.60541366 -62.07568264 98.41477582 -55.52197266 97.28613281 C-28.10240376 92.53513871 -4.98299011 83.70471424 19.22918701 69.99331665 C32.11684242 63.01059041 48.80229463 65.34304976 63 66 C61.21672049 62.82570212 59.56742473 60.32779738 56.77734375 57.984375 C55.85356934 57.19788574 55.85356934 57.19788574 54.91113281 56.39550781 C54.25983398 55.85249023 53.60853516 55.30947266 52.9375 54.75 C51.5761317 53.59456391 50.2154555 52.4383119 48.85546875 51.28125 C48.19337402 50.72050781 47.5312793 50.15976562 46.84912109 49.58203125 C44.43818204 47.51933188 42.091154 45.39134536 39.75 43.25 C35.48174156 39.37365176 31.04989269 35.73551263 26.54296875 32.140625 C24 30 24 30 21.30078125 27.234375 C19.29540267 24.76777392 19.29540267 24.76777392 17 25 C16.92578546 28.93260944 16.87136864 32.86494722 16.83520508 36.7980957 C16.81271667 38.79327701 16.77459802 40.78826213 16.73632812 42.78320312 C16.72666016 44.03681641 16.71699219 45.29042969 16.70703125 46.58203125 C16.6913208 47.73936768 16.67561035 48.8967041 16.65942383 50.08911133 C16.77147285 52.96694991 16.77147285 52.96694991 18.25390625 54.86914062 C20.37708372 56.24421865 21.71088996 56.42237198 24.23046875 56.51171875 C25.03291016 56.54716797 25.83535156 56.58261719 26.66210938 56.61914062 C27.49548828 56.64169922 28.32886719 56.66425781 29.1875 56.6875 C30.03248047 56.72166016 30.87746094 56.75582031 31.74804688 56.79101562 C33.83156649 56.87341471 35.91576216 56.93838645 38 57 C37.67 56.01 37.34 55.02 37 54 C37.33 53.34 37.66 52.68 38 52 C32.39 52 26.78 52 21 52 C21 44.74 21 37.48 21 30 C25.64184753 33.97872645 30.07348266 37.92433608 34.37109375 42.23828125 C34.93828629 42.80451706 35.50547882 43.37075287 36.08985901 43.95414734 C37.27329173 45.13690579 38.45548773 46.32090288 39.63647461 47.50610352 C41.45377236 49.32882089 43.27643025 51.14605809 45.09960938 52.96289062 C46.25292547 54.11686647 47.40593191 55.2711519 48.55859375 56.42578125 C49.10535263 56.9705159 49.65211151 57.51525055 50.21543884 58.07649231 C54 61.88501099 54 61.88501099 54 63 C36.18 63 18.36 63 0 63 C0 42.21 0 21.42 0 0 Z " fill="#8698A2" transform="translate(251,339)"/>
<path d="M0 0 C4.05429617 3.89721089 7.60643137 8.05490729 11.125 12.4375 C11.97650635 13.49203369 11.97650635 13.49203369 12.84521484 14.56787109 C17.83666595 20.76362651 22.76025995 27.01167691 27.65722656 33.28222656 C29.93233953 36.19271654 32.21675416 39.09588926 34.5 42 C35.41017051 43.15884297 36.32032674 44.31769715 37.23046875 45.4765625 C39.12649346 47.88993014 41.02529198 50.30108428 42.92578125 52.7109375 C43.40917969 53.32453125 43.89257812 53.938125 44.390625 54.5703125 C45.30002675 55.72455319 46.21011671 56.87825219 47.12109375 58.03125 C47.94836127 59.08182899 48.76902661 60.13765282 49.58183861 61.19945526 C50.53412924 62.40851504 51.52252198 63.58991794 52.54299355 64.74201202 C56.96793479 69.99207309 57.85277748 73.77281964 57.68115234 80.53710938 C57.68246658 81.91411514 57.68246658 81.91411514 57.68380737 83.31893921 C57.67965494 86.32810047 57.63311458 89.33498228 57.5859375 92.34375 C57.57473701 94.43980695 57.56620086 96.53587969 57.56021118 98.63195801 C57.53738019 104.1298005 57.4785058 109.62668117 57.4119873 115.12414551 C57.35044133 120.74148551 57.32316986 126.358982 57.29296875 131.9765625 C57.22875746 142.98479594 57.12644708 153.99231777 57 165 C50.62840428 156.62082616 47.02525197 146.689772 44.13818359 136.64312744 C40.37890044 123.61355827 35.73181314 110.95190004 31 98.25 C30.21038498 96.11608978 29.42132047 93.98197578 28.6328125 91.84765625 C24.45554081 80.55253347 20.24081134 69.27141132 16 58 C16.14088547 58.72272598 16.28177094 59.44545197 16.42692566 60.19007874 C17.78790665 67.64653108 18.30729143 74.80083508 18.30078125 82.37109375 C18.30506638 83.49645035 18.3093515 84.62180695 18.31376648 85.78126526 C18.31946387 88.13664074 18.32004433 90.49203379 18.31567383 92.84741211 C18.31248664 96.45261129 18.33612448 100.05700966 18.36132812 103.66210938 C18.36359885 105.96093647 18.36430567 108.25976576 18.36328125 110.55859375 C18.372491 111.63257919 18.38170074 112.70656464 18.39118958 113.81309509 C18.33298286 123.17628319 18.33298286 123.17628319 15 127 C10.15282174 130.23145217 4.82165109 129.32789635 -0.875 129.3125 C-2.05964844 129.32861328 -3.24429687 129.34472656 -4.46484375 129.36132812 C-5.60824219 129.36197266 -6.75164062 129.36261719 -7.9296875 129.36328125 C-8.97366699 129.36626221 -10.01764648 129.36924316 -11.09326172 129.37231445 C-14.43928436 128.94373353 -16.29352706 127.98259366 -19 126 C-22.48684288 121.01879588 -23.17725228 116.7319518 -23.33569336 110.78833008 C-23.36964455 109.68970139 -23.36964455 109.68970139 -23.40428162 108.56887817 C-23.60306234 101.74598808 -23.71745804 94.92124249 -23.80750179 88.09613514 C-23.86878542 83.52805444 -23.9561503 78.96413774 -24.11108398 74.39819336 C-24.84414387 52.23936698 -24.78648523 35.62586533 -10.73254395 17.32113647 C-8.05163143 13.72944471 -5.85624193 9.88022552 -3.625 6 C-2.91204858 4.81057939 -2.19627928 3.62283913 -1.4765625 2.4375 C-0.98929687 1.633125 -0.50203125 0.82875 0 0 Z M5.32592773 35.60913086 C-8.9448451 51.30128893 -11.60242123 65.06588907 -11.1875 86 C-11.16599884 87.11736542 -11.14449768 88.23473083 -11.12234497 89.38595581 C-10.99501474 94.49006824 -10.80356109 99.59086918 -10.49682617 104.6875 C-10.44999191 105.47511719 -10.40315765 106.26273437 -10.35490417 107.07421875 C-10.14534051 109.23282025 -10.14534051 109.23282025 -8 111 C-4.94180773 111.32027305 -4.94180773 111.32027305 -1.5 111.25 C-0.3346875 111.25515625 0.830625 111.2603125 2.03125 111.265625 C5.11826065 111.30925773 5.11826065 111.30925773 7 109 C7.17488254 106.56255103 7.23177405 104.2406392 7.1953125 101.8046875 C7.1924826 101.09724396 7.18965271 100.38980042 7.18673706 99.66091919 C7.17553137 97.3987749 7.15042679 95.13702485 7.125 92.875 C7.11497067 91.34245363 7.10584474 89.80990106 7.09765625 88.27734375 C7.07559086 84.51807699 7.04105896 80.75910536 7 77 C6.34 77 5.68 77 5 77 C4.67 86.57 4.34 96.14 4 106 C1.36 105.67 -1.28 105.34 -4 105 C-5.73451364 99.79645909 -5.18591109 94.20885285 -5.18530273 88.76098633 C-5.18746101 86.60151607 -5.20554366 84.44258107 -5.22460938 82.28320312 C-5.32379469 58.35177023 -5.32379469 58.35177023 1 50 C3.79350988 48.20928854 5.34074462 48 8.625 48 C11 49 11 49 12.8125 52.0625 C13.204375 53.031875 13.59625 54.00125 14 55 C15.14680101 51.55959697 14.87124738 50.99729616 13.56640625 47.76953125 C13.0878418 46.56586914 13.0878418 46.56586914 12.59960938 45.33789062 C12.08624023 44.08782227 12.08624023 44.08782227 11.5625 42.8125 C11.22412109 41.96751953 10.88574219 41.12253906 10.53710938 40.25195312 C9.69974448 38.16443784 8.85379803 36.08083591 8 34 C6.73315383 33.88450254 6.73315383 33.88450254 5.32592773 35.60913086 Z " fill="#8698A2" transform="translate(410,92)"/>
<path d="M0 0 C4.93167065 4.10972554 9.48916608 8.37717047 13.875 13.0625 C14.45507812 13.66126953 15.03515625 14.26003906 15.6328125 14.87695312 C16.18453125 15.46541016 16.73625 16.05386719 17.3046875 16.66015625 C18.0469458 17.44338257 18.0469458 17.44338257 18.80419922 18.24243164 C20.29766639 20.43750518 20.62312719 22.3954703 21 25 C20.28569824 24.98428955 19.57139648 24.9685791 18.83544922 24.95239258 C0.9739361 24.45432505 0.9739361 24.45432505 -16.55859375 27.34375 C-19 28 -19 28 -22 28 C-22.33 28.66 -22.66 29.32 -23 30 C-24.11375 30.37125 -25.2275 30.7425 -26.375 31.125 C-36.56967792 34.77246974 -46.34067407 43.43035045 -52.5625 52.203125 C-54 54 -54 54 -57 55 C-58.47656971 55.11499184 -59.9575251 55.17778848 -61.43826294 55.20773315 C-62.34652328 55.2278949 -63.25478363 55.24805664 -64.19056702 55.26882935 C-65.68202492 55.29407181 -65.68202492 55.29407181 -67.20361328 55.31982422 C-68.25273392 55.34085205 -69.30185455 55.36187988 -70.38276672 55.38354492 C-80.05953788 55.56637953 -89.73749748 55.67254868 -99.41559029 55.75568962 C-105.91697003 55.81233779 -112.41588542 55.89398903 -118.91601562 56.03564453 C-125.2026537 56.1720824 -131.4870558 56.24452248 -137.77508163 56.27234268 C-140.16829035 56.2937988 -142.56140958 56.3378142 -144.95376968 56.405056 C-163.22238449 56.89495724 -163.22238449 56.89495724 -167.91628265 53.6926651 C-171.4479933 50.15867009 -175 45.15899946 -175 40 C-175.66 40 -176.32 40 -177 40 C-177.495 38.515 -177.495 38.515 -178 37 C-177.05945015 37.01784798 -177.05945015 37.01784798 -176.09989929 37.03605652 C-169.52848023 37.14978669 -162.95982423 37.18531975 -156.38745117 37.17700195 C-153.94037533 37.18394516 -151.4932698 37.21032275 -149.04663086 37.25708008 C-133.7627546 38.25708043 -133.7627546 38.25708043 -120.4889679 32.17707825 C-118.46842615 29.92079249 -116.75200001 27.46740548 -115 25 C-113.37139661 23.62043247 -111.70894925 22.27868996 -110 21 C-108.31002677 19.35697047 -106.64783606 17.68528688 -105 16 C-95.54367277 6.37111206 -95.54367277 6.37111206 -91 3 C-86.81582597 4.63873844 -84.01602195 7.71294346 -80.921875 10.84765625 C-80.35043762 11.41955185 -79.77900024 11.99144745 -79.19024658 12.58067322 C-77.98773552 13.78619786 -76.78764828 14.99414454 -75.58984375 16.2043457 C-73.74794101 18.06457948 -71.89808634 19.91661217 -70.046875 21.76757812 C-68.87973386 22.93963188 -67.71305087 24.11214207 -66.546875 25.28515625 C-65.71261993 26.12108055 -65.71261993 26.12108055 -64.86151123 26.97389221 C-61 30.88393472 -61 30.88393472 -61 32 C-74.53 32 -88.06 32 -102 32 C-96 25 -96 25 -93 22 C-90.50638429 23.20381448 -88.31856917 24.45428722 -86 26 C-85.56425342 21.89894693 -85.56425342 21.89894693 -88.375 19.25 C-90.67686401 16.78306954 -90.67686401 16.78306954 -93 17 C-93.66 17.66 -94.32 18.32 -95 19 C-96.05555519 19.92465521 -97.11895264 20.84038989 -98.1875 21.75 C-98.80109375 22.27335937 -99.4146875 22.79671875 -100.046875 23.3359375 C-101.01367188 24.15964844 -101.01367188 24.15964844 -102 25 C-103.31285913 26.12458088 -104.62537658 27.24956081 -105.9375 28.375 C-106.95833333 29.25 -107.97916667 30.125 -109 31 C-108.01 32.485 -108.01 32.485 -107 34 C-104.90752575 34.47517866 -104.90752575 34.47517866 -102.45849609 34.43237305 C-101.51767181 34.45216721 -100.57684753 34.47196136 -99.60751343 34.49235535 C-98.58976837 34.49874527 -97.57202332 34.50513519 -96.5234375 34.51171875 C-95.48305328 34.52966995 -94.44266907 34.54762115 -93.37075806 34.56611633 C-90.03888029 34.62041682 -86.70714734 34.65417853 -83.375 34.6875 C-81.11977142 34.72065561 -78.86456201 34.75514361 -76.609375 34.79101562 C-71.07304654 34.87615434 -65.53669979 34.94442022 -60 35 C-60 34.34 -60 33.68 -60 33 C-58.61790922 32.08363716 -57.23212501 31.17251127 -55.83154297 30.28466797 C-52.24495686 27.76899 -49.2035585 24.60252161 -46.0625 21.5625 C-41.26985966 16.92490226 -36.53005392 12.74197912 -31 9 C-29.66195312 9.90105469 -29.66195312 9.90105469 -28.296875 10.8203125 C-27.11513106 11.58938395 -25.93280881 12.3575673 -24.75 13.125 C-24.16347656 13.52332031 -23.57695312 13.92164063 -22.97265625 14.33203125 C-19.72045 16.51198613 -19.72045 16.51198613 -15.9609375 16.6484375 C-13.00197527 14.16102303 -10.44464641 11.38225546 -7.875 8.5 C-6.81009776 7.32273398 -5.7450017 6.14564325 -4.6796875 4.96875 C-3.79539063 3.9890625 -2.91109375 3.009375 -2 2 C-1.34 1.34 -0.68 0.68 0 0 Z " fill="#B4AE98" transform="translate(225,374)"/>
<path d="M0 0 C-2.49431197 1.66287465 -4.5873827 2.74943086 -7.32421875 3.8828125 C-8.17975342 4.24109131 -9.03528809 4.59937012 -9.91674805 4.96850586 C-10.83109619 5.35014893 -11.74544434 5.73179199 -12.6875 6.125 C-21.99427419 10.06916725 -31.05561236 14.29644818 -40 19 C-41.0523584 19.54213135 -41.0523584 19.54213135 -42.12597656 20.09521484 C-57.97460293 28.29460432 -72.22977992 38.6542719 -85.8203125 50.19140625 C-88 52 -88 52 -89.9921875 53.33984375 C-91.92341887 54.5692066 -91.92341887 54.5692066 -94 57 C-94.19767735 59.29907348 -94.06004366 61.47621967 -93.9140625 63.77734375 C-94.01196145 66.30936654 -94.46893959 67.45485715 -95.9375 69.5 C-99.82011139 72.66947869 -103.04444206 73.23549139 -108 73 C-108.495 72.505 -108.495 72.505 -109 72 C-110.84104236 74.45264589 -112.67147793 76.91300959 -114.5 79.375 C-115.02464844 80.07367188 -115.54929687 80.77234375 -116.08984375 81.4921875 C-116.58613281 82.1625 -117.08242187 82.8328125 -117.59375 83.5234375 C-118.05458984 84.14138184 -118.51542969 84.75932617 -118.99023438 85.39599609 C-120.17758392 86.9661943 -120.17758392 86.9661943 -120 89 C-118.741875 88.9175 -117.48375 88.835 -116.1875 88.75 C-112.30272391 88.7706637 -112.30272391 88.7706637 -109.9375 90.5625 C-108.58036117 94.09106096 -109.01484123 96.38775116 -110 100 C-111.6875 102 -111.6875 102 -114 103 C-117.15411935 102.87126043 -119.1994951 102.55207235 -121.8125 100.75 C-123 99 -123 99 -124 94 C-125.65 98.95 -127.3 103.9 -129 109 C-129.33 109 -129.66 109 -130 109 C-131.96484311 98.33597248 -131.05044524 87.93406696 -129.75 77.25 C-129.64075195 76.29230713 -129.53150391 75.33461426 -129.41894531 74.34790039 C-128.42822833 66.80635986 -126.92528379 59.3037296 -121.765625 53.4765625 C-120.93546875 52.86554688 -120.1053125 52.25453125 -119.25 51.625 C-118.28835937 50.90054688 -117.32671875 50.17609375 -116.3359375 49.4296875 C-115.80709961 49.04651367 -115.27826172 48.66333984 -114.73339844 48.26855469 C-112.80880963 46.86008097 -110.92402311 45.40636078 -109.0390625 43.9453125 C-96.79801915 34.5103507 -96.79801915 34.5103507 -90.4375 31.2578125 C-88.42042327 30.21694919 -86.46349632 29.12856619 -84.5 27.9921875 C-59.51955433 13.54690543 -29.46116537 -0.76739162 0 0 Z " fill="#4E5D6A" transform="translate(136,63)"/>
<path d="M0 0 C2.40276009 3.60414013 2.90940836 7.00713045 3.625 11.1875 C3.82609375 12.31188477 3.82609375 12.31188477 4.03125 13.45898438 C4.36045419 15.30487928 4.68106498 17.15230309 5 19 C6.11375 18.34 7.2275 17.68 8.375 17 C11.75 15 11.75 15 14 15 C13.125 22.625 13.125 22.625 12 26 C18.02900687 25.48758893 24.02004643 24.930215 30 24 C23.06631168 39.23798945 9.57766199 52.78565541 -6 59 C-7.34384766 59.53947266 -7.34384766 59.53947266 -8.71484375 60.08984375 C-24.28505421 65.60715666 -41.70997547 64.15448917 -58 64 C-55.16325548 52.73898387 -55.16325548 52.73898387 -51 50 C-45.08739652 47.34561844 -38.87922983 46.35789553 -32.50390625 45.4296875 C-30.01140767 45.12632553 -30.01140767 45.12632553 -28 44 C-28.89203125 43.95875 -29.7840625 43.9175 -30.703125 43.875 C-34.95362699 42.74690468 -36.43488497 40.50090565 -38.75 37 C-41.30557928 32.89899024 -41.30557928 32.89899024 -45 30 C-45.72693904 28.02111039 -46.39816251 26.02045442 -47 24 C-47.66 24 -48.32 24 -49 24 C-49.66 22.35 -50.32 20.7 -51 19 C-47.40082646 20.3206093 -44.12401458 21.99404652 -40.78344727 23.86914062 C-34.03247784 27.64837079 -27.65218647 30.47274449 -20 32 C-19.01719585 30.39805929 -18.03888283 28.79336258 -17.0625 27.1875 C-16.51722656 26.29417969 -15.97195312 25.40085937 -15.41015625 24.48046875 C-13.88990422 21.99296438 -13.88990422 21.99296438 -13 19 C-12.34 19 -11.68 19 -11 19 C-10.79375 18.195625 -10.5875 17.39125 -10.375 16.5625 C-7.99601437 10.39876451 -3.97081372 5.23910348 0 0 Z " fill="#4D5C6A" transform="translate(108,326)"/>
<path d="M0 0 C-5.25830041 4.87181025 -10.509674 9.66551684 -16.125 14.125 C-21.97082131 18.83530206 -27.38357365 23.96997444 -32.81103516 29.15283203 C-36.81499311 32.97218031 -40.88370734 36.6820141 -45.06420898 40.30712891 C-48.16347938 43.01747585 -51.17909942 45.81456321 -54.1875 48.625 C-54.82751953 49.22183594 -55.46753906 49.81867188 -56.12695312 50.43359375 C-61.07182843 55.07093979 -65.87760119 59.8324098 -70.63623047 64.65991211 C-73.26321094 67.31274384 -75.9054577 69.84480451 -78.8125 72.1875 C-81.59883926 74.47284723 -83.71523904 77.03925773 -85.9375 79.875 C-86.61296875 80.72578125 -87.2884375 81.5765625 -87.984375 82.453125 C-89.2838585 84.09510803 -90.56656545 85.75057816 -91.828125 87.421875 C-94.79758797 90.94031432 -96.61736769 92.80787651 -101.2890625 93.45703125 C-103.57600062 93.44435421 -105.86416909 93.35736109 -108.14453125 93.18359375 C-111.07353876 92.81537596 -111.07353876 92.81537596 -114 94 C-117.06722012 94.06816045 -120.120326 93.99764067 -123.1875 93.9375 C-126.08211111 93.86344089 -126.08211111 93.86344089 -129 95 C-130.91906917 95.08266486 -132.84089474 95.10740663 -134.76171875 95.09765625 C-135.87998047 95.09443359 -136.99824219 95.09121094 -138.15039062 95.08789062 C-139.31763672 95.07951172 -140.48488281 95.07113281 -141.6875 95.0625 C-142.86634766 95.05798828 -144.04519531 95.05347656 -145.25976562 95.04882812 C-148.17322789 95.03703273 -151.08658863 95.0205727 -154 95 C-151.06998888 93.04665925 -148.52046644 91.97488892 -145.23046875 90.7578125 C-143.52600586 90.11779297 -143.52600586 90.11779297 -141.78710938 89.46484375 C-139.40021469 88.5763957 -137.01220213 87.69094479 -134.62304688 86.80859375 C-128.95514281 84.67471918 -123.81118016 82.70895327 -119 79 C-118.154375 78.360625 -117.30875 77.72125 -116.4375 77.0625 C-113.94896163 75.01470597 -113.94896163 75.01470597 -111.625 72.625 C-107.92097923 68.92097923 -104.17174001 65.26655019 -99.62890625 62.6171875 C-96.60199127 60.75516254 -94.10742401 58.59640459 -91.4375 56.25 C-82.66210222 48.68265067 -73.32480213 41.86815178 -64 35 C-62.83645996 34.13640869 -62.83645996 34.13640869 -61.64941406 33.25537109 C-11.59992652 -3.86664217 -11.59992652 -3.86664217 0 0 Z " fill="#4D5C6A" transform="translate(168,92)"/>
<path d="M0 0 C0.91555664 0.31324219 1.83111328 0.62648437 2.77441406 0.94921875 C14.86132401 5.20973873 26.33268322 10.40682953 36 19 C33.0236494 19.91123853 30.89643215 20.01655629 27.83984375 19.4765625 C27.04513672 19.3425 26.25042969 19.2084375 25.43164062 19.0703125 C24.60857422 18.92335938 23.78550781 18.77640625 22.9375 18.625 C10.00720227 16.36350663 -2.70638489 15.76677108 -15.8125 15.75 C-17.06451706 15.74649536 -17.06451706 15.74649536 -18.34182739 15.74291992 C-37.31614704 15.72312666 -56.12384677 17.18835184 -75 19 C-72.3392783 16.8943929 -69.78451821 15.3022802 -66.69140625 13.9140625 C-65.86850098 13.5430542 -65.0455957 13.1720459 -64.19775391 12.78979492 C-63.32812012 12.4054126 -62.45848633 12.02103027 -61.5625 11.625 C-60.66450684 11.22579346 -59.76651367 10.82658691 -58.84130859 10.4152832 C-19.71528839 -6.85115382 -19.71528839 -6.85115382 0 0 Z " fill="#4E5C6A" transform="translate(254,51)"/>
<path d="M0 0 C12.680074 1.43451342 26.5333737 12.00625756 36 20 C37.00417969 20.84175781 38.00835937 21.68351562 39.04296875 22.55078125 C47.25788327 29.64848815 57.70570062 39.07512036 60 50 C58.79003906 53.15966797 58.79003906 53.15966797 56.765625 56.4921875 C56.41240173 57.08299103 56.05917847 57.67379456 55.69525146 58.28250122 C54.94802975 59.52358818 54.19097437 60.75880122 53.42480469 61.98828125 C52.24808744 63.87807154 51.10253472 65.7841433 49.9609375 67.6953125 C45.95575665 74.30185183 45.95575665 74.30185183 44 77 C43.34 77 42.68 77 42 77 C41.31025945 64.97880747 40.88850184 53.04180152 41 41 C36.38 41 31.76 41 27 41 C26.23371455 33.6245025 25.87094892 26.41326777 26 19 C25.31292969 19.37253906 24.62585938 19.74507812 23.91796875 20.12890625 C23.01691406 20.60199219 22.11585938 21.07507813 21.1875 21.5625 C20.29417969 22.03816406 19.40085937 22.51382813 18.48046875 23.00390625 C16 24 16 24 13 23 C11.46606445 20.99047852 11.46606445 20.99047852 9.86328125 18.37890625 C9.28642578 17.44369141 8.70957031 16.50847656 8.11523438 15.54492188 C7.52033203 14.56072266 6.92542969 13.57652344 6.3125 12.5625 C5.70599609 11.58216797 5.09949219 10.60183594 4.47460938 9.59179688 C0 2.2784027 0 2.2784027 0 0 Z " fill="#B3AE98" transform="translate(349,42)"/>
<path d="M0 0 C4.2725665 4.47129052 5.83458677 8.64195397 6.125 14.75 C5.90866525 21.21054235 3.79082782 25.81177354 -0.875 30.25 C-6.05266708 33.56901736 -11.35491189 33.25931911 -17.3125 32.8125 C-22.28267826 31.1917897 -23.94358984 27.46764527 -26.296875 23.06640625 C-28.14626059 18.96219285 -28.40513921 16.03923108 -27.875 11.5625 C-27.77316406 10.67046875 -27.67132813 9.7784375 -27.56640625 8.859375 C-27.48261719 8.18390625 -27.39882813 7.5084375 -27.3125 6.8125 C-26.6525 6.8125 -25.9925 6.8125 -25.3125 6.8125 C-25.085625 6.07 -24.85875 5.3275 -24.625 4.5625 C-22.47084035 0.04902264 -19.54407652 -1.67627956 -15 -3.5625 C-8.94447296 -4.58886051 -5.0889731 -3.36064261 0 0 Z " fill="#A3D8DF" transform="translate(68.3125,270.1875)"/>
<path d="M0 0 C-19.57110521 17.64607846 -62.9100805 17.50068576 -88 17 C-83.73266957 12.00832566 -76.96269552 9.24748788 -71.24267578 6.21386719 C-69.12751921 5.06902085 -67.06582993 3.85716348 -64.99609375 2.6328125 C-45.66158213 -8.0723817 -20.88191149 -3.87214253 0 0 Z " fill="#4E5D6B" transform="translate(211,32)"/>
<path d="M0 0 C3.55772262 1.00060949 5.78532698 2.59854571 8.4375 5.0625 C23.44249414 18.58101808 44.76252257 29.62796763 65 31 C63.54506255 38.49461967 57.81294875 44.493364 52.7109375 49.8828125 C51 51 51 51 48.97265625 50.7890625 C43.68771208 48.67508483 39.90830391 44.98245204 36 41 C34.73027422 39.72806008 33.45934592 38.45731994 32.1875 37.1875 C23.8125 28.8125 23.8125 28.8125 21.83203125 26.82421875 C20.69411626 25.69115628 19.54721775 24.5669516 18.38671875 23.45703125 C17.22332407 22.33951693 16.10561147 21.17471219 15 20 C15 19.34 15 18.68 15 18 C14.34 18 13.68 18 13 18 C11.68725586 16.56298828 11.68725586 16.56298828 10.21484375 14.5703125 C9.68439453 13.85746094 9.15394531 13.14460938 8.60742188 12.41015625 C8.05634766 11.65605469 7.50527344 10.90195312 6.9375 10.125 C6.10508789 9.00544922 6.10508789 9.00544922 5.25585938 7.86328125 C1.16870301 2.33740602 1.16870301 2.33740602 0 0 Z " fill="#4D5C6A" transform="translate(91,270)"/>
<path d="M0 0 C-0.66 0.33 -1.32 0.66 -2 1 C-2.33 1.66 -2.66 2.32 -3 3 C-4.99109553 3.69280809 -6.99304562 4.35457101 -9 5 C-11.09977978 6.00810323 -13.18354639 7.05023644 -15.25 8.125 C-20.77990431 11 -20.77990431 11 -23 11 C-23.33 11.66 -23.66 12.32 -24 13 C-25.66429093 13.9781095 -27.35797375 14.90632521 -29.0625 15.8125 C-43.55852072 24.10332754 -56.31024996 36.17368745 -68 48 C-69.25541557 44.23375329 -68.37061958 42.62811066 -67 39 C-66.34 39 -65.68 39 -65 39 C-65 37.68 -65 36.36 -65 35 C-64.34 35 -63.68 35 -63 35 C-62.75507813 34.14019531 -62.51015625 33.28039062 -62.2578125 32.39453125 C-58.8239558 23.12738382 -49.77828648 9.97231007 -40.87890625 5.39453125 C-36.40227871 3.63144333 -31.77869101 2.69913527 -27.0625 1.8125 C-26.14895752 1.6381543 -25.23541504 1.46380859 -24.29418945 1.28417969 C-16.11954402 -0.17168641 -8.28547422 -0.42189119 0 0 Z " fill="#4F5E6B" transform="translate(265,100)"/>
<path d="M0 0 C0.66 0.33 1.32 0.66 2 1 C-7.64618982 20.72109918 -19.92590197 39.15799602 -34 56 C-34.7115625 56.86367187 -35.423125 57.72734375 -36.15625 58.6171875 C-39.55790347 62.6461951 -39.55790347 62.6461951 -41 64 C-41.66 64 -42.32 64 -43 64 C-41.71572804 60.75270867 -40.37992974 57.53736 -38.9765625 54.33984375 C-31.31719821 38.720982 -31.31719821 38.720982 -28 22 C-27.34 22 -26.68 22 -26 22 C-25.97808594 21.113125 -25.95617187 20.22625 -25.93359375 19.3125 C-24.65370848 14.77131711 -21.90542506 13.31837457 -18.0625 11 C-17.38678955 10.57356201 -16.7110791 10.14712402 -16.01489258 9.70776367 C-14.6556685 8.85422976 -13.29102757 8.00925635 -11.92089844 7.17333984 C-10.21785169 6.13307006 -8.53321781 5.06278805 -6.8515625 3.98828125 C-1.96357298 0.91357817 -1.96357298 0.91357817 0 0 Z " fill="#4D5C6A" transform="translate(187,121)"/>
<path d="M0 0 C2.8100346 1.79363911 4.50940468 3.01880935 6 6 C6.04022391 8.3329866 6.04320247 10.66706666 6 13 C6.7425 12.896875 7.485 12.79375 8.25 12.6875 C11 13 11 13 13.375 15.0625 C15 18 15 18 15 21.5625 C13.8865674 25.38992457 13.42765278 26.94340833 10 29 C6.92503305 29.02120667 4.01235841 28.59217302 1 28 C0.34 26.02 -0.32 24.04 -1 22 C-1.680625 22.226875 -2.36125 22.45375 -3.0625 22.6875 C-8.10538623 23.22397726 -11.90164329 20.7322378 -16 18 C-16.89727611 12.98010394 -16.78953964 8.38169437 -14.25 3.9375 C-9.82464798 0.12678021 -5.89940638 -0.9832344 0 0 Z " fill="#92CDD0" transform="translate(31,188)"/>
<path d="M0 0 C0.68215576 -0.00563965 1.36431152 -0.0112793 2.06713867 -0.01708984 C7.00299027 0.05417291 11.28208688 0.99085246 16 2.3125 C16 2.9725 16 3.6325 16 4.3125 C15.15179688 4.53164063 14.30359375 4.75078125 13.4296875 4.9765625 C12.25664063 5.29367188 11.08359375 5.61078125 9.875 5.9375 C8.73804687 6.23914062 7.60109375 6.54078125 6.4296875 6.8515625 C3.84646786 7.60267668 1.64154383 8.49715155 -0.75927734 9.73388672 C-12.26101565 15.50312925 -23.71914731 15.63790929 -36.375 16.1875 C-38.57564671 16.30229943 -40.77617112 16.41946891 -42.9765625 16.5390625 C-48.31660681 16.82419828 -53.65741401 17.0801046 -59 17.3125 C-59 16.6525 -59 15.9925 -59 15.3125 C-40.65807191 6.74888457 -20.38645503 0.15628648 0 0 Z " fill="#4D5C6A" transform="translate(96,32.6875)"/>
<path d="M0 0 C-1.03171816 12.46206933 -1.03171816 12.46206933 -6.4375 17.0625 C-7.15035156 17.660625 -7.86320312 18.25875 -8.59765625 18.875 C-17.85558749 27.06412942 -25.0708867 36.83930458 -32 47 C-32.66 46.67 -33.32 46.34 -34 46 C-31.67441495 36.21851916 -28.84983067 26.85826562 -24.6875 17.6875 C-24.17425171 16.4977356 -24.17425171 16.4977356 -23.65063477 15.28393555 C-20.34210363 8.29992573 -15.77710535 5.63346935 -8.84765625 2.63671875 C-7.92855469 2.32347656 -7.00945312 2.01023438 -6.0625 1.6875 C-5.12535156 1.36136719 -4.18820313 1.03523437 -3.22265625 0.69921875 C-1 0 -1 0 0 0 Z " fill="#4D5C6A" transform="translate(136,142)"/>
<path d="M0 0 C-4.01078985 7.79987775 -8.93702974 14.86330771 -14 22 C-30.31808279 20.84095861 -30.31808279 20.84095861 -36 18 C-33.71056942 11.91665589 -31.31022971 6.96203667 -26 3 C-17.81824389 0.27036608 -8.5704499 -0.19669885 0 0 Z " fill="#4D5C6A" transform="translate(238,342)"/>
<path d="M0 0 C21.17469184 9.85328994 21.17469184 9.85328994 24.9296875 17.36328125 C24.0840625 17.15832031 23.2384375 16.95335938 22.3671875 16.7421875 C5.06141968 12.63206764 -10.56771164 13.14072876 -28.0703125 15.36328125 C-25.46802811 11.20802069 -22.88330942 7.96740467 -19.1953125 4.67578125 C-18.37289063 3.92941406 -17.55046875 3.18304688 -16.703125 2.4140625 C-10.25342192 -2.60981601 -7.35385147 -3.0591225 0 0 Z " fill="#4D5C6A" transform="translate(300.0703125,107.63671875)"/>
<path d="M0 0 C-3.43156824 6.98448859 -7.34292181 14.62118266 -14 19 C-20.83607886 20.80741492 -28.07195594 19.94924718 -35 19 C-34.07461682 15.97147324 -33.06149694 12.98348029 -32 10 C-31.61062256 8.84854492 -31.61062256 8.84854492 -31.21337891 7.67382812 C-29.13166312 2.498435 -29.13166312 2.498435 -26.15527344 1.1875 C-23.87156028 0.75230775 -21.69795216 0.5834565 -19.375 0.5 C-18.17254639 0.41322998 -18.17254639 0.41322998 -16.94580078 0.32470703 C-11.30023682 -0.05090279 -5.65502662 -0.18242021 0 0 Z " fill="#4D5C6A" transform="translate(191,362)"/>
<path d="M0 0 C3.21954226 1.38505023 5.03717147 2.9099325 7.234375 5.625 C7.80800781 6.33140625 8.38164062 7.0378125 8.97265625 7.765625 C9.55917969 8.50296875 10.14570313 9.2403125 10.75 10 C11.35199219 10.73734375 11.95398438 11.4746875 12.57421875 12.234375 C17 17.73398526 17 17.73398526 17 20 C16.25540527 19.96970703 15.51081055 19.93941406 14.74365234 19.90820312 C-4.62154654 19.08698353 -4.62154654 19.08698353 -24 19 C-24.33 18.01 -24.66 17.02 -25 16 C-24.45585449 15.65743164 -23.91170898 15.31486328 -23.35107422 14.96191406 C-20.85853735 13.39208752 -18.36676375 11.82105339 -15.875 10.25 C-15.0190625 9.71117187 -14.163125 9.17234375 -13.28125 8.6171875 C-8.81492748 5.79996868 -4.37605526 2.95563077 0 0 Z " fill="#4D5B69" transform="translate(292,439)"/>
<path d="M0 0 C4.63033862 3.82599145 8.8996157 7.80441784 12.9375 12.25 C13.67709961 13.04277344 13.67709961 13.04277344 14.43164062 13.8515625 C18 17.75151699 18 17.75151699 18 20 C12.96428868 19.5948103 7.92891071 19.18576539 2.89379883 18.77319336 C1.18197036 18.63346878 -0.52994345 18.49478568 -2.24194336 18.35717773 C-4.70710219 18.15884808 -7.17192667 17.95673684 -9.63671875 17.75390625 C-10.39836838 17.6934462 -11.16001801 17.63298615 -11.94474792 17.57069397 C-15.69221045 17.25863463 -19.33221486 16.84007179 -23 16 C-18.47475498 12.2028494 -13.61030105 8.9981939 -8.6875 5.75 C-7.85154297 5.19570313 -7.01558594 4.64140625 -6.15429688 4.0703125 C-4.10425208 2.71142566 -2.05279662 1.3547247 0 0 Z " fill="#4C5B69" transform="translate(321,420)"/>
<path d="M0 0 C0.33895656 1.72807318 0.67091525 3.45751974 1 5.1875 C1.185625 6.15042969 1.37125 7.11335938 1.5625 8.10546875 C1.96957201 10.79868625 2.03202503 13.28387682 2 16 C-2.12385827 16.50972081 -6.24923423 17.00597627 -10.375 17.5 C-11.53128906 17.64308594 -12.68757813 17.78617187 -13.87890625 17.93359375 C-20.62477351 18.73395088 -27.20679329 19.20967886 -34 19 C-28.01510903 10.02266355 -16.00514121 3.52950559 -5.8984375 0.3359375 C-4 0 -4 0 0 0 Z " fill="#4C5B69" transform="translate(163,443)"/>
<path d="M0 0 C0.62342285 0.17128418 1.2468457 0.34256836 1.88916016 0.51904297 C13.53098163 3.69603534 24.96224832 6.78996604 37 8 C35.26017005 13.81261371 33.1889511 18.83169994 30 24 C19.42271739 21.01144826 9.53127257 11.8463258 2 4 C1.30438469 2.68153818 0.63258691 1.34983556 0 0 Z " fill="#4C5B69" transform="translate(140,252)"/>
<path d="M0 0 C2.94907218 1.80965793 4.60862641 3.34178078 6.375 6.3125 C7.47726509 11.0522399 6.74394963 14.63113268 4.4375 18.875 C1.58334431 21.36323829 -0.24060685 22.01217809 -3.96875 22.26953125 C-8.40841942 21.68042127 -10.74712454 18.51389118 -13.5 15.1875 C-14.32773167 11.56617395 -13.38071682 8.3960055 -12 5 C-8.37458994 0.58153149 -5.70963039 -0.55976769 0 0 Z " fill="#A7D8DF" transform="translate(124,208)"/>
<path d="M0 0 C0 6.27 0 12.54 0 19 C-8.91 19 -17.82 19 -27 19 C-21.63087723 10.05146206 -11.29959722 0 0 0 Z " fill="#4D5C6A" transform="translate(203,443)"/>
<path d="M0 0 C1.73697401 0.01004968 3.47395364 0.01917202 5.2109375 0.02734375 C9.4324325 0.04920026 13.65365307 0.08362049 17.875 0.125 C17.875 0.455 17.875 0.785 17.875 1.125 C16.84246094 1.27195312 15.80992187 1.41890625 14.74609375 1.5703125 C-5.98298171 4.68292364 -26.9147748 9.4103978 -45.125 20.125 C-42.95937542 15.37118994 -39.67986934 11.8975144 -36.125 8.125 C-35.57585937 7.5371875 -35.02671875 6.949375 -34.4609375 6.34375 C-25.52695829 -2.29384128 -11.51854264 -0.11632675 0 0 Z " fill="#515F6D" transform="translate(232.125,84.875)"/>
<path d="M0 0 C1.50723156 3.01446312 0.42180781 5.02149996 -0.3984375 8.25 C-0.71296875 9.4978125 -1.0275 10.745625 -1.3515625 12.03125 C-1.60341309 13.00771484 -1.60341309 13.00771484 -1.86035156 14.00390625 C-2.37252725 15.99040929 -2.87466651 17.97923495 -3.375 19.96875 C-5.84598214 29.69196429 -5.84598214 29.69196429 -7 32 C-9.25056722 31.88566637 -11.50046674 31.75813564 -13.75 31.625 C-15.00296875 31.55539062 -16.2559375 31.48578125 -17.546875 31.4140625 C-20.60998121 31.04676696 -22.41974266 30.60288714 -25 29 C-18.47323175 21.31815077 -11.90650579 13.70358097 -5.05859375 6.3046875 C-3.24357069 4.27268824 -1.59259393 2.20826123 0 0 Z " fill="#505F6D" transform="translate(172,315)"/>
<path d="M0 0 C1.51561381 3.03122763 0.39877205 5.07846675 -0.43359375 8.3203125 C-0.9121582 10.20556641 -0.9121582 10.20556641 -1.40039062 12.12890625 C-1.74594249 13.46097675 -2.09164761 14.7930075 -2.4375 16.125 C-2.77994153 17.46467913 -3.12174652 18.80452115 -3.46289062 20.14453125 C-4.30231643 23.43129709 -5.15036106 26.71585947 -6 30 C-11.94 29.67 -17.88 29.34 -24 29 C-24 25.30284186 -23.28646715 24.89006638 -20.78125 22.3046875 C-20.09933594 21.5923999 -19.41742188 20.8801123 -18.71484375 20.14624023 C-17.98394531 19.39673096 -17.25304687 18.64722168 -16.5 17.875 C-15.03035318 16.3433079 -13.56159419 14.81076342 -12.09375 13.27734375 C-11.03220703 12.17302002 -11.03220703 12.17302002 -9.94921875 11.04638672 C-6.5288439 7.45550721 -3.2465779 3.74851594 0 0 Z " fill="#505F6C" transform="translate(217,302)"/>
<path d="M0 0 C3.31485255 1.22520217 4.90401957 2.83053399 6.90234375 5.703125 C7.71828183 10.19078446 7.2382878 12.11793215 4.96484375 16.078125 C2.09590464 19.10236281 -0.83373674 19.87656088 -4.9375 20.0546875 C-7.09765625 19.703125 -7.09765625 19.703125 -10.16015625 17.328125 C-12.39541017 13.97524412 -12.89013364 10.81742605 -12.640625 6.83203125 C-12.02826994 4.43107077 -11.35677318 3.30832494 -9.59765625 1.578125 C-5.81659041 -0.44744599 -4.09744731 -0.84937487 0 0 Z " fill="#A7D8DF" transform="translate(35.09765625,116.296875)"/>
<path d="M0 0 C0.33 0.66 0.66 1.32 1 2 C-1.00511864 8.01535592 -4.27713193 12.13856597 -10 15 C-11.5195764 15.15123831 -13.04472502 15.24881693 -14.5703125 15.31640625 C-15.91416016 15.37924805 -15.91416016 15.37924805 -17.28515625 15.44335938 C-18.22230469 15.48267578 -19.15945312 15.52199219 -20.125 15.5625 C-21.06988281 15.60568359 -22.01476563 15.64886719 -22.98828125 15.69335938 C-25.32537092 15.79959072 -27.6625683 15.90163176 -30 16 C-26.89322744 7.63319248 -26.89322744 7.63319248 -23.625 5.31640625 C-22.75875 5.06761719 -21.8925 4.81882812 -21 4.5625 C-20.0409375 4.27890625 -19.081875 3.9953125 -18.09375 3.703125 C-13.92739257 2.75622558 -9.76205203 1.99018364 -5.53125 1.39453125 C-2.8842994 1.05385172 -2.8842994 1.05385172 0 0 Z " fill="#8596A0" transform="translate(81,370)"/>
<path d="M0 0 C1.39479348 2.78958697 0.61589783 4.16652947 -0.1796875 7.15625 C-0.44910156 8.17847656 -0.71851563 9.20070313 -0.99609375 10.25390625 C-1.28613281 11.32511719 -1.57617188 12.39632813 -1.875 13.5 C-2.15730469 14.57121094 -2.43960937 15.64242188 -2.73046875 16.74609375 C-4.84322355 24.6864471 -4.84322355 24.6864471 -6 27 C-12.44070471 27.10655578 -18.62641289 26.96205088 -25 26 C-20.03805145 20.00499003 -14.6523376 14.53572963 -9.125 9.0625 C-8.24585938 8.18787109 -7.36671875 7.31324219 -6.4609375 6.41210938 C-4.3095654 4.27242952 -2.15588208 2.13513403 0 0 Z " fill="#4F5E6B" transform="translate(262,293)"/>
<path d="M0 0 C4.62 0 9.24 0 14 0 C14 11.22 14 22.44 14 34 C6.44681191 23.92908255 2.82250962 12.13679136 0 0 Z " fill="#4C5B69" transform="translate(453,223)"/>
<path d="M0 0 C4.2725665 4.47129052 5.83458677 8.64195397 6.125 14.75 C5.90866525 21.21054235 3.79082782 25.81177354 -0.875 30.25 C-6.05266708 33.56901736 -11.35491189 33.25931911 -17.3125 32.8125 C-22.28267826 31.1917897 -23.94358984 27.46764527 -26.296875 23.06640625 C-28.14626059 18.96219285 -28.40513921 16.03923108 -27.875 11.5625 C-27.77316406 10.67046875 -27.67132813 9.7784375 -27.56640625 8.859375 C-27.48261719 8.18390625 -27.39882813 7.5084375 -27.3125 6.8125 C-26.6525 6.8125 -25.9925 6.8125 -25.3125 6.8125 C-25.085625 6.07 -24.85875 5.3275 -24.625 4.5625 C-22.47084035 0.04902264 -19.54407652 -1.67627956 -15 -3.5625 C-8.94447296 -4.58886051 -5.0889731 -3.36064261 0 0 Z M-23.3984375 5.73828125 C-25.45332669 10.40129903 -25.05547508 15.86552429 -24.3125 20.8125 C-22.00635017 25.45765079 -18.97766084 28.47991958 -14.3125 30.8125 C-9.28714247 31.19177227 -6.3038315 30.96355119 -2.3125 27.8125 C0.59488722 24.8804739 3.30092514 22.06482351 3.6875 17.8125 C3.790625 16.74 3.89375 15.6675 4 14.5625 C3.49143287 8.45969445 1.45210416 4.38103703 -3.125 0.3125 C-10.7271252 -3.26497068 -18.24799731 -0.85760506 -23.3984375 5.73828125 Z " fill="#93CDCF" transform="translate(68.3125,270.1875)"/>
<path d="M0 0 C0.33 0.66 0.66 1.32 1 2 C0.22729492 3.73999023 0.22729492 3.73999023 -1.01953125 5.80859375 C-1.46490234 6.55560547 -1.91027344 7.30261719 -2.36914062 8.07226562 C-2.84544922 8.85279297 -3.32175781 9.63332031 -3.8125 10.4375 C-4.27720703 11.21416016 -4.74191406 11.99082031 -5.22070312 12.79101562 C-7.09054838 15.90563591 -8.98445602 18.97668403 -11 22 C-17.6613344 20.96687638 -22.51713579 18.91419734 -28 15 C-24.95734003 12.56650328 -21.84835081 10.80796078 -18.359375 9.08203125 C-17.28945313 8.55029297 -16.21953125 8.01855469 -15.1171875 7.47070312 C-14.00601562 6.92349609 -12.89484375 6.37628906 -11.75 5.8125 C-10.06003906 4.97428711 -10.06003906 4.97428711 -8.3359375 4.11914062 C-5.55906084 2.74246872 -2.78038402 1.36957072 0 0 Z " fill="#4E5D6B" transform="translate(301,291)"/>
<path d="M0 0 C-2.31 5.94 -4.62 11.88 -7 18 C-10.44904892 18 -11.11008852 17.45359281 -13.79296875 15.4453125 C-14.8612793 14.64673828 -14.8612793 14.64673828 -15.95117188 13.83203125 C-16.68916016 13.26871094 -17.42714844 12.70539063 -18.1875 12.125 C-18.93708984 11.56941406 -19.68667969 11.01382812 -20.45898438 10.44140625 C-24.57143843 7.33554923 -24.57143843 7.33554923 -26 6 C-26 5.34 -26 4.68 -26 4 C-22.42010978 3.13094278 -18.83566807 2.28237304 -15.25 1.4375 C-14.23421875 1.19064453 -13.2184375 0.94378906 -12.171875 0.68945312 C-11.1921875 0.46064453 -10.2125 0.23183594 -9.203125 -0.00390625 C-8.30239258 -0.21861572 -7.40166016 -0.4333252 -6.47363281 -0.65454102 C-4 -1 -4 -1 0 0 Z " fill="#505F6D" transform="translate(305,350)"/>
<path d="M0 0 C1.875 1.75 1.875 1.75 3 4 C2.92327576 7.6060394 2.17859227 9.69089799 0.375 12.8125 C-2.77029891 15.70948584 -4.75947928 16 -9 16 C-11.875 15.0625 -11.875 15.0625 -14 13 C-15.00542038 10.27772144 -15.28186786 7.88632693 -15 5 C-13.1093158 1.52114108 -11.60720868 0.29714467 -8.0625 -1.4375 C-4.49725813 -2.09234034 -3.09441213 -1.83992072 0 0 Z " fill="#A6D8DF" transform="translate(32,192)"/>
<path d="M0 0 C-0.51537952 7.13393752 -1.44005901 14.01812817 -3 21 C-9.68364774 16.73796376 -15.87987207 12.03409271 -22 7 C-18.31568041 4.98351818 -14.40954452 3.69263097 -10.4375 2.375 C-9.76525391 2.14554687 -9.09300781 1.91609375 -8.40039062 1.6796875 C-5.47748655 0.70441861 -3.1026844 0 0 0 Z " fill="#51606E" transform="translate(327,368)"/>
<path d="M0 0 C6.27 0 12.54 0 19 0 C16.03 7.59 13.06 15.18 10 23 C7.30814992 21.65407496 7.15246858 20.36989398 6.0546875 17.59765625 C5.70019531 16.70755859 5.34570312 15.81746094 4.98046875 14.90039062 C4.61566406 13.96388672 4.25085938 13.02738281 3.875 12.0625 C3.50246094 11.12986328 3.12992187 10.19722656 2.74609375 9.23632812 C0 2.28056319 0 2.28056319 0 0 Z " fill="#4F5E6C" transform="translate(405,224)"/>
<path d="M0 0 C3.375 1.0625 3.375 1.0625 5.3125 2.625 C6.84665833 6.14453969 7.08050055 9.28690914 6.375 13.0625 C4.57564278 15.56874756 3.1861808 16.66999316 0.4375 18 C-2.59484269 18.09188917 -4.19722838 16.78749563 -6.625 15.0625 C-8.625 13.0625 -8.625 13.0625 -9.0625 9.25 C-8.96278561 5.83478216 -8.58460844 5.00252465 -6.5625 2 C-3.625 0.0625 -3.625 0.0625 0 0 Z " fill="#BDD9DE" transform="translate(58.625,275.9375)"/>
<path d="M0 0 C2.20589842 0.87167692 3.49464548 1.85363559 5.22070312 3.47241211 C5.79433594 4.00608398 6.36796875 4.53975586 6.95898438 5.08959961 C7.54550781 5.64905273 8.13203125 6.20850586 8.73632812 6.78491211 C9.33832031 7.34436523 9.9403125 7.90381836 10.56054688 8.48022461 C12.06097127 9.88878628 13.52689815 11.33391814 14.98632812 12.78491211 C14.98632812 13.11491211 14.98632812 13.44491211 14.98632812 13.78491211 C7.73804886 13.3132775 0.51354316 12.68530288 -6.70117188 11.84741211 C-7.39597656 11.77280762 -8.09078125 11.69820313 -8.80664062 11.62133789 C-13.78047107 11.01811292 -13.78047107 11.01811292 -16.01367188 8.78491211 C-13.77312049 7.24827727 -11.52304915 5.73090507 -9.26367188 4.22241211 C-8.62945312 3.78477539 -7.99523437 3.34713867 -7.34179688 2.89624023 C-2.55124776 -0.2725084 -2.55124776 -0.2725084 0 0 Z " fill="#4D5B69" transform="translate(343.013671875,407.215087890625)"/>
<path d="M0 0 C0.66 0.33 1.32 0.66 2 1 C-1.63 7.93 -5.26 14.86 -9 22 C-13.4445628 21.25923953 -16.01457575 20.75072957 -19.875 18.9375 C-20.65617187 18.57527344 -21.43734375 18.21304687 -22.2421875 17.83984375 C-22.82226562 17.56269531 -23.40234375 17.28554688 -24 17 C-21.68751253 14.5046777 -19.22793008 12.73082703 -16.3671875 10.8984375 C-15.47902344 10.32609375 -14.59085937 9.75375 -13.67578125 9.1640625 C-12.75152344 8.57367188 -11.82726562 7.98328125 -10.875 7.375 C-9.03840895 6.19633023 -7.2024371 5.01669489 -5.3671875 3.8359375 C-4.55362793 3.31563965 -3.74006836 2.7953418 -2.90185547 2.25927734 C-1.07228856 1.13868881 -1.07228856 1.13868881 0 0 Z " fill="#4E5D6B" transform="translate(333,270)"/>
<path d="M0 0 C0.33 0 0.66 0 1 0 C1 8.91 1 17.82 1 27 C-9 25 -9 25 -12 24 C-10.42195846 18.39523177 -7.73583615 13.64949374 -4.875 8.625 C-4.17310547 7.37783203 -4.17310547 7.37783203 -3.45703125 6.10546875 C-2.30929451 4.06765046 -1.15686718 2.03264431 0 0 Z " fill="#4E5D6B" transform="translate(351,235)"/>
<path d="M0 0 C2.0625 1.5625 2.0625 1.5625 3 4 C2.93375803 7.77579201 2.78061285 10.07482922 0.3125 13 C-2.87167993 14.37694267 -4.70924801 13.980224 -8 13 C-9.8125 11.875 -9.8125 11.875 -11 10 C-11.6875 6.3125 -11.6875 6.3125 -12 3 C-8.22598674 -0.77401326 -5.06457949 -0.56273105 0 0 Z " fill="#94CDCF" transform="translate(24,152)"/>
<path d="M0 0 C1.84494322 3.24027843 2.53659594 6.20447945 3.125 9.875 C3.29257812 10.88304687 3.46015625 11.89109375 3.6328125 12.9296875 C3.99827995 15.98561748 4.06424163 18.92557891 4 22 C0.0186217 23.3271261 -3.85045227 23.06915913 -8 23 C-7.35692944 17.89562747 -5.83831927 13.45238886 -4 8.6875 C-3.72671875 7.95982422 -3.4534375 7.23214844 -3.171875 6.48242188 C-1.14074248 1.14074248 -1.14074248 1.14074248 0 0 Z " fill="#505F6D" transform="translate(359,199)"/>
<path d="M0 0 C2.94907218 1.80965793 4.60862641 3.34178078 6.375 6.3125 C7.47726509 11.0522399 6.74394963 14.63113268 4.4375 18.875 C1.58334431 21.36323829 -0.24060685 22.01217809 -3.96875 22.26953125 C-8.40841942 21.68042127 -10.74712454 18.51389118 -13.5 15.1875 C-14.32773167 11.56617395 -13.38071682 8.3960055 -12 5 C-8.37458994 0.58153149 -5.70963039 -0.55976769 0 0 Z M-10 7 C-11.37749054 10.48964271 -11.11114829 11.72477566 -9.6875 15.25 C-8.28605821 18.0771545 -8.28605821 18.0771545 -6 19 C-3.08461971 19.50042146 -3.08461971 19.50042146 0 19 C3.16196359 16.25408425 3.91691332 14.59199258 4.5 10.4375 C4.25086233 6.99854452 4.25086233 6.99854452 2.375 4.5625 C-2.61522062 1.27946012 -6.56435716 2.29189685 -10 7 Z " fill="#94CED0" transform="translate(124,208)"/>
<path d="M0 0 C2.10900699 3.16351048 3.0584157 5.88040844 4.1875 9.5 C4.55230469 10.6446875 4.91710937 11.789375 5.29296875 12.96875 C6 16 6 16 5 19 C1.53820104 20.82706056 -1.14375495 21.08411273 -5 21 C-3.83760783 13.80684375 -2.25496388 6.93025566 0 0 Z " fill="#505F6D" transform="translate(361,165)"/>
<path d="M0 0 C3.31485255 1.22520217 4.90401957 2.83053399 6.90234375 5.703125 C7.71828183 10.19078446 7.2382878 12.11793215 4.96484375 16.078125 C2.09590464 19.10236281 -0.83373674 19.87656088 -4.9375 20.0546875 C-7.09765625 19.703125 -7.09765625 19.703125 -10.16015625 17.328125 C-12.39541017 13.97524412 -12.89013364 10.81742605 -12.640625 6.83203125 C-12.02826994 4.43107077 -11.35677318 3.30832494 -9.59765625 1.578125 C-5.81659041 -0.44744599 -4.09744731 -0.84937487 0 0 Z M-7.84765625 3.265625 C-10.40238936 5.59428139 -10.40238936 5.59428139 -10.72265625 9.203125 C-10.39747689 12.79947296 -10.39747689 12.79947296 -7.91015625 15.140625 C-4.8548875 16.83799653 -3.51044071 17.40318335 -0.09765625 16.703125 C2.35948744 15.24643738 2.35948744 15.24643738 3.90234375 12.703125 C4.65234375 9.203125 4.65234375 9.203125 3.90234375 5.703125 C1.77548446 3.1513964 1.77548446 3.1513964 -1.09765625 1.703125 C-5.04516775 1.37378539 -5.04516775 1.37378539 -7.84765625 3.265625 Z " fill="#8ECFD1" transform="translate(35.09765625,116.296875)"/>
<path d="M0 0 C1.875 1.125 1.875 1.125 3 3 C3.39365568 6.14924548 3.52854531 8.11909116 1.875 10.875 C-0.88090884 12.52854531 -2.85075452 12.39365568 -6 12 C-7.875 10.875 -7.875 10.875 -9 9 C-9.39365568 5.85075452 -9.52854531 3.88090884 -7.875 1.125 C-5.11909116 -0.52854531 -3.14924548 -0.39365568 0 0 Z " fill="#93CCCF" transform="translate(37,261)"/>
<path d="M0 0 C0 6.27 0 12.54 0 19 C-3.2140693 15.7859307 -5.40339584 13.13827429 -7.8125 9.375 C-8.43769531 8.41335937 -9.06289063 7.45171875 -9.70703125 6.4609375 C-10.13371094 5.64882812 -10.56039063 4.83671875 -11 4 C-10 2 -10 2 -7.1875 0.875 C-4 0 -4 0 0 0 Z " fill="#4E5D6A" transform="translate(467,195)"/>
<path d="M0 0 C3.625 0.375 3.625 0.375 7 1 C8.33359073 7.42548263 8.33359073 7.42548263 6.875 9.9375 C4.33639987 11.37604008 2.87213496 11.50262362 0 11 C-1.875 9.3125 -1.875 9.3125 -3 7 C-2.75925978 3.62963689 -2.41201979 2.41201979 0 0 Z " fill="#A7D8DF" transform="translate(35,203)"/>
<path d="M0 0 C3.125 0.3125 3.125 0.3125 5.0625 2 C6.38460381 4.87752006 6.03491047 6.33461118 5.125 9.3125 C2.375 10.5 2.375 10.5 -0.875 11.3125 C-3.25 9.9375 -3.25 9.9375 -4.875 8.3125 C-3.87059118 0.42071643 -3.87059118 0.42071643 0 0 Z " fill="#8B3522" transform="translate(94.875,371.6875)"/>
<path d="M0 0 C3.40992908 3.15516427 5.39415862 6.65828071 7 11 C7.0625 13.8125 7.0625 13.8125 6 16 C1.96551724 19 1.96551724 19 -1 19 C-1.12086218 12.56744599 -0.82351864 6.38226945 0 0 Z " fill="#4F5E6C" transform="translate(361,133)"/>
<path d="M0 0 C3 0.25 3 0.25 5 2.25 C4.625 5.875 4.625 5.875 4 9.25 C0.625 9.875 0.625 9.875 -3 10.25 C-5 8.25 -5 8.25 -5.25 5.25 C-4.90584825 1.120179 -4.129821 0.34415175 0 0 Z " fill="#94CFD2" transform="translate(5,117.75)"/>
<path d="M0 0 C0.66 0.66 1.32 1.32 2 2 C1.875 5.5 1.875 5.5 1 9 C-0.75 10.625 -0.75 10.625 -3 11 C-5.75 9.625 -5.75 9.625 -8 8 C-7.74438677 5.6568787 -7.40729228 3.32156597 -7 1 C-4.48718205 -0.25640898 -2.78302919 -0.20872719 0 0 Z " fill="#BED9DE" transform="translate(29,194)"/>
<path d="M0 0 C4.13621084 3.3810038 7.81316569 6.66590534 11 11 C8.69 12.65 6.38 14.3 4 16 C2.06757715 12.65479742 1.4536147 9.55232518 0.875 5.75 C0.70742188 4.67234375 0.53984375 3.5946875 0.3671875 2.484375 C0.24601562 1.66453125 0.12484375 0.8446875 0 0 Z " fill="#4F5F6C" transform="translate(354,103)"/>
<path d="M0 0 C1 1 1 1 1.1875 3.9375 C1 7 1 7 -1 9 C-4.29714793 8.67028521 -5.6226839 8.3773161 -8 6 C-7.75 2.9375 -7.75 2.9375 -7 0 C-4.31633121 -1.3418344 -2.84719317 -0.73004953 0 0 Z " fill="#BDD9DE" transform="translate(124,215)"/>
<path d="M0 0 C3.68754757 0.49831724 5.60490662 1.10067643 8 4 C7.375 5.9375 7.375 5.9375 6 8 C2.875 8.75 2.875 8.75 0 9 C-0.99 7.35 -1.98 5.7 -3 4 C-2.01 2.68 -1.02 1.36 0 0 Z " fill="#BDD9DE" transform="translate(30,121)"/>
<path d="M0 0 C4.15358254 3.43469325 7.78875342 6.63270466 11 11 C7.37 11 3.74 11 0 11 C0 7.37 0 3.74 0 0 Z " fill="#D1D1D5" transform="translate(256,389)"/>
<path d="M0 0 C1 1 1 1 1.1875 3.4375 C1 6 1 6 -1 8 C-3.5 8.3125 -3.5 8.3125 -6 8 C-8 5 -8 5 -7.75 2.375 C-7.5025 1.59125 -7.255 0.8075 -7 0 C-4.31633121 -1.3418344 -2.84719317 -0.73004953 0 0 Z " fill="#AAD8DF" transform="translate(23,155)"/>
<path d="M0 0 C2.5 1.5625 2.5 1.5625 5 4 C5.63834443 7.44705994 5.76902663 9.70792217 3.9375 12.78515625 C2.625 14.4375 2.625 14.4375 0 17 C-0.66 17 -1.32 17 -2 17 C-1.67 15.68 -1.34 14.36 -1 13 C-0.34 13 0.32 13 1 13 C1.05422947 11.5629191 1.09289723 10.12524538 1.125 8.6875 C1.15980469 7.48673828 1.15980469 7.48673828 1.1953125 6.26171875 C1.15817322 3.71611424 1.15817322 3.71611424 -1 1 C-0.67 0.67 -0.34 0.34 0 0 Z " fill="#93CFD2" transform="translate(37,118)"/>
<path d="M0 0 C2.625 0.375 2.625 0.375 5 1 C5.6875 2.8125 5.6875 2.8125 6 5 C4.8125 6.8125 4.8125 6.8125 3 8 C0.8125 7.6875 0.8125 7.6875 -1 7 C-1.625 4.625 -1.625 4.625 -2 2 C-1.34 1.34 -0.68 0.68 0 0 Z " fill="#B2D9DF" transform="translate(32,263)"/>
<path d="M0 0 C1.32 0 2.64 0 4 0 C4.79953138 3.28696233 5.09658936 4.71023192 4 8 C2.35 7.67 0.7 7.34 -1 7 C-1.625 4.625 -1.625 4.625 -2 2 C-1.34 1.34 -0.68 0.68 0 0 Z " fill="#BCD9DE" transform="translate(36,204)"/>
<path d="M0 0 C4.2742558 1.5830577 6.26531794 4.50568404 9 8 C6.03 8 3.06 8 0 8 C0 5.36 0 2.72 0 0 Z " fill="#D1D1D4" transform="translate(256,373)"/>
<path d="M0 0 C1.14926266 0.95421808 2.29430541 1.91352045 3.4375 2.875 C4.07558594 3.40867187 4.71367187 3.94234375 5.37109375 4.4921875 C7 6 7 6 8 8 C5.36 8 2.72 8 0 8 C0 5.36 0 2.72 0 0 Z " fill="#D7D6DA" transform="translate(256,352)"/>
<path d="M0 0 C2.875 -0.125 2.875 -0.125 6 0 C6.66 0.66 7.32 1.32 8 2 C7.625 5.625 7.625 5.625 7 9 C6.01 8.67 5.02 8.34 4 8 C4.99 6.68 5.98 5.36 7 4 C2.46859347 3.06619039 2.46859347 3.06619039 -2 4 C-1.34 2.68 -0.68 1.36 0 0 Z " fill="#93CCCE" transform="translate(2,118)"/>
<path d="M0 0 C0 0.66 0 1.32 0 2 C-1.010625 1.9175 -2.02125 1.835 -3.0625 1.75 C-7.90275368 2.05731769 -9.99368267 3.3836295 -14 6 C-10.96066598 -1.34505721 -7.12952648 -1.30707985 0 0 Z " fill="#89C4C8" transform="translate(37,117)"/>
<path d="M0 0 C2.475 0.495 2.475 0.495 5 1 C5.33 2.32 5.66 3.64 6 5 C4.34385343 5.38218767 2.67542976 5.71395102 1 6 C0 5 0 5 -0.0625 2.4375 C-0.041875 1.633125 -0.02125 0.82875 0 0 Z " fill="#BDD9DE" transform="translate(17,155)"/>
<path d="M0 0 C1.98 0.495 1.98 0.495 4 1 C4 2.32 4 3.64 4 5 C2.35 4.67 0.7 4.34 -1 4 C-0.67 2.68 -0.34 1.36 0 0 Z " fill="#B9D9DE" transform="translate(3,120)"/>
<path d="" fill="#9AA4AA" transform="translate(0,0)"/>
<path d="" fill="#9AA4AA" transform="translate(0,0)"/>
<path d="" fill="#9AA4AA" transform="translate(0,0)"/>
<path d="" fill="#9AA4AA" transform="translate(0,0)"/>
<path d="" fill="#9AA4AA" transform="translate(0,0)"/>
<path d="" fill="#9AA4AA" transform="translate(0,0)"/>
</svg>
