<svg width="24" height="24" viewBox="0 0 24 24" fill="none" xmlns="http://www.w3.org/2000/svg">
<path d="M12 21.325C11.7667 21.325 11.5333 21.2833 11.3 21.2C11.0667 21.1167 10.8583 20.9917 10.675 20.825C9.59167 19.825 8.63333 18.85 7.8 17.9C6.96667 16.95 6.271 16.0293 5.713 15.138C5.15433 14.246 4.72933 13.3877 4.438 12.563C4.14667 11.7383 4.00067 10.9507 4 10.2C4 7.7 4.80433 5.70833 6.413 4.225C8.02167 2.74167 9.884 2 12 2C14.1167 2 15.9793 2.74167 17.588 4.225C19.1967 5.70833 20.0007 7.7 20 10.2C20 10.95 19.854 11.7377 19.562 12.563C19.27 13.3883 18.845 14.2467 18.287 15.138C17.729 16.0293 17.0333 16.95 16.2 17.9C15.3667 18.85 14.4083 19.825 13.325 20.825C13.1417 20.9917 12.9333 21.1167 12.7 21.2C12.4667 21.2833 12.2333 21.325 12 21.325ZM12 12C12.55 12 13.021 11.8043 13.413 11.413C13.805 11.0217 14.0007 10.5507 14 10C14 9.45 13.804 8.979 13.412 8.587C13.02 8.195 12.5493 7.99933 12 8C11.45 8 10.979 8.196 10.587 8.588C10.195 8.98 9.99933 9.45067 10 10C10 10.55 10.196 11.021 10.588 11.413C10.98 11.805 11.4507 12.0007 12 12Z" fill="#4ECB71"/>
</svg>
